<svg width="21" height="25" viewBox="0 0 21 25" fill="none" xmlns="http://www.w3.org/2000/svg">
<path d="M10.5014 1.16374C10.5696 1.16357 10.6377 1.1704 10.7046 1.1841C10.9284 1.23797 11.1275 1.3693 11.2688 1.55619C11.41 1.74308 11.4848 1.97423 11.4807 2.2111V2.60386C12.9737 2.84323 14.3346 3.62477 15.3179 4.8075C16.3011 5.99022 16.842 7.49624 16.8429 9.05388C16.8429 20.0105 19.8739 16.0625 19.8739 18.9457V19.1028C19.8739 19.2455 19.8189 19.3824 19.721 19.4833C19.6231 19.5843 19.4903 19.641 19.3518 19.641H1.64534C1.50687 19.641 1.37407 19.5843 1.27616 19.4833C1.17824 19.3824 1.12324 19.2455 1.12324 19.1028C1.12324 15.7512 4.15428 20.2927 4.15428 9.04806C4.15575 7.49059 4.69682 5.98487 5.67996 4.80228C6.66311 3.61968 8.02368 2.83798 9.51646 2.59804V2.17328C9.51646 2.04046 9.54189 1.90895 9.59128 1.78627C9.64067 1.6636 9.71306 1.55218 9.80429 1.45839C9.89553 1.36461 10.0038 1.29031 10.123 1.23975C10.2421 1.18918 10.3697 1.16336 10.4986 1.16374H10.5014ZM13.778 20.6563C13.7233 21.515 13.3539 22.3201 12.7446 22.9083C12.1354 23.4965 11.3319 23.8238 10.4972 23.8238C9.66245 23.8238 8.85897 23.4965 8.24971 22.9083C7.64045 22.3201 7.27102 21.515 7.21637 20.6563H13.7808H13.778ZM10.5014 0C10.0293 0.000539766 9.57095 0.163762 9.19919 0.463715C8.82742 0.763667 8.5636 1.18313 8.44967 1.65542C6.8851 2.1066 5.50752 3.07488 4.52859 4.4115C3.54966 5.74811 3.02353 7.3791 3.03104 9.05388C3.03104 15.6145 2.02352 16.1469 1.48166 16.432C0.73095 16.8276 0 17.3601 0 19.1086C0.000739445 19.5587 0.174146 19.9903 0.482387 20.3092C0.790627 20.628 1.20868 20.8082 1.64534 20.8105H6.09878C6.18746 21.9515 6.68975 23.0162 7.50562 23.7925C8.32149 24.5689 9.39108 25 10.5014 25C11.6117 25 12.6813 24.5689 13.4972 23.7925C14.3131 23.0162 14.8154 21.9515 14.904 20.8105H19.349C19.7869 20.8105 20.2068 20.6312 20.5164 20.312C20.8261 19.9929 21 19.56 21 19.1086V18.9515C21 17.4066 20.2747 16.8742 19.5889 16.4989C19.0245 16.1818 17.9633 15.597 17.9633 9.05388C17.9711 7.3786 17.4448 5.74709 16.4652 4.41033C15.4857 3.07357 14.1072 2.10563 12.5419 1.65542C12.4474 1.25678 12.2454 0.893851 11.9592 0.608619C11.6731 0.323387 11.3144 0.127507 10.9247 0.0436395C10.7854 0.014723 10.6436 0.000105636 10.5014 0Z" fill="#999999"/>
</svg>
