<svg width="175" height="112" viewBox="0 0 175 112" fill="none" xmlns="http://www.w3.org/2000/svg">
<path d="M174.876 14.6874C175.253 27.464 173.095 40.1878 168.529 52.1127C163.962 64.0375 157.079 74.9226 148.283 84.1305C139.374 93.3721 128.636 100.621 116.766 105.407C104.896 110.193 92.16 112.408 79.3852 111.908C68.8568 112.42 58.3337 110.785 48.4472 107.1C38.5608 103.416 29.5143 97.7582 21.8488 90.4659C14.4885 82.9585 8.75452 73.993 5.00939 64.1366C1.26425 54.2803 -0.410335 43.7475 0.0914789 33.2052C-0.484279 19.7727 1.66239 6.36344 6.4008 -6.20472C11.1392 -18.7729 18.3695 -30.2361 27.6505 -39.8934C36.4456 -49.0315 47.0207 -56.2378 58.7109 -61.0599C70.4012 -65.8821 82.9541 -68.2157 95.582 -67.9144C106.171 -68.4165 116.748 -66.7057 126.65 -62.8899C136.551 -59.0741 145.563 -53.2355 153.118 -45.7411C160.603 -37.6694 166.388 -28.1543 170.127 -17.7692C173.867 -7.38404 175.482 3.65648 174.876 14.6874Z" fill="white" fill-opacity="0.17"/>
</svg>
