<svg width="175" height="94" viewBox="0 0 175 94" fill="none" xmlns="http://www.w3.org/2000/svg">
<path d="M174.876 -3.31261C175.253 9.46396 173.095 22.1878 168.529 34.1127C163.962 46.0375 157.079 56.9226 148.283 66.1305C139.374 75.3721 128.636 82.6214 116.766 87.407C104.896 92.1926 92.16 94.4078 79.3852 93.9083C68.8568 94.4202 58.3337 92.7846 48.4472 89.1002C38.5608 85.4158 29.5143 79.7582 21.8488 72.4659C14.4885 64.9585 8.75452 55.993 5.00939 46.1366C1.26425 36.2803 -0.410335 25.7475 0.091479 15.2052C-0.484279 1.77274 1.66239 -11.6366 6.4008 -24.2047C11.1392 -36.7729 18.3695 -48.2361 27.6505 -57.8934C36.4456 -67.0315 47.0207 -74.2378 58.7109 -79.0599C70.4012 -83.8821 82.9541 -86.2157 95.582 -85.9144C106.171 -86.4165 116.748 -84.7057 126.65 -80.8899C136.551 -77.0741 145.563 -71.2355 153.118 -63.7411C160.603 -55.6694 166.388 -46.1543 170.127 -35.7692C173.867 -25.384 175.482 -14.3435 174.876 -3.31261Z" fill="white" fill-opacity="0.17"/>
</svg>
