<svg width="32" height="33" viewBox="0 0 32 33" fill="none" xmlns="http://www.w3.org/2000/svg">
<path d="M31.9773 15.1594C32.0463 17.5017 31.6517 19.8344 30.8167 22.0207C29.9817 24.2069 28.723 26.2025 27.1146 27.8906C25.4856 29.5849 23.522 30.9139 21.3515 31.7913C19.181 32.6687 16.8521 33.0748 14.5161 32.9832C12.591 33.077 10.6667 32.7772 8.85892 32.1017C7.05111 31.4262 5.39689 30.389 3.9952 29.0521C2.64933 27.6757 1.60083 26.032 0.916002 24.2251C0.231178 22.4181 -0.0750327 20.487 0.0167276 18.5543C-0.0885538 16.0917 0.30398 13.6333 1.17043 11.3291C2.03688 9.02497 3.359 6.92337 5.05609 5.15287C6.66434 3.47756 8.59806 2.15641 10.7357 1.27235C12.8734 0.38829 15.1688 -0.0395413 17.4778 0.0156927C19.4141 -0.0763543 21.3483 0.237281 23.1588 0.936849C24.9694 1.63642 26.6172 2.70682 27.9988 4.0808C29.3673 5.56061 30.4253 7.30505 31.109 9.20899C31.7928 11.1129 32.0881 13.137 31.9773 15.1594Z" fill="white" fill-opacity="0.17"/>
</svg>
