<svg width="14" height="14" viewBox="0 0 14 14" fill="none" xmlns="http://www.w3.org/2000/svg">
<path d="M6.99935 1.1665C3.78285 1.1665 1.16602 3.78334 1.16602 6.99984C1.16602 10.2163 3.78285 12.8332 6.99935 12.8332C10.2158 12.8332 12.8327 10.2163 12.8327 6.99984C12.8327 3.78334 10.2158 1.1665 6.99935 1.1665ZM6.99935 11.6665C4.42627 11.6665 2.33268 9.57292 2.33268 6.99984C2.33268 4.42675 4.42627 2.33317 6.99935 2.33317C9.57243 2.33317 11.666 4.42675 11.666 6.99984C11.666 9.57292 9.57243 11.6665 6.99935 11.6665Z" fill="#999999"/>
<path d="M7.58268 4.0835H6.41602V7.5835H9.91601V6.41683H7.58268V4.0835Z" fill="#999999"/>
</svg>
