<svg width="39" height="48" viewBox="0 0 39 48" fill="none" xmlns="http://www.w3.org/2000/svg">
<g clip-path="url(#clip0_340_2246)">
<path d="M39 8.71289L30.1148 0H6.89132V6.76106H0V48H32.1042V41.2346H39V8.71289ZM1.81019 46.2416V8.51946H22.4214V16.2784H30.3119V46.2416H1.81019ZM24.2137 10.1943L28.6137 14.5112H24.2137V10.1943ZM23.2414 6.75229H8.6836V1.7584H29.2948V9.51737H37.2077V39.4762H32.1042V15.4783L23.2414 6.75229ZM31.105 3.43328L35.5095 7.75016H31.105V3.43328Z" fill="#AAAAAA"/>
<path d="M14.0337 27.6423V23.0221L12.2414 24.7805V25.8839H6.86454V22.2924L9.55296 24.93L16.6011 18.0195L15.3331 16.7754L9.55296 22.4462L7.68451 20.6087H8.88982L10.6821 18.8503H5.07227V27.6423H14.0337Z" fill="#AAAAAA"/>
<path d="M14.0337 40.8301V32.0381H5.07227V40.8301H14.0337ZM6.86455 33.7965H12.2414V39.0717H6.86455V33.7965Z" fill="#AAAAAA"/>
<path d="M26.3239 24.5649H17.3535V26.3233H26.3239V24.5649Z" fill="#AAAAAA"/>
<path d="M22.9544 20.1689H17.3535V21.9273H22.9544V20.1689Z" fill="#AAAAAA"/>
<path d="M26.3239 33.3569H17.3535V35.1153H26.3239V33.3569Z" fill="#AAAAAA"/>
<path d="M22.9544 37.7529H17.3535V39.5113H22.9544V37.7529Z" fill="#AAAAAA"/>
</g>
<defs>
<clipPath id="clip0_340_2246">
<rect width="39" height="48" fill="white"/>
</clipPath>
</defs>
</svg>
