<svg width="38" height="44" viewBox="0 0 38 44" fill="none" xmlns="http://www.w3.org/2000/svg">
<g clip-path="url(#clip0_573_4093)">
<path d="M34.7224 40.1033H3.35024C2.01419 40.1033 0.927734 38.9047 0.927734 37.4316V3.60027C0.927734 2.12421 2.01419 0.943359 3.35024 0.943359H34.7224C36.0585 0.943359 37.142 2.14192 37.142 3.60027V37.4228C37.142 38.8988 36.0585 40.1033 34.7224 40.1033ZM3.35024 2.69988C2.992 2.69988 2.68956 3.11317 2.68956 3.58551V37.4228C2.68956 37.9099 2.9832 38.3232 3.35024 38.3232H34.7224C35.0807 38.3232 35.3802 37.9099 35.3802 37.4228V3.60027C35.3802 3.11317 35.0865 2.71463 34.7224 2.71463L3.35024 2.69988Z" fill="#07364A"/>
<path d="M35.9697 25.7649H2.10162C1.86798 25.7649 1.64391 25.6716 1.47871 25.5055C1.31351 25.3394 1.2207 25.1142 1.2207 24.8793C1.2207 24.6444 1.31351 24.4191 1.47871 24.253C1.64391 24.087 1.86798 23.9937 2.10162 23.9937H35.9697C36.2034 23.9937 36.4274 24.087 36.5926 24.253C36.7578 24.4191 36.8506 24.6444 36.8506 24.8793C36.8506 25.1142 36.7578 25.3394 36.5926 25.5055C36.4274 25.6716 36.2034 25.7649 35.9697 25.7649Z" fill="#07364A"/>
<path d="M4.87701 43.4245C4.64337 43.4245 4.4193 43.3311 4.2541 43.165C4.0889 42.999 3.99609 42.7737 3.99609 42.5388V40.6937C3.99609 40.4589 4.0889 40.2336 4.2541 40.0675C4.4193 39.9014 4.64337 39.8081 4.87701 39.8081C5.11064 39.8081 5.33471 39.9014 5.49991 40.0675C5.66511 40.2336 5.75792 40.4589 5.75792 40.6937V42.5388C5.75792 42.7737 5.66511 42.999 5.49991 43.165C5.33471 43.3311 5.11064 43.4245 4.87701 43.4245Z" fill="#07364A"/>
<path d="M33.1934 43.6461C32.9598 43.6461 32.7357 43.5528 32.5705 43.3867C32.4053 43.2206 32.3125 42.9954 32.3125 42.7605V40.9154C32.3125 40.6805 32.4053 40.4553 32.5705 40.2892C32.7357 40.1231 32.9598 40.0298 33.1934 40.0298C33.427 40.0298 33.6511 40.1231 33.8163 40.2892C33.9815 40.4553 34.0743 40.6805 34.0743 40.9154V42.7605C34.0743 42.9954 33.9815 43.2206 33.8163 43.3867C33.6511 43.5528 33.427 43.6461 33.1934 43.6461Z" fill="#07364A"/>
<path d="M19.0372 39.5127C18.8035 39.5127 18.5795 39.4194 18.4143 39.2533C18.2491 39.0872 18.1562 38.862 18.1562 38.6271V24.9735C18.1562 24.7386 18.2491 24.5134 18.4143 24.3473C18.5795 24.1812 18.8035 24.0879 19.0372 24.0879C19.2708 24.0879 19.4948 24.1812 19.66 24.3473C19.8252 24.5134 19.9181 24.7386 19.9181 24.9735V38.6271C19.9181 38.862 19.8252 39.0872 19.66 39.2533C19.4948 39.4194 19.2708 39.5127 19.0372 39.5127Z" fill="#07364A"/>
<path d="M14.8526 30.3612C14.8526 30.6631 14.7636 30.9582 14.5968 31.2091C14.43 31.4601 14.1929 31.6558 13.9155 31.7713C13.6381 31.8868 13.3328 31.917 13.0383 31.8581C12.7439 31.7992 12.4734 31.6539 12.2611 31.4404C12.0487 31.227 11.9042 30.955 11.8456 30.659C11.787 30.3629 11.8171 30.056 11.932 29.7771C12.0469 29.4983 12.2414 29.2599 12.4911 29.0922C12.7408 28.9245 13.0343 28.835 13.3345 28.835C13.7369 28.8357 14.1226 28.9968 14.4071 29.2829C14.6917 29.5689 14.8519 29.9567 14.8526 30.3612Z" fill="#07364A"/>
<path d="M26.253 30.3612C26.253 30.6631 26.1639 30.9582 25.9971 31.2091C25.8303 31.4601 25.5932 31.6558 25.3158 31.7713C25.0384 31.8868 24.7332 31.917 24.4387 31.8581C24.1442 31.7992 23.8738 31.6539 23.6614 31.4404C23.4491 31.227 23.3045 30.955 23.246 30.659C23.1874 30.3629 23.2175 30.056 23.3324 29.7771C23.4473 29.4983 23.6418 29.2599 23.8915 29.0922C24.1411 28.9245 24.4346 28.835 24.7349 28.835C25.1375 28.835 25.5236 28.9958 25.8083 29.282C26.093 29.5682 26.253 29.9564 26.253 30.3612Z" fill="#07364A"/>
<path d="M35.5715 18.0862H2.88091C2.64728 18.0862 2.42321 17.9929 2.25801 17.8268C2.0928 17.6607 2 17.4355 2 17.2006C2 16.9657 2.0928 16.7404 2.25801 16.5743C2.42321 16.4082 2.64728 16.3149 2.88091 16.3149H35.5715C35.8052 16.3149 36.0292 16.4082 36.1944 16.5743C36.3596 16.7404 36.4524 16.9657 36.4524 17.2006C36.4524 17.4355 36.3596 17.6607 36.1944 17.8268C36.0292 17.9929 35.8052 18.0862 35.5715 18.0862Z" fill="#07364A"/>
<path d="M35.5715 10.4109H2.88091C2.64728 10.4109 2.42321 10.3176 2.25801 10.1515C2.0928 9.98544 2 9.76017 2 9.52528C2 9.2904 2.0928 9.06513 2.25801 8.89904C2.42321 8.73295 2.64728 8.63965 2.88091 8.63965H35.5715C35.8052 8.63965 36.0292 8.73295 36.1944 8.89904C36.3596 9.06513 36.4524 9.2904 36.4524 9.52528C36.4524 9.76017 36.3596 9.98544 36.1944 10.1515C36.0292 10.3176 35.8052 10.4109 35.5715 10.4109Z" fill="#07364A"/>
</g>
<defs>
<clipPath id="clip0_573_4093">
<rect width="36.2143" height="42.7143" fill="white" transform="translate(0.927734 0.928711)"/>
</clipPath>
</defs>
</svg>
