<svg width="16" height="16" viewBox="0 0 16 16" fill="none" xmlns="http://www.w3.org/2000/svg">
<path d="M12.6458 5.18125C12.642 2.5225 10.4845 0.371255 7.82579 0.375005C5.16829 0.378755 3.01579 2.53625 3.01954 5.19375C3.02079 6.3525 3.59079 7.3725 4.21204 8.32625C4.86454 9.32751 5.30829 10.2913 5.80079 11.365C6.08954 11.9963 6.87704 12.2425 7.56454 12.29C8.23704 12.335 9.09079 12.2588 9.65329 11.7988C10.5345 11.0788 10.5545 9.70125 11.1333 8.78251C11.842 7.66001 12.647 6.5725 12.6458 5.18125Z" fill="#FCC21B"/>
<path d="M9.14071 14.9951C9.21446 14.9413 9.27571 14.8788 9.31821 14.7888C9.36946 14.6763 9.35196 14.5701 9.33946 14.4513C9.32946 14.3501 9.33946 14.3063 9.40821 14.2363C9.48571 14.1576 9.56446 14.0863 9.57821 13.9701C9.58821 13.8838 9.56946 13.8013 9.55321 13.7188C9.54446 13.6888 9.53946 13.6576 9.53946 13.6263C9.55696 13.5601 9.64071 13.5138 9.68696 13.4688C9.80696 13.3526 9.91821 13.1913 9.95321 13.0276C9.97571 12.9251 9.97071 12.7776 9.90571 12.6913C9.80946 12.5638 9.68071 12.6151 9.55821 12.6701C9.51821 12.6876 9.48321 12.7101 9.44321 12.7288C8.68321 13.0976 7.78821 13.0976 6.98196 12.8938C6.77696 12.8426 6.57196 12.7801 6.38071 12.6901C6.22946 12.6201 6.01571 12.5413 5.91196 12.7288C5.82446 12.8863 5.86946 13.0963 5.93321 13.2551C5.97071 13.3476 6.05196 13.4276 6.11946 13.4988C6.18446 13.5676 6.21321 13.6026 6.19446 13.6901C6.17696 13.7701 6.18946 13.8376 6.19696 13.9188C6.20821 14.0288 6.22321 14.1338 6.29446 14.2226C6.36321 14.3088 6.46571 14.3751 6.52696 14.4663C6.58071 14.5451 6.57946 14.6513 6.61071 14.7401C6.66321 14.8851 6.78946 15.0388 6.91696 15.1263C7.06196 15.2251 7.25696 15.2188 7.38321 15.3488C7.54946 15.5213 7.78696 15.6463 8.03196 15.6313C8.33196 15.6138 8.49321 15.3813 8.72196 15.2238C8.81071 15.1626 8.92196 15.1363 9.01571 15.0788C9.05821 15.0501 9.10071 15.0238 9.14071 14.9951Z" fill="#78A3AD"/>
</svg>
