<svg width="39" height="39" viewBox="0 0 39 39" fill="none" xmlns="http://www.w3.org/2000/svg">
<mask id="path-1-outside-1_573_4136" maskUnits="userSpaceOnUse" x="0" y="0" width="39" height="39" fill="black">
<rect fill="white" width="39" height="39"/>
<path d="M37.5921 1.91246L37.4116 1.89442C25.5003 0.70186 13.4997 0.70186 1.58839 1.89442L1.4079 1.91246C1.29651 1.9232 1.19308 1.97493 1.11771 2.05762C1.04233 2.1403 1.00038 2.24803 1 2.35989V15.8876C1.00713 15.9566 1.02289 16.0245 1.04693 16.0897L4.61697 23.227C4.66228 25.4179 5.1809 27.5731 6.13729 29.5449C7.09368 31.5167 8.46523 33.2585 10.1579 34.651L10.1868 34.6799C12.8123 36.8336 16.1036 38.0107 19.5 38.0107C22.8964 38.0107 26.1877 36.8336 28.8132 34.6799L28.8421 34.651C30.5316 33.2613 31.9012 31.5235 32.8575 29.5563C33.8137 27.5891 34.3341 25.4388 34.383 23.2522L37.9531 16.1149C37.9771 16.0498 37.9929 15.9819 38 15.9129V2.35989C37.9996 2.24803 37.9577 2.1403 37.8823 2.05762C37.8069 1.97493 37.7035 1.9232 37.5921 1.91246ZM1.90244 5.48472C13.6059 4.33367 25.3941 4.33367 37.0976 5.48472V15.3536C34.9822 14.9386 32.9066 14.5994 30.9249 14.3504C23.3374 13.4087 15.6626 13.4087 8.07512 14.3504C6.09337 14.5994 4.01415 14.9386 1.90244 15.3536V5.48472ZM37.0976 2.76764V4.57181C25.3939 3.42435 13.6061 3.42435 1.90244 4.57181V2.76764C13.6058 1.61477 25.3942 1.61477 37.0976 2.76764ZM5.51941 23.4651C5.97424 23.3497 9.3241 22.6641 10.0244 22.5486V33.287C7.30998 30.7176 5.69559 27.1978 5.51941 23.4651ZM10.934 22.4151C16.6188 21.5782 22.3956 21.5782 28.0804 22.4151V34.0953C25.6458 36.0387 22.6228 37.0973 19.5072 37.0973C16.3916 37.0973 13.3686 36.0387 10.934 34.0953V22.4151ZM28.9828 33.287V22.5522C29.6326 22.6569 32.9139 23.3316 33.4878 23.4723C33.3081 27.2046 31.6912 30.7228 28.9756 33.2907L28.9828 33.287ZM33.7044 22.5847C33.1016 22.4367 29.416 21.6862 28.6002 21.5671C22.574 20.6362 16.4405 20.6362 10.4142 21.5671C9.50819 21.7042 5.75405 22.4837 5.31727 22.5991L2.12624 16.2232C4.20546 15.8154 6.24498 15.5015 8.19064 15.2417C15.7063 14.3108 23.3082 14.3108 30.8238 15.2417C32.7695 15.4871 34.7945 15.8154 36.8882 16.2232L33.7044 22.5847Z"/>
<path d="M19.5004 24.4683C18.6968 24.4683 17.9112 24.7066 17.2431 25.1532C16.5751 25.5997 16.0546 26.2343 15.7475 26.9767C15.4405 27.7191 15.3607 28.5359 15.5183 29.3236C15.6759 30.1113 16.0637 30.8346 16.6327 31.4019C17.2017 31.9692 17.9264 32.3549 18.7148 32.5104C19.5033 32.6658 20.3201 32.5838 21.062 32.2749C21.8039 31.966 22.4373 31.444 22.8823 30.775C23.3272 30.1061 23.5635 29.3202 23.5614 28.5168C23.5566 27.4427 23.1269 26.414 22.366 25.6555C21.6052 24.897 20.575 24.4702 19.5004 24.4683ZM19.5004 31.685C18.8757 31.685 18.265 31.4998 17.7456 31.1529C17.2262 30.8059 16.8214 30.3128 16.5823 29.7359C16.3432 29.159 16.2807 28.5242 16.4026 27.9117C16.5244 27.2992 16.8253 26.7367 17.267 26.2951C17.7087 25.8535 18.2715 25.5528 18.8842 25.431C19.4969 25.3092 20.132 25.3717 20.7091 25.6107C21.2863 25.8497 21.7796 26.2543 22.1266 26.7736C22.4737 27.2928 22.659 27.9032 22.659 28.5277C22.657 29.3644 22.3237 30.1664 21.7317 30.7581C21.1398 31.3498 20.3375 31.683 19.5004 31.685Z"/>
<path d="M19.5006 22.6641C18.34 22.6641 17.2055 23.0082 16.2406 23.653C15.2757 24.2978 14.5239 25.2142 14.0802 26.2862C13.6366 27.3583 13.5211 28.5378 13.7483 29.6755C13.9755 30.8133 14.5352 31.858 15.3567 32.6776C16.1781 33.4972 17.2243 34.0548 18.3629 34.2798C19.5015 34.5049 20.6812 34.3872 21.7529 33.9417C22.8245 33.4963 23.7399 32.743 24.3832 31.7774C25.0264 30.8117 25.3686 29.677 25.3665 28.5168C25.3617 26.9642 24.7418 25.4766 23.6425 24.3797C22.5431 23.2829 21.0539 22.666 19.5006 22.6641ZM19.5006 33.4891C18.5194 33.4891 17.5602 33.1984 16.7442 32.6537C15.9282 32.109 15.292 31.3348 14.9161 30.4288C14.5401 29.5228 14.4412 28.5258 14.6318 27.5637C14.8224 26.6015 15.2941 25.7175 15.9871 25.0232C16.6802 24.3289 17.5636 23.8555 18.5257 23.6628C19.4878 23.4701 20.4854 23.5669 21.3925 23.9407C22.2997 24.3146 23.0756 24.9488 23.6223 25.7633C24.169 26.5778 24.4619 27.536 24.464 28.5168C24.465 29.834 23.9427 31.0976 23.012 32.03C22.0813 32.9624 20.8183 33.4872 19.5006 33.4891Z"/>
<path d="M19.5002 26.2725C18.9019 26.2725 18.328 26.5101 17.9049 26.933C17.4818 27.3559 17.2441 27.9296 17.2441 28.5277C17.2441 28.6473 17.2917 28.762 17.3763 28.8466C17.4609 28.9312 17.5757 28.9787 17.6954 28.9787C17.815 28.9787 17.9298 28.9312 18.0144 28.8466C18.099 28.762 18.1466 28.6473 18.1466 28.5277C18.1466 28.1688 18.2892 27.8246 18.5431 27.5709C18.7969 27.3171 19.1412 27.1745 19.5002 27.1745C19.6199 27.1745 19.7347 27.127 19.8193 27.0424C19.9039 26.9579 19.9515 26.8431 19.9515 26.7235C19.9515 26.6039 19.9039 26.4892 19.8193 26.4046C19.7347 26.32 19.6199 26.2725 19.5002 26.2725Z"/>
</mask>
<path d="M37.5921 1.91246L37.4116 1.89442C25.5003 0.70186 13.4997 0.70186 1.58839 1.89442L1.4079 1.91246C1.29651 1.9232 1.19308 1.97493 1.11771 2.05762C1.04233 2.1403 1.00038 2.24803 1 2.35989V15.8876C1.00713 15.9566 1.02289 16.0245 1.04693 16.0897L4.61697 23.227C4.66228 25.4179 5.1809 27.5731 6.13729 29.5449C7.09368 31.5167 8.46523 33.2585 10.1579 34.651L10.1868 34.6799C12.8123 36.8336 16.1036 38.0107 19.5 38.0107C22.8964 38.0107 26.1877 36.8336 28.8132 34.6799L28.8421 34.651C30.5316 33.2613 31.9012 31.5235 32.8575 29.5563C33.8137 27.5891 34.3341 25.4388 34.383 23.2522L37.9531 16.1149C37.9771 16.0498 37.9929 15.9819 38 15.9129V2.35989C37.9996 2.24803 37.9577 2.1403 37.8823 2.05762C37.8069 1.97493 37.7035 1.9232 37.5921 1.91246ZM1.90244 5.48472C13.6059 4.33367 25.3941 4.33367 37.0976 5.48472V15.3536C34.9822 14.9386 32.9066 14.5994 30.9249 14.3504C23.3374 13.4087 15.6626 13.4087 8.07512 14.3504C6.09337 14.5994 4.01415 14.9386 1.90244 15.3536V5.48472ZM37.0976 2.76764V4.57181C25.3939 3.42435 13.6061 3.42435 1.90244 4.57181V2.76764C13.6058 1.61477 25.3942 1.61477 37.0976 2.76764ZM5.51941 23.4651C5.97424 23.3497 9.3241 22.6641 10.0244 22.5486V33.287C7.30998 30.7176 5.69559 27.1978 5.51941 23.4651ZM10.934 22.4151C16.6188 21.5782 22.3956 21.5782 28.0804 22.4151V34.0953C25.6458 36.0387 22.6228 37.0973 19.5072 37.0973C16.3916 37.0973 13.3686 36.0387 10.934 34.0953V22.4151ZM28.9828 33.287V22.5522C29.6326 22.6569 32.9139 23.3316 33.4878 23.4723C33.3081 27.2046 31.6912 30.7228 28.9756 33.2907L28.9828 33.287ZM33.7044 22.5847C33.1016 22.4367 29.416 21.6862 28.6002 21.5671C22.574 20.6362 16.4405 20.6362 10.4142 21.5671C9.50819 21.7042 5.75405 22.4837 5.31727 22.5991L2.12624 16.2232C4.20546 15.8154 6.24498 15.5015 8.19064 15.2417C15.7063 14.3108 23.3082 14.3108 30.8238 15.2417C32.7695 15.4871 34.7945 15.8154 36.8882 16.2232L33.7044 22.5847Z" fill="#07364A"/>
<path d="M19.5004 24.4683C18.6968 24.4683 17.9112 24.7066 17.2431 25.1532C16.5751 25.5997 16.0546 26.2343 15.7475 26.9767C15.4405 27.7191 15.3607 28.5359 15.5183 29.3236C15.6759 30.1113 16.0637 30.8346 16.6327 31.4019C17.2017 31.9692 17.9264 32.3549 18.7148 32.5104C19.5033 32.6658 20.3201 32.5838 21.062 32.2749C21.8039 31.966 22.4373 31.444 22.8823 30.775C23.3272 30.1061 23.5635 29.3202 23.5614 28.5168C23.5566 27.4427 23.1269 26.414 22.366 25.6555C21.6052 24.897 20.575 24.4702 19.5004 24.4683ZM19.5004 31.685C18.8757 31.685 18.265 31.4998 17.7456 31.1529C17.2262 30.8059 16.8214 30.3128 16.5823 29.7359C16.3432 29.159 16.2807 28.5242 16.4026 27.9117C16.5244 27.2992 16.8253 26.7367 17.267 26.2951C17.7087 25.8535 18.2715 25.5528 18.8842 25.431C19.4969 25.3092 20.132 25.3717 20.7091 25.6107C21.2863 25.8497 21.7796 26.2543 22.1266 26.7736C22.4737 27.2928 22.659 27.9032 22.659 28.5277C22.657 29.3644 22.3237 30.1664 21.7317 30.7581C21.1398 31.3498 20.3375 31.683 19.5004 31.685Z" fill="#07364A"/>
<path d="M19.5006 22.6641C18.34 22.6641 17.2055 23.0082 16.2406 23.653C15.2757 24.2978 14.5239 25.2142 14.0802 26.2862C13.6366 27.3583 13.5211 28.5378 13.7483 29.6755C13.9755 30.8133 14.5352 31.858 15.3567 32.6776C16.1781 33.4972 17.2243 34.0548 18.3629 34.2798C19.5015 34.5049 20.6812 34.3872 21.7529 33.9417C22.8245 33.4963 23.7399 32.743 24.3832 31.7774C25.0264 30.8117 25.3686 29.677 25.3665 28.5168C25.3617 26.9642 24.7418 25.4766 23.6425 24.3797C22.5431 23.2829 21.0539 22.666 19.5006 22.6641ZM19.5006 33.4891C18.5194 33.4891 17.5602 33.1984 16.7442 32.6537C15.9282 32.109 15.292 31.3348 14.9161 30.4288C14.5401 29.5228 14.4412 28.5258 14.6318 27.5637C14.8224 26.6015 15.2941 25.7175 15.9871 25.0232C16.6802 24.3289 17.5636 23.8555 18.5257 23.6628C19.4878 23.4701 20.4854 23.5669 21.3925 23.9407C22.2997 24.3146 23.0756 24.9488 23.6223 25.7633C24.169 26.5778 24.4619 27.536 24.464 28.5168C24.465 29.834 23.9427 31.0976 23.012 32.03C22.0813 32.9624 20.8183 33.4872 19.5006 33.4891Z" fill="#07364A"/>
<path d="M19.5002 26.2725C18.9019 26.2725 18.328 26.5101 17.9049 26.933C17.4818 27.3559 17.2441 27.9296 17.2441 28.5277C17.2441 28.6473 17.2917 28.762 17.3763 28.8466C17.4609 28.9312 17.5757 28.9787 17.6954 28.9787C17.815 28.9787 17.9298 28.9312 18.0144 28.8466C18.099 28.762 18.1466 28.6473 18.1466 28.5277C18.1466 28.1688 18.2892 27.8246 18.5431 27.5709C18.7969 27.3171 19.1412 27.1745 19.5002 27.1745C19.6199 27.1745 19.7347 27.127 19.8193 27.0424C19.9039 26.9579 19.9515 26.8431 19.9515 26.7235C19.9515 26.6039 19.9039 26.4892 19.8193 26.4046C19.7347 26.32 19.6199 26.2725 19.5002 26.2725Z" fill="#07364A"/>
<path d="M37.5921 1.91246L37.5722 2.11147L37.5729 2.11154L37.5921 1.91246ZM37.4116 1.89442L37.3917 2.09342L37.3917 2.09343L37.4116 1.89442ZM1.58839 1.89442L1.60828 2.09343L1.60832 2.09342L1.58839 1.89442ZM1.4079 1.91246L1.4271 2.11154L1.4278 2.11147L1.4079 1.91246ZM1 2.35989L0.8 2.35922V2.35989H1ZM1 15.8876H0.8V15.8979L0.801057 15.9081L1 15.8876ZM1.04693 16.0897L0.859298 16.1589L0.863119 16.1693L0.868057 16.1791L1.04693 16.0897ZM4.61697 23.227L4.81693 23.2228L4.816 23.1778L4.79584 23.1375L4.61697 23.227ZM10.1579 34.651L10.2993 34.5095L10.2925 34.5027L10.285 34.4966L10.1579 34.651ZM10.1868 34.6799L10.0455 34.8213L10.0524 34.8283L10.06 34.8345L10.1868 34.6799ZM19.5 38.0107V38.2107V38.0107ZM28.8132 34.6799L28.94 34.8345L28.9476 34.8283L28.9545 34.8213L28.8132 34.6799ZM28.8421 34.651L28.715 34.4965L28.7075 34.5027L28.7007 34.5095L28.8421 34.651ZM34.383 23.2522L34.2042 23.1628L34.1841 23.2029L34.1831 23.2478L34.383 23.2522ZM37.9531 16.1149L38.1319 16.2044L38.1369 16.1945L38.1407 16.1842L37.9531 16.1149ZM38 15.9129L38.1989 15.9334L38.2 15.9231V15.9129H38ZM38 2.35989L38.2 2.35989L38.2 2.35922L38 2.35989ZM1.90244 5.48472L1.88286 5.28568L1.70244 5.30343V5.48472H1.90244ZM37.0976 5.48472H37.2976V5.30343L37.1171 5.28568L37.0976 5.48472ZM37.0976 15.3536L37.0591 15.5498L37.2976 15.5966V15.3536H37.0976ZM30.9249 14.3504L30.9498 14.152L30.9495 14.152L30.9249 14.3504ZM8.07512 14.3504L8.05049 14.152L8.05019 14.152L8.07512 14.3504ZM1.90244 15.3536H1.70244V15.5967L1.941 15.5498L1.90244 15.3536ZM37.0976 2.76764H37.2976V2.58637L37.1172 2.5686L37.0976 2.76764ZM37.0976 4.57181L37.078 4.77086L37.2976 4.79238V4.57181H37.0976ZM1.90244 4.57181H1.70244V4.79238L1.92195 4.77086L1.90244 4.57181ZM1.90244 2.76764L1.88283 2.5686L1.70244 2.58637V2.76764H1.90244ZM5.51941 23.4651L5.4702 23.2713L5.31193 23.3114L5.31963 23.4746L5.51941 23.4651ZM10.0244 22.5486H10.2244V22.3129L9.99185 22.3513L10.0244 22.5486ZM10.0244 33.287L9.8869 33.4323L10.2244 33.7518V33.287H10.0244ZM10.934 22.4151L10.9049 22.2172L10.734 22.2424V22.4151H10.934ZM28.0804 22.4151H28.2804V22.2424L28.1095 22.2172L28.0804 22.4151ZM28.0804 34.0953L28.2052 34.2516L28.2804 34.1916V34.0953H28.0804ZM19.5072 37.0973V36.8973V37.0973ZM10.934 34.0953H10.734V34.1916L10.8093 34.2516L10.934 34.0953ZM28.9828 33.287L29.0722 33.466L29.1828 33.4107V33.287H28.9828ZM28.9828 22.5522L29.0146 22.3548L28.7828 22.3174V22.5522H28.9828ZM33.4878 23.4723L33.6876 23.482L33.6955 23.3173L33.5354 23.2781L33.4878 23.4723ZM28.9756 33.2907L28.8382 33.1453L29.065 33.4696L28.9756 33.2907ZM33.7044 22.5847L33.6567 22.7789L33.8118 22.817L33.8832 22.6742L33.7044 22.5847ZM28.6002 21.5671L28.5697 21.7648L28.5713 21.765L28.6002 21.5671ZM10.4142 21.5671L10.4442 21.7649L10.4448 21.7648L10.4142 21.5671ZM5.31727 22.5991L5.13841 22.6886L5.21119 22.834L5.36838 22.7925L5.31727 22.5991ZM2.12624 16.2232L2.08775 16.0269L1.8297 16.0775L1.94739 16.3127L2.12624 16.2232ZM8.19064 15.2417L8.16605 15.0432L8.16417 15.0435L8.19064 15.2417ZM30.8238 15.2417L30.8488 15.0433L30.8484 15.0432L30.8238 15.2417ZM36.8882 16.2232L37.0671 16.3127L37.1849 16.0772L36.9264 16.0269L36.8882 16.2232ZM19.5004 24.4683L19.5008 24.2683L19.5004 24.2683L19.5004 24.4683ZM23.5614 28.5168L23.7614 28.5163L23.7614 28.5159L23.5614 28.5168ZM19.5004 31.685L19.5004 31.885L19.5009 31.885L19.5004 31.685ZM22.659 28.5277L22.859 28.5281V28.5277H22.659ZM19.5006 22.6641L19.5009 22.4641L19.5006 22.4641L19.5006 22.6641ZM25.3665 28.5168L25.5665 28.5164L25.5665 28.5162L25.3665 28.5168ZM19.5006 33.4891L19.5006 33.6891L19.5009 33.6891L19.5006 33.4891ZM24.464 28.5168L24.664 28.5167L24.664 28.5164L24.464 28.5168ZM19.5002 27.1745V26.9745V27.1745ZM37.612 1.71345L37.4315 1.69541L37.3917 2.09343L37.5722 2.11147L37.612 1.71345ZM37.4315 1.69541C25.507 0.501529 13.493 0.501529 1.56847 1.69541L1.60832 2.09342C13.5063 0.902192 25.4937 0.902192 37.3917 2.09342L37.4315 1.69541ZM1.5685 1.69541L1.38801 1.71345L1.4278 2.11147L1.60828 2.09343L1.5685 1.69541ZM1.38871 1.71338C1.22797 1.72888 1.0787 1.80353 0.969907 1.92287L1.26551 2.19236C1.30747 2.14633 1.36505 2.11752 1.4271 2.11154L1.38871 1.71338ZM0.969907 1.92287C0.86111 2.04222 0.800548 2.19773 0.800001 2.35922L1.2 2.36057C1.20021 2.29833 1.22355 2.23838 1.26551 2.19236L0.969907 1.92287ZM0.8 2.35989V15.8876H1.2V2.35989H0.8ZM0.801057 15.9081C0.809901 15.9938 0.82947 16.0781 0.859298 16.1589L1.23456 16.0204C1.21632 15.971 1.20435 15.9195 1.19894 15.8671L0.801057 15.9081ZM0.868057 16.1791L4.4381 23.3164L4.79584 23.1375L1.2258 16.0002L0.868057 16.1791ZM4.41701 23.2311C4.46292 25.4508 4.98837 27.6344 5.95734 29.6322L6.31724 29.4576C5.37344 27.5117 4.86164 25.3849 4.81693 23.2228L4.41701 23.2311ZM5.95734 29.6322C6.92632 31.6299 8.31591 33.3947 10.0309 34.8055L10.285 34.4966C8.61455 33.1224 7.26105 31.4035 6.31724 29.4576L5.95734 29.6322ZM10.0166 34.7925L10.0455 34.8213L10.3282 34.5384L10.2993 34.5095L10.0166 34.7925ZM10.06 34.8345C12.7212 37.0176 16.0574 38.2107 19.5 38.2107V37.8107C16.1499 37.8107 12.9034 36.6496 10.3137 34.5252L10.06 34.8345ZM19.5 38.2107C22.9426 38.2107 26.2788 37.0176 28.94 34.8345L28.6863 34.5252C26.0966 36.6496 22.8501 37.8107 19.5 37.8107V38.2107ZM28.9545 34.8213L28.9834 34.7925L28.7007 34.5095L28.6718 34.5384L28.9545 34.8213ZM28.9691 34.8055C30.6809 33.3975 32.0685 31.6368 33.0374 29.6438L32.6776 29.4689C31.7339 31.4102 30.3823 33.1251 28.715 34.4965L28.9691 34.8055ZM33.0374 29.6438C34.0062 27.6507 34.5334 25.4721 34.583 23.2567L34.1831 23.2478C34.1348 25.4056 33.6213 27.5276 32.6776 29.4689L33.0374 29.6438ZM34.5619 23.3417L38.1319 16.2044L37.7742 16.0254L34.2042 23.1628L34.5619 23.3417ZM38.1407 16.1842C38.1705 16.1033 38.1901 16.0191 38.1989 15.9334L37.8011 15.8923C37.7956 15.9447 37.7837 15.9962 37.7654 16.0457L38.1407 16.1842ZM38.2 15.9129V2.35989H37.8V15.9129H38.2ZM38.2 2.35922C38.1995 2.19773 38.1389 2.04222 38.0301 1.92287L37.7345 2.19236C37.7765 2.23838 37.7998 2.29833 37.8 2.36057L38.2 2.35922ZM38.0301 1.92287C37.9213 1.80353 37.772 1.72888 37.6113 1.71338L37.5729 2.11154C37.6349 2.11752 37.6925 2.14633 37.7345 2.19236L38.0301 1.92287ZM1.92201 5.68376C13.6124 4.53399 25.3876 4.53399 37.078 5.68376L37.1171 5.28568C25.4007 4.13335 13.5993 4.13335 1.88286 5.28568L1.92201 5.68376ZM36.8976 5.48472V15.3536H37.2976V5.48472H36.8976ZM37.1361 15.1573C35.0168 14.7416 32.9366 14.4016 30.9498 14.152L30.8999 14.5489C32.8766 14.7972 34.9477 15.1356 37.0591 15.5498L37.1361 15.1573ZM30.9495 14.152C23.3457 13.2082 15.6543 13.2082 8.05049 14.152L8.09976 14.5489C15.6709 13.6092 23.3292 13.6092 30.9002 14.5489L30.9495 14.152ZM8.05019 14.152C6.06342 14.4016 3.97963 14.7416 1.86388 15.1573L1.941 15.5498C4.04866 15.1356 6.12332 14.7972 8.10006 14.5489L8.05019 14.152ZM2.10244 15.3536V5.48472H1.70244V15.3536H2.10244ZM36.8976 2.76764V4.57181H37.2976V2.76764H36.8976ZM37.1171 4.37277C25.4005 3.22403 13.5995 3.22403 1.88292 4.37277L1.92195 4.77086C13.6126 3.62467 25.3874 3.62467 37.078 4.77086L37.1171 4.37277ZM2.10244 4.57181V2.76764H1.70244V4.57181H2.10244ZM1.92205 2.96668C13.6124 1.81509 25.3876 1.81509 37.078 2.96668L37.1172 2.5686C25.4008 1.41445 13.5992 1.41445 1.88283 2.5686L1.92205 2.96668ZM5.56862 23.659C6.01677 23.5452 9.3609 22.8607 10.0569 22.7459L9.99185 22.3513C9.28729 22.4674 5.93171 23.1541 5.4702 23.2713L5.56862 23.659ZM9.82439 22.5486V33.287H10.2244V22.5486H9.82439ZM10.1619 33.1418C7.485 30.6079 5.89293 27.1368 5.71919 23.4557L5.31963 23.4746C5.49825 27.2589 7.13497 30.8273 9.8869 33.4323L10.1619 33.1418ZM10.9632 22.613C16.6286 21.7789 22.3858 21.7789 28.0513 22.613L28.1095 22.2172C22.4054 21.3775 16.609 21.3775 10.9049 22.2172L10.9632 22.613ZM27.8804 22.4151V34.0953H28.2804V22.4151H27.8804ZM27.9556 33.939C25.5565 35.8541 22.5775 36.8973 19.5072 36.8973V37.2973C22.6681 37.2973 25.7352 36.2233 28.2052 34.2516L27.9556 33.939ZM19.5072 36.8973C16.437 36.8973 13.4579 35.8541 11.0588 33.939L10.8093 34.2516C13.2793 36.2233 16.3463 37.2973 19.5072 37.2973V36.8973ZM29.1828 33.287V22.5522H28.7828V33.287H29.1828ZM28.951 22.7497C29.595 22.8534 32.8709 23.527 33.4402 23.6666L33.5354 23.2781C32.9568 23.1362 29.6702 22.4603 29.0146 22.3548L28.951 22.7497ZM33.288 23.4627C33.1108 27.1434 31.5163 30.613 28.8382 33.1453L29.113 33.436C31.8661 30.8327 33.5053 27.2659 33.6876 23.482L33.288 23.4627ZM29.065 33.4696L29.0722 33.466L28.8934 33.1081L28.8862 33.1117L29.065 33.4696ZM33.7521 22.3904C33.1446 22.2414 29.4526 21.4894 28.6291 21.3692L28.5713 21.765C29.3794 21.883 33.0585 22.6321 33.6567 22.7789L33.7521 22.3904ZM28.6307 21.3695C22.5843 20.4354 16.4302 20.4354 10.3837 21.3695L10.4448 21.7648C16.4508 20.837 22.5637 20.837 28.5697 21.7648L28.6307 21.3695ZM10.3843 21.3694C9.47179 21.5075 5.71053 22.2883 5.26615 22.4058L5.36838 22.7925C5.79756 22.679 9.54459 21.901 10.4442 21.7649L10.3843 21.3694ZM5.49612 22.5096L2.30509 16.1337L1.94739 16.3127L5.13841 22.6886L5.49612 22.5096ZM2.16473 16.4194C4.23883 16.0127 6.27414 15.6994 8.21711 15.4399L8.16417 15.0435C6.21582 15.3036 4.17209 15.6182 2.08775 16.0269L2.16473 16.4194ZM8.21523 15.4402C15.7145 14.5113 23.2999 14.5113 30.7992 15.4402L30.8484 15.0432C23.3164 14.1102 15.698 14.1102 8.16605 15.0432L8.21523 15.4402ZM30.7988 15.4401C32.7396 15.6849 34.7603 16.0125 36.85 16.4195L36.9264 16.0269C34.8288 15.6183 32.7993 15.2892 30.8488 15.0433L30.7988 15.4401ZM36.7094 16.1337L33.5255 22.4952L33.8832 22.6742L37.0671 16.3127L36.7094 16.1337ZM19.5004 24.2683C18.6572 24.2683 17.833 24.5184 17.132 24.9869L17.3543 25.3194C17.9894 24.8949 18.7363 24.6683 19.5004 24.6683L19.5004 24.2683ZM17.132 24.9869C16.431 25.4554 15.8849 26.1213 15.5627 26.9003L15.9324 27.0531C16.2243 26.3473 16.7191 25.744 17.3543 25.3194L17.132 24.9869ZM15.5627 26.9003C15.2405 27.6792 15.1568 28.5363 15.3222 29.3628L15.7144 29.2844C15.5646 28.5354 15.6404 27.7589 15.9324 27.0531L15.5627 26.9003ZM15.3222 29.3628C15.4875 30.1894 15.8945 30.9483 16.4915 31.5435L16.7739 31.2603C16.2329 30.7209 15.8642 30.0333 15.7144 29.2844L15.3222 29.3628ZM16.4915 31.5435C17.0886 32.1388 17.8489 32.5435 18.6761 32.7066L18.7535 32.3141C18.0038 32.1664 17.3149 31.7996 16.7739 31.2603L16.4915 31.5435ZM18.6761 32.7066C19.5034 32.8696 20.3605 32.7837 21.1389 32.4596L20.9851 32.0903C20.2798 32.384 19.5031 32.4619 18.7535 32.3141L18.6761 32.7066ZM21.1389 32.4596C21.9173 32.1354 22.582 31.5877 23.0488 30.8858L22.7157 30.6643C22.2927 31.3003 21.6905 31.7966 20.9851 32.0903L21.1389 32.4596ZM23.0488 30.8858C23.5156 30.1839 23.7636 29.3592 23.7614 28.5163L23.3614 28.5174C23.3634 29.2811 23.1387 30.0283 22.7157 30.6643L23.0488 30.8858ZM23.7614 28.5159C23.7564 27.3889 23.3055 26.3097 22.5073 25.5139L22.2248 25.7971C22.9483 26.5184 23.3569 27.4964 23.3614 28.5177L23.7614 28.5159ZM22.5073 25.5139C21.709 24.718 20.6282 24.2703 19.5008 24.2683L19.5001 24.6683C20.5218 24.6701 21.5014 25.0759 22.2248 25.7971L22.5073 25.5139ZM19.5004 31.485C18.9153 31.485 18.3432 31.3115 17.8567 30.9865L17.6345 31.3192C18.1869 31.6881 18.8362 31.885 19.5004 31.885V31.485ZM17.8567 30.9865C17.3702 30.6616 16.991 30.1997 16.7671 29.6593L16.3975 29.8125C16.6518 30.4259 17.0822 30.9503 17.6345 31.3192L17.8567 30.9865ZM16.7671 29.6593C16.5432 29.119 16.4846 28.5244 16.5987 27.9507L16.2064 27.8727C16.0768 28.5239 16.1433 29.199 16.3975 29.8125L16.7671 29.6593ZM16.5987 27.9507C16.7129 27.3771 16.9946 26.8501 17.4084 26.4366L17.1256 26.1537C16.6559 26.6232 16.336 27.2214 16.2064 27.8727L16.5987 27.9507ZM17.4084 26.4366C17.8221 26.023 18.3493 25.7413 18.9232 25.6272L18.8452 25.2349C18.1937 25.3644 17.5953 25.6841 17.1256 26.1537L17.4084 26.4366ZM18.9232 25.6272C19.4971 25.5131 20.092 25.5716 20.6326 25.7955L20.7856 25.4259C20.172 25.1718 19.4967 25.1053 18.8452 25.2349L18.9232 25.6272ZM20.6326 25.7955C21.1732 26.0193 21.6353 26.3984 21.9604 26.8847L22.2929 26.6624C21.9239 26.1103 21.3993 25.68 20.7856 25.4259L20.6326 25.7955ZM21.9604 26.8847C22.2854 27.371 22.459 27.9428 22.459 28.5277H22.859C22.859 27.8636 22.662 27.2145 22.2929 26.6624L21.9604 26.8847ZM22.459 28.5272C22.4572 29.3111 22.1449 30.0623 21.5903 30.6166L21.8731 30.8995C22.5025 30.2705 22.8569 29.4178 22.859 28.5281L22.459 28.5272ZM21.5903 30.6166C21.0358 31.171 20.2842 31.4832 19.5 31.485L19.5009 31.885C20.3908 31.8829 21.2438 31.5286 21.8731 30.8995L21.5903 30.6166ZM19.5006 22.4641C18.3004 22.4641 17.1272 22.82 16.1295 23.4867L16.3517 23.8193C17.2837 23.1965 18.3795 22.8641 19.5006 22.8641L19.5006 22.4641ZM16.1295 23.4867C15.1317 24.1535 14.3542 25.1011 13.8954 26.2098L14.265 26.3627C14.6936 25.3272 15.4197 24.4421 16.3517 23.8193L16.1295 23.4867ZM13.8954 26.2098C13.4366 27.3184 13.3172 28.5382 13.5521 29.7147L13.9444 29.6364C13.7249 28.5375 13.8365 27.3982 14.265 26.3627L13.8954 26.2098ZM13.5521 29.7147C13.7871 30.8912 14.366 31.9716 15.2154 32.8192L15.4979 32.536C14.7045 31.7444 14.1639 30.7353 13.9444 29.6364L13.5521 29.7147ZM15.2154 32.8192C16.0649 33.6668 17.1467 34.2434 18.3241 34.476L18.4017 34.0836C17.3019 33.8663 16.2914 33.3277 15.4979 32.536L15.2154 32.8192ZM18.3241 34.476C19.5015 34.7087 20.7215 34.5871 21.8297 34.1264L21.6761 33.7571C20.641 34.1873 19.5014 34.301 18.4017 34.0836L18.3241 34.476ZM21.8297 34.1264C22.9378 33.6658 23.8844 32.8869 24.5496 31.8882L24.2167 31.6665C23.5954 32.5992 22.7112 33.3268 21.6761 33.7571L21.8297 34.1264ZM24.5496 31.8882C25.2148 30.8896 25.5687 29.7162 25.5665 28.5164L25.1665 28.5172C25.1685 29.6377 24.838 30.7338 24.2167 31.6665L24.5496 31.8882ZM25.5665 28.5162C25.5615 26.9106 24.9205 25.3724 23.7837 24.2382L23.5012 24.5213C24.5631 25.5808 25.1619 27.0177 25.1665 28.5174L25.5665 28.5162ZM23.7837 24.2382C22.6469 23.1039 21.107 22.466 19.5009 22.4641L19.5004 22.8641C21.0008 22.8659 22.4393 23.4618 23.5012 24.5213L23.7837 24.2382ZM19.5006 33.2891C18.5589 33.2891 17.6384 33.0101 16.8553 32.4873L16.6332 32.82C17.482 33.3867 18.4799 33.6891 19.5006 33.6891L19.5006 33.2891ZM16.8553 32.4873C16.0721 31.9646 15.4616 31.2216 15.1008 30.3521L14.7313 30.5055C15.1225 31.4479 15.7843 32.2534 16.6332 32.82L16.8553 32.4873ZM15.1008 30.3521C14.74 29.4827 14.645 28.5259 14.828 27.6025L14.4356 27.5248C14.2373 28.5257 14.3402 29.563 14.7313 30.5055L15.1008 30.3521ZM14.828 27.6025C15.0109 26.6792 15.4636 25.8308 16.1287 25.1645L15.8456 24.8819C15.1246 25.6042 14.6339 26.5239 14.4356 27.5248L14.828 27.6025ZM16.1287 25.1645C16.7938 24.4981 17.6416 24.0438 18.5649 23.8589L18.4864 23.4667C17.4856 23.6671 16.5666 24.1596 15.8456 24.8819L16.1287 25.1645ZM18.5649 23.8589C19.4883 23.674 20.4457 23.7668 21.3163 24.1256L21.4687 23.7558C20.5251 23.3669 19.4872 23.2663 18.4864 23.4667L18.5649 23.8589ZM21.3163 24.1256C22.1869 24.4844 22.9316 25.0931 23.4562 25.8748L23.7883 25.6518C23.2196 24.8045 22.4124 24.1447 21.4687 23.7558L21.3163 24.1256ZM23.4562 25.8748C23.9809 26.6564 24.262 27.576 24.264 28.5172L24.664 28.5164C24.6618 27.496 24.3571 26.4992 23.7883 25.6518L23.4562 25.8748ZM24.264 28.5169C24.2649 29.7811 23.7637 30.9938 22.8704 31.8887L23.1535 32.1713C24.1217 31.2014 24.665 29.8869 24.664 28.5167L24.264 28.5169ZM22.8704 31.8887C21.9772 32.7835 20.765 33.2873 19.5003 33.2891L19.5009 33.6891C20.8716 33.6871 22.1854 33.1412 23.1535 32.1713L22.8704 31.8887ZM19.5002 26.0725C18.8489 26.0725 18.2242 26.3311 17.7635 26.7915L18.0463 27.0744C18.4319 26.689 18.9549 26.4725 19.5002 26.4725V26.0725ZM17.7635 26.7915C17.3029 27.252 17.0441 27.8765 17.0441 28.5277H17.4441C17.4441 27.9826 17.6607 27.4599 18.0463 27.0744L17.7635 26.7915ZM17.0441 28.5277C17.0441 28.7004 17.1128 28.866 17.2349 28.9881L17.5177 28.7052C17.4706 28.6581 17.4441 28.5942 17.4441 28.5277H17.0441ZM17.2349 28.9881C17.357 29.1101 17.5227 29.1787 17.6954 29.1787V28.7787C17.6287 28.7787 17.5648 28.7523 17.5177 28.7052L17.2349 28.9881ZM17.6954 29.1787C17.868 29.1787 18.0337 29.1101 18.1558 28.9881L17.873 28.7052C17.8259 28.7523 17.762 28.7787 17.6954 28.7787V29.1787ZM18.1558 28.9881C18.2779 28.866 18.3466 28.7004 18.3466 28.5277H17.9466C17.9466 28.5942 17.9201 28.6581 17.873 28.7052L18.1558 28.9881ZM18.3466 28.5277C18.3466 28.2219 18.4681 27.9286 18.6845 27.7123L18.4017 27.4294C18.1103 27.7207 17.9466 28.1157 17.9466 28.5277H18.3466ZM18.6845 27.7123C18.9008 27.4961 19.1942 27.3745 19.5002 27.3745V26.9745C19.0882 26.9745 18.693 27.1382 18.4017 27.4294L18.6845 27.7123ZM19.5002 27.3745C19.6729 27.3745 19.8386 27.306 19.9607 27.1839L19.6779 26.901C19.6308 26.9481 19.5669 26.9745 19.5002 26.9745L19.5002 27.3745ZM19.9607 27.1839C20.0828 27.0618 20.1515 26.8962 20.1515 26.7235H19.7515C19.7515 26.7901 19.725 26.8539 19.6779 26.901L19.9607 27.1839ZM20.1515 26.7235C20.1515 26.5508 20.0828 26.3852 19.9607 26.2631L19.6779 26.546C19.725 26.5931 19.7515 26.657 19.7515 26.7235H20.1515ZM19.9607 26.2631C19.8386 26.141 19.6729 26.0725 19.5002 26.0725V26.4725C19.5669 26.4725 19.6308 26.4989 19.6779 26.546L19.9607 26.2631ZM11.134 34.0953V22.4151H10.734V34.0953H11.134Z" fill="#07364A" mask="url(#path-1-outside-1_573_4136)"/>
</svg>
