<svg width="40" height="40" viewBox="0 0 40 40" fill="none" xmlns="http://www.w3.org/2000/svg">
<mask id="path-1-outside-1_573_4121" maskUnits="userSpaceOnUse" x="0" y="0.00976562" width="40" height="40" fill="black">
<rect fill="white" y="0.00976562" width="40" height="40"/>
<path d="M20.0363 1.00977C9.5403 1.00977 1 9.54882 1 20.0461C1 30.5434 9.5403 39.0812 20.0363 39.0812C30.5324 39.0812 39.0714 30.5421 39.0714 20.0436C39.0714 9.5451 30.5324 1.00977 20.0363 1.00977ZM20.0363 37.6141C10.6207 37.6141 2.54046 30.0858 2.4783 20.0473C2.47781 19.8774 2.5108 19.709 2.57539 19.5518C2.63998 19.3945 2.73491 19.2516 2.85475 19.1311C2.97459 19.0105 3.117 18.9148 3.27384 18.8493C3.43068 18.7838 3.59889 18.7498 3.76886 18.7493C3.93882 18.7488 4.10722 18.7818 4.26443 18.8464C4.42165 18.911 4.56461 19.0059 4.68514 19.1258C4.80568 19.2456 4.90143 19.388 4.96692 19.5449C5.03242 19.7017 5.06638 19.8699 5.06687 20.0399V26.8296C5.0676 27.1931 5.13991 27.5528 5.27968 27.8883C5.41944 28.2238 5.62392 28.5285 5.88144 28.785C6.13895 29.0414 6.44447 29.2447 6.78053 29.3831C7.11659 29.5215 7.47663 29.5924 7.84008 29.5916C8.20352 29.5909 8.56327 29.5186 8.89877 29.3788C9.23427 29.239 9.53895 29.0346 9.79542 28.7771C10.0519 28.5195 10.2551 28.214 10.3936 27.878C10.532 27.5419 10.6028 27.1819 10.6021 26.8184C10.6021 25.1238 13.2416 25.0865 13.2354 26.8184C13.2068 32.4979 12.9644 33.1481 14.0137 34.2C15.7407 35.9319 18.7383 34.7134 18.7383 32.2504V30.8828C18.7337 30.7087 18.7642 30.5355 18.8278 30.3734C18.8914 30.2113 18.9869 30.0636 19.1087 29.9392C19.2305 29.8147 19.376 29.7159 19.5367 29.6487C19.6973 29.5816 19.8698 29.5473 20.0439 29.5481C20.2181 29.5488 20.3903 29.5846 20.5504 29.6531C20.7105 29.7217 20.8551 29.8217 20.9758 29.9472C21.0965 30.0727 21.1908 30.2212 21.253 30.3838C21.3152 30.5465 21.3442 30.72 21.3381 30.894C21.3381 31.628 21.6297 32.332 22.1487 32.851C22.6677 33.37 23.3717 33.6616 24.1057 33.6616C24.8397 33.6616 25.5437 33.37 26.0627 32.851C26.5817 32.332 26.8733 31.628 26.8733 30.894V26.8184C26.8687 26.6443 26.8991 26.4711 26.9627 26.309C27.0264 26.1469 27.1219 25.9993 27.2437 25.8748C27.3654 25.7503 27.511 25.6515 27.6716 25.5844C27.8323 25.5172 28.0048 25.483 28.179 25.4837C28.3531 25.4845 28.5253 25.5202 28.6854 25.5887C28.8454 25.6573 28.9901 25.7573 29.1108 25.8828C29.2315 26.0083 29.3258 26.1568 29.388 26.3195C29.4502 26.4821 29.4791 26.6556 29.473 26.8296C29.473 27.5636 29.7647 28.2676 30.2837 28.7866C30.8027 29.3056 31.5066 29.5972 32.2407 29.5972C32.9747 29.5972 33.6786 29.3056 34.1977 28.7866C34.7167 28.2676 35.0083 27.5636 35.0083 26.8296V22.7515C35.0083 21.3963 36.8732 20.9376 37.4713 22.2032C36.3995 30.8766 28.9882 37.6141 20.0363 37.6141ZM37.5993 20.3147C37.1785 20.0911 36.7069 19.9801 36.2305 19.9925C35.7541 20.0049 35.289 20.1403 34.8804 20.3856C34.4717 20.6308 34.1334 20.9775 33.8983 21.3921C33.6633 21.8067 33.5394 22.275 33.5387 22.7515V26.8296C33.5387 28.5329 30.9377 28.5553 30.9377 26.8184C30.9223 26.0947 30.6241 25.4058 30.1068 24.8994C29.5896 24.3931 28.8946 24.1095 28.1707 24.1095C27.4468 24.1095 26.7518 24.3931 26.2346 24.8994C25.7173 25.4058 25.419 26.0947 25.4037 26.8184V30.8977C25.4022 31.2426 25.2638 31.5728 25.0188 31.8157C24.7739 32.0585 24.4425 32.1941 24.0976 32.1926C23.7527 32.1911 23.4225 32.0527 23.1796 31.8078C22.9368 31.5628 22.8012 31.2314 22.8027 30.8865C22.7874 30.1628 22.4891 29.474 21.9718 28.9676C21.4546 28.4612 20.7596 28.1776 20.0357 28.1776C19.3119 28.1776 18.6168 28.4612 18.0996 28.9676C17.5823 29.474 17.2841 30.1628 17.2687 30.8865V32.2542C17.2673 32.5102 17.1902 32.7602 17.0472 32.9726C16.9042 33.185 16.7016 33.3504 16.4649 33.448C16.2282 33.5457 15.9679 33.5712 15.7167 33.5214C15.4655 33.4715 15.2347 33.3486 15.0531 33.168C14.9333 33.0476 14.8386 32.9046 14.7746 32.7473C14.7105 32.59 14.6785 32.4215 14.6802 32.2517C14.7087 26.5735 14.9512 25.9232 13.9018 24.8701C12.206 23.1705 9.13995 24.2945 9.13995 26.8309C9.13995 27.1758 9.00294 27.5066 8.75905 27.7504C8.51516 27.9943 8.18437 28.1314 7.83945 28.1314C7.49454 28.1314 7.16375 27.9943 6.91986 27.7504C6.67596 27.5066 6.53894 27.1758 6.53894 26.8309V20.0436C6.53884 19.5837 6.42375 19.1311 6.20415 18.727C5.98455 18.3228 5.66741 17.98 5.28156 17.7297C4.89571 17.4794 4.45341 17.3295 3.99487 17.2937C3.53634 17.2579 3.07612 17.3373 2.65608 17.5247C3.88447 9.02912 11.2113 2.4806 20.0413 2.4806C29.764 2.47687 37.7473 10.449 37.5981 20.3147H37.5993ZM20.0363 13.2116C18.6839 13.2116 17.3618 13.6127 16.2372 14.3641C15.1127 15.1155 14.2362 16.1834 13.7187 17.433C13.2011 18.6825 13.0657 20.0574 13.3295 21.3839C13.5934 22.7104 14.2446 23.9288 15.201 24.8852C16.1573 25.8415 17.3758 26.4928 18.7023 26.7566C20.0287 27.0205 21.4037 26.8851 22.6532 26.3675C23.9027 25.8499 24.9707 24.9735 25.7221 23.8489C26.4735 22.7244 26.8745 21.4023 26.8745 20.0498C26.8745 18.2362 26.1541 16.4969 24.8717 15.2145C23.5893 13.9321 21.8499 13.2116 20.0363 13.2116ZM20.0363 25.4135C18.9748 25.4137 17.9371 25.0992 17.0543 24.5097C16.1715 23.9202 15.4834 23.0821 15.0769 22.1015C14.6704 21.121 14.5638 20.0418 14.7705 19.0007C14.9773 17.9595 15.4881 17.003 16.2385 16.2521C16.9888 15.5013 17.9449 14.9897 18.986 14.7823C20.027 14.5748 21.1062 14.6806 22.0871 15.0865C23.068 15.4923 23.9065 16.1799 24.4966 17.0622C25.0867 17.9446 25.402 18.9821 25.4024 20.0436C25.4015 21.4668 24.8359 22.8315 23.8299 23.8383C22.8239 24.845 21.4596 25.4115 20.0363 25.4135ZM14.2176 5.81019C14.2176 5.71386 14.2366 5.61847 14.2735 5.52947C14.3103 5.44047 14.3644 5.35961 14.4325 5.29149C14.5006 5.22337 14.5815 5.16934 14.6705 5.13247C14.7595 5.09561 14.8549 5.07664 14.9512 5.07664H16.3064C16.5009 5.07664 16.6875 5.15392 16.8251 5.29149C16.9627 5.42906 17.0399 5.61564 17.0399 5.81019C17.0399 6.73397 15.9993 6.54374 14.9512 6.54374C14.8549 6.54374 14.7595 6.52477 14.6705 6.4879C14.5815 6.45104 14.5006 6.39701 14.4325 6.32889C14.3644 6.26077 14.3103 6.17991 14.2735 6.09091C14.2366 6.00191 14.2176 5.90652 14.2176 5.81019ZM30.2563 17.5334C30.2563 18.5827 30.4453 19.6221 29.5228 19.6221C28.6003 19.6221 28.7892 18.5802 28.7892 17.5334C28.7917 16.5623 30.2588 16.5623 30.2588 17.5334H30.2563ZM22.6883 11.0346V9.67937C22.6883 8.70835 24.1554 8.70959 24.1554 9.67937C24.1554 10.7287 24.3444 11.7681 23.4219 11.7681C23.2277 11.7675 23.0418 11.6899 22.9048 11.5524C22.7677 11.4149 22.6908 11.2287 22.6908 11.0346H22.6883ZM28.8837 10.8754C28.8158 10.9438 28.735 10.998 28.646 11.035C28.557 11.072 28.4616 11.0911 28.3653 11.0911C28.2689 11.0911 28.1735 11.072 28.0845 11.035C27.9955 10.998 27.9148 10.9438 27.8468 10.8754C27.1941 10.2227 28.0644 9.61969 28.8054 8.88614C28.8733 8.8178 28.9541 8.76356 29.0431 8.72655C29.1321 8.68955 29.2275 8.67049 29.3239 8.67049C29.4202 8.67049 29.5157 8.68955 29.6046 8.72655C29.6936 8.76356 29.7744 8.8178 29.8423 8.88614C30.4988 9.53266 29.6272 10.1344 28.8862 10.8754H28.8837ZM20.3932 4.12923C21.0459 3.47649 21.6477 4.34681 22.3887 5.08783C23.0737 5.77165 22.0356 6.80981 21.3518 6.12599C20.6095 5.38746 19.7404 4.78694 20.3932 4.12923ZM32.9506 14.297L33.9092 15.2556C34.593 15.9407 33.5561 16.9776 32.871 16.2938L31.9124 15.3352C31.2261 14.6539 32.268 13.6169 32.9543 14.302L32.9506 14.297ZM13.8919 12.2257L12.9321 11.2671C12.2457 10.582 13.2851 9.5451 13.9702 10.2302C14.7162 10.9761 15.5865 11.5742 14.9288 12.2195C14.7932 12.3578 14.6082 12.4368 14.4145 12.4388C14.2208 12.4409 14.0342 12.3661 13.8956 12.2306L13.8919 12.2257ZM10.8607 19.3237C11.547 20.01 10.5088 21.047 9.82377 20.3607C9.07779 19.6147 8.20747 19.0166 8.86519 18.3714C9.5229 17.7261 10.1234 18.5877 10.8644 19.3287L10.8607 19.3237ZM9.50549 12.2257C8.75951 12.9717 8.16147 13.842 7.5162 13.1855C6.87092 12.529 7.73377 11.9298 8.47478 11.1888C9.15861 10.5074 10.1943 11.5456 9.50921 12.2306L9.50549 12.2257Z"/>
</mask>
<path d="M20.0363 1.00977C9.5403 1.00977 1 9.54882 1 20.0461C1 30.5434 9.5403 39.0812 20.0363 39.0812C30.5324 39.0812 39.0714 30.5421 39.0714 20.0436C39.0714 9.5451 30.5324 1.00977 20.0363 1.00977ZM20.0363 37.6141C10.6207 37.6141 2.54046 30.0858 2.4783 20.0473C2.47781 19.8774 2.5108 19.709 2.57539 19.5518C2.63998 19.3945 2.73491 19.2516 2.85475 19.1311C2.97459 19.0105 3.117 18.9148 3.27384 18.8493C3.43068 18.7838 3.59889 18.7498 3.76886 18.7493C3.93882 18.7488 4.10722 18.7818 4.26443 18.8464C4.42165 18.911 4.56461 19.0059 4.68514 19.1258C4.80568 19.2456 4.90143 19.388 4.96692 19.5449C5.03242 19.7017 5.06638 19.8699 5.06687 20.0399V26.8296C5.0676 27.1931 5.13991 27.5528 5.27968 27.8883C5.41944 28.2238 5.62392 28.5285 5.88144 28.785C6.13895 29.0414 6.44447 29.2447 6.78053 29.3831C7.11659 29.5215 7.47663 29.5924 7.84008 29.5916C8.20352 29.5909 8.56327 29.5186 8.89877 29.3788C9.23427 29.239 9.53895 29.0346 9.79542 28.7771C10.0519 28.5195 10.2551 28.214 10.3936 27.878C10.532 27.5419 10.6028 27.1819 10.6021 26.8184C10.6021 25.1238 13.2416 25.0865 13.2354 26.8184C13.2068 32.4979 12.9644 33.1481 14.0137 34.2C15.7407 35.9319 18.7383 34.7134 18.7383 32.2504V30.8828C18.7337 30.7087 18.7642 30.5355 18.8278 30.3734C18.8914 30.2113 18.9869 30.0636 19.1087 29.9392C19.2305 29.8147 19.376 29.7159 19.5367 29.6487C19.6973 29.5816 19.8698 29.5473 20.0439 29.5481C20.2181 29.5488 20.3903 29.5846 20.5504 29.6531C20.7105 29.7217 20.8551 29.8217 20.9758 29.9472C21.0965 30.0727 21.1908 30.2212 21.253 30.3838C21.3152 30.5465 21.3442 30.72 21.3381 30.894C21.3381 31.628 21.6297 32.332 22.1487 32.851C22.6677 33.37 23.3717 33.6616 24.1057 33.6616C24.8397 33.6616 25.5437 33.37 26.0627 32.851C26.5817 32.332 26.8733 31.628 26.8733 30.894V26.8184C26.8687 26.6443 26.8991 26.4711 26.9627 26.309C27.0264 26.1469 27.1219 25.9993 27.2437 25.8748C27.3654 25.7503 27.511 25.6515 27.6716 25.5844C27.8323 25.5172 28.0048 25.483 28.179 25.4837C28.3531 25.4845 28.5253 25.5202 28.6854 25.5887C28.8454 25.6573 28.9901 25.7573 29.1108 25.8828C29.2315 26.0083 29.3258 26.1568 29.388 26.3195C29.4502 26.4821 29.4791 26.6556 29.473 26.8296C29.473 27.5636 29.7647 28.2676 30.2837 28.7866C30.8027 29.3056 31.5066 29.5972 32.2407 29.5972C32.9747 29.5972 33.6786 29.3056 34.1977 28.7866C34.7167 28.2676 35.0083 27.5636 35.0083 26.8296V22.7515C35.0083 21.3963 36.8732 20.9376 37.4713 22.2032C36.3995 30.8766 28.9882 37.6141 20.0363 37.6141ZM37.5993 20.3147C37.1785 20.0911 36.7069 19.9801 36.2305 19.9925C35.7541 20.0049 35.289 20.1403 34.8804 20.3856C34.4717 20.6308 34.1334 20.9775 33.8983 21.3921C33.6633 21.8067 33.5394 22.275 33.5387 22.7515V26.8296C33.5387 28.5329 30.9377 28.5553 30.9377 26.8184C30.9223 26.0947 30.6241 25.4058 30.1068 24.8994C29.5896 24.3931 28.8946 24.1095 28.1707 24.1095C27.4468 24.1095 26.7518 24.3931 26.2346 24.8994C25.7173 25.4058 25.419 26.0947 25.4037 26.8184V30.8977C25.4022 31.2426 25.2638 31.5728 25.0188 31.8157C24.7739 32.0585 24.4425 32.1941 24.0976 32.1926C23.7527 32.1911 23.4225 32.0527 23.1796 31.8078C22.9368 31.5628 22.8012 31.2314 22.8027 30.8865C22.7874 30.1628 22.4891 29.474 21.9718 28.9676C21.4546 28.4612 20.7596 28.1776 20.0357 28.1776C19.3119 28.1776 18.6168 28.4612 18.0996 28.9676C17.5823 29.474 17.2841 30.1628 17.2687 30.8865V32.2542C17.2673 32.5102 17.1902 32.7602 17.0472 32.9726C16.9042 33.185 16.7016 33.3504 16.4649 33.448C16.2282 33.5457 15.9679 33.5712 15.7167 33.5214C15.4655 33.4715 15.2347 33.3486 15.0531 33.168C14.9333 33.0476 14.8386 32.9046 14.7746 32.7473C14.7105 32.59 14.6785 32.4215 14.6802 32.2517C14.7087 26.5735 14.9512 25.9232 13.9018 24.8701C12.206 23.1705 9.13995 24.2945 9.13995 26.8309C9.13995 27.1758 9.00294 27.5066 8.75905 27.7504C8.51516 27.9943 8.18437 28.1314 7.83945 28.1314C7.49454 28.1314 7.16375 27.9943 6.91986 27.7504C6.67596 27.5066 6.53894 27.1758 6.53894 26.8309V20.0436C6.53884 19.5837 6.42375 19.1311 6.20415 18.727C5.98455 18.3228 5.66741 17.98 5.28156 17.7297C4.89571 17.4794 4.45341 17.3295 3.99487 17.2937C3.53634 17.2579 3.07612 17.3373 2.65608 17.5247C3.88447 9.02912 11.2113 2.4806 20.0413 2.4806C29.764 2.47687 37.7473 10.449 37.5981 20.3147H37.5993ZM20.0363 13.2116C18.6839 13.2116 17.3618 13.6127 16.2372 14.3641C15.1127 15.1155 14.2362 16.1834 13.7187 17.433C13.2011 18.6825 13.0657 20.0574 13.3295 21.3839C13.5934 22.7104 14.2446 23.9288 15.201 24.8852C16.1573 25.8415 17.3758 26.4928 18.7023 26.7566C20.0287 27.0205 21.4037 26.8851 22.6532 26.3675C23.9027 25.8499 24.9707 24.9735 25.7221 23.8489C26.4735 22.7244 26.8745 21.4023 26.8745 20.0498C26.8745 18.2362 26.1541 16.4969 24.8717 15.2145C23.5893 13.9321 21.8499 13.2116 20.0363 13.2116ZM20.0363 25.4135C18.9748 25.4137 17.9371 25.0992 17.0543 24.5097C16.1715 23.9202 15.4834 23.0821 15.0769 22.1015C14.6704 21.121 14.5638 20.0418 14.7705 19.0007C14.9773 17.9595 15.4881 17.003 16.2385 16.2521C16.9888 15.5013 17.9449 14.9897 18.986 14.7823C20.027 14.5748 21.1062 14.6806 22.0871 15.0865C23.068 15.4923 23.9065 16.1799 24.4966 17.0622C25.0867 17.9446 25.402 18.9821 25.4024 20.0436C25.4015 21.4668 24.8359 22.8315 23.8299 23.8383C22.8239 24.845 21.4596 25.4115 20.0363 25.4135ZM14.2176 5.81019C14.2176 5.71386 14.2366 5.61847 14.2735 5.52947C14.3103 5.44047 14.3644 5.35961 14.4325 5.29149C14.5006 5.22337 14.5815 5.16934 14.6705 5.13247C14.7595 5.09561 14.8549 5.07664 14.9512 5.07664H16.3064C16.5009 5.07664 16.6875 5.15392 16.8251 5.29149C16.9627 5.42906 17.0399 5.61564 17.0399 5.81019C17.0399 6.73397 15.9993 6.54374 14.9512 6.54374C14.8549 6.54374 14.7595 6.52477 14.6705 6.4879C14.5815 6.45104 14.5006 6.39701 14.4325 6.32889C14.3644 6.26077 14.3103 6.17991 14.2735 6.09091C14.2366 6.00191 14.2176 5.90652 14.2176 5.81019ZM30.2563 17.5334C30.2563 18.5827 30.4453 19.6221 29.5228 19.6221C28.6003 19.6221 28.7892 18.5802 28.7892 17.5334C28.7917 16.5623 30.2588 16.5623 30.2588 17.5334H30.2563ZM22.6883 11.0346V9.67937C22.6883 8.70835 24.1554 8.70959 24.1554 9.67937C24.1554 10.7287 24.3444 11.7681 23.4219 11.7681C23.2277 11.7675 23.0418 11.6899 22.9048 11.5524C22.7677 11.4149 22.6908 11.2287 22.6908 11.0346H22.6883ZM28.8837 10.8754C28.8158 10.9438 28.735 10.998 28.646 11.035C28.557 11.072 28.4616 11.0911 28.3653 11.0911C28.2689 11.0911 28.1735 11.072 28.0845 11.035C27.9955 10.998 27.9148 10.9438 27.8468 10.8754C27.1941 10.2227 28.0644 9.61969 28.8054 8.88614C28.8733 8.8178 28.9541 8.76356 29.0431 8.72655C29.1321 8.68955 29.2275 8.67049 29.3239 8.67049C29.4202 8.67049 29.5157 8.68955 29.6046 8.72655C29.6936 8.76356 29.7744 8.8178 29.8423 8.88614C30.4988 9.53266 29.6272 10.1344 28.8862 10.8754H28.8837ZM20.3932 4.12923C21.0459 3.47649 21.6477 4.34681 22.3887 5.08783C23.0737 5.77165 22.0356 6.80981 21.3518 6.12599C20.6095 5.38746 19.7404 4.78694 20.3932 4.12923ZM32.9506 14.297L33.9092 15.2556C34.593 15.9407 33.5561 16.9776 32.871 16.2938L31.9124 15.3352C31.2261 14.6539 32.268 13.6169 32.9543 14.302L32.9506 14.297ZM13.8919 12.2257L12.9321 11.2671C12.2457 10.582 13.2851 9.5451 13.9702 10.2302C14.7162 10.9761 15.5865 11.5742 14.9288 12.2195C14.7932 12.3578 14.6082 12.4368 14.4145 12.4388C14.2208 12.4409 14.0342 12.3661 13.8956 12.2306L13.8919 12.2257ZM10.8607 19.3237C11.547 20.01 10.5088 21.047 9.82377 20.3607C9.07779 19.6147 8.20747 19.0166 8.86519 18.3714C9.5229 17.7261 10.1234 18.5877 10.8644 19.3287L10.8607 19.3237ZM9.50549 12.2257C8.75951 12.9717 8.16147 13.842 7.5162 13.1855C6.87092 12.529 7.73377 11.9298 8.47478 11.1888C9.15861 10.5074 10.1943 11.5456 9.50921 12.2306L9.50549 12.2257Z" fill="#07364A"/>
<path d="M20.0363 1.00977C9.5403 1.00977 1 9.54882 1 20.0461C1 30.5434 9.5403 39.0812 20.0363 39.0812C30.5324 39.0812 39.0714 30.5421 39.0714 20.0436C39.0714 9.5451 30.5324 1.00977 20.0363 1.00977ZM20.0363 37.6141C10.6207 37.6141 2.54046 30.0858 2.4783 20.0473C2.47781 19.8774 2.5108 19.709 2.57539 19.5518C2.63998 19.3945 2.73491 19.2516 2.85475 19.1311C2.97459 19.0105 3.117 18.9148 3.27384 18.8493C3.43068 18.7838 3.59889 18.7498 3.76886 18.7493C3.93882 18.7488 4.10722 18.7818 4.26443 18.8464C4.42165 18.911 4.56461 19.0059 4.68514 19.1258C4.80568 19.2456 4.90143 19.388 4.96692 19.5449C5.03242 19.7017 5.06638 19.8699 5.06687 20.0399V26.8296C5.0676 27.1931 5.13991 27.5528 5.27968 27.8883C5.41944 28.2238 5.62392 28.5285 5.88144 28.785C6.13895 29.0414 6.44447 29.2447 6.78053 29.3831C7.11659 29.5215 7.47663 29.5924 7.84008 29.5916C8.20352 29.5909 8.56327 29.5186 8.89877 29.3788C9.23427 29.239 9.53895 29.0346 9.79542 28.7771C10.0519 28.5195 10.2551 28.214 10.3936 27.878C10.532 27.5419 10.6028 27.1819 10.6021 26.8184C10.6021 25.1238 13.2416 25.0865 13.2354 26.8184C13.2068 32.4979 12.9644 33.1481 14.0137 34.2C15.7407 35.9319 18.7383 34.7134 18.7383 32.2504V30.8828C18.7337 30.7087 18.7642 30.5355 18.8278 30.3734C18.8914 30.2113 18.9869 30.0636 19.1087 29.9392C19.2305 29.8147 19.376 29.7159 19.5367 29.6487C19.6973 29.5816 19.8698 29.5473 20.0439 29.5481C20.2181 29.5488 20.3903 29.5846 20.5504 29.6531C20.7105 29.7217 20.8551 29.8217 20.9758 29.9472C21.0965 30.0727 21.1908 30.2212 21.253 30.3838C21.3152 30.5465 21.3442 30.72 21.3381 30.894C21.3381 31.628 21.6297 32.332 22.1487 32.851C22.6677 33.37 23.3717 33.6616 24.1057 33.6616C24.8397 33.6616 25.5437 33.37 26.0627 32.851C26.5817 32.332 26.8733 31.628 26.8733 30.894V26.8184C26.8687 26.6443 26.8991 26.4711 26.9627 26.309C27.0264 26.1469 27.1219 25.9993 27.2437 25.8748C27.3654 25.7503 27.511 25.6515 27.6716 25.5844C27.8323 25.5172 28.0048 25.483 28.179 25.4837C28.3531 25.4845 28.5253 25.5202 28.6854 25.5887C28.8454 25.6573 28.9901 25.7573 29.1108 25.8828C29.2315 26.0083 29.3258 26.1568 29.388 26.3195C29.4502 26.4821 29.4791 26.6556 29.473 26.8296C29.473 27.5636 29.7647 28.2676 30.2837 28.7866C30.8027 29.3056 31.5066 29.5972 32.2407 29.5972C32.9747 29.5972 33.6786 29.3056 34.1977 28.7866C34.7167 28.2676 35.0083 27.5636 35.0083 26.8296V22.7515C35.0083 21.3963 36.8732 20.9376 37.4713 22.2032C36.3995 30.8766 28.9882 37.6141 20.0363 37.6141ZM37.5993 20.3147C37.1785 20.0911 36.7069 19.9801 36.2305 19.9925C35.7541 20.0049 35.289 20.1403 34.8804 20.3856C34.4717 20.6308 34.1334 20.9775 33.8983 21.3921C33.6633 21.8067 33.5394 22.275 33.5387 22.7515V26.8296C33.5387 28.5329 30.9377 28.5553 30.9377 26.8184C30.9223 26.0947 30.6241 25.4058 30.1068 24.8994C29.5896 24.3931 28.8946 24.1095 28.1707 24.1095C27.4468 24.1095 26.7518 24.3931 26.2346 24.8994C25.7173 25.4058 25.419 26.0947 25.4037 26.8184V30.8977C25.4022 31.2426 25.2638 31.5728 25.0188 31.8157C24.7739 32.0585 24.4425 32.1941 24.0976 32.1926C23.7527 32.1911 23.4225 32.0527 23.1796 31.8078C22.9368 31.5628 22.8012 31.2314 22.8027 30.8865C22.7874 30.1628 22.4891 29.474 21.9718 28.9676C21.4546 28.4612 20.7596 28.1776 20.0357 28.1776C19.3119 28.1776 18.6168 28.4612 18.0996 28.9676C17.5823 29.474 17.2841 30.1628 17.2687 30.8865V32.2542C17.2673 32.5102 17.1902 32.7602 17.0472 32.9726C16.9042 33.185 16.7016 33.3504 16.4649 33.448C16.2282 33.5457 15.9679 33.5712 15.7167 33.5214C15.4655 33.4715 15.2347 33.3486 15.0531 33.168C14.9333 33.0476 14.8386 32.9046 14.7746 32.7473C14.7105 32.59 14.6785 32.4215 14.6802 32.2517C14.7087 26.5735 14.9512 25.9232 13.9018 24.8701C12.206 23.1705 9.13995 24.2945 9.13995 26.8309C9.13995 27.1758 9.00294 27.5066 8.75905 27.7504C8.51516 27.9943 8.18437 28.1314 7.83945 28.1314C7.49454 28.1314 7.16375 27.9943 6.91986 27.7504C6.67596 27.5066 6.53894 27.1758 6.53894 26.8309V20.0436C6.53884 19.5837 6.42375 19.1311 6.20415 18.727C5.98455 18.3228 5.66741 17.98 5.28156 17.7297C4.89571 17.4794 4.45341 17.3295 3.99487 17.2937C3.53634 17.2579 3.07612 17.3373 2.65608 17.5247C3.88447 9.02912 11.2113 2.4806 20.0413 2.4806C29.764 2.47687 37.7473 10.449 37.5981 20.3147H37.5993ZM20.0363 13.2116C18.6839 13.2116 17.3618 13.6127 16.2372 14.3641C15.1127 15.1155 14.2362 16.1834 13.7187 17.433C13.2011 18.6825 13.0657 20.0574 13.3295 21.3839C13.5934 22.7104 14.2446 23.9288 15.201 24.8852C16.1573 25.8415 17.3758 26.4928 18.7023 26.7566C20.0287 27.0205 21.4037 26.8851 22.6532 26.3675C23.9027 25.8499 24.9707 24.9735 25.7221 23.8489C26.4735 22.7244 26.8745 21.4023 26.8745 20.0498C26.8745 18.2362 26.1541 16.4969 24.8717 15.2145C23.5893 13.9321 21.8499 13.2116 20.0363 13.2116ZM20.0363 25.4135C18.9748 25.4137 17.9371 25.0992 17.0543 24.5097C16.1715 23.9202 15.4834 23.0821 15.0769 22.1015C14.6704 21.121 14.5638 20.0418 14.7705 19.0007C14.9773 17.9595 15.4881 17.003 16.2385 16.2521C16.9888 15.5013 17.9449 14.9897 18.986 14.7823C20.027 14.5748 21.1062 14.6806 22.0871 15.0865C23.068 15.4923 23.9065 16.1799 24.4966 17.0622C25.0867 17.9446 25.402 18.9821 25.4024 20.0436C25.4015 21.4668 24.8359 22.8315 23.8299 23.8383C22.8239 24.845 21.4596 25.4115 20.0363 25.4135ZM14.2176 5.81019C14.2176 5.71386 14.2366 5.61847 14.2735 5.52947C14.3103 5.44047 14.3644 5.35961 14.4325 5.29149C14.5006 5.22337 14.5815 5.16934 14.6705 5.13247C14.7595 5.09561 14.8549 5.07664 14.9512 5.07664H16.3064C16.5009 5.07664 16.6875 5.15392 16.8251 5.29149C16.9627 5.42906 17.0399 5.61564 17.0399 5.81019C17.0399 6.73397 15.9993 6.54374 14.9512 6.54374C14.8549 6.54374 14.7595 6.52477 14.6705 6.4879C14.5815 6.45104 14.5006 6.39701 14.4325 6.32889C14.3644 6.26077 14.3103 6.17991 14.2735 6.09091C14.2366 6.00191 14.2176 5.90652 14.2176 5.81019ZM30.2563 17.5334C30.2563 18.5827 30.4453 19.6221 29.5228 19.6221C28.6003 19.6221 28.7892 18.5802 28.7892 17.5334C28.7917 16.5623 30.2588 16.5623 30.2588 17.5334H30.2563ZM22.6883 11.0346V9.67937C22.6883 8.70835 24.1554 8.70959 24.1554 9.67937C24.1554 10.7287 24.3444 11.7681 23.4219 11.7681C23.2277 11.7675 23.0418 11.6899 22.9048 11.5524C22.7677 11.4149 22.6908 11.2287 22.6908 11.0346H22.6883ZM28.8837 10.8754C28.8158 10.9438 28.735 10.998 28.646 11.035C28.557 11.072 28.4616 11.0911 28.3653 11.0911C28.2689 11.0911 28.1735 11.072 28.0845 11.035C27.9955 10.998 27.9148 10.9438 27.8468 10.8754C27.1941 10.2227 28.0644 9.61969 28.8054 8.88614C28.8733 8.8178 28.9541 8.76356 29.0431 8.72655C29.1321 8.68955 29.2275 8.67049 29.3239 8.67049C29.4202 8.67049 29.5157 8.68955 29.6046 8.72655C29.6936 8.76356 29.7744 8.8178 29.8423 8.88614C30.4988 9.53266 29.6272 10.1344 28.8862 10.8754H28.8837ZM20.3932 4.12923C21.0459 3.47649 21.6477 4.34681 22.3887 5.08783C23.0737 5.77165 22.0356 6.80981 21.3518 6.12599C20.6095 5.38746 19.7404 4.78694 20.3932 4.12923ZM32.9506 14.297L33.9092 15.2556C34.593 15.9407 33.5561 16.9776 32.871 16.2938L31.9124 15.3352C31.2261 14.6539 32.268 13.6169 32.9543 14.302L32.9506 14.297ZM13.8919 12.2257L12.9321 11.2671C12.2457 10.582 13.2851 9.5451 13.9702 10.2302C14.7162 10.9761 15.5865 11.5742 14.9288 12.2195C14.7932 12.3578 14.6082 12.4368 14.4145 12.4388C14.2208 12.4409 14.0342 12.3661 13.8956 12.2306L13.8919 12.2257ZM10.8607 19.3237C11.547 20.01 10.5088 21.047 9.82377 20.3607C9.07779 19.6147 8.20747 19.0166 8.86519 18.3714C9.5229 17.7261 10.1234 18.5877 10.8644 19.3287L10.8607 19.3237ZM9.50549 12.2257C8.75951 12.9717 8.16147 13.842 7.5162 13.1855C6.87092 12.529 7.73377 11.9298 8.47478 11.1888C9.15861 10.5074 10.1943 11.5456 9.50921 12.2306L9.50549 12.2257Z" stroke="#07364A" stroke-width="0.2" mask="url(#path-1-outside-1_573_4121)"/>
</svg>
