<svg width="41" height="42" viewBox="0 0 41 42" fill="none" xmlns="http://www.w3.org/2000/svg">
<g clip-path="url(#clip0_573_4122)">
<mask id="path-1-inside-1_573_4122" fill="white">
<path d="M25.3577 5.83114H18.9171L25.7934 3.18665C25.9138 3.14166 26.0243 3.07297 26.1184 2.98454C26.2124 2.89612 26.2882 2.78972 26.3414 2.67148C26.3946 2.55325 26.4241 2.42554 26.4282 2.29571C26.4322 2.16589 26.4108 2.03653 26.3652 1.91512C26.3196 1.7937 26.2506 1.68264 26.1623 1.58834C26.074 1.49405 25.9681 1.41838 25.8507 1.36573C25.7333 1.31307 25.6068 1.28448 25.4784 1.28158C25.35 1.27869 25.2223 1.30155 25.1027 1.34885L14.5994 5.39107V3.84068C14.5994 1.80859 12.9568 0.155273 10.9403 0.155273H3.66104C1.64225 0.155273 0.00195312 1.80859 0.00195312 3.84068V38.2377C0.00361592 39.2187 0.389663 40.1591 1.07551 40.8528C1.76137 41.5465 2.6911 41.937 3.66104 41.9387H25.3577C27.3668 41.9387 29.0013 40.2773 29.0013 38.2377V9.53448C29.0013 7.49256 27.3668 5.83114 25.3577 5.83114ZM18.0504 11.6313V13.7184H10.9689V11.6313H18.0504ZM9.02503 13.8982C9.02806 14.3742 9.21761 14.8296 9.55211 15.1645C9.88662 15.4994 10.3388 15.6864 10.8094 15.6845H18.2099C18.6805 15.6864 19.1327 15.4994 19.4672 15.1645C19.8017 14.8296 19.9913 14.3742 19.9943 13.8982V11.6313H27.0575V18.9946H1.94355V11.6313H9.02503V13.8982ZM27.0575 20.9608V25.7502H1.94355V20.9608H27.0575ZM1.94355 27.7164H27.0575V32.5051H1.94355V27.7164ZM3.65875 2.11913H10.9335C11.3861 2.1179 11.8207 2.29814 12.1422 2.62038C12.4637 2.94262 12.6458 3.38059 12.6487 3.83838V6.81423C12.6487 6.82175 12.6487 6.82869 12.6487 6.8362C12.6487 6.85702 12.6487 6.87727 12.6515 6.89808C12.6544 6.9189 12.6515 6.92584 12.6561 6.93972C12.6607 6.9536 12.6607 6.97442 12.6641 6.99177C12.6675 7.00911 12.671 7.02589 12.675 7.04266C12.679 7.05943 12.6813 7.06983 12.6853 7.08371C12.6893 7.09759 12.6973 7.12303 12.7041 7.14154C12.7041 7.14848 12.7081 7.156 12.711 7.16294C12.7127 7.16809 12.7148 7.17312 12.7173 7.17797L12.7327 7.21556L12.755 7.26182C12.7602 7.27165 12.7647 7.28206 12.7704 7.29131C12.7829 7.31498 12.7967 7.33795 12.8116 7.36013V7.3636C12.8282 7.38884 12.8462 7.41316 12.8654 7.43646L12.8722 7.44514C12.8886 7.4648 12.9058 7.48408 12.9237 7.50297L12.9368 7.51627C12.954 7.53285 12.9717 7.54904 12.99 7.56484L13.0031 7.57641C13.0254 7.59434 13.0489 7.61226 13.0723 7.62845L13.0815 7.63424C13.1015 7.64754 13.1221 7.66026 13.1432 7.67182L13.173 7.68802L13.2187 7.70999L13.2524 7.72503C13.2701 7.73255 13.2884 7.7389 13.3096 7.74527C13.3307 7.75163 13.3307 7.75279 13.3416 7.75568C13.3656 7.7632 13.3896 7.76955 13.4142 7.77476L13.4411 7.77997C13.4628 7.78402 13.4851 7.78748 13.5074 7.79037H13.5286C13.5589 7.79037 13.5892 7.795 13.62 7.795H25.3526C25.8052 7.7979 26.2382 7.98211 26.5567 8.30728C26.8753 8.63245 27.0535 9.07206 27.0523 9.52985V9.66055H1.94355V3.83838C1.94643 3.38019 2.12886 2.94187 2.45084 2.61956C2.77282 2.29726 3.20804 2.11729 3.66104 2.11913H3.65875ZM25.3577 39.9725H3.66104C3.20651 39.9713 2.77096 39.7881 2.44956 39.4631C2.12815 39.138 1.94705 38.6974 1.94584 38.2377V34.4736H27.0575V38.2377C27.0587 38.6955 26.8805 39.1351 26.5619 39.4602C26.2433 39.7854 25.8103 39.9696 25.3577 39.9725Z"/>
</mask>
<path d="M25.3577 5.83114H18.9171L25.7934 3.18665C25.9138 3.14166 26.0243 3.07297 26.1184 2.98454C26.2124 2.89612 26.2882 2.78972 26.3414 2.67148C26.3946 2.55325 26.4241 2.42554 26.4282 2.29571C26.4322 2.16589 26.4108 2.03653 26.3652 1.91512C26.3196 1.7937 26.2506 1.68264 26.1623 1.58834C26.074 1.49405 25.9681 1.41838 25.8507 1.36573C25.7333 1.31307 25.6068 1.28448 25.4784 1.28158C25.35 1.27869 25.2223 1.30155 25.1027 1.34885L14.5994 5.39107V3.84068C14.5994 1.80859 12.9568 0.155273 10.9403 0.155273H3.66104C1.64225 0.155273 0.00195312 1.80859 0.00195312 3.84068V38.2377C0.00361592 39.2187 0.389663 40.1591 1.07551 40.8528C1.76137 41.5465 2.6911 41.937 3.66104 41.9387H25.3577C27.3668 41.9387 29.0013 40.2773 29.0013 38.2377V9.53448C29.0013 7.49256 27.3668 5.83114 25.3577 5.83114ZM18.0504 11.6313V13.7184H10.9689V11.6313H18.0504ZM9.02503 13.8982C9.02806 14.3742 9.21761 14.8296 9.55211 15.1645C9.88662 15.4994 10.3388 15.6864 10.8094 15.6845H18.2099C18.6805 15.6864 19.1327 15.4994 19.4672 15.1645C19.8017 14.8296 19.9913 14.3742 19.9943 13.8982V11.6313H27.0575V18.9946H1.94355V11.6313H9.02503V13.8982ZM27.0575 20.9608V25.7502H1.94355V20.9608H27.0575ZM1.94355 27.7164H27.0575V32.5051H1.94355V27.7164ZM3.65875 2.11913H10.9335C11.3861 2.1179 11.8207 2.29814 12.1422 2.62038C12.4637 2.94262 12.6458 3.38059 12.6487 3.83838V6.81423C12.6487 6.82175 12.6487 6.82869 12.6487 6.8362C12.6487 6.85702 12.6487 6.87727 12.6515 6.89808C12.6544 6.9189 12.6515 6.92584 12.6561 6.93972C12.6607 6.9536 12.6607 6.97442 12.6641 6.99177C12.6675 7.00911 12.671 7.02589 12.675 7.04266C12.679 7.05943 12.6813 7.06983 12.6853 7.08371C12.6893 7.09759 12.6973 7.12303 12.7041 7.14154C12.7041 7.14848 12.7081 7.156 12.711 7.16294C12.7127 7.16809 12.7148 7.17312 12.7173 7.17797L12.7327 7.21556L12.755 7.26182C12.7602 7.27165 12.7647 7.28206 12.7704 7.29131C12.7829 7.31498 12.7967 7.33795 12.8116 7.36013V7.3636C12.8282 7.38884 12.8462 7.41316 12.8654 7.43646L12.8722 7.44514C12.8886 7.4648 12.9058 7.48408 12.9237 7.50297L12.9368 7.51627C12.954 7.53285 12.9717 7.54904 12.99 7.56484L13.0031 7.57641C13.0254 7.59434 13.0489 7.61226 13.0723 7.62845L13.0815 7.63424C13.1015 7.64754 13.1221 7.66026 13.1432 7.67182L13.173 7.68802L13.2187 7.70999L13.2524 7.72503C13.2701 7.73255 13.2884 7.7389 13.3096 7.74527C13.3307 7.75163 13.3307 7.75279 13.3416 7.75568C13.3656 7.7632 13.3896 7.76955 13.4142 7.77476L13.4411 7.77997C13.4628 7.78402 13.4851 7.78748 13.5074 7.79037H13.5286C13.5589 7.79037 13.5892 7.795 13.62 7.795H25.3526C25.8052 7.7979 26.2382 7.98211 26.5567 8.30728C26.8753 8.63245 27.0535 9.07206 27.0523 9.52985V9.66055H1.94355V3.83838C1.94643 3.38019 2.12886 2.94187 2.45084 2.61956C2.77282 2.29726 3.20804 2.11729 3.66104 2.11913H3.65875ZM25.3577 39.9725H3.66104C3.20651 39.9713 2.77096 39.7881 2.44956 39.4631C2.12815 39.138 1.94705 38.6974 1.94584 38.2377V34.4736H27.0575V38.2377C27.0587 38.6955 26.8805 39.1351 26.5619 39.4602C26.2433 39.7854 25.8103 39.9696 25.3577 39.9725Z" fill="#07364A" stroke="white" stroke-width="0.4" mask="url(#path-1-inside-1_573_4122)"/>
<path d="M38.4289 14.9941L38.4279 14.9945L30.7734 18.5685C30.6946 18.6052 30.6119 18.6239 30.5291 18.6243H30.5256C30.3655 18.6241 30.2068 18.5551 30.0778 18.4228C29.9484 18.29 29.8583 18.1025 29.8269 17.8914C29.7956 17.6804 29.8257 17.4633 29.9107 17.2785C29.9956 17.0938 30.1283 16.9565 30.2813 16.8854L30.2814 16.8854L37.936 13.3119L37.936 13.3119L37.937 13.3114C38.023 13.2701 38.1138 13.2506 38.2045 13.253C38.2953 13.2555 38.3855 13.2801 38.4702 13.3262C38.5551 13.3725 38.6331 13.4397 38.699 13.5252C38.765 13.6108 38.8173 13.7126 38.8521 13.8251C38.8869 13.9377 38.9033 14.058 38.9002 14.179C38.897 14.3 38.8744 14.4187 38.8339 14.528C38.7935 14.6373 38.7362 14.7344 38.6663 14.8143C38.5964 14.8941 38.5155 14.9548 38.4289 14.9941Z" fill="#07364A" stroke="white" stroke-width="0.2"/>
<path d="M30.2872 27.0971L37.6369 23.6645L37.6319 23.6727L37.9376 23.5258C38.0235 23.4845 38.1143 23.4649 38.2049 23.4674C38.2956 23.4699 38.3858 23.4944 38.4705 23.5406C38.5552 23.5868 38.6332 23.654 38.6991 23.7396C38.7651 23.8251 38.8173 23.9269 38.8521 24.0394C38.8869 24.1519 38.9033 24.2723 38.9002 24.3933C38.897 24.5143 38.8744 24.6329 38.834 24.7422C38.7935 24.8515 38.7363 24.9487 38.6664 25.0285C38.5965 25.1083 38.5157 25.169 38.4292 25.2083L38.4282 25.2087L30.7789 28.7795L30.7789 28.7795L30.7778 28.78C30.6919 28.8213 30.6011 28.8409 30.5105 28.8384C30.4198 28.8359 30.3296 28.8114 30.2449 28.7652C30.1602 28.719 30.0822 28.6518 30.0163 28.5662C29.9503 28.4807 29.8981 28.3789 29.8633 28.2664C29.8285 28.1539 29.8121 28.0336 29.8152 27.9125C29.8184 27.7915 29.841 27.6729 29.8814 27.5636C29.9219 27.4543 29.9791 27.3571 30.049 27.2773C30.1188 27.1975 30.1997 27.1368 30.2862 27.0975L30.2862 27.0975L30.2872 27.0971Z" fill="#07364A" stroke="white" stroke-width="0.2"/>
<path d="M5.0883 5.72433H9.46786C9.62797 5.72323 9.78107 5.67849 9.89429 5.59972C10.0075 5.52096 10.0718 5.41444 10.0734 5.30305V4.2755C10.0722 4.22103 10.0555 4.16726 10.0244 4.11726C9.99336 4.06727 9.94841 4.02201 9.89218 3.9841C9.83595 3.94619 9.76954 3.91636 9.69673 3.8963C9.62393 3.87625 9.54615 3.86638 9.46786 3.86724H5.0883C5.01104 3.86667 4.93439 3.87685 4.86286 3.89717C4.79132 3.9175 4.72636 3.94755 4.67175 3.98558C4.61714 4.02361 4.574 4.06884 4.54485 4.11863C4.51571 4.16841 4.50115 4.22175 4.50204 4.2755V5.30305C4.50073 5.3575 4.51486 5.4116 4.54362 5.46225C4.57238 5.5129 4.6152 5.55911 4.66965 5.59823C4.7241 5.63736 4.7891 5.66864 4.86093 5.69027C4.93277 5.71191 5.01003 5.72348 5.0883 5.72433Z" fill="#07364A"/>
<path d="M5.27802 8.4513C5.45391 8.4513 5.62586 8.39856 5.77211 8.29975C5.91836 8.20094 6.03236 8.0605 6.09967 7.89619C6.16698 7.73187 6.18459 7.55107 6.15027 7.37663C6.11596 7.2022 6.03126 7.04197 5.90688 6.91621C5.78251 6.79045 5.62404 6.70481 5.45152 6.67011C5.27901 6.63541 5.10019 6.65322 4.93768 6.72128C4.77518 6.78934 4.63629 6.9046 4.53856 7.05248C4.44084 7.20035 4.38867 7.37421 4.38867 7.55207C4.38897 7.79046 4.48278 8.01901 4.6495 8.18758C4.81622 8.35615 5.04224 8.451 5.27802 8.4513Z" fill="#07364A"/>
<path d="M9.34051 6.65283C9.16462 6.65283 8.99267 6.70558 8.84642 6.80438C8.70017 6.90319 8.58619 7.04364 8.51887 7.20795C8.45156 7.37226 8.43394 7.55307 8.46826 7.7275C8.50257 7.90194 8.58727 8.06216 8.71165 8.18792C8.83602 8.31368 8.99449 8.39933 9.16701 8.43402C9.33952 8.46872 9.51834 8.45091 9.68085 8.38285C9.84335 8.31479 9.98226 8.19954 10.08 8.05166C10.1777 7.90378 10.2299 7.72992 10.2299 7.55207C10.2297 7.31362 10.136 7.08499 9.96921 6.91639C9.80246 6.74778 9.57633 6.65299 9.34051 6.65283Z" fill="#07364A"/>
<path d="M11.9423 24.1499V24.1499L11.9408 24.1499C11.7996 24.1513 11.6604 24.1156 11.5367 24.0461C11.4134 23.9767 11.3098 23.8761 11.236 23.754C11.1644 23.6305 11.1266 23.4897 11.1266 23.3463C11.1266 23.2027 11.1645 23.0618 11.2363 22.9382C11.3091 22.8153 11.4124 22.7142 11.5358 22.6448C11.6593 22.5754 11.7985 22.5402 11.9396 22.5427L11.9396 22.5427H11.9423H17.0776V22.5427L17.0802 22.5427C17.2212 22.5403 17.3605 22.5755 17.484 22.6449C17.6074 22.7142 17.7107 22.8153 17.7835 22.9382C17.8553 23.0618 17.8932 23.2027 17.8932 23.3463C17.8932 23.49 17.8553 23.6309 17.7834 23.7545C17.7108 23.8773 17.6077 23.9783 17.4845 24.0477C17.3612 24.1171 17.2221 24.1523 17.0812 24.1499L17.0812 24.1499H17.0787H11.9423Z" fill="#07364A" stroke="white" stroke-width="0.3"/>
<path d="M37.9359 30.0263L37.9359 30.0263L37.9369 30.0258C38.0229 29.9845 38.1137 29.9649 38.2045 29.9674C38.2952 29.9699 38.3855 29.9944 38.4702 30.0406C38.555 30.0868 38.6331 30.1541 38.699 30.2396C38.765 30.3252 38.8173 30.427 38.8521 30.5395C38.8869 30.652 38.9033 30.7723 38.9002 30.8934C38.897 31.0144 38.8744 31.133 38.834 31.2423L38.9277 31.2771L38.834 31.2423C38.7935 31.3517 38.7362 31.4488 38.6663 31.5287L38.7415 31.5946L38.6663 31.5287C38.5964 31.6085 38.5155 31.6692 38.4289 31.7085L38.4279 31.7089L30.7725 35.283L30.8148 35.3736L30.7725 35.283C30.6006 35.3632 30.4109 35.3566 30.2422 35.2635C30.072 35.1695 29.9334 34.9927 29.8633 34.7661C29.7933 34.5395 29.7994 34.2876 29.8801 34.067C29.9607 33.8464 30.107 33.6807 30.2805 33.5997C30.2805 33.5997 30.2805 33.5997 30.2805 33.5997L37.9359 30.0263Z" fill="#07364A" stroke="white" stroke-width="0.2"/>
<path d="M17.9154 29.6171C17.8297 29.4756 17.7088 29.3593 17.5647 29.2801C17.4205 29.2008 17.2583 29.1613 17.0943 29.1655H11.9122C11.7504 29.1604 11.5903 29.1997 11.4489 29.2792C11.3075 29.3587 11.19 29.4755 11.1089 29.6171C11.0235 29.7639 10.9785 29.9311 10.9785 30.1014C10.9785 30.2717 11.0235 30.4389 11.1089 30.5857M17.9154 29.6171L17.7856 29.6924C17.7859 29.6928 17.7861 29.6932 17.7863 29.6936M17.9154 29.6171L17.787 29.6948C17.7868 29.6944 17.7866 29.694 17.7863 29.6936M17.9154 29.6171C18.0006 29.764 18.0455 29.9312 18.0454 30.1015C18.0453 30.2718 18.0002 30.439 17.9148 30.5857M17.7863 29.6936C17.7143 29.575 17.6129 29.4778 17.4924 29.4115C17.3715 29.345 17.2355 29.3119 17.0982 29.3154L17.0943 29.3155V29.3155H11.9122H11.9074L11.9074 29.3154C11.7731 29.3112 11.6401 29.3438 11.5224 29.4099C11.4048 29.4761 11.3068 29.5734 11.2391 29.6916L11.2386 29.6925L11.2386 29.6925C11.1666 29.8163 11.1285 29.9575 11.1285 30.1014C11.1285 30.2451 11.1665 30.3861 11.2383 30.5098M17.7863 29.6936C17.8578 29.8172 17.8955 29.958 17.8954 30.1014C17.8954 30.2451 17.8573 30.3861 17.7855 30.5097M11.2383 30.5098C11.2382 30.5097 11.2381 30.5095 11.238 30.5093L11.1089 30.5857M11.2383 30.5098C11.2384 30.51 11.2385 30.5102 11.2386 30.5103L11.1089 30.5857M11.2383 30.5098C11.3111 30.6327 11.4144 30.7337 11.5378 30.8031C11.6613 30.8725 11.8006 30.9077 11.9416 30.9053L11.9442 30.9053V30.9053H17.0795H17.0819L17.0819 30.9053C17.223 30.9076 17.3623 30.8724 17.4858 30.8029C17.6092 30.7336 17.7126 30.6325 17.7855 30.5097M11.1089 30.5857C11.1951 30.7313 11.3176 30.8514 11.4643 30.9338C11.6109 31.0163 11.7764 31.0582 11.9442 31.0553H17.0795C17.2472 31.0581 17.4127 31.0161 17.5593 30.9337C17.7059 30.8513 17.8285 30.7313 17.9148 30.5857M17.7855 30.5097C17.7854 30.5099 17.7853 30.5101 17.7852 30.5103L17.9148 30.5857M17.7855 30.5097C17.7856 30.5096 17.7857 30.5094 17.7857 30.5093L17.9148 30.5857" fill="#07364A" stroke="white" stroke-width="0.3"/>
<path d="M11.1089 37.3413L11.2386 37.2659C11.1666 37.142 11.1285 37.0008 11.1285 36.8569C11.1285 36.713 11.1666 36.5719 11.2386 36.448L11.2386 36.448L11.2391 36.4471C11.3067 36.3288 11.4047 36.2315 11.5224 36.1654C11.64 36.0992 11.7731 36.0666 11.9074 36.0709L11.9074 36.071H11.9122H17.0909V36.0711L17.0962 36.0709C17.2338 36.066 17.3703 36.0985 17.4915 36.1649C17.6125 36.2313 17.7141 36.3292 17.7855 36.4487C17.8573 36.5724 17.8952 36.7133 17.8952 36.8569C17.8952 37.0008 17.8571 37.1419 17.7852 37.2658C17.6244 37.5407 17.3911 37.6787 17.1292 37.6787H11.8762C11.6187 37.6787 11.4057 37.5522 11.2384 37.2656L11.1089 37.3413ZM11.1089 37.3413C11.2976 37.6645 11.5554 37.8287 11.8762 37.8287H17.1292C17.4523 37.8287 17.7313 37.6553 17.9148 37.3413L11.9122 35.921C11.7504 35.9158 11.5903 35.9551 11.4489 36.0346C11.3074 36.1141 11.1899 36.2309 11.1089 36.3726M11.1089 37.3413C11.0235 37.1945 10.9785 37.0272 10.9785 36.8569C10.9785 36.6866 11.0235 36.5194 11.1089 36.3726M11.1089 36.3726L11.1089 36.3726L11.1089 36.3726Z" fill="#07364A" stroke="white" stroke-width="0.3"/>
</g>
<defs>
<clipPath id="clip0_573_4122">
<rect width="40.8434" height="41.7857" fill="white" transform="translate(0 0.152832)"/>
</clipPath>
</defs>
</svg>
