<svg width="45" height="43" viewBox="0 0 45 43" fill="none" xmlns="http://www.w3.org/2000/svg">
<path d="M42.3779 0.723032C42.0578 0.403584 41.6237 0.224121 41.1711 0.224121C40.7185 0.224121 40.2844 0.403584 39.9644 0.723032L21.1639 19.4887C20.8124 19.432 20.4523 19.4593 20.1135 19.5685C19.7746 19.6778 19.4665 19.8657 19.2146 20.1168L16.9473 22.3799C16.8676 22.4598 16.7676 22.5167 16.6581 22.5444C15.1158 22.9326 12.8523 23.4074 10.8245 23.4663C7.80764 23.5529 4.37818 21.9032 3.04335 21.1898C2.79615 21.0579 2.52022 20.9888 2.23992 20.9886C1.95962 20.9884 1.68358 21.0571 1.4362 21.1886C1.18883 21.3202 0.977725 21.5106 0.82155 21.7429C0.665376 21.9752 0.568939 22.2424 0.540759 22.5207C0.287808 24.9872 0.63869 27.6241 1.55581 30.1452C2.50746 32.7582 4.0183 35.1328 5.98314 37.1035C6.37719 37.4973 6.79955 37.879 7.24511 38.2469C7.32276 38.3421 7.4187 38.4208 7.5273 38.4785C9.26765 39.8491 11.2032 40.9527 13.27 41.7529C15.2657 42.5279 17.1877 42.9379 18.7467 42.9379C19.1825 42.9412 19.6176 42.9033 20.0463 42.8249C20.3385 42.7686 20.611 42.6371 20.8367 42.4434C21.0624 42.2497 21.2334 42.0005 21.3328 41.7204C23.1095 36.6805 22.8886 30.2851 22.599 26.9218C22.5912 26.8309 22.6035 26.7395 22.6349 26.6538C22.6663 26.5682 22.7162 26.4904 22.7809 26.4261L24.1571 25.0525C24.3668 24.8442 24.533 24.5965 24.6462 24.3237C24.7594 24.0508 24.8174 23.7583 24.8166 23.463C24.8164 23.3429 24.8068 23.2231 24.7878 23.1045L43.5851 4.34209C43.9051 4.02263 44.0849 3.58936 44.0849 3.13759C44.0849 2.68582 43.9051 2.25255 43.5851 1.93309L42.3779 0.723032ZM21.4693 25.1155C21.2131 25.3707 21.016 25.6788 20.8919 26.0181C20.7678 26.3575 20.7196 26.7199 20.7508 27.0798C21.0247 30.2763 21.2382 36.3192 19.6123 41.0204C18.5541 41.1988 17.0396 41.014 15.3794 40.5187C17.1097 38.7231 18.1823 36.7486 18.7165 34.4036C18.746 34.2841 18.7513 34.1599 18.7321 34.0384C18.7129 33.9168 18.6697 33.8003 18.6049 33.6956C18.5402 33.5909 18.4552 33.5001 18.3549 33.4286C18.2546 33.357 18.141 33.3061 18.0208 33.2789C17.9005 33.2516 17.7761 33.2485 17.6547 33.2698C17.5332 33.2911 17.4173 33.3363 17.3135 33.4027C17.2098 33.4692 17.1204 33.5557 17.0505 33.6571C16.9806 33.7584 16.9316 33.8727 16.9064 33.9931C16.3852 36.2812 15.3084 38.0995 13.4412 39.8243C12.2041 39.3073 11.0204 38.6711 9.9069 37.9249C10.6507 37.5548 11.3573 37.1144 12.0168 36.6097C13.1502 35.7526 14.175 34.7274 14.9023 33.7235C14.9752 33.625 15.0278 33.5131 15.0571 33.3941C15.0863 33.2752 15.0917 33.1517 15.0728 33.0307C15.054 32.9097 15.0113 32.7936 14.9472 32.6892C14.8832 32.5848 14.799 32.4941 14.6996 32.4223C14.6002 32.3506 14.4875 32.2992 14.3681 32.2712C14.2487 32.2431 14.1249 32.239 14.0039 32.259C13.8828 32.279 13.767 32.3228 13.663 32.3878C13.559 32.4528 13.469 32.5377 13.3981 32.6376C12.3106 34.1391 10.1798 35.9643 8.19565 36.6245C7.88066 36.3549 7.58052 36.0778 7.29524 35.7934C6.64404 35.1425 6.04706 34.4397 5.51019 33.692C7.48832 33.5748 9.72356 32.7794 11.4668 31.4998C11.5665 31.4283 11.6509 31.3377 11.7153 31.2334C11.7796 31.1291 11.8226 31.0131 11.8417 30.8921C11.8609 30.7711 11.8558 30.6475 11.8267 30.5284C11.7977 30.4094 11.7453 30.2973 11.6726 30.1986C11.5998 30.1 11.5082 30.0166 11.403 29.9535C11.2978 29.8904 11.1812 29.8488 11.0597 29.8309C10.9383 29.8131 10.8145 29.8195 10.6956 29.8498C10.5767 29.88 10.4649 29.9335 10.3668 30.0072C8.57345 31.3233 6.10846 32.0493 4.33316 31.8139C3.74199 30.7233 3.27093 29.572 2.92824 28.3802C3.9675 28.6528 5.03717 28.7929 6.11171 28.7971C7.06271 28.7971 7.9724 28.6776 8.7902 28.4348C8.90704 28.4001 9.01589 28.3428 9.11053 28.2661C9.20517 28.1894 9.28375 28.0948 9.34178 27.9878C9.39982 27.8808 9.43616 27.7635 9.44875 27.6424C9.46134 27.5214 9.44992 27.3991 9.41515 27.2824C9.38038 27.1658 9.32293 27.0572 9.24609 26.9627C9.16925 26.8682 9.07453 26.7898 8.96732 26.7319C8.86011 26.674 8.74252 26.6377 8.62127 26.6251C8.50002 26.6126 8.37747 26.624 8.26063 26.6587C6.97963 27.039 4.82189 27.1289 2.47711 26.3056C2.30784 25.1875 2.26953 24.0535 2.36293 22.9266C4.17954 23.8777 7.45258 25.3203 10.5859 25.3203C10.682 25.3203 10.7785 25.3203 10.8741 25.3161C13.069 25.2526 15.4755 24.7495 17.1079 24.3386C17.5422 24.2297 17.939 24.0056 18.2561 23.69L20.5234 21.427C20.5973 21.3534 20.6975 21.3121 20.8019 21.3121C20.9063 21.3121 21.0064 21.3534 21.0804 21.427L22.8403 23.1837C22.9138 23.2576 22.955 23.3575 22.955 23.4616C22.955 23.5658 22.9138 23.6657 22.8403 23.7396L21.4693 25.1155ZM23.7774 21.4937L22.7791 20.4972L41.1711 2.13924L42.1695 3.13573L23.7774 21.4937Z" fill="#999999"/>
<path d="M11.6075 8.59648C12.2572 8.70628 12.4489 8.78179 12.4944 8.82812C12.5399 8.87444 12.6169 9.06392 12.7265 9.71342C12.7631 9.9293 12.875 10.1253 13.0426 10.2666C13.2101 10.4079 13.4224 10.4855 13.6417 10.4855C13.8611 10.4855 14.0734 10.4079 14.2409 10.2666C14.4084 10.1253 14.5204 9.9293 14.557 9.71342C14.667 9.06485 14.7427 8.87352 14.7891 8.82812C14.8355 8.78272 15.0253 8.70581 15.676 8.59648C15.8923 8.55997 16.0886 8.44819 16.2302 8.28097C16.3718 8.11374 16.4495 7.90186 16.4495 7.68292C16.4495 7.46397 16.3718 7.2521 16.2302 7.08487C16.0886 6.91764 15.8923 6.80586 15.676 6.76935C15.0262 6.65956 14.8346 6.58404 14.7891 6.53772C14.7436 6.49139 14.6665 6.30191 14.557 5.65241C14.5204 5.43653 14.4084 5.24055 14.2409 5.09923C14.0734 4.95791 13.8611 4.88037 13.6417 4.88037C13.4224 4.88037 13.2101 4.95791 13.0426 5.09923C12.875 5.24055 12.7631 5.43653 12.7265 5.65241C12.6165 6.30099 12.5408 6.49232 12.4944 6.53772C12.448 6.58312 12.2582 6.66002 11.6075 6.76935C11.3912 6.80586 11.1948 6.91764 11.0533 7.08487C10.9117 7.2521 10.834 7.46397 10.834 7.68292C10.834 7.90186 10.9117 8.11374 11.0533 8.28097C11.1948 8.44819 11.3912 8.55997 11.6075 8.59648Z" fill="#999999"/>
<path d="M33.4492 30.7667C33.4028 30.7204 33.3267 30.5309 33.2172 29.8814C33.1806 29.6655 33.0686 29.4696 32.9011 29.3282C32.7335 29.1869 32.5212 29.1094 32.3019 29.1094C32.0825 29.1094 31.8703 29.1869 31.7027 29.3282C31.5352 29.4696 31.4232 29.6655 31.3866 29.8814C31.2766 30.53 31.201 30.7213 31.1546 30.7667C31.1082 30.8121 30.9183 30.889 30.2676 30.9984C30.0513 31.0349 29.855 31.1466 29.7134 31.3139C29.5718 31.4811 29.4941 31.693 29.4941 31.9119C29.4941 32.1309 29.5718 32.3427 29.7134 32.51C29.855 32.6772 30.0513 32.789 30.2676 32.8255C30.9174 32.9353 31.1091 33.0108 31.1546 33.0571C31.2001 33.1034 31.2771 33.2929 31.3866 33.9424C31.4232 34.1583 31.5352 34.3543 31.7027 34.4956C31.8703 34.6369 32.0825 34.7145 32.3019 34.7145C32.5212 34.7145 32.7335 34.6369 32.9011 34.4956C33.0686 34.3543 33.1806 34.1583 33.2172 33.9424C33.3272 33.2938 33.4028 33.1025 33.4492 33.0571C33.4956 33.0117 33.6855 32.9348 34.3362 32.8255C34.5525 32.789 34.7488 32.6772 34.8904 32.51C35.032 32.3427 35.1096 32.1309 35.1096 31.9119C35.1096 31.693 35.032 31.4811 34.8904 31.3139C34.7488 31.1466 34.5525 31.0349 34.3362 30.9984C33.6855 30.889 33.4947 30.8117 33.4492 30.7667Z" fill="#999999"/>
<path d="M7.02905 16.078C7.65779 16.078 8.16748 15.5694 8.16748 14.9421C8.16748 14.3147 7.65779 13.8062 7.02905 13.8062C6.40032 13.8062 5.89062 14.3147 5.89062 14.9421C5.89062 15.5694 6.40032 16.078 7.02905 16.078Z" fill="#999999"/>
<path d="M35.5516 22.5074C36.0645 22.5074 36.4802 22.0925 36.4802 21.5808C36.4802 21.0691 36.0645 20.6543 35.5516 20.6543C35.0388 20.6543 34.623 21.0691 34.623 21.5808C34.623 22.0925 35.0388 22.5074 35.5516 22.5074Z" fill="#999999"/>
</svg>
