<svg width="27" height="49" viewBox="0 0 27 49" fill="none" xmlns="http://www.w3.org/2000/svg">
<mask id="path-1-outside-1_482_6945" maskUnits="userSpaceOnUse" x="-0.0722656" y="0.143066" width="27" height="49" fill="black">
<rect fill="white" x="-0.0722656" y="0.143066" width="27" height="49"/>
<path d="M25.9949 15.3903C25.9119 12.2294 24.6435 9.21558 22.4419 6.94815C20.2403 4.68072 17.2669 3.32579 14.1129 3.15281V1.79204C14.1129 1.61992 14.0446 1.45485 13.923 1.33315C13.8014 1.21144 13.6365 1.14307 13.4645 1.14307C13.2926 1.14307 13.1277 1.21144 13.0061 1.33315C12.8845 1.45485 12.8162 1.61992 12.8162 1.79204V3.15281C10.7922 3.25754 8.82365 3.85199 7.0794 4.8852C5.33515 5.91841 3.86718 7.35957 2.80129 9.08517C1.7354 10.8108 1.10338 12.7693 0.959406 14.793C0.815431 16.8167 1.16379 18.8452 1.97463 20.7046C2.09483 20.9778 2.292 21.2099 2.54199 21.3726C2.79198 21.5352 3.08393 21.6214 3.3821 21.6205H12.8162V44.2913H5.32917C4.6128 44.2921 3.926 44.5773 3.41945 45.0844C2.9129 45.5915 2.62796 46.2789 2.62713 46.996V47.3101C2.6274 47.6256 2.75277 47.9282 2.97568 48.1513C3.19859 48.3745 3.50083 48.4999 3.81607 48.5002H23.1057C23.4208 48.4997 23.7229 48.3741 23.9458 48.151C24.1686 47.9279 24.2941 47.6255 24.2946 47.3101V46.996C24.2935 46.279 24.0085 45.5917 23.502 45.0847C22.9955 44.5777 22.3089 44.2924 21.5926 44.2913H14.1129V21.6205H19.0077V28.4798C18.8798 28.5787 18.7763 28.7056 18.7051 28.8508C18.6339 28.9959 18.5969 29.1555 18.5969 29.3172C18.5969 29.4789 18.6339 29.6385 18.7051 29.7837C18.7763 29.9288 18.8798 30.0557 19.0077 30.1546V30.2247H19.1122C19.2768 30.3247 19.4656 30.3776 19.6581 30.3776C19.8506 30.3776 20.0394 30.3247 20.2039 30.2247H20.3085V30.1546C20.4363 30.0557 20.5398 29.9288 20.611 29.7837C20.6822 29.6385 20.7193 29.4789 20.7193 29.3172C20.7193 29.1555 20.6822 28.9959 20.611 28.8508C20.5398 28.7056 20.4363 28.5787 20.3085 28.4798V21.6205H23.5501C23.8489 21.6211 24.1413 21.5345 24.3917 21.3713C24.6421 21.2081 24.8395 20.9753 24.9597 20.7015C25.6894 19.0284 26.0428 17.2152 25.9949 15.3903ZM23.0011 46.9992V47.2085H3.92797V46.9992C3.92962 46.6278 4.07779 46.2721 4.34024 46.0096C4.60269 45.747 4.95815 45.599 5.32917 45.5976H21.5874C21.7721 45.5966 21.9553 45.6321 22.1264 45.7021C22.2974 45.772 22.4531 45.875 22.5844 46.0051C22.7157 46.1353 22.8201 46.2901 22.8916 46.4606C22.9631 46.6312 23.0003 46.8142 23.0011 46.9992ZM23.7697 20.1812C23.7508 20.2239 23.7198 20.26 23.6806 20.2851C23.6414 20.3102 23.5956 20.3233 23.549 20.3225H3.38004C3.33404 20.3231 3.28886 20.3103 3.24991 20.2858C3.21097 20.2613 3.17991 20.2261 3.16043 20.1844C2.41387 18.4722 2.10492 16.6009 2.2615 14.7394C2.41807 12.8778 3.03523 11.0846 4.05728 9.52154C5.07932 7.95845 6.47409 6.67471 8.11571 5.78615C9.75732 4.89759 11.5941 4.43219 13.4604 4.43194C13.543 4.43194 13.6256 4.43194 13.7092 4.43194C19.6309 4.55859 24.5613 9.48561 24.6982 15.4144C24.7408 17.0527 24.422 18.6803 23.7645 20.1812H23.7697Z"/>
</mask>
<path d="M25.9949 15.3903C25.9119 12.2294 24.6435 9.21558 22.4419 6.94815C20.2403 4.68072 17.2669 3.32579 14.1129 3.15281V1.79204C14.1129 1.61992 14.0446 1.45485 13.923 1.33315C13.8014 1.21144 13.6365 1.14307 13.4645 1.14307C13.2926 1.14307 13.1277 1.21144 13.0061 1.33315C12.8845 1.45485 12.8162 1.61992 12.8162 1.79204V3.15281C10.7922 3.25754 8.82365 3.85199 7.0794 4.8852C5.33515 5.91841 3.86718 7.35957 2.80129 9.08517C1.7354 10.8108 1.10338 12.7693 0.959406 14.793C0.815431 16.8167 1.16379 18.8452 1.97463 20.7046C2.09483 20.9778 2.292 21.2099 2.54199 21.3726C2.79198 21.5352 3.08393 21.6214 3.3821 21.6205H12.8162V44.2913H5.32917C4.6128 44.2921 3.926 44.5773 3.41945 45.0844C2.9129 45.5915 2.62796 46.2789 2.62713 46.996V47.3101C2.6274 47.6256 2.75277 47.9282 2.97568 48.1513C3.19859 48.3745 3.50083 48.4999 3.81607 48.5002H23.1057C23.4208 48.4997 23.7229 48.3741 23.9458 48.151C24.1686 47.9279 24.2941 47.6255 24.2946 47.3101V46.996C24.2935 46.279 24.0085 45.5917 23.502 45.0847C22.9955 44.5777 22.3089 44.2924 21.5926 44.2913H14.1129V21.6205H19.0077V28.4798C18.8798 28.5787 18.7763 28.7056 18.7051 28.8508C18.6339 28.9959 18.5969 29.1555 18.5969 29.3172C18.5969 29.4789 18.6339 29.6385 18.7051 29.7837C18.7763 29.9288 18.8798 30.0557 19.0077 30.1546V30.2247H19.1122C19.2768 30.3247 19.4656 30.3776 19.6581 30.3776C19.8506 30.3776 20.0394 30.3247 20.2039 30.2247H20.3085V30.1546C20.4363 30.0557 20.5398 29.9288 20.611 29.7837C20.6822 29.6385 20.7193 29.4789 20.7193 29.3172C20.7193 29.1555 20.6822 28.9959 20.611 28.8508C20.5398 28.7056 20.4363 28.5787 20.3085 28.4798V21.6205H23.5501C23.8489 21.6211 24.1413 21.5345 24.3917 21.3713C24.6421 21.2081 24.8395 20.9753 24.9597 20.7015C25.6894 19.0284 26.0428 17.2152 25.9949 15.3903ZM23.0011 46.9992V47.2085H3.92797V46.9992C3.92962 46.6278 4.07779 46.2721 4.34024 46.0096C4.60269 45.747 4.95815 45.599 5.32917 45.5976H21.5874C21.7721 45.5966 21.9553 45.6321 22.1264 45.7021C22.2974 45.772 22.4531 45.875 22.5844 46.0051C22.7157 46.1353 22.8201 46.2901 22.8916 46.4606C22.9631 46.6312 23.0003 46.8142 23.0011 46.9992ZM23.7697 20.1812C23.7508 20.2239 23.7198 20.26 23.6806 20.2851C23.6414 20.3102 23.5956 20.3233 23.549 20.3225H3.38004C3.33404 20.3231 3.28886 20.3103 3.24991 20.2858C3.21097 20.2613 3.17991 20.2261 3.16043 20.1844C2.41387 18.4722 2.10492 16.6009 2.2615 14.7394C2.41807 12.8778 3.03523 11.0846 4.05728 9.52154C5.07932 7.95845 6.47409 6.67471 8.11571 5.78615C9.75732 4.89759 11.5941 4.43219 13.4604 4.43194C13.543 4.43194 13.6256 4.43194 13.7092 4.43194C19.6309 4.55859 24.5613 9.48561 24.6982 15.4144C24.7408 17.0527 24.422 18.6803 23.7645 20.1812H23.7697Z" fill="#999999"/>
<path d="M25.9949 15.3903L26.1948 15.385L26.1948 15.385L25.9949 15.3903ZM14.1129 3.15281H13.9129V3.34214L14.1019 3.35251L14.1129 3.15281ZM14.1129 1.79204H13.9129H14.1129ZM12.8162 1.79204L13.0162 1.79204L12.8162 1.79204ZM12.8162 3.15281L12.8266 3.35254L13.0162 3.34273V3.15281H12.8162ZM1.97463 20.7046L1.7913 20.7846L1.79157 20.7852L1.97463 20.7046ZM3.3821 21.6205L3.3821 21.4205L3.3815 21.4205L3.3821 21.6205ZM12.8162 21.6205H13.0162V21.4205H12.8162V21.6205ZM12.8162 44.2913V44.4913H13.0162V44.2913H12.8162ZM5.32917 44.2913V44.0913L5.32893 44.0913L5.32917 44.2913ZM2.62713 46.996L2.42713 46.9958V46.996H2.62713ZM2.62713 47.3101L2.42713 47.3101L2.42713 47.3102L2.62713 47.3101ZM3.81607 48.5002L3.8159 48.7002H3.81607V48.5002ZM23.1057 48.5002L23.1057 48.7002L23.106 48.7002L23.1057 48.5002ZM24.2946 47.3101L24.4946 47.3104V47.3101H24.2946ZM24.2946 46.996H24.4946L24.4946 46.9957L24.2946 46.996ZM21.5926 44.2913L21.5929 44.0913H21.5926V44.2913ZM14.1129 44.2913H13.9129V44.4913H14.1129V44.2913ZM14.1129 21.6205V21.4205H13.9129V21.6205H14.1129ZM19.0077 21.6205H19.2077V21.4205H19.0077V21.6205ZM19.0077 28.4798L19.13 28.638L19.2077 28.578V28.4798H19.0077ZM19.0077 30.1546H19.2077V30.0565L19.13 29.9964L19.0077 30.1546ZM19.0077 30.2247H18.8077V30.4247H19.0077V30.2247ZM19.1122 30.2247L19.2161 30.0538L19.1682 30.0247H19.1122V30.2247ZM19.6581 30.3776V30.1776V30.3776ZM20.2039 30.2247V30.0247H20.1479L20.1001 30.0538L20.2039 30.2247ZM20.3085 30.2247V30.4247H20.5085V30.2247H20.3085ZM20.3085 30.1546L20.1861 29.9964L20.1085 30.0565V30.1546H20.3085ZM20.3085 28.4798H20.1085V28.578L20.1861 28.638L20.3085 28.4798ZM20.3085 21.6205V21.4205H20.1085V21.6205H20.3085ZM23.5501 21.6205L23.5505 21.4205H23.5501V21.6205ZM24.9597 20.7015L25.1428 20.7819L25.143 20.7814L24.9597 20.7015ZM23.0011 46.9992L23.2011 46.9992L23.2011 46.9983L23.0011 46.9992ZM23.0011 47.2085V47.4085H23.2011V47.2085H23.0011ZM3.92797 47.2085H3.72797V47.4085H3.92797V47.2085ZM3.92797 46.9992L3.72797 46.9983V46.9992H3.92797ZM5.32917 45.5976V45.3976L5.32842 45.3976L5.32917 45.5976ZM21.5874 45.5976V45.7976L21.5884 45.7976L21.5874 45.5976ZM23.7697 20.1812L23.9526 20.2622L24.077 19.9812H23.7697V20.1812ZM23.549 20.3225L23.5521 20.1225H23.549V20.3225ZM3.38004 20.3225L3.38004 20.1225L3.37781 20.1226L3.38004 20.3225ZM3.16043 20.1844L2.97704 20.2643L2.97922 20.269L3.16043 20.1844ZM13.4604 4.43194L13.4604 4.23194L13.4603 4.23194L13.4604 4.43194ZM13.7092 4.43194L13.7135 4.23194H13.7092V4.43194ZM24.6982 15.4144L24.4983 15.419L24.4983 15.4196L24.6982 15.4144ZM23.7645 20.1812L23.5813 20.101L23.4585 20.3812H23.7645V20.1812ZM26.1948 15.385C26.1105 12.174 24.822 9.1123 22.5854 6.80883L22.2984 7.08747C24.465 9.31886 25.7133 12.2848 25.7949 15.3955L26.1948 15.385ZM22.5854 6.80883C20.3488 4.50535 17.3281 3.12884 14.1238 2.95311L14.1019 3.35251C17.2057 3.52273 20.1318 4.85608 22.2984 7.08747L22.5854 6.80883ZM14.3129 3.15281V1.79204H13.9129V3.15281H14.3129ZM14.3129 1.79204C14.3129 1.56695 14.2235 1.35103 14.0645 1.1918L13.7815 1.4745C13.8656 1.55868 13.9129 1.6729 13.9129 1.79204L14.3129 1.79204ZM14.0645 1.1918C13.9054 1.03256 13.6896 0.943066 13.4645 0.943066V1.34307C13.5834 1.34307 13.6974 1.39032 13.7815 1.4745L14.0645 1.1918ZM13.4645 0.943066C13.2395 0.943066 13.0237 1.03256 12.8646 1.1918L13.1476 1.4745C13.2317 1.39032 13.3457 1.34307 13.4645 1.34307V0.943066ZM12.8646 1.1918C12.7056 1.35103 12.6162 1.56694 12.6162 1.79204L13.0162 1.79204C13.0162 1.6729 13.0635 1.55868 13.1476 1.4745L12.8646 1.1918ZM12.6162 1.79204V3.15281H13.0162V1.79204H12.6162ZM12.8059 2.95308C10.7495 3.05948 8.74956 3.66343 6.97747 4.71312L7.18133 5.05728C8.89774 4.04056 10.8348 3.4556 12.8266 3.35254L12.8059 2.95308ZM6.97747 4.71312C5.20538 5.76282 3.714 7.22697 2.63113 8.98006L2.97144 9.19027C4.02035 7.49217 5.46492 6.074 7.18133 5.05728L6.97747 4.71312ZM2.63113 8.98006C1.54826 10.7332 0.906177 12.7229 0.75991 14.7789L1.1589 14.8072C1.30058 12.8158 1.92254 10.8884 2.97144 9.19027L2.63113 8.98006ZM0.75991 14.7789C0.613643 16.8348 0.967548 18.8955 1.7913 20.7846L2.15795 20.6247C1.36003 18.7949 1.01722 16.7987 1.1589 14.8072L0.75991 14.7789ZM1.79157 20.7852C1.92743 21.0939 2.15029 21.3563 2.4329 21.5402L2.65107 21.2049C2.4337 21.0635 2.26223 20.8616 2.15768 20.624L1.79157 20.7852ZM2.4329 21.5402C2.71552 21.7241 3.04559 21.8215 3.38271 21.8205L3.3815 21.4205C3.12228 21.4213 2.86844 21.3464 2.65107 21.2049L2.4329 21.5402ZM3.3821 21.8205H12.8162V21.4205H3.3821V21.8205ZM12.6162 21.6205V44.2913H13.0162V21.6205H12.6162ZM12.8162 44.0913H5.32917V44.4913H12.8162V44.0913ZM5.32893 44.0913C4.55954 44.0922 3.82194 44.3985 3.27796 44.943L3.56095 45.2257C4.03006 44.7562 4.66606 44.492 5.3294 44.4913L5.32893 44.0913ZM3.27796 44.943C2.73398 45.4876 2.42802 46.2258 2.42713 46.9958L2.82713 46.9963C2.8279 46.3321 3.09182 45.6953 3.56095 45.2257L3.27796 44.943ZM2.42713 46.996V47.3101H2.82713V46.996H2.42713ZM2.42713 47.3102C2.42745 47.6787 2.57384 48.0321 2.83419 48.2927L3.11717 48.01C2.9317 47.8243 2.82736 47.5725 2.82713 47.3099L2.42713 47.3102ZM2.83419 48.2927C3.09454 48.5533 3.44761 48.6999 3.8159 48.7002L3.81625 48.3002C3.55406 48.3 3.30263 48.1956 3.11717 48.01L2.83419 48.2927ZM3.81607 48.7002H23.1057V48.3002H3.81607V48.7002ZM23.106 48.7002C23.4742 48.6996 23.827 48.5529 24.0873 48.2924L23.8043 48.0097C23.6188 48.1953 23.3675 48.2997 23.1053 48.3002L23.106 48.7002ZM24.0873 48.2924C24.3475 48.0319 24.494 47.6788 24.4946 47.3104L24.0946 47.3097C24.0942 47.5723 23.9897 47.824 23.8043 48.0097L24.0873 48.2924ZM24.4946 47.3101V46.996H24.0946V47.3101H24.4946ZM24.4946 46.9957C24.4934 46.2259 24.1874 45.4878 23.6435 44.9434L23.3605 45.2261C23.8296 45.6956 24.0936 46.3322 24.0946 46.9964L24.4946 46.9957ZM23.6435 44.9434C23.0996 44.3989 22.3622 44.0924 21.5929 44.0913L21.5923 44.4913C22.2556 44.4923 22.8914 44.7565 23.3605 45.2261L23.6435 44.9434ZM21.5926 44.0913H14.1129V44.4913H21.5926V44.0913ZM14.3129 44.2913V21.6205H13.9129V44.2913H14.3129ZM14.1129 21.8205H19.0077V21.4205H14.1129V21.8205ZM18.8077 21.6205V28.4798H19.2077V21.6205H18.8077ZM18.8853 28.3216C18.7333 28.4392 18.6102 28.5901 18.5256 28.7627L18.8847 28.9388C18.9424 28.8211 19.0264 28.7182 19.13 28.638L18.8853 28.3216ZM18.5256 28.7627C18.4409 28.9353 18.3969 29.125 18.3969 29.3172H18.7969C18.7969 29.186 18.8269 29.0566 18.8847 28.9388L18.5256 28.7627ZM18.3969 29.3172C18.3969 29.5095 18.4409 29.6992 18.5256 29.8717L18.8847 29.6956C18.8269 29.5778 18.7969 29.4484 18.7969 29.3172H18.3969ZM18.5256 29.8717C18.6102 30.0443 18.7333 30.1952 18.8853 30.3128L19.13 29.9964C19.0264 29.9162 18.9424 29.8133 18.8847 29.6956L18.5256 29.8717ZM18.8077 30.1546V30.2247H19.2077V30.1546H18.8077ZM19.0077 30.4247H19.1122V30.0247H19.0077V30.4247ZM19.0084 30.3957C19.2042 30.5147 19.4289 30.5776 19.6581 30.5776V30.1776C19.5022 30.1776 19.3494 30.1348 19.2161 30.0538L19.0084 30.3957ZM19.6581 30.5776C19.8872 30.5776 20.1119 30.5147 20.3078 30.3957L20.1001 30.0538C19.9668 30.1348 19.8139 30.1776 19.6581 30.1776L19.6581 30.5776ZM20.2039 30.4247H20.3085V30.0247H20.2039V30.4247ZM20.5085 30.2247V30.1546H20.1085V30.2247H20.5085ZM20.4309 30.3128C20.5829 30.1952 20.7059 30.0443 20.7906 29.8717L20.4315 29.6956C20.3737 29.8133 20.2898 29.9162 20.1861 29.9964L20.4309 30.3128ZM20.7906 29.8717C20.8753 29.6992 20.9193 29.5095 20.9193 29.3172H20.5193C20.5193 29.4484 20.4892 29.5778 20.4315 29.6956L20.7906 29.8717ZM20.9193 29.3172C20.9193 29.125 20.8753 28.9353 20.7906 28.7627L20.4315 28.9388C20.4892 29.0566 20.5193 29.186 20.5193 29.3172H20.9193ZM20.7906 28.7627C20.7059 28.5901 20.5829 28.4392 20.4309 28.3216L20.1861 28.638C20.2898 28.7182 20.3737 28.8211 20.4315 28.9388L20.7906 28.7627ZM20.5085 28.4798V21.6205H20.1085V28.4798H20.5085ZM20.3085 21.8205H23.5501V21.4205H20.3085V21.8205ZM23.5497 21.8205C23.8874 21.8212 24.218 21.7233 24.5009 21.5388L24.2825 21.2038C24.0647 21.3457 23.8104 21.4211 23.5505 21.4205L23.5497 21.8205ZM24.5009 21.5388C24.7839 21.3543 25.007 21.0913 25.1428 20.7819L24.7765 20.6211C24.672 20.8593 24.5002 21.0618 24.2825 21.2038L24.5009 21.5388ZM25.143 20.7814C25.8844 19.0815 26.2435 17.2392 26.1948 15.385L25.7949 15.3955C25.8421 17.1912 25.4943 18.9753 24.7763 20.6215L25.143 20.7814ZM22.8011 46.9992V47.2085H23.2011V46.9992H22.8011ZM23.0011 47.0085H3.92797V47.4085H23.0011V47.0085ZM4.12797 47.2085V46.9992H3.72797V47.2085H4.12797ZM4.12797 47.0001C4.12939 46.6814 4.25654 46.3762 4.48168 46.151L4.1988 45.8682C3.89905 46.168 3.72986 46.5742 3.72797 46.9983L4.12797 47.0001ZM4.48168 46.151C4.70682 45.9258 5.01171 45.7988 5.32991 45.7976L5.32842 45.3976C4.90458 45.3992 4.49856 45.5683 4.1988 45.8682L4.48168 46.151ZM5.32917 45.7976H21.5874V45.3976H5.32917V45.7976ZM21.5884 45.7976C21.7469 45.7968 21.904 45.8272 22.0507 45.8872L22.202 45.5169C22.0066 45.437 21.7974 45.3965 21.5863 45.3976L21.5884 45.7976ZM22.0507 45.8872C22.1974 45.9472 22.3309 46.0355 22.4436 46.1472L22.7252 45.8631C22.5752 45.7144 22.3975 45.5968 22.202 45.5169L22.0507 45.8872ZM22.4436 46.1472C22.5562 46.2588 22.6458 46.3916 22.7071 46.538L23.076 46.3833C22.9943 46.1885 22.8751 46.0118 22.7252 45.8631L22.4436 46.1472ZM22.7071 46.538C22.7685 46.6843 22.8004 46.8413 22.8011 47.0001L23.2011 46.9983C23.2002 46.7871 23.1577 46.5781 23.076 46.3833L22.7071 46.538ZM23.5868 20.1003C23.5838 20.107 23.5789 20.1127 23.5727 20.1167L23.7885 20.4535C23.8607 20.4072 23.9178 20.3407 23.9526 20.2622L23.5868 20.1003ZM23.5727 20.1167C23.5665 20.1206 23.5594 20.1227 23.5521 20.1226L23.546 20.5225C23.6319 20.5238 23.7162 20.4998 23.7885 20.4535L23.5727 20.1167ZM23.549 20.1225H3.38004V20.5225H23.549V20.1225ZM3.37781 20.1226C3.37026 20.1226 3.36282 20.1205 3.35643 20.1165L3.1434 20.4551C3.21489 20.5001 3.29783 20.5235 3.38227 20.5225L3.37781 20.1226ZM3.35643 20.1165C3.35003 20.1125 3.34488 20.1067 3.34164 20.0997L2.97922 20.269C3.01494 20.3455 3.07192 20.4101 3.1434 20.4551L3.35643 20.1165ZM3.34376 20.1044C2.61046 18.4227 2.307 16.5847 2.46079 14.7562L2.0622 14.7226C1.90285 16.6172 2.21728 18.5218 2.9771 20.2643L3.34376 20.1044ZM2.46079 14.7562C2.61459 12.9277 3.22079 11.1663 4.22467 9.63099L3.88988 9.41208C2.84968 11.0029 2.22156 12.828 2.0622 14.7226L2.46079 14.7562ZM4.22467 9.63099C5.22854 8.09568 6.59851 6.83478 8.21091 5.96204L8.02051 5.61026C6.34967 6.51464 4.93009 7.82122 3.88988 9.41208L4.22467 9.63099ZM8.21091 5.96204C9.8233 5.0893 11.6274 4.63219 13.4604 4.63194L13.4603 4.23194C11.5608 4.23219 9.69134 4.70589 8.02051 5.61026L8.21091 5.96204ZM13.4604 4.63194C13.4605 4.63194 13.4607 4.63194 13.4608 4.63194C13.461 4.63194 13.4612 4.63194 13.4613 4.63194C13.4615 4.63194 13.4616 4.63194 13.4618 4.63194C13.462 4.63194 13.4621 4.63194 13.4623 4.63194C13.4625 4.63194 13.4626 4.63194 13.4628 4.63194C13.4629 4.63194 13.4631 4.63194 13.4633 4.63194C13.4634 4.63194 13.4636 4.63194 13.4637 4.63194C13.4639 4.63194 13.4641 4.63194 13.4642 4.63194C13.4644 4.63194 13.4645 4.63194 13.4647 4.63194C13.4649 4.63194 13.465 4.63194 13.4652 4.63194C13.4654 4.63194 13.4655 4.63194 13.4657 4.63194C13.4658 4.63194 13.466 4.63194 13.4662 4.63194C13.4663 4.63194 13.4665 4.63194 13.4666 4.63194C13.4668 4.63194 13.467 4.63194 13.4671 4.63194C13.4673 4.63194 13.4675 4.63194 13.4676 4.63194C13.4678 4.63194 13.4679 4.63194 13.4681 4.63194C13.4683 4.63194 13.4684 4.63194 13.4686 4.63194C13.4687 4.63194 13.4689 4.63194 13.4691 4.63194C13.4692 4.63194 13.4694 4.63194 13.4696 4.63194C13.4697 4.63194 13.4699 4.63194 13.47 4.63194C13.4702 4.63194 13.4704 4.63194 13.4705 4.63194C13.4707 4.63194 13.4708 4.63194 13.471 4.63194C13.4712 4.63194 13.4713 4.63194 13.4715 4.63194C13.4716 4.63194 13.4718 4.63194 13.472 4.63194C13.4721 4.63194 13.4723 4.63194 13.4725 4.63194C13.4726 4.63194 13.4728 4.63194 13.4729 4.63194C13.4731 4.63194 13.4733 4.63194 13.4734 4.63194C13.4736 4.63194 13.4737 4.63194 13.4739 4.63194C13.4741 4.63194 13.4742 4.63194 13.4744 4.63194C13.4746 4.63194 13.4747 4.63194 13.4749 4.63194C13.475 4.63194 13.4752 4.63194 13.4754 4.63194C13.4755 4.63194 13.4757 4.63194 13.4758 4.63194C13.476 4.63194 13.4762 4.63194 13.4763 4.63194C13.4765 4.63194 13.4766 4.63194 13.4768 4.63194C13.477 4.63194 13.4771 4.63194 13.4773 4.63194C13.4775 4.63194 13.4776 4.63194 13.4778 4.63194C13.4779 4.63194 13.4781 4.63194 13.4783 4.63194C13.4784 4.63194 13.4786 4.63194 13.4787 4.63194C13.4789 4.63194 13.4791 4.63194 13.4792 4.63194C13.4794 4.63194 13.4796 4.63194 13.4797 4.63194C13.4799 4.63194 13.48 4.63194 13.4802 4.63194C13.4804 4.63194 13.4805 4.63194 13.4807 4.63194C13.4808 4.63194 13.481 4.63194 13.4812 4.63194C13.4813 4.63194 13.4815 4.63194 13.4817 4.63194C13.4818 4.63194 13.482 4.63194 13.4821 4.63194C13.4823 4.63194 13.4825 4.63194 13.4826 4.63194C13.4828 4.63194 13.4829 4.63194 13.4831 4.63194C13.4833 4.63194 13.4834 4.63194 13.4836 4.63194C13.4837 4.63194 13.4839 4.63194 13.4841 4.63194C13.4842 4.63194 13.4844 4.63194 13.4846 4.63194C13.4847 4.63194 13.4849 4.63194 13.485 4.63194C13.4852 4.63194 13.4854 4.63194 13.4855 4.63194C13.4857 4.63194 13.4858 4.63194 13.486 4.63194C13.4862 4.63194 13.4863 4.63194 13.4865 4.63194C13.4867 4.63194 13.4868 4.63194 13.487 4.63194C13.4871 4.63194 13.4873 4.63194 13.4875 4.63194C13.4876 4.63194 13.4878 4.63194 13.4879 4.63194C13.4881 4.63194 13.4883 4.63194 13.4884 4.63194C13.4886 4.63194 13.4888 4.63194 13.4889 4.63194C13.4891 4.63194 13.4892 4.63194 13.4894 4.63194C13.4896 4.63194 13.4897 4.63194 13.4899 4.63194C13.49 4.63194 13.4902 4.63194 13.4904 4.63194C13.4905 4.63194 13.4907 4.63194 13.4908 4.63194C13.491 4.63194 13.4912 4.63194 13.4913 4.63194C13.4915 4.63194 13.4917 4.63194 13.4918 4.63194C13.492 4.63194 13.4921 4.63194 13.4923 4.63194C13.4925 4.63194 13.4926 4.63194 13.4928 4.63194C13.4929 4.63194 13.4931 4.63194 13.4933 4.63194C13.4934 4.63194 13.4936 4.63194 13.4938 4.63194C13.4939 4.63194 13.4941 4.63194 13.4942 4.63194C13.4944 4.63194 13.4946 4.63194 13.4947 4.63194C13.4949 4.63194 13.495 4.63194 13.4952 4.63194C13.4954 4.63194 13.4955 4.63194 13.4957 4.63194C13.4959 4.63194 13.496 4.63194 13.4962 4.63194C13.4963 4.63194 13.4965 4.63194 13.4967 4.63194C13.4968 4.63194 13.497 4.63194 13.4971 4.63194C13.4973 4.63194 13.4975 4.63194 13.4976 4.63194C13.4978 4.63194 13.4979 4.63194 13.4981 4.63194C13.4983 4.63194 13.4984 4.63194 13.4986 4.63194C13.4988 4.63194 13.4989 4.63194 13.4991 4.63194C13.4992 4.63194 13.4994 4.63194 13.4996 4.63194C13.4997 4.63194 13.4999 4.63194 13.5 4.63194C13.5002 4.63194 13.5004 4.63194 13.5005 4.63194C13.5007 4.63194 13.5009 4.63194 13.501 4.63194C13.5012 4.63194 13.5013 4.63194 13.5015 4.63194C13.5017 4.63194 13.5018 4.63194 13.502 4.63194C13.5021 4.63194 13.5023 4.63194 13.5025 4.63194C13.5026 4.63194 13.5028 4.63194 13.503 4.63194C13.5031 4.63194 13.5033 4.63194 13.5034 4.63194C13.5036 4.63194 13.5038 4.63194 13.5039 4.63194C13.5041 4.63194 13.5042 4.63194 13.5044 4.63194C13.5046 4.63194 13.5047 4.63194 13.5049 4.63194C13.5051 4.63194 13.5052 4.63194 13.5054 4.63194C13.5055 4.63194 13.5057 4.63194 13.5059 4.63194C13.506 4.63194 13.5062 4.63194 13.5063 4.63194C13.5065 4.63194 13.5067 4.63194 13.5068 4.63194C13.507 4.63194 13.5071 4.63194 13.5073 4.63194C13.5075 4.63194 13.5076 4.63194 13.5078 4.63194C13.508 4.63194 13.5081 4.63194 13.5083 4.63194C13.5084 4.63194 13.5086 4.63194 13.5088 4.63194C13.5089 4.63194 13.5091 4.63194 13.5092 4.63194C13.5094 4.63194 13.5096 4.63194 13.5097 4.63194C13.5099 4.63194 13.5101 4.63194 13.5102 4.63194C13.5104 4.63194 13.5105 4.63194 13.5107 4.63194C13.5109 4.63194 13.511 4.63194 13.5112 4.63194C13.5113 4.63194 13.5115 4.63194 13.5117 4.63194C13.5118 4.63194 13.512 4.63194 13.5122 4.63194C13.5123 4.63194 13.5125 4.63194 13.5126 4.63194C13.5128 4.63194 13.513 4.63194 13.5131 4.63194C13.5133 4.63194 13.5134 4.63194 13.5136 4.63194C13.5138 4.63194 13.5139 4.63194 13.5141 4.63194C13.5143 4.63194 13.5144 4.63194 13.5146 4.63194C13.5147 4.63194 13.5149 4.63194 13.5151 4.63194C13.5152 4.63194 13.5154 4.63194 13.5155 4.63194C13.5157 4.63194 13.5159 4.63194 13.516 4.63194C13.5162 4.63194 13.5164 4.63194 13.5165 4.63194C13.5167 4.63194 13.5168 4.63194 13.517 4.63194C13.5172 4.63194 13.5173 4.63194 13.5175 4.63194C13.5176 4.63194 13.5178 4.63194 13.518 4.63194C13.5181 4.63194 13.5183 4.63194 13.5184 4.63194C13.5186 4.63194 13.5188 4.63194 13.5189 4.63194C13.5191 4.63194 13.5193 4.63194 13.5194 4.63194C13.5196 4.63194 13.5197 4.63194 13.5199 4.63194C13.5201 4.63194 13.5202 4.63194 13.5204 4.63194C13.5205 4.63194 13.5207 4.63194 13.5209 4.63194C13.521 4.63194 13.5212 4.63194 13.5214 4.63194C13.5215 4.63194 13.5217 4.63194 13.5218 4.63194C13.522 4.63194 13.5222 4.63194 13.5223 4.63194C13.5225 4.63194 13.5226 4.63194 13.5228 4.63194C13.523 4.63194 13.5231 4.63194 13.5233 4.63194C13.5235 4.63194 13.5236 4.63194 13.5238 4.63194C13.5239 4.63194 13.5241 4.63194 13.5243 4.63194C13.5244 4.63194 13.5246 4.63194 13.5247 4.63194C13.5249 4.63194 13.5251 4.63194 13.5252 4.63194C13.5254 4.63194 13.5256 4.63194 13.5257 4.63194C13.5259 4.63194 13.526 4.63194 13.5262 4.63194C13.5264 4.63194 13.5265 4.63194 13.5267 4.63194C13.5268 4.63194 13.527 4.63194 13.5272 4.63194C13.5273 4.63194 13.5275 4.63194 13.5277 4.63194C13.5278 4.63194 13.528 4.63194 13.5281 4.63194C13.5283 4.63194 13.5285 4.63194 13.5286 4.63194C13.5288 4.63194 13.5289 4.63194 13.5291 4.63194C13.5293 4.63194 13.5294 4.63194 13.5296 4.63194C13.5298 4.63194 13.5299 4.63194 13.5301 4.63194C13.5302 4.63194 13.5304 4.63194 13.5306 4.63194C13.5307 4.63194 13.5309 4.63194 13.531 4.63194C13.5312 4.63194 13.5314 4.63194 13.5315 4.63194C13.5317 4.63194 13.5319 4.63194 13.532 4.63194C13.5322 4.63194 13.5323 4.63194 13.5325 4.63194C13.5327 4.63194 13.5328 4.63194 13.533 4.63194C13.5331 4.63194 13.5333 4.63194 13.5335 4.63194C13.5336 4.63194 13.5338 4.63194 13.534 4.63194C13.5341 4.63194 13.5343 4.63194 13.5344 4.63194C13.5346 4.63194 13.5348 4.63194 13.5349 4.63194C13.5351 4.63194 13.5352 4.63194 13.5354 4.63194C13.5356 4.63194 13.5357 4.63194 13.5359 4.63194C13.5361 4.63194 13.5362 4.63194 13.5364 4.63194C13.5365 4.63194 13.5367 4.63194 13.5369 4.63194C13.537 4.63194 13.5372 4.63194 13.5373 4.63194C13.5375 4.63194 13.5377 4.63194 13.5378 4.63194C13.538 4.63194 13.5382 4.63194 13.5383 4.63194C13.5385 4.63194 13.5386 4.63194 13.5388 4.63194C13.539 4.63194 13.5391 4.63194 13.5393 4.63194C13.5394 4.63194 13.5396 4.63194 13.5398 4.63194C13.5399 4.63194 13.5401 4.63194 13.5403 4.63194C13.5404 4.63194 13.5406 4.63194 13.5407 4.63194C13.5409 4.63194 13.5411 4.63194 13.5412 4.63194C13.5414 4.63194 13.5415 4.63194 13.5417 4.63194C13.5419 4.63194 13.542 4.63194 13.5422 4.63194C13.5424 4.63194 13.5425 4.63194 13.5427 4.63194C13.5428 4.63194 13.543 4.63194 13.5432 4.63194C13.5433 4.63194 13.5435 4.63194 13.5436 4.63194C13.5438 4.63194 13.544 4.63194 13.5441 4.63194C13.5443 4.63194 13.5445 4.63194 13.5446 4.63194C13.5448 4.63194 13.5449 4.63194 13.5451 4.63194C13.5453 4.63194 13.5454 4.63194 13.5456 4.63194C13.5457 4.63194 13.5459 4.63194 13.5461 4.63194C13.5462 4.63194 13.5464 4.63194 13.5466 4.63194C13.5467 4.63194 13.5469 4.63194 13.547 4.63194C13.5472 4.63194 13.5474 4.63194 13.5475 4.63194C13.5477 4.63194 13.5478 4.63194 13.548 4.63194C13.5482 4.63194 13.5483 4.63194 13.5485 4.63194C13.5487 4.63194 13.5488 4.63194 13.549 4.63194C13.5491 4.63194 13.5493 4.63194 13.5495 4.63194C13.5496 4.63194 13.5498 4.63194 13.5499 4.63194C13.5501 4.63194 13.5503 4.63194 13.5504 4.63194C13.5506 4.63194 13.5508 4.63194 13.5509 4.63194C13.5511 4.63194 13.5512 4.63194 13.5514 4.63194C13.5516 4.63194 13.5517 4.63194 13.5519 4.63194C13.552 4.63194 13.5522 4.63194 13.5524 4.63194C13.5525 4.63194 13.5527 4.63194 13.5529 4.63194C13.553 4.63194 13.5532 4.63194 13.5533 4.63194C13.5535 4.63194 13.5537 4.63194 13.5538 4.63194C13.554 4.63194 13.5541 4.63194 13.5543 4.63194C13.5545 4.63194 13.5546 4.63194 13.5548 4.63194C13.555 4.63194 13.5551 4.63194 13.5553 4.63194C13.5554 4.63194 13.5556 4.63194 13.5558 4.63194C13.5559 4.63194 13.5561 4.63194 13.5562 4.63194C13.5564 4.63194 13.5566 4.63194 13.5567 4.63194C13.5569 4.63194 13.5571 4.63194 13.5572 4.63194C13.5574 4.63194 13.5575 4.63194 13.5577 4.63194C13.5579 4.63194 13.558 4.63194 13.5582 4.63194C13.5584 4.63194 13.5585 4.63194 13.5587 4.63194C13.5588 4.63194 13.559 4.63194 13.5592 4.63194C13.5593 4.63194 13.5595 4.63194 13.5596 4.63194C13.5598 4.63194 13.56 4.63194 13.5601 4.63194C13.5603 4.63194 13.5605 4.63194 13.5606 4.63194C13.5608 4.63194 13.5609 4.63194 13.5611 4.63194C13.5613 4.63194 13.5614 4.63194 13.5616 4.63194C13.5617 4.63194 13.5619 4.63194 13.5621 4.63194C13.5622 4.63194 13.5624 4.63194 13.5626 4.63194C13.5627 4.63194 13.5629 4.63194 13.563 4.63194C13.5632 4.63194 13.5634 4.63194 13.5635 4.63194C13.5637 4.63194 13.5638 4.63194 13.564 4.63194C13.5642 4.63194 13.5643 4.63194 13.5645 4.63194C13.5647 4.63194 13.5648 4.63194 13.565 4.63194C13.5651 4.63194 13.5653 4.63194 13.5655 4.63194C13.5656 4.63194 13.5658 4.63194 13.5659 4.63194C13.5661 4.63194 13.5663 4.63194 13.5664 4.63194C13.5666 4.63194 13.5668 4.63194 13.5669 4.63194C13.5671 4.63194 13.5672 4.63194 13.5674 4.63194C13.5676 4.63194 13.5677 4.63194 13.5679 4.63194C13.5681 4.63194 13.5682 4.63194 13.5684 4.63194C13.5685 4.63194 13.5687 4.63194 13.5689 4.63194C13.569 4.63194 13.5692 4.63194 13.5693 4.63194C13.5695 4.63194 13.5697 4.63194 13.5698 4.63194C13.57 4.63194 13.5702 4.63194 13.5703 4.63194C13.5705 4.63194 13.5706 4.63194 13.5708 4.63194C13.571 4.63194 13.5711 4.63194 13.5713 4.63194C13.5714 4.63194 13.5716 4.63194 13.5718 4.63194C13.5719 4.63194 13.5721 4.63194 13.5723 4.63194C13.5724 4.63194 13.5726 4.63194 13.5727 4.63194C13.5729 4.63194 13.5731 4.63194 13.5732 4.63194C13.5734 4.63194 13.5736 4.63194 13.5737 4.63194C13.5739 4.63194 13.574 4.63194 13.5742 4.63194C13.5744 4.63194 13.5745 4.63194 13.5747 4.63194C13.5748 4.63194 13.575 4.63194 13.5752 4.63194C13.5753 4.63194 13.5755 4.63194 13.5757 4.63194C13.5758 4.63194 13.576 4.63194 13.5761 4.63194C13.5763 4.63194 13.5765 4.63194 13.5766 4.63194C13.5768 4.63194 13.5769 4.63194 13.5771 4.63194C13.5773 4.63194 13.5774 4.63194 13.5776 4.63194C13.5778 4.63194 13.5779 4.63194 13.5781 4.63194C13.5782 4.63194 13.5784 4.63194 13.5786 4.63194C13.5787 4.63194 13.5789 4.63194 13.5791 4.63194C13.5792 4.63194 13.5794 4.63194 13.5795 4.63194C13.5797 4.63194 13.5799 4.63194 13.58 4.63194C13.5802 4.63194 13.5803 4.63194 13.5805 4.63194C13.5807 4.63194 13.5808 4.63194 13.581 4.63194C13.5812 4.63194 13.5813 4.63194 13.5815 4.63194C13.5816 4.63194 13.5818 4.63194 13.582 4.63194C13.5821 4.63194 13.5823 4.63194 13.5824 4.63194C13.5826 4.63194 13.5828 4.63194 13.5829 4.63194C13.5831 4.63194 13.5833 4.63194 13.5834 4.63194C13.5836 4.63194 13.5837 4.63194 13.5839 4.63194C13.5841 4.63194 13.5842 4.63194 13.5844 4.63194C13.5846 4.63194 13.5847 4.63194 13.5849 4.63194C13.585 4.63194 13.5852 4.63194 13.5854 4.63194C13.5855 4.63194 13.5857 4.63194 13.5858 4.63194C13.586 4.63194 13.5862 4.63194 13.5863 4.63194C13.5865 4.63194 13.5867 4.63194 13.5868 4.63194C13.587 4.63194 13.5871 4.63194 13.5873 4.63194C13.5875 4.63194 13.5876 4.63194 13.5878 4.63194C13.588 4.63194 13.5881 4.63194 13.5883 4.63194C13.5884 4.63194 13.5886 4.63194 13.5888 4.63194C13.5889 4.63194 13.5891 4.63194 13.5892 4.63194C13.5894 4.63194 13.5896 4.63194 13.5897 4.63194C13.5899 4.63194 13.5901 4.63194 13.5902 4.63194C13.5904 4.63194 13.5905 4.63194 13.5907 4.63194C13.5909 4.63194 13.591 4.63194 13.5912 4.63194C13.5914 4.63194 13.5915 4.63194 13.5917 4.63194C13.5918 4.63194 13.592 4.63194 13.5922 4.63194C13.5923 4.63194 13.5925 4.63194 13.5926 4.63194C13.5928 4.63194 13.593 4.63194 13.5931 4.63194C13.5933 4.63194 13.5935 4.63194 13.5936 4.63194C13.5938 4.63194 13.5939 4.63194 13.5941 4.63194C13.5943 4.63194 13.5944 4.63194 13.5946 4.63194C13.5948 4.63194 13.5949 4.63194 13.5951 4.63194C13.5952 4.63194 13.5954 4.63194 13.5956 4.63194C13.5957 4.63194 13.5959 4.63194 13.596 4.63194C13.5962 4.63194 13.5964 4.63194 13.5965 4.63194C13.5967 4.63194 13.5969 4.63194 13.597 4.63194C13.5972 4.63194 13.5973 4.63194 13.5975 4.63194C13.5977 4.63194 13.5978 4.63194 13.598 4.63194C13.5982 4.63194 13.5983 4.63194 13.5985 4.63194C13.5986 4.63194 13.5988 4.63194 13.599 4.63194C13.5991 4.63194 13.5993 4.63194 13.5994 4.63194C13.5996 4.63194 13.5998 4.63194 13.5999 4.63194C13.6001 4.63194 13.6003 4.63194 13.6004 4.63194C13.6006 4.63194 13.6007 4.63194 13.6009 4.63194C13.6011 4.63194 13.6012 4.63194 13.6014 4.63194C13.6016 4.63194 13.6017 4.63194 13.6019 4.63194C13.602 4.63194 13.6022 4.63194 13.6024 4.63194C13.6025 4.63194 13.6027 4.63194 13.6029 4.63194C13.603 4.63194 13.6032 4.63194 13.6033 4.63194C13.6035 4.63194 13.6037 4.63194 13.6038 4.63194C13.604 4.63194 13.6041 4.63194 13.6043 4.63194C13.6045 4.63194 13.6046 4.63194 13.6048 4.63194C13.605 4.63194 13.6051 4.63194 13.6053 4.63194C13.6054 4.63194 13.6056 4.63194 13.6058 4.63194C13.6059 4.63194 13.6061 4.63194 13.6063 4.63194C13.6064 4.63194 13.6066 4.63194 13.6067 4.63194C13.6069 4.63194 13.6071 4.63194 13.6072 4.63194C13.6074 4.63194 13.6075 4.63194 13.6077 4.63194C13.6079 4.63194 13.608 4.63194 13.6082 4.63194C13.6084 4.63194 13.6085 4.63194 13.6087 4.63194C13.6088 4.63194 13.609 4.63194 13.6092 4.63194C13.6093 4.63194 13.6095 4.63194 13.6097 4.63194C13.6098 4.63194 13.61 4.63194 13.6101 4.63194C13.6103 4.63194 13.6105 4.63194 13.6106 4.63194C13.6108 4.63194 13.611 4.63194 13.6111 4.63194C13.6113 4.63194 13.6114 4.63194 13.6116 4.63194C13.6118 4.63194 13.6119 4.63194 13.6121 4.63194C13.6122 4.63194 13.6124 4.63194 13.6126 4.63194C13.6127 4.63194 13.6129 4.63194 13.6131 4.63194C13.6132 4.63194 13.6134 4.63194 13.6135 4.63194C13.6137 4.63194 13.6139 4.63194 13.614 4.63194C13.6142 4.63194 13.6144 4.63194 13.6145 4.63194C13.6147 4.63194 13.6148 4.63194 13.615 4.63194C13.6152 4.63194 13.6153 4.63194 13.6155 4.63194C13.6157 4.63194 13.6158 4.63194 13.616 4.63194C13.6161 4.63194 13.6163 4.63194 13.6165 4.63194C13.6166 4.63194 13.6168 4.63194 13.617 4.63194C13.6171 4.63194 13.6173 4.63194 13.6174 4.63194C13.6176 4.63194 13.6178 4.63194 13.6179 4.63194C13.6181 4.63194 13.6182 4.63194 13.6184 4.63194C13.6186 4.63194 13.6187 4.63194 13.6189 4.63194C13.6191 4.63194 13.6192 4.63194 13.6194 4.63194C13.6195 4.63194 13.6197 4.63194 13.6199 4.63194C13.62 4.63194 13.6202 4.63194 13.6204 4.63194C13.6205 4.63194 13.6207 4.63194 13.6208 4.63194C13.621 4.63194 13.6212 4.63194 13.6213 4.63194C13.6215 4.63194 13.6217 4.63194 13.6218 4.63194C13.622 4.63194 13.6221 4.63194 13.6223 4.63194C13.6225 4.63194 13.6226 4.63194 13.6228 4.63194C13.623 4.63194 13.6231 4.63194 13.6233 4.63194C13.6234 4.63194 13.6236 4.63194 13.6238 4.63194C13.6239 4.63194 13.6241 4.63194 13.6242 4.63194C13.6244 4.63194 13.6246 4.63194 13.6247 4.63194C13.6249 4.63194 13.6251 4.63194 13.6252 4.63194C13.6254 4.63194 13.6255 4.63194 13.6257 4.63194C13.6259 4.63194 13.626 4.63194 13.6262 4.63194C13.6264 4.63194 13.6265 4.63194 13.6267 4.63194C13.6268 4.63194 13.627 4.63194 13.6272 4.63194C13.6273 4.63194 13.6275 4.63194 13.6277 4.63194C13.6278 4.63194 13.628 4.63194 13.6281 4.63194C13.6283 4.63194 13.6285 4.63194 13.6286 4.63194C13.6288 4.63194 13.629 4.63194 13.6291 4.63194C13.6293 4.63194 13.6294 4.63194 13.6296 4.63194C13.6298 4.63194 13.6299 4.63194 13.6301 4.63194C13.6303 4.63194 13.6304 4.63194 13.6306 4.63194C13.6307 4.63194 13.6309 4.63194 13.6311 4.63194C13.6312 4.63194 13.6314 4.63194 13.6316 4.63194C13.6317 4.63194 13.6319 4.63194 13.632 4.63194C13.6322 4.63194 13.6324 4.63194 13.6325 4.63194C13.6327 4.63194 13.6328 4.63194 13.633 4.63194C13.6332 4.63194 13.6333 4.63194 13.6335 4.63194C13.6337 4.63194 13.6338 4.63194 13.634 4.63194C13.6341 4.63194 13.6343 4.63194 13.6345 4.63194C13.6346 4.63194 13.6348 4.63194 13.635 4.63194C13.6351 4.63194 13.6353 4.63194 13.6354 4.63194C13.6356 4.63194 13.6358 4.63194 13.6359 4.63194C13.6361 4.63194 13.6363 4.63194 13.6364 4.63194C13.6366 4.63194 13.6367 4.63194 13.6369 4.63194C13.6371 4.63194 13.6372 4.63194 13.6374 4.63194C13.6376 4.63194 13.6377 4.63194 13.6379 4.63194C13.638 4.63194 13.6382 4.63194 13.6384 4.63194C13.6385 4.63194 13.6387 4.63194 13.6389 4.63194C13.639 4.63194 13.6392 4.63194 13.6393 4.63194C13.6395 4.63194 13.6397 4.63194 13.6398 4.63194C13.64 4.63194 13.6402 4.63194 13.6403 4.63194C13.6405 4.63194 13.6406 4.63194 13.6408 4.63194C13.641 4.63194 13.6411 4.63194 13.6413 4.63194C13.6415 4.63194 13.6416 4.63194 13.6418 4.63194C13.6419 4.63194 13.6421 4.63194 13.6423 4.63194C13.6424 4.63194 13.6426 4.63194 13.6428 4.63194C13.6429 4.63194 13.6431 4.63194 13.6432 4.63194C13.6434 4.63194 13.6436 4.63194 13.6437 4.63194C13.6439 4.63194 13.6441 4.63194 13.6442 4.63194C13.6444 4.63194 13.6445 4.63194 13.6447 4.63194C13.6449 4.63194 13.645 4.63194 13.6452 4.63194C13.6454 4.63194 13.6455 4.63194 13.6457 4.63194C13.6458 4.63194 13.646 4.63194 13.6462 4.63194C13.6463 4.63194 13.6465 4.63194 13.6467 4.63194C13.6468 4.63194 13.647 4.63194 13.6471 4.63194C13.6473 4.63194 13.6475 4.63194 13.6476 4.63194C13.6478 4.63194 13.648 4.63194 13.6481 4.63194C13.6483 4.63194 13.6484 4.63194 13.6486 4.63194C13.6488 4.63194 13.6489 4.63194 13.6491 4.63194C13.6493 4.63194 13.6494 4.63194 13.6496 4.63194C13.6497 4.63194 13.6499 4.63194 13.6501 4.63194C13.6502 4.63194 13.6504 4.63194 13.6506 4.63194C13.6507 4.63194 13.6509 4.63194 13.651 4.63194C13.6512 4.63194 13.6514 4.63194 13.6515 4.63194C13.6517 4.63194 13.6519 4.63194 13.652 4.63194C13.6522 4.63194 13.6523 4.63194 13.6525 4.63194C13.6527 4.63194 13.6528 4.63194 13.653 4.63194C13.6532 4.63194 13.6533 4.63194 13.6535 4.63194C13.6536 4.63194 13.6538 4.63194 13.654 4.63194C13.6541 4.63194 13.6543 4.63194 13.6545 4.63194C13.6546 4.63194 13.6548 4.63194 13.6549 4.63194C13.6551 4.63194 13.6553 4.63194 13.6554 4.63194C13.6556 4.63194 13.6558 4.63194 13.6559 4.63194C13.6561 4.63194 13.6562 4.63194 13.6564 4.63194C13.6566 4.63194 13.6567 4.63194 13.6569 4.63194C13.6571 4.63194 13.6572 4.63194 13.6574 4.63194C13.6575 4.63194 13.6577 4.63194 13.6579 4.63194C13.658 4.63194 13.6582 4.63194 13.6584 4.63194C13.6585 4.63194 13.6587 4.63194 13.6588 4.63194C13.659 4.63194 13.6592 4.63194 13.6593 4.63194C13.6595 4.63194 13.6597 4.63194 13.6598 4.63194C13.66 4.63194 13.6601 4.63194 13.6603 4.63194C13.6605 4.63194 13.6606 4.63194 13.6608 4.63194C13.661 4.63194 13.6611 4.63194 13.6613 4.63194C13.6614 4.63194 13.6616 4.63194 13.6618 4.63194C13.6619 4.63194 13.6621 4.63194 13.6623 4.63194C13.6624 4.63194 13.6626 4.63194 13.6628 4.63194C13.6629 4.63194 13.6631 4.63194 13.6632 4.63194C13.6634 4.63194 13.6636 4.63194 13.6637 4.63194C13.6639 4.63194 13.6641 4.63194 13.6642 4.63194C13.6644 4.63194 13.6645 4.63194 13.6647 4.63194C13.6649 4.63194 13.665 4.63194 13.6652 4.63194C13.6654 4.63194 13.6655 4.63194 13.6657 4.63194C13.6658 4.63194 13.666 4.63194 13.6662 4.63194C13.6663 4.63194 13.6665 4.63194 13.6667 4.63194C13.6668 4.63194 13.667 4.63194 13.6671 4.63194C13.6673 4.63194 13.6675 4.63194 13.6676 4.63194C13.6678 4.63194 13.668 4.63194 13.6681 4.63194C13.6683 4.63194 13.6684 4.63194 13.6686 4.63194C13.6688 4.63194 13.6689 4.63194 13.6691 4.63194C13.6693 4.63194 13.6694 4.63194 13.6696 4.63194C13.6697 4.63194 13.6699 4.63194 13.6701 4.63194C13.6702 4.63194 13.6704 4.63194 13.6706 4.63194C13.6707 4.63194 13.6709 4.63194 13.6711 4.63194C13.6712 4.63194 13.6714 4.63194 13.6715 4.63194C13.6717 4.63194 13.6719 4.63194 13.672 4.63194C13.6722 4.63194 13.6724 4.63194 13.6725 4.63194C13.6727 4.63194 13.6728 4.63194 13.673 4.63194C13.6732 4.63194 13.6733 4.63194 13.6735 4.63194C13.6737 4.63194 13.6738 4.63194 13.674 4.63194C13.6741 4.63194 13.6743 4.63194 13.6745 4.63194C13.6746 4.63194 13.6748 4.63194 13.675 4.63194C13.6751 4.63194 13.6753 4.63194 13.6754 4.63194C13.6756 4.63194 13.6758 4.63194 13.6759 4.63194C13.6761 4.63194 13.6763 4.63194 13.6764 4.63194C13.6766 4.63194 13.6767 4.63194 13.6769 4.63194C13.6771 4.63194 13.6772 4.63194 13.6774 4.63194C13.6776 4.63194 13.6777 4.63194 13.6779 4.63194C13.6781 4.63194 13.6782 4.63194 13.6784 4.63194C13.6785 4.63194 13.6787 4.63194 13.6789 4.63194C13.679 4.63194 13.6792 4.63194 13.6794 4.63194C13.6795 4.63194 13.6797 4.63194 13.6798 4.63194C13.68 4.63194 13.6802 4.63194 13.6803 4.63194C13.6805 4.63194 13.6807 4.63194 13.6808 4.63194C13.681 4.63194 13.6811 4.63194 13.6813 4.63194C13.6815 4.63194 13.6816 4.63194 13.6818 4.63194C13.682 4.63194 13.6821 4.63194 13.6823 4.63194C13.6825 4.63194 13.6826 4.63194 13.6828 4.63194C13.6829 4.63194 13.6831 4.63194 13.6833 4.63194C13.6834 4.63194 13.6836 4.63194 13.6838 4.63194C13.6839 4.63194 13.6841 4.63194 13.6842 4.63194C13.6844 4.63194 13.6846 4.63194 13.6847 4.63194C13.6849 4.63194 13.6851 4.63194 13.6852 4.63194C13.6854 4.63194 13.6855 4.63194 13.6857 4.63194C13.6859 4.63194 13.686 4.63194 13.6862 4.63194C13.6864 4.63194 13.6865 4.63194 13.6867 4.63194C13.6869 4.63194 13.687 4.63194 13.6872 4.63194C13.6873 4.63194 13.6875 4.63194 13.6877 4.63194C13.6878 4.63194 13.688 4.63194 13.6882 4.63194C13.6883 4.63194 13.6885 4.63194 13.6886 4.63194C13.6888 4.63194 13.689 4.63194 13.6891 4.63194C13.6893 4.63194 13.6895 4.63194 13.6896 4.63194C13.6898 4.63194 13.69 4.63194 13.6901 4.63194C13.6903 4.63194 13.6904 4.63194 13.6906 4.63194C13.6908 4.63194 13.6909 4.63194 13.6911 4.63194C13.6913 4.63194 13.6914 4.63194 13.6916 4.63194C13.6917 4.63194 13.6919 4.63194 13.6921 4.63194C13.6922 4.63194 13.6924 4.63194 13.6926 4.63194C13.6927 4.63194 13.6929 4.63194 13.6931 4.63194C13.6932 4.63194 13.6934 4.63194 13.6935 4.63194C13.6937 4.63194 13.6939 4.63194 13.694 4.63194C13.6942 4.63194 13.6944 4.63194 13.6945 4.63194C13.6947 4.63194 13.6948 4.63194 13.695 4.63194C13.6952 4.63194 13.6953 4.63194 13.6955 4.63194C13.6957 4.63194 13.6958 4.63194 13.696 4.63194C13.6962 4.63194 13.6963 4.63194 13.6965 4.63194C13.6966 4.63194 13.6968 4.63194 13.697 4.63194C13.6971 4.63194 13.6973 4.63194 13.6975 4.63194C13.6976 4.63194 13.6978 4.63194 13.6979 4.63194C13.6981 4.63194 13.6983 4.63194 13.6984 4.63194C13.6986 4.63194 13.6988 4.63194 13.6989 4.63194C13.6991 4.63194 13.6993 4.63194 13.6994 4.63194C13.6996 4.63194 13.6997 4.63194 13.6999 4.63194C13.7001 4.63194 13.7002 4.63194 13.7004 4.63194C13.7006 4.63194 13.7007 4.63194 13.7009 4.63194C13.701 4.63194 13.7012 4.63194 13.7014 4.63194C13.7015 4.63194 13.7017 4.63194 13.7019 4.63194C13.702 4.63194 13.7022 4.63194 13.7024 4.63194C13.7025 4.63194 13.7027 4.63194 13.7028 4.63194C13.703 4.63194 13.7032 4.63194 13.7033 4.63194C13.7035 4.63194 13.7037 4.63194 13.7038 4.63194C13.704 4.63194 13.7041 4.63194 13.7043 4.63194C13.7045 4.63194 13.7046 4.63194 13.7048 4.63194C13.705 4.63194 13.7051 4.63194 13.7053 4.63194C13.7055 4.63194 13.7056 4.63194 13.7058 4.63194C13.7059 4.63194 13.7061 4.63194 13.7063 4.63194C13.7064 4.63194 13.7066 4.63194 13.7068 4.63194C13.7069 4.63194 13.7071 4.63194 13.7073 4.63194C13.7074 4.63194 13.7076 4.63194 13.7077 4.63194C13.7079 4.63194 13.7081 4.63194 13.7082 4.63194C13.7084 4.63194 13.7086 4.63194 13.7087 4.63194C13.7089 4.63194 13.709 4.63194 13.7092 4.63194V4.23194C13.709 4.23194 13.7089 4.23194 13.7087 4.23194C13.7086 4.23194 13.7084 4.23194 13.7082 4.23194C13.7081 4.23194 13.7079 4.23194 13.7077 4.23194C13.7076 4.23194 13.7074 4.23194 13.7073 4.23194C13.7071 4.23194 13.7069 4.23194 13.7068 4.23194C13.7066 4.23194 13.7064 4.23194 13.7063 4.23194C13.7061 4.23194 13.7059 4.23194 13.7058 4.23194C13.7056 4.23194 13.7055 4.23194 13.7053 4.23194C13.7051 4.23194 13.705 4.23194 13.7048 4.23194C13.7046 4.23194 13.7045 4.23194 13.7043 4.23194C13.7041 4.23194 13.704 4.23194 13.7038 4.23194C13.7037 4.23194 13.7035 4.23194 13.7033 4.23194C13.7032 4.23194 13.703 4.23194 13.7028 4.23194C13.7027 4.23194 13.7025 4.23194 13.7024 4.23194C13.7022 4.23194 13.702 4.23194 13.7019 4.23194C13.7017 4.23194 13.7015 4.23194 13.7014 4.23194C13.7012 4.23194 13.701 4.23194 13.7009 4.23194C13.7007 4.23194 13.7006 4.23194 13.7004 4.23194C13.7002 4.23194 13.7001 4.23194 13.6999 4.23194C13.6997 4.23194 13.6996 4.23194 13.6994 4.23194C13.6993 4.23194 13.6991 4.23194 13.6989 4.23194C13.6988 4.23194 13.6986 4.23194 13.6984 4.23194C13.6983 4.23194 13.6981 4.23194 13.6979 4.23194C13.6978 4.23194 13.6976 4.23194 13.6975 4.23194C13.6973 4.23194 13.6971 4.23194 13.697 4.23194C13.6968 4.23194 13.6966 4.23194 13.6965 4.23194C13.6963 4.23194 13.6962 4.23194 13.696 4.23194C13.6958 4.23194 13.6957 4.23194 13.6955 4.23194C13.6953 4.23194 13.6952 4.23194 13.695 4.23194C13.6948 4.23194 13.6947 4.23194 13.6945 4.23194C13.6944 4.23194 13.6942 4.23194 13.694 4.23194C13.6939 4.23194 13.6937 4.23194 13.6935 4.23194C13.6934 4.23194 13.6932 4.23194 13.6931 4.23194C13.6929 4.23194 13.6927 4.23194 13.6926 4.23194C13.6924 4.23194 13.6922 4.23194 13.6921 4.23194C13.6919 4.23194 13.6917 4.23194 13.6916 4.23194C13.6914 4.23194 13.6913 4.23194 13.6911 4.23194C13.6909 4.23194 13.6908 4.23194 13.6906 4.23194C13.6904 4.23194 13.6903 4.23194 13.6901 4.23194C13.69 4.23194 13.6898 4.23194 13.6896 4.23194C13.6895 4.23194 13.6893 4.23194 13.6891 4.23194C13.689 4.23194 13.6888 4.23194 13.6886 4.23194C13.6885 4.23194 13.6883 4.23194 13.6882 4.23194C13.688 4.23194 13.6878 4.23194 13.6877 4.23194C13.6875 4.23194 13.6873 4.23194 13.6872 4.23194C13.687 4.23194 13.6869 4.23194 13.6867 4.23194C13.6865 4.23194 13.6864 4.23194 13.6862 4.23194C13.686 4.23194 13.6859 4.23194 13.6857 4.23194C13.6855 4.23194 13.6854 4.23194 13.6852 4.23194C13.6851 4.23194 13.6849 4.23194 13.6847 4.23194C13.6846 4.23194 13.6844 4.23194 13.6842 4.23194C13.6841 4.23194 13.6839 4.23194 13.6838 4.23194C13.6836 4.23194 13.6834 4.23194 13.6833 4.23194C13.6831 4.23194 13.6829 4.23194 13.6828 4.23194C13.6826 4.23194 13.6825 4.23194 13.6823 4.23194C13.6821 4.23194 13.682 4.23194 13.6818 4.23194C13.6816 4.23194 13.6815 4.23194 13.6813 4.23194C13.6811 4.23194 13.681 4.23194 13.6808 4.23194C13.6807 4.23194 13.6805 4.23194 13.6803 4.23194C13.6802 4.23194 13.68 4.23194 13.6798 4.23194C13.6797 4.23194 13.6795 4.23194 13.6794 4.23194C13.6792 4.23194 13.679 4.23194 13.6789 4.23194C13.6787 4.23194 13.6785 4.23194 13.6784 4.23194C13.6782 4.23194 13.6781 4.23194 13.6779 4.23194C13.6777 4.23194 13.6776 4.23194 13.6774 4.23194C13.6772 4.23194 13.6771 4.23194 13.6769 4.23194C13.6767 4.23194 13.6766 4.23194 13.6764 4.23194C13.6763 4.23194 13.6761 4.23194 13.6759 4.23194C13.6758 4.23194 13.6756 4.23194 13.6754 4.23194C13.6753 4.23194 13.6751 4.23194 13.675 4.23194C13.6748 4.23194 13.6746 4.23194 13.6745 4.23194C13.6743 4.23194 13.6741 4.23194 13.674 4.23194C13.6738 4.23194 13.6737 4.23194 13.6735 4.23194C13.6733 4.23194 13.6732 4.23194 13.673 4.23194C13.6728 4.23194 13.6727 4.23194 13.6725 4.23194C13.6724 4.23194 13.6722 4.23194 13.672 4.23194C13.6719 4.23194 13.6717 4.23194 13.6715 4.23194C13.6714 4.23194 13.6712 4.23194 13.6711 4.23194C13.6709 4.23194 13.6707 4.23194 13.6706 4.23194C13.6704 4.23194 13.6702 4.23194 13.6701 4.23194C13.6699 4.23194 13.6697 4.23194 13.6696 4.23194C13.6694 4.23194 13.6693 4.23194 13.6691 4.23194C13.6689 4.23194 13.6688 4.23194 13.6686 4.23194C13.6684 4.23194 13.6683 4.23194 13.6681 4.23194C13.668 4.23194 13.6678 4.23194 13.6676 4.23194C13.6675 4.23194 13.6673 4.23194 13.6671 4.23194C13.667 4.23194 13.6668 4.23194 13.6667 4.23194C13.6665 4.23194 13.6663 4.23194 13.6662 4.23194C13.666 4.23194 13.6658 4.23194 13.6657 4.23194C13.6655 4.23194 13.6654 4.23194 13.6652 4.23194C13.665 4.23194 13.6649 4.23194 13.6647 4.23194C13.6645 4.23194 13.6644 4.23194 13.6642 4.23194C13.6641 4.23194 13.6639 4.23194 13.6637 4.23194C13.6636 4.23194 13.6634 4.23194 13.6632 4.23194C13.6631 4.23194 13.6629 4.23194 13.6628 4.23194C13.6626 4.23194 13.6624 4.23194 13.6623 4.23194C13.6621 4.23194 13.6619 4.23194 13.6618 4.23194C13.6616 4.23194 13.6614 4.23194 13.6613 4.23194C13.6611 4.23194 13.661 4.23194 13.6608 4.23194C13.6606 4.23194 13.6605 4.23194 13.6603 4.23194C13.6601 4.23194 13.66 4.23194 13.6598 4.23194C13.6597 4.23194 13.6595 4.23194 13.6593 4.23194C13.6592 4.23194 13.659 4.23194 13.6588 4.23194C13.6587 4.23194 13.6585 4.23194 13.6584 4.23194C13.6582 4.23194 13.658 4.23194 13.6579 4.23194C13.6577 4.23194 13.6575 4.23194 13.6574 4.23194C13.6572 4.23194 13.6571 4.23194 13.6569 4.23194C13.6567 4.23194 13.6566 4.23194 13.6564 4.23194C13.6562 4.23194 13.6561 4.23194 13.6559 4.23194C13.6558 4.23194 13.6556 4.23194 13.6554 4.23194C13.6553 4.23194 13.6551 4.23194 13.6549 4.23194C13.6548 4.23194 13.6546 4.23194 13.6545 4.23194C13.6543 4.23194 13.6541 4.23194 13.654 4.23194C13.6538 4.23194 13.6536 4.23194 13.6535 4.23194C13.6533 4.23194 13.6532 4.23194 13.653 4.23194C13.6528 4.23194 13.6527 4.23194 13.6525 4.23194C13.6523 4.23194 13.6522 4.23194 13.652 4.23194C13.6519 4.23194 13.6517 4.23194 13.6515 4.23194C13.6514 4.23194 13.6512 4.23194 13.651 4.23194C13.6509 4.23194 13.6507 4.23194 13.6506 4.23194C13.6504 4.23194 13.6502 4.23194 13.6501 4.23194C13.6499 4.23194 13.6497 4.23194 13.6496 4.23194C13.6494 4.23194 13.6493 4.23194 13.6491 4.23194C13.6489 4.23194 13.6488 4.23194 13.6486 4.23194C13.6484 4.23194 13.6483 4.23194 13.6481 4.23194C13.648 4.23194 13.6478 4.23194 13.6476 4.23194C13.6475 4.23194 13.6473 4.23194 13.6471 4.23194C13.647 4.23194 13.6468 4.23194 13.6467 4.23194C13.6465 4.23194 13.6463 4.23194 13.6462 4.23194C13.646 4.23194 13.6458 4.23194 13.6457 4.23194C13.6455 4.23194 13.6454 4.23194 13.6452 4.23194C13.645 4.23194 13.6449 4.23194 13.6447 4.23194C13.6445 4.23194 13.6444 4.23194 13.6442 4.23194C13.6441 4.23194 13.6439 4.23194 13.6437 4.23194C13.6436 4.23194 13.6434 4.23194 13.6432 4.23194C13.6431 4.23194 13.6429 4.23194 13.6428 4.23194C13.6426 4.23194 13.6424 4.23194 13.6423 4.23194C13.6421 4.23194 13.6419 4.23194 13.6418 4.23194C13.6416 4.23194 13.6415 4.23194 13.6413 4.23194C13.6411 4.23194 13.641 4.23194 13.6408 4.23194C13.6406 4.23194 13.6405 4.23194 13.6403 4.23194C13.6402 4.23194 13.64 4.23194 13.6398 4.23194C13.6397 4.23194 13.6395 4.23194 13.6393 4.23194C13.6392 4.23194 13.639 4.23194 13.6389 4.23194C13.6387 4.23194 13.6385 4.23194 13.6384 4.23194C13.6382 4.23194 13.638 4.23194 13.6379 4.23194C13.6377 4.23194 13.6376 4.23194 13.6374 4.23194C13.6372 4.23194 13.6371 4.23194 13.6369 4.23194C13.6367 4.23194 13.6366 4.23194 13.6364 4.23194C13.6363 4.23194 13.6361 4.23194 13.6359 4.23194C13.6358 4.23194 13.6356 4.23194 13.6354 4.23194C13.6353 4.23194 13.6351 4.23194 13.635 4.23194C13.6348 4.23194 13.6346 4.23194 13.6345 4.23194C13.6343 4.23194 13.6341 4.23194 13.634 4.23194C13.6338 4.23194 13.6337 4.23194 13.6335 4.23194C13.6333 4.23194 13.6332 4.23194 13.633 4.23194C13.6328 4.23194 13.6327 4.23194 13.6325 4.23194C13.6324 4.23194 13.6322 4.23194 13.632 4.23194C13.6319 4.23194 13.6317 4.23194 13.6316 4.23194C13.6314 4.23194 13.6312 4.23194 13.6311 4.23194C13.6309 4.23194 13.6307 4.23194 13.6306 4.23194C13.6304 4.23194 13.6303 4.23194 13.6301 4.23194C13.6299 4.23194 13.6298 4.23194 13.6296 4.23194C13.6294 4.23194 13.6293 4.23194 13.6291 4.23194C13.629 4.23194 13.6288 4.23194 13.6286 4.23194C13.6285 4.23194 13.6283 4.23194 13.6281 4.23194C13.628 4.23194 13.6278 4.23194 13.6277 4.23194C13.6275 4.23194 13.6273 4.23194 13.6272 4.23194C13.627 4.23194 13.6268 4.23194 13.6267 4.23194C13.6265 4.23194 13.6264 4.23194 13.6262 4.23194C13.626 4.23194 13.6259 4.23194 13.6257 4.23194C13.6255 4.23194 13.6254 4.23194 13.6252 4.23194C13.6251 4.23194 13.6249 4.23194 13.6247 4.23194C13.6246 4.23194 13.6244 4.23194 13.6242 4.23194C13.6241 4.23194 13.6239 4.23194 13.6238 4.23194C13.6236 4.23194 13.6234 4.23194 13.6233 4.23194C13.6231 4.23194 13.623 4.23194 13.6228 4.23194C13.6226 4.23194 13.6225 4.23194 13.6223 4.23194C13.6221 4.23194 13.622 4.23194 13.6218 4.23194C13.6217 4.23194 13.6215 4.23194 13.6213 4.23194C13.6212 4.23194 13.621 4.23194 13.6208 4.23194C13.6207 4.23194 13.6205 4.23194 13.6204 4.23194C13.6202 4.23194 13.62 4.23194 13.6199 4.23194C13.6197 4.23194 13.6195 4.23194 13.6194 4.23194C13.6192 4.23194 13.6191 4.23194 13.6189 4.23194C13.6187 4.23194 13.6186 4.23194 13.6184 4.23194C13.6182 4.23194 13.6181 4.23194 13.6179 4.23194C13.6178 4.23194 13.6176 4.23194 13.6174 4.23194C13.6173 4.23194 13.6171 4.23194 13.617 4.23194C13.6168 4.23194 13.6166 4.23194 13.6165 4.23194C13.6163 4.23194 13.6161 4.23194 13.616 4.23194C13.6158 4.23194 13.6157 4.23194 13.6155 4.23194C13.6153 4.23194 13.6152 4.23194 13.615 4.23194C13.6148 4.23194 13.6147 4.23194 13.6145 4.23194C13.6144 4.23194 13.6142 4.23194 13.614 4.23194C13.6139 4.23194 13.6137 4.23194 13.6135 4.23194C13.6134 4.23194 13.6132 4.23194 13.6131 4.23194C13.6129 4.23194 13.6127 4.23194 13.6126 4.23194C13.6124 4.23194 13.6122 4.23194 13.6121 4.23194C13.6119 4.23194 13.6118 4.23194 13.6116 4.23194C13.6114 4.23194 13.6113 4.23194 13.6111 4.23194C13.611 4.23194 13.6108 4.23194 13.6106 4.23194C13.6105 4.23194 13.6103 4.23194 13.6101 4.23194C13.61 4.23194 13.6098 4.23194 13.6097 4.23194C13.6095 4.23194 13.6093 4.23194 13.6092 4.23194C13.609 4.23194 13.6088 4.23194 13.6087 4.23194C13.6085 4.23194 13.6084 4.23194 13.6082 4.23194C13.608 4.23194 13.6079 4.23194 13.6077 4.23194C13.6075 4.23194 13.6074 4.23194 13.6072 4.23194C13.6071 4.23194 13.6069 4.23194 13.6067 4.23194C13.6066 4.23194 13.6064 4.23194 13.6063 4.23194C13.6061 4.23194 13.6059 4.23194 13.6058 4.23194C13.6056 4.23194 13.6054 4.23194 13.6053 4.23194C13.6051 4.23194 13.605 4.23194 13.6048 4.23194C13.6046 4.23194 13.6045 4.23194 13.6043 4.23194C13.6041 4.23194 13.604 4.23194 13.6038 4.23194C13.6037 4.23194 13.6035 4.23194 13.6033 4.23194C13.6032 4.23194 13.603 4.23194 13.6029 4.23194C13.6027 4.23194 13.6025 4.23194 13.6024 4.23194C13.6022 4.23194 13.602 4.23194 13.6019 4.23194C13.6017 4.23194 13.6016 4.23194 13.6014 4.23194C13.6012 4.23194 13.6011 4.23194 13.6009 4.23194C13.6007 4.23194 13.6006 4.23194 13.6004 4.23194C13.6003 4.23194 13.6001 4.23194 13.5999 4.23194C13.5998 4.23194 13.5996 4.23194 13.5994 4.23194C13.5993 4.23194 13.5991 4.23194 13.599 4.23194C13.5988 4.23194 13.5986 4.23194 13.5985 4.23194C13.5983 4.23194 13.5982 4.23194 13.598 4.23194C13.5978 4.23194 13.5977 4.23194 13.5975 4.23194C13.5973 4.23194 13.5972 4.23194 13.597 4.23194C13.5969 4.23194 13.5967 4.23194 13.5965 4.23194C13.5964 4.23194 13.5962 4.23194 13.596 4.23194C13.5959 4.23194 13.5957 4.23194 13.5956 4.23194C13.5954 4.23194 13.5952 4.23194 13.5951 4.23194C13.5949 4.23194 13.5948 4.23194 13.5946 4.23194C13.5944 4.23194 13.5943 4.23194 13.5941 4.23194C13.5939 4.23194 13.5938 4.23194 13.5936 4.23194C13.5935 4.23194 13.5933 4.23194 13.5931 4.23194C13.593 4.23194 13.5928 4.23194 13.5926 4.23194C13.5925 4.23194 13.5923 4.23194 13.5922 4.23194C13.592 4.23194 13.5918 4.23194 13.5917 4.23194C13.5915 4.23194 13.5914 4.23194 13.5912 4.23194C13.591 4.23194 13.5909 4.23194 13.5907 4.23194C13.5905 4.23194 13.5904 4.23194 13.5902 4.23194C13.5901 4.23194 13.5899 4.23194 13.5897 4.23194C13.5896 4.23194 13.5894 4.23194 13.5892 4.23194C13.5891 4.23194 13.5889 4.23194 13.5888 4.23194C13.5886 4.23194 13.5884 4.23194 13.5883 4.23194C13.5881 4.23194 13.588 4.23194 13.5878 4.23194C13.5876 4.23194 13.5875 4.23194 13.5873 4.23194C13.5871 4.23194 13.587 4.23194 13.5868 4.23194C13.5867 4.23194 13.5865 4.23194 13.5863 4.23194C13.5862 4.23194 13.586 4.23194 13.5858 4.23194C13.5857 4.23194 13.5855 4.23194 13.5854 4.23194C13.5852 4.23194 13.585 4.23194 13.5849 4.23194C13.5847 4.23194 13.5846 4.23194 13.5844 4.23194C13.5842 4.23194 13.5841 4.23194 13.5839 4.23194C13.5837 4.23194 13.5836 4.23194 13.5834 4.23194C13.5833 4.23194 13.5831 4.23194 13.5829 4.23194C13.5828 4.23194 13.5826 4.23194 13.5824 4.23194C13.5823 4.23194 13.5821 4.23194 13.582 4.23194C13.5818 4.23194 13.5816 4.23194 13.5815 4.23194C13.5813 4.23194 13.5812 4.23194 13.581 4.23194C13.5808 4.23194 13.5807 4.23194 13.5805 4.23194C13.5803 4.23194 13.5802 4.23194 13.58 4.23194C13.5799 4.23194 13.5797 4.23194 13.5795 4.23194C13.5794 4.23194 13.5792 4.23194 13.5791 4.23194C13.5789 4.23194 13.5787 4.23194 13.5786 4.23194C13.5784 4.23194 13.5782 4.23194 13.5781 4.23194C13.5779 4.23194 13.5778 4.23194 13.5776 4.23194C13.5774 4.23194 13.5773 4.23194 13.5771 4.23194C13.5769 4.23194 13.5768 4.23194 13.5766 4.23194C13.5765 4.23194 13.5763 4.23194 13.5761 4.23194C13.576 4.23194 13.5758 4.23194 13.5757 4.23194C13.5755 4.23194 13.5753 4.23194 13.5752 4.23194C13.575 4.23194 13.5748 4.23194 13.5747 4.23194C13.5745 4.23194 13.5744 4.23194 13.5742 4.23194C13.574 4.23194 13.5739 4.23194 13.5737 4.23194C13.5736 4.23194 13.5734 4.23194 13.5732 4.23194C13.5731 4.23194 13.5729 4.23194 13.5727 4.23194C13.5726 4.23194 13.5724 4.23194 13.5723 4.23194C13.5721 4.23194 13.5719 4.23194 13.5718 4.23194C13.5716 4.23194 13.5714 4.23194 13.5713 4.23194C13.5711 4.23194 13.571 4.23194 13.5708 4.23194C13.5706 4.23194 13.5705 4.23194 13.5703 4.23194C13.5702 4.23194 13.57 4.23194 13.5698 4.23194C13.5697 4.23194 13.5695 4.23194 13.5693 4.23194C13.5692 4.23194 13.569 4.23194 13.5689 4.23194C13.5687 4.23194 13.5685 4.23194 13.5684 4.23194C13.5682 4.23194 13.5681 4.23194 13.5679 4.23194C13.5677 4.23194 13.5676 4.23194 13.5674 4.23194C13.5672 4.23194 13.5671 4.23194 13.5669 4.23194C13.5668 4.23194 13.5666 4.23194 13.5664 4.23194C13.5663 4.23194 13.5661 4.23194 13.5659 4.23194C13.5658 4.23194 13.5656 4.23194 13.5655 4.23194C13.5653 4.23194 13.5651 4.23194 13.565 4.23194C13.5648 4.23194 13.5647 4.23194 13.5645 4.23194C13.5643 4.23194 13.5642 4.23194 13.564 4.23194C13.5638 4.23194 13.5637 4.23194 13.5635 4.23194C13.5634 4.23194 13.5632 4.23194 13.563 4.23194C13.5629 4.23194 13.5627 4.23194 13.5626 4.23194C13.5624 4.23194 13.5622 4.23194 13.5621 4.23194C13.5619 4.23194 13.5617 4.23194 13.5616 4.23194C13.5614 4.23194 13.5613 4.23194 13.5611 4.23194C13.5609 4.23194 13.5608 4.23194 13.5606 4.23194C13.5605 4.23194 13.5603 4.23194 13.5601 4.23194C13.56 4.23194 13.5598 4.23194 13.5596 4.23194C13.5595 4.23194 13.5593 4.23194 13.5592 4.23194C13.559 4.23194 13.5588 4.23194 13.5587 4.23194C13.5585 4.23194 13.5584 4.23194 13.5582 4.23194C13.558 4.23194 13.5579 4.23194 13.5577 4.23194C13.5575 4.23194 13.5574 4.23194 13.5572 4.23194C13.5571 4.23194 13.5569 4.23194 13.5567 4.23194C13.5566 4.23194 13.5564 4.23194 13.5562 4.23194C13.5561 4.23194 13.5559 4.23194 13.5558 4.23194C13.5556 4.23194 13.5554 4.23194 13.5553 4.23194C13.5551 4.23194 13.555 4.23194 13.5548 4.23194C13.5546 4.23194 13.5545 4.23194 13.5543 4.23194C13.5541 4.23194 13.554 4.23194 13.5538 4.23194C13.5537 4.23194 13.5535 4.23194 13.5533 4.23194C13.5532 4.23194 13.553 4.23194 13.5529 4.23194C13.5527 4.23194 13.5525 4.23194 13.5524 4.23194C13.5522 4.23194 13.552 4.23194 13.5519 4.23194C13.5517 4.23194 13.5516 4.23194 13.5514 4.23194C13.5512 4.23194 13.5511 4.23194 13.5509 4.23194C13.5508 4.23194 13.5506 4.23194 13.5504 4.23194C13.5503 4.23194 13.5501 4.23194 13.5499 4.23194C13.5498 4.23194 13.5496 4.23194 13.5495 4.23194C13.5493 4.23194 13.5491 4.23194 13.549 4.23194C13.5488 4.23194 13.5487 4.23194 13.5485 4.23194C13.5483 4.23194 13.5482 4.23194 13.548 4.23194C13.5478 4.23194 13.5477 4.23194 13.5475 4.23194C13.5474 4.23194 13.5472 4.23194 13.547 4.23194C13.5469 4.23194 13.5467 4.23194 13.5466 4.23194C13.5464 4.23194 13.5462 4.23194 13.5461 4.23194C13.5459 4.23194 13.5457 4.23194 13.5456 4.23194C13.5454 4.23194 13.5453 4.23194 13.5451 4.23194C13.5449 4.23194 13.5448 4.23194 13.5446 4.23194C13.5445 4.23194 13.5443 4.23194 13.5441 4.23194C13.544 4.23194 13.5438 4.23194 13.5436 4.23194C13.5435 4.23194 13.5433 4.23194 13.5432 4.23194C13.543 4.23194 13.5428 4.23194 13.5427 4.23194C13.5425 4.23194 13.5424 4.23194 13.5422 4.23194C13.542 4.23194 13.5419 4.23194 13.5417 4.23194C13.5415 4.23194 13.5414 4.23194 13.5412 4.23194C13.5411 4.23194 13.5409 4.23194 13.5407 4.23194C13.5406 4.23194 13.5404 4.23194 13.5403 4.23194C13.5401 4.23194 13.5399 4.23194 13.5398 4.23194C13.5396 4.23194 13.5394 4.23194 13.5393 4.23194C13.5391 4.23194 13.539 4.23194 13.5388 4.23194C13.5386 4.23194 13.5385 4.23194 13.5383 4.23194C13.5382 4.23194 13.538 4.23194 13.5378 4.23194C13.5377 4.23194 13.5375 4.23194 13.5373 4.23194C13.5372 4.23194 13.537 4.23194 13.5369 4.23194C13.5367 4.23194 13.5365 4.23194 13.5364 4.23194C13.5362 4.23194 13.5361 4.23194 13.5359 4.23194C13.5357 4.23194 13.5356 4.23194 13.5354 4.23194C13.5352 4.23194 13.5351 4.23194 13.5349 4.23194C13.5348 4.23194 13.5346 4.23194 13.5344 4.23194C13.5343 4.23194 13.5341 4.23194 13.534 4.23194C13.5338 4.23194 13.5336 4.23194 13.5335 4.23194C13.5333 4.23194 13.5331 4.23194 13.533 4.23194C13.5328 4.23194 13.5327 4.23194 13.5325 4.23194C13.5323 4.23194 13.5322 4.23194 13.532 4.23194C13.5319 4.23194 13.5317 4.23194 13.5315 4.23194C13.5314 4.23194 13.5312 4.23194 13.531 4.23194C13.5309 4.23194 13.5307 4.23194 13.5306 4.23194C13.5304 4.23194 13.5302 4.23194 13.5301 4.23194C13.5299 4.23194 13.5298 4.23194 13.5296 4.23194C13.5294 4.23194 13.5293 4.23194 13.5291 4.23194C13.5289 4.23194 13.5288 4.23194 13.5286 4.23194C13.5285 4.23194 13.5283 4.23194 13.5281 4.23194C13.528 4.23194 13.5278 4.23194 13.5277 4.23194C13.5275 4.23194 13.5273 4.23194 13.5272 4.23194C13.527 4.23194 13.5268 4.23194 13.5267 4.23194C13.5265 4.23194 13.5264 4.23194 13.5262 4.23194C13.526 4.23194 13.5259 4.23194 13.5257 4.23194C13.5256 4.23194 13.5254 4.23194 13.5252 4.23194C13.5251 4.23194 13.5249 4.23194 13.5247 4.23194C13.5246 4.23194 13.5244 4.23194 13.5243 4.23194C13.5241 4.23194 13.5239 4.23194 13.5238 4.23194C13.5236 4.23194 13.5235 4.23194 13.5233 4.23194C13.5231 4.23194 13.523 4.23194 13.5228 4.23194C13.5226 4.23194 13.5225 4.23194 13.5223 4.23194C13.5222 4.23194 13.522 4.23194 13.5218 4.23194C13.5217 4.23194 13.5215 4.23194 13.5214 4.23194C13.5212 4.23194 13.521 4.23194 13.5209 4.23194C13.5207 4.23194 13.5205 4.23194 13.5204 4.23194C13.5202 4.23194 13.5201 4.23194 13.5199 4.23194C13.5197 4.23194 13.5196 4.23194 13.5194 4.23194C13.5193 4.23194 13.5191 4.23194 13.5189 4.23194C13.5188 4.23194 13.5186 4.23194 13.5184 4.23194C13.5183 4.23194 13.5181 4.23194 13.518 4.23194C13.5178 4.23194 13.5176 4.23194 13.5175 4.23194C13.5173 4.23194 13.5172 4.23194 13.517 4.23194C13.5168 4.23194 13.5167 4.23194 13.5165 4.23194C13.5164 4.23194 13.5162 4.23194 13.516 4.23194C13.5159 4.23194 13.5157 4.23194 13.5155 4.23194C13.5154 4.23194 13.5152 4.23194 13.5151 4.23194C13.5149 4.23194 13.5147 4.23194 13.5146 4.23194C13.5144 4.23194 13.5143 4.23194 13.5141 4.23194C13.5139 4.23194 13.5138 4.23194 13.5136 4.23194C13.5134 4.23194 13.5133 4.23194 13.5131 4.23194C13.513 4.23194 13.5128 4.23194 13.5126 4.23194C13.5125 4.23194 13.5123 4.23194 13.5122 4.23194C13.512 4.23194 13.5118 4.23194 13.5117 4.23194C13.5115 4.23194 13.5113 4.23194 13.5112 4.23194C13.511 4.23194 13.5109 4.23194 13.5107 4.23194C13.5105 4.23194 13.5104 4.23194 13.5102 4.23194C13.5101 4.23194 13.5099 4.23194 13.5097 4.23194C13.5096 4.23194 13.5094 4.23194 13.5092 4.23194C13.5091 4.23194 13.5089 4.23194 13.5088 4.23194C13.5086 4.23194 13.5084 4.23194 13.5083 4.23194C13.5081 4.23194 13.508 4.23194 13.5078 4.23194C13.5076 4.23194 13.5075 4.23194 13.5073 4.23194C13.5071 4.23194 13.507 4.23194 13.5068 4.23194C13.5067 4.23194 13.5065 4.23194 13.5063 4.23194C13.5062 4.23194 13.506 4.23194 13.5059 4.23194C13.5057 4.23194 13.5055 4.23194 13.5054 4.23194C13.5052 4.23194 13.5051 4.23194 13.5049 4.23194C13.5047 4.23194 13.5046 4.23194 13.5044 4.23194C13.5042 4.23194 13.5041 4.23194 13.5039 4.23194C13.5038 4.23194 13.5036 4.23194 13.5034 4.23194C13.5033 4.23194 13.5031 4.23194 13.503 4.23194C13.5028 4.23194 13.5026 4.23194 13.5025 4.23194C13.5023 4.23194 13.5021 4.23194 13.502 4.23194C13.5018 4.23194 13.5017 4.23194 13.5015 4.23194C13.5013 4.23194 13.5012 4.23194 13.501 4.23194C13.5009 4.23194 13.5007 4.23194 13.5005 4.23194C13.5004 4.23194 13.5002 4.23194 13.5 4.23194C13.4999 4.23194 13.4997 4.23194 13.4996 4.23194C13.4994 4.23194 13.4992 4.23194 13.4991 4.23194C13.4989 4.23194 13.4988 4.23194 13.4986 4.23194C13.4984 4.23194 13.4983 4.23194 13.4981 4.23194C13.4979 4.23194 13.4978 4.23194 13.4976 4.23194C13.4975 4.23194 13.4973 4.23194 13.4971 4.23194C13.497 4.23194 13.4968 4.23194 13.4967 4.23194C13.4965 4.23194 13.4963 4.23194 13.4962 4.23194C13.496 4.23194 13.4959 4.23194 13.4957 4.23194C13.4955 4.23194 13.4954 4.23194 13.4952 4.23194C13.495 4.23194 13.4949 4.23194 13.4947 4.23194C13.4946 4.23194 13.4944 4.23194 13.4942 4.23194C13.4941 4.23194 13.4939 4.23194 13.4938 4.23194C13.4936 4.23194 13.4934 4.23194 13.4933 4.23194C13.4931 4.23194 13.4929 4.23194 13.4928 4.23194C13.4926 4.23194 13.4925 4.23194 13.4923 4.23194C13.4921 4.23194 13.492 4.23194 13.4918 4.23194C13.4917 4.23194 13.4915 4.23194 13.4913 4.23194C13.4912 4.23194 13.491 4.23194 13.4908 4.23194C13.4907 4.23194 13.4905 4.23194 13.4904 4.23194C13.4902 4.23194 13.49 4.23194 13.4899 4.23194C13.4897 4.23194 13.4896 4.23194 13.4894 4.23194C13.4892 4.23194 13.4891 4.23194 13.4889 4.23194C13.4888 4.23194 13.4886 4.23194 13.4884 4.23194C13.4883 4.23194 13.4881 4.23194 13.4879 4.23194C13.4878 4.23194 13.4876 4.23194 13.4875 4.23194C13.4873 4.23194 13.4871 4.23194 13.487 4.23194C13.4868 4.23194 13.4867 4.23194 13.4865 4.23194C13.4863 4.23194 13.4862 4.23194 13.486 4.23194C13.4858 4.23194 13.4857 4.23194 13.4855 4.23194C13.4854 4.23194 13.4852 4.23194 13.485 4.23194C13.4849 4.23194 13.4847 4.23194 13.4846 4.23194C13.4844 4.23194 13.4842 4.23194 13.4841 4.23194C13.4839 4.23194 13.4837 4.23194 13.4836 4.23194C13.4834 4.23194 13.4833 4.23194 13.4831 4.23194C13.4829 4.23194 13.4828 4.23194 13.4826 4.23194C13.4825 4.23194 13.4823 4.23194 13.4821 4.23194C13.482 4.23194 13.4818 4.23194 13.4817 4.23194C13.4815 4.23194 13.4813 4.23194 13.4812 4.23194C13.481 4.23194 13.4808 4.23194 13.4807 4.23194C13.4805 4.23194 13.4804 4.23194 13.4802 4.23194C13.48 4.23194 13.4799 4.23194 13.4797 4.23194C13.4796 4.23194 13.4794 4.23194 13.4792 4.23194C13.4791 4.23194 13.4789 4.23194 13.4787 4.23194C13.4786 4.23194 13.4784 4.23194 13.4783 4.23194C13.4781 4.23194 13.4779 4.23194 13.4778 4.23194C13.4776 4.23194 13.4775 4.23194 13.4773 4.23194C13.4771 4.23194 13.477 4.23194 13.4768 4.23194C13.4766 4.23194 13.4765 4.23194 13.4763 4.23194C13.4762 4.23194 13.476 4.23194 13.4758 4.23194C13.4757 4.23194 13.4755 4.23194 13.4754 4.23194C13.4752 4.23194 13.475 4.23194 13.4749 4.23194C13.4747 4.23194 13.4746 4.23194 13.4744 4.23194C13.4742 4.23194 13.4741 4.23194 13.4739 4.23194C13.4737 4.23194 13.4736 4.23194 13.4734 4.23194C13.4733 4.23194 13.4731 4.23194 13.4729 4.23194C13.4728 4.23194 13.4726 4.23194 13.4725 4.23194C13.4723 4.23194 13.4721 4.23194 13.472 4.23194C13.4718 4.23194 13.4716 4.23194 13.4715 4.23194C13.4713 4.23194 13.4712 4.23194 13.471 4.23194C13.4708 4.23194 13.4707 4.23194 13.4705 4.23194C13.4704 4.23194 13.4702 4.23194 13.47 4.23194C13.4699 4.23194 13.4697 4.23194 13.4696 4.23194C13.4694 4.23194 13.4692 4.23194 13.4691 4.23194C13.4689 4.23194 13.4687 4.23194 13.4686 4.23194C13.4684 4.23194 13.4683 4.23194 13.4681 4.23194C13.4679 4.23194 13.4678 4.23194 13.4676 4.23194C13.4675 4.23194 13.4673 4.23194 13.4671 4.23194C13.467 4.23194 13.4668 4.23194 13.4666 4.23194C13.4665 4.23194 13.4663 4.23194 13.4662 4.23194C13.466 4.23194 13.4658 4.23194 13.4657 4.23194C13.4655 4.23194 13.4654 4.23194 13.4652 4.23194C13.465 4.23194 13.4649 4.23194 13.4647 4.23194C13.4645 4.23194 13.4644 4.23194 13.4642 4.23194C13.4641 4.23194 13.4639 4.23194 13.4637 4.23194C13.4636 4.23194 13.4634 4.23194 13.4633 4.23194C13.4631 4.23194 13.4629 4.23194 13.4628 4.23194C13.4626 4.23194 13.4625 4.23194 13.4623 4.23194C13.4621 4.23194 13.462 4.23194 13.4618 4.23194C13.4616 4.23194 13.4615 4.23194 13.4613 4.23194C13.4612 4.23194 13.461 4.23194 13.4608 4.23194C13.4607 4.23194 13.4605 4.23194 13.4604 4.23194V4.63194ZM13.7049 4.63189C19.5194 4.75626 24.3638 9.597 24.4983 15.419L24.8982 15.4097C24.7587 9.37422 19.7423 4.36093 13.7135 4.23198L13.7049 4.63189ZM24.4983 15.4196C24.5401 17.0285 24.227 18.627 23.5813 20.101L23.9477 20.2615C24.617 18.7336 24.9415 17.0769 24.8982 15.4092L24.4983 15.4196ZM23.7645 20.3812H23.7697V19.9812H23.7645V20.3812Z" fill="#999999" mask="url(#path-1-outside-1_482_6945)"/>
</svg>
