<svg width="40" height="40" viewBox="0 0 40 40" fill="none" xmlns="http://www.w3.org/2000/svg">
<mask id="path-1-outside-1_482_6974" maskUnits="userSpaceOnUse" x="-0.0742188" y="0.00976562" width="40" height="40" fill="black">
<rect fill="white" x="-0.0742188" y="0.00976562" width="40" height="40"/>
<path d="M19.9621 1.00977C9.46608 1.00977 0.925781 9.54882 0.925781 20.0461C0.925781 30.5434 9.46608 39.0812 19.9621 39.0812C30.4581 39.0812 38.9972 30.5421 38.9972 20.0436C38.9972 9.5451 30.4581 1.00977 19.9621 1.00977ZM19.9621 37.6141C10.5465 37.6141 2.46625 30.0858 2.40408 20.0473C2.40359 19.8774 2.43658 19.709 2.50117 19.5518C2.56576 19.3945 2.66069 19.2516 2.78053 19.1311C2.90037 19.0105 3.04278 18.9148 3.19962 18.8493C3.35646 18.7838 3.52467 18.7498 3.69464 18.7493C3.86461 18.7488 4.033 18.7818 4.19022 18.8464C4.34743 18.911 4.49039 19.0059 4.61093 19.1258C4.73146 19.2456 4.82721 19.388 4.8927 19.5449C4.9582 19.7017 4.99216 19.8699 4.99265 20.0399V26.8296C4.99338 27.1931 5.0657 27.5528 5.20546 27.8883C5.34522 28.2238 5.5497 28.5285 5.80722 28.785C6.06473 29.0414 6.37025 29.2447 6.70631 29.3831C7.04237 29.5215 7.40241 29.5924 7.76586 29.5916C8.12931 29.5909 8.48905 29.5186 8.82455 29.3788C9.16005 29.239 9.46473 29.0346 9.7212 28.7771C9.97768 28.5195 10.1809 28.214 10.3193 27.878C10.4577 27.5419 10.5286 27.1819 10.5279 26.8184C10.5279 25.1238 13.1674 25.0865 13.1612 26.8184C13.1326 32.4979 12.8902 33.1481 13.9395 34.2C15.6665 35.9319 18.6641 34.7134 18.6641 32.2504V30.8828C18.6595 30.7087 18.6899 30.5355 18.7536 30.3734C18.8172 30.2113 18.9127 30.0636 19.0345 29.9392C19.1563 29.8147 19.3018 29.7159 19.4625 29.6487C19.6231 29.5816 19.7956 29.5473 19.9697 29.5481C20.1439 29.5488 20.3161 29.5846 20.4762 29.6531C20.6362 29.7217 20.7809 29.8217 20.9016 29.9472C21.0223 30.0727 21.1165 30.2212 21.1788 30.3838C21.241 30.5465 21.2699 30.72 21.2639 30.894C21.2639 31.628 21.5554 32.332 22.0745 32.851C22.5935 33.37 23.2974 33.6616 24.0315 33.6616C24.7655 33.6616 25.4694 33.37 25.9885 32.851C26.5075 32.332 26.7991 31.628 26.7991 30.894V26.8184C26.7945 26.6443 26.8249 26.4711 26.8885 26.309C26.9522 26.1469 27.0477 25.9993 27.1695 25.8748C27.2912 25.7503 27.4368 25.6515 27.5974 25.5844C27.7581 25.5172 27.9306 25.483 28.1047 25.4837C28.2789 25.4845 28.4511 25.5202 28.6111 25.5887C28.7712 25.6573 28.9159 25.7573 29.0366 25.8828C29.1573 26.0083 29.2515 26.1568 29.3138 26.3195C29.376 26.4821 29.4049 26.6556 29.3988 26.8296C29.3988 27.5636 29.6904 28.2676 30.2095 28.7866C30.7285 29.3056 31.4324 29.5972 32.1664 29.5972C32.9005 29.5972 33.6044 29.3056 34.1234 28.7866C34.6425 28.2676 34.9341 27.5636 34.9341 26.8296V22.7515C34.9341 21.3963 36.799 20.9376 37.3971 22.2032C36.3253 30.8766 28.914 37.6141 19.9621 37.6141ZM37.5251 20.3147C37.1043 20.0911 36.6327 19.9801 36.1563 19.9925C35.6799 20.0049 35.2148 20.1403 34.8061 20.3856C34.3975 20.6308 34.0592 20.9775 33.8241 21.3921C33.589 21.8067 33.4652 22.275 33.4645 22.7515V26.8296C33.4645 28.5329 30.8635 28.5553 30.8635 26.8184C30.8481 26.0947 30.5499 25.4058 30.0326 24.8994C29.5154 24.3931 28.8203 24.1095 28.0965 24.1095C27.3726 24.1095 26.6776 24.3931 26.1603 24.8994C25.6431 25.4058 25.3448 26.0947 25.3295 26.8184V30.8977C25.328 31.2426 25.1896 31.5728 24.9446 31.8157C24.6997 32.0585 24.3683 32.1941 24.0234 32.1926C23.6785 32.1911 23.3483 32.0527 23.1054 31.8078C22.8626 31.5628 22.727 31.2314 22.7285 30.8865C22.7131 30.1628 22.4149 29.474 21.8976 28.9676C21.3804 28.4612 20.6854 28.1776 19.9615 28.1776C19.2376 28.1776 18.5426 28.4612 18.0254 28.9676C17.5081 29.474 17.2098 30.1628 17.1945 30.8865V32.2542C17.1931 32.5102 17.116 32.7602 16.973 32.9726C16.83 33.185 16.6274 33.3504 16.3907 33.448C16.1539 33.5457 15.8937 33.5712 15.6425 33.5214C15.3913 33.4715 15.1605 33.3486 14.9789 33.168C14.8591 33.0476 14.7644 32.9046 14.7004 32.7473C14.6363 32.59 14.6042 32.4215 14.6059 32.2517C14.6345 26.5735 14.877 25.9232 13.8276 24.8701C12.1317 23.1705 9.06573 24.2945 9.06573 26.8309C9.06573 27.1758 8.92872 27.5066 8.68483 27.7504C8.44094 27.9943 8.11015 28.1314 7.76524 28.1314C7.42032 28.1314 7.08953 27.9943 6.84564 27.7504C6.60175 27.5066 6.46472 27.1758 6.46472 26.8309V20.0436C6.46462 19.5837 6.34953 19.1311 6.12993 18.727C5.91033 18.3228 5.59319 17.98 5.20734 17.7297C4.82149 17.4794 4.37919 17.3295 3.92065 17.2937C3.46212 17.2579 3.0019 17.3373 2.58186 17.5247C3.81026 9.02912 11.1371 2.4806 19.9671 2.4806C29.6898 2.47687 37.6731 10.449 37.5239 20.3147H37.5251ZM19.9621 13.2116C18.6096 13.2116 17.2875 13.6127 16.163 14.3641C15.0385 15.1155 14.162 16.1834 13.6444 17.433C13.1269 18.6825 12.9914 20.0574 13.2553 21.3839C13.5191 22.7104 14.1704 23.9288 15.1268 24.8852C16.0831 25.8415 17.3016 26.4928 18.628 26.7566C19.9545 27.0205 21.3295 26.8851 22.579 26.3675C23.8285 25.8499 24.8965 24.9735 25.6479 23.8489C26.3993 22.7244 26.8003 21.4023 26.8003 20.0498C26.8003 18.2362 26.0799 16.4969 24.7975 15.2145C23.515 13.9321 21.7757 13.2116 19.9621 13.2116ZM19.9621 25.4135C18.9006 25.4137 17.8628 25.0992 16.9801 24.5097C16.0973 23.9202 15.4092 23.0821 15.0027 22.1015C14.5962 21.121 14.4895 20.0418 14.6963 19.0007C14.9031 17.9595 15.4139 17.003 16.1642 16.2521C16.9146 15.5013 17.8707 14.9897 18.9118 14.7823C19.9528 14.5748 21.032 14.6806 22.0129 15.0865C22.9938 15.4923 23.8322 16.1799 24.4224 17.0622C25.0125 17.9446 25.3277 18.9821 25.3282 20.0436C25.3272 21.4668 24.7617 22.8315 23.7557 23.8383C22.7496 24.845 21.3853 25.4115 19.9621 25.4135ZM14.1434 5.81019C14.1434 5.71386 14.1624 5.61847 14.1993 5.52947C14.2361 5.44047 14.2902 5.35961 14.3583 5.29149C14.4264 5.22337 14.5073 5.16934 14.5963 5.13247C14.6852 5.09561 14.7806 5.07664 14.877 5.07664H16.2322C16.4267 5.07664 16.6133 5.15392 16.7509 5.29149C16.8884 5.42906 16.9657 5.61564 16.9657 5.81019C16.9657 6.73397 15.9251 6.54374 14.877 6.54374C14.7806 6.54374 14.6852 6.52477 14.5963 6.4879C14.5073 6.45104 14.4264 6.39701 14.3583 6.32889C14.2902 6.26077 14.2361 6.17991 14.1993 6.09091C14.1624 6.00191 14.1434 5.90652 14.1434 5.81019ZM30.1821 17.5334C30.1821 18.5827 30.3711 19.6221 29.4486 19.6221C28.526 19.6221 28.715 18.5802 28.715 17.5334C28.7175 16.5623 30.1846 16.5623 30.1846 17.5334H30.1821ZM22.6141 11.0346V9.67937C22.6141 8.70835 24.0812 8.70959 24.0812 9.67937C24.0812 10.7287 24.2702 11.7681 23.3476 11.7681C23.1535 11.7675 22.9676 11.6899 22.8306 11.5524C22.6935 11.4149 22.6166 11.2287 22.6166 11.0346H22.6141ZM28.8095 10.8754C28.7416 10.9438 28.6608 10.998 28.5718 11.035C28.4828 11.072 28.3874 11.0911 28.2911 11.0911C28.1947 11.0911 28.0993 11.072 28.0103 11.035C27.9213 10.998 27.8405 10.9438 27.7726 10.8754C27.1199 10.2227 27.9902 9.61969 28.7312 8.88614C28.7991 8.8178 28.8799 8.76356 28.9689 8.72655C29.0579 8.68955 29.1533 8.67049 29.2496 8.67049C29.346 8.67049 29.4414 8.68955 29.5304 8.72655C29.6194 8.76356 29.7002 8.8178 29.7681 8.88614C30.4246 9.53266 29.553 10.1344 28.812 10.8754H28.8095ZM20.319 4.12923C20.9717 3.47649 21.5734 4.34681 22.3144 5.08783C22.9995 5.77165 21.9614 6.80981 21.2775 6.12599C20.5353 5.38746 19.6662 4.78694 20.319 4.12923ZM32.8764 14.297L33.835 15.2556C34.5188 15.9407 33.4819 16.9776 32.7968 16.2938L31.8382 15.3352C31.1519 14.6539 32.1938 13.6169 32.8801 14.302L32.8764 14.297ZM13.8177 12.2257L12.8578 11.2671C12.1715 10.582 13.2109 9.5451 13.896 10.2302C14.642 10.9761 15.5123 11.5742 14.8546 12.2195C14.719 12.3578 14.534 12.4368 14.3403 12.4388C14.1466 12.4409 13.9599 12.3661 13.8214 12.2306L13.8177 12.2257ZM10.7865 19.3237C11.4728 20.01 10.4346 21.047 9.74956 20.3607C9.00357 19.6147 8.13326 19.0166 8.79097 18.3714C9.44868 17.7261 10.0492 18.5877 10.7902 19.3287L10.7865 19.3237ZM9.43128 12.2257C8.68529 12.9717 8.08726 13.842 7.44198 13.1855C6.7967 12.529 7.65955 11.9298 8.40057 11.1888C9.08439 10.5074 10.1201 11.5456 9.43499 12.2306L9.43128 12.2257Z"/>
</mask>
<path d="M19.9621 1.00977C9.46608 1.00977 0.925781 9.54882 0.925781 20.0461C0.925781 30.5434 9.46608 39.0812 19.9621 39.0812C30.4581 39.0812 38.9972 30.5421 38.9972 20.0436C38.9972 9.5451 30.4581 1.00977 19.9621 1.00977ZM19.9621 37.6141C10.5465 37.6141 2.46625 30.0858 2.40408 20.0473C2.40359 19.8774 2.43658 19.709 2.50117 19.5518C2.56576 19.3945 2.66069 19.2516 2.78053 19.1311C2.90037 19.0105 3.04278 18.9148 3.19962 18.8493C3.35646 18.7838 3.52467 18.7498 3.69464 18.7493C3.86461 18.7488 4.033 18.7818 4.19022 18.8464C4.34743 18.911 4.49039 19.0059 4.61093 19.1258C4.73146 19.2456 4.82721 19.388 4.8927 19.5449C4.9582 19.7017 4.99216 19.8699 4.99265 20.0399V26.8296C4.99338 27.1931 5.0657 27.5528 5.20546 27.8883C5.34522 28.2238 5.5497 28.5285 5.80722 28.785C6.06473 29.0414 6.37025 29.2447 6.70631 29.3831C7.04237 29.5215 7.40241 29.5924 7.76586 29.5916C8.12931 29.5909 8.48905 29.5186 8.82455 29.3788C9.16005 29.239 9.46473 29.0346 9.7212 28.7771C9.97768 28.5195 10.1809 28.214 10.3193 27.878C10.4577 27.5419 10.5286 27.1819 10.5279 26.8184C10.5279 25.1238 13.1674 25.0865 13.1612 26.8184C13.1326 32.4979 12.8902 33.1481 13.9395 34.2C15.6665 35.9319 18.6641 34.7134 18.6641 32.2504V30.8828C18.6595 30.7087 18.6899 30.5355 18.7536 30.3734C18.8172 30.2113 18.9127 30.0636 19.0345 29.9392C19.1563 29.8147 19.3018 29.7159 19.4625 29.6487C19.6231 29.5816 19.7956 29.5473 19.9697 29.5481C20.1439 29.5488 20.3161 29.5846 20.4762 29.6531C20.6362 29.7217 20.7809 29.8217 20.9016 29.9472C21.0223 30.0727 21.1165 30.2212 21.1788 30.3838C21.241 30.5465 21.2699 30.72 21.2639 30.894C21.2639 31.628 21.5554 32.332 22.0745 32.851C22.5935 33.37 23.2974 33.6616 24.0315 33.6616C24.7655 33.6616 25.4694 33.37 25.9885 32.851C26.5075 32.332 26.7991 31.628 26.7991 30.894V26.8184C26.7945 26.6443 26.8249 26.4711 26.8885 26.309C26.9522 26.1469 27.0477 25.9993 27.1695 25.8748C27.2912 25.7503 27.4368 25.6515 27.5974 25.5844C27.7581 25.5172 27.9306 25.483 28.1047 25.4837C28.2789 25.4845 28.4511 25.5202 28.6111 25.5887C28.7712 25.6573 28.9159 25.7573 29.0366 25.8828C29.1573 26.0083 29.2515 26.1568 29.3138 26.3195C29.376 26.4821 29.4049 26.6556 29.3988 26.8296C29.3988 27.5636 29.6904 28.2676 30.2095 28.7866C30.7285 29.3056 31.4324 29.5972 32.1664 29.5972C32.9005 29.5972 33.6044 29.3056 34.1234 28.7866C34.6425 28.2676 34.9341 27.5636 34.9341 26.8296V22.7515C34.9341 21.3963 36.799 20.9376 37.3971 22.2032C36.3253 30.8766 28.914 37.6141 19.9621 37.6141ZM37.5251 20.3147C37.1043 20.0911 36.6327 19.9801 36.1563 19.9925C35.6799 20.0049 35.2148 20.1403 34.8061 20.3856C34.3975 20.6308 34.0592 20.9775 33.8241 21.3921C33.589 21.8067 33.4652 22.275 33.4645 22.7515V26.8296C33.4645 28.5329 30.8635 28.5553 30.8635 26.8184C30.8481 26.0947 30.5499 25.4058 30.0326 24.8994C29.5154 24.3931 28.8203 24.1095 28.0965 24.1095C27.3726 24.1095 26.6776 24.3931 26.1603 24.8994C25.6431 25.4058 25.3448 26.0947 25.3295 26.8184V30.8977C25.328 31.2426 25.1896 31.5728 24.9446 31.8157C24.6997 32.0585 24.3683 32.1941 24.0234 32.1926C23.6785 32.1911 23.3483 32.0527 23.1054 31.8078C22.8626 31.5628 22.727 31.2314 22.7285 30.8865C22.7131 30.1628 22.4149 29.474 21.8976 28.9676C21.3804 28.4612 20.6854 28.1776 19.9615 28.1776C19.2376 28.1776 18.5426 28.4612 18.0254 28.9676C17.5081 29.474 17.2098 30.1628 17.1945 30.8865V32.2542C17.1931 32.5102 17.116 32.7602 16.973 32.9726C16.83 33.185 16.6274 33.3504 16.3907 33.448C16.1539 33.5457 15.8937 33.5712 15.6425 33.5214C15.3913 33.4715 15.1605 33.3486 14.9789 33.168C14.8591 33.0476 14.7644 32.9046 14.7004 32.7473C14.6363 32.59 14.6042 32.4215 14.6059 32.2517C14.6345 26.5735 14.877 25.9232 13.8276 24.8701C12.1317 23.1705 9.06573 24.2945 9.06573 26.8309C9.06573 27.1758 8.92872 27.5066 8.68483 27.7504C8.44094 27.9943 8.11015 28.1314 7.76524 28.1314C7.42032 28.1314 7.08953 27.9943 6.84564 27.7504C6.60175 27.5066 6.46472 27.1758 6.46472 26.8309V20.0436C6.46462 19.5837 6.34953 19.1311 6.12993 18.727C5.91033 18.3228 5.59319 17.98 5.20734 17.7297C4.82149 17.4794 4.37919 17.3295 3.92065 17.2937C3.46212 17.2579 3.0019 17.3373 2.58186 17.5247C3.81026 9.02912 11.1371 2.4806 19.9671 2.4806C29.6898 2.47687 37.6731 10.449 37.5239 20.3147H37.5251ZM19.9621 13.2116C18.6096 13.2116 17.2875 13.6127 16.163 14.3641C15.0385 15.1155 14.162 16.1834 13.6444 17.433C13.1269 18.6825 12.9914 20.0574 13.2553 21.3839C13.5191 22.7104 14.1704 23.9288 15.1268 24.8852C16.0831 25.8415 17.3016 26.4928 18.628 26.7566C19.9545 27.0205 21.3295 26.8851 22.579 26.3675C23.8285 25.8499 24.8965 24.9735 25.6479 23.8489C26.3993 22.7244 26.8003 21.4023 26.8003 20.0498C26.8003 18.2362 26.0799 16.4969 24.7975 15.2145C23.515 13.9321 21.7757 13.2116 19.9621 13.2116ZM19.9621 25.4135C18.9006 25.4137 17.8628 25.0992 16.9801 24.5097C16.0973 23.9202 15.4092 23.0821 15.0027 22.1015C14.5962 21.121 14.4895 20.0418 14.6963 19.0007C14.9031 17.9595 15.4139 17.003 16.1642 16.2521C16.9146 15.5013 17.8707 14.9897 18.9118 14.7823C19.9528 14.5748 21.032 14.6806 22.0129 15.0865C22.9938 15.4923 23.8322 16.1799 24.4224 17.0622C25.0125 17.9446 25.3277 18.9821 25.3282 20.0436C25.3272 21.4668 24.7617 22.8315 23.7557 23.8383C22.7496 24.845 21.3853 25.4115 19.9621 25.4135ZM14.1434 5.81019C14.1434 5.71386 14.1624 5.61847 14.1993 5.52947C14.2361 5.44047 14.2902 5.35961 14.3583 5.29149C14.4264 5.22337 14.5073 5.16934 14.5963 5.13247C14.6852 5.09561 14.7806 5.07664 14.877 5.07664H16.2322C16.4267 5.07664 16.6133 5.15392 16.7509 5.29149C16.8884 5.42906 16.9657 5.61564 16.9657 5.81019C16.9657 6.73397 15.9251 6.54374 14.877 6.54374C14.7806 6.54374 14.6852 6.52477 14.5963 6.4879C14.5073 6.45104 14.4264 6.39701 14.3583 6.32889C14.2902 6.26077 14.2361 6.17991 14.1993 6.09091C14.1624 6.00191 14.1434 5.90652 14.1434 5.81019ZM30.1821 17.5334C30.1821 18.5827 30.3711 19.6221 29.4486 19.6221C28.526 19.6221 28.715 18.5802 28.715 17.5334C28.7175 16.5623 30.1846 16.5623 30.1846 17.5334H30.1821ZM22.6141 11.0346V9.67937C22.6141 8.70835 24.0812 8.70959 24.0812 9.67937C24.0812 10.7287 24.2702 11.7681 23.3476 11.7681C23.1535 11.7675 22.9676 11.6899 22.8306 11.5524C22.6935 11.4149 22.6166 11.2287 22.6166 11.0346H22.6141ZM28.8095 10.8754C28.7416 10.9438 28.6608 10.998 28.5718 11.035C28.4828 11.072 28.3874 11.0911 28.2911 11.0911C28.1947 11.0911 28.0993 11.072 28.0103 11.035C27.9213 10.998 27.8405 10.9438 27.7726 10.8754C27.1199 10.2227 27.9902 9.61969 28.7312 8.88614C28.7991 8.8178 28.8799 8.76356 28.9689 8.72655C29.0579 8.68955 29.1533 8.67049 29.2496 8.67049C29.346 8.67049 29.4414 8.68955 29.5304 8.72655C29.6194 8.76356 29.7002 8.8178 29.7681 8.88614C30.4246 9.53266 29.553 10.1344 28.812 10.8754H28.8095ZM20.319 4.12923C20.9717 3.47649 21.5734 4.34681 22.3144 5.08783C22.9995 5.77165 21.9614 6.80981 21.2775 6.12599C20.5353 5.38746 19.6662 4.78694 20.319 4.12923ZM32.8764 14.297L33.835 15.2556C34.5188 15.9407 33.4819 16.9776 32.7968 16.2938L31.8382 15.3352C31.1519 14.6539 32.1938 13.6169 32.8801 14.302L32.8764 14.297ZM13.8177 12.2257L12.8578 11.2671C12.1715 10.582 13.2109 9.5451 13.896 10.2302C14.642 10.9761 15.5123 11.5742 14.8546 12.2195C14.719 12.3578 14.534 12.4368 14.3403 12.4388C14.1466 12.4409 13.9599 12.3661 13.8214 12.2306L13.8177 12.2257ZM10.7865 19.3237C11.4728 20.01 10.4346 21.047 9.74956 20.3607C9.00357 19.6147 8.13326 19.0166 8.79097 18.3714C9.44868 17.7261 10.0492 18.5877 10.7902 19.3287L10.7865 19.3237ZM9.43128 12.2257C8.68529 12.9717 8.08726 13.842 7.44198 13.1855C6.7967 12.529 7.65955 11.9298 8.40057 11.1888C9.08439 10.5074 10.1201 11.5456 9.43499 12.2306L9.43128 12.2257Z" fill="#999999"/>
<path d="M19.9621 1.00977C9.46608 1.00977 0.925781 9.54882 0.925781 20.0461C0.925781 30.5434 9.46608 39.0812 19.9621 39.0812C30.4581 39.0812 38.9972 30.5421 38.9972 20.0436C38.9972 9.5451 30.4581 1.00977 19.9621 1.00977ZM19.9621 37.6141C10.5465 37.6141 2.46625 30.0858 2.40408 20.0473C2.40359 19.8774 2.43658 19.709 2.50117 19.5518C2.56576 19.3945 2.66069 19.2516 2.78053 19.1311C2.90037 19.0105 3.04278 18.9148 3.19962 18.8493C3.35646 18.7838 3.52467 18.7498 3.69464 18.7493C3.86461 18.7488 4.033 18.7818 4.19022 18.8464C4.34743 18.911 4.49039 19.0059 4.61093 19.1258C4.73146 19.2456 4.82721 19.388 4.8927 19.5449C4.9582 19.7017 4.99216 19.8699 4.99265 20.0399V26.8296C4.99338 27.1931 5.0657 27.5528 5.20546 27.8883C5.34522 28.2238 5.5497 28.5285 5.80722 28.785C6.06473 29.0414 6.37025 29.2447 6.70631 29.3831C7.04237 29.5215 7.40241 29.5924 7.76586 29.5916C8.12931 29.5909 8.48905 29.5186 8.82455 29.3788C9.16005 29.239 9.46473 29.0346 9.7212 28.7771C9.97768 28.5195 10.1809 28.214 10.3193 27.878C10.4577 27.5419 10.5286 27.1819 10.5279 26.8184C10.5279 25.1238 13.1674 25.0865 13.1612 26.8184C13.1326 32.4979 12.8902 33.1481 13.9395 34.2C15.6665 35.9319 18.6641 34.7134 18.6641 32.2504V30.8828C18.6595 30.7087 18.6899 30.5355 18.7536 30.3734C18.8172 30.2113 18.9127 30.0636 19.0345 29.9392C19.1563 29.8147 19.3018 29.7159 19.4625 29.6487C19.6231 29.5816 19.7956 29.5473 19.9697 29.5481C20.1439 29.5488 20.3161 29.5846 20.4762 29.6531C20.6362 29.7217 20.7809 29.8217 20.9016 29.9472C21.0223 30.0727 21.1165 30.2212 21.1788 30.3838C21.241 30.5465 21.2699 30.72 21.2639 30.894C21.2639 31.628 21.5554 32.332 22.0745 32.851C22.5935 33.37 23.2974 33.6616 24.0315 33.6616C24.7655 33.6616 25.4694 33.37 25.9885 32.851C26.5075 32.332 26.7991 31.628 26.7991 30.894V26.8184C26.7945 26.6443 26.8249 26.4711 26.8885 26.309C26.9522 26.1469 27.0477 25.9993 27.1695 25.8748C27.2912 25.7503 27.4368 25.6515 27.5974 25.5844C27.7581 25.5172 27.9306 25.483 28.1047 25.4837C28.2789 25.4845 28.4511 25.5202 28.6111 25.5887C28.7712 25.6573 28.9159 25.7573 29.0366 25.8828C29.1573 26.0083 29.2515 26.1568 29.3138 26.3195C29.376 26.4821 29.4049 26.6556 29.3988 26.8296C29.3988 27.5636 29.6904 28.2676 30.2095 28.7866C30.7285 29.3056 31.4324 29.5972 32.1664 29.5972C32.9005 29.5972 33.6044 29.3056 34.1234 28.7866C34.6425 28.2676 34.9341 27.5636 34.9341 26.8296V22.7515C34.9341 21.3963 36.799 20.9376 37.3971 22.2032C36.3253 30.8766 28.914 37.6141 19.9621 37.6141ZM37.5251 20.3147C37.1043 20.0911 36.6327 19.9801 36.1563 19.9925C35.6799 20.0049 35.2148 20.1403 34.8061 20.3856C34.3975 20.6308 34.0592 20.9775 33.8241 21.3921C33.589 21.8067 33.4652 22.275 33.4645 22.7515V26.8296C33.4645 28.5329 30.8635 28.5553 30.8635 26.8184C30.8481 26.0947 30.5499 25.4058 30.0326 24.8994C29.5154 24.3931 28.8203 24.1095 28.0965 24.1095C27.3726 24.1095 26.6776 24.3931 26.1603 24.8994C25.6431 25.4058 25.3448 26.0947 25.3295 26.8184V30.8977C25.328 31.2426 25.1896 31.5728 24.9446 31.8157C24.6997 32.0585 24.3683 32.1941 24.0234 32.1926C23.6785 32.1911 23.3483 32.0527 23.1054 31.8078C22.8626 31.5628 22.727 31.2314 22.7285 30.8865C22.7131 30.1628 22.4149 29.474 21.8976 28.9676C21.3804 28.4612 20.6854 28.1776 19.9615 28.1776C19.2376 28.1776 18.5426 28.4612 18.0254 28.9676C17.5081 29.474 17.2098 30.1628 17.1945 30.8865V32.2542C17.1931 32.5102 17.116 32.7602 16.973 32.9726C16.83 33.185 16.6274 33.3504 16.3907 33.448C16.1539 33.5457 15.8937 33.5712 15.6425 33.5214C15.3913 33.4715 15.1605 33.3486 14.9789 33.168C14.8591 33.0476 14.7644 32.9046 14.7004 32.7473C14.6363 32.59 14.6042 32.4215 14.6059 32.2517C14.6345 26.5735 14.877 25.9232 13.8276 24.8701C12.1317 23.1705 9.06573 24.2945 9.06573 26.8309C9.06573 27.1758 8.92872 27.5066 8.68483 27.7504C8.44094 27.9943 8.11015 28.1314 7.76524 28.1314C7.42032 28.1314 7.08953 27.9943 6.84564 27.7504C6.60175 27.5066 6.46472 27.1758 6.46472 26.8309V20.0436C6.46462 19.5837 6.34953 19.1311 6.12993 18.727C5.91033 18.3228 5.59319 17.98 5.20734 17.7297C4.82149 17.4794 4.37919 17.3295 3.92065 17.2937C3.46212 17.2579 3.0019 17.3373 2.58186 17.5247C3.81026 9.02912 11.1371 2.4806 19.9671 2.4806C29.6898 2.47687 37.6731 10.449 37.5239 20.3147H37.5251ZM19.9621 13.2116C18.6096 13.2116 17.2875 13.6127 16.163 14.3641C15.0385 15.1155 14.162 16.1834 13.6444 17.433C13.1269 18.6825 12.9914 20.0574 13.2553 21.3839C13.5191 22.7104 14.1704 23.9288 15.1268 24.8852C16.0831 25.8415 17.3016 26.4928 18.628 26.7566C19.9545 27.0205 21.3295 26.8851 22.579 26.3675C23.8285 25.8499 24.8965 24.9735 25.6479 23.8489C26.3993 22.7244 26.8003 21.4023 26.8003 20.0498C26.8003 18.2362 26.0799 16.4969 24.7975 15.2145C23.515 13.9321 21.7757 13.2116 19.9621 13.2116ZM19.9621 25.4135C18.9006 25.4137 17.8628 25.0992 16.9801 24.5097C16.0973 23.9202 15.4092 23.0821 15.0027 22.1015C14.5962 21.121 14.4895 20.0418 14.6963 19.0007C14.9031 17.9595 15.4139 17.003 16.1642 16.2521C16.9146 15.5013 17.8707 14.9897 18.9118 14.7823C19.9528 14.5748 21.032 14.6806 22.0129 15.0865C22.9938 15.4923 23.8322 16.1799 24.4224 17.0622C25.0125 17.9446 25.3277 18.9821 25.3282 20.0436C25.3272 21.4668 24.7617 22.8315 23.7557 23.8383C22.7496 24.845 21.3853 25.4115 19.9621 25.4135ZM14.1434 5.81019C14.1434 5.71386 14.1624 5.61847 14.1993 5.52947C14.2361 5.44047 14.2902 5.35961 14.3583 5.29149C14.4264 5.22337 14.5073 5.16934 14.5963 5.13247C14.6852 5.09561 14.7806 5.07664 14.877 5.07664H16.2322C16.4267 5.07664 16.6133 5.15392 16.7509 5.29149C16.8884 5.42906 16.9657 5.61564 16.9657 5.81019C16.9657 6.73397 15.9251 6.54374 14.877 6.54374C14.7806 6.54374 14.6852 6.52477 14.5963 6.4879C14.5073 6.45104 14.4264 6.39701 14.3583 6.32889C14.2902 6.26077 14.2361 6.17991 14.1993 6.09091C14.1624 6.00191 14.1434 5.90652 14.1434 5.81019ZM30.1821 17.5334C30.1821 18.5827 30.3711 19.6221 29.4486 19.6221C28.526 19.6221 28.715 18.5802 28.715 17.5334C28.7175 16.5623 30.1846 16.5623 30.1846 17.5334H30.1821ZM22.6141 11.0346V9.67937C22.6141 8.70835 24.0812 8.70959 24.0812 9.67937C24.0812 10.7287 24.2702 11.7681 23.3476 11.7681C23.1535 11.7675 22.9676 11.6899 22.8306 11.5524C22.6935 11.4149 22.6166 11.2287 22.6166 11.0346H22.6141ZM28.8095 10.8754C28.7416 10.9438 28.6608 10.998 28.5718 11.035C28.4828 11.072 28.3874 11.0911 28.2911 11.0911C28.1947 11.0911 28.0993 11.072 28.0103 11.035C27.9213 10.998 27.8405 10.9438 27.7726 10.8754C27.1199 10.2227 27.9902 9.61969 28.7312 8.88614C28.7991 8.8178 28.8799 8.76356 28.9689 8.72655C29.0579 8.68955 29.1533 8.67049 29.2496 8.67049C29.346 8.67049 29.4414 8.68955 29.5304 8.72655C29.6194 8.76356 29.7002 8.8178 29.7681 8.88614C30.4246 9.53266 29.553 10.1344 28.812 10.8754H28.8095ZM20.319 4.12923C20.9717 3.47649 21.5734 4.34681 22.3144 5.08783C22.9995 5.77165 21.9614 6.80981 21.2775 6.12599C20.5353 5.38746 19.6662 4.78694 20.319 4.12923ZM32.8764 14.297L33.835 15.2556C34.5188 15.9407 33.4819 16.9776 32.7968 16.2938L31.8382 15.3352C31.1519 14.6539 32.1938 13.6169 32.8801 14.302L32.8764 14.297ZM13.8177 12.2257L12.8578 11.2671C12.1715 10.582 13.2109 9.5451 13.896 10.2302C14.642 10.9761 15.5123 11.5742 14.8546 12.2195C14.719 12.3578 14.534 12.4368 14.3403 12.4388C14.1466 12.4409 13.9599 12.3661 13.8214 12.2306L13.8177 12.2257ZM10.7865 19.3237C11.4728 20.01 10.4346 21.047 9.74956 20.3607C9.00357 19.6147 8.13326 19.0166 8.79097 18.3714C9.44868 17.7261 10.0492 18.5877 10.7902 19.3287L10.7865 19.3237ZM9.43128 12.2257C8.68529 12.9717 8.08726 13.842 7.44198 13.1855C6.7967 12.529 7.65955 11.9298 8.40057 11.1888C9.08439 10.5074 10.1201 11.5456 9.43499 12.2306L9.43128 12.2257Z" stroke="#999999" stroke-width="0.2" mask="url(#path-1-outside-1_482_6974)"/>
</svg>
