<svg width="47" height="22" viewBox="0 0 47 22" fill="none" xmlns="http://www.w3.org/2000/svg">
<path d="M22.9853 20.3195L22.9853 20.2933L45.6183 20.2933C45.7957 20.2933 45.9658 20.2065 46.0912 20.0521C46.2167 19.8977 46.2871 19.6882 46.2871 19.4699L46.2871 2.38742C46.2871 2.16903 46.2167 1.95959 46.0912 1.80516C45.9658 1.65074 45.7957 1.56398 45.6183 1.56398L22.9853 1.56398L22.9853 1.53778C22.9853 1.31939 22.9149 1.10995 22.7895 0.955525C22.664 0.801102 22.4939 0.714354 22.3165 0.714354L13.8288 0.714354C13.6517 0.71485 13.482 0.801818 13.3569 0.956188C13.2318 1.11056 13.1615 1.31971 13.1615 1.53778L13.1615 2.80849L8.81276 2.80849C7.88555 2.80849 7.35051 4.07732 7.04194 5.67178L0.788624 5.67178L0.788624 7.31864L6.80634 7.31864C6.5834 9.71685 6.5834 12.1385 6.80634 14.5368L0.788623 14.5368L0.788623 16.1836L7.04194 16.1836C7.34594 17.78 7.88707 19.0488 8.81276 19.0488L13.1539 19.0488L13.1539 20.3195C13.1539 20.5376 13.2242 20.7467 13.3493 20.9011C13.4744 21.0555 13.6441 21.1424 13.8212 21.1429L22.3165 21.1429C22.4939 21.1429 22.664 21.0562 22.7895 20.9018C22.9149 20.7473 22.9853 20.5379 22.9853 20.3195ZM11.5549 17.4019C11.4029 16.7675 11.2417 15.115 11.1901 12.5755L9.84941 12.5755C9.88741 14.9466 10.0136 16.4512 10.1838 17.4019L8.85988 17.4019C8.54068 17.0838 7.97675 14.9391 7.97675 10.9286C7.97675 6.92189 8.54068 4.77723 8.85988 4.45908L10.1838 4.45908C10.0136 5.40977 9.87981 6.91441 9.84941 9.28552L11.1901 9.28552C11.2417 6.74411 11.4074 5.09163 11.5549 4.45908L13.1539 4.45908L13.1539 17.4057L11.5549 17.4019ZM14.4991 2.36121L21.6432 2.36121L21.6432 19.4961L14.4991 19.4961L14.4991 2.36121ZM30.1355 3.21084L30.1355 18.6464L22.9914 18.6464L22.9914 3.21084L30.1355 3.21084ZM44.9495 3.21084L44.9495 5.26942L37.6534 5.26942C37.6095 5.26917 37.5659 5.27966 37.5252 5.30026C37.4846 5.32086 37.4476 5.35118 37.4165 5.38946C37.3854 5.42774 37.3608 5.47323 37.3441 5.52329C37.3274 5.57336 37.3188 5.627 37.319 5.68114L37.319 16.1761C37.319 16.2302 37.3277 16.2837 37.3445 16.3337C37.3613 16.3836 37.3859 16.429 37.417 16.4673C37.448 16.5055 37.4849 16.5358 37.5255 16.5565C37.566 16.5772 37.6095 16.5879 37.6534 16.5879L44.9495 16.5879L44.9495 18.6464L31.4731 18.6464L31.4731 3.21084L44.9495 3.21084ZM44.9495 7.88943L38.985 7.88943L38.985 8.71286L44.9495 8.71286L44.9495 10.5132L38.985 10.5132L38.985 11.3366L44.9495 11.3366L44.9495 13.1369L38.985 13.1369L38.985 13.9604L44.9495 13.9604L44.9495 15.7607L37.9818 15.7607L37.9818 6.09285L44.9495 6.09285L44.9495 7.88943Z" fill="#07364A"/>
</svg>
