<svg width="50" height="33" viewBox="0 0 50 33" fill="none" xmlns="http://www.w3.org/2000/svg">
<path d="M4.27734 12.3788V3.14307C4.27734 2.0385 5.17277 1.14307 6.27734 1.14307H29.8466C30.9512 1.14307 31.8466 2.0385 31.8466 3.14307V23.6574C31.8466 24.7619 30.9512 25.6574 29.8466 25.6574H24.699" stroke="#999999" stroke-width="2" stroke-miterlimit="10"/>
<path d="M20.6557 14.4214H3.21289C2.10832 14.4214 1.21289 15.3168 1.21289 16.4214V29.7857C1.21289 30.8902 2.10832 31.7857 3.21289 31.7857H20.6557C21.7602 31.7857 22.6557 30.8902 22.6557 29.7857V16.4214C22.6557 15.3168 21.7602 14.4214 20.6557 14.4214Z" stroke="#999999" stroke-width="2" stroke-miterlimit="10"/>
<path d="M15.5089 14.4214H8.36133V18.5071H15.5089V14.4214Z" stroke="#999999" stroke-width="2" stroke-miterlimit="10"/>
<path d="M4.27734 27.7002H6.3202" stroke="#999999" stroke-width="2" stroke-miterlimit="10"/>
<path d="M8.36133 27.7002H10.4042" stroke="#999999" stroke-width="2" stroke-miterlimit="10"/>
<path d="M31.8477 7.27151H39.9551C40.2887 7.26987 40.6176 7.35001 40.9131 7.50492C41.2086 7.65983 41.4616 7.8848 41.6501 8.16015L45.1218 14.4215H46.1428C46.4301 14.4199 46.7144 14.479 46.9772 14.5948C47.2401 14.7106 47.4756 14.8805 47.6683 15.0936C47.861 15.3066 48.0067 15.5579 48.0957 15.8311C48.1847 16.1043 48.2152 16.3931 48.185 16.6789V23.6144C48.185 24.1562 47.9699 24.6758 47.5869 25.0589C47.2039 25.442 46.6845 25.6572 46.1428 25.6572H44.1007" stroke="#999999" stroke-width="2" stroke-miterlimit="10" stroke-linecap="round"/>
<path d="M44.1023 26.679C44.1023 27.4871 43.8627 28.277 43.4139 28.9489C42.9651 29.6208 42.3273 30.1444 41.5809 30.4537C40.8346 30.7629 40.0134 30.8438 39.2211 30.6862C38.4288 30.5285 37.7011 30.1394 37.1299 29.568C36.5587 28.9966 36.1697 28.2686 36.0121 27.4761C35.8545 26.6835 35.9354 25.862 36.2445 25.1154C36.5536 24.3689 37.0771 23.7308 37.7488 23.2818C38.4205 22.8329 39.2101 22.5933 40.0179 22.5933C41.1012 22.5933 42.14 23.0237 42.906 23.7899C43.672 24.5562 44.1023 25.5954 44.1023 26.679Z" stroke="#999999" stroke-width="2" stroke-miterlimit="10"/>
<path d="M31.8477 25.6572H35.932" stroke="#999999" stroke-width="2" stroke-miterlimit="10" stroke-linecap="round"/>
<path d="M34.9141 15.4431H41.0406V14.4217L39.2901 11.3574" stroke="#999999" stroke-width="2" stroke-miterlimit="10" stroke-linecap="round"/>
</svg>
