<svg width="54" height="40" viewBox="0 0 54 40" fill="none" xmlns="http://www.w3.org/2000/svg">
<path d="M0.661526 40H52.6718C52.8473 40 53.0155 39.9308 53.1396 39.8076C53.2636 39.6845 53.3333 39.5174 53.3333 39.3433C53.3333 39.1691 53.2636 39.002 53.1396 38.8789C53.0155 38.7557 52.8473 38.6866 52.6718 38.6866H0.661526C0.48608 38.6866 0.317816 38.7557 0.193757 38.8789C0.0696974 39.002 0 39.1691 0 39.3433C0 39.5174 0.0696974 39.6845 0.193757 39.8076C0.317816 39.9308 0.48608 40 0.661526 40Z" fill="#999999"/>
<path d="M9.95237 36.8748C10.1276 36.8748 10.2958 36.8058 10.4198 36.6828C10.5438 36.5599 10.6136 36.3931 10.6139 36.2191V5.64536L29.5203 1.47375V36.2191C29.5203 36.3933 29.59 36.5603 29.7141 36.6835C29.8381 36.8066 30.0064 36.8758 30.1819 36.8758C30.3573 36.8758 30.5255 36.8066 30.6496 36.6835C30.7737 36.5603 30.8434 36.3933 30.8434 36.2191V1.6234L37.164 4.11239V18.5767C37.1606 18.665 37.1751 18.7531 37.2068 18.8357C37.2385 18.9183 37.2866 18.9937 37.3483 19.0574C37.41 19.1211 37.4841 19.1717 37.566 19.2063C37.6479 19.2409 37.736 19.2588 37.8251 19.2588C37.9141 19.2588 38.0022 19.2409 38.0841 19.2063C38.166 19.1717 38.2401 19.1211 38.3018 19.0574C38.3635 18.9937 38.4116 18.9183 38.4433 18.8357C38.475 18.7531 38.4895 18.665 38.4861 18.5767V3.66638C38.486 3.53485 38.4461 3.40637 38.3717 3.29756C38.2972 3.18874 38.1916 3.10458 38.0685 3.05595L30.4258 0.0461256C30.3025 -0.00222208 30.1675 -0.0128513 30.038 0.0156043L9.80559 4.47963C9.65882 4.51189 9.52752 4.5929 9.43339 4.70926C9.33926 4.82561 9.28793 4.97036 9.28788 5.1196V36.2191C9.28801 36.3055 9.30531 36.3911 9.3388 36.4708C9.37229 36.5506 9.42131 36.623 9.48304 36.6839C9.54477 36.7448 9.618 36.793 9.69854 36.8258C9.77908 36.8586 9.86533 36.8752 9.95237 36.8748Z" fill="#999999"/>
<path d="M27.235 6.34743C27.1994 6.17695 27.0971 6.02745 26.9506 5.93181C26.804 5.83617 26.6252 5.80223 26.4534 5.83743L13.0703 8.58634C12.9101 8.61944 12.7679 8.71032 12.6713 8.8414C12.5746 8.97249 12.5303 9.13448 12.547 9.29607C12.5636 9.45767 12.64 9.60742 12.7614 9.71637C12.8828 9.82532 13.0405 9.88574 13.2042 9.88597C13.2495 9.88572 13.2946 9.8811 13.339 9.87218L26.7222 7.12229C26.8937 7.087 27.044 6.98555 27.1402 6.84025C27.2363 6.69494 27.2704 6.51768 27.235 6.34743Z" fill="#999999"/>
<path d="M27.2381 11.3707C27.2227 11.2858 27.1906 11.2047 27.1436 11.1322C27.0966 11.0596 27.0357 10.9969 26.9643 10.9477C26.8929 10.8985 26.8125 10.8638 26.7276 10.8455C26.6427 10.8272 26.555 10.8256 26.4695 10.841L13.0863 13.2325C12.9233 13.2608 12.7769 13.3489 12.6761 13.4793C12.5754 13.6098 12.5277 13.773 12.5424 13.9366C12.5571 14.1003 12.6332 14.2526 12.7556 14.3632C12.878 14.4738 13.0378 14.5348 13.2033 14.5341C13.2429 14.5342 13.2824 14.5309 13.3214 14.5242L26.7045 12.1327C26.877 12.1018 27.0301 12.0042 27.1301 11.8613C27.2302 11.7184 27.269 11.5419 27.2381 11.3707Z" fill="#999999"/>
<path d="M27.2434 16.5811C27.2188 16.4087 27.1264 16.2531 26.9864 16.1483C26.8464 16.0434 26.6702 15.998 26.4966 16.0218L13.1134 17.8768C12.9483 17.9007 12.7985 17.9856 12.6938 18.1145C12.5892 18.2434 12.5374 18.4068 12.5489 18.572C12.5605 18.7372 12.6344 18.892 12.756 19.0053C12.8776 19.1186 13.0378 19.1822 13.2046 19.1833C13.2355 19.1832 13.2663 19.1812 13.2969 19.1774L26.68 17.3224C26.8538 17.2983 27.0107 17.2066 27.1164 17.0676C27.222 16.9285 27.2677 16.7535 27.2434 16.5811Z" fill="#999999"/>
<path d="M13.2041 23.8324C13.2276 23.8338 13.2511 23.8338 13.2745 23.8324L26.6577 22.4245C26.8284 22.4016 26.9834 22.3136 27.0897 22.1791C27.1961 22.0446 27.2454 21.8742 27.2272 21.7042C27.2089 21.5342 27.1247 21.3779 26.9922 21.2686C26.8597 21.1593 26.6896 21.1056 26.5179 21.1189L13.1347 22.5269C12.9668 22.5452 12.8123 22.6266 12.7029 22.7544C12.5935 22.8822 12.5375 23.0467 12.5464 23.2142C12.5552 23.3816 12.6283 23.5394 12.7506 23.6551C12.8729 23.7708 13.0352 23.8356 13.2041 23.8363V23.8324Z" fill="#999999"/>
<path d="M13.2046 28.4817H13.2532L26.6364 27.5198C26.8088 27.5036 26.968 27.4209 27.0797 27.2894C27.1915 27.158 27.2468 26.9882 27.2338 26.8167C27.2208 26.6452 27.1405 26.4856 27.0103 26.3722C26.88 26.2589 26.7102 26.2007 26.5372 26.2103L13.154 27.1722C12.9838 27.1853 12.8253 27.2632 12.7116 27.3897C12.5979 27.5161 12.5378 27.6812 12.544 27.8506C12.5501 28.02 12.622 28.1804 12.7446 28.2984C12.8671 28.4164 13.0309 28.4828 13.2016 28.4837L13.2046 28.4817Z" fill="#999999"/>
<path d="M13.206 32.7281L26.5891 32.7045C26.76 32.6979 26.9217 32.6259 27.0403 32.5035C27.1588 32.3812 27.2251 32.218 27.2251 32.0483C27.2251 31.8785 27.1588 31.7153 27.0403 31.593C26.9217 31.4706 26.76 31.3986 26.5891 31.392L13.206 31.4157C13.0351 31.4222 12.8734 31.4943 12.7549 31.6166C12.6363 31.7389 12.5701 31.9021 12.5701 32.0719C12.5701 32.2417 12.6363 32.4048 12.7549 32.5272C12.8734 32.6495 13.0351 32.7215 13.206 32.7281Z" fill="#999999"/>
<path d="M33.7557 29.8785C33.7573 30.8352 34.1006 31.7602 34.7246 32.4893C35.3486 33.2183 36.2127 33.704 37.1635 33.8601V36.2231C37.1701 36.3927 37.2426 36.5532 37.3659 36.6709C37.4891 36.7886 37.6535 36.8544 37.8245 36.8544C37.9955 36.8544 38.1599 36.7886 38.2831 36.6709C38.4064 36.5532 38.4789 36.3927 38.4855 36.2231V33.8601C39.4364 33.7042 40.3008 33.2186 40.925 32.4895C41.5492 31.7605 41.8926 30.8353 41.8943 29.8785C41.8943 27.233 40.5058 21.0322 37.828 21.0322C35.1501 21.0322 33.7557 27.233 33.7557 29.8785ZM40.5712 29.8785C40.5782 30.241 40.5123 30.6012 40.3773 30.938C40.2424 31.2749 40.0412 31.5816 39.7855 31.8404C39.5297 32.0991 39.2246 32.3047 38.8879 32.445C38.5512 32.5853 38.1897 32.6576 37.8245 32.6576C37.4593 32.6576 37.0978 32.5853 36.7611 32.445C36.4244 32.3047 36.1193 32.0991 35.8635 31.8404C35.6078 31.5816 35.4066 31.2749 35.2716 30.938C35.1367 30.6012 35.0708 30.241 35.0777 29.8785C35.0777 26.7102 36.6646 22.3446 37.825 22.3446C38.9854 22.3446 40.5712 26.7151 40.5712 29.8785Z" fill="#999999"/>
<path d="M42.4067 33.6877C42.7785 33.842 43.1689 33.9476 43.5681 34.0018V36.2191C43.5747 36.3887 43.6472 36.5492 43.7705 36.6669C43.8937 36.7846 44.0581 36.8503 44.2291 36.8503C44.4001 36.8503 44.5645 36.7846 44.6877 36.6669C44.811 36.5492 44.8835 36.3887 44.8901 36.2191V34.0008C45.5278 33.9112 46.14 33.6919 46.6884 33.3567C47.2369 33.0215 47.7097 32.5776 48.0775 32.0527C48.4452 31.5278 48.6999 30.9332 48.8257 30.3062C48.9515 29.6791 48.9455 29.0331 48.8083 28.4084C48.6711 27.7837 48.4056 27.1938 48.0283 26.6757C47.651 26.1575 47.1701 25.7222 46.6156 25.3969C46.0611 25.0717 45.445 24.8634 44.8058 24.7853C44.1666 24.7072 43.518 24.7608 42.9006 24.9428C42.7358 24.995 42.5982 25.1092 42.5172 25.261C42.4362 25.4127 42.4183 25.5899 42.4674 25.7546C42.5164 25.9192 42.6284 26.0583 42.7795 26.1419C42.9305 26.2256 43.1086 26.2472 43.2755 26.2021C43.7919 26.0514 44.3372 26.0261 44.8656 26.1282C45.3939 26.2303 45.8899 26.4569 46.3116 26.7889C46.7334 27.121 47.0686 27.5487 47.2892 28.0361C47.5098 28.5235 47.6092 29.0564 47.5791 29.5899C47.549 30.1234 47.3903 30.642 47.1163 31.1019C46.8423 31.5619 46.461 31.9497 46.0046 32.2329C45.5481 32.5161 45.0298 32.6864 44.4933 32.7293C43.9568 32.7722 43.4177 32.6866 42.9214 32.4797C42.8409 32.4425 42.7536 32.4218 42.6648 32.4189C42.576 32.4159 42.4876 32.4307 42.4047 32.4624C42.3218 32.4942 42.2462 32.5421 42.1823 32.6035C42.1185 32.6648 42.0678 32.7383 42.0332 32.8195C41.9987 32.9008 41.9809 32.9881 41.9811 33.0763C41.9812 33.1645 41.9992 33.2517 42.0341 33.3328C42.069 33.4139 42.1199 33.4873 42.1839 33.5484C42.2479 33.6096 42.3237 33.6563 42.4067 33.6877Z" fill="#999999"/>
</svg>
