<svg width="39" height="39" viewBox="0 0 39 39" fill="none" xmlns="http://www.w3.org/2000/svg">
<mask id="path-1-outside-1_563_2487" maskUnits="userSpaceOnUse" x="0" y="0" width="39" height="39" fill="black">
<rect fill="white" width="39" height="39"/>
<path d="M37.5921 1.91246L37.4116 1.89442C25.5003 0.70186 13.4997 0.70186 1.58839 1.89442L1.4079 1.91246C1.29651 1.9232 1.19308 1.97493 1.11771 2.05762C1.04233 2.1403 1.00038 2.24803 1 2.35989V15.8876C1.00713 15.9566 1.02289 16.0245 1.04693 16.0897L4.61697 23.227C4.66228 25.4179 5.1809 27.5731 6.13729 29.5449C7.09368 31.5167 8.46523 33.2585 10.1579 34.651L10.1868 34.6799C12.8123 36.8336 16.1036 38.0107 19.5 38.0107C22.8964 38.0107 26.1877 36.8336 28.8132 34.6799L28.8421 34.651C30.5316 33.2613 31.9012 31.5235 32.8575 29.5563C33.8137 27.5891 34.3341 25.4388 34.383 23.2522L37.9531 16.1149C37.9771 16.0498 37.9929 15.9819 38 15.9129V2.35989C37.9996 2.24803 37.9577 2.1403 37.8823 2.05762C37.8069 1.97493 37.7035 1.9232 37.5921 1.91246ZM1.90244 5.48472C13.6059 4.33367 25.3941 4.33367 37.0976 5.48472V15.3536C34.9822 14.9386 32.9066 14.5994 30.9249 14.3504C23.3374 13.4087 15.6626 13.4087 8.07512 14.3504C6.09337 14.5994 4.01415 14.9386 1.90244 15.3536V5.48472ZM37.0976 2.76764V4.57181C25.3939 3.42435 13.6061 3.42435 1.90244 4.57181V2.76764C13.6058 1.61477 25.3942 1.61477 37.0976 2.76764ZM5.51941 23.4651C5.97424 23.3497 9.3241 22.6641 10.0244 22.5486V33.287C7.30998 30.7176 5.69559 27.1978 5.51941 23.4651ZM10.934 22.4151C16.6188 21.5782 22.3956 21.5782 28.0804 22.4151V34.0953C25.6458 36.0387 22.6228 37.0973 19.5072 37.0973C16.3916 37.0973 13.3686 36.0387 10.934 34.0953V22.4151ZM28.9828 33.287V22.5522C29.6326 22.6569 32.9139 23.3316 33.4878 23.4723C33.3081 27.2046 31.6912 30.7228 28.9756 33.2907L28.9828 33.287ZM33.7044 22.5847C33.1016 22.4367 29.416 21.6862 28.6002 21.5671C22.574 20.6362 16.4405 20.6362 10.4142 21.5671C9.50819 21.7042 5.75405 22.4837 5.31727 22.5991L2.12624 16.2232C4.20546 15.8154 6.24498 15.5015 8.19064 15.2417C15.7063 14.3108 23.3082 14.3108 30.8238 15.2417C32.7695 15.4871 34.7945 15.8154 36.8882 16.2232L33.7044 22.5847Z"/>
<path d="M19.5004 24.4683C18.6968 24.4683 17.9112 24.7066 17.2431 25.1532C16.5751 25.5997 16.0546 26.2343 15.7475 26.9767C15.4405 27.7191 15.3607 28.5359 15.5183 29.3236C15.6759 30.1113 16.0637 30.8346 16.6327 31.4019C17.2017 31.9692 17.9264 32.3549 18.7148 32.5104C19.5033 32.6658 20.3201 32.5838 21.062 32.2749C21.8039 31.966 22.4373 31.444 22.8823 30.775C23.3272 30.1061 23.5635 29.3202 23.5614 28.5168C23.5566 27.4427 23.1269 26.414 22.366 25.6555C21.6052 24.897 20.575 24.4702 19.5004 24.4683ZM19.5004 31.685C18.8757 31.685 18.265 31.4998 17.7456 31.1529C17.2262 30.8059 16.8214 30.3128 16.5823 29.7359C16.3432 29.159 16.2807 28.5242 16.4026 27.9117C16.5244 27.2992 16.8253 26.7367 17.267 26.2951C17.7087 25.8535 18.2715 25.5528 18.8842 25.431C19.4969 25.3092 20.132 25.3717 20.7091 25.6107C21.2863 25.8497 21.7796 26.2543 22.1266 26.7736C22.4737 27.2928 22.659 27.9032 22.659 28.5277C22.657 29.3644 22.3237 30.1664 21.7317 30.7581C21.1398 31.3498 20.3375 31.683 19.5004 31.685Z"/>
<path d="M19.5006 22.6641C18.34 22.6641 17.2055 23.0082 16.2406 23.653C15.2757 24.2978 14.5239 25.2142 14.0802 26.2862C13.6366 27.3583 13.5211 28.5378 13.7483 29.6755C13.9755 30.8133 14.5352 31.858 15.3567 32.6776C16.1781 33.4972 17.2243 34.0548 18.3629 34.2798C19.5015 34.5049 20.6812 34.3872 21.7529 33.9417C22.8245 33.4963 23.7399 32.743 24.3832 31.7774C25.0264 30.8117 25.3686 29.677 25.3665 28.5168C25.3617 26.9642 24.7418 25.4766 23.6425 24.3797C22.5431 23.2829 21.0539 22.666 19.5006 22.6641ZM19.5006 33.4891C18.5194 33.4891 17.5602 33.1984 16.7442 32.6537C15.9282 32.109 15.292 31.3348 14.9161 30.4288C14.5401 29.5228 14.4412 28.5258 14.6318 27.5637C14.8224 26.6015 15.2941 25.7175 15.9871 25.0232C16.6802 24.3289 17.5636 23.8555 18.5257 23.6628C19.4878 23.4701 20.4854 23.5669 21.3925 23.9407C22.2997 24.3146 23.0756 24.9488 23.6223 25.7633C24.169 26.5778 24.4619 27.536 24.464 28.5168C24.465 29.834 23.9427 31.0976 23.012 32.03C22.0813 32.9624 20.8183 33.4872 19.5006 33.4891Z"/>
<path d="M19.5002 26.2725C18.9019 26.2725 18.328 26.5101 17.9049 26.933C17.4818 27.3559 17.2441 27.9296 17.2441 28.5277C17.2441 28.6473 17.2917 28.762 17.3763 28.8466C17.4609 28.9312 17.5757 28.9787 17.6954 28.9787C17.815 28.9787 17.9298 28.9312 18.0144 28.8466C18.099 28.762 18.1466 28.6473 18.1466 28.5277C18.1466 28.1688 18.2892 27.8246 18.5431 27.5709C18.7969 27.3171 19.1412 27.1745 19.5002 27.1745C19.6199 27.1745 19.7347 27.127 19.8193 27.0424C19.9039 26.9579 19.9515 26.8431 19.9515 26.7235C19.9515 26.6039 19.9039 26.4892 19.8193 26.4046C19.7347 26.32 19.6199 26.2725 19.5002 26.2725Z"/>
</mask>
<path d="M37.5921 1.91246L37.4116 1.89442C25.5003 0.70186 13.4997 0.70186 1.58839 1.89442L1.4079 1.91246C1.29651 1.9232 1.19308 1.97493 1.11771 2.05762C1.04233 2.1403 1.00038 2.24803 1 2.35989V15.8876C1.00713 15.9566 1.02289 16.0245 1.04693 16.0897L4.61697 23.227C4.66228 25.4179 5.1809 27.5731 6.13729 29.5449C7.09368 31.5167 8.46523 33.2585 10.1579 34.651L10.1868 34.6799C12.8123 36.8336 16.1036 38.0107 19.5 38.0107C22.8964 38.0107 26.1877 36.8336 28.8132 34.6799L28.8421 34.651C30.5316 33.2613 31.9012 31.5235 32.8575 29.5563C33.8137 27.5891 34.3341 25.4388 34.383 23.2522L37.9531 16.1149C37.9771 16.0498 37.9929 15.9819 38 15.9129V2.35989C37.9996 2.24803 37.9577 2.1403 37.8823 2.05762C37.8069 1.97493 37.7035 1.9232 37.5921 1.91246ZM1.90244 5.48472C13.6059 4.33367 25.3941 4.33367 37.0976 5.48472V15.3536C34.9822 14.9386 32.9066 14.5994 30.9249 14.3504C23.3374 13.4087 15.6626 13.4087 8.07512 14.3504C6.09337 14.5994 4.01415 14.9386 1.90244 15.3536V5.48472ZM37.0976 2.76764V4.57181C25.3939 3.42435 13.6061 3.42435 1.90244 4.57181V2.76764C13.6058 1.61477 25.3942 1.61477 37.0976 2.76764ZM5.51941 23.4651C5.97424 23.3497 9.3241 22.6641 10.0244 22.5486V33.287C7.30998 30.7176 5.69559 27.1978 5.51941 23.4651ZM10.934 22.4151C16.6188 21.5782 22.3956 21.5782 28.0804 22.4151V34.0953C25.6458 36.0387 22.6228 37.0973 19.5072 37.0973C16.3916 37.0973 13.3686 36.0387 10.934 34.0953V22.4151ZM28.9828 33.287V22.5522C29.6326 22.6569 32.9139 23.3316 33.4878 23.4723C33.3081 27.2046 31.6912 30.7228 28.9756 33.2907L28.9828 33.287ZM33.7044 22.5847C33.1016 22.4367 29.416 21.6862 28.6002 21.5671C22.574 20.6362 16.4405 20.6362 10.4142 21.5671C9.50819 21.7042 5.75405 22.4837 5.31727 22.5991L2.12624 16.2232C4.20546 15.8154 6.24498 15.5015 8.19064 15.2417C15.7063 14.3108 23.3082 14.3108 30.8238 15.2417C32.7695 15.4871 34.7945 15.8154 36.8882 16.2232L33.7044 22.5847Z" fill="#999999"/>
<path d="M19.5004 24.4683C18.6968 24.4683 17.9112 24.7066 17.2431 25.1532C16.5751 25.5997 16.0546 26.2343 15.7475 26.9767C15.4405 27.7191 15.3607 28.5359 15.5183 29.3236C15.6759 30.1113 16.0637 30.8346 16.6327 31.4019C17.2017 31.9692 17.9264 32.3549 18.7148 32.5104C19.5033 32.6658 20.3201 32.5838 21.062 32.2749C21.8039 31.966 22.4373 31.444 22.8823 30.775C23.3272 30.1061 23.5635 29.3202 23.5614 28.5168C23.5566 27.4427 23.1269 26.414 22.366 25.6555C21.6052 24.897 20.575 24.4702 19.5004 24.4683ZM19.5004 31.685C18.8757 31.685 18.265 31.4998 17.7456 31.1529C17.2262 30.8059 16.8214 30.3128 16.5823 29.7359C16.3432 29.159 16.2807 28.5242 16.4026 27.9117C16.5244 27.2992 16.8253 26.7367 17.267 26.2951C17.7087 25.8535 18.2715 25.5528 18.8842 25.431C19.4969 25.3092 20.132 25.3717 20.7091 25.6107C21.2863 25.8497 21.7796 26.2543 22.1266 26.7736C22.4737 27.2928 22.659 27.9032 22.659 28.5277C22.657 29.3644 22.3237 30.1664 21.7317 30.7581C21.1398 31.3498 20.3375 31.683 19.5004 31.685Z" fill="#999999"/>
<path d="M19.5006 22.6641C18.34 22.6641 17.2055 23.0082 16.2406 23.653C15.2757 24.2978 14.5239 25.2142 14.0802 26.2862C13.6366 27.3583 13.5211 28.5378 13.7483 29.6755C13.9755 30.8133 14.5352 31.858 15.3567 32.6776C16.1781 33.4972 17.2243 34.0548 18.3629 34.2798C19.5015 34.5049 20.6812 34.3872 21.7529 33.9417C22.8245 33.4963 23.7399 32.743 24.3832 31.7774C25.0264 30.8117 25.3686 29.677 25.3665 28.5168C25.3617 26.9642 24.7418 25.4766 23.6425 24.3797C22.5431 23.2829 21.0539 22.666 19.5006 22.6641ZM19.5006 33.4891C18.5194 33.4891 17.5602 33.1984 16.7442 32.6537C15.9282 32.109 15.292 31.3348 14.9161 30.4288C14.5401 29.5228 14.4412 28.5258 14.6318 27.5637C14.8224 26.6015 15.2941 25.7175 15.9871 25.0232C16.6802 24.3289 17.5636 23.8555 18.5257 23.6628C19.4878 23.4701 20.4854 23.5669 21.3925 23.9407C22.2997 24.3146 23.0756 24.9488 23.6223 25.7633C24.169 26.5778 24.4619 27.536 24.464 28.5168C24.465 29.834 23.9427 31.0976 23.012 32.03C22.0813 32.9624 20.8183 33.4872 19.5006 33.4891Z" fill="#999999"/>
<path d="M19.5002 26.2725C18.9019 26.2725 18.328 26.5101 17.9049 26.933C17.4818 27.3559 17.2441 27.9296 17.2441 28.5277C17.2441 28.6473 17.2917 28.762 17.3763 28.8466C17.4609 28.9312 17.5757 28.9787 17.6954 28.9787C17.815 28.9787 17.9298 28.9312 18.0144 28.8466C18.099 28.762 18.1466 28.6473 18.1466 28.5277C18.1466 28.1688 18.2892 27.8246 18.5431 27.5709C18.7969 27.3171 19.1412 27.1745 19.5002 27.1745C19.6199 27.1745 19.7347 27.127 19.8193 27.0424C19.9039 26.9579 19.9515 26.8431 19.9515 26.7235C19.9515 26.6039 19.9039 26.4892 19.8193 26.4046C19.7347 26.32 19.6199 26.2725 19.5002 26.2725Z" fill="#999999"/>
<path d="M37.5921 1.91246L37.4116 1.89442C25.5003 0.70186 13.4997 0.70186 1.58839 1.89442L1.4079 1.91246C1.29651 1.9232 1.19308 1.97493 1.11771 2.05762C1.04233 2.1403 1.00038 2.24803 1 2.35989V15.8876C1.00713 15.9566 1.02289 16.0245 1.04693 16.0897L4.61697 23.227C4.66228 25.4179 5.1809 27.5731 6.13729 29.5449C7.09368 31.5167 8.46523 33.2585 10.1579 34.651L10.1868 34.6799C12.8123 36.8336 16.1036 38.0107 19.5 38.0107C22.8964 38.0107 26.1877 36.8336 28.8132 34.6799L28.8421 34.651C30.5316 33.2613 31.9012 31.5235 32.8575 29.5563C33.8137 27.5891 34.3341 25.4388 34.383 23.2522L37.9531 16.1149C37.9771 16.0498 37.9929 15.9819 38 15.9129V2.35989C37.9996 2.24803 37.9577 2.1403 37.8823 2.05762C37.8069 1.97493 37.7035 1.9232 37.5921 1.91246ZM1.90244 5.48472C13.6059 4.33367 25.3941 4.33367 37.0976 5.48472V15.3536C34.9822 14.9386 32.9066 14.5994 30.9249 14.3504C23.3374 13.4087 15.6626 13.4087 8.07512 14.3504C6.09337 14.5994 4.01415 14.9386 1.90244 15.3536V5.48472ZM37.0976 2.76764V4.57181C25.3939 3.42435 13.6061 3.42435 1.90244 4.57181V2.76764C13.6058 1.61477 25.3942 1.61477 37.0976 2.76764ZM5.51941 23.4651C5.97424 23.3497 9.3241 22.6641 10.0244 22.5486V33.287C7.30998 30.7176 5.69559 27.1978 5.51941 23.4651ZM10.934 22.4151C16.6188 21.5782 22.3956 21.5782 28.0804 22.4151V34.0953C25.6458 36.0387 22.6228 37.0973 19.5072 37.0973C16.3916 37.0973 13.3686 36.0387 10.934 34.0953V22.4151ZM28.9828 33.287V22.5522C29.6326 22.6569 32.9139 23.3316 33.4878 23.4723C33.3081 27.2046 31.6912 30.7228 28.9756 33.2907L28.9828 33.287ZM33.7044 22.5847C33.1016 22.4367 29.416 21.6862 28.6002 21.5671C22.574 20.6362 16.4405 20.6362 10.4142 21.5671C9.50819 21.7042 5.75405 22.4837 5.31727 22.5991L2.12624 16.2232C4.20546 15.8154 6.24498 15.5015 8.19064 15.2417C15.7063 14.3108 23.3082 14.3108 30.8238 15.2417C32.7695 15.4871 34.7945 15.8154 36.8882 16.2232L33.7044 22.5847Z" stroke="#999999" stroke-width="0.4" mask="url(#path-1-outside-1_563_2487)"/>
<path d="M19.5004 24.4683C18.6968 24.4683 17.9112 24.7066 17.2431 25.1532C16.5751 25.5997 16.0546 26.2343 15.7475 26.9767C15.4405 27.7191 15.3607 28.5359 15.5183 29.3236C15.6759 30.1113 16.0637 30.8346 16.6327 31.4019C17.2017 31.9692 17.9264 32.3549 18.7148 32.5104C19.5033 32.6658 20.3201 32.5838 21.062 32.2749C21.8039 31.966 22.4373 31.444 22.8823 30.775C23.3272 30.1061 23.5635 29.3202 23.5614 28.5168C23.5566 27.4427 23.1269 26.414 22.366 25.6555C21.6052 24.897 20.575 24.4702 19.5004 24.4683ZM19.5004 31.685C18.8757 31.685 18.265 31.4998 17.7456 31.1529C17.2262 30.8059 16.8214 30.3128 16.5823 29.7359C16.3432 29.159 16.2807 28.5242 16.4026 27.9117C16.5244 27.2992 16.8253 26.7367 17.267 26.2951C17.7087 25.8535 18.2715 25.5528 18.8842 25.431C19.4969 25.3092 20.132 25.3717 20.7091 25.6107C21.2863 25.8497 21.7796 26.2543 22.1266 26.7736C22.4737 27.2928 22.659 27.9032 22.659 28.5277C22.657 29.3644 22.3237 30.1664 21.7317 30.7581C21.1398 31.3498 20.3375 31.683 19.5004 31.685Z" stroke="#999999" stroke-width="0.4" mask="url(#path-1-outside-1_563_2487)"/>
<path d="M19.5006 22.6641C18.34 22.6641 17.2055 23.0082 16.2406 23.653C15.2757 24.2978 14.5239 25.2142 14.0802 26.2862C13.6366 27.3583 13.5211 28.5378 13.7483 29.6755C13.9755 30.8133 14.5352 31.858 15.3567 32.6776C16.1781 33.4972 17.2243 34.0548 18.3629 34.2798C19.5015 34.5049 20.6812 34.3872 21.7529 33.9417C22.8245 33.4963 23.7399 32.743 24.3832 31.7774C25.0264 30.8117 25.3686 29.677 25.3665 28.5168C25.3617 26.9642 24.7418 25.4766 23.6425 24.3797C22.5431 23.2829 21.0539 22.666 19.5006 22.6641ZM19.5006 33.4891C18.5194 33.4891 17.5602 33.1984 16.7442 32.6537C15.9282 32.109 15.292 31.3348 14.9161 30.4288C14.5401 29.5228 14.4412 28.5258 14.6318 27.5637C14.8224 26.6015 15.2941 25.7175 15.9871 25.0232C16.6802 24.3289 17.5636 23.8555 18.5257 23.6628C19.4878 23.4701 20.4854 23.5669 21.3925 23.9407C22.2997 24.3146 23.0756 24.9488 23.6223 25.7633C24.169 26.5778 24.4619 27.536 24.464 28.5168C24.465 29.834 23.9427 31.0976 23.012 32.03C22.0813 32.9624 20.8183 33.4872 19.5006 33.4891Z" stroke="#999999" stroke-width="0.4" mask="url(#path-1-outside-1_563_2487)"/>
<path d="M19.5002 26.2725C18.9019 26.2725 18.328 26.5101 17.9049 26.933C17.4818 27.3559 17.2441 27.9296 17.2441 28.5277C17.2441 28.6473 17.2917 28.762 17.3763 28.8466C17.4609 28.9312 17.5757 28.9787 17.6954 28.9787C17.815 28.9787 17.9298 28.9312 18.0144 28.8466C18.099 28.762 18.1466 28.6473 18.1466 28.5277C18.1466 28.1688 18.2892 27.8246 18.5431 27.5709C18.7969 27.3171 19.1412 27.1745 19.5002 27.1745C19.6199 27.1745 19.7347 27.127 19.8193 27.0424C19.9039 26.9579 19.9515 26.8431 19.9515 26.7235C19.9515 26.6039 19.9039 26.4892 19.8193 26.4046C19.7347 26.32 19.6199 26.2725 19.5002 26.2725Z" stroke="#999999" stroke-width="0.4" mask="url(#path-1-outside-1_563_2487)"/>
</svg>
