<svg width="82" height="33" viewBox="0 0 82 33" fill="none" xmlns="http://www.w3.org/2000/svg">
<mask id="path-1-inside-1_318_2716" fill="white">
<path fill-rule="evenodd" clip-rule="evenodd" d="M13.6838 0C10.9224 0 8.68379 2.23857 8.68379 5V10.7201L0.729492 15.2949L8.68379 19.8697V27.3378C8.68379 30.0992 10.9224 32.3378 13.6838 32.3378H76.2703C79.0317 32.3378 81.2703 30.0992 81.2703 27.3378V5C81.2703 2.23858 79.0317 0 76.2703 0H13.6838Z"/>
</mask>
<path fill-rule="evenodd" clip-rule="evenodd" d="M13.6838 0C10.9224 0 8.68379 2.23857 8.68379 5V10.7201L0.729492 15.2949L8.68379 19.8697V27.3378C8.68379 30.0992 10.9224 32.3378 13.6838 32.3378H76.2703C79.0317 32.3378 81.2703 30.0992 81.2703 27.3378V5C81.2703 2.23858 79.0317 0 76.2703 0H13.6838Z" fill="white" fill-opacity="0.6"/>
<path d="M8.68379 10.7201L9.18236 11.5869L9.68379 11.2985V10.7201H8.68379ZM0.729492 15.2949L0.23093 14.428L-1.27628 15.2949L0.23093 16.1617L0.729492 15.2949ZM8.68379 19.8697H9.68379V19.2913L9.18236 19.0029L8.68379 19.8697ZM9.68379 5C9.68379 2.79086 11.4747 1 13.6838 1V-1C10.3701 -1 7.68379 1.68629 7.68379 5H9.68379ZM9.68379 10.7201V5H7.68379V10.7201H9.68379ZM1.22805 16.1617L9.18236 11.5869L8.18523 9.8532L0.23093 14.428L1.22805 16.1617ZM9.18236 19.0029L1.22805 14.428L0.23093 16.1617L8.18523 20.7366L9.18236 19.0029ZM9.68379 27.3378V19.8697H7.68379V27.3378H9.68379ZM13.6838 31.3378C11.4747 31.3378 9.68379 29.5469 9.68379 27.3378H7.68379C7.68379 30.6515 10.3701 33.3378 13.6838 33.3378V31.3378ZM76.2703 31.3378H13.6838V33.3378H76.2703V31.3378ZM80.2703 27.3378C80.2703 29.5469 78.4794 31.3378 76.2703 31.3378V33.3378C79.584 33.3378 82.2703 30.6515 82.2703 27.3378H80.2703ZM80.2703 5V27.3378H82.2703V5H80.2703ZM76.2703 1C78.4794 1 80.2703 2.79086 80.2703 5H82.2703C82.2703 1.68629 79.584 -1 76.2703 -1V1ZM13.6838 1H76.2703V-1H13.6838V1Z" fill="#FFB50F" mask="url(#path-1-inside-1_318_2716)"/>
</svg>
