<svg width="246" height="35" viewBox="0 0 246 35" fill="none" xmlns="http://www.w3.org/2000/svg">
<g clip-path="url(#clip0_788_6065)">
<path d="M13.7975 19.3554C12.809 24.0939 11.1419 27.5371 4.38979 27.5371C2.66406 27.5371 0.963468 27.3198 -0.00830078 27.0942L1.16452 21.6453C1.77607 21.7706 2.53003 21.8542 3.30074 21.8542C5.57937 21.8542 6.06526 20.868 6.50088 18.8707L10.4047 0.493164H17.8186L13.7975 19.347V19.3554Z" fill="#07364A"/>
<path d="M36.7934 21.3443C36.2572 23.8348 35.897 25.7402 35.6624 27.1777H28.6003C28.6087 26.6929 28.7679 25.4477 28.8935 24.8293C27.327 26.7514 25.4756 27.6206 22.7362 27.6206C18.6565 27.6206 16.847 24.8042 17.8187 20.2161L20.6503 6.86963H27.8212L25.1154 19.5642C24.7468 21.3109 25.0316 22.2553 26.6149 22.2553C28.1982 22.2553 29.6475 20.9181 30.3344 17.617L32.6382 6.86963H39.8427L36.7934 21.3443Z" fill="#07364A"/>
<path d="M46.9297 20.7927C47.047 22.1968 47.9937 22.9238 49.6524 22.9238C51.2106 22.9238 51.9561 22.3054 51.9561 21.2273C51.9561 20.2662 51.0849 19.7732 48.8398 19.1297C43.5704 17.6671 42.0877 15.9372 42.0877 13.2796C42.0877 9.53558 45.0532 6.43506 51.1184 6.43506C57.1836 6.43506 60.0989 9.29322 59.9649 12.8033H53.3468C53.3384 11.6834 52.6933 10.8811 50.976 10.8811C49.9875 10.8811 48.9738 11.1736 48.9738 12.2517C48.9738 13.1125 49.954 13.4718 52.5844 14.2323C57.4684 15.6614 59.0601 17.6588 59.0601 20.4585C59.0601 25.5062 54.3688 27.6289 49.2 27.6289C43.3275 27.6289 40.0771 25.1301 40.186 20.8011H46.9381L46.9297 20.7927Z" fill="#07364A"/>
<path d="M62.6792 6.86953H65.4939L66.6751 1.60449H73.7372L72.623 6.86953H76.0494L74.9854 11.7501H71.5591L69.6742 20.6088C69.4145 21.8122 69.5821 22.4808 71.0984 22.4808C71.6094 22.4808 72.1036 22.4557 72.6314 22.3889L71.668 27.0271C70.3276 27.4283 68.5517 27.4533 67.3118 27.4533C62.3692 27.4533 61.6236 24.8543 62.4278 21.0183L64.3881 11.7501H61.6152L62.6792 6.86953Z" fill="#07364A"/>
<path d="M91.3631 18.8287C91.5474 20.9849 92.8878 22.4725 95.6691 22.4725C97.8807 22.4725 99.2211 21.7036 99.2211 19.7898C99.2211 18.0766 97.998 17.2158 94.8397 16.1879C89.1264 14.3326 86.8561 12.1263 86.8561 8.56608C86.8561 3.71055 90.4249 0.00830078 97.621 0.00830078C104.147 0.00830078 108.185 3.02525 108.269 8.20672H100.98C100.93 6.98657 100.402 5.24827 97.4953 5.24827C95.7361 5.24827 94.446 5.99206 94.446 7.61336C94.446 8.8753 95.4261 9.66924 98.5592 10.6805C104.532 12.611 107.02 14.9844 107.02 18.8956C107.02 23.9768 103.301 27.679 95.2335 27.679C87.8614 27.679 84.2089 24.2275 84.0581 18.8371H91.3548L91.3631 18.8287Z" fill="#07364A"/>
<path d="M128.617 21.6201C128.123 23.9434 127.645 26.2834 127.57 27.1777H120.667C120.692 26.5927 120.793 25.7486 120.885 25.0716C119.729 26.4339 118.254 27.6206 114.903 27.6206C111.159 27.6206 109.232 25.1469 109.232 22.3054C109.232 16.9819 113.462 15.0096 118.933 14.4831C120.458 14.341 122.024 14.3159 123.13 14.2908L123.314 13.3548C123.574 12.0511 123.448 10.8059 121.471 10.8059C119.494 10.8059 119.268 11.909 118.866 12.8033H111.854C112.642 9.48544 115.021 6.43506 121.907 6.43506C128.198 6.43506 131.356 8.98401 130.242 14.132L128.609 21.6201H128.617ZM122.275 18.2689C121.228 18.2689 120.265 18.3608 119.494 18.5029C117.308 18.9124 116.554 19.7732 116.554 20.9933C116.554 21.9377 117.157 22.6564 118.422 22.6564C121.111 22.6564 121.756 20.5253 122.158 18.7703L122.275 18.2689Z" fill="#07364A"/>
<path d="M140.521 6.86963C140.881 13.5053 140.94 18.9709 140.881 21.4279H141.015C142.054 18.7285 144.09 13.781 147.19 6.86963H154.478L144.484 26.3586C140.655 33.9136 138.569 35.0084 132.99 35.0084C132.228 35.0084 130.695 34.8914 129.865 34.7493L131.013 29.409C131.331 29.4759 131.968 29.5344 132.571 29.5344C134.364 29.5344 135.243 28.8909 135.771 27.9716L133.333 6.86963H140.53H140.521Z" fill="#07364A"/>
<path d="M168.007 27.1777L170.026 17.6756C170.102 17.3246 170.118 17.0655 169.976 16.6644L164.531 0.493164H172.263C173.118 4.14527 174.416 9.05095 174.944 12.1013C176.695 9.01752 180.188 3.95305 182.458 0.493164H190.45L177.884 17.1324C177.692 17.3831 177.507 17.709 177.432 18.1352L175.53 27.1777H168.007Z" fill="#FFB607"/>
<path d="M192.335 18.5113C192.26 18.8623 192.201 19.1715 192.193 19.5309C192.126 21.311 192.695 22.7902 194.53 22.7902C196.113 22.7902 196.917 21.8792 197.428 20.6925H204.675C203.477 24.236 200.302 27.6206 194.01 27.6206C187.719 27.6206 185.013 23.793 185.013 19.0712C185.013 13.8814 187.97 6.42676 196.708 6.42676C203.15 6.42676 205.747 9.92843 205.747 14.6168C205.747 16.1211 205.504 17.4165 205.186 18.5113H192.327H192.335ZM198.836 14.55C198.928 14.1488 198.936 13.8312 198.936 13.5722C198.936 12.2267 198.4 11.0817 196.666 11.0817C194.823 11.0817 193.726 12.352 193.156 14.55H198.836Z" fill="#FFB607"/>
<path d="M213.764 20.7927C213.882 22.1968 214.828 22.9238 216.487 22.9238C218.045 22.9238 218.791 22.3054 218.791 21.2273C218.791 20.2662 217.919 19.7732 215.674 19.1297C210.405 17.6671 208.922 15.9372 208.922 13.2796C208.922 9.53558 211.888 6.43506 217.953 6.43506C224.018 6.43506 226.925 9.29322 226.799 12.8033H220.181C220.173 11.6834 219.528 10.8811 217.811 10.8811C216.822 10.8811 215.808 11.1736 215.808 12.2517C215.808 13.1125 216.788 13.4718 219.411 14.2323C224.295 15.6614 225.886 17.6588 225.886 20.4585C225.886 25.5062 221.195 27.6289 216.026 27.6289C210.154 27.6289 206.903 25.1301 207.012 20.8011H213.764V20.7927Z" fill="#FFB607"/>
<path d="M235.579 17.6337L237.17 5.6912L238.352 0.225586H246L244.81 5.72463L241.351 17.6337H235.579Z" fill="#07364A"/>
<path d="M240.53 23.7928C240.53 24.9461 240.169 25.8988 239.457 26.6677C238.745 27.4282 237.815 27.8126 236.676 27.8126C235.721 27.8126 234.95 27.5201 234.364 26.9268C233.778 26.3418 233.493 25.5478 233.493 24.5533C233.493 23.3499 233.861 22.3554 234.598 21.5782C235.336 20.8009 236.249 20.4165 237.338 20.4165C238.293 20.4165 239.064 20.7257 239.65 21.3442C240.236 21.9626 240.521 22.7732 240.521 23.7928H240.53Z" fill="#07364A"/>
</g>
<defs>
<clipPath id="clip0_788_6065">
<rect width="246" height="35" fill="white"/>
</clipPath>
</defs>
</svg>
