<svg width="24" height="24" viewBox="0 0 24 24" fill="none" xmlns="http://www.w3.org/2000/svg">
<path fill-rule="evenodd" clip-rule="evenodd" d="M12 14.98C11.1369 14.98 10.2932 14.7241 9.57555 14.2445C8.85791 13.765 8.29857 13.0835 7.96828 12.2861C7.63799 11.4887 7.55157 10.6112 7.71995 9.76474C7.88833 8.91822 8.30395 8.14065 8.91426 7.53035C9.52456 6.92004 10.3021 6.50442 11.1486 6.33604C11.9952 6.16766 12.8726 6.25408 13.67 6.58437C14.4674 6.91466 15.1489 7.474 15.6285 8.19164C16.108 8.90928 16.3639 9.75299 16.3639 10.6161C16.3639 11.1892 16.251 11.7566 16.0317 12.2861C15.8124 12.8155 15.491 13.2966 15.0857 13.7018C14.6805 14.1071 14.1994 14.4285 13.67 14.6478C13.1405 14.8671 12.5731 14.98 12 14.98ZM12 24C18.6278 24 24 18.6278 24 12C24 5.37224 18.6278 0 12 0C5.37224 0 0 5.37224 0 12C0 18.6278 5.37224 24 12 24ZM5.04377 20.3639C5.60682 18.9809 6.56934 17.7971 7.80839 16.9638C9.04744 16.1304 10.5068 15.6853 12 15.6853C13.4932 15.6853 14.9526 16.1304 16.1916 16.9638C17.4307 17.7971 18.3932 18.9809 18.9562 20.3639C20.1851 19.3442 21.1739 18.0659 21.852 16.6201C22.5302 15.1744 22.881 13.5969 22.8795 12C22.8795 5.99166 18.0092 1.12047 12 1.12047C5.99083 1.12047 1.12047 5.99166 1.12047 12C1.11895 13.5969 1.46977 15.1744 2.14793 16.6202C2.82609 18.0659 3.81487 19.3442 5.04377 20.3639Z" fill="#07364A"/>
</svg>
