<svg width="91" height="25" viewBox="0 0 91 25" fill="none" xmlns="http://www.w3.org/2000/svg">
<g clip-path="url(#clip0_234_16117)">
<path d="M18.2495 7.30372C18.2435 9.17873 17.9178 11.0387 17.2867 12.802C16.7129 14.527 15.7079 16.0731 14.3691 17.2905C12.5253 18.8778 10.1595 19.7088 7.73888 19.6195C5.67207 19.7339 3.64148 19.0367 2.07145 17.6737C0.670997 16.3815 -0.0292306 14.5266 -0.0292306 12.1092C-0.0344111 10.3506 0.264269 8.60469 0.853349 6.94996C1.42886 5.32497 2.37604 3.86028 3.61777 2.67518C4.54291 1.77922 5.63708 1.08062 6.83506 0.62098C8.03305 0.161338 9.31034 -0.0499164 10.5908 -0.000213333C12.9833 -0.000213333 14.8627 0.621346 16.2291 1.86447C17.5712 3.11742 18.2495 4.93049 18.2495 7.30372ZM13.4938 7.42165C13.4938 4.71921 12.4046 3.36555 10.2261 3.36063C9.51332 3.34892 8.80846 3.51335 8.17286 3.83961C7.53726 4.16587 6.99015 4.64408 6.57913 5.23267C5.91664 6.17839 5.44112 7.2445 5.17869 8.37242C4.87339 9.55446 4.71173 10.7697 4.69728 11.9912C4.61557 13.1239 4.93913 14.2485 5.60903 15.1604C5.92192 15.5159 6.30984 15.7958 6.74412 15.9795C7.17841 16.1632 7.64798 16.246 8.11817 16.2218C8.72901 16.2328 9.33462 16.1063 9.89102 15.8513C10.4474 15.5963 10.9406 15.2193 11.3348 14.7477C12.1136 13.7781 12.6491 12.6327 12.8957 11.409C13.2574 10.11 13.4583 8.77062 13.4938 7.42165Z" fill="#07364A"/>
<path d="M34.3985 10.5543C34.3985 13.3207 33.7056 15.517 32.3197 17.1434C30.9485 18.7943 28.9135 19.6198 26.1928 19.6198C24.5333 19.723 22.8982 19.1766 21.6267 18.0942C21.0785 17.573 20.6481 16.9384 20.3648 16.2337C20.0816 15.529 19.9522 14.7708 19.9856 14.011C19.8839 11.6502 20.6445 9.33409 22.1227 7.50306C23.5815 5.82263 25.6093 4.97506 28.2424 4.97506C29.8816 4.87668 31.4977 5.40262 32.772 6.44911C33.3224 6.97255 33.7531 7.6111 34.0341 8.32016C34.315 9.02922 34.4394 9.79169 34.3985 10.5543ZM30.0221 10.9007C30.0221 9.08274 29.2927 8.17129 27.8339 8.16638C27.3077 8.16931 26.793 8.32236 26.3491 8.60793C25.9052 8.89349 25.5501 9.29995 25.3248 9.78047C24.697 10.9535 24.3851 12.2726 24.4203 13.6057C24.3362 14.3903 24.5443 15.1786 25.0039 15.8167C25.2251 16.0379 25.4905 16.2088 25.7823 16.3181C26.0741 16.4274 26.3856 16.4726 26.6961 16.4506C27.2322 16.4372 27.7532 16.2682 28.1969 15.9636C28.6405 15.6591 28.988 15.232 29.1979 14.7333C29.796 13.5603 30.0753 12.248 30.0075 10.9302L30.0221 10.9007Z" fill="#07364A"/>
<path d="M41.8537 21.9858L41.2045 25.0371H33.2832L33.9105 21.9858H35.4787L38.0097 9.81743C38.0629 9.54293 38.0922 9.26425 38.0972 8.98458C38.1107 8.89045 38.1022 8.79445 38.0725 8.7042C38.0428 8.61395 37.9927 8.53195 37.9261 8.4647C37.8596 8.39744 37.7784 8.3468 37.6891 8.31679C37.5998 8.28677 37.5048 8.27822 37.4116 8.2918C37.2011 8.2914 36.9911 8.31113 36.7843 8.35075L37.4408 5.32893C38.2803 5.11893 39.1436 5.02229 40.0083 5.0415C40.688 4.99491 41.3659 5.15399 41.9558 5.49846C42.1808 5.68457 42.3571 5.92377 42.469 6.19497C42.5809 6.46618 42.6251 6.76104 42.5976 7.05357C42.6077 7.15897 42.6077 7.26512 42.5976 7.37051C43.0389 6.61776 43.6746 6.00054 44.4366 5.58505C45.1985 5.16957 46.0581 4.97148 46.923 5.01201C49.8698 5.01201 51.3407 6.67033 51.3359 9.98696C51.3673 12.3213 50.693 14.6098 49.4029 16.5465C48.7237 17.5183 47.8131 18.3015 46.7552 18.8239C45.5916 19.3917 44.3127 19.6769 43.0207 19.6568C41.7734 19.6568 40.9054 19.3546 40.4313 18.765L39.7457 21.9858H41.8537ZM41.8537 11.8C41.669 12.5832 41.5639 13.3833 41.54 14.188C41.485 14.7929 41.6539 15.3969 42.0141 15.8832C42.2072 16.0692 42.4369 16.2119 42.6883 16.3021C42.9397 16.3923 43.207 16.4278 43.4729 16.4065C43.844 16.3932 44.2068 16.2922 44.5323 16.1118C44.8578 15.9313 45.137 15.6763 45.3475 15.3673C46.4008 13.9867 46.9357 12.2737 46.8573 10.5323C46.8573 8.98459 46.2738 8.20334 45.0922 8.20334C43.468 8.17877 42.3788 9.3654 41.8245 11.7632L41.8537 11.8Z" fill="#07364A"/>
<path d="M52.6769 14.4384L56.6011 14.2689C56.5835 14.4503 56.5835 14.6329 56.6011 14.8143C56.6011 15.9272 57.4035 16.48 58.9935 16.48C60.4523 16.48 61.1817 16.0673 61.1817 15.2418C61.1817 14.6669 60.7733 14.2836 59.9563 14.092L57.4764 13.4582C56.4758 13.2325 55.5507 12.7473 54.7922 12.0504C54.4946 11.7328 54.2642 11.3573 54.115 10.9467C53.9658 10.5362 53.9008 10.0992 53.9242 9.66247C53.8886 8.96947 54.036 8.27936 54.3513 7.66288C54.6666 7.04641 55.1385 6.52573 55.7185 6.15421C57.0518 5.33355 58.593 4.92374 60.1533 4.97498C64.0823 4.97498 66.0493 6.31637 66.0541 8.99915C66.0608 9.36615 66.0412 9.73315 65.9958 10.0973H62.181C62.1969 9.97254 62.1969 9.84621 62.181 9.72143C62.181 8.60851 61.4516 8.05576 59.9928 8.05576C58.7164 8.05576 58.0818 8.44639 58.0818 9.23501C58.0818 9.77304 58.4757 10.1415 59.2488 10.3553L61.8965 11.0923C62.9165 11.3098 63.8667 11.781 64.661 12.4632C64.938 12.7709 65.1511 13.1317 65.2876 13.5242C65.4242 13.9166 65.4815 14.3328 65.456 14.748C65.5054 15.7968 65.1616 16.8258 64.4932 17.6297C63.3505 18.9466 61.4224 19.6074 58.7091 19.6124C56.5646 19.6124 55.0086 19.2095 54.0409 18.4036C53.6005 18.0611 53.2435 17.6214 52.997 17.1181C52.7505 16.6148 52.621 16.0613 52.6186 15.4997C52.6116 15.145 52.6311 14.7902 52.6769 14.4384Z" fill="#07364A"/>
<path d="M74.8212 16.6496C74.8326 17.036 74.7675 17.4209 74.6297 17.7816C74.4919 18.1423 74.2843 18.4716 74.0189 18.7501C73.7501 19.0296 73.4261 19.2489 73.068 19.3936C72.7098 19.5384 72.3255 19.6054 71.9401 19.5903C71.6225 19.6058 71.3049 19.5563 71.0067 19.4449C70.7084 19.3334 70.4354 19.1623 70.2041 18.9417C69.9821 18.7146 69.8091 18.4434 69.6961 18.1453C69.5831 17.8472 69.5325 17.5286 69.5477 17.2097C69.5303 16.8034 69.5951 16.3978 69.738 16.0176C69.881 15.6375 70.0992 15.2907 70.3792 14.9986C70.6445 14.7222 70.9636 14.5042 71.3163 14.3584C71.669 14.2125 72.0478 14.1419 72.4288 14.151C72.7483 14.1358 73.0674 14.1876 73.3662 14.303C73.6649 14.4184 73.9368 14.595 74.1648 14.8217C74.3906 15.0659 74.5651 15.3537 74.678 15.6678C74.7908 15.9819 74.8395 16.3159 74.8212 16.6496Z" fill="#FFB607"/>
<path d="M74.9101 12.4705H71.0078C72.1749 5.31642 72.9043 1.15959 73.196 0H78.0173C78.0173 0 77.9225 0.464326 77.7256 1.33402C77.5286 2.20371 77.1785 3.67039 76.6752 5.71932C76.172 7.76826 75.5665 10.0162 74.9101 12.4705Z" fill="#07364A"/>
<path d="M84.5078 18.2119H80.6639C80.7368 17.6665 80.7806 17.3201 80.7806 17.18C80.9119 16.104 81.6559 15.1311 82.9688 14.2319C83.8495 13.7106 84.6505 13.0626 85.3466 12.3083C85.7928 11.8209 86.0516 11.1882 86.076 10.5247C86.076 9.4265 85.4779 8.8811 84.2744 8.8811C83.9538 8.87004 83.6348 8.93032 83.3398 9.05768C83.0449 9.18505 82.7813 9.37638 82.5676 9.61812C82.1006 10.2029 81.8435 10.9304 81.8382 11.6818H77.5566C77.6466 9.95142 78.3846 8.3204 79.6209 7.11959C80.8608 5.9256 82.6381 5.32861 84.9528 5.32861C88.9839 5.32861 91.0019 6.75845 91.0068 9.61812C91.0583 10.8038 90.6738 11.9669 89.9273 12.8832C88.9718 13.9328 87.8624 14.8277 86.6377 15.5365C86.0531 15.8593 85.5236 16.2748 85.0695 16.7673C84.7815 17.2023 84.5899 17.6951 84.5078 18.2119Z" fill="#07364A"/>
<path d="M84.6398 22.0593C84.6555 22.4506 84.594 22.8411 84.4587 23.2081C84.3235 23.5751 84.1172 23.9111 83.852 24.1967C83.5854 24.4772 83.2629 24.6971 82.9057 24.842C82.5486 24.9869 82.165 25.0533 81.7805 25.0369C81.4596 25.052 81.1389 25.0025 80.8371 24.8911C80.5353 24.7798 80.2584 24.6089 80.0227 24.3883C79.8004 24.1599 79.6273 23.8874 79.5143 23.588C79.4014 23.2887 79.3509 22.9689 79.3662 22.6489C79.3481 22.2413 79.414 21.8343 79.5596 21.4537C79.7053 21.0731 79.9275 20.7272 80.2123 20.4378C80.4806 20.1608 80.8021 19.942 81.157 19.795C81.512 19.6479 81.8929 19.5758 82.2765 19.5829C82.5944 19.5685 82.9117 19.6213 83.2081 19.7381C83.5046 19.8549 83.7736 20.033 83.9979 20.261C84.4393 20.7507 84.6702 21.3976 84.6398 22.0593Z" fill="#FFB607"/>
</g>
<defs>
<clipPath id="clip0_234_16117">
<rect width="91" height="25" fill="white"/>
</clipPath>
</defs>
</svg>
