<svg width="426" height="287" viewBox="0 0 426 287" fill="none" xmlns="http://www.w3.org/2000/svg">
<path d="M426 214H0" stroke="#D8D8D8" stroke-width="1.7" stroke-miterlimit="10"/>
<path d="M406 55H280V237H406V55Z" fill="#FFF4DA"/>
<path d="M342 55V239" stroke="#D8D8D8" stroke-width="1.44" stroke-miterlimit="10"/>
<path d="M357 147H328V153H357V147Z" fill="#D8D8D8"/>
<path d="M146 32V54" stroke="#98C5ED" stroke-width="2.95" stroke-miterlimit="10"/>
<path d="M413 206H353V256H413V206Z" fill="#F1F1F1"/>
<path d="M391.716 211H376.284C375.023 211 374 211.672 374 212.5C374 213.328 375.023 214 376.284 214H391.716C392.977 214 394 213.328 394 212.5C394 211.672 392.977 211 391.716 211Z" stroke="white" stroke-width="1.04" stroke-miterlimit="10"/>
<path d="M418 156H357V206H418V156Z" fill="#FEE2A5"/>
<path d="M396.716 160H381.284C380.023 160 379 160.895 379 162C379 163.105 380.023 164 381.284 164H396.716C397.977 164 399 163.105 399 162C399 160.895 397.977 160 396.716 160Z" stroke="white" stroke-width="1.04" stroke-miterlimit="10"/>
<path d="M83 194H22V244H83V194Z" fill="#FFF4DA"/>
<path d="M61.6019 199H45.3981C44.0736 199 43 199.895 43 201C43 202.105 44.0736 203 45.3981 203H61.6019C62.9263 203 64 202.105 64 201C64 199.895 62.9263 199 61.6019 199Z" stroke="white" stroke-width="1.04" stroke-miterlimit="10"/>
<path d="M168 15H31V142H168V15Z" fill="white"/>
<path d="M165 136V19L35 19V136H165Z" fill="#FFF4DA"/>
<path d="M49 19H47V78H49V19Z" fill="white"/>
<path d="M74 105.67V136H41V88L74 105.67Z" fill="#D8D8D8"/>
<path d="M115 74H77V136H115V74Z" fill="#D8D8D8"/>
<path d="M115 69H77V71H115V69Z" fill="#D8D8D8"/>
<path d="M83 70H80V76H83V70Z" fill="#D8D8D8"/>
<path d="M112 70H110V76H112V70Z" fill="#D8D8D8"/>
<path d="M156 47H119V136H156V47Z" fill="#D8D8D8"/>
<path d="M35 25H165" stroke="white" stroke-width="1.48" stroke-miterlimit="10"/>
<path d="M35 30H165" stroke="white" stroke-width="1.48" stroke-miterlimit="10"/>
<path d="M35 37H165" stroke="white" stroke-width="1.48" stroke-miterlimit="10"/>
<path d="M35 43H165" stroke="white" stroke-width="1.48" stroke-miterlimit="10"/>
<path d="M35 49H165" stroke="white" stroke-width="1.48" stroke-miterlimit="10"/>
<path d="M126 55H123V61H126V55Z" stroke="#F1F1F1" stroke-width="0.59" stroke-miterlimit="10"/>
<path d="M132 55H128V61H132V55Z" stroke="#F1F1F1" stroke-width="0.59" stroke-miterlimit="10"/>
<path d="M137 55H133V61H137V55Z" stroke="#F1F1F1" stroke-width="0.59" stroke-miterlimit="10"/>
<path d="M143 55H138V61H143V55Z" stroke="#F1F1F1" stroke-width="0.59" stroke-miterlimit="10"/>
<path d="M148 55H145V61H148V55Z" stroke="#F1F1F1" stroke-width="0.59" stroke-miterlimit="10"/>
<path d="M154 55H151V61H154V55Z" stroke="#F1F1F1" stroke-width="0.59" stroke-miterlimit="10"/>
<path d="M126 65H123V70H126V65Z" stroke="#F1F1F1" stroke-width="0.59" stroke-miterlimit="10"/>
<path d="M132 65H128V70H132V65Z" stroke="#F1F1F1" stroke-width="0.59" stroke-miterlimit="10"/>
<path d="M137 65H133V70H137V65Z" stroke="#F1F1F1" stroke-width="0.59" stroke-miterlimit="10"/>
<path d="M143 65H138V70H143V65Z" stroke="#F1F1F1" stroke-width="0.59" stroke-miterlimit="10"/>
<path d="M148 65H145V70H148V65Z" stroke="#F1F1F1" stroke-width="0.59" stroke-miterlimit="10"/>
<path d="M154 65H151V70H154V65Z" stroke="#F1F1F1" stroke-width="0.59" stroke-miterlimit="10"/>
<path d="M126 73H123V79H126V73Z" stroke="#F1F1F1" stroke-width="0.59" stroke-miterlimit="10"/>
<path d="M132 73H128V79H132V73Z" stroke="#F1F1F1" stroke-width="0.59" stroke-miterlimit="10"/>
<path d="M137 73H133V79H137V73Z" stroke="#F1F1F1" stroke-width="0.59" stroke-miterlimit="10"/>
<path d="M143 73H138V79H143V73Z" stroke="#F1F1F1" stroke-width="0.59" stroke-miterlimit="10"/>
<path d="M148 73H145V79H148V73Z" stroke="#F1F1F1" stroke-width="0.59" stroke-miterlimit="10"/>
<path d="M154 73H151V79H154V73Z" stroke="#F1F1F1" stroke-width="0.59" stroke-miterlimit="10"/>
<path d="M126 83H123V89H126V83Z" stroke="#F1F1F1" stroke-width="0.59" stroke-miterlimit="10"/>
<path d="M132 83H128V89H132V83Z" stroke="#F1F1F1" stroke-width="0.59" stroke-miterlimit="10"/>
<path d="M137 83H133V89H137V83Z" stroke="#F1F1F1" stroke-width="0.59" stroke-miterlimit="10"/>
<path d="M143 83H138V89H143V83Z" stroke="#F1F1F1" stroke-width="0.59" stroke-miterlimit="10"/>
<path d="M148 83H145V89H148V83Z" stroke="#F1F1F1" stroke-width="0.59" stroke-miterlimit="10"/>
<path d="M154 83H151V89H154V83Z" stroke="#F1F1F1" stroke-width="0.59" stroke-miterlimit="10"/>
<path d="M126 93H123V99H126V93Z" stroke="#F1F1F1" stroke-width="0.59" stroke-miterlimit="10"/>
<path d="M132 93H128V99H132V93Z" stroke="#F1F1F1" stroke-width="0.59" stroke-miterlimit="10"/>
<path d="M137 93H133V99H137V93Z" stroke="#F1F1F1" stroke-width="0.59" stroke-miterlimit="10"/>
<path d="M143 93H138V99H143V93Z" stroke="#F1F1F1" stroke-width="0.59" stroke-miterlimit="10"/>
<path d="M148 93H145V99H148V93Z" stroke="#F1F1F1" stroke-width="0.59" stroke-miterlimit="10"/>
<path d="M154 93H151V99H154V93Z" stroke="#F1F1F1" stroke-width="0.59" stroke-miterlimit="10"/>
<path d="M126 102H123V108H126V102Z" stroke="#F1F1F1" stroke-width="0.59" stroke-miterlimit="10"/>
<path d="M132 102H128V108H132V102Z" stroke="#F1F1F1" stroke-width="0.59" stroke-miterlimit="10"/>
<path d="M137 102H133V108H137V102Z" stroke="#F1F1F1" stroke-width="0.59" stroke-miterlimit="10"/>
<path d="M143 102H138V108H143V102Z" stroke="#F1F1F1" stroke-width="0.59" stroke-miterlimit="10"/>
<path d="M148 102H145V108H148V102Z" stroke="#F1F1F1" stroke-width="0.59" stroke-miterlimit="10"/>
<path d="M154 102H151V108H154V102Z" stroke="#F1F1F1" stroke-width="0.59" stroke-miterlimit="10"/>
<path d="M126 112H123V117H126V112Z" stroke="#F1F1F1" stroke-width="0.59" stroke-miterlimit="10"/>
<path d="M132 112H128V117H132V112Z" stroke="#F1F1F1" stroke-width="0.59" stroke-miterlimit="10"/>
<path d="M137 112H133V117H137V112Z" stroke="#F1F1F1" stroke-width="0.59" stroke-miterlimit="10"/>
<path d="M143 112H138V117H143V112Z" stroke="#F1F1F1" stroke-width="0.59" stroke-miterlimit="10"/>
<path d="M148 112H145V117H148V112Z" stroke="#F1F1F1" stroke-width="0.59" stroke-miterlimit="10"/>
<path d="M154 112H151V117H154V112Z" stroke="#F1F1F1" stroke-width="0.59" stroke-miterlimit="10"/>
<path d="M126 120H123V127H126V120Z" stroke="#F1F1F1" stroke-width="0.59" stroke-miterlimit="10"/>
<path d="M132 120H128V127H132V120Z" stroke="#F1F1F1" stroke-width="0.59" stroke-miterlimit="10"/>
<path d="M137 120H133V127H137V120Z" stroke="#F1F1F1" stroke-width="0.59" stroke-miterlimit="10"/>
<path d="M143 120H138V127H143V120Z" stroke="#F1F1F1" stroke-width="0.59" stroke-miterlimit="10"/>
<path d="M148 120H145V127H148V120Z" stroke="#F1F1F1" stroke-width="0.59" stroke-miterlimit="10"/>
<path d="M154 120H151V127H154V120Z" stroke="#F1F1F1" stroke-width="0.59" stroke-miterlimit="10"/>
<path d="M126 129H123V136H126V129Z" stroke="#F1F1F1" stroke-width="0.59" stroke-miterlimit="10"/>
<path d="M132 129H128V136H132V129Z" stroke="#F1F1F1" stroke-width="0.59" stroke-miterlimit="10"/>
<path d="M137 129H133V136H137V129Z" stroke="#F1F1F1" stroke-width="0.59" stroke-miterlimit="10"/>
<path d="M143 129H138V136H143V129Z" stroke="#F1F1F1" stroke-width="0.59" stroke-miterlimit="10"/>
<path d="M148 129H145V136H148V129Z" stroke="#F1F1F1" stroke-width="0.59" stroke-miterlimit="10"/>
<path d="M154 129H151V136H154V129Z" stroke="#F1F1F1" stroke-width="0.59" stroke-miterlimit="10"/>
<path d="M41 93L74 110" stroke="#F1F1F1" stroke-width="1.04" stroke-miterlimit="10"/>
<path d="M84 78H80V88H84V78Z" stroke="#F1F1F1" stroke-width="0.7" stroke-miterlimit="10"/>
<path d="M88 78H86V88H88V78Z" stroke="#F1F1F1" stroke-width="0.7" stroke-miterlimit="10"/>
<path d="M94 78H90V88H94V78Z" stroke="#F1F1F1" stroke-width="0.7" stroke-miterlimit="10"/>
<path d="M98 78H96V88H98V78Z" stroke="#F1F1F1" stroke-width="0.7" stroke-miterlimit="10"/>
<path d="M103 78H99V88H103V78Z" stroke="#F1F1F1" stroke-width="0.7" stroke-miterlimit="10"/>
<path d="M107 78H105V88H107V78Z" stroke="#F1F1F1" stroke-width="0.7" stroke-miterlimit="10"/>
<path d="M113 78H109V88H113V78Z" stroke="#F1F1F1" stroke-width="0.7" stroke-miterlimit="10"/>
<path d="M84 94H80V103H84V94Z" stroke="#F1F1F1" stroke-width="0.7" stroke-miterlimit="10"/>
<path d="M88 94H86V103H88V94Z" stroke="#F1F1F1" stroke-width="0.7" stroke-miterlimit="10"/>
<path d="M94 94H90V103H94V94Z" stroke="#F1F1F1" stroke-width="0.7" stroke-miterlimit="10"/>
<path d="M98 94H96V103H98V94Z" stroke="#F1F1F1" stroke-width="0.7" stroke-miterlimit="10"/>
<path d="M103 94H99V103H103V94Z" stroke="#F1F1F1" stroke-width="0.7" stroke-miterlimit="10"/>
<path d="M107 94H105V103H107V94Z" stroke="#F1F1F1" stroke-width="0.7" stroke-miterlimit="10"/>
<path d="M113 94H109V103H113V94Z" stroke="#F1F1F1" stroke-width="0.7" stroke-miterlimit="10"/>
<path d="M84 108H80V119H84V108Z" stroke="#F1F1F1" stroke-width="0.7" stroke-miterlimit="10"/>
<path d="M88 108H86V119H88V108Z" stroke="#F1F1F1" stroke-width="0.7" stroke-miterlimit="10"/>
<path d="M94 108H90V119H94V108Z" stroke="#F1F1F1" stroke-width="0.7" stroke-miterlimit="10"/>
<path d="M98 108H96V119H98V108Z" stroke="#F1F1F1" stroke-width="0.7" stroke-miterlimit="10"/>
<path d="M103 108H99V119H103V108Z" stroke="#F1F1F1" stroke-width="0.7" stroke-miterlimit="10"/>
<path d="M107 108H105V119H107V108Z" stroke="#F1F1F1" stroke-width="0.7" stroke-miterlimit="10"/>
<path d="M113 108H109V119H113V108Z" stroke="#F1F1F1" stroke-width="0.7" stroke-miterlimit="10"/>
<path d="M84 125H80V134H84V125Z" stroke="#F1F1F1" stroke-width="0.7" stroke-miterlimit="10"/>
<path d="M88 125H86V134H88V125Z" stroke="#F1F1F1" stroke-width="0.7" stroke-miterlimit="10"/>
<path d="M94 125H90V134H94V125Z" stroke="#F1F1F1" stroke-width="0.7" stroke-miterlimit="10"/>
<path d="M98 125H96V134H98V125Z" stroke="#F1F1F1" stroke-width="0.7" stroke-miterlimit="10"/>
<path d="M103 125H99V134H103V125Z" stroke="#F1F1F1" stroke-width="0.7" stroke-miterlimit="10"/>
<path d="M107 125H105V134H107V125Z" stroke="#F1F1F1" stroke-width="0.7" stroke-miterlimit="10"/>
<path d="M113 125H109V134H113V125Z" stroke="#F1F1F1" stroke-width="0.7" stroke-miterlimit="10"/>
<path d="M167 85H35V90H167V85Z" fill="white"/>
<path d="M49 109H45V114H49V109Z" stroke="#F1F1F1" stroke-width="0.59" stroke-miterlimit="10"/>
<path d="M57 109H52V114H57V109Z" stroke="#F1F1F1" stroke-width="0.59" stroke-miterlimit="10"/>
<path d="M65 109H61V114H65V109Z" stroke="#F1F1F1" stroke-width="0.59" stroke-miterlimit="10"/>
<path d="M49 119H45V124H49V119Z" stroke="#F1F1F1" stroke-width="0.59" stroke-miterlimit="10"/>
<path d="M57 119H52V124H57V119Z" stroke="#F1F1F1" stroke-width="0.59" stroke-miterlimit="10"/>
<path d="M65 119H61V124H65V119Z" stroke="#F1F1F1" stroke-width="0.59" stroke-miterlimit="10"/>
<path d="M49 128H45V133H49V128Z" stroke="#F1F1F1" stroke-width="0.59" stroke-miterlimit="10"/>
<path d="M57 128H52V133H57V128Z" stroke="#F1F1F1" stroke-width="0.59" stroke-miterlimit="10"/>
<path d="M65 128H61V133H65V128Z" stroke="#F1F1F1" stroke-width="0.59" stroke-miterlimit="10"/>
<path d="M259.5 38C263.09 38 266 35.3137 266 32C266 28.6863 263.09 26 259.5 26C255.91 26 253 28.6863 253 32C253 35.3137 255.91 38 259.5 38Z" fill="white"/>
<path d="M285 30.3966C285 30.5964 285 30.8127 285 31H235.022C235.022 30.8003 235 30.5839 235 30.3966C235 21.8952 246.192 15 259.996 15C273.8 15 285 21.8952 285 30.3966Z" fill="#D8D8D8"/>
<path d="M260.5 11C261.163 11 261.799 11.2339 262.268 11.6502C262.737 12.0665 263 12.6311 263 13.2198V17H258V13.2198C258 12.6311 258.263 12.0665 258.732 11.6502C259.201 11.2339 259.837 11 260.5 11Z" fill="#D8D8D8"/>
<path d="M260 0V12" stroke="#D8D8D8" stroke-width="1.48" stroke-miterlimit="10"/>
<g opacity="0.9" clip-path="url(#clip0_234_16131)">
<path d="M246.601 284.343H200.831C197.442 273.703 191.121 252.179 190.513 237.928C189.678 218.374 196.631 203.822 207.01 190.425L244.304 184.587C253.231 224.927 247.147 263.997 246.601 284.343Z" fill="#392C4B"/>
<path d="M216.379 83.2004C207.481 84.5978 200.243 90.4355 199.132 104.567C198.022 118.699 197.604 121.918 191.207 126.95C184.809 131.982 178.687 134.257 179.94 148.493C181.193 162.73 188.425 169.44 199.132 169.159C209.839 168.877 249.62 152.442 249.62 152.442C249.62 152.442 236.407 123.797 236.132 117.196C235.857 110.596 242.677 81.1067 216.379 83.2004Z" fill="black"/>
<path d="M229.558 124.618L247.802 134.557C249.694 135.921 251.229 137.725 252.276 139.814C253.323 141.904 253.851 144.217 253.815 146.557L253.231 183.143L213.322 189.71L210.076 124.622L229.558 124.618Z" fill="#FFB50F"/>
<path d="M211.268 148.493L217.632 181.011L222.098 178.74L211.268 148.493Z" fill="#CE8F00"/>
<path d="M208.316 187.888C208.316 187.888 233.351 200.05 246.422 187.888L243.1 173.675L208.316 187.888Z" fill="#CE8F00"/>
<path d="M243.086 140.924V127.927L234.405 128.538C234.048 128.562 233.713 128.717 233.462 128.974C233.212 129.231 233.065 129.571 233.048 129.93C232.905 132.954 232.891 140.337 235.853 142.331L243.086 140.924Z" fill="#FCC8B3"/>
<path d="M243.086 127.927V121.918L236.133 117.196L236.033 118.093C235.979 118.593 236.052 119.098 236.246 119.561C236.441 120.025 236.75 120.43 237.144 120.74L240.219 123.148L240.167 129.601L243.086 127.927Z" fill="#FCC8B3"/>
<path d="M235.852 142.326C235.852 142.326 239.354 177.958 240.166 183.138C240.688 186.376 244.214 188.722 246.772 190.025C247.545 190.413 248.428 190.52 249.271 190.327C250.113 190.135 250.864 189.656 251.395 188.97C252.913 187.02 254.821 184.11 255.044 181.53C255.429 177.166 243.084 140.924 243.084 140.924L235.852 142.326Z" fill="#FCC8B3"/>
<path d="M205.184 195.361C205.184 195.361 210.248 201.037 213.029 202.081C215.81 203.126 240.707 181.53 240.707 181.53L239.013 170.136L205.184 187.306V195.361Z" fill="#FCC8B3"/>
<path d="M210.076 124.618L195.454 132.559C193.237 133.761 191.393 135.555 190.126 137.743C188.858 139.931 188.215 142.428 188.269 144.959C188.544 157.45 190.238 180.992 198.577 196.835C201.477 202.339 217.632 182.856 217.632 182.856L210.076 124.618Z" fill="#FFB50F"/>
<path d="M228.125 126.449C228.125 126.449 232.074 130.026 230.939 134.218C229.805 138.41 224.029 133.03 224.029 133.03L228.125 126.449Z" fill="#FCA886"/>
<path d="M212.207 116.209C212.207 116.209 215.358 121.732 210.076 124.617C210.076 124.617 216.939 137.972 224.357 137.943C229.781 137.943 230.939 134.218 230.939 134.218C230.939 134.218 228.994 130.841 228.619 129.601C228.144 128.075 227.855 123.268 227.855 123.268L212.207 116.209Z" fill="#FCC8B3"/>
<path d="M229.559 131.695C222.734 131.299 216.427 125.743 214.633 121.203L226.759 122.762L227.855 123.239C227.855 123.239 228.164 128.047 228.624 129.578C228.881 130.307 229.193 131.015 229.559 131.695Z" fill="#FCA886"/>
<path d="M237.337 109.017C237.337 119.438 234.778 126.11 226.767 126.11C218.756 126.11 207.01 117.664 207.01 107.243C207.01 96.8214 214.347 88.3701 222.363 88.3701C230.379 88.3701 237.337 98.5956 237.337 109.017Z" fill="#FCC8B3"/>
<path d="M230.441 107.605C230.199 108.387 230.132 111.306 231.219 112.098" stroke="black" stroke-width="0.71" stroke-miterlimit="10"/>
<path d="M233.93 115.728C233.93 115.728 232.307 120.13 226.84 118.15" stroke="black" stroke-width="0.71" stroke-miterlimit="10"/>
<path d="M222.292 113.09C222.735 113.09 223.094 112.546 223.094 111.874C223.094 111.202 222.735 110.658 222.292 110.658C221.849 110.658 221.49 111.202 221.49 111.874C221.49 112.546 221.849 113.09 222.292 113.09Z" fill="black"/>
<path d="M233.929 109.017C234.372 109.017 234.731 108.472 234.731 107.801C234.731 107.129 234.372 106.584 233.929 106.584C233.486 106.584 233.127 107.129 233.127 107.801C233.127 108.472 233.486 109.017 233.929 109.017Z" fill="black"/>
<path d="M223.427 108.407C222.549 107.93 220.276 108.884 219.953 109.837L223.427 108.407Z" fill="black"/>
<path d="M232.018 105.798C232.421 104.887 234.785 104.209 235.639 104.777L232.018 105.798Z" fill="black"/>
<path d="M236.61 100.728C236.61 100.728 234.081 91.7993 230.412 88.766C226.867 85.8424 216.957 85.8328 212.098 89.1857C205.002 94.0791 207.038 110.233 207.038 110.233C222.966 110.233 229.539 99.9597 229.586 93.4495C232.235 96.9121 232.04 99.6688 236.61 100.728Z" fill="black"/>
<path d="M211.14 118.069C213.693 118.069 215.763 115.84 215.763 113.09C215.763 110.34 213.693 108.111 211.14 108.111C208.587 108.111 206.518 110.34 206.518 113.09C206.518 115.84 208.587 118.069 211.14 118.069Z" fill="#FCC8B3"/>
<path d="M210.638 111.316C208.265 111.282 207.856 115.079 209.873 115.522" stroke="black" stroke-width="0.71" stroke-miterlimit="10"/>
<path d="M332.818 192.304C328.811 194.824 324.319 196.463 319.638 197.117L286.473 201.805C279.532 202.784 272.482 201.038 266.789 196.927C261.097 192.817 257.2 186.66 255.909 179.737L254.011 169.397C252.227 159.798 253.642 149.876 258.038 141.168C262.433 132.459 269.564 125.45 278.324 121.226L279.61 120.606L290.806 115.212C291.505 114.873 292.283 114.731 293.056 114.802L308.646 116.209L315.291 116.805C322.621 117.46 329.541 120.491 335.007 125.443C340.473 130.395 344.189 136.998 345.594 144.258L348.038 157.054C349.348 163.787 348.594 170.761 345.877 177.055C343.159 183.349 338.606 188.666 332.818 192.304Z" fill="#FFE09C"/>
<path d="M264.365 187.33C267.009 180.901 270.483 177.128 277.298 175.731" stroke="#285DB9" stroke-width="1.04" stroke-miterlimit="10"/>
<path d="M335.162 186.128C335.162 186.128 343.14 218.927 343.704 233.736C344.82 263.74 339.433 284.343 339.433 284.343H265.576L273.962 194.331L335.162 186.128Z" fill="#07364A"/>
<path d="M306.159 96.4256L275.97 102.387L273.488 89.1666C272.745 85.2006 273.6 81.1005 275.864 77.7673C278.128 74.4341 281.616 72.1407 285.562 71.3911L286.222 71.2671C290.167 70.5207 294.246 71.3796 297.561 73.6549C300.876 75.9303 303.157 79.4358 303.9 83.4004L306.159 96.4256Z" fill="#285DB9"/>
<path d="M306.158 96.4257L275.969 102.387L273.492 89.1668C273.059 86.8856 273.153 84.535 273.768 82.2964C274.383 80.0578 275.501 77.9912 277.037 76.2561C277.447 75.7848 277.887 75.3418 278.356 74.9302C280.396 73.1193 282.886 71.8965 285.561 71.3913L286.22 71.2673C289.062 70.7212 292.001 71.0111 294.683 72.1019C295.034 72.2403 295.371 72.3976 295.708 72.5789C297.817 73.618 299.655 75.1373 301.077 77.0159C302.499 78.8946 303.466 81.0807 303.899 83.4006L306.158 96.4257Z" fill="#07364A"/>
<path d="M305.846 117.387C306.296 119.375 306.068 121.458 305.198 123.3C304.329 125.142 302.869 126.638 301.053 127.546C298.737 128.704 296.216 129.39 293.635 129.563C292.139 129.672 290.636 129.567 289.169 129.253C286.943 128.763 284.952 127.52 283.527 125.734C282.102 123.947 281.33 121.723 281.338 119.433V104.982L302.738 103.551L305.846 117.387Z" fill="#FCC8B3"/>
<path d="M300.937 107.882C301.317 113.605 295.764 118.656 288.522 119.147C286.064 119.331 283.597 118.929 281.322 117.974V104.982L299.518 103.751C300.341 104.981 300.83 106.404 300.937 107.882Z" fill="#FCA886"/>
<path d="M303.898 91.5624C302.848 83.7364 295.683 78.2477 287.896 79.303C280.108 80.3583 274.646 87.5581 275.696 95.3842L276.787 103.509C277.837 111.335 285.001 116.824 292.789 115.769C300.577 114.713 306.039 107.513 304.988 99.6874L303.898 91.5624Z" fill="#FCC8B3"/>
<path d="M304.679 101.014C307.114 101.014 309.088 99.0301 309.088 96.5831C309.088 94.1361 307.114 92.1523 304.679 92.1523C302.244 92.1523 300.27 94.1361 300.27 96.5831C300.27 99.0301 302.244 101.014 304.679 101.014Z" fill="#FCC8B3"/>
<path d="M305 93.9502C305.546 94.0195 306.058 94.259 306.462 94.635C306.866 95.0111 307.143 95.5048 307.254 96.047C307.365 96.5892 307.304 97.1527 307.081 97.6585C306.857 98.1643 306.481 98.587 306.006 98.8674" stroke="black" stroke-width="0.84" stroke-miterlimit="10"/>
<path d="M276.932 105.44C279.367 105.44 281.341 103.456 281.341 101.009C281.341 98.5618 279.367 96.5781 276.932 96.5781C274.497 96.5781 272.523 98.5618 272.523 101.009C272.523 103.456 274.497 105.44 276.932 105.44Z" fill="#FCC8B3"/>
<path d="M276.396 98.4146C275.857 98.5278 275.366 98.8079 274.993 99.2156C274.62 99.6233 274.383 100.138 274.316 100.688C274.249 101.238 274.355 101.795 274.619 102.281C274.883 102.767 275.292 103.158 275.789 103.399" stroke="black" stroke-width="0.84" stroke-miterlimit="10"/>
<path d="M297.502 99.3637C298.016 99.3637 298.433 98.9452 298.433 98.4289C298.433 97.9127 298.016 97.4941 297.502 97.4941C296.989 97.4941 296.572 97.9127 296.572 98.4289C296.572 98.9452 296.989 99.3637 297.502 99.3637Z" fill="black"/>
<path d="M284.061 101.51C284.575 101.51 284.991 101.091 284.991 100.575C284.991 100.059 284.575 99.6401 284.061 99.6401C283.547 99.6401 283.131 100.059 283.131 100.575C283.131 101.091 283.547 101.51 284.061 101.51Z" fill="black"/>
<path d="M289.881 98.7866C290.355 99.4925 291.305 102.387 290.465 103.508" stroke="black" stroke-width="0.74" stroke-miterlimit="10"/>
<path d="M288.424 107.3C288.424 107.3 292.695 110.233 295.813 106.117" stroke="black" stroke-width="0.71" stroke-miterlimit="10"/>
<path d="M281.199 97.6277C281.199 97.6277 282.49 96.2636 285.2 96.4401" stroke="black" stroke-width="3.03" stroke-miterlimit="10" stroke-linecap="round"/>
<path d="M299.031 94.4939C299.031 94.4939 297.237 93.9216 294.717 94.9422" stroke="black" stroke-width="3.03" stroke-miterlimit="10" stroke-linecap="round"/>
<path d="M275.628 97.1172C275.658 97.246 275.725 97.3629 275.822 97.4527C275.919 97.5425 276.04 97.6012 276.17 97.6212C276.3 97.6412 276.433 97.6217 276.552 97.565C276.671 97.5083 276.771 97.4171 276.838 97.3032C278.442 94.5417 282.485 88.9568 289.263 88.1651C296.04 87.3734 300.957 90.9695 302.974 92.7866C303.382 93.1491 303.895 92.7198 303.895 92.1714V86.925C303.895 86.925 297.772 76.2035 288.318 77.6534C278.864 79.1033 274.702 88.4608 274.631 92.9154L275.628 97.1172Z" fill="#A2C6D4"/>
<path d="M275.499 96.1919C275.528 96.321 275.595 96.4383 275.692 96.5286C275.788 96.6189 275.909 96.678 276.039 96.6981C276.169 96.7182 276.302 96.6983 276.421 96.6412C276.54 96.5841 276.639 96.4923 276.705 96.3779C278.309 93.6212 282.229 88.0029 289.007 87.2111C295.784 86.4194 301.346 90.7929 302.974 92.2619C303.07 92.334 303.181 92.3826 303.299 92.404C303.417 92.4254 303.539 92.419 303.654 92.3852C303.769 92.3515 303.874 92.2913 303.962 92.2095C304.05 92.1277 304.118 92.0264 304.16 91.9137L304.293 86.3813C304.293 86.3813 297.772 74.7297 288.318 76.1796C278.864 77.6295 274.555 87.5211 274.498 91.9853L275.499 96.1919Z" fill="#07364A"/>
<path d="M277.151 87.4879L276.71 87.6405C274.735 81.8076 275.936 78.1257 277.037 76.2561C277.447 75.7848 277.888 75.3418 278.357 74.9302L278.513 75.1019C278.466 75.14 274.266 78.9698 277.151 87.4879Z" fill="#A2C6D4"/>
<path d="M298.68 82.0605L298.205 82.1177C297.104 72.9939 294.674 72.3405 294.65 72.3358L294.693 72.1021C295.044 72.2404 295.381 72.3978 295.718 72.579C296.62 73.5853 297.93 76.0559 298.68 82.0605Z" fill="#A2C6D4"/>
<path d="M332.817 192.304C332.693 193.509 332.543 194.643 332.366 195.705C319.139 198.433 302.248 199.997 288.617 200.951H272.538C272.604 200.717 272.68 200.474 272.756 200.217C275.898 189.695 279.22 172.712 279.22 172.712C271.01 162.653 266.378 145.731 262.234 134.366C266.469 128.76 271.973 124.251 278.29 121.212L279.576 120.592C284.934 138.267 299.832 158.418 299.832 158.418L308.645 116.209L315.29 116.805C319.661 117.199 323.915 118.438 327.819 120.454C324.193 128.981 325.446 151.407 325.446 151.407C325.446 151.407 327.482 155.656 331.654 173.546C333.078 179.69 333.471 186.03 332.817 192.304Z" fill="#07364A"/>
<path d="M277.663 126.95C277.663 126.95 266.748 134.776 265.988 135.535" stroke="#A2C6D4" stroke-width="1.04" stroke-miterlimit="10"/>
<path d="M310.316 119.734C310.316 119.734 322.803 121.317 324.032 121.842" stroke="#A2C6D4" stroke-width="1.04" stroke-miterlimit="10"/>
<path d="M273.057 149.504L284.082 143.218L285.866 146.361L280.707 150.901L273.925 152.442L273.057 149.504Z" stroke="#A2C6D4" stroke-width="1.04" stroke-miterlimit="10"/>
<path d="M279.463 148.493L280.706 150.902" stroke="#A2C6D4" stroke-width="1.04" stroke-miterlimit="10"/>
<path d="M285.566 147.582L270.545 202.573L308.93 198.462L326.315 146.185L285.566 147.582Z" fill="white"/>
<path d="M299.398 152.257C299.484 151.607 299.175 151.029 298.707 150.967C298.24 150.904 297.791 151.381 297.705 152.031C297.619 152.681 297.928 153.259 298.396 153.321C298.863 153.384 299.312 152.907 299.398 152.257Z" stroke="black" stroke-width="1.04" stroke-miterlimit="10"/>
<path d="M314.416 151.557C314.502 150.907 314.193 150.329 313.725 150.267C313.257 150.204 312.808 150.68 312.722 151.331C312.636 151.981 312.946 152.559 313.413 152.621C313.881 152.684 314.33 152.207 314.416 151.557Z" stroke="black" stroke-width="1.04" stroke-miterlimit="10"/>
<path d="M324.031 166.511C318.811 164.995 305.612 166.511 305.612 166.511L304.81 176.298C304.736 177.181 304.973 178.061 305.479 178.786C305.986 179.511 306.731 180.033 307.582 180.262C311.379 181.282 317.824 182.518 321.345 180.347L324.031 166.511Z" fill="#FCC8B3"/>
<path d="M305.612 166.512L295.499 167.466C295.162 167.497 294.849 167.653 294.621 167.905C294.394 168.157 294.268 168.485 294.27 168.825C294.27 169.187 294.413 169.534 294.667 169.789C294.922 170.045 295.267 170.189 295.627 170.189H307.065L305.612 166.512Z" fill="#FCC8B3"/>
<path d="M305.612 170.689L295.499 171.643C295.162 171.675 294.85 171.833 294.622 172.084C294.395 172.335 294.269 172.663 294.27 173.003C294.27 173.364 294.413 173.711 294.667 173.967C294.922 174.223 295.267 174.367 295.627 174.367H307.065L305.612 170.689Z" fill="#FCC8B3"/>
<path d="M321.113 166.693C321.113 166.693 320.164 163.14 318.332 162.005C316.5 160.869 312.765 158.437 312.765 158.437C312.765 158.437 311.517 159.143 311.816 160.402C312.115 161.661 313.714 162.963 313.714 162.963L316.03 167.527L321.113 166.693Z" fill="#FCC8B3"/>
<path d="M350.629 158.571L342.917 136.155L329.884 160.603C324.498 162.51 323.24 165.806 323.24 165.806C323.24 165.806 322.822 172.888 322.367 175.202C321.346 180.314 318.936 181.516 318.936 181.516C325.21 188.251 333.207 192.009 339.69 189.114C350.553 186.863 354.303 170.69 350.629 158.571Z" fill="#FFE09C"/>
<path d="M329.885 160.617C329.885 160.617 338.617 156.458 345.124 163.001" stroke="#285DB9" stroke-width="1.04" stroke-miterlimit="10"/>
<path d="M306.24 206.216H205.734V284.61H306.24V206.216Z" fill="#FFBA82"/>
<path d="M263.602 206.216H248.367V239.325H263.602V206.216Z" fill="#E79763"/>
<path d="M182.388 215.607H87.3926V287.005H182.388V215.607Z" fill="#E29860"/>
<path d="M182.388 215.607H102.955V287.005H182.388V215.607Z" fill="#FFBA82"/>
<path d="M116.695 131.695C116.695 129.242 117.419 126.845 118.775 124.806C120.131 122.766 122.058 121.177 124.313 120.238C126.567 119.3 129.049 119.054 131.442 119.533C133.836 120.011 136.035 121.192 137.76 122.926C139.486 124.661 140.661 126.87 141.137 129.276C141.613 131.681 141.369 134.174 140.435 136.44C139.501 138.706 137.92 140.643 135.89 142.005C133.861 143.368 131.475 144.095 129.035 144.095C125.762 144.095 122.624 142.789 120.309 140.463C117.995 138.138 116.695 134.984 116.695 131.695ZM121.204 131.695C121.204 133.249 121.663 134.769 122.522 136.062C123.382 137.354 124.603 138.362 126.032 138.956C127.461 139.551 129.034 139.707 130.551 139.404C132.068 139.1 133.462 138.352 134.556 137.253C135.65 136.153 136.395 134.753 136.696 133.228C136.998 131.704 136.843 130.123 136.251 128.687C135.659 127.251 134.657 126.023 133.371 125.16C132.084 124.296 130.572 123.835 129.025 123.835C126.952 123.837 124.964 124.666 123.498 126.14C122.031 127.613 121.207 129.611 121.204 131.695Z" fill="#E79763"/>
<path d="M129.025 114.869C133.2 114.874 137.222 116.447 140.303 119.278C143.384 122.109 145.301 125.995 145.678 130.174C145.678 130.174 145.873 132.229 148.089 133.989L159.423 142.164C159.704 142.361 159.955 142.599 160.168 142.87C160.267 142.991 160.329 143.139 160.348 143.295C160.367 143.451 160.341 143.609 160.274 143.751C160.207 143.892 160.101 144.012 159.969 144.096C159.837 144.18 159.683 144.224 159.527 144.224H137.791C137.638 144.224 137.488 144.182 137.356 144.103C137.225 144.024 137.117 143.912 137.043 143.777C136.97 143.642 136.934 143.489 136.94 143.336C136.945 143.182 136.991 143.033 137.074 142.903C137.228 142.673 137.413 142.466 137.624 142.288C139.343 140.857 142.532 137.323 142.332 131.085C142.332 131.032 142.332 130.98 142.332 130.927C142.108 127.464 140.556 124.223 138.003 121.887C135.45 119.551 132.094 118.301 128.642 118.4C125.19 118.5 121.911 119.941 119.495 122.42C117.079 124.9 115.715 128.225 115.689 131.695C115.666 132.13 115.477 132.54 115.163 132.84C114.848 133.14 114.43 133.308 113.997 133.308C113.563 133.308 113.145 133.14 112.831 132.84C112.516 132.54 112.328 132.13 112.305 131.695C112.303 127.236 114.064 122.959 117.199 119.804C120.334 116.649 124.588 114.874 129.025 114.869Z" fill="#FF3C3A"/>
<path d="M129.03 138.62C132.849 138.62 135.945 135.509 135.945 131.671C135.945 127.833 132.849 124.722 129.03 124.722C125.211 124.722 122.115 127.833 122.115 131.671C122.115 135.509 125.211 138.62 129.03 138.62Z" stroke="#FF3C3A" stroke-width="1.12" stroke-miterlimit="10"/>
<path d="M175.995 144.486H81V215.884H175.995V144.486Z" fill="#E29860"/>
<path d="M160.471 144.486H81V215.884H160.471V144.486Z" fill="#FFBA82"/>
<path d="M129.144 144.882V178.711H128.237C127.573 177.638 126.766 176.327 126.605 175.983C126.443 175.64 126.201 177.367 126.059 178.711H125.228L123.961 175.983L122.742 178.711H121.56L121.18 177.662L120.312 178.711H118.527L118.119 177.662L115.029 178.711V144.882H129.144Z" fill="#E79763"/>
<path d="M199.256 259.147H143.344V271.595H199.256V259.147Z" fill="white"/>
<path d="M141.668 259.147H194.742C196.379 259.147 197.948 259.8 199.105 260.963C200.262 262.126 200.912 263.703 200.912 265.347V265.347C200.915 266.163 200.758 266.972 200.449 267.727C200.141 268.482 199.687 269.168 199.113 269.747C198.54 270.325 197.859 270.784 197.109 271.097C196.359 271.41 195.554 271.571 194.742 271.571H141.668" stroke="#0E85F8" stroke-width="5.26" stroke-miterlimit="10"/>
<path d="M143.344 263.606H181.449" stroke="#959CA3" stroke-width="0.44" stroke-miterlimit="10"/>
<path d="M143.344 266.12H181.449" stroke="#959CA3" stroke-width="0.44" stroke-miterlimit="10"/>
<path d="M143.344 268.638H164.345" stroke="#959CA3" stroke-width="0.44" stroke-miterlimit="10"/>
<path d="M153.613 273.317H191.068V285.765H153.613C152.615 285.765 151.658 285.366 150.952 284.657C150.246 283.948 149.85 282.986 149.85 281.983V277.099C149.85 276.096 150.246 275.134 150.952 274.425C151.658 273.715 152.615 273.317 153.613 273.317Z" fill="white"/>
<path d="M193.409 273.312H153.164C152.107 273.313 151.094 273.736 150.348 274.487C149.601 275.238 149.182 276.257 149.182 277.318V281.754C149.182 282.816 149.601 283.834 150.348 284.585C151.094 285.336 152.107 285.759 153.164 285.76H193.409" stroke="#FF5758" stroke-width="2.95" stroke-miterlimit="10"/>
<path d="M191.046 280.795H166.039" stroke="#959CA3" stroke-width="0.44" stroke-miterlimit="10"/>
<path d="M191.045 278.282H178.273" stroke="#959CA3" stroke-width="0.44" stroke-miterlimit="10"/>
<path d="M193.08 252.141H162.744" stroke="#959CA3" stroke-width="0.49" stroke-miterlimit="10"/>
<path d="M150.162 244.658H197.94V257.106H150.162C149.607 257.106 149.057 256.996 148.544 256.782C148.031 256.569 147.565 256.256 147.172 255.861C146.779 255.467 146.468 254.998 146.255 254.483C146.043 253.967 145.934 253.414 145.934 252.856V248.898C145.936 247.772 146.383 246.694 147.175 245.899C147.968 245.104 149.042 244.658 150.162 244.658Z" fill="white"/>
<path d="M200.912 244.658H150.13C147.354 244.658 145.1 246.451 145.1 248.659V253.099C145.1 255.312 147.354 257.101 150.13 257.101H200.912" stroke="#6F889B" stroke-width="4.51" stroke-miterlimit="10"/>
<path d="M197.941 249.623H158.326" stroke="#959CA3" stroke-width="0.5" stroke-miterlimit="10"/>
<path d="M190.243 251.721H150.633" stroke="#959CA3" stroke-width="0.5" stroke-miterlimit="10"/>
</g>
<defs>
<clipPath id="clip0_234_16131">
<rect width="271" height="216" fill="white" transform="translate(81 71)"/>
</clipPath>
</defs>
</svg>
