<svg width="471" height="120" viewBox="0 0 471 120" fill="none" xmlns="http://www.w3.org/2000/svg">
<g clip-path="url(#clip0_234_17925)">
<path d="M95.0002 38.2667C94.9689 47.9319 93.29 57.5195 90.0372 66.6088C87.079 75.5009 81.8987 83.4705 74.9977 89.7459C65.4933 97.9279 53.2981 102.212 40.8204 101.751C30.1665 102.341 19.6993 98.7473 11.6062 91.7214C4.38719 85.0601 0.777685 75.4989 0.777685 63.0375C0.750981 53.9727 2.2906 44.9729 5.32716 36.4431C8.29378 28.0667 13.1763 20.5166 19.5771 14.4077C24.3459 9.78929 29.9861 6.18816 36.1614 3.81883C42.3367 1.44949 48.9209 0.360526 55.5215 0.616733C67.8539 0.616733 77.5418 3.82072 84.5853 10.2287C91.5035 16.6873 95.0002 26.0333 95.0002 38.2667ZM70.4858 38.8746C70.4858 24.9442 64.8711 17.9664 53.6416 17.9411C49.9672 17.8807 46.3338 18.7283 43.0574 20.4101C39.7811 22.0919 36.9609 24.5569 34.8422 27.5909C31.4272 32.4659 28.976 37.9614 27.6232 43.7756C26.0495 49.8687 25.2162 56.1329 25.1417 62.4296C24.7205 68.2683 26.3883 74.0655 29.8415 78.7661C31.4544 80.5985 33.454 82.0414 35.6926 82.9883C37.9313 83.9352 40.3518 84.3619 42.7755 84.237C45.9243 84.294 49.046 83.6417 51.9141 82.3274C54.7822 81.0131 57.3246 79.0697 59.3566 76.6386C63.3711 71.6403 66.1315 65.7361 67.4027 59.4282C69.2672 52.7321 70.3027 45.8282 70.4858 38.8746Z" fill="white" fill-opacity="0.17"/>
<path d="M178.244 55.0212C178.244 69.2809 174.672 80.6025 167.528 88.986C160.46 97.4962 149.97 101.751 135.945 101.751C127.391 102.283 118.963 99.467 112.409 93.887C109.583 91.2006 107.364 87.9293 105.904 84.2969C104.444 80.6644 103.777 76.7562 103.949 72.8394C103.425 60.6703 107.345 48.7311 114.965 39.2926C122.485 30.6304 132.938 26.2614 146.511 26.2614C154.96 25.7543 163.291 28.4653 169.86 33.8598C172.697 36.558 174.917 39.8495 176.365 43.5045C177.814 47.1596 178.455 51.0899 178.244 55.0212ZM155.685 56.8068C155.685 47.4355 151.925 42.7372 144.405 42.7118C141.693 42.727 139.039 43.5159 136.751 44.9879C134.463 46.4599 132.633 48.5551 131.471 51.0321C128.235 57.0787 126.627 63.8782 126.809 70.7499C126.375 74.7948 127.448 78.8578 129.817 82.1475C130.957 83.2876 132.325 84.1687 133.829 84.7321C135.334 85.2955 136.94 85.5283 138.54 85.4148C141.304 85.3458 143.989 84.4744 146.276 82.9047C148.563 81.335 150.354 79.1334 151.436 76.5627C154.519 70.5161 155.959 63.7514 155.61 56.9588L155.685 56.8068Z" fill="white" fill-opacity="0.17"/>
<path d="M216.67 113.947L213.323 129.676H172.491L175.725 113.947H183.808L196.855 51.222C197.129 49.807 197.28 48.3705 197.306 46.9289C197.376 46.4436 197.332 45.9487 197.179 45.4835C197.026 45.0183 196.767 44.5957 196.424 44.249C196.081 43.9023 195.663 43.6413 195.202 43.4865C194.742 43.3318 194.252 43.2877 193.772 43.3577C192.687 43.3557 191.604 43.4574 190.539 43.6616L193.922 28.0849C198.25 27.0024 202.7 26.5042 207.157 26.6033C210.661 26.3631 214.156 27.1831 217.196 28.9587C218.356 29.9181 219.265 31.1511 219.842 32.5491C220.419 33.9471 220.646 35.4671 220.505 36.975C220.557 37.5183 220.557 38.0654 220.505 38.6087C222.779 34.7285 226.056 31.5468 229.984 29.4051C233.912 27.2634 238.342 26.2423 242.801 26.4513C257.991 26.4513 265.573 34.9994 265.548 52.0958C265.71 64.1288 262.234 75.9252 255.584 85.9087C252.083 90.918 247.389 94.9554 241.936 97.6482C235.938 100.575 229.346 102.045 222.685 101.941C216.256 101.941 211.782 100.384 209.338 97.3443L205.804 113.947H216.67ZM216.67 61.4418C215.718 65.4787 215.176 69.6033 215.053 73.7513C214.769 76.8693 215.64 79.9827 217.497 82.4894C218.492 83.4481 219.676 84.1839 220.972 84.6487C222.268 85.1135 223.646 85.2969 225.017 85.1868C226.929 85.1182 228.8 84.598 230.478 83.6678C232.155 82.7375 233.595 81.4232 234.68 79.8299C240.109 72.7138 242.867 63.8834 242.462 54.9072C242.462 46.9289 239.455 42.9017 233.364 42.9017C224.992 42.7751 219.377 48.8919 216.519 61.2519L216.67 61.4418Z" fill="white" fill-opacity="0.17"/>
<path d="M272.466 75.043L292.694 74.1692C292.603 75.104 292.603 76.0456 292.694 76.9805C292.694 82.7173 296.83 85.5667 305.027 85.5667C312.546 85.5667 316.306 83.4392 316.306 79.1841C316.306 76.2207 314.201 74.2452 309.99 73.2574L297.206 69.99C292.048 68.8268 287.28 66.3258 283.37 62.7335C281.836 61.0962 280.648 59.1604 279.879 57.0441C279.11 54.9278 278.775 52.6754 278.896 50.4242C278.712 46.8519 279.472 43.2946 281.097 40.1168C282.723 36.939 285.155 34.255 288.145 32.3399C295.017 28.1096 302.962 25.9972 311.005 26.2613C331.258 26.2613 341.397 33.1758 341.422 47.0049C341.456 48.8967 341.356 50.7885 341.121 52.6657L321.457 52.6657C321.539 52.0225 321.539 51.3713 321.457 50.728C321.457 44.9913 317.698 42.1419 310.178 42.1419C303.598 42.1419 300.327 44.1555 300.327 48.2207C300.327 50.9941 302.357 52.8937 306.343 53.9954L319.991 57.7946C325.249 58.9156 330.147 61.3444 334.241 64.8611C335.669 66.4475 336.767 68.3073 337.471 70.3303C338.175 72.3533 338.47 74.4983 338.339 76.6386C338.594 82.0449 336.822 87.3495 333.376 91.4935C327.486 98.2814 317.547 101.688 303.56 101.713C292.506 101.713 284.485 99.6365 279.497 95.4827C277.227 93.717 275.387 91.4504 274.116 88.8562C272.845 86.2619 272.178 83.4085 272.165 80.5139C272.129 78.6852 272.23 76.8564 272.466 75.043Z" fill="white" fill-opacity="0.17"/>
<path d="M386.616 86.4405C386.675 88.4327 386.339 90.4166 385.629 92.2759C384.919 94.1352 383.848 95.8324 382.48 97.2681C381.095 98.7091 379.424 99.8394 377.578 100.586C375.732 101.332 373.751 101.677 371.765 101.599C370.127 101.679 368.49 101.424 366.953 100.85C365.415 100.275 364.008 99.393 362.816 98.256C361.671 97.0854 360.78 95.6875 360.197 94.1507C359.615 92.6139 359.354 90.9716 359.432 89.3278C359.343 87.2334 359.677 85.1426 360.413 83.183C361.15 81.2234 362.275 79.436 363.718 77.9302C365.086 76.5054 366.731 75.3818 368.549 74.63C370.367 73.8781 372.32 73.5142 374.284 73.5612C375.93 73.4829 377.576 73.7497 379.116 74.3446C380.655 74.9396 382.057 75.8499 383.232 77.0185C384.396 78.277 385.296 79.7606 385.878 81.3799C386.459 82.9991 386.71 84.7206 386.616 86.4405Z" fill="white" fill-opacity="0.17"/>
<path d="M387.067 64.8991H366.952C372.968 28.0215 376.728 6.5941 378.232 0.616699L403.085 0.616699C403.085 0.616699 402.596 3.01018 401.581 7.49324C400.565 11.9763 398.761 19.5366 396.166 30.0984C393.572 40.6602 390.451 52.2477 387.067 64.8991Z" fill="white" fill-opacity="0.17"/>
<path d="M436.547 94.495H416.733C417.109 91.6836 417.335 89.898 417.335 89.1761C418.011 83.6293 421.846 78.6144 428.614 73.9793C433.154 71.2921 437.283 67.9517 440.871 64.0634C443.171 61.551 444.505 58.2895 444.631 54.8694C444.631 49.2086 441.548 46.3971 435.344 46.3971C433.692 46.3401 432.047 46.6509 430.527 47.3074C429.006 47.9639 427.647 48.9502 426.546 50.1963C424.139 53.2109 422.814 56.9606 422.786 60.834H400.716C401.18 51.9144 404.984 43.5069 411.356 37.317C417.748 31.1623 426.91 28.085 438.841 28.085C459.621 28.085 470.023 35.4554 470.048 50.1963C470.314 56.3083 468.331 62.3034 464.483 67.0267C459.558 72.4373 453.839 77.0503 447.526 80.7039C444.513 82.3678 441.784 84.51 439.443 87.0486C437.958 89.2911 436.97 91.8311 436.547 94.495Z" fill="white" fill-opacity="0.17"/>
<path d="M437.224 114.327C437.306 116.344 436.988 118.357 436.291 120.248C435.594 122.14 434.531 123.872 433.164 125.344C431.79 126.79 430.127 127.924 428.286 128.671C426.445 129.417 424.468 129.76 422.486 129.675C420.831 129.753 419.178 129.498 417.622 128.924C416.067 128.35 414.64 127.469 413.424 126.332C412.279 125.154 411.386 123.75 410.804 122.207C410.222 120.664 409.962 119.015 410.04 117.366C409.947 115.265 410.287 113.167 411.037 111.205C411.788 109.243 412.934 107.46 414.402 105.968C415.785 104.54 417.442 103.412 419.272 102.655C421.101 101.897 423.065 101.525 425.042 101.561C426.681 101.487 428.316 101.759 429.845 102.361C431.373 102.963 432.759 103.881 433.916 105.057C436.191 107.581 437.381 110.916 437.224 114.327Z" fill="white" fill-opacity="0.17"/>
</g>
<defs>
<clipPath id="clip0_234_17925">
<rect width="469.082" height="128.869" fill="white" transform="translate(0.927734 0.616699)"/>
</clipPath>
</defs>
</svg>
