<svg width="51" height="48" viewBox="0 0 51 48" fill="none" xmlns="http://www.w3.org/2000/svg">
<g clip-path="url(#clip0_340_2241)">
<path d="M19.5501 5.84321V3.22166C19.5513 2.84705 19.703 2.48803 19.9721 2.22271C20.2412 1.95739 20.606 1.80723 20.9872 1.80485H44.467C44.849 1.80604 45.215 1.9557 45.4851 2.22114C45.7552 2.48659 45.9075 2.84627 45.9087 3.22166V16.2301C45.9075 16.6055 45.7552 16.9652 45.4851 17.2306C45.215 17.4961 44.849 17.6457 44.467 17.6469H42.0658V22.3531L39.0677 20.5482C39.0861 21.2339 39.0538 21.9201 38.9712 22.6012L43.9023 25.5612V19.4518H44.467C45.3361 19.4506 46.1692 19.1108 46.7837 18.5069C47.3982 17.9029 47.744 17.0842 47.7452 16.2301V3.22166C47.744 2.36759 47.3982 1.54884 46.7837 0.944919C46.1692 0.341 45.3361 0.00119367 44.467 0H20.9872C20.1181 0.00119367 19.285 0.341 18.6705 0.944919C18.056 1.54884 17.7102 2.36759 17.709 3.22166V6.41171C18.3093 6.18276 18.9244 5.99286 19.5501 5.84321Z" fill="#AAAAAA"/>
<path d="M10.0274 29.0312L5.67942 31.6392V26.9331H3.27817C2.89619 26.9319 2.5302 26.7822 2.2601 26.5168C1.98999 26.2513 1.83772 25.8916 1.83651 25.5162V12.5123C1.83651 12.1361 1.98825 11.7753 2.25848 11.5088C2.52872 11.2424 2.8954 11.0922 3.27817 11.091H11.1568C11.6941 10.4437 12.2837 9.84009 12.9199 9.28613H3.27817C2.40832 9.28733 1.57452 9.62775 0.959871 10.2326C0.345225 10.8375 -8.50749e-07 11.6574 0 12.5123V25.5162C0 26.3707 0.345374 27.1901 0.960151 27.7943C1.57493 28.3985 2.40874 28.7379 3.27817 28.7379H3.8429V34.8609L11.0971 30.5021C10.7113 30.033 10.3541 29.5418 10.0274 29.0312Z" fill="#AAAAAA"/>
<path d="M40.7293 32.2661C40.4132 31.9374 40.0304 31.6776 39.6057 31.5035C39.181 31.3294 38.7238 31.2449 38.2637 31.2554C37.446 31.2492 36.6456 31.4868 35.9681 31.9367L33.8148 29.825C36.2063 27.1529 37.447 23.6717 37.2748 20.117C37.1026 16.5624 35.5311 13.2128 32.8921 10.7759C30.2532 8.33907 26.7536 7.0059 23.1329 7.05812C19.5122 7.11034 16.054 8.54385 13.489 11.0557C10.9239 13.5676 9.45304 16.9612 9.38708 20.5193C9.32113 24.0773 10.6653 27.5212 13.1355 30.1233C15.6058 32.7253 19.0086 34.2817 22.6249 34.4634C26.2413 34.6452 29.7879 33.4382 32.5154 31.0974L34.6688 33.2136C34.2117 33.8663 33.9697 34.6413 33.9755 35.4336C33.9635 35.8926 34.0487 36.349 34.2257 36.7739C34.4028 37.1988 34.6678 37.5829 35.0039 37.9017L44.2508 46.9892C44.5694 47.3145 44.9527 47.5721 45.3768 47.746C45.8009 47.9198 46.2568 48.0063 46.7163 47.9999H46.8035C47.9189 47.962 48.9771 47.5053 49.7603 46.7239C50.5435 45.9424 50.9921 44.8957 51.0137 43.7991C51.0223 43.3435 50.9349 42.8911 50.7571 42.4703C50.5794 42.0494 50.315 41.6692 49.9807 41.3535L40.7293 32.2661ZM14.8482 29.2069C12.8779 27.2696 11.652 24.7209 11.3794 21.995C11.1068 19.269 11.8043 16.5345 13.3531 14.2573C14.9019 11.9801 17.2063 10.3012 19.8735 9.50641C22.5407 8.71166 25.4058 8.85032 27.9806 9.89877C30.5555 10.9472 32.6808 12.8406 33.9945 15.2563C35.3082 17.672 35.7289 20.4606 35.1851 23.1471C34.6413 25.8335 33.1665 28.2515 31.012 29.9891C28.8576 31.7268 26.1567 32.6766 23.3696 32.6767C21.7845 32.6839 20.2138 32.3808 18.7491 31.7851C17.2845 31.1893 15.9553 30.3129 14.839 29.2069H14.8482ZM49.1726 43.8216C49.1689 44.131 49.1015 44.4363 48.9744 44.7194C48.8474 45.0024 48.6634 45.2573 48.4334 45.4686C48.2097 45.6957 47.9423 45.8768 47.6467 46.0015C47.3512 46.1262 47.0333 46.192 46.7117 46.195C46.4943 46.1953 46.2791 46.1527 46.0788 46.0697C45.8785 45.9868 45.6972 45.8652 45.5455 45.7122L36.2987 36.6248C36.1346 36.4723 36.0055 36.2871 35.92 36.0817C35.8345 35.8763 35.7945 35.6554 35.8028 35.4336C35.8076 35.1244 35.8755 34.8194 36.0025 34.5365C36.1295 34.2536 36.3129 33.9986 36.542 33.7867C36.7641 33.5575 37.0312 33.375 37.3272 33.2502C37.6231 33.1253 37.9417 33.0607 38.2637 33.0602C38.4823 33.0567 38.6991 33.0978 38.9007 33.1809C39.1022 33.264 39.284 33.3873 39.4345 33.543L48.6768 42.6304C48.8369 42.7773 48.9639 42.9557 49.0493 43.1539C49.1347 43.3521 49.1768 43.5658 49.1726 43.781V43.8216Z" fill="#AAAAAA"/>
<path d="M30.1381 17.5929L28.8388 16.3159L21.3183 23.7113L17.8794 20.3317L16.5801 21.6086L21.3183 26.2652L30.1381 17.5929Z" fill="#AAAAAA"/>
</g>
<defs>
<clipPath id="clip0_340_2241">
<rect width="51" height="48" fill="white"/>
</clipPath>
</defs>
</svg>
