<svg width="240" height="261" viewBox="0 0 240 261" fill="none" xmlns="http://www.w3.org/2000/svg">
<g filter="url(#filter0_d_503_2319)">
<rect x="10" y="10" width="216" height="237" rx="10" fill="#FBFBFB"/>
</g>
<path d="M73.7159 182.029H72.3485V183.463H67.0395V184.587H79.0509V183.463H73.7159V182.029ZM67.6507 181.765L68.1065 182.811C70.4217 182.609 72.3434 181.765 73.0426 180.454C73.7367 181.765 75.6583 182.609 77.9735 182.811L78.4293 181.765C76.0571 181.599 74.2132 180.713 73.9853 179.579H77.9476V178.496H68.1531V179.579H72.0896C71.8513 180.708 69.9867 181.599 67.6507 181.765ZM68.1635 187.27H77.9166V186.203H73.7263V185.054H72.3434V186.203H68.1635V187.27ZM69.044 189.565C69.044 190.71 70.4684 191.305 73.0219 191.305C75.565 191.305 77.0257 190.71 77.0257 189.565C77.0257 188.431 75.565 187.835 73.0219 187.83C70.4684 187.835 69.044 188.431 69.044 189.565ZM70.4684 189.565C70.458 189.037 71.38 188.788 73.0219 188.783C74.6897 188.788 75.5858 189.037 75.5961 189.565C75.5858 190.088 74.6897 190.368 73.0219 190.357C71.38 190.368 70.458 190.088 70.4684 189.565ZM91.9889 184.971H80.0241V186.084H91.9889V184.971ZM81.3034 181.184C81.3034 182.842 83.1422 183.842 85.9961 183.842C88.8397 183.842 90.6784 182.842 90.6784 181.184C90.6784 179.537 88.8397 178.548 85.9961 178.558C83.1422 178.548 81.3034 179.537 81.3034 181.184ZM81.5313 190.974H90.6422V189.834H82.9298V187.151H81.5313V190.974ZM82.7485 181.184C82.7382 180.242 83.9864 179.672 85.9961 179.672C88.0058 179.672 89.2541 180.242 89.2541 181.184C89.2541 182.153 88.0058 182.707 85.9961 182.707C83.9864 182.707 82.7382 182.153 82.7485 181.184ZM107.936 178.118H106.6V183.256H104.984V178.372H103.663V190.596H104.984V184.406H106.6V191.243H107.936V178.118ZM97.0903 187.783H102.187V179.594H97.0903V187.783ZM98.4007 186.68V180.698H100.882V186.68H98.4007ZM121.579 183.551H109.614V184.66H114.882V185.81H111.038V186.872H118.694V187.876H111.064V191.119H120.439V190.041H112.426V188.886H120.061V185.81H116.275V184.66H121.579V183.551ZM111.142 182.583H120.035V178.538H111.142V182.583ZM112.504 181.49V179.636H118.647V181.49H112.504ZM128.55 178.336C125.592 178.336 123.857 179.133 123.857 180.589C123.857 182.065 125.592 182.863 128.55 182.873C131.507 182.863 133.232 182.065 133.232 180.589C133.232 179.133 131.507 178.336 128.55 178.336ZM122.578 184.784H134.543V183.671H122.578V184.784ZM124.002 186.835H131.658V187.866H124.028V191.119H133.403V190.041H125.39V188.866H133.025V185.794H124.002V186.835ZM125.313 180.589C125.302 179.822 126.462 179.366 128.55 179.372C130.653 179.366 131.808 179.822 131.808 180.589C131.808 181.407 130.653 181.827 128.55 181.827C126.462 181.827 125.302 181.407 125.313 180.589ZM142.762 179.102C140.799 179.107 139.421 180.894 139.432 183.707C139.421 186.535 140.799 188.322 142.762 188.322C144.591 188.322 145.916 186.732 146.062 184.173H148.77V191.269H150.148V178.118H148.77V183.039H146.051C145.844 180.615 144.539 179.107 142.762 179.102ZM140.758 183.707C140.758 181.64 141.571 180.356 142.762 180.345C143.943 180.356 144.761 181.64 144.761 183.707C144.761 185.789 143.943 187.074 142.762 187.074C141.571 187.074 140.758 185.789 140.758 183.707ZM163.04 178.118H161.641V191.269H163.04V178.118ZM153.002 188.052H154.089C156.803 188.047 158.518 187.97 160.476 187.612L160.336 186.452C158.487 186.789 156.886 186.861 154.4 186.866V180.49H159.29V179.34H153.002V188.052ZM169.866 181.459V179.211H168.457V181.459C168.446 183.888 167.089 186.421 165.059 187.395L165.94 188.513C167.447 187.731 168.591 186.136 169.172 184.246C169.746 186.043 170.876 187.524 172.373 188.275L173.212 187.156C171.207 186.255 169.86 183.862 169.866 181.459ZM171.772 183.608H174.698V191.269H176.076V178.118H174.698V182.479H171.772V183.608ZM56.7622 202.832V202.682H59.611V201.563H56.7829V200.061H55.3793V201.563H52.5253V202.682H55.3793V202.832C55.3793 204.464 54.1362 205.94 52.1265 206.515L52.7998 207.613C54.3537 207.131 55.5087 206.121 56.0889 204.826C56.6741 206.002 57.7981 206.924 59.3209 207.354L59.9528 206.292C57.9483 205.728 56.7622 204.319 56.7622 202.832ZM53.4317 212.124L53.9445 213.181C55.9283 212.87 57.5599 211.974 58.3161 210.726C59.0723 211.979 60.709 212.896 62.7032 213.207L63.2159 212.129C61.025 211.808 59.3364 210.7 59.0826 209.472H62.6824V208.354H53.9601V209.472H57.5547C57.3009 210.726 55.6279 211.803 53.4317 212.124ZM61.082 207.701H62.4753V204.417H64.3761V203.262H62.4753V200.118H61.082V207.701ZM68.6384 201.102C66.6753 201.107 65.2768 202.894 65.2872 205.707C65.2768 208.535 66.6753 210.322 68.6384 210.322C70.6014 210.322 71.9999 208.535 72.0103 205.707C71.9999 202.894 70.6014 201.107 68.6384 201.102ZM66.6132 205.707C66.6132 203.64 67.4419 202.356 68.6384 202.345C69.8607 202.356 70.6687 203.64 70.6739 205.707C70.6687 207.789 69.8607 209.074 68.6384 209.074C67.4419 209.074 66.6132 207.789 66.6132 205.707ZM73.9578 213.243H75.3511V206.437H77.454V205.261H75.3511V200.118H73.9578V213.243ZM81.6022 201.102C79.6392 201.107 78.2407 202.894 78.2511 205.707C78.2407 208.535 79.6392 210.322 81.6022 210.322C83.5653 210.322 84.9638 208.535 84.9741 205.707C84.9638 202.894 83.5653 201.107 81.6022 201.102ZM79.577 205.707C79.577 203.64 80.4057 202.356 81.6022 202.345C82.8246 202.356 83.6326 203.64 83.6378 205.707C83.6326 207.789 82.8246 209.074 81.6022 209.074C80.4057 209.074 79.577 207.789 79.577 205.707ZM86.9216 213.243H88.3149V208.385H90.3505V207.235H88.3149V204.51H90.3505V203.335H88.3149V200.118H86.9216V213.243ZM105.029 200.077H103.636V207.292H105.029V204.288H106.94V203.153H105.029V200.077ZM94.732 202.325H102.543V201.237H99.3366V199.999H97.9537V201.237H94.732V202.325ZM95.4468 204.977C95.4416 206.318 96.7106 207.126 98.6426 207.126C100.564 207.126 101.818 206.318 101.823 204.977C101.818 203.656 100.564 202.827 98.6426 202.827C96.7106 202.827 95.4416 203.656 95.4468 204.977ZM96.5397 208.944H103.646V209.975H96.5707V213.119H105.474V212.062H97.9381V210.964H105.029V207.919H96.5397V208.944ZM96.7883 204.977C96.7779 204.272 97.5082 203.832 98.6426 203.832C99.7665 203.832 100.497 204.272 100.507 204.977C100.497 205.691 99.7665 206.106 98.6426 206.111C97.5082 206.106 96.7779 205.691 96.7883 204.977ZM112.508 203.992V202.589H115.501V201.439H108.105V202.589H111.099V203.992C111.088 206.246 109.623 208.716 107.644 209.638L108.457 210.736C109.98 209.996 111.213 208.4 111.824 206.536C112.435 208.276 113.658 209.726 115.206 210.41L115.968 209.312C113.948 208.452 112.508 206.183 112.508 203.992ZM117.154 213.243H118.552V200.118H117.154V213.243ZM136.318 210.456H130.967V207.421H134.878V201.17H125.674V207.421H129.589V210.456H124.306V211.606H136.318V210.456ZM127.036 206.318V202.294H133.516V206.318H127.036ZM149.282 210.488H137.27V211.637H149.282V210.488ZM138.705 202.216H146.438V204.06H138.731V208.224H148.116V207.116H140.114V205.184H147.811V201.081H138.705V202.216ZM156.046 201.066H150.918V202.2H154.606C154.357 204.288 152.922 205.893 150.322 206.934L151.027 207.97C152.834 207.204 154.155 206.173 154.989 204.883H157.439V207.478H158.754V200.403H157.439V203.759H155.564C155.885 202.946 156.046 202.045 156.046 201.066ZM150.949 212.155L151.648 213.181C152.886 212.715 153.751 211.834 154.222 210.788C154.621 211.871 155.408 212.808 156.667 213.285C157.889 212.782 158.666 211.808 159.076 210.752C159.531 211.834 160.417 212.725 161.712 213.181L162.39 212.155C160.692 211.606 159.775 210.254 159.785 208.897V208.105H158.428V208.897C158.418 209.882 157.838 211.151 156.636 211.938C155.45 211.218 154.89 210.037 154.901 208.897V208.105H153.57V208.897C153.57 210.166 152.627 211.56 150.949 212.155ZM160.101 207.68H161.417V200.128H160.101V207.68ZM166.756 201.102C164.793 201.107 163.415 202.894 163.426 205.707C163.415 208.535 164.793 210.322 166.756 210.322C168.585 210.322 169.911 208.732 170.056 206.173H172.765V213.269H174.142V200.118H172.765V205.039H170.045C169.838 202.615 168.533 201.107 166.756 201.102ZM164.752 205.707C164.752 203.64 165.565 202.356 166.756 202.345C167.937 202.356 168.756 203.64 168.756 205.707C168.756 207.789 167.937 209.074 166.756 209.074C165.565 209.074 164.752 207.789 164.752 205.707ZM188.173 210.456H185.293V206.997C186.35 206.401 186.987 205.474 186.987 204.314C186.987 202.247 184.957 200.89 182.134 200.879C179.321 200.89 177.296 202.247 177.296 204.314C177.296 205.489 177.954 206.432 179.036 207.022V210.456H176.162V211.606H188.173V210.456ZM178.648 204.314C178.648 202.894 180.078 201.993 182.134 202.003C184.18 201.993 185.63 202.894 185.63 204.314C185.63 205.717 184.18 206.634 182.134 206.634C180.078 206.634 178.648 205.717 178.648 204.314ZM180.404 210.456V207.535C180.932 207.654 181.512 207.722 182.134 207.722C182.761 207.722 183.351 207.654 183.89 207.53V210.456H180.404ZM190.571 212.098C191.135 212.098 191.612 211.632 191.612 211.062C191.612 210.493 191.135 210.027 190.571 210.027C190.001 210.027 189.524 210.493 189.535 211.062C189.524 211.632 190.001 212.098 190.571 212.098Z" fill="#191919"/>
<g clip-path="url(#clip0_503_2319)">
<path d="M107.385 52.1184L107.948 50.9802C108.227 50.3707 108.604 49.8112 109.065 49.3252C109.502 48.9205 110.068 48.6879 110.657 48.6703L112.069 48.533C112.42 48.5004 112.768 48.4395 113.11 48.3511C113.458 48.2636 113.785 48.1045 114.071 47.8838C114.306 47.6728 114.496 47.4151 114.629 47.1272C114.736 46.9366 114.799 46.724 114.811 46.5062C114.824 46.2884 114.786 46.0713 114.701 45.8721C114.526 45.4732 114.214 45.1536 113.821 44.972C113.422 44.7664 112.972 44.677 112.522 44.7135C112.098 44.746 111.7 44.9459 111.416 45.27C111.093 45.639 110.65 45.8785 110.17 45.9442C109.659 45.9949 109.148 45.8728 108.718 45.5972C108.517 45.4817 108.336 45.3335 108.183 45.1585C108.029 44.9869 107.914 44.7833 107.844 44.5616C107.775 44.3291 107.753 44.0844 107.779 43.8417C107.808 43.5569 107.897 43.2808 108.04 43.0318C108.33 42.4725 108.761 41.9995 109.289 41.6615C109.841 41.3107 110.455 41.0736 111.095 40.9642C111.801 40.8458 112.52 40.8437 113.223 40.9581C113.997 41.0821 114.746 41.3244 115.445 41.6767C116.159 42.0213 116.819 42.4684 117.404 43.0041C117.923 43.4768 118.34 44.0511 118.633 44.693C118.909 45.3212 119.035 46.008 119.001 46.6986C118.952 47.4895 118.737 48.2631 118.37 48.9681C118.106 49.5299 117.756 50.0476 117.335 50.5023C116.948 50.9037 116.487 51.224 115.978 51.4446C115.487 51.6447 114.98 51.7989 114.463 51.9052C113.892 52.0264 113.305 52.1233 112.707 52.1985C112.428 52.2182 112.16 52.3248 111.941 52.5036C111.758 52.6774 111.609 52.8837 111.5 53.112L111.085 53.952L107.385 52.1184ZM105.909 54.8255C106.02 54.5649 106.183 54.3299 106.389 54.1357C106.594 53.9416 106.837 53.7925 107.101 53.6982C107.678 53.5726 108.277 53.6457 108.803 53.9057C109.328 54.1657 109.75 54.5976 110 55.1323C110.144 55.6739 110.086 56.2532 109.835 56.7597C109.585 57.2661 109.16 57.6642 108.642 57.878C108.065 58.0035 107.466 57.9305 106.94 57.6705C106.415 57.4105 105.993 56.9786 105.743 56.4439C105.659 56.1786 105.631 55.898 105.659 55.6196C105.688 55.3411 105.773 55.0708 105.909 54.8255Z" fill="#FFB50F"/>
</g>
<path d="M155.858 142H177.715V97.6645L155.858 89.4155V142Z" fill="#98B0D8" fill-opacity="0.5"/>
<path d="M121.858 85.3711H152.215V142H121.858V85.3711Z" fill="#98B0D8" fill-opacity="0.5"/>
<path d="M165.571 104.787H185V142H165.571V104.787Z" fill="#A2B7DE"/>
<path d="M99.999 78.0234H117.781V141.482H99.999V78.0234Z" fill="#98B0D8" fill-opacity="0.5"/>
<path d="M104.203 70V82.2636" stroke="#CEDCF3" stroke-opacity="0.4" stroke-width="1.42" stroke-miterlimit="10"/>
<path d="M130.357 95.0786H158.285V142H130.357V95.0786Z" fill="#A2B7DE"/>
<path d="M104.248 142H125.727V98.0068L104.248 104.931V142Z" fill="#A2B7DE"/>
<g clip-path="url(#clip1_503_2319)">
<path d="M65.94 85.0615L53.6848 90.0893C52.1678 90.711 50.8932 91.8131 50.0538 93.2288C49.2145 94.6445 48.8561 96.2968 49.0329 97.9358L57.2198 143H97.5567L98.1934 89.9825L82.4311 85.1543L65.94 85.0615Z" fill="#FFB50F"/>
<path d="M96.5391 121.164C96.5391 121.164 72.5536 132.478 64.2131 132.498C57.7546 132.515 55.2779 123.895 55.2779 123.895L96.5391 121.164Z" fill="#CD9518"/>
<path d="M97.5657 89.6733L97.7193 89.7099C99.5062 90.129 101.123 91.0895 102.35 92.4619C103.578 93.8342 104.358 95.5525 104.585 97.385L105.965 108.517L96.5382 95.547L97.5657 89.6733Z" fill="#FFB50F"/>
<path d="M70.7172 69.2056C70.7172 69.2056 69.0977 82.3299 65.9341 85.0756C65.9341 85.0756 71.7308 94.7292 78.3931 94.5409C85.0554 94.3526 88.166 87.0626 88.166 87.0626L82.4307 85.1684L83.0869 79.4887L70.7172 69.2056Z" fill="#FCC8B3"/>
<path d="M74.1321 77.2882C74.3918 80.8686 79.1303 89.547 82.897 93.1808C86.4711 91.028 88.166 87.0458 88.166 87.0458L82.4307 85.1572L83.0897 79.4747L78.0218 75.2591L76.7569 74.9106L74.1321 77.2882Z" fill="#FCA886"/>
<path d="M98.9722 113.817C98.1871 113.38 97.297 113.17 96.4005 113.21C90.0844 113.491 63.8149 114.635 60.9835 115.804C57.7752 117.13 54.6451 121.315 55.2873 123.895C55.9295 126.475 60.7937 129.482 65.3395 128.751C69.8852 128.021 96.5234 121.163 96.5234 121.163C96.5234 121.163 98.7237 124.193 100.55 123.842C102.376 123.49 108.229 118.971 108.229 118.971L98.9722 113.817Z" fill="#FCC8B3"/>
<path d="M69.4384 51.4694C69.9103 51.3767 70.022 50.0305 70.036 49.8226C69.2457 49.5078 68.1679 49.1706 68.1679 49.1706C69.3351 48.2685 71.0607 48.7631 71.0607 48.7631C71.1249 47.1499 73.543 45 73.543 45C73.2247 45.3513 72.3898 47.4984 72.4596 49.0582C73.3559 49.1678 74.7856 48.7771 76.729 47.2033C80.4483 44.2075 85.6642 47.1499 85.9434 49.8451C86.1417 51.6662 87.7779 52.6385 89.5734 52.7397C91.3688 52.8409 94.8395 53.6728 95.0266 57.6663C95.3338 64.1666 90.6232 63.4781 90.6232 63.4781L67.1962 65.5493C67.1962 65.5493 64.0884 60.6621 64.0884 57.0059C64.0884 53.3496 68.9302 51.5706 69.4384 51.4694Z" fill="#395D6C"/>
<path d="M90.625 61.8005C89.913 68.5454 87.9277 80.3067 84.8171 81.8609C82.3041 83.1115 73.8659 78.9774 72.1403 77.19C70.4146 75.4027 71.2216 65.8334 71.2216 65.8334L75.2871 53.3076L90.625 61.8005Z" fill="#FCC8B3"/>
<path d="M80.4896 68.4626C80.0805 68.4325 79.7886 67.8597 79.8378 67.1833C79.8869 66.5068 80.2584 65.9828 80.6675 66.0129C81.0766 66.043 81.3684 66.6158 81.3193 67.2922C81.2701 67.9687 80.8987 68.4927 80.4896 68.4626Z" fill="black"/>
<path d="M88.0833 69.2365C87.6742 69.2064 87.3823 68.6337 87.4315 67.9572C87.4806 67.2807 87.8521 66.7567 88.2612 66.7868C88.6703 66.8169 88.9621 67.3897 88.913 68.0662C88.8639 68.7426 88.4924 69.2666 88.0833 69.2365Z" fill="black"/>
<path d="M83.8611 63.1972L79.1311 62.978C79.0305 62.9711 78.9311 63.0031 78.8531 63.0674C78.7752 63.1317 78.7245 63.2234 78.7113 63.324C78.6981 63.4246 78.7235 63.5265 78.7823 63.6089C78.8411 63.6913 78.9289 63.7481 79.0278 63.7677L83.6517 64.7906C83.7564 64.8191 83.8658 64.8259 83.9732 64.8105C84.0806 64.7952 84.1837 64.7581 84.2764 64.7015C84.3691 64.6449 84.4495 64.5699 84.5126 64.4811C84.5757 64.3924 84.6202 64.2916 84.6435 64.185C84.6667 64.0784 84.6682 63.9681 84.6479 63.8609C84.6276 63.7537 84.5859 63.6517 84.5253 63.5612C84.4647 63.4707 84.3864 63.3935 84.2953 63.3343C84.2042 63.2751 84.1021 63.2351 83.9952 63.2168C83.9512 63.206 83.9063 63.1994 83.8611 63.1972Z" fill="#395D6C"/>
<path d="M87.5751 65.3271L90.4372 65.2596C90.532 65.2547 90.622 65.2161 90.6913 65.1507C90.7605 65.0854 90.8046 64.9975 90.8156 64.9025C90.8267 64.8076 90.804 64.7118 90.7516 64.6321C90.6992 64.5524 90.6204 64.494 90.5293 64.4671L87.7622 63.7308C87.6597 63.7037 87.5529 63.6971 87.4479 63.7115C87.3429 63.726 87.2417 63.7611 87.1502 63.8148C87.0587 63.8686 86.9786 63.9399 86.9145 64.0249C86.8503 64.1098 86.8035 64.2066 86.7765 64.3097C86.7496 64.4129 86.7431 64.5204 86.7574 64.6261C86.7717 64.7317 86.8066 64.8336 86.86 64.9257C86.9134 65.0178 86.9843 65.0984 87.0687 65.163C87.1531 65.2275 87.2492 65.2747 87.3517 65.3018C87.4245 65.3213 87.4998 65.3298 87.5751 65.3271Z" fill="#395D6C"/>
<path d="M86.5371 75.3885C85.8139 74.3403 82.6866 74.048 80.7488 74.981" stroke="black" stroke-width="0.5" stroke-miterlimit="10" stroke-linecap="round"/>
<path d="M92.4089 113.393C92.5345 115.501 92.7914 118.972 93.2661 122.004C95.2793 121.49 96.5358 121.161 96.5358 121.161C96.5358 121.161 98.7389 124.188 100.565 123.839C101.827 123.597 105.033 121.358 106.867 120L105.817 117.62L98.9735 113.812C98.1876 113.376 97.2979 113.167 96.4018 113.207L92.4089 113.393Z" fill="#FCA886"/>
<path d="M90.4462 63.3714C87.7796 63.4417 84.0044 61.6037 83.1249 60.2126C82.2453 58.8215 79.6011 55.716 77.4008 56.0336C75.2005 56.3512 74.8207 58.0598 74.7565 60.4009C74.6922 62.7419 74.1282 67.0923 71.7995 67.23C69.4707 67.3677 67.8373 57.9334 67.8373 57.9334L74.695 49.7637L91.5547 57.9952L92.3086 62.0478L90.4462 63.3714Z" fill="#395D6C"/>
<path d="M65.9402 66.5807C65.9402 68.458 67.4759 69.2787 69.0368 69.9784C72.3401 71.4623 72.1362 68.458 72.1362 66.5807C72.1362 64.7034 70.7401 63.1802 69.0368 63.1802C67.3335 63.1802 65.9402 64.709 65.9402 66.5807Z" fill="#FCC8B3"/>
<path d="M70.4062 65.4116C70.2481 65.1968 70.0429 65.0217 69.8066 64.8998C69.5702 64.778 69.3092 64.7127 69.0436 64.709C68.7981 64.7198 68.5571 64.7793 68.3346 64.8842C68.112 64.989 67.9122 65.1371 67.7466 65.3199C67.5811 65.5027 67.453 65.7167 67.3699 65.9494C67.2868 66.1822 67.2502 66.4292 67.2622 66.6762C67.2622 67.4856 67.7592 67.9521 68.3791 68.3062" stroke="#FCA886" stroke-width="0.6" stroke-miterlimit="10" stroke-linecap="round"/>
<path d="M93.8096 82.0238C94.5448 82.5385 95.1246 83.2475 95.485 84.0726C98.0539 89.89 108.757 114.062 108.972 117.136C109.223 120.618 106.894 125.303 104.317 125.874C101.74 126.444 96.8923 123.404 95.5073 118.972C94.1224 114.54 89.6436 86.5513 89.6436 86.5513C89.6436 86.5513 84.665 86.8605 84.1624 85.0618C83.6598 83.2632 85.0699 75.9731 85.0699 75.9731L93.8096 82.0238Z" fill="#FCC8B3"/>
<path d="M85.0506 84.7327L84.6374 85.3538L83.6406 86.8517C83.6406 86.8517 86 88.0124 86 88.4283C86 88.8442 85.2852 89.6733 85.2852 89.6733L79.7007 86.9332L80.0832 85.6882L79.2763 83.9008C79.2212 83.7762 79.2011 83.6387 79.2184 83.5034C79.2356 83.3681 79.2894 83.2402 79.374 83.1336L80.0832 82.2427L79.8291 81.439C79.7894 81.3165 79.7827 81.1857 79.8097 81.0598C79.8367 80.9339 79.8964 80.8174 79.9827 80.7223C80.9712 79.6178 84.2632 76.0065 85.1037 75.9728C86.0754 75.9307 85.0506 84.7327 85.0506 84.7327Z" fill="#FCC8B3"/>
<path d="M66.4901 104.335L67.8359 114.854" stroke="#CD9518" stroke-width="1.42" stroke-miterlimit="10"/>
</g>
<path d="M86.3745 64C85.8752 64.5 85.875 65.5 86.3746 66.5" stroke="black" stroke-width="0.5" stroke-miterlimit="10" stroke-linecap="round"/>
<defs>
<filter id="filter0_d_503_2319" x="0" y="0" width="240" height="261" filterUnits="userSpaceOnUse" color-interpolation-filters="sRGB">
<feFlood flood-opacity="0" result="BackgroundImageFix"/>
<feColorMatrix in="SourceAlpha" type="matrix" values="0 0 0 0 0 0 0 0 0 0 0 0 0 0 0 0 0 0 127 0" result="hardAlpha"/>
<feOffset dx="2" dy="2"/>
<feGaussianBlur stdDeviation="6"/>
<feComposite in2="hardAlpha" operator="out"/>
<feColorMatrix type="matrix" values="0 0 0 0 0 0 0 0 0 0 0 0 0 0 0 0 0 0 0.15 0"/>
<feBlend mode="normal" in2="BackgroundImageFix" result="effect1_dropShadow_503_2319"/>
<feBlend mode="normal" in="SourceGraphic" in2="effect1_dropShadow_503_2319" result="shape"/>
</filter>
<clipPath id="clip0_503_2319">
<rect width="11.8911" height="18.1197" fill="white" transform="translate(110.035 39) rotate(26.3213)"/>
</clipPath>
<clipPath id="clip1_503_2319">
<rect width="60" height="98" fill="white" transform="matrix(-1 0 0 1 109 45)"/>
</clipPath>
</defs>
</svg>
