<svg width="240" height="261" viewBox="0 0 240 261" fill="none" xmlns="http://www.w3.org/2000/svg">
<g filter="url(#filter0_d_503_2317)">
<rect x="10" y="10" width="216" height="237" rx="10" fill="#FBFBFB"/>
</g>
<g clip-path="url(#clip0_503_2317)">
<path d="M107.606 37.9924V37.0113C107.591 36.4936 107.659 35.9768 107.808 35.4826C107.969 35.0524 108.275 34.6975 108.668 34.4835L109.581 33.9046C109.808 33.7618 110.023 33.6004 110.226 33.4219C110.432 33.2422 110.601 33.02 110.721 32.7693C110.809 32.5425 110.852 32.2989 110.845 32.0541C110.854 31.8853 110.825 31.7167 110.761 31.5615C110.696 31.4064 110.598 31.2689 110.473 31.1601C110.221 30.9438 109.901 30.8296 109.574 30.8382C109.234 30.8328 108.899 30.9248 108.606 31.1042C108.329 31.2722 108.126 31.5468 108.043 31.8686C107.947 32.2348 107.727 32.5525 107.423 32.7626C107.093 32.9727 106.706 33.0631 106.322 33.0196C106.147 33.0085 105.974 32.9677 105.812 32.8989C105.65 32.8329 105.503 32.7315 105.382 32.6016C105.257 32.4643 105.16 32.3024 105.096 32.1256C105.02 31.9182 104.988 31.6965 105.001 31.4752C105.01 30.9887 105.143 30.5134 105.388 30.0985C105.645 29.6664 105.982 29.2918 106.38 28.9966C106.819 28.6728 107.306 28.4252 107.821 28.2635C108.388 28.0842 108.977 27.9953 109.57 27.9998C110.17 27.9939 110.767 28.0775 111.344 28.2479C111.855 28.3976 112.331 28.6522 112.745 28.9966C113.143 29.3369 113.459 29.7694 113.668 30.2594C113.899 30.8241 114.013 31.4335 114.001 32.0474C114.01 32.527 113.947 33.0051 113.814 33.4644C113.686 33.8749 113.48 34.2549 113.209 34.5819C112.944 34.8886 112.651 35.1691 112.336 35.42C111.99 35.6994 111.624 35.9675 111.243 36.2246C111.06 36.334 110.915 36.4995 110.826 36.6984C110.76 36.8813 110.728 37.0754 110.731 37.2705V37.9947L107.606 37.9924ZM107.513 40.3727C107.501 40.1543 107.533 39.9356 107.607 39.7308C107.681 39.526 107.796 39.3396 107.944 39.1837C108.293 38.8991 108.724 38.7445 109.168 38.7445C109.611 38.7445 110.042 38.8991 110.391 39.1837C110.671 39.5093 110.826 39.9306 110.826 40.3671C110.826 40.8037 110.671 41.2249 110.391 41.5506C110.042 41.8351 109.611 41.9898 109.168 41.9898C108.724 41.9898 108.293 41.8351 107.944 41.5506C107.798 41.3955 107.684 41.2108 107.61 41.0082C107.536 40.8055 107.503 40.5892 107.513 40.3727Z" fill="#FFB50F"/>
</g>
<path d="M62.5503 178.916C59.7585 178.921 57.7126 180.304 57.7126 182.402C57.7126 184.365 59.427 185.67 61.8614 185.872V188.456H56.5783V189.606H68.5897V188.456H63.2392V185.877C65.6839 185.67 67.4036 184.365 67.4036 182.402C67.4036 180.304 65.3576 178.921 62.5503 178.916ZM59.0645 182.402C59.0645 180.977 60.5303 180.04 62.5503 180.045C64.5859 180.04 66.0465 180.977 66.0465 182.402C66.0465 183.873 64.5859 184.784 62.5503 184.795C60.5303 184.784 59.0645 183.873 59.0645 182.402ZM80.4503 178.118H79.0518V191.243H80.4503V178.118ZM69.5162 186.903L69.6665 188.068C72.0853 188.058 75.2086 188.011 78.047 187.56L77.9745 186.525C77.327 186.602 76.6485 186.664 75.9648 186.711V180.604H77.3374V179.465H69.8633V180.604H71.241V186.892C70.635 186.903 70.0549 186.903 69.5162 186.903ZM72.5877 186.866V180.604H74.6026V186.794C73.9241 186.83 73.2455 186.851 72.5877 186.866ZM89.1721 179.983V178.993H87.7063V179.983C87.6959 182.117 85.4325 184.126 82.9359 184.593L83.5575 185.753C85.6604 185.292 87.582 183.914 88.447 182.08C89.3016 183.924 91.2284 185.297 93.3313 185.753L93.9632 184.593C91.4459 184.142 89.1721 182.117 89.1721 179.983ZM82.506 189.518H94.5174V188.363H82.506V189.518ZM110.004 178.118H108.605V191.269H110.004V178.118ZM99.5826 183.707C99.5826 186.535 100.997 188.322 102.975 188.322C104.933 188.322 106.363 186.535 106.363 183.707C106.363 180.894 104.933 179.107 102.975 179.102C100.997 179.107 99.5826 180.894 99.5826 183.707ZM100.924 183.707C100.924 181.64 101.763 180.356 102.975 180.345C104.187 180.356 105.016 181.64 105.016 183.707C105.016 185.789 104.187 187.074 102.975 187.074C101.763 187.074 100.924 185.789 100.924 183.707ZM123.035 178.128H121.647V181.682H119.13V182.816H121.647V187.742H123.035V178.128ZM112.101 185.002L112.821 186.136C114.385 185.577 115.53 184.416 116.11 182.971C116.68 184.266 117.762 185.323 119.244 185.836L119.953 184.727C117.975 184.064 116.789 182.422 116.789 180.786V180.268H119.617V179.133H112.531V180.268H115.38V180.786C115.38 182.593 114.121 184.323 112.101 185.002ZM114.515 190.974H123.382V189.834H115.903V186.887H114.515V190.974ZM135.932 178.118H134.533V191.269H135.932V178.118ZM125.51 183.707C125.51 186.535 126.924 188.322 128.903 188.322C130.861 188.322 132.29 186.535 132.29 183.707C132.29 180.894 130.861 179.107 128.903 179.102C126.924 179.107 125.51 180.894 125.51 183.707ZM126.852 183.707C126.852 181.64 127.691 180.356 128.903 180.345C130.115 180.356 130.944 181.64 130.944 183.707C130.944 185.789 130.115 187.074 128.903 187.074C127.691 187.074 126.852 185.789 126.852 183.707ZM145.244 179.102C143.281 179.107 141.903 180.894 141.914 183.707C141.903 186.535 143.281 188.322 145.244 188.322C147.072 188.322 148.398 186.732 148.543 184.173H151.252V191.269H152.63V178.118H151.252V183.039H148.533C148.326 180.615 147.021 179.107 145.244 179.102ZM143.24 183.707C143.24 181.64 144.053 180.356 145.244 180.345C146.425 180.356 147.243 181.64 147.243 183.707C147.243 185.789 146.425 187.074 145.244 187.074C144.053 187.074 143.24 185.789 143.24 183.707ZM165.936 185.887H161.885V184.696H160.508V185.887H156.426V186.96H165.936V185.887ZM154.96 184.199H155.551C156.462 184.209 157.39 184.194 158.591 183.94L158.472 182.837C157.685 183.008 156.975 183.075 156.323 183.101V179.833H158.312V178.734H154.96V184.199ZM157.39 189.363C157.379 190.585 158.793 191.233 161.165 191.243C163.543 191.233 164.947 190.585 164.947 189.363C164.947 188.172 163.543 187.503 161.165 187.493C158.793 187.503 157.379 188.172 157.39 189.363ZM158.855 189.363C158.855 188.793 159.705 188.488 161.165 188.477C162.621 188.488 163.455 188.793 163.465 189.363C163.455 189.953 162.621 190.264 161.165 190.259C159.705 190.264 158.855 189.953 158.855 189.363ZM159.006 184.199H159.674C161.212 184.209 162.129 184.178 163.242 183.935L163.118 182.826C162.227 183.028 161.461 183.09 160.378 183.106V179.833H162.673V178.734H159.006V184.199ZM162.139 181.868H164.346V185.11H165.713V178.118H164.346V180.791H162.139V181.868ZM178.895 178.118H177.574V191.243H178.895V178.118ZM167.562 187.452L168.364 188.441C170.208 187.364 171.457 186.027 172.239 184.51H174.808V190.606H176.123V178.455H174.808V183.396H172.72C173.119 182.257 173.301 181.034 173.306 179.75H168.183V180.894H171.918C171.685 183.588 170.348 185.799 167.562 187.452ZM43.0148 205.676H37.5918V202.459H42.9579V201.34H36.2193V206.81H38.8608V209.291C37.6022 209.322 36.3746 209.327 35.2662 209.327L35.4371 210.482C37.9389 210.482 41.0518 210.441 43.9472 210.011L43.8384 208.985C42.6885 209.115 41.4661 209.193 40.2541 209.244V206.81H43.0148V205.676ZM44.6619 213.269H46.0501V200.118H44.6619V213.269ZM51.7211 201.102C49.7581 201.107 48.3803 202.894 48.3907 205.707C48.3803 208.535 49.7581 210.322 51.7211 210.322C53.5495 210.322 54.8755 208.732 55.0205 206.173H57.7294V213.269H59.1072V200.118H57.7294V205.039H55.0101C54.8029 202.615 53.4977 201.107 51.7211 201.102ZM49.7166 205.707C49.7166 203.64 50.5298 202.356 51.7211 202.345C52.902 202.356 53.7204 203.64 53.7204 205.707C53.7204 207.789 52.902 209.074 51.7211 209.074C50.5298 209.074 49.7166 207.789 49.7166 205.707ZM71.3511 200.118H69.9578V213.228H71.3511V206.515H73.3866V205.349H71.3511V200.118ZM61.1318 209.731L61.9087 210.809C66.2337 208.68 67.9067 205.292 67.917 201.506H61.7896V202.656H66.503C66.2078 205.717 64.426 208.089 61.1318 209.731ZM84.7086 201.382H75.3491V202.511H83.3205V202.666C83.3101 204.246 83.3101 206.106 82.8077 208.644L84.2062 208.799C84.7034 206.106 84.7034 204.293 84.7086 202.666V201.382ZM74.0905 211.472H86.0553V210.322H80.0159V205.691H78.6381V210.322H74.0905V211.472ZM95.2641 208.789V208.162H93.9226V208.789C93.9122 210.063 93.0006 211.425 91.3173 212.036L92.0114 213.051C93.2493 212.601 94.1194 211.731 94.5908 210.695C94.9948 211.772 95.7924 212.699 97.0562 213.171C98.2579 212.673 99.0452 211.705 99.4596 210.653C99.9154 211.731 100.796 212.606 102.091 213.051L102.78 212.036C101.07 211.472 100.169 210.156 100.18 208.789V208.162H98.8121V208.789C98.8121 209.794 98.2165 211.047 97.0148 211.824C95.8287 211.109 95.2641 209.918 95.2641 208.789ZM90.9806 203.956C90.9806 205.774 92.462 207.038 94.4768 207.038C96.4865 207.038 97.9627 205.774 97.9627 203.956C97.9627 202.123 96.4865 200.859 94.4768 200.859C92.462 200.859 90.9806 202.123 90.9806 203.956ZM92.3428 203.956C92.3325 202.806 93.2285 202.029 94.4768 202.04C95.7096 202.029 96.6004 202.806 96.6004 203.956C96.6004 205.101 95.7096 205.878 94.4768 205.883C93.2285 205.878 92.3325 205.101 92.3428 203.956ZM100.211 207.597H101.604V200.128H100.211V207.597ZM114.304 203.961H106.638V200.595H105.26V205.075H114.304V203.961ZM103.66 207.841H115.671V206.727H103.66V207.841ZM105.162 212.932H114.386V211.798H106.545V209.089H105.162V212.932ZM121.472 203.992V202.589H124.465V201.439H117.069V202.589H120.063V203.992C120.052 206.246 118.587 208.716 116.608 209.638L117.421 210.736C118.944 209.996 120.177 208.4 120.788 206.536C121.399 208.276 122.621 209.726 124.17 210.41L124.931 209.312C122.911 208.452 121.472 206.183 121.472 203.992ZM126.118 213.243H127.516V200.118H126.118V213.243ZM145.282 210.456H139.931V207.421H143.842V201.17H134.638V207.421H138.553V210.456H133.27V211.606H145.282V210.456ZM136 206.318V202.294H142.479V206.318H136ZM158.245 210.488H146.234V211.637H158.245V210.488ZM147.669 202.216H155.402V204.06H147.695V208.224H157.08V207.116H149.078V205.184H156.774V201.081H147.669V202.216ZM165.009 201.066H159.882V202.2H163.569C163.321 204.288 161.886 205.893 159.286 206.934L159.99 207.97C161.798 207.204 163.119 206.173 163.953 204.883H166.403V207.478H167.718V200.403H166.403V203.759H164.528C164.849 202.946 165.009 202.045 165.009 201.066ZM159.913 212.155L160.612 213.181C161.85 212.715 162.715 211.834 163.186 210.788C163.585 211.871 164.372 212.808 165.631 213.285C166.853 212.782 167.63 211.808 168.039 210.752C168.495 211.834 169.381 212.725 170.676 213.181L171.354 212.155C169.655 211.606 168.739 210.254 168.749 208.897V208.105H167.392V208.897C167.382 209.882 166.801 211.151 165.6 211.938C164.414 211.218 163.854 210.037 163.865 208.897V208.105H162.534V208.897C162.534 210.166 161.591 211.56 159.913 212.155ZM169.065 207.68H170.381V200.128H169.065V207.68ZM175.72 201.102C173.757 201.107 172.379 202.894 172.39 205.707C172.379 208.535 173.757 210.322 175.72 210.322C177.549 210.322 178.874 208.732 179.02 206.173H181.728V213.269H183.106V200.118H181.728V205.039H179.009C178.802 202.615 177.497 201.107 175.72 201.102ZM173.716 205.707C173.716 203.64 174.529 202.356 175.72 202.345C176.901 202.356 177.719 203.64 177.719 205.707C177.719 207.789 176.901 209.074 175.72 209.074C174.529 209.074 173.716 207.789 173.716 205.707ZM197.137 210.456H194.257V206.997C195.314 206.401 195.951 205.474 195.951 204.314C195.951 202.247 193.921 200.89 191.098 200.879C188.285 200.89 186.26 202.247 186.26 204.314C186.26 205.489 186.918 206.432 188 207.022V210.456H185.126V211.606H197.137V210.456ZM187.612 204.314C187.612 202.894 189.041 201.993 191.098 202.003C193.144 201.993 194.594 202.894 194.594 204.314C194.594 205.717 193.144 206.634 191.098 206.634C189.041 206.634 187.612 205.717 187.612 204.314ZM189.368 210.456V207.535C189.896 207.654 190.476 207.722 191.098 207.722C191.724 207.722 192.315 207.654 192.854 207.53V210.456H189.368ZM199.535 212.098C200.099 212.098 200.576 211.632 200.576 211.062C200.576 210.493 200.099 210.027 199.535 210.027C198.965 210.027 198.488 210.493 198.499 211.062C198.488 211.632 198.965 212.098 199.535 212.098Z" fill="#191919"/>
<path d="M131.089 69.9971C134.205 75.3755 131.45 82.9502 134.109 85.3581C136.767 87.7661 144.192 90.9069 142.359 98.0868L130.028 88.8371L127.826 78.5757L131.089 69.9971Z" fill="#612C1E"/>
<path d="M105.288 79.9478C105.288 79.9478 109.58 87.4786 102.715 89.7265C95.8513 91.9744 87.2296 96.3386 89.862 104.084C92.4945 111.829 137.963 115.465 137.963 115.465C137.963 115.465 141.976 108.177 139.261 101.585C136.545 94.994 131.979 90.1472 129.951 85.2849C127.924 80.4226 105.288 79.9478 105.288 79.9478Z" fill="#612C1E"/>
<path d="M129.975 75.4507C129.975 75.4507 129.025 84.61 132.325 87.4489C135.417 90.1098 144.942 94.3139 142.268 101.37C140.191 106.828 145.399 111.337 147.001 109.858C147.001 109.858 142.691 113.884 138.631 108.808C134.57 103.731 127.236 80.4807 127.236 80.4807L129.975 75.4507Z" fill="#612C1E"/>
<path d="M131.357 90.5254C131.785 91.5168 132.424 92.4039 133.231 93.125C134.038 93.8461 134.993 94.3839 136.03 94.7012C139.042 95.5967 138.045 98.0562 138.04 102.931C138.035 107.807 139.597 109.642 140.636 109.995" stroke="#3D1811" stroke-miterlimit="10"/>
<path d="M129.732 92.7856C130.511 96.0478 131.747 95.6891 132.515 97.4311C133.284 99.1732 132.515 103.109 132.515 103.109" stroke="#3D1811" stroke-miterlimit="10"/>
<path d="M105.205 78.9082C105.205 78.9082 105.942 88.736 100.249 90.6793C94.5555 92.6227 106.96 94.228 106.96 94.228L111.892 85.6777L105.205 78.9082Z" fill="#612C1E"/>
<path d="M96.0281 101.239L115.255 96.2681L132.158 102.256L129.336 148.71L94.6055 148.858L96.0281 101.239Z" fill="#5C96AE"/>
<path d="M98.3161 101.337L96.3456 101.908C94.6473 102.399 93.0906 103.283 91.8038 104.49C90.517 105.696 89.5368 107.189 88.9441 108.845L81 133.582H93.3627L99.3753 116.969L98.3161 101.337Z" fill="#5C96AE"/>
<path d="M128.934 101.238L130.907 101.809C132.605 102.299 134.162 103.184 135.448 104.39C136.735 105.597 137.715 107.089 138.308 108.746L139.248 128.876L125.787 134.162L127.864 116.87L128.934 101.238Z" fill="#5C96AE"/>
<path d="M89.3867 101.47C89.7813 106.704 94.4595 110.173 99.5401 110.206C103.403 110.23 98.2628 115.038 93.8754 114.937C93.8754 114.937 101.368 118.909 104.548 113.773C107.728 108.637 107.341 101.29 107.341 101.29L107.661 97.9707L89.3867 101.47Z" fill="#612C1E"/>
<path d="M108.474 88.8379L107.348 101.587C107.895 103.112 108.904 104.432 110.236 105.365C111.567 106.298 113.156 106.799 114.786 106.799C116.415 106.799 118.004 106.298 119.335 105.365C120.667 104.432 121.676 103.112 122.223 101.587C121.652 98.1633 121.082 94.7402 120.513 91.3181L108.474 88.8379Z" fill="#FCC8B3"/>
<path d="M108.234 91.55C109.709 100.232 122.124 100.996 122.124 100.996L120.511 91.3203L108.234 91.55Z" fill="#FCA886"/>
<path d="M129.353 87.8205L105.209 79.9748L107.231 71.4968C108.735 65.1919 115.464 61.38 122.26 62.9801H122.276C129.072 64.5802 133.364 70.9807 131.861 77.2934L129.353 87.8205Z" fill="#612C1E"/>
<path d="M106.282 80.6869C107.79 80.6869 109.013 79.4713 109.013 77.9719C109.013 76.4724 107.79 75.2568 106.282 75.2568C104.774 75.2568 103.551 76.4724 103.551 77.9719C103.551 79.4713 104.774 80.6869 106.282 80.6869Z" fill="#FCC8B3"/>
<path d="M117.34 67.9009L122.623 69.3791C123.572 69.6446 124.458 70.0932 125.233 70.6994C126.007 71.3056 126.654 72.0575 127.136 72.9121C127.618 73.7667 127.926 74.7074 128.042 75.6803C128.159 76.6533 128.081 77.6395 127.814 78.5827L125.732 85.9362C124.906 88.8517 122.95 91.3219 120.292 92.8032C117.635 94.2845 114.494 94.6557 111.561 93.8351C109.261 93.1914 107.312 91.6656 106.143 89.5933C104.974 87.521 104.681 85.072 105.329 82.785L108.082 73.0615C108.621 71.1567 109.899 69.5429 111.636 68.5751C113.372 67.6073 115.424 67.3648 117.34 67.9009Z" fill="#FCC8B3"/>
<path d="M121.654 83.1722C122.223 83.1722 122.684 82.7135 122.684 82.1476C122.684 81.5818 122.223 81.123 121.654 81.123C121.084 81.123 120.623 81.5818 120.623 82.1476C120.623 82.7135 121.084 83.1722 121.654 83.1722Z" fill="black"/>
<path d="M111.99 79.9339C112.559 79.9339 113.02 79.4752 113.02 78.9094C113.02 78.3435 112.559 77.8848 111.99 77.8848C111.42 77.8848 110.959 78.3435 110.959 78.9094C110.959 79.4752 111.42 79.9339 111.99 79.9339Z" fill="black"/>
<path d="M122.91 86.1085C123.085 85.4914 122.389 84.7571 121.357 84.4685C120.325 84.1799 119.346 84.4461 119.172 85.0633C118.997 85.6804 119.692 86.4146 120.725 86.7033C121.757 86.9919 122.735 86.7256 122.91 86.1085Z" fill="#F48773"/>
<path d="M112.329 83.1697C112.505 82.5509 111.808 81.8144 110.772 81.5248C109.737 81.2352 108.756 81.502 108.581 82.1208C108.406 82.7396 109.103 83.476 110.138 83.7656C111.173 84.0553 112.154 83.7884 112.329 83.1697Z" fill="#F48773"/>
<path d="M116.92 67.6926C123.776 74.253 127.216 82.6381 127.216 82.6381C127.216 82.6381 131.11 76.7306 128.348 72.0206C124.376 65.2537 116.92 67.6926 116.92 67.6926Z" fill="#612C1E"/>
<path d="M107.23 76.0932C109.128 72.5343 111.966 68.4101 116.379 67.69L115.894 66.6577L108.391 68.823L107.23 76.0932Z" fill="#612C1E"/>
<path d="M115.497 133.483L87.397 128.91C84.0506 128.466 81.0288 131.261 81.0002 134.825C80.9742 138.077 83.4795 140.655 86.5715 140.56L113.774 140.16L115.497 133.483Z" fill="#FCC8B3"/>
<path d="M114.77 76.5918C114.77 76.5918 112.153 76.6331 111.164 75.9233" stroke="#612C1E" stroke-width="1.5" stroke-miterlimit="10" stroke-linecap="round"/>
<path d="M121.178 77.9714C121.178 77.9714 123.465 77.7288 124.387 78.9882" stroke="#612C1E" stroke-width="1.5" stroke-miterlimit="10" stroke-linecap="round"/>
<path d="M122.703 101.775L124.261 132.389C124.552 135.744 127.952 138.066 131.455 137.313C134.656 136.631 136.647 133.64 135.868 130.662L128.051 100.231L122.703 101.775Z" fill="#FCC8B3"/>
<path d="M128.05 100.231L128.457 92.2825C128.47 92.0464 128.416 91.8115 128.302 91.6044C128.187 91.3973 128.016 91.2263 127.808 91.1108C127.12 90.7314 125.916 90.3546 124.202 90.8527C122.126 91.4592 120.308 92.9458 119.467 93.6916C119.317 93.8296 119.202 94.0009 119.131 94.1915C119.06 94.3821 119.036 94.5867 119.06 94.7885C119.246 96.337 119.87 100.177 121.549 101.349C123.668 102.83 128.05 100.231 128.05 100.231Z" fill="#FCC8B3"/>
<path d="M112.668 86.9153C113.349 86.5551 114.129 86.4251 114.891 86.5447C115.653 86.6644 116.356 87.0273 116.892 87.5785" stroke="black" stroke-width="0.5" stroke-miterlimit="10" stroke-linecap="round"/>
<path d="M115.499 133.483C115.499 133.483 118.095 129.175 120.262 128.863C122.43 128.551 125.343 130.523 125.343 130.523C125.343 130.523 124.676 131.782 123.723 131.826L122.77 131.87C122.77 131.87 126.755 133.898 126.54 134.709C126.457 134.963 126.322 135.197 126.143 135.397C125.965 135.596 125.746 135.757 125.501 135.867C125.501 135.867 126.602 136.213 126.54 136.859C126.477 137.504 125.317 138.064 125.317 138.064C125.317 138.064 126.355 138.58 126.205 139.184C126.054 139.788 125.317 140.002 125.317 140.002C125.317 140.002 125.665 139.692 125.665 140.557C125.665 141.421 124.842 141.896 124.842 141.896C124.842 141.896 118.705 143.796 113.762 140.154L115.499 133.483Z" fill="#FCC8B3"/>
<path d="M127.231 88.0751C128.739 88.0751 129.962 86.8595 129.962 85.36C129.962 83.8606 128.739 82.645 127.231 82.645C125.723 82.645 124.5 83.8606 124.5 85.36C124.5 86.8595 125.723 88.0751 127.231 88.0751Z" fill="#FCC8B3"/>
<path d="M105.209 76.2583C105.209 76.2583 106.619 77.2906 106.754 78.4701" stroke="#FCA886" stroke-miterlimit="10" stroke-linecap="round"/>
<path d="M126.279 85.0385C126.279 85.0385 127.956 83.6345 128.945 84.4604" stroke="#FCA886" stroke-miterlimit="10" stroke-linecap="round"/>
<path d="M114.801 79.5151C115.27 79.9846 115.27 80.9234 114.801 81.8623" stroke="black" stroke-width="0.5" stroke-miterlimit="10" stroke-linecap="round"/>
<path d="M86 50L157 50" stroke="#EBEBEB" stroke-width="6" stroke-linecap="round"/>
<path d="M86 50L110.483 50" stroke="#FFB50F" stroke-width="6" stroke-linecap="round"/>
<defs>
<filter id="filter0_d_503_2317" x="0" y="0" width="240" height="261" filterUnits="userSpaceOnUse" color-interpolation-filters="sRGB">
<feFlood flood-opacity="0" result="BackgroundImageFix"/>
<feColorMatrix in="SourceAlpha" type="matrix" values="0 0 0 0 0 0 0 0 0 0 0 0 0 0 0 0 0 0 127 0" result="hardAlpha"/>
<feOffset dx="2" dy="2"/>
<feGaussianBlur stdDeviation="6"/>
<feComposite in2="hardAlpha" operator="out"/>
<feColorMatrix type="matrix" values="0 0 0 0 0 0 0 0 0 0 0 0 0 0 0 0 0 0 0.15 0"/>
<feBlend mode="normal" in2="BackgroundImageFix" result="effect1_dropShadow_503_2317"/>
<feBlend mode="normal" in="SourceGraphic" in2="effect1_dropShadow_503_2317" result="shape"/>
</filter>
<clipPath id="clip0_503_2317">
<rect width="9" height="14" fill="white" transform="translate(105 28)"/>
</clipPath>
</defs>
</svg>
