<svg width="240" height="261" viewBox="0 0 240 261" fill="none" xmlns="http://www.w3.org/2000/svg">
<g filter="url(#filter0_d_234_20818)">
<rect x="10" y="10" width="216" height="237" rx="10" fill="#FBFBFB"/>
</g>
<path d="M75.0509 185.654H63.0395V186.778H68.3278V191.233H69.6952V186.778H75.0509V185.654ZM64.5467 183.987H73.5385V178.817H64.5467V183.987ZM65.9141 182.899V179.941H72.1607V182.899H65.9141ZM86.9633 178.118H85.5752V181.651H83.0268C82.7679 180.055 81.4056 178.993 79.6498 178.999C77.6764 178.993 76.2054 180.294 76.2157 182.184C76.2054 184.049 77.6764 185.385 79.6498 185.375C81.3797 185.385 82.7264 184.328 83.0113 182.785H85.5752V187.063H86.9633V178.118ZM77.5365 182.184C77.5365 181.003 78.417 180.169 79.6498 180.169C80.8359 180.169 81.7371 181.003 81.7371 182.184C81.7371 183.381 80.8359 184.194 79.6498 184.189C78.417 184.194 77.5365 183.381 77.5365 182.184ZM77.5831 190.067L78.0907 191.171C80.1366 190.829 81.8511 189.798 82.6539 188.384C83.4412 189.814 85.1505 190.824 87.2016 191.171L87.761 190.067C85.2541 189.694 83.3687 188.26 83.3791 186.571V186.1H81.9495V186.571C81.9443 188.198 80.0227 189.679 77.5831 190.067ZM100.979 185.836H88.9672V186.944H94.2556V191.243H95.623V186.944H100.979V185.836ZM90.4641 184.349H99.4766V178.652H98.0884V180.361H91.8419V178.652H90.4641V184.349ZM91.8419 183.23V181.474H98.0884V183.23H91.8419ZM112.896 178.118H111.518V182.971H108.903V184.106H111.518V191.269H112.896V178.118ZM102.553 188.166H103.568C106.007 188.161 107.655 188.084 109.566 187.778L109.416 186.644C107.67 186.944 106.147 187.011 103.951 187.017V184.08H108.136V182.971H103.951V180.423H108.685V179.283H102.553V188.166ZM125.057 180.294H122.504V178.507H121.126V180.294H118.547V181.417H125.057V180.294ZM118.971 185.224C118.961 187.017 120.163 188.275 121.815 188.275C123.472 188.275 124.659 187.017 124.669 185.224C124.659 183.458 123.472 182.205 121.815 182.205C120.163 182.205 118.961 183.458 118.971 185.224ZM120.194 185.224C120.194 184.132 120.867 183.37 121.815 183.365C122.758 183.37 123.436 184.132 123.436 185.224C123.436 186.338 122.758 187.089 121.815 187.079C120.867 187.089 120.194 186.338 120.194 185.224ZM125.669 190.627H126.979V184.722H128.491V191.243H129.817V178.118H128.491V183.588H126.979V178.413H125.669V190.627ZM135.053 179.102C133.09 179.107 131.692 180.894 131.702 183.707C131.692 186.535 133.09 188.322 135.053 188.322C137.016 188.322 138.415 186.535 138.425 183.707C138.415 180.894 137.016 179.107 135.053 179.102ZM133.028 183.707C133.028 181.64 133.857 180.356 135.053 180.345C136.276 180.356 137.084 181.64 137.089 183.707C137.084 185.789 136.276 187.074 135.053 187.074C133.857 187.074 133.028 185.789 133.028 183.707ZM140.373 191.243H141.766V186.385H143.802V185.235H141.766V182.51H143.802V181.335H141.766V178.118H140.373V191.243ZM158.48 178.077H157.087V185.292H158.48V182.288H160.391V181.153H158.48V178.077ZM148.183 180.325H155.994V179.237H152.788V177.999H151.405V179.237H148.183V180.325ZM148.898 182.977C148.893 184.318 150.162 185.126 152.094 185.126C154.015 185.126 155.269 184.318 155.274 182.977C155.269 181.656 154.015 180.827 152.094 180.827C150.162 180.827 148.893 181.656 148.898 182.977ZM149.991 186.944H157.097V187.975H150.022V191.119H158.926V190.062H151.389V188.964H158.48V185.919H149.991V186.944ZM150.239 182.977C150.229 182.272 150.959 181.832 152.094 181.832C153.218 181.832 153.948 182.272 153.958 182.977C153.948 183.691 153.218 184.106 152.094 184.111C150.959 184.106 150.229 183.691 150.239 182.977ZM165.959 181.992V180.589H168.953V179.439H161.556V180.589H164.55V181.992C164.54 184.246 163.074 186.716 161.095 187.638L161.908 188.736C163.431 187.996 164.664 186.4 165.275 184.536C165.886 186.276 167.109 187.726 168.657 188.41L169.419 187.312C167.399 186.452 165.959 184.183 165.959 181.992ZM170.605 191.243H172.003V178.118H170.605V191.243ZM64.9572 200.118H63.5639V206.758H64.9572V204.122H66.8581V202.956H64.9572V200.118ZM54.6291 205.95L55.1575 207.105C59.0318 206.225 61.3781 204.08 61.3781 200.709H55.2455V201.843H59.8294C59.6326 203.733 57.8457 205.256 54.6291 205.95ZM56.4679 208.442H63.5742V209.633H56.499V213.119H65.4026V211.995H57.8664V210.69H64.9572V207.323H56.4679V208.442ZM78.5167 200.118H77.1182V213.243H78.5167V200.118ZM67.5827 208.903L67.7329 210.068C70.1517 210.058 73.275 210.011 76.1134 209.56L76.0409 208.525C75.3934 208.602 74.7149 208.664 74.0312 208.711V202.604H75.4038V201.465H67.9297V202.604H69.3074V208.892C68.7014 208.903 68.1213 208.903 67.5827 208.903ZM70.6541 208.866V202.604H72.669V208.794C71.9905 208.83 71.3119 208.851 70.6541 208.866ZM92.5631 206.142H80.5517V207.209H92.5631V206.142ZM81.9761 209.131H89.7092V210.094H81.9916V213.088H91.4961V212.104H83.3797V211.021H91.0869V208.126H81.9761V209.131ZM82.059 201.439H89.6625V202.382H82.0952V205.277H91.2786V204.298H83.473V203.298H91.0507V200.46H82.059V201.439ZM107.635 200.662H98.7212V205.106H102.497V206.53H97.1984V207.66H109.163V206.53H103.864V205.106H107.635V200.662ZM98.0841 212.078L98.5969 213.165C100.653 212.844 102.368 211.943 103.176 210.591C103.973 211.943 105.683 212.844 107.744 213.165L108.277 212.078C105.714 211.731 103.87 210.431 103.87 208.799V208.405H102.466V208.799C102.466 210.431 100.612 211.731 98.0841 212.078ZM100.083 203.992V201.76H106.263V203.992H100.083ZM118.388 202.34V202.081H121.21V200.947H114.109V202.081H116.989V202.361C116.979 204.112 115.73 205.702 113.685 206.354L114.394 207.458C115.974 206.945 117.124 205.862 117.699 204.484C118.284 205.728 119.392 206.712 120.905 207.188L121.568 206.106C119.558 205.489 118.377 203.967 118.388 202.34ZM115.72 213.077H124.137V207.919H122.744V209.39H117.103V207.919H115.72V213.077ZM117.103 211.948V210.477H122.744V211.948H117.103ZM122.744 207.318H124.137V204.225H126.038V203.076H124.137V200.118H122.744V207.318ZM132.6 201.066H127.472V202.2H131.16C130.911 204.288 129.476 205.893 126.876 206.934L127.581 207.97C129.388 207.204 130.709 206.173 131.543 204.883H133.993V207.478H135.309V200.403H133.993V203.759H132.118C132.439 202.946 132.6 202.045 132.6 201.066ZM127.503 212.155L128.202 213.181C129.44 212.715 130.305 211.834 130.776 210.788C131.175 211.871 131.963 212.808 133.221 213.285C134.444 212.782 135.221 211.808 135.63 210.752C136.086 211.834 136.971 212.725 138.266 213.181L138.945 212.155C137.246 211.606 136.329 210.254 136.339 208.897V208.105H134.982V208.897C134.972 209.882 134.392 211.151 133.19 211.938C132.004 211.218 131.445 210.037 131.455 208.897V208.105H130.124V208.897C130.124 210.166 129.181 211.56 127.503 212.155ZM136.655 207.68H137.971V200.128H136.655V207.68ZM142.606 207.991H141.233V213.077H150.168V207.991H148.775V209.384H142.606V207.991ZM139.752 207.157H151.717V206.018H139.752V207.157ZM140.394 204.112L140.912 205.204C143.026 204.904 144.89 203.904 145.74 202.501C146.579 203.899 148.433 204.904 150.557 205.204L151.059 204.112C148.542 203.796 146.449 202.335 146.449 200.817V200.258H145.02V200.817C145.02 202.382 142.938 203.775 140.394 204.112ZM142.606 211.964V210.462H148.775V211.964H142.606ZM163.603 200.118H162.226V213.243H163.603V200.118ZM153.519 209.907H154.617C156.689 209.913 158.797 209.752 161.117 209.27L160.936 208.1C158.823 208.535 156.808 208.695 154.886 208.711V201.397H153.519V209.907ZM175.904 200.118H174.511V213.269H175.904V206.354H178.007V205.199H175.904V200.118ZM166.234 210.011H167.291C169.725 210.016 171.471 209.949 173.522 209.592L173.356 208.405C171.476 208.747 169.823 208.84 167.622 208.851V202.511H172.372V201.382H166.234V210.011ZM180.089 212.098C180.653 212.098 181.13 211.632 181.13 211.062C181.13 210.493 180.653 210.027 180.089 210.027C179.519 210.027 179.043 210.493 179.053 211.062C179.043 211.632 179.519 212.098 180.089 212.098Z" fill="#191919"/>
<path d="M89.418 98.1789C95.9942 89.8286 102.296 85.2575 106.124 82.8863C109.2 80.9791 112.343 79.4632 112.343 79.4632C117.324 77.0605 119.994 76.5394 126.044 74.2034C128.059 73.4265 131.098 72.1952 134.781 70.4658C138.764 78.9384 138.262 84.3659 136.57 87.9C136.554 87.9336 136.538 87.9667 136.522 87.9998C134.249 90.9798 130.987 94.3623 126.429 97.0619C110.426 106.538 92.3194 99.3786 89.418 98.1789Z" fill="#FCC8B3"/>
<path d="M124.585 92.6622C124.456 91.712 124.387 90.7545 124.378 89.7955C124.356 87.5134 124.308 82.3016 126.764 81.0661C127.566 80.663 128.4 80.7991 129.151 79.9448C129.616 79.4109 129.757 78.8236 129.867 78.343C130.275 76.5698 129.594 75.7849 129.809 74.653C129.956 73.882 130.543 72.8253 132.658 71.7911C133.613 71.3767 135.715 70.6356 138.06 71.2956C142.61 72.577 143.953 77.9698 144.106 78.5833C145.369 83.6557 142.536 89.5888 137.018 93.6003C136.315 93.0087 134.968 92.0663 133.104 91.849C130.154 91.5062 127.143 93.123 125.249 95.9571C125.027 94.859 124.806 93.7607 124.585 92.6622Z" fill="#FCA886"/>
<path d="M112.714 79.6294C108.43 81.164 104.38 83.2104 100.667 85.7168C97.2944 87.9985 89.2989 93.564 84.9725 103.017C83.0704 107.178 82.3475 111.112 82.086 119.483C81.8266 127.773 82.0458 139.554 84.2767 154.001H126.442C124.909 150.405 123.196 145.344 122.558 139.168C120.825 122.396 128.687 113.468 125.75 96.9976C125.055 93.0955 123.541 88.4728 119.616 84.4606C117.133 81.9268 114.462 80.4469 112.714 79.6294Z" fill="#8485F4"/>
<path d="M132.075 81.5972C132.657 81.1747 133.148 80.6389 133.519 80.0216C134.102 79.2165 134.814 78.5141 135.626 77.943C136.934 77.0321 137.779 76.9947 138.399 76.0688C138.916 75.2952 138.844 74.5466 138.89 73.7441C139.03 71.3664 140.226 68.4079 141.748 67.5151C143.764 66.3325 147.325 68.3075 149.723 70.4582C154.254 74.5204 152.958 82.5156 152.154 88.4626C152.128 88.6506 152.096 88.8679 152.032 89.1445C151.295 92.3678 148.569 94.1368 147.128 95.0712C146.005 95.7968 144.391 96.8471 143.392 96.4375C143.243 96.3767 142.756 96.138 142.193 96.2704C141.915 96.342 141.66 96.4829 141.45 96.6799C139.607 98.2818 138.974 98.9033 138.974 98.9033C138.251 99.6129 137.938 99.9033 137.431 99.9589C137.301 99.9733 136.92 100.012 136.546 99.8078C135.797 99.3929 136.032 98.5039 135.356 98.191C134.984 98.0191 134.49 98.0906 134.169 98.2753C133.918 98.42 133.934 98.5423 133.691 98.6673C133.342 98.8515 132.798 98.8664 132.4 98.5728C131.942 98.2348 131.774 97.5583 132.037 96.9592C132.183 97.7067 131.955 98.3661 131.519 98.5818C131.318 98.676 131.091 98.6997 130.874 98.6491C130.507 98.5605 130.431 98.294 130.008 98.1226C129.777 98.0292 129.586 98.0217 129.386 98.0159C128.291 97.9731 127.716 98.6326 126.829 98.5722C125.984 98.514 125.412 97.8381 125.321 97.7265C124.95 97.2731 124.862 96.775 124.844 95.2169L124.977 90.6619C125.111 89.7153 125.306 88.7784 125.56 87.8571C126.31 85.1303 126.684 83.7672 127.812 82.9748C129.207 81.9934 130.36 82.8285 132.075 81.5972Z" fill="#FCC8B3"/>
<path d="M149.629 93.1771C150.819 88.9216 151.3 85.8119 150.346 85.3223C149.825 85.0553 149.404 85.8381 148.145 86.0319C145.661 86.4147 144.81 84.0563 141.198 83.2073C138.989 82.6884 137.723 83.217 137.12 82.2532C136.687 81.5591 136.798 80.4197 137.344 79.7314C138.209 78.6427 139.75 79.2055 140.367 78.1168C140.76 77.4227 140.492 76.6068 140.444 76.4616C140.174 75.6494 138.967 74.9025 138.565 74.7279C136.544 73.8517 132.075 77.6015 127.488 77.3623C126.292 77.2999 124.571 76.9394 122.533 75.5031C122.992 75.2687 123.717 74.8875 124.581 74.3819C130.941 70.6544 132.36 67.4999 135.766 65.6253C141.069 62.7073 147.508 65.1821 147.875 65.3284C156.615 68.8204 159.331 80.2734 158.946 83.6233C158.854 84.4242 158.441 86.0185 159.014 88.0075C159.4 89.3466 160.152 90.5842 159.79 90.8907C159.472 91.1604 158.603 90.4502 158.37 90.7124C158.188 90.9164 158.55 91.5368 158.881 92.0953C159.654 93.3981 160.048 93.4985 159.995 93.8333C159.855 94.694 156.99 95.5237 154.86 94.5845C154.235 94.309 153.537 93.821 153.462 93.9235C153.387 94.026 154.066 94.671 154.116 94.7191C154.795 95.3534 155.159 95.4223 155.137 95.5664C155.084 95.9178 152.79 96.4741 151.118 95.3032C150.138 94.616 149.762 93.6074 149.629 93.1771Z" fill="#1D1E40"/>
<path d="M136.052 98.2057C136.09 98.3819 136.093 98.4886 136.187 98.5581C136.29 98.6344 136.463 98.6392 136.528 98.5581C136.641 98.4224 136.403 98.0695 136.339 97.9766C136.169 97.7256 135.91 97.4961 135.848 97.5382C135.796 97.5777 135.956 97.755 136.052 98.2057Z" fill="#DF716B"/>
<path d="M133.318 97.7519C133.159 97.5645 132.758 97.1 132.233 96.5847C131.906 96.2644 131.844 96.2297 131.798 96.2489C131.692 96.2937 131.649 96.6349 132.038 98.1177C132.116 98.3113 132.243 98.4811 132.405 98.6108C132.568 98.7404 132.761 98.8253 132.966 98.8572C133.079 98.8738 133.413 98.9234 133.709 98.7136C133.803 98.6463 133.882 98.561 133.943 98.4626C133.67 98.1577 133.455 97.9111 133.318 97.7519Z" fill="#DF716B"/>
<path d="M140.658 92.9873C141.172 92.9771 141.684 92.9156 142.186 92.8036C142.684 92.6926 143.048 92.5601 143.04 92.5222C143.022 92.4384 141.184 92.9638 140.902 92.4459C140.885 92.4144 140.87 92.3733 140.916 91.8868C140.97 91.3481 141.023 90.9898 141.019 90.9888C141.015 90.9877 140.872 91.7747 140.769 92.3594C140.758 92.4208 140.669 92.927 140.658 92.9873Z" fill="#DF716B"/>
<path d="M141.016 91.7267C140.981 92.2607 140.945 92.4401 140.984 92.7946C141 93.0203 141.048 93.2424 141.128 93.454C141.315 93.9196 141.667 94.2191 141.945 94.3959C141.68 94.2987 140.857 93.9618 140.585 93.1796C140.58 93.1651 140.576 93.1486 140.571 93.1336C140.459 93.3579 140.407 93.4006 140.38 93.391C140.268 93.3584 140.433 92.4107 140.635 91.6536C140.657 91.5729 140.916 90.6236 141.016 90.6434C141.084 90.6567 141.053 91.1389 141.016 91.7267Z" fill="#1D1E40"/>
<path d="M143.405 89.0222C143.131 89.1519 144.969 92.2568 143.976 94.2676C143.866 94.4903 143.499 95.1454 143.681 95.3131C143.807 95.4316 144.158 95.2597 144.336 95.1449C144.972 94.7375 145.146 93.9585 145.202 93.7171C145.659 91.7004 143.672 88.8962 143.405 89.0222Z" fill="#1D1E40"/>
<path d="M140.401 79.2249C141.261 78.3359 142.125 76.6086 141.428 75.207C140.606 73.5518 138.14 73.4119 137.967 73.406C137.896 73.4033 137.841 73.4028 137.805 73.4023C135.762 73.375 134.374 74.6837 133.828 75.1968C132.549 76.4009 131.006 78.7497 131.806 79.967C132.221 80.5966 133.251 80.9079 134.034 80.7471C134.558 80.6403 134.761 80.1288 135.36 80.116C135.758 80.1075 136.035 80.2954 136.208 80.383C137.22 80.9169 139.211 80.4529 140.401 79.2249Z" fill="#FCC8B3"/>
<path d="M137.528 79.787C136.969 79.936 136.703 79.5131 136.043 79.424C135.169 79.306 134.649 79.9184 134.417 79.6802C134.185 79.4421 134.586 78.6999 134.682 78.5227C135.084 77.781 135.915 76.9081 136.399 77.1061C136.717 77.237 136.514 77.6972 136.993 78.362C137.451 78.9963 138.05 79.1501 137.995 79.4512C137.95 79.6717 137.588 79.7705 137.528 79.787Z" fill="#FCA886"/>
<path d="M135.881 76.3842C135.925 76.5508 136.676 76.263 137.101 76.6384C137.564 77.0452 137.106 77.7554 137.569 78.3149C138.049 78.8948 139.048 78.7474 139.115 78.7367C140.221 78.5589 140.653 77.4606 140.691 77.3651C140.99 76.569 140.781 75.6848 140.313 75.1038C139.298 73.8405 137.249 74.2383 137.245 74.2725C137.242 74.3067 138.747 74.1689 139.526 75.0996C139.595 75.1818 140.056 75.7494 139.924 76.4531C139.832 76.9539 139.443 77.5151 139.079 77.4825C138.715 77.45 138.75 76.8418 138.077 76.3356C138.005 76.2822 137.348 75.8017 136.602 75.9501C136.211 76.027 135.85 76.2646 135.881 76.3842Z" fill="#FCA886"/>
<path d="M133.922 77.8065C133.86 77.7825 134.002 76.0782 135.244 75.2628C136.063 74.7246 137.036 74.7865 137.054 74.8661C137.071 74.9457 136.113 74.9969 135.243 75.6969C134.163 76.5662 133.976 77.8273 133.922 77.8065Z" fill="#FCA886"/>
<path d="M123.917 122.748C123.041 121.723 122.092 120.768 121.128 119.828L106.438 114.626C106.031 121.363 105.67 126.368 105.405 129.816C105.379 130.159 105.14 133.267 105.242 137.403C105.333 141.073 105.638 143.333 106.51 145.698C107.252 147.712 107.835 149.21 109.407 150.076C111.7 151.338 114.262 150.177 114.478 150.076C115.759 149.477 116.395 148.595 117.466 147.159C119.135 144.921 120.248 143.984 121.1 142.443C121.648 141.451 122.101 140.409 122.454 139.332C122.417 134.26 123.376 129.23 125.275 124.532C124.855 123.913 124.401 123.317 123.917 122.748Z" fill="#5F60E8"/>
<path d="M151.475 92.3457L150.308 90.9965C150.335 90.8014 150.362 90.6056 150.389 90.4091C149.085 90.5827 147.68 90.8219 146.195 91.1492C144.743 91.4695 143.396 91.8332 142.164 92.2139C141.542 92.3164 140.442 92.4995 139.035 92.751C137.837 92.9646 137.457 93.0431 137.338 92.8578C136.967 92.2822 140.021 90.5618 139.967 88.0315C139.961 87.7234 139.947 87.0245 139.49 86.6897C138.61 86.0421 136.683 87.2082 135.61 87.8574C134.74 88.3887 134.8 88.4864 133.626 89.2291C132.647 89.849 132.191 90.0423 131.093 90.6494C129.35 91.6105 128.478 92.0943 127.899 92.593C127.256 93.1466 125.618 94.5536 125.406 96.7043C125.362 97.1496 125.38 97.5988 125.459 98.0391C125.488 98.4867 125.541 98.9323 125.618 99.374C125.618 99.374 125.845 100.665 126.293 101.764C126.84 103.104 128.238 104.882 130.396 106.444C130.703 105.732 131.029 105.002 131.374 104.255C132.332 104.144 133.28 103.962 134.211 103.708C136.559 103.067 137.207 102.405 140.036 101.033C140.036 101.033 145.206 98.5282 148.275 96.5062C148.492 96.3631 148.981 96.0288 149.091 95.473C149.119 95.3241 149.12 95.1711 149.093 95.0218C150.151 94.4082 150.986 93.4694 151.475 92.3431V92.3457Z" fill="#FCA886"/>
<path d="M106.442 114.437C106.523 124.568 106.453 129.569 106.351 132.181C106.348 132.249 106.347 132.291 106.344 132.361C106.315 133.285 106.291 136.641 107.617 140.477C108.701 143.604 109.785 144.451 110.515 144.856C112.807 146.117 115.369 144.956 115.585 144.856C116.866 144.253 117.503 143.371 118.575 141.935C123.252 135.663 123.164 136.317 123.825 135.007C125.621 131.455 125.518 128.135 125.546 126.347C125.617 121.845 126.72 115.015 131.371 104.955C132.329 104.844 133.277 104.661 134.208 104.408C136.556 103.767 137.204 103.105 140.033 101.734C140.033 101.734 145.204 99.2283 148.273 97.2058C148.489 97.0632 148.978 96.7289 149.088 96.1726C149.116 96.0238 149.117 95.871 149.09 95.7219C149.52 95.408 149.893 95.1229 150.204 94.8794C151.14 94.1441 151.477 93.8115 151.504 93.3619C151.511 93.2542 151.5 93.1461 151.474 93.0416L152.304 92.356C152.32 92.292 152.325 92.2257 152.319 92.16C152.266 91.6138 151.397 91.3527 151.353 91.3399C151.391 91.1461 151.411 90.8743 151.262 90.6714C150.838 90.0937 149.361 90.4973 146.313 91.4915C145.093 91.8888 143.51 92.4185 141.654 93.072C140.868 93.1104 139.649 93.1905 138.163 93.3758C135.819 93.6679 134.542 94.0064 134.421 93.7101C134.18 93.1227 138.886 91.0078 139.612 88.2708C139.691 87.9718 139.914 87.1341 139.491 86.6904C139.433 86.629 139.148 86.3502 138.405 86.417C136.847 86.5574 135.441 88.0236 134.059 89.2127C132.122 90.8786 131.919 90.5475 128.656 93.1932C127.698 93.9701 127.006 94.574 126.362 95.5634C125.592 96.7476 125.312 97.8374 125.155 98.4808C124.548 100.971 124.105 103.498 123.829 106.047C123.645 108.027 123.341 110.933 122.833 114.585L106.442 114.437Z" fill="#FCC8B3"/>
<path d="M136.837 87.8466C136.873 88.065 137.075 88.1931 137.376 88.3843C137.656 88.5632 137.896 88.7159 138.224 88.6972C138.581 88.6774 138.825 88.4692 138.949 88.3629C139.062 88.2663 139.647 87.766 139.492 87.2086C139.348 86.6896 138.682 86.547 138.647 86.5401C138.004 86.4119 137.5 86.8887 137.258 87.1172C137.059 87.3068 136.791 87.561 136.837 87.8466Z" fill="#FDAB9A"/>
<path d="M150.78 90.9761C150.545 91.2868 150.34 91.6185 150.166 91.9671C150.106 92.0963 150.037 92.2623 150.103 92.4193C150.129 92.4792 150.17 92.5314 150.221 92.571C150.669 92.2332 151.052 91.8172 151.353 91.3429C151.331 91.3051 151.306 91.2693 151.278 91.2361C151.147 91.0932 150.971 91.0012 150.78 90.9761Z" fill="#FDAB9A"/>
<path d="M151.787 91.9336C151.504 92.2001 151.246 92.4923 151.016 92.8066C150.934 92.9235 150.839 93.0736 150.878 93.2417C150.894 93.3052 150.925 93.3637 150.969 93.4115C151.478 93.152 151.932 92.794 152.303 92.3581C152.288 92.3224 152.271 92.2881 152.25 92.2556C152.139 92.0962 151.974 91.9821 151.787 91.9336Z" fill="#FDAB9A"/>
<path d="M141.184 96.963C141.201 97.0073 142.8 96.4291 143.991 95.9603C144.463 95.7734 144.839 95.6159 145.228 95.4439C145.459 95.3409 145.945 95.1236 146.632 94.7754C148.117 94.0247 148.883 93.6467 149.665 93.0433C149.934 92.8351 150.142 92.652 150.28 92.5308C149.543 92.9761 148.419 93.6301 147.009 94.3499C143.757 96.0105 141.163 96.908 141.184 96.963Z" fill="#FCA886"/>
<path d="M142.028 98.862C142.055 98.9212 143.557 98.2549 144.14 97.9959C144.985 97.6222 145.485 97.3723 146.012 97.069C146.141 96.9948 146.386 96.8512 146.781 96.5981C147.341 96.2393 148.138 95.7043 149.274 94.8206C150.041 94.2226 150.995 93.4398 150.971 93.411C150.957 93.3934 150.579 93.6475 148.921 94.8873C148.921 94.8873 148.327 95.338 147.446 95.9387C147.181 96.1213 146.955 96.2686 146.667 96.4342C146.314 96.6371 145.948 96.8181 145.573 96.9761C144.326 97.5084 141.992 98.7867 142.028 98.862Z" fill="#FCA886"/>
<path d="M149.092 95.722C149.108 95.7423 148.365 96.342 147.661 96.878C147.083 97.3175 146.595 97.6902 145.922 98.1328C145.057 98.7014 144.141 99.2204 144.121 99.1873C144.121 99.1873 144.121 99.1697 144.37 98.9844C144.954 98.5541 145.401 98.3047 145.692 98.1258C146.015 97.9278 146.054 97.8728 146.766 97.3452C147.818 96.5641 149.07 95.69 149.092 95.722Z" fill="#FCA886"/>
<path d="M122.832 114.587C122.545 117.31 122.447 119.526 122.408 121.029C122.335 123.956 122.476 124.858 122.257 127.107C121.936 130.392 121.2 132.897 121.11 132.88C121.03 132.865 121.444 130.881 121.614 127.651C121.642 127.123 121.658 126.652 121.667 126.244C121.687 125.425 121.683 124.822 121.682 124.706C121.679 123.905 121.754 121.598 122.036 115.766L122.832 114.587Z" fill="#FCA886"/>
<path d="M122.704 115.883L106.467 118.446L106.441 114.434L122.924 113.9C122.851 114.561 122.778 115.222 122.704 115.883Z" fill="#FCA886"/>
<path d="M107.193 100.927C106.942 105.43 106.691 109.933 106.441 114.436L122.829 113.889L124.056 100.686L107.193 100.927Z" fill="#8485F4"/>
<path d="M165.471 58.7402L166.072 57.2565C166.365 56.4642 166.787 55.7255 167.319 55.0712C167.831 54.5215 168.521 54.1758 169.259 54.0982L171.021 53.7928C171.459 53.7187 171.891 53.6095 172.313 53.4661C172.742 53.3234 173.138 53.0926 173.476 52.7884C173.752 52.501 173.967 52.1593 174.107 51.7849C174.224 51.5352 174.282 51.2621 174.277 50.9872C174.273 50.7122 174.205 50.4429 174.079 50.2005C173.822 49.7156 173.399 49.3433 172.888 49.152C172.367 48.9312 171.794 48.8611 171.231 48.9493C170.701 49.0301 170.22 49.3188 169.894 49.7529C169.522 50.2471 168.988 50.5899 168.39 50.7177C167.753 50.8295 167.099 50.7241 166.533 50.4181C166.269 50.2919 166.028 50.1226 165.82 49.917C165.61 49.7159 165.445 49.4709 165.338 49.1987C165.229 48.913 165.178 48.6075 165.187 48.3001C165.198 47.9393 165.284 47.5839 165.439 47.2575C165.751 46.5273 166.248 45.8921 166.88 45.4176C167.541 44.9247 168.29 44.5689 169.085 44.3711C169.961 44.1558 170.864 44.0856 171.758 44.1632C172.743 44.2462 173.708 44.4802 174.619 44.8572C175.549 45.2233 176.42 45.723 177.207 46.3413C177.903 46.8866 178.482 47.5691 178.91 48.3485C179.316 49.112 179.54 49.9634 179.562 50.8346C179.574 51.8334 179.376 52.8261 178.982 53.7466C178.702 54.4776 178.312 55.1612 177.826 55.7724C177.377 56.3133 176.827 56.7594 176.208 57.0845C175.611 57.3822 174.988 57.6238 174.347 57.8061C173.642 58.0121 172.913 58.1892 172.168 58.3399C171.819 58.391 171.492 58.5502 171.234 58.7956C171.02 59.0312 170.852 59.3046 170.737 59.6016L170.294 60.6966L165.471 58.7402ZM163.871 62.2816C163.986 61.9437 164.169 61.6329 164.409 61.3695C164.649 61.1062 164.94 60.896 165.263 60.7525C165.976 60.5404 166.736 60.5759 167.421 60.8532C168.106 61.1305 168.677 61.6337 169.042 62.2822C169.274 62.9494 169.255 63.6831 168.988 64.3432C168.721 65.0033 168.224 65.5437 167.593 65.8612C166.88 66.0733 166.12 66.0378 165.435 65.7605C164.75 65.4832 164.179 64.98 163.814 64.3315C163.684 64.0059 163.622 63.6559 163.632 63.3032C163.642 62.9505 163.723 62.6028 163.871 62.2816Z" fill="#FFB50F"/>
<path d="M73.9125 73.201L73.1198 71.8105C72.6796 71.0893 72.361 70.3006 72.1773 69.4772C72.0628 68.7347 72.2184 67.9796 72.615 67.3517L73.4668 65.7791C73.68 65.3894 73.8617 64.9826 74.0104 64.5627C74.164 64.1377 74.2282 63.6839 74.1989 63.2298C74.1444 62.835 74.0091 62.4548 73.8016 62.1133C73.6781 61.8668 73.5 61.6517 73.2812 61.4851C73.0624 61.3185 72.809 61.2049 72.541 61.1532C72.0008 61.0551 71.4466 61.1565 70.9802 61.4386C70.4838 61.7113 70.0735 62.118 69.7946 62.6139C69.5293 63.0806 69.4583 63.6367 69.5968 64.162C69.7547 64.7596 69.6928 65.3914 69.4228 65.9399C69.1157 66.5095 68.6283 66.9571 68.037 67.2124C67.7747 67.3411 67.4926 67.4254 67.202 67.4618C66.914 67.502 66.6199 67.4794 66.3394 67.3954C66.0478 67.3036 65.7764 67.1545 65.5409 66.9566C65.2641 66.725 65.0383 66.4375 64.8786 66.113C64.4982 65.4161 64.3076 64.6323 64.3265 63.8425C64.3489 63.0183 64.534 62.2094 64.8709 61.463C65.2445 60.642 65.7487 59.8897 66.3637 59.2355C67.0388 58.514 67.8201 57.9017 68.6808 57.4195C69.544 56.9164 70.4761 56.5419 71.4486 56.3075C72.3079 56.0989 73.2025 56.067 74.0795 56.2137C74.9306 56.3676 75.7371 56.7199 76.4347 57.2423C77.2264 57.8513 77.8833 58.6214 78.3616 59.5013C78.7624 60.1734 79.0574 60.9031 79.2356 61.6638C79.3823 62.3512 79.3919 63.0591 79.264 63.7461C79.1274 64.3999 78.9311 65.0386 78.6776 65.6542C78.4023 66.3357 78.0899 67.0174 77.7467 67.6957C77.5705 68.0015 77.4933 68.3563 77.5258 68.7113C77.5786 69.0247 77.6889 69.3262 77.8511 69.6003L78.4361 70.6265L73.9125 73.201ZM75.7017 76.6507C75.5074 76.3513 75.3769 76.015 75.3187 75.6637C75.2604 75.3123 75.2757 74.9536 75.3635 74.6108C75.6388 73.9195 76.1373 73.3449 76.7794 72.9789C77.4214 72.6129 78.1699 72.4766 78.905 72.5919C79.5729 72.8226 80.137 73.2921 80.4897 73.9108C80.8424 74.5295 80.9589 75.2541 80.8172 75.9463C80.5419 76.6376 80.0433 77.2122 79.4012 77.5782C78.7592 77.9442 78.0108 78.0805 77.2757 77.9652C76.9395 77.8656 76.6263 77.6974 76.3555 77.4713C76.0847 77.2451 75.8621 76.9658 75.7017 76.6507Z" fill="#FFB50F"/>
<defs>
<filter id="filter0_d_234_20818" x="0" y="0" width="240" height="261" filterUnits="userSpaceOnUse" color-interpolation-filters="sRGB">
<feFlood flood-opacity="0" result="BackgroundImageFix"/>
<feColorMatrix in="SourceAlpha" type="matrix" values="0 0 0 0 0 0 0 0 0 0 0 0 0 0 0 0 0 0 127 0" result="hardAlpha"/>
<feOffset dx="2" dy="2"/>
<feGaussianBlur stdDeviation="6"/>
<feComposite in2="hardAlpha" operator="out"/>
<feColorMatrix type="matrix" values="0 0 0 0 0 0 0 0 0 0 0 0 0 0 0 0 0 0 0.15 0"/>
<feBlend mode="normal" in2="BackgroundImageFix" result="effect1_dropShadow_234_20818"/>
<feBlend mode="normal" in="SourceGraphic" in2="effect1_dropShadow_234_20818" result="shape"/>
</filter>
</defs>
</svg>
