<svg width="97" height="77" viewBox="0 0 97 77" fill="none" xmlns="http://www.w3.org/2000/svg">
<g opacity="0.8" clip-path="url(#clip0_234_12326)">
<path d="M59.2739 76.0529H42.8912C41.6783 72.2598 39.4156 64.5868 39.1981 59.5066C38.8991 52.5359 41.3878 47.3486 45.103 42.5727L58.4517 40.4917C61.647 54.8719 59.4692 68.7999 59.2739 76.0529Z" fill="#392C4B"/>
<path d="M48.4572 4.34937C45.2721 4.84753 42.6815 6.92856 42.284 11.9662C41.8865 17.0039 41.737 18.1515 39.4471 19.9452C37.1572 21.7389 34.9658 22.5499 35.4143 27.625C35.8627 32.7001 38.4516 35.0923 42.284 34.9919C46.1164 34.8916 60.3552 29.0328 60.3552 29.0328C60.3552 29.0328 55.6259 18.8214 55.5274 16.4683C55.4289 14.1153 57.87 3.60299 48.4572 4.34937Z" fill="black"/>
<path d="M53.1745 19.1138L59.7045 22.657C60.3816 23.1432 60.931 23.7862 61.3058 24.5311C61.6806 25.2761 61.8696 26.1007 61.8568 26.9347L61.6479 39.9768L47.3631 42.318L46.2012 19.1155L53.1745 19.1138Z" fill="#FFB50F"/>
<path d="M46.627 27.625L48.905 39.2169L50.5035 38.4076L46.627 27.625Z" fill="#CE8F00"/>
<path d="M45.5703 41.6686C45.5703 41.6686 54.5312 46.0041 59.2095 41.6686L58.0204 36.6021L45.5703 41.6686Z" fill="#CE8F00"/>
<path d="M58.0162 24.9265V20.2935L54.9092 20.5111C54.7815 20.5197 54.6613 20.5751 54.5717 20.6666C54.4821 20.7582 54.4293 20.8795 54.4234 21.0075C54.3724 22.0855 54.3673 24.7174 55.4273 25.4281L58.0162 24.9265Z" fill="#FCC8B3"/>
<path d="M58.0169 20.2937V18.1514L55.5283 16.4683L55.4926 16.7879C55.4731 16.966 55.4994 17.1462 55.5689 17.3114C55.6385 17.4765 55.749 17.6211 55.8901 17.7315L56.9909 18.5901L56.9722 20.8905L58.0169 20.2937Z" fill="#FCC8B3"/>
<path d="M55.4277 25.4266C55.4277 25.4266 56.6814 38.1288 56.9719 39.9752C57.1588 41.1296 58.4209 41.9661 59.3365 42.4302C59.6132 42.5686 59.9293 42.6067 60.2309 42.5382C60.5325 42.4697 60.8012 42.2988 60.9911 42.0545C61.5347 41.3591 62.2176 40.322 62.2975 39.4022C62.4351 37.8465 58.0166 24.9268 58.0166 24.9268L55.4277 25.4266Z" fill="#FCC8B3"/>
<path d="M44.4492 44.3327C44.4492 44.3327 46.2618 46.3559 47.2572 46.7282C48.2527 47.1006 57.1643 39.4021 57.1643 39.4021L56.5579 35.3403L44.4492 41.461V44.3327Z" fill="#FCC8B3"/>
<path d="M46.2014 19.1138L40.9675 21.9446C40.174 22.3733 39.514 23.0128 39.0602 23.7927C38.6065 24.5726 38.3765 25.4628 38.3956 26.3651C38.4942 30.8179 39.1006 39.21 42.0853 44.8581C43.1232 46.8201 48.9058 39.8748 48.9058 39.8748L46.2014 19.1138Z" fill="#FFB50F"/>
<path d="M52.6613 19.7666C52.6613 19.7666 54.0747 21.0417 53.6687 22.5362C53.2627 24.0307 51.1953 22.1129 51.1953 22.1129L52.6613 19.7666Z" fill="#FCA886"/>
<path d="M46.9639 16.1162C46.9639 16.1162 48.0919 18.085 46.2012 19.1136C46.2012 19.1136 48.6576 23.8742 51.3127 23.864C53.2544 23.864 53.6689 22.5361 53.6689 22.5361C53.6689 22.5361 52.9724 21.3324 52.8382 20.8903C52.6683 20.3463 52.5647 18.6325 52.5647 18.6325L46.9639 16.1162Z" fill="#FCC8B3"/>
<path d="M53.1746 21.6369C50.7318 21.4958 48.4742 19.5151 47.832 17.8965L52.1723 18.4524L52.5647 18.6225C52.5647 18.6225 52.6752 20.3363 52.8399 20.882C52.9318 21.1419 53.0437 21.3943 53.1746 21.6369Z" fill="#FCA886"/>
<path d="M55.9585 13.5525C55.9585 17.2674 55.0429 19.646 52.1754 19.646C49.3079 19.646 45.1035 16.635 45.1035 12.92C45.1035 9.20512 47.7298 6.19238 50.599 6.19238C53.4681 6.19238 55.9585 9.83759 55.9585 13.5525Z" fill="#FCC8B3"/>
<path d="M53.4904 13.0493C53.4037 13.3281 53.3799 14.3687 53.769 14.6509" stroke="black" stroke-width="0.5" stroke-miterlimit="10" stroke-linecap="round"/>
<path d="M54.7391 15.9443C54.7391 15.9443 54.1581 17.5136 52.2012 16.808" stroke="black" stroke-width="0.5" stroke-miterlimit="10" stroke-linecap="round"/>
<path d="M50.5742 15.0043C50.7328 15.0043 50.8613 14.8102 50.8613 14.5708C50.8613 14.3313 50.7328 14.1372 50.5742 14.1372C50.4156 14.1372 50.2871 14.3313 50.2871 14.5708C50.2871 14.8102 50.4156 15.0043 50.5742 15.0043Z" fill="black"/>
<path d="M54.7383 13.5522C54.8968 13.5522 55.0253 13.358 55.0253 13.1186C55.0253 12.8792 54.8968 12.6851 54.7383 12.6851C54.5797 12.6851 54.4512 12.8792 54.4512 13.1186C54.4512 13.358 54.5797 13.5522 54.7383 13.5522Z" fill="black"/>
<path d="M50.9798 13.3348C50.6655 13.1648 49.8518 13.5048 49.7363 13.8448L50.9798 13.3348Z" fill="black"/>
<path d="M54.0547 12.4048C54.1991 12.0801 55.0451 11.8387 55.3508 12.041L54.0547 12.4048Z" fill="black"/>
<path d="M55.6993 10.5976C55.6993 10.5976 54.7939 7.41481 53.4808 6.33349C52.2118 5.29127 48.6649 5.28787 46.9253 6.48311C44.3857 8.22751 45.1145 13.9861 45.1145 13.9861C50.8155 13.9861 53.1682 10.3238 53.1852 8.00308C54.1331 9.23742 54.0635 10.2201 55.6993 10.5976Z" fill="black"/>
<path d="M46.5823 16.7795C47.4961 16.7795 48.2369 15.9848 48.2369 15.0045C48.2369 14.0242 47.4961 13.2295 46.5823 13.2295C45.6685 13.2295 44.9277 14.0242 44.9277 15.0045C44.9277 15.9848 45.6685 16.7795 46.5823 16.7795Z" fill="#FCC8B3"/>
<path d="M46.4025 14.3717C45.5531 14.3598 45.407 15.7131 46.129 15.8712" stroke="black" stroke-width="0.5" stroke-miterlimit="10" stroke-linecap="round"/>
<path d="M90.1346 43.2429C88.7004 44.1409 87.0928 44.7255 85.4172 44.9584L73.5464 46.6297C71.0619 46.9789 68.5385 46.3561 66.5009 44.891C64.4634 43.4258 63.0686 41.231 62.6065 38.7629L61.927 35.0769C61.2884 31.6551 61.795 28.1181 63.3684 25.0137C64.9417 21.9092 67.4939 19.4107 70.6296 17.905L71.09 17.6839L75.0973 15.761C75.3475 15.6399 75.6258 15.5894 75.9025 15.6148L81.4829 16.1164L83.8611 16.3289C86.4849 16.5621 88.9618 17.6428 90.9182 19.4081C92.8747 21.1733 94.2047 23.5273 94.7076 26.1152L95.5825 30.6768C96.0513 33.0771 95.7816 35.5632 94.8089 37.8068C93.8362 40.0505 92.2063 41.946 90.1346 43.2429Z" fill="#FFE09C"/>
<path d="M65.6328 41.4693C66.579 39.1775 67.8225 37.8326 70.2619 37.3345" stroke="#285DB9" stroke-width="1.04" stroke-miterlimit="10"/>
<path d="M90.9734 41.041C90.9734 41.041 93.829 52.7332 94.0311 58.0123C94.4303 68.7082 92.5023 76.0531 92.5023 76.0531H66.0664L69.0681 43.9653L90.9734 41.041Z" fill="#07364A"/>
<path d="M80.5925 9.06364L69.7868 11.1889L68.8983 6.47595C68.6324 5.06215 68.9382 3.60053 69.7486 2.41232C70.5589 1.22411 71.8075 0.40655 73.2199 0.139333L73.456 0.0951258C74.8682 -0.170972 76.3282 0.135212 77.5149 0.946332C78.7015 1.75745 79.5177 3.00709 79.7839 4.42042L80.5925 9.06364Z" fill="#285DB9"/>
<path d="M80.5928 9.06384L69.7871 11.1891L68.9003 6.47614C68.7453 5.66297 68.7791 4.82501 68.9991 4.027C69.2192 3.22898 69.6195 2.49226 70.1693 1.87373C70.3159 1.70573 70.4737 1.54782 70.6415 1.40108C71.3717 0.755521 72.2627 0.319617 73.2202 0.139531L73.4563 0.0953247C74.4735 -0.0993357 75.5253 0.00397651 76.4852 0.392858C76.6109 0.442164 76.7315 0.49827 76.8521 0.562877C77.607 0.933296 78.2651 1.4749 78.7741 2.1446C79.2831 2.8143 79.629 3.59363 79.7842 4.42061L80.5928 9.06384Z" fill="#07364A"/>
<path d="M80.4794 16.5363C80.6403 17.245 80.5587 17.9873 80.2475 18.6441C79.9364 19.3008 79.4138 19.8339 78.7636 20.1577C77.9347 20.5706 77.0323 20.815 76.1085 20.8768C75.5731 20.9155 75.035 20.8783 74.51 20.7663C73.7133 20.5914 73.0006 20.1486 72.4906 19.5116C71.9806 18.8746 71.704 18.0819 71.7071 17.2656V12.1141L79.3667 11.604L80.4794 16.5363Z" fill="#FCC8B3"/>
<path d="M78.724 13.1477C78.8599 15.1879 76.8724 16.9884 74.2801 17.1635C73.4002 17.229 72.5173 17.0857 71.7031 16.7453V12.1139L78.2161 11.6753C78.5107 12.1134 78.6857 12.621 78.724 13.1477Z" fill="#FCA886"/>
<path d="M79.7827 7.33019C79.4068 4.54035 76.8424 2.58372 74.055 2.95993C71.2675 3.33614 69.3125 5.90272 69.6884 8.69256L70.0787 11.589C70.4546 14.3788 73.019 16.3355 75.8064 15.9592C78.5939 15.583 80.5489 13.0164 80.173 10.2266L79.7827 7.33019Z" fill="#FCC8B3"/>
<path d="M80.0625 10.6995C80.9341 10.6995 81.6407 9.99233 81.6407 9.12001C81.6407 8.24768 80.9341 7.54053 80.0625 7.54053C79.1909 7.54053 78.4844 8.24768 78.4844 9.12001C78.4844 9.99233 79.1909 10.6995 80.0625 10.6995Z" fill="#FCC8B3"/>
<path d="M80.1777 8.18164C80.3733 8.20636 80.5563 8.29173 80.701 8.42577C80.8457 8.55982 80.9449 8.73582 80.9846 8.92911C81.0243 9.12239 81.0026 9.32327 80.9224 9.50358C80.8423 9.68388 80.7079 9.83458 80.5379 9.93454" stroke="black" stroke-width="0.5" stroke-miterlimit="10" stroke-linecap="round"/>
<path d="M70.1309 12.2771C71.0024 12.2771 71.709 11.57 71.709 10.6976C71.709 9.82532 71.0024 9.11816 70.1309 9.11816C69.2593 9.11816 68.5527 9.82532 68.5527 10.6976C68.5527 11.57 69.2593 12.2771 70.1309 12.2771Z" fill="#FCC8B3"/>
<path d="M69.9389 9.77295C69.7458 9.81331 69.5702 9.91317 69.4367 10.0585C69.3032 10.2039 69.2185 10.3874 69.1945 10.5834C69.1705 10.7793 69.2084 10.9779 69.303 11.1512C69.3975 11.3245 69.5438 11.4638 69.7215 11.5496" stroke="black" stroke-width="0.5" stroke-miterlimit="10" stroke-linecap="round"/>
<path d="M77.4931 10.1113C77.677 10.1113 77.826 9.9621 77.826 9.77806C77.826 9.59402 77.677 9.44482 77.4931 9.44482C77.3092 9.44482 77.1602 9.59402 77.1602 9.77806C77.1602 9.9621 77.3092 10.1113 77.4931 10.1113Z" fill="black"/>
<path d="M72.6826 10.8764C72.8664 10.8764 73.0155 10.7272 73.0155 10.5432C73.0155 10.3592 72.8664 10.21 72.6826 10.21C72.4987 10.21 72.3496 10.3592 72.3496 10.5432C72.3496 10.7272 72.4987 10.8764 72.6826 10.8764Z" fill="black"/>
<path d="M74.7656 9.90527C74.9355 10.1569 75.2752 11.1889 74.9746 11.5885" stroke="black" stroke-width="0.5" stroke-miterlimit="10" stroke-linecap="round"/>
<path d="M74.2441 12.9402C74.2441 12.9402 75.773 13.9858 76.8891 12.5186" stroke="black" stroke-width="0.5" stroke-miterlimit="10" stroke-linecap="round"/>
<path d="M71.6582 9.49245C71.6582 9.49245 72.1203 9.00619 73.0902 9.06909" stroke="black" stroke-width="0.5" stroke-miterlimit="10" stroke-linecap="round"/>
<path d="M78.0403 8.37537C78.0403 8.37537 77.3981 8.17135 76.4961 8.53519" stroke="black" stroke-width="0.5" stroke-miterlimit="10" stroke-linecap="round"/>
<path d="M69.6634 9.31028C69.6741 9.35621 69.6984 9.39786 69.733 9.42989C69.7676 9.46191 69.811 9.48283 69.8576 9.48996C69.9042 9.4971 69.9518 9.49011 69.9944 9.46991C70.037 9.4497 70.0726 9.4172 70.0966 9.37659C70.6707 8.39218 72.1181 6.40125 74.5439 6.11902C76.9697 5.83679 78.7296 7.11873 79.4515 7.76651C79.5976 7.89572 79.7811 7.7427 79.7811 7.54718V5.67697C79.7811 5.67697 77.5897 1.85494 74.2058 2.3718C70.8219 2.88865 69.3321 6.22443 69.3066 7.81241L69.6634 9.31028Z" fill="#A2C6D4"/>
<path d="M69.6182 8.98029C69.6285 9.02631 69.6525 9.06815 69.687 9.10034C69.7214 9.13254 69.7648 9.15359 69.8114 9.16074C69.8579 9.1679 69.9056 9.16084 69.9481 9.14048C69.9906 9.12012 70.026 9.0874 70.0497 9.0466C70.6239 8.06389 72.027 6.06106 74.4528 5.77883C76.8786 5.4966 78.8696 7.05567 79.4522 7.57933C79.4866 7.60502 79.5265 7.62236 79.5687 7.62999C79.6109 7.63762 79.6543 7.63532 79.6955 7.62329C79.7367 7.61125 79.7745 7.58981 79.806 7.56064C79.8375 7.53147 79.8618 7.49538 79.8769 7.45521L79.9245 5.48299C79.9245 5.48299 77.5904 1.32942 74.2065 1.84628C70.8226 2.36314 69.2802 5.88934 69.2598 7.48072L69.6182 8.98029Z" fill="#07364A"/>
<path d="M70.2096 5.87748L70.0516 5.93189C69.3449 3.85256 69.7747 2.54001 70.1688 1.87353C70.3155 1.70553 70.4732 1.54763 70.6411 1.40088L70.6971 1.46208C70.6802 1.47568 69.1767 2.84094 70.2096 5.87748Z" fill="#A2C6D4"/>
<path d="M77.9149 3.94307L77.745 3.96347C77.3509 0.711002 76.4812 0.47808 76.4727 0.476379L76.4879 0.393066C76.6136 0.442372 76.7343 0.498478 76.8549 0.563086C77.1776 0.921826 77.6465 1.80253 77.9149 3.94307Z" fill="#A2C6D4"/>
<path d="M90.1348 43.2428C90.0907 43.6724 90.0369 44.0764 89.9734 44.455C85.239 45.4275 79.1932 45.9852 74.3144 46.3252H68.5591C68.5828 46.2419 68.61 46.1552 68.6372 46.0634C69.7618 42.3128 70.9509 36.2584 70.9509 36.2584C68.0121 32.6727 66.3541 26.6404 64.8711 22.5888C66.3867 20.5905 68.3569 18.9829 70.6179 17.8997L71.0783 17.6787C72.9962 23.9796 78.3285 31.1629 78.3285 31.1629L81.4831 16.1162L83.8614 16.3287C85.426 16.4693 86.9488 16.9109 88.3461 17.6294C87.0482 20.6693 87.4967 28.6636 87.4967 28.6636C87.4967 28.6636 88.2254 30.1785 89.7186 36.5559C90.2285 38.7461 90.3692 41.0062 90.1348 43.2428Z" fill="#07364A"/>
<path d="M70.3938 19.9448C70.3938 19.9448 66.4866 22.7348 66.2148 23.0052" stroke="#A2C6D4" stroke-width="1.04" stroke-miterlimit="10"/>
<path d="M82.0801 17.3726C82.0801 17.3726 86.5495 17.937 86.9894 18.124" stroke="#A2C6D4" stroke-width="1.04" stroke-miterlimit="10"/>
<path d="M68.7441 27.9855L72.6903 25.7446L73.3291 26.8651L71.4825 28.4836L69.055 29.0328L68.7441 27.9855Z" stroke="#A2C6D4" stroke-width="1.04" stroke-miterlimit="10"/>
<path d="M71.0371 27.625L71.4822 28.4836" stroke="#A2C6D4" stroke-width="1.04" stroke-miterlimit="10"/>
<path d="M73.2222 27.2999L67.8457 46.9031L81.5851 45.4376L87.8076 26.8018L73.2222 27.2999Z" fill="white"/>
<path d="M78.1718 28.9668C78.2026 28.735 78.0919 28.529 77.9245 28.5067C77.7571 28.4844 77.5964 28.6543 77.5656 28.886C77.5347 29.1178 77.6455 29.3237 77.8129 29.346C77.9803 29.3683 78.141 29.1985 78.1718 28.9668Z" stroke="black" stroke-width="1.04" stroke-miterlimit="10"/>
<path d="M83.5487 28.7172C83.5795 28.4855 83.4688 28.2795 83.3014 28.2572C83.134 28.2349 82.9733 28.4047 82.9425 28.6365C82.9117 28.8683 83.0224 29.0742 83.1898 29.0965C83.3572 29.1188 83.5179 28.949 83.5487 28.7172Z" stroke="black" stroke-width="1.04" stroke-miterlimit="10"/>
<path d="M86.9902 34.0484C85.1216 33.5077 80.3974 34.0484 80.3974 34.0484L80.1103 37.5372C80.0836 37.8518 80.1684 38.1657 80.3498 38.424C80.5312 38.6824 80.7976 38.8686 81.1023 38.9501C82.4613 39.3139 84.7682 39.7542 86.0287 38.9807L86.9902 34.0484Z" fill="#FCC8B3"/>
<path d="M80.3979 34.0483L76.7779 34.3884C76.6573 34.3994 76.5452 34.4553 76.4637 34.545C76.3823 34.6347 76.3374 34.7517 76.3379 34.8729C76.3379 35.0019 76.3891 35.1256 76.4802 35.2168C76.5713 35.308 76.6949 35.3592 76.8237 35.3592H80.9177L80.3979 34.0483Z" fill="#FCC8B3"/>
<path d="M80.3979 35.5376L76.7779 35.8776C76.6574 35.8891 76.5456 35.9451 76.4642 36.0347C76.3828 36.1243 76.3378 36.2411 76.3379 36.3622C76.3379 36.4912 76.3891 36.6148 76.4802 36.706C76.5713 36.7972 76.6949 36.8484 76.8237 36.8484H80.9177L80.3979 35.5376Z" fill="#FCC8B3"/>
<path d="M85.946 34.113C85.946 34.113 85.6062 32.8463 84.9505 32.4417C84.2948 32.037 82.9579 31.1699 82.9579 31.1699C82.9579 31.1699 82.5111 31.4216 82.6181 31.8704C82.7251 32.3193 83.2976 32.7834 83.2976 32.7834L84.1266 34.4105L85.946 34.113Z" fill="#FCC8B3"/>
<path d="M96.5102 31.2175L93.7498 23.2266L89.085 31.9417C87.1569 32.6218 86.7068 33.7967 86.7068 33.7967C86.7068 33.7967 86.5573 36.3214 86.3942 37.146C86.029 38.9686 85.166 39.3971 85.166 39.3971C87.4118 41.7978 90.2741 43.1375 92.5946 42.1055C96.483 41.303 97.825 35.5377 96.5102 31.2175Z" fill="#FFE09C"/>
<path d="M89.084 31.9468C89.084 31.9468 92.2097 30.4643 94.5386 32.7969" stroke="#285DB9" stroke-width="1.04" stroke-miterlimit="10"/>
<path d="M80.6208 48.2021H44.6465V76.1482H80.6208V48.2021Z" fill="#FFBA82"/>
<path d="M65.3592 48.2021H59.9062V60.0049H65.3592V48.2021Z" fill="#E79763"/>
<path d="M36.2911 51.5498H2.28906V77.0017H36.2911V51.5498Z" fill="#E29860"/>
<path d="M36.2893 51.5498H7.85742V77.0017H36.2893V51.5498Z" fill="#FFBA82"/>
<path d="M12.7754 21.6363C12.7754 20.762 13.0344 19.9074 13.5197 19.1804C14.0051 18.4535 14.6949 17.8869 15.5019 17.5523C16.309 17.2177 17.197 17.1302 18.0538 17.3008C18.9106 17.4713 19.6975 17.8923 20.3152 18.5106C20.9329 19.1288 21.3536 19.9164 21.524 20.7739C21.6944 21.6314 21.6069 22.5202 21.2727 23.328C20.9384 24.1357 20.3723 24.8261 19.6459 25.3118C18.9196 25.7976 18.0657 26.0568 17.1921 26.0568C16.0207 26.0568 14.8973 25.5911 14.069 24.7621C13.2407 23.9331 12.7754 22.8087 12.7754 21.6363ZM14.3892 21.6363C14.3892 22.1905 14.5534 22.7322 14.861 23.193C15.1686 23.6538 15.6059 24.0129 16.1174 24.225C16.6289 24.437 17.1918 24.4925 17.7349 24.3844C18.2779 24.2763 18.7768 24.0094 19.1683 23.6176C19.5598 23.2257 19.8264 22.7265 19.9345 22.1829C20.0425 21.6394 19.987 21.0761 19.7752 20.5641C19.5633 20.0521 19.2044 19.6145 18.7441 19.3066C18.2837 18.9987 17.7424 18.8344 17.1887 18.8344C16.4465 18.8353 15.735 19.1308 15.2102 19.6561C14.6853 20.1813 14.3901 20.8935 14.3892 21.6363Z" fill="#E79763"/>
<path d="M17.1898 15.6382C18.6841 15.6401 20.1238 16.2007 21.2266 17.21C22.3293 18.2194 23.0155 19.6046 23.1506 21.0941C23.1506 21.0941 23.2203 21.8269 24.0136 22.4543L28.0702 25.3684C28.171 25.4387 28.2608 25.5235 28.3369 25.62C28.3723 25.6634 28.3946 25.7159 28.4013 25.7715C28.4081 25.8271 28.3989 25.8835 28.3748 25.934C28.3508 25.9846 28.313 26.0273 28.2657 26.0572C28.2183 26.0871 28.1635 26.1029 28.1076 26.1029H20.3273C20.2726 26.1027 20.2189 26.0878 20.1718 26.0597C20.1248 26.0316 20.0861 25.9914 20.0599 25.9433C20.0337 25.8952 20.0209 25.8409 20.0228 25.7861C20.0247 25.7313 20.0413 25.6781 20.0708 25.6319C20.1259 25.5499 20.1922 25.476 20.2679 25.4126C20.8828 24.9025 22.0244 23.6427 21.953 21.4188C21.953 21.4001 21.953 21.3814 21.953 21.3627C21.8728 20.1282 21.3173 18.973 20.4034 18.1401C19.4894 17.3072 18.2883 16.8616 17.0528 16.8971C15.8172 16.9326 14.6436 17.4463 13.7789 18.3302C12.9141 19.2142 12.4257 20.3994 12.4163 21.6365C12.4081 21.7917 12.3407 21.9378 12.228 22.0447C12.1153 22.1517 11.966 22.2113 11.8107 22.2113C11.6554 22.2113 11.506 22.1517 11.3934 22.0447C11.2807 21.9378 11.2133 21.7917 11.2051 21.6365C11.2046 20.047 11.8347 18.5223 12.9569 17.3975C14.0791 16.2728 15.6016 15.64 17.1898 15.6382Z" fill="#FF3C3A"/>
<path d="M17.1919 24.1052C18.5588 24.1052 19.6669 22.9962 19.6669 21.6281C19.6669 20.26 18.5588 19.1509 17.1919 19.1509C15.8249 19.1509 14.7168 20.26 14.7168 21.6281C14.7168 22.9962 15.8249 24.1052 17.1919 24.1052Z" stroke="#FF3C3A" stroke-width="1.12" stroke-miterlimit="10"/>
<path d="M34.0021 26.1963H0V51.6482H34.0021V26.1963Z" fill="#E29860"/>
<path d="M28.4455 26.1963H0V51.6482H28.4455V26.1963Z" fill="#FFBA82"/>
<path d="M17.2318 26.3374V38.3969H16.9073C16.6695 38.0143 16.3807 37.5468 16.3229 37.4244C16.2652 37.3019 16.1785 37.9174 16.1276 38.3969H15.8303L15.3767 37.4244L14.9401 38.3969H14.5172L14.3813 38.0228L14.0704 38.3969H13.4317L13.2856 38.0228L12.1797 38.3969V26.3374H17.2318Z" fill="#E79763"/>
<path d="M42.3274 67.0708H22.3145V71.5083H42.3274V67.0708Z" fill="white"/>
<path d="M21.7148 67.0708H40.7119C41.2976 67.0708 41.8593 67.3037 42.2735 67.7182C42.6876 68.1327 42.9203 68.6949 42.9203 69.2811V69.2811C42.9214 69.572 42.8651 69.8603 42.7546 70.1295C42.6441 70.3986 42.4816 70.6433 42.2765 70.8494C42.0713 71.0556 41.8275 71.2191 41.559 71.3308C41.2905 71.4424 41.0026 71.4998 40.7119 71.4998H21.7148" stroke="#0E85F8" stroke-width="5.26" stroke-miterlimit="10"/>
<path d="M22.3145 68.6602H35.9537" stroke="#959CA3" stroke-width="0.44" stroke-miterlimit="10"/>
<path d="M22.3145 69.5562H35.9537" stroke="#959CA3" stroke-width="0.44" stroke-miterlimit="10"/>
<path d="M22.3145 70.4541H29.8314" stroke="#959CA3" stroke-width="0.44" stroke-miterlimit="10"/>
<path d="M25.9916 72.1221H39.3981V76.5595H25.9916C25.6344 76.5595 25.2917 76.4175 25.0391 76.1647C24.7865 75.9118 24.6445 75.5689 24.6445 75.2113V73.4703C24.6445 73.1127 24.7865 72.7698 25.0391 72.517C25.2917 72.2641 25.6344 72.1221 25.9916 72.1221Z" fill="white"/>
<path d="M40.2349 72.1201H25.8295C25.4514 72.1206 25.0889 72.2712 24.8216 72.539C24.5544 72.8068 24.4043 73.1698 24.4043 73.5483V75.1295C24.4043 75.5079 24.5544 75.8709 24.8216 76.1387C25.0889 76.4065 25.4514 76.5572 25.8295 76.5576H40.2349" stroke="#FF5758" stroke-width="2.95" stroke-miterlimit="10"/>
<path d="M39.3882 74.7881H30.4375" stroke="#959CA3" stroke-width="0.44" stroke-miterlimit="10"/>
<path d="M39.3897 73.8921H34.8184" stroke="#959CA3" stroke-width="0.44" stroke-miterlimit="10"/>
<path d="M40.1181 64.5732H29.2598" stroke="#959CA3" stroke-width="0.49" stroke-miterlimit="10"/>
<path d="M24.7558 61.9053H41.857V66.3428H24.7558C24.557 66.3428 24.3602 66.3036 24.1765 66.2275C23.9929 66.1513 23.8261 66.0398 23.6855 65.8991C23.545 65.7584 23.4335 65.5914 23.3574 65.4076C23.2813 65.2238 23.2422 65.0268 23.2422 64.8279V63.4167C23.2431 63.0156 23.4029 62.6311 23.6867 62.3478C23.9705 62.0644 24.3549 61.9053 24.7558 61.9053Z" fill="white"/>
<path d="M42.9206 61.9053H24.744C23.7503 61.9053 22.9434 62.5445 22.9434 63.3317V64.9146C22.9434 65.7035 23.7503 66.3411 24.744 66.3411H42.9206" stroke="#6F889B" stroke-width="4.51" stroke-miterlimit="10"/>
<path d="M41.8571 63.6753H27.6777" stroke="#959CA3" stroke-width="0.5" stroke-miterlimit="10"/>
<path d="M39.1015 64.4233H24.9238" stroke="#959CA3" stroke-width="0.5" stroke-miterlimit="10"/>
</g>
<defs>
<clipPath id="clip0_234_12326">
<rect width="97" height="77" fill="white"/>
</clipPath>
</defs>
</svg>
