<svg width="34" height="26" viewBox="0 0 34 26" fill="none" xmlns="http://www.w3.org/2000/svg">
<path d="M13.5527 18.661L13.0002 18.4051L11.8828 19.6129C11.8828 19.6129 12.1605 19.7727 12.5513 19.4465C12.665 19.3516 13.269 19.2578 13.4154 19.2489L13.9693 19.3328C13.962 19.1167 14.0121 18.9017 14.115 18.7082L13.5527 18.661Z" fill="#5B4740"/>
<path d="M18.8006 13.0793C18.5825 14.2785 18.9469 15.0496 19.4637 15.5479L19.4728 15.5385C19.4728 15.5385 19.5104 15.5699 19.5794 15.6227C19.6485 15.6755 19.7563 15.7477 19.893 15.8297C20.2428 16.044 20.6193 16.2155 21.014 16.3402C21.7852 16.5801 22.2754 16.7001 22.4728 16.7446L22.5709 16.766L22.5662 16.7877C22.5662 16.7877 22.036 16.6823 21.0062 16.3595C20.4459 16.1851 19.9236 15.9155 19.4639 15.5635L19.2052 18.9913L14.3245 18.5162C14.2361 18.5615 14.1628 18.6301 14.1134 18.7139C14.0105 18.9074 13.9604 19.1224 13.9677 19.3385C13.9668 19.4189 13.9707 19.4992 13.9794 19.5791C13.9794 19.5791 17.0124 20.4673 17.4641 20.5906C18.0843 20.752 18.7162 20.8707 19.3549 20.9456C20.2328 21.0459 20.8656 20.6869 21.1887 20.1707C21.7578 19.2639 22.2923 17.7303 22.5967 16.7671L27.3935 18.1051L30.6362 23.4752C30.704 23.4759 30.7719 23.4722 30.8393 23.4641C30.9595 23.4504 31.0779 23.4233 31.1919 23.3834C31.2802 23.352 31.3632 23.3077 31.4378 23.2523C31.498 23.209 31.5503 23.1565 31.5929 23.097C31.5764 22.9265 29.6534 17.9176 29.4356 17.3925C29.0128 16.3798 28.3615 16.0761 28.3615 16.0761L24.7141 13.5834L18.8006 13.0793Z" fill="#07364A"/>
<path d="M24.8663 4.88239L24.8706 4.87281L24.8105 4.83057L24.8663 4.88239Z" fill="#8FACF0"/>
<path d="M24.7544 4.9493L24.8769 4.90527L24.8678 4.90103C24.8283 4.91311 24.7903 4.9293 24.7544 4.9493Z" fill="#8FACF0"/>
<path d="M25.1813 4.21825L25.1879 4.20366L25.109 4.17598L25.1027 4.19968L25.1813 4.21825Z" fill="#8FACF0"/>
<path d="M24.8329 5.59028L24.8414 5.58914L24.5952 5.06511C24.5039 5.15085 24.4285 5.25104 24.3726 5.36119L23.2706 3.97913C22.3033 3.92111 19.5025 3.96635 16.6721 6.04689C16.5327 6.16058 16.4251 6.30592 16.3591 6.46944C16.3591 6.46944 16.1286 7.10011 15.8552 7.94858L17.1969 8.48583C17.5443 7.89597 17.8534 7.40267 17.9568 7.33017C18.1026 7.22633 19.3203 6.85658 20.3941 6.66807L20.3929 6.6591L20.5415 6.63895C20.7807 6.60399 21.0221 6.58684 21.2637 6.58766L21.262 6.61073C21.0221 6.60964 20.7822 6.62657 20.5446 6.66138L20.3959 6.68153L20.3941 6.66807C20.2969 6.82623 20.1982 6.99708 20.0981 7.18061C18.8493 9.47621 18.5381 13.0574 18.5381 13.0574L18.801 13.0802L24.7139 13.5871L24.7298 13.585L24.7426 11.9805C24.7426 11.9805 25.3686 10.2089 25.9306 8.48428C25.8491 8.33268 25.7656 8.18043 25.6777 8.0233C25.0847 6.935 24.8296 6.31716 24.8329 5.59028Z" fill="#FFB50F"/>
<path d="M24.81 4.8306L24.871 4.87349L25.182 4.21822L25.1042 4.19951L25.1096 4.17594L25.1287 4.09203L24.7431 3.7121L25.1762 3.88091L25.1582 3.96559L25.1815 3.87104C25.4179 3.87587 25.648 3.79167 25.8225 3.63639C25.9971 3.48111 26.1023 3.26705 26.1159 3.03988L26.1149 3.03271L26.3767 2.94878L26.1527 2.39891C26.163 2.24345 26.1648 2.08766 26.158 1.93219C26.0189 1.97972 25.8744 2.01066 25.7279 2.0243C25.4335 2.05698 25.1362 2.04896 24.8452 2.0005C24.611 2.37948 24.4018 2.48641 24.4018 2.48641L24.3915 2.19267L24.3732 2.26825C24.3558 2.25522 24.3354 2.24627 24.3137 2.24208C24.292 2.23789 24.2696 2.23858 24.2481 2.24409C24.1569 2.27381 24.1198 2.41408 24.1686 2.55641C24.1841 2.61084 24.2199 2.65768 24.2692 2.68805L24.2307 2.84587L24.0277 3.11097L23.8292 3.92187L24.81 4.8306ZM25.8707 2.27083C25.882 2.26818 25.8937 2.26773 25.905 2.26952C25.9164 2.27131 25.9273 2.27529 25.937 2.28123C25.9467 2.28717 25.955 2.29494 25.9615 2.30409C25.9679 2.31323 25.9724 2.32355 25.9746 2.33444C25.9766 2.35492 25.9706 2.37547 25.9577 2.39206C25.9448 2.40865 25.926 2.42007 25.9049 2.42407C25.8839 2.42807 25.8621 2.42436 25.8439 2.41368C25.8257 2.403 25.8124 2.38611 25.8066 2.36634C25.8025 2.34567 25.8068 2.32417 25.8188 2.30636C25.8307 2.28855 25.8494 2.27582 25.8707 2.27083ZM25.8529 3.14315C25.8523 3.14087 25.8522 3.13851 25.8527 3.13619C25.8531 3.13387 25.854 3.13166 25.8553 3.12968C25.8566 3.1277 25.8584 3.126 25.8604 3.12468C25.8625 3.12337 25.8648 3.12246 25.8672 3.12203C25.8695 3.12145 25.872 3.12135 25.8744 3.12173C25.8768 3.12211 25.8791 3.12295 25.8811 3.12421C25.8832 3.12548 25.8849 3.12713 25.8863 3.12908C25.8876 3.13102 25.8885 3.13321 25.889 3.13552L25.8902 3.14449C25.8944 3.15335 25.9 3.16152 25.9068 3.16874C25.9196 3.18076 25.9353 3.1895 25.9526 3.19418C25.9698 3.19886 25.988 3.19933 26.0056 3.19555L26.014 3.19441C26.0191 3.19372 26.0242 3.19492 26.0283 3.19777C26.0324 3.20061 26.0352 3.20488 26.0361 3.20969C26.0365 3.21199 26.0365 3.21435 26.0359 3.21663C26.0354 3.21892 26.0344 3.22109 26.0329 3.22299C26.0315 3.22489 26.0297 3.2265 26.0276 3.22771C26.0255 3.22893 26.0232 3.22972 26.0208 3.23005L26.0105 3.23144C25.9866 3.23626 25.9619 3.23534 25.9386 3.22878C25.9153 3.22221 25.8941 3.2102 25.8769 3.19381C25.8627 3.17896 25.8527 3.16081 25.8478 3.14109L25.8529 3.14315Z" fill="#FCC8B3"/>
<path d="M24.2678 2.68631C24.2185 2.65593 24.1827 2.6091 24.1672 2.55467C24.1184 2.41234 24.1546 2.2722 24.2467 2.24236C24.2682 2.23684 24.2906 2.23615 24.3123 2.24034C24.334 2.24453 24.3544 2.25348 24.3718 2.26651L24.3901 2.19093L24.4004 2.48468C24.4004 2.48468 24.6105 2.37761 24.8438 1.99876C25.1348 2.04722 25.4321 2.05524 25.7265 2.02256C25.873 2.00892 26.0175 1.97798 26.1566 1.93045C26.7386 1.73002 27.0927 1.28088 27.1023 1.05022C27.0988 0.970026 27.0682 0.893387 27.0152 0.831849C26.9623 0.77031 26.8898 0.727196 26.8086 0.709C26.6285 0.658484 26.4992 0.750943 26.3454 0.844897C26.1654 0.956111 26.1191 0.881964 25.9389 0.823246C25.8872 0.805858 25.8321 0.799246 25.7772 0.803844C25.7224 0.808442 25.6691 0.824145 25.6208 0.84992C25.549 0.890584 25.4864 0.944768 25.4368 1.00918C25.2865 1.15748 25.1224 1.14774 24.9482 1.13299C24.8109 1.12935 24.6744 1.15725 24.5499 1.21439C24.3774 1.25513 23.7294 1.48096 23.9755 2.53131L24.0315 2.54382C24.0254 2.70913 24.0232 2.89675 24.0256 3.11115L24.2286 2.84606L24.2678 2.68631Z" fill="#3D2614"/>
<path d="M30.5543 10.2235L30.7205 9.28723L30.1883 9.11084L29.7995 10.1888C29.7995 10.1888 29.6131 10.1757 29.3509 10.1582L30.5558 10.2909C30.5498 10.2689 30.5493 10.2459 30.5543 10.2235Z" fill="#F1CD92"/>
<path d="M25.9028 2.4307C25.9249 2.42629 25.9445 2.41378 25.9573 2.39584C25.9702 2.37789 25.9753 2.35591 25.9716 2.33456C25.9658 2.3148 25.9525 2.29791 25.9343 2.28722C25.9161 2.27654 25.8944 2.27283 25.8733 2.27683C25.8522 2.28084 25.8334 2.29225 25.8205 2.30884C25.8076 2.32543 25.8016 2.34599 25.8037 2.36647C25.8082 2.3875 25.8211 2.40594 25.8396 2.41791C25.858 2.42988 25.8807 2.43446 25.9028 2.4307Z" fill="#3D2614"/>
<path d="M26.0157 3.23319L26.026 3.23179C26.0284 3.23147 26.0308 3.23068 26.0328 3.22947C26.0349 3.22825 26.0368 3.22664 26.0382 3.22474C26.0396 3.22283 26.0406 3.22067 26.0412 3.21839C26.0417 3.2161 26.0418 3.21374 26.0413 3.21144C26.0404 3.20663 26.0377 3.20237 26.0335 3.19952C26.0294 3.19667 26.0243 3.19547 26.0193 3.19616L26.0109 3.1973C25.9933 3.20108 25.9751 3.20061 25.9578 3.19593C25.9406 3.19125 25.9248 3.18251 25.9121 3.17049C25.9053 3.16327 25.8997 3.15509 25.8954 3.14624L25.8942 3.13727C25.8938 3.13496 25.8929 3.13277 25.8915 3.13082C25.8902 3.12888 25.8884 3.12722 25.8864 3.12596C25.8844 3.1247 25.8821 3.12385 25.8796 3.12348C25.8772 3.1231 25.8748 3.12321 25.8724 3.12378C25.87 3.12422 25.8677 3.12512 25.8657 3.12643C25.8636 3.12775 25.8619 3.12945 25.8606 3.13142C25.8592 3.1334 25.8583 3.13562 25.8579 3.13794C25.8575 3.14025 25.8576 3.14262 25.8581 3.1449C25.8629 3.16462 25.8729 3.18277 25.8872 3.19762C25.9041 3.21289 25.9245 3.22408 25.9469 3.23026C25.9692 3.23644 25.9928 3.23745 26.0157 3.23319Z" fill="#87503D"/>
<path d="M21.0101 16.3573C22.0392 16.6746 22.5691 16.7855 22.5701 16.7854L22.5747 16.7638L22.4767 16.7423C22.2802 16.6977 21.7881 16.578 21.0179 16.3379C20.6211 16.2133 20.2426 16.0415 19.8911 15.8264C19.7562 15.7441 19.6512 15.6716 19.5775 15.6194C19.5038 15.5673 19.4709 15.5352 19.4709 15.5352L19.4617 15.5447L19.4551 15.552L19.4626 15.5582C19.9236 15.9119 20.4477 16.1825 21.0101 16.3573Z" fill="black"/>
<path d="M15.1823 10.4861C14.937 10.8182 14.8109 11.2145 14.8562 11.4084C14.9015 11.6024 15.7055 11.9649 15.7055 11.9649C15.7055 11.9649 16.2308 11.6973 16.1644 11.4111C16.1046 11.2071 16.0293 11.0078 15.9389 10.8149C16.0833 10.5321 16.6922 9.35033 17.1995 8.48659L15.8547 7.94702C15.58 8.78074 15.3555 9.62852 15.1823 10.4861Z" fill="#FCC8B3"/>
<path d="M31.7158 10.213C32.0663 10.3482 32.4544 10.3742 32.6247 10.2963C32.7949 10.2184 32.9882 9.46754 32.9882 9.46754C32.9882 9.46754 32.6502 9.08025 32.3956 9.19609C32.218 9.28816 32.0476 9.3928 31.886 9.50914C31.5995 9.44654 30.4002 9.17966 29.5118 8.93094L29.2598 10.1685C30.0764 10.2285 30.8964 10.2433 31.7158 10.213Z" fill="#FCC8B3"/>
<path d="M24.3738 5.36186C24.4297 5.2517 24.505 5.15153 24.5963 5.06578C24.6443 5.02206 24.6977 4.98413 24.7552 4.95287C24.7911 4.93287 24.8291 4.91669 24.8686 4.90461L24.8777 4.90885C24.9791 4.96415 25.071 5.03394 25.1504 5.11586C25.2103 5.1773 25.2586 5.24835 25.2931 5.32587L25.4672 4.29988L25.4654 4.28642L25.1852 4.19282L25.1801 4.20447L25.1735 4.21908L24.8626 4.87435L24.8582 4.88409L24.8016 4.83145L23.8215 3.92081L23.805 3.90476L23.2402 3.95117L23.2642 3.98082L24.3738 5.36186Z" fill="white"/>
<path d="M20.5443 6.66075C20.7819 6.62594 21.0218 6.60901 21.2617 6.61009L21.2634 6.58703C21.0218 6.58621 20.7804 6.60335 20.5412 6.63832L20.3926 6.65847L20.3938 6.66744L20.3957 6.6809L20.5443 6.66075Z" fill="black"/>
<path d="M30.1879 9.11048C30.1879 9.11048 28.74 8.57575 28.6086 8.53325C28.4991 8.49784 27.1399 6.17384 26.711 5.43244C26.6832 5.3814 26.6544 5.33047 26.6229 5.28083L26.583 5.2113L26.5836 5.2158C26.3258 4.80136 25.9342 4.47994 25.4676 4.29981L25.2884 5.32284C25.2539 5.24533 25.2056 5.17428 25.1457 5.11283L25.0452 5.6208C25.2054 6.57131 25.6806 7.30278 26.1045 7.85296L26.2717 7.37342L26.2936 7.3805L26.1218 7.87529C26.304 8.1101 26.476 8.31156 26.6076 8.48196C26.8776 8.84307 27.1018 9.2341 27.2757 9.64689C27.4684 9.81904 27.6331 9.93835 27.7391 9.96235C28.0623 10.0364 28.8442 10.1095 29.3456 10.1503C29.6084 10.1722 29.7942 10.1808 29.7942 10.1808L30.1879 9.11048Z" fill="#FFB50F"/>
<path d="M24.7422 3.71191L25.1287 4.09172L25.132 4.09493L25.1582 3.96528L25.1753 3.88073L24.7422 3.71191Z" fill="#D3AA71"/>
<path d="M26.2968 7.37949L26.2749 7.37241L26.1077 7.85195L26.125 7.87428L26.2968 7.37949Z" fill="black"/>
<path d="M26.126 7.874L26.1087 7.85167C25.6849 7.30239 25.2098 6.57092 25.0494 5.61951L25.15 5.11154C25.0706 5.02962 24.9787 4.95983 24.8773 4.90453L24.7548 4.94855C24.6972 4.97981 24.6439 5.01774 24.5959 5.06147L24.8421 5.58548L24.8336 5.58662C24.8309 6.31799 25.0854 6.93135 25.6806 8.0221C25.7667 8.17948 25.8502 8.33172 25.9335 8.48307C26.0943 8.78474 26.2458 9.08037 26.3906 9.41892C26.6229 9.95945 26.6192 10.3538 26.5431 10.9087C26.5101 11.1543 26.4323 11.3929 26.3131 11.6133C26.3131 11.6133 26.4664 12.2459 26.4722 12.373C26.7684 12.2058 27.0325 12.0613 27.2984 11.9302C27.5331 11.3447 27.6014 10.4865 27.3478 9.8091C27.3268 9.75255 27.3039 9.69626 27.2813 9.64176C27.1075 9.22897 26.8832 8.83794 26.6132 8.47683C26.4802 8.31027 26.3082 8.10881 26.126 7.874Z" fill="#A59062"/>
<line x1="9.5" y1="9.19922" x2="4.5" y2="9.19922" stroke="#AAAAAA" stroke-linecap="round"/>
<line x1="6.5" y1="11.1992" x2="0.5" y2="11.1992" stroke="#AAAAAA" stroke-linecap="round"/>
<line x1="11.5" y1="13.1992" x2="6.5" y2="13.1992" stroke="#AAAAAA" stroke-linecap="round"/>
</svg>
