<svg width="24" height="25" viewBox="0 0 24 25" fill="none" xmlns="http://www.w3.org/2000/svg">
<path d="M15.6886 13.3885C15.5132 13.8565 15.2151 15.0036 15.7561 16.5322L15.7666 16.5285C15.9937 18.0959 16.3962 19.7267 16.3962 19.7267C16.0051 20.3597 14.6758 24.1796 14.6758 24.1796C14.8347 24.2606 15.0098 24.316 15.1923 24.3431C15.4064 24.3773 15.6242 24.3921 15.842 24.3871C15.9087 24.3871 15.949 24.3826 15.949 24.3826C15.949 24.3826 17.9219 21.0613 18.2736 20.3253C18.1556 20.4116 18.0071 20.4618 17.8518 20.4679C17.7316 20.4671 17.6154 20.431 17.523 20.3656L17.5361 20.3507C17.6247 20.4137 17.7363 20.4485 17.8518 20.4492C17.991 20.4443 18.1248 20.4019 18.2341 20.3283C18.2452 20.3214 18.2557 20.3139 18.2657 20.3059L18.2779 20.3171L18.2955 20.279C18.39 20.0588 18.4515 19.8294 18.4787 19.5961C18.5998 18.6624 18.7769 17.1995 18.9172 16.0135C20.0738 17.7219 21.5934 19.4916 21.5925 19.4924C21.4268 20.0238 20.7323 24.1804 20.7323 24.1804C20.8457 24.2496 20.9732 24.3003 21.1085 24.3296C21.4043 24.3855 21.7127 24.3684 21.9976 24.2804C21.9976 24.2804 23.3532 20.2007 23.5146 19.7275L23.5198 19.7073C23.4322 19.8155 23.227 20.035 22.9394 20.0357C22.8952 20.0357 22.8513 20.0307 22.8087 20.0208L22.8148 20.0029C22.8554 20.0122 22.8973 20.017 22.9394 20.0171C23.2112 20.0171 23.4164 19.8058 23.5006 19.6984C23.5181 19.6767 23.5295 19.6603 23.5365 19.6506C23.5856 19.4436 23.5924 19.2311 23.5567 19.0221C23.4225 18.1653 21.7345 14.4543 21.1707 13.2295C20.9585 13.2482 20.1045 13.3153 18.8996 13.3444C17.6527 13.3743 16.0209 13.3892 15.6886 13.3885ZM18.8707 16.0448H18.8497L19.0049 15.3597H19.0268L18.8707 16.0448Z" fill="#07364A"/>
<path d="M14.9166 1.02062C15.0943 0.935242 15.2643 0.838691 15.4251 0.731768C15.4407 0.719946 15.4542 0.706385 15.4655 0.691461H15.4716C15.4752 0.681519 15.4796 0.671798 15.4848 0.662356C15.5102 0.610109 15.5497 0.547411 15.59 0.482476C15.6498 0.401022 15.6898 0.310152 15.7075 0.215275C15.7075 0.134666 15.5514 0.157802 15.4558 0.236919C15.391 0.294874 15.3324 0.357562 15.2805 0.424261C15.2043 0.424036 15.13 0.44442 15.0683 0.482476H14.23C14.186 0.615923 14.1624 0.753649 14.1598 0.892237C13.8024 1.53487 13.4889 2.19453 13.2207 2.86791L14.5623 2.91269C14.6842 2.14765 14.871 1.2505 14.9166 1.02062Z" fill="#FCC8B3"/>
<path d="M21.1422 2.6341C21.1422 2.6341 21.3834 3.7156 21.3807 3.82383C21.3807 3.9119 20.0172 5.78457 19.5025 6.4884L19.3026 6.47123V6.47571L19.4096 6.48989L19.2254 6.96086L17.8391 6.41525H17.6339C17.2227 6.3533 16.6992 6.26598 16.522 6.1697C15.7057 5.68007 14.5175 4.42541 14.4483 4.24031C14.4132 4.14477 14.5359 3.46258 14.6105 2.91623H14.5684L13.2268 2.87144C12.9497 3.55364 12.7638 4.07386 12.7638 4.07386C12.7189 4.21161 12.7168 4.35691 12.7577 4.49557C13.3487 6.06968 14.5938 7.25717 15.5864 8.00803C15.6741 9.71127 15.7899 11.9318 15.7899 11.9318C15.6769 12.4126 15.6219 12.902 15.6259 13.3924H15.6881C16.0205 13.3924 17.6523 13.3782 18.9001 13.3484C20.1049 13.3193 20.959 13.2521 21.1712 13.2334L21.2229 13.229C21.3536 12.3333 21.3308 10.6472 21.3264 9.41794C21.3264 8.67679 21.3895 8.24687 21.4141 7.94459C21.6631 7.37361 22.9565 4.39331 22.9258 4.03281C22.8916 3.63499 22.312 2.56543 22.312 2.56543L22.2243 2.57065L21.2027 2.63111L21.1422 2.6341Z" fill="#FFB50F"/>
<path d="M19.2735 6.01767C19.4645 5.923 19.6038 5.76773 19.6606 5.58587C19.7175 5.404 19.6874 5.21037 19.5769 5.04737L19.2673 4.59357C19.1659 4.44122 19.0503 4.29597 18.9218 4.15918L18.9025 4.16291C18.8566 4.25428 18.7889 4.33658 18.7038 4.40465C18.6187 4.47273 18.518 4.5251 18.408 4.55849C18.2993 4.5797 18.188 4.58972 18.0765 4.58835C18.0765 4.58835 17.9643 4.83614 17.7547 4.83838C17.8635 5.24292 17.9301 5.42504 17.9301 5.42504L17.7731 5.27576C17.7507 5.27284 17.7278 5.27465 17.7064 5.28103C17.685 5.2874 17.6658 5.29815 17.6504 5.31234C17.5951 5.37205 17.6407 5.48251 17.7539 5.55939C17.7814 5.58163 17.8159 5.59664 17.8533 5.60259C17.8906 5.60855 17.9291 5.60521 17.9643 5.59298V5.60119L18.0134 5.71389L18.0003 5.91989L18.0564 6.40802L17.8161 6.4028L17.8372 6.41101L19.2235 6.95661L19.4076 6.48564L19.3006 6.47146V6.46698L19.2384 6.03185L19.2735 6.01767ZM19.3138 5.16007C19.3138 5.16007 19.369 5.28696 19.2533 5.33696C19.2357 5.34519 19.2162 5.35006 19.1961 5.35122C19.1761 5.35239 19.156 5.34984 19.1372 5.34373C19.1184 5.33762 19.1014 5.32811 19.0874 5.31586C19.0734 5.30361 19.0627 5.28891 19.056 5.27278C19.1071 5.27651 19.1583 5.26792 19.2039 5.24799C19.2495 5.22806 19.2876 5.19758 19.3138 5.16007ZM19.1139 4.5779C19.1276 4.57197 19.1431 4.56964 19.1584 4.57121C19.1738 4.57278 19.1882 4.57817 19.1999 4.58671C19.2116 4.59524 19.2201 4.60654 19.2243 4.61918C19.2284 4.63181 19.2281 4.64522 19.2233 4.6577C19.2186 4.67018 19.2096 4.68118 19.1975 4.68931C19.1854 4.69744 19.1707 4.70233 19.1553 4.70338C19.14 4.70442 19.1246 4.70157 19.1111 4.69518C19.0976 4.68879 19.0867 4.67914 19.0797 4.66746C19.075 4.65968 19.0722 4.65118 19.0713 4.64245C19.0705 4.63373 19.0717 4.62496 19.0749 4.61663C19.0781 4.60831 19.0832 4.6006 19.0898 4.59396C19.0965 4.58731 19.1047 4.58185 19.1139 4.5779ZM18.9823 4.65254L19.1709 4.93915L19.2822 4.9787L19.2024 5.07051L19.1735 5.05259L19.227 4.99139L19.1454 4.96303L18.9517 4.66448L18.9823 4.65254ZM18.5536 4.86003C18.5722 4.85214 18.5937 4.85076 18.6136 4.8562C18.6334 4.86164 18.6499 4.87346 18.6597 4.88914C18.668 4.90485 18.669 4.92271 18.6623 4.939C18.6556 4.95528 18.6418 4.96876 18.6238 4.97663C18.6057 4.98449 18.5848 4.98615 18.5654 4.98126C18.5459 4.97637 18.5295 4.96529 18.5194 4.95034C18.5103 4.93443 18.5088 4.91617 18.5152 4.89935C18.5216 4.88253 18.5353 4.86845 18.5536 4.86003ZM18.4501 5.14291C18.4863 5.12501 18.5293 5.12007 18.5697 5.12916C18.6102 5.13826 18.6447 5.16065 18.6658 5.19142C18.6799 5.22415 18.6793 5.26013 18.6644 5.29257C18.6494 5.325 18.6209 5.35163 18.5845 5.36744C18.548 5.38324 18.5059 5.38712 18.4663 5.37835C18.4267 5.36957 18.3922 5.34874 18.3694 5.3198C18.3611 5.3035 18.3566 5.28596 18.3564 5.26818C18.3561 5.25041 18.36 5.23277 18.3678 5.2163C18.3757 5.19983 18.3873 5.18485 18.402 5.17225C18.4168 5.15965 18.4343 5.14967 18.4536 5.14291H18.4501Z" fill="#FCC8B3"/>
<path d="M17.9664 5.60192V5.59445C17.9312 5.60669 17.8927 5.61003 17.8554 5.60407C17.818 5.59811 17.7835 5.58311 17.756 5.56087C17.6428 5.48623 17.5972 5.37352 17.6525 5.31381C17.6679 5.29963 17.6871 5.28888 17.7085 5.2825C17.7299 5.27613 17.7528 5.27432 17.7752 5.27724L17.9322 5.42651C17.9322 5.42651 17.8673 5.2444 17.7568 4.83986C17.9664 4.83986 18.0786 4.58983 18.0786 4.58983C18.1901 4.5912 18.3014 4.58117 18.4101 4.55997C18.5201 4.52657 18.6208 4.4742 18.7059 4.40613C18.791 4.33806 18.8587 4.25576 18.9046 4.16439L18.9239 4.16066C18.9754 4.1565 19.0246 4.14095 19.0668 4.11554C19.1089 4.09013 19.1425 4.05576 19.1642 4.01586C19.1895 3.96905 19.1932 3.91588 19.1747 3.86683C19.1562 3.81779 19.1168 3.77642 19.0642 3.7509C18.9894 3.72062 18.9045 3.71323 18.824 3.73C18.6942 3.59415 18.5293 3.53445 18.3356 3.61953C18.1926 3.68223 18.0313 3.82777 18.0593 3.96809C17.9848 3.94122 17.8077 4.00765 17.8419 4.12409C17.7843 4.1181 17.7259 4.12532 17.6727 4.145C17.6195 4.16469 17.5735 4.19612 17.5394 4.23604C17.493 4.2963 17.4688 4.36701 17.4701 4.43906C17.4385 4.45285 17.4091 4.46989 17.3824 4.48981C17.2421 4.60475 16.9492 5.03243 17.6534 5.60938L17.7033 5.59371C17.7866 5.7094 17.884 5.83852 17.9988 5.98257V5.92062L18.012 5.71462L17.9664 5.60192Z" fill="#3D2614"/>
<path d="M19.184 4.69683C19.1977 4.69085 19.209 4.68153 19.2165 4.67007C19.224 4.65861 19.2274 4.64551 19.2261 4.63243C19.2249 4.61934 19.2192 4.60687 19.2096 4.59657C19.2001 4.58626 19.1871 4.5786 19.1725 4.57454C19.1578 4.57049 19.1421 4.57022 19.1272 4.57377C19.1124 4.57732 19.0991 4.58454 19.0891 4.59451C19.079 4.60448 19.0727 4.61675 19.0709 4.62978C19.069 4.64281 19.0718 4.65601 19.0787 4.66772C19.0834 4.67553 19.0898 4.68248 19.0976 4.68817C19.1054 4.69387 19.1145 4.69819 19.1242 4.70089C19.134 4.7036 19.1443 4.70463 19.1546 4.70394C19.1648 4.70324 19.1748 4.70082 19.184 4.69683Z" fill="#3D2614"/>
<path d="M18.6275 4.97864C18.6367 4.97475 18.645 4.96934 18.6517 4.96273C18.6585 4.95611 18.6637 4.94841 18.6669 4.94009C18.6702 4.93176 18.6715 4.92296 18.6707 4.91421C18.67 4.90545 18.6672 4.89691 18.6625 4.88907C18.6581 4.88079 18.6518 4.87335 18.6439 4.86722C18.636 4.86108 18.6267 4.85636 18.6167 4.85336C18.6066 4.85036 18.5959 4.84914 18.5852 4.84977C18.5746 4.85039 18.5642 4.85285 18.5546 4.857C18.5451 4.86115 18.5367 4.8669 18.5299 4.8739C18.5231 4.8809 18.518 4.88901 18.515 4.89773C18.5119 4.90645 18.511 4.91561 18.5123 4.92464C18.5135 4.93367 18.5169 4.94239 18.5222 4.95028C18.5319 4.96577 18.5484 4.97742 18.568 4.98272C18.5877 4.98802 18.609 4.98656 18.6275 4.97864Z" fill="#3D2614"/>
<path d="M19.2265 4.98925L19.173 5.0512L19.202 5.06911L19.2817 4.97656L19.1704 4.93775L18.9819 4.65039L18.9512 4.66532L19.1458 4.96163L19.2265 4.98925Z" fill="#87503D"/>
<path d="M19.0566 5.27286C19.0633 5.28899 19.074 5.30369 19.0881 5.31595C19.1021 5.3282 19.1191 5.33771 19.1378 5.34381C19.1566 5.34992 19.1767 5.35247 19.1968 5.35131C19.2168 5.35014 19.2363 5.34527 19.2539 5.33705C19.3697 5.28704 19.3144 5.16016 19.3144 5.16016C19.2883 5.19767 19.2502 5.22814 19.2046 5.24807C19.159 5.26801 19.1077 5.2766 19.0566 5.27286Z" fill="#87503D"/>
<path d="M18.3724 5.32141C18.3843 5.34847 18.4056 5.37181 18.4334 5.38835C18.4612 5.40489 18.4943 5.41384 18.5283 5.41402C18.5622 5.4142 18.5954 5.4056 18.6235 5.38935C18.6515 5.37311 18.6731 5.34999 18.6854 5.32306C18.6977 5.29612 18.7001 5.26665 18.6922 5.23854C18.6844 5.21043 18.6667 5.18501 18.6415 5.16565C18.6163 5.14629 18.5848 5.1339 18.5512 5.13013C18.5175 5.12635 18.4833 5.13137 18.4531 5.14451C18.415 5.15906 18.3852 5.18577 18.3701 5.21887C18.355 5.25198 18.3559 5.28881 18.3724 5.32141Z" fill="#E0908A"/>
<path d="M18.8496 16.0416L18.8707 16.0454L19.0267 15.3602L19.0057 15.3564L18.8496 16.0416Z" fill="black"/>
<path d="M20.3837 0.381563C20.3758 0.302089 20.3593 0.223394 20.3346 0.146452C20.2943 0.038973 20.1671 -0.045366 20.125 0.0270328C20.0628 0.134511 20.0873 0.340513 20.0777 0.480086C20.0777 0.490535 20.0777 0.500236 20.0777 0.510685C20.0777 0.521134 20.0777 0.53457 20.0733 0.544273C20.0615 0.577552 20.0615 0.61304 20.0732 0.64634C20.0849 0.679639 20.1078 0.709288 20.1391 0.731615C20.2434 0.868949 20.4477 0.979412 20.6292 1.05704L21.201 2.62443L22.2225 2.56398L21.3983 0.835363C21.3917 0.714161 21.369 0.593976 21.3307 0.477097H20.5153C20.4828 0.435399 20.4372 0.4023 20.3837 0.381563Z" fill="#FCC8B3"/>
<line x1="9.37305" y1="13.0645" x2="4.09077" y2="13.0645" stroke="#AAAAAA" stroke-linecap="round"/>
<line x1="5.94727" y1="15.0479" x2="0.66499" y2="15.0479" stroke="#AAAAAA" stroke-linecap="round"/>
<line x1="11.0859" y1="17.0313" x2="5.80366" y2="17.0312" stroke="#AAAAAA" stroke-linecap="round"/>
</svg>
