<svg width="83" height="42" viewBox="0 0 83 42" fill="none" xmlns="http://www.w3.org/2000/svg">
<path d="M82.941 -3.95317C83.12 2.0802 82.0966 8.0887 79.9308 13.7199C77.765 19.351 74.5004 24.4912 70.3286 28.8394C66.1032 33.2035 61.0103 36.6268 55.3805 38.8867C49.7507 41.1465 43.7102 42.1926 37.6513 41.9567C32.6578 42.1984 27.6668 41.4261 22.9778 39.6862C18.2888 37.9464 13.9982 35.2747 10.3626 31.8311C6.8717 28.2859 4.15214 24.0522 2.37588 19.3979C0.599617 14.7435 -0.194616 9.76967 0.0433872 4.79135C-0.229686 -1.55176 0.788449 -7.88393 3.03581 -13.8189C5.28317 -19.7539 8.7124 -25.1671 13.1142 -29.7274C17.2856 -34.0426 22.3012 -37.4456 27.8458 -39.7227C33.3903 -41.9999 39.344 -43.1018 45.3332 -42.9596C50.3553 -43.1967 55.372 -42.3888 60.0682 -40.5869C64.7643 -38.785 69.0385 -36.0279 72.6219 -32.4888C76.1715 -28.6772 78.9156 -24.184 80.689 -19.2799C82.4625 -14.3758 83.2285 -9.16222 82.941 -3.95317Z" fill="white" fill-opacity="0.17"/>
</svg>
