<svg width="21" height="22" viewBox="0 0 21 22" fill="none" xmlns="http://www.w3.org/2000/svg">
<path d="M20.9851 10.1062C21.0304 11.6678 20.7714 13.223 20.2234 14.6804C19.6755 16.1379 18.8495 17.4683 17.794 18.5937C16.7249 19.7233 15.4363 20.6093 14.0119 21.1942C12.5875 21.7791 11.0592 22.0498 9.52622 21.9888C8.26282 22.0514 7.00004 21.8515 5.81367 21.4011C4.62729 20.9508 3.54171 20.2593 2.62185 19.3681C1.73862 18.4505 1.05054 17.3547 0.601126 16.15C0.15171 14.9454 -0.0492402 13.658 0.0109775 12.3695C-0.0581134 10.7278 0.199487 9.08887 0.768096 7.55276C1.33671 6.01665 2.20434 4.61558 3.31806 3.43525C4.37347 2.31838 5.64248 1.4376 7.04531 0.848232C8.44815 0.25886 9.95449 -0.0263608 11.4698 0.0104618C12.7405 -0.0509029 14.0098 0.158187 15.198 0.624566C16.3862 1.09095 17.4676 1.80454 18.3742 2.72054C19.2723 3.70708 19.9666 4.87003 20.4153 6.13933C20.864 7.40862 21.0578 8.75801 20.9851 10.1062Z" fill="white" fill-opacity="0.17"/>
</svg>
