<svg width="55" height="33" viewBox="0 0 55 33" fill="none" xmlns="http://www.w3.org/2000/svg">
<path d="M54.9602 26.1843C55.081 30.2303 54.3905 34.2595 52.9292 38.0357C51.4679 41.8119 49.2653 45.2588 46.4506 48.1747C43.5997 51.1012 40.1635 53.3968 36.3651 54.9122C32.5667 56.4277 28.4912 57.1291 24.4033 56.971C21.0342 57.1331 17.6668 56.6151 14.5031 55.4484C11.3394 54.2817 8.44456 52.4901 5.9916 50.1809C3.63633 47.8035 1.80145 44.9644 0.603004 41.8433C-0.595439 38.7221 -1.13131 35.3867 -0.970727 32.0483C-1.15497 27.7947 -0.468035 23.5484 1.04826 19.5685C2.56455 15.5886 4.87825 11.9586 7.84816 8.90042C10.6626 6.0067 14.0466 3.7247 17.7875 2.19769C21.5284 0.670683 25.5453 -0.0682985 29.5862 0.0271055C32.9747 -0.131885 36.3594 0.409849 39.5279 1.61819C42.6964 2.82654 45.5802 4.67541 47.9979 7.04866C50.3928 9.60469 52.2442 12.6178 53.4408 15.9064C54.6373 19.1951 55.1542 22.6912 54.9602 26.1843Z" fill="white" fill-opacity="0.17"/>
</svg>
