<svg width="22" height="40" viewBox="0 0 22 40" fill="none" xmlns="http://www.w3.org/2000/svg">
<mask id="path-1-outside-1_572_2670" maskUnits="userSpaceOnUse" x="0" y="0" width="22" height="40" fill="black">
<rect fill="white" width="22" height="40"/>
<path d="M20.9966 12.4322C20.9304 9.89583 19.9185 7.47749 18.1623 5.65807C16.4061 3.83866 14.0341 2.75145 11.518 2.61264V1.52075C11.518 1.38264 11.4636 1.25018 11.3666 1.15252C11.2696 1.05486 11.138 1 11.0009 1C10.8637 1 10.7322 1.05486 10.6352 1.15252C10.5382 1.25018 10.4837 1.38264 10.4837 1.52075V2.61264C8.86906 2.69668 7.29873 3.17368 5.90731 4.00274C4.51589 4.8318 3.34485 5.9882 2.49457 7.37285C1.64429 8.75749 1.14012 10.3291 1.02526 11.9529C0.910413 13.5768 1.18831 15.2044 1.83513 16.6964C1.93102 16.9156 2.0883 17.1019 2.28772 17.2324C2.48715 17.3629 2.72005 17.4321 2.9579 17.4314H10.4837V35.6227H4.51111C3.93965 35.6233 3.39178 35.8522 2.9877 36.2591C2.58361 36.666 2.3563 37.2176 2.35564 37.793V38.045C2.35586 38.2982 2.45587 38.541 2.63369 38.72C2.81151 38.8991 3.05262 38.9998 3.30409 39H18.6918C18.9432 38.9996 19.1842 38.8988 19.362 38.7198C19.5397 38.5408 19.6398 38.2982 19.6403 38.045V37.793C19.6394 37.2177 19.412 36.6662 19.008 36.2594C18.6039 35.8525 18.0562 35.6236 17.4848 35.6227H11.518V17.4314H15.4227V22.9354C15.3208 23.0147 15.2382 23.1165 15.1814 23.233C15.1246 23.3495 15.095 23.4775 15.095 23.6073C15.095 23.7371 15.1246 23.8651 15.1814 23.9816C15.2382 24.0981 15.3208 24.1999 15.4227 24.2792V24.3355H15.5062C15.6374 24.4157 15.788 24.4582 15.9416 24.4582C16.0951 24.4582 16.2458 24.4157 16.377 24.3355H16.4604V24.2792C16.5624 24.1999 16.645 24.0981 16.7018 23.9816C16.7586 23.8651 16.7881 23.7371 16.7881 23.6073C16.7881 23.4775 16.7586 23.3495 16.7018 23.233C16.645 23.1165 16.5624 23.0147 16.4604 22.9354V17.4314H19.0463C19.2847 17.4319 19.518 17.3624 19.7177 17.2314C19.9174 17.1004 20.0749 16.9136 20.1708 16.6939C20.7529 15.3514 21.0348 13.8965 20.9966 12.4322ZM18.6084 37.7956V37.9635H3.39335V37.7956C3.39467 37.4975 3.51287 37.2121 3.72223 37.0015C3.93159 36.7908 4.21514 36.672 4.51111 36.6709H17.4806C17.628 36.6701 17.7741 36.6986 17.9106 36.7547C18.0471 36.8108 18.1712 36.8935 18.2759 36.9979C18.3807 37.1024 18.464 37.2266 18.521 37.3634C18.578 37.5003 18.6077 37.6471 18.6084 37.7956ZM19.2215 16.2765C19.2065 16.3107 19.1817 16.3397 19.1504 16.3598C19.1191 16.38 19.0826 16.3904 19.0455 16.3899H2.95625C2.91956 16.3903 2.88352 16.38 2.85245 16.3604C2.82139 16.3407 2.79661 16.3125 2.78107 16.279C2.18552 14.9052 1.93907 13.4036 2.06397 11.9099C2.18887 10.4161 2.6812 8.97723 3.4965 7.72299C4.3118 6.46876 5.42445 5.43866 6.734 4.72567C8.04355 4.01268 9.5088 3.63924 10.9975 3.63903C11.0634 3.63903 11.1293 3.63903 11.1961 3.63903C15.9199 3.74066 19.853 7.69417 19.9622 12.4515C19.9962 13.7661 19.7419 15.0721 19.2173 16.2765H19.2215Z"/>
</mask>
<path d="M20.9966 12.4322C20.9304 9.89583 19.9185 7.47749 18.1623 5.65807C16.4061 3.83866 14.0341 2.75145 11.518 2.61264V1.52075C11.518 1.38264 11.4636 1.25018 11.3666 1.15252C11.2696 1.05486 11.138 1 11.0009 1C10.8637 1 10.7322 1.05486 10.6352 1.15252C10.5382 1.25018 10.4837 1.38264 10.4837 1.52075V2.61264C8.86906 2.69668 7.29873 3.17368 5.90731 4.00274C4.51589 4.8318 3.34485 5.9882 2.49457 7.37285C1.64429 8.75749 1.14012 10.3291 1.02526 11.9529C0.910413 13.5768 1.18831 15.2044 1.83513 16.6964C1.93102 16.9156 2.0883 17.1019 2.28772 17.2324C2.48715 17.3629 2.72005 17.4321 2.9579 17.4314H10.4837V35.6227H4.51111C3.93965 35.6233 3.39178 35.8522 2.9877 36.2591C2.58361 36.666 2.3563 37.2176 2.35564 37.793V38.045C2.35586 38.2982 2.45587 38.541 2.63369 38.72C2.81151 38.8991 3.05262 38.9998 3.30409 39H18.6918C18.9432 38.9996 19.1842 38.8988 19.362 38.7198C19.5397 38.5408 19.6398 38.2982 19.6403 38.045V37.793C19.6394 37.2177 19.412 36.6662 19.008 36.2594C18.6039 35.8525 18.0562 35.6236 17.4848 35.6227H11.518V17.4314H15.4227V22.9354C15.3208 23.0147 15.2382 23.1165 15.1814 23.233C15.1246 23.3495 15.095 23.4775 15.095 23.6073C15.095 23.7371 15.1246 23.8651 15.1814 23.9816C15.2382 24.0981 15.3208 24.1999 15.4227 24.2792V24.3355H15.5062C15.6374 24.4157 15.788 24.4582 15.9416 24.4582C16.0951 24.4582 16.2458 24.4157 16.377 24.3355H16.4604V24.2792C16.5624 24.1999 16.645 24.0981 16.7018 23.9816C16.7586 23.8651 16.7881 23.7371 16.7881 23.6073C16.7881 23.4775 16.7586 23.3495 16.7018 23.233C16.645 23.1165 16.5624 23.0147 16.4604 22.9354V17.4314H19.0463C19.2847 17.4319 19.518 17.3624 19.7177 17.2314C19.9174 17.1004 20.0749 16.9136 20.1708 16.6939C20.7529 15.3514 21.0348 13.8965 20.9966 12.4322ZM18.6084 37.7956V37.9635H3.39335V37.7956C3.39467 37.4975 3.51287 37.2121 3.72223 37.0015C3.93159 36.7908 4.21514 36.672 4.51111 36.6709H17.4806C17.628 36.6701 17.7741 36.6986 17.9106 36.7547C18.0471 36.8108 18.1712 36.8935 18.2759 36.9979C18.3807 37.1024 18.464 37.2266 18.521 37.3634C18.578 37.5003 18.6077 37.6471 18.6084 37.7956ZM19.2215 16.2765C19.2065 16.3107 19.1817 16.3397 19.1504 16.3598C19.1191 16.38 19.0826 16.3904 19.0455 16.3899H2.95625C2.91956 16.3903 2.88352 16.38 2.85245 16.3604C2.82139 16.3407 2.79661 16.3125 2.78107 16.279C2.18552 14.9052 1.93907 13.4036 2.06397 11.9099C2.18887 10.4161 2.6812 8.97723 3.4965 7.72299C4.3118 6.46876 5.42445 5.43866 6.734 4.72567C8.04355 4.01268 9.5088 3.63924 10.9975 3.63903C11.0634 3.63903 11.1293 3.63903 11.1961 3.63903C15.9199 3.74066 19.853 7.69417 19.9622 12.4515C19.9962 13.7661 19.7419 15.0721 19.2173 16.2765H19.2215Z" fill="#999999"/>
<path d="M20.9966 12.4322L21.1965 12.4269V12.4269L20.9966 12.4322ZM11.518 2.61264H11.318V2.80191L11.507 2.81234L11.518 2.61264ZM11.518 1.52075H11.318H11.518ZM10.4837 1.52075H10.6837H10.4837ZM10.4837 2.61264L10.4941 2.81237L10.6837 2.8025V2.61264H10.4837ZM1.83513 16.6964L1.65163 16.776L1.6519 16.7766L1.83513 16.6964ZM2.9579 17.4314V17.2314H2.9573L2.9579 17.4314ZM10.4837 17.4314H10.6837V17.2314H10.4837V17.4314ZM10.4837 35.6227V35.8227H10.6837V35.6227H10.4837ZM4.51111 35.6227V35.4227H4.51088L4.51111 35.6227ZM2.35564 37.793L2.15564 37.7928V37.793H2.35564ZM2.35564 38.045H2.15564L2.15564 38.0452L2.35564 38.045ZM3.30409 39L3.30391 39.2H3.30409V39ZM18.6918 39V39.2H18.6922L18.6918 39ZM19.6403 38.045L19.8403 38.0454V38.045H19.6403ZM19.6403 37.793H19.8403V37.7927L19.6403 37.793ZM17.4848 35.6227L17.4851 35.4227H17.4848V35.6227ZM11.518 35.6227H11.318V35.8227H11.518V35.6227ZM11.518 17.4314V17.2314H11.318V17.4314H11.518ZM15.4227 17.4314H15.6227V17.2314H15.4227V17.4314ZM15.4227 22.9354L15.5456 23.0932L15.6227 23.0332V22.9354H15.4227ZM15.4227 24.2792H15.6227V24.1814L15.5456 24.1214L15.4227 24.2792ZM15.4227 24.3355H15.2227V24.5355H15.4227V24.3355ZM15.5062 24.3355L15.6105 24.1649L15.5624 24.1355H15.5062V24.3355ZM15.9416 24.4582V24.2582V24.4582ZM16.377 24.3355V24.1355H16.3207L16.2727 24.1649L16.377 24.3355ZM16.4604 24.3355V24.5355H16.6604V24.3355H16.4604ZM16.4604 24.2792L16.3376 24.1214L16.2604 24.1814V24.2792H16.4604ZM16.4604 22.9354H16.2604V23.0332L16.3376 23.0932L16.4604 22.9354ZM16.4604 17.4314V17.2314H16.2604V17.4314H16.4604ZM19.0463 17.4314L19.0468 17.2314H19.0463V17.4314ZM20.1708 16.6939L20.3541 16.7739L20.3543 16.7735L20.1708 16.6939ZM18.6084 37.7956H18.8084L18.8084 37.7947L18.6084 37.7956ZM18.6084 37.9635V38.1635H18.8084V37.9635H18.6084ZM3.39335 37.9635H3.19335V38.1635H3.39335V37.9635ZM3.39335 37.7956L3.19335 37.7947V37.7956H3.39335ZM4.51111 36.6709V36.4709L4.51037 36.4709L4.51111 36.6709ZM17.4806 36.6709V36.8709L17.4817 36.8709L17.4806 36.6709ZM19.2215 16.2765L19.4046 16.357L19.528 16.0765H19.2215V16.2765ZM19.0455 16.3899L19.0486 16.1899H19.0455V16.3899ZM2.95625 16.3899V16.1899L2.95401 16.1899L2.95625 16.3899ZM2.78107 16.279L2.59751 16.3586L2.59967 16.3632L2.78107 16.279ZM10.9975 3.63903V3.43903H10.9975L10.9975 3.63903ZM11.1961 3.63903L11.2004 3.43903H11.1961V3.63903ZM19.9622 12.4515L19.7623 12.4561L19.7623 12.4566L19.9622 12.4515ZM19.2173 16.2765L19.034 16.1966L18.9121 16.4765H19.2173V16.2765ZM21.1965 12.4269C21.129 9.84079 20.0973 7.37471 18.3062 5.51917L18.0184 5.79698C19.7398 7.58027 20.7317 9.95086 20.7966 12.4374L21.1965 12.4269ZM18.3062 5.51917C16.515 3.6636 14.0957 2.55454 11.5291 2.41295L11.507 2.81234C13.9725 2.94835 16.2971 4.01371 18.0184 5.79698L18.3062 5.51917ZM11.718 2.61264V1.52075H11.318V2.61264H11.718ZM11.718 1.52075C11.718 1.33004 11.6428 1.14686 11.5085 1.01159L11.2247 1.29346C11.2843 1.3535 11.318 1.43523 11.318 1.52075H11.718ZM11.5085 1.01159C11.3741 0.876271 11.1915 0.8 11.0009 0.8V1.2C11.0845 1.2 11.1651 1.23346 11.2247 1.29346L11.5085 1.01159ZM11.0009 0.8C10.8102 0.8 10.6277 0.876271 10.4933 1.01159L10.7771 1.29346C10.8367 1.23346 10.9172 1.2 11.0009 1.2V0.8ZM10.4933 1.01159C10.3589 1.14686 10.2837 1.33003 10.2837 1.52075H10.6837C10.6837 1.43524 10.7174 1.3535 10.7771 1.29346L10.4933 1.01159ZM10.2837 1.52075V2.61264H10.6837V1.52075H10.2837ZM10.4733 2.41291C8.82614 2.49865 7.22424 2.98525 5.80494 3.83092L6.00968 4.17455C7.37323 3.3621 8.91199 2.89472 10.4941 2.81237L10.4733 2.41291ZM5.80494 3.83092C4.38564 4.67659 3.19129 5.85608 2.32414 7.26819L2.665 7.47751C3.49842 6.12033 4.64613 4.987 6.00968 4.17455L5.80494 3.83092ZM2.32414 7.26819C1.457 8.68029 0.942879 10.283 0.825763 11.9388L1.22477 11.967C1.33735 10.3752 1.83159 8.83469 2.665 7.47751L2.32414 7.26819ZM0.825763 11.9388C0.708647 13.5947 0.992013 15.2545 1.65163 16.776L2.01863 16.6169C1.3846 15.1544 1.11218 13.5589 1.22477 11.967L0.825763 11.9388ZM1.6519 16.7766C1.7633 17.0312 1.94612 17.2478 2.17819 17.3998L2.39726 17.0651C2.23048 16.9559 2.09873 16.8 2.01836 16.6163L1.6519 16.7766ZM2.17819 17.3998C2.41027 17.5517 2.68145 17.6322 2.95851 17.6314L2.9573 17.2314C2.75864 17.232 2.56402 17.1742 2.39726 17.0651L2.17819 17.3998ZM2.9579 17.6314H10.4837V17.2314H2.9579V17.6314ZM10.2837 17.4314V35.6227H10.6837V17.4314H10.2837ZM10.4837 35.4227H4.51111V35.8227H10.4837V35.4227ZM4.51088 35.4227C3.88601 35.4234 3.28722 35.6737 2.84579 36.1182L3.1296 36.4C3.49634 36.0308 3.99329 35.8233 4.51135 35.8227L4.51088 35.4227ZM2.84579 36.1182C2.40441 36.5626 2.15636 37.1649 2.15564 37.7928L2.55564 37.7933C2.55624 37.2704 2.76281 36.7694 3.1296 36.4L2.84579 36.1182ZM2.15564 37.793V38.045H2.55564V37.793H2.15564ZM2.15564 38.0452C2.15591 38.3509 2.27666 38.6444 2.49178 38.861L2.77559 38.5791C2.63508 38.4376 2.55582 38.2455 2.55564 38.0448L2.15564 38.0452ZM2.49178 38.861C2.70696 39.0776 2.99901 39.1997 3.30391 39.2L3.30427 38.8C3.10622 38.7998 2.91606 38.7205 2.77559 38.5791L2.49178 38.861ZM3.30409 39.2H18.6918V38.8H3.30409V39.2ZM18.6922 39.2C18.9969 39.1995 19.2888 39.0773 19.5039 38.8607L19.2201 38.5789C19.0796 38.7203 18.8895 38.7996 18.6915 38.8L18.6922 39.2ZM19.5039 38.8607C19.7189 38.6442 19.8397 38.351 19.8403 38.0454L19.4403 38.0447C19.4399 38.2453 19.3606 38.4374 19.2201 38.5789L19.5039 38.8607ZM19.8403 38.045V37.793H19.4403V38.045H19.8403ZM19.8403 37.7927C19.8393 37.1649 19.5912 36.5628 19.1499 36.1184L18.866 36.4003C19.2328 36.7696 19.4395 37.2705 19.4403 37.7933L19.8403 37.7927ZM19.1499 36.1184C18.7085 35.674 18.1099 35.4237 17.4851 35.4227L17.4845 35.8227C18.0025 35.8235 18.4993 36.031 18.866 36.4003L19.1499 36.1184ZM17.4848 35.4227H11.518V35.8227H17.4848V35.4227ZM11.718 35.6227V17.4314H11.318V35.6227H11.718ZM11.518 17.6314H15.4227V17.2314H11.518V17.6314ZM15.2227 17.4314V22.9354H15.6227V17.4314H15.2227ZM15.2999 22.7775C15.1738 22.8757 15.0718 23.0015 15.0016 23.1453L15.3612 23.3207C15.4046 23.2316 15.4677 23.1538 15.5456 23.0932L15.2999 22.7775ZM15.0016 23.1453C14.9315 23.2892 14.895 23.4472 14.895 23.6073H15.295C15.295 23.5079 15.3177 23.4098 15.3612 23.3207L15.0016 23.1453ZM14.895 23.6073C14.895 23.7674 14.9315 23.9254 15.0016 24.0693L15.3612 23.8939C15.3177 23.8048 15.295 23.7067 15.295 23.6073H14.895ZM15.0016 24.0693C15.0718 24.2131 15.1738 24.3389 15.2999 24.4371L15.5456 24.1214C15.4677 24.0609 15.4046 23.9831 15.3612 23.8939L15.0016 24.0693ZM15.2227 24.2792V24.3355H15.6227V24.2792H15.2227ZM15.4227 24.5355H15.5062V24.1355H15.4227V24.5355ZM15.4019 24.5062C15.5645 24.6055 15.7512 24.6582 15.9416 24.6582V24.2582C15.8249 24.2582 15.7104 24.2259 15.6105 24.1649L15.4019 24.5062ZM15.9416 24.6582C16.132 24.6582 16.3187 24.6055 16.4813 24.5062L16.2727 24.1649C16.1728 24.2259 16.0583 24.2582 15.9416 24.2582V24.6582ZM16.377 24.5355H16.4604V24.1355H16.377V24.5355ZM16.6604 24.3355V24.2792H16.2604V24.3355H16.6604ZM16.5832 24.4371C16.7094 24.3389 16.8114 24.2131 16.8815 24.0693L16.522 23.8939C16.4785 23.9831 16.4154 24.0609 16.3376 24.1214L16.5832 24.4371ZM16.8815 24.0693C16.9517 23.9254 16.9881 23.7674 16.9881 23.6073H16.5881C16.5881 23.7067 16.5655 23.8048 16.522 23.8939L16.8815 24.0693ZM16.9881 23.6073C16.9881 23.4472 16.9517 23.2892 16.8815 23.1453L16.522 23.3207C16.5655 23.4098 16.5881 23.5079 16.5881 23.6073H16.9881ZM16.8815 23.1453C16.8114 23.0015 16.7094 22.8757 16.5832 22.7775L16.3376 23.0932C16.4154 23.1538 16.4786 23.2316 16.522 23.3207L16.8815 23.1453ZM16.6604 22.9354V17.4314H16.2604V22.9354H16.6604ZM16.4604 17.6314H19.0463V17.2314H16.4604V17.6314ZM19.0459 17.6314C19.3234 17.632 19.595 17.551 19.8274 17.3986L19.608 17.0642C19.4409 17.1737 19.2459 17.2318 19.0468 17.2314L19.0459 17.6314ZM19.8274 17.3986C20.0597 17.2463 20.2427 17.0291 20.3541 16.7739L19.9875 16.6139C19.9071 16.7982 19.7751 16.9546 19.608 17.0642L19.8274 17.3986ZM20.3543 16.7735C20.948 15.4042 21.2355 13.9204 21.1965 12.4269L20.7966 12.4374C20.8341 13.8726 20.5578 15.2986 19.9873 16.6144L20.3543 16.7735ZM18.4084 37.7956V37.9635H18.8084V37.7956H18.4084ZM18.6084 37.7635H3.39335V38.1635H18.6084V37.7635ZM3.59335 37.9635V37.7956H3.19335V37.9635H3.59335ZM3.59335 37.7964C3.59443 37.5507 3.6919 37.3157 3.86408 37.1425L3.58037 36.8605C3.33384 37.1085 3.1949 37.4444 3.19335 37.7947L3.59335 37.7964ZM3.86408 37.1425C4.03623 36.9693 4.26909 36.8718 4.51186 36.8709L4.51037 36.4709C4.1612 36.4722 3.82695 36.6124 3.58037 36.8605L3.86408 37.1425ZM4.51111 36.8709H17.4806V36.4709H4.51111V36.8709ZM17.4817 36.8709C17.6026 36.8703 17.7225 36.8936 17.8345 36.9397L17.9867 36.5697C17.8258 36.5036 17.6534 36.47 17.4796 36.4709L17.4817 36.8709ZM17.8345 36.9397C17.9466 36.9858 18.0486 37.0536 18.1347 37.1395L18.4172 36.8563C18.2938 36.7333 18.1476 36.6359 17.9867 36.5697L17.8345 36.9397ZM18.1347 37.1395C18.2209 37.2254 18.2894 37.3276 18.3364 37.4404L18.7056 37.2865C18.6385 37.1255 18.5405 36.9793 18.4172 36.8563L18.1347 37.1395ZM18.3364 37.4404C18.3834 37.5531 18.4079 37.6741 18.4084 37.7964L18.8084 37.7947C18.8076 37.6202 18.7727 37.4475 18.7056 37.2865L18.3364 37.4404ZM19.0385 16.1959C19.0391 16.1943 19.0404 16.1928 19.0421 16.1917L19.2587 16.528C19.3231 16.4865 19.3738 16.427 19.4046 16.357L19.0385 16.1959ZM19.0421 16.1917C19.0439 16.1905 19.0462 16.1899 19.0486 16.1899L19.0424 16.5898C19.1191 16.591 19.1944 16.5694 19.2587 16.528L19.0421 16.1917ZM19.0455 16.1899H2.95625V16.5899H19.0455V16.1899ZM2.95401 16.1899C2.95602 16.1899 2.95789 16.1904 2.95941 16.1914L2.74549 16.5294C2.80914 16.5697 2.88311 16.5907 2.9585 16.5899L2.95401 16.1899ZM2.95941 16.1914C2.96092 16.1923 2.96191 16.1936 2.96247 16.1948L2.59967 16.3632C2.63131 16.4314 2.68185 16.4891 2.74549 16.5294L2.95941 16.1914ZM2.96457 16.1995C2.38216 14.8559 2.14112 13.3874 2.26328 11.9265L1.86467 11.8932C1.73702 13.4198 1.98888 14.9544 2.59757 16.3585L2.96457 16.1995ZM2.26328 11.9265C2.38543 10.4657 2.86692 9.05848 3.66419 7.832L3.32881 7.61399C2.49547 8.89599 1.99232 10.3666 1.86467 11.8932L2.26328 11.9265ZM3.66419 7.832C4.46144 6.60552 5.54936 5.59837 6.82963 4.90132L6.63836 4.55002C5.29953 5.27895 4.16216 6.33199 3.32881 7.61399L3.66419 7.832ZM6.82963 4.90132C8.10989 4.20428 9.54228 3.83923 10.9976 3.83903L10.9975 3.43903C9.47531 3.43924 7.9772 3.82108 6.63836 4.55002L6.82963 4.90132ZM10.9975 3.83903C10.9977 3.83903 10.9978 3.83903 10.9979 3.83903C10.998 3.83903 10.9982 3.83903 10.9983 3.83903C10.9984 3.83903 10.9986 3.83903 10.9987 3.83903C10.9988 3.83903 10.9989 3.83903 10.9991 3.83903C10.9992 3.83903 10.9993 3.83903 10.9995 3.83903C10.9996 3.83903 10.9997 3.83903 10.9998 3.83903C11 3.83903 11.0001 3.83903 11.0002 3.83903C11.0004 3.83903 11.0005 3.83903 11.0006 3.83903C11.0007 3.83903 11.0009 3.83903 11.001 3.83903C11.0011 3.83903 11.0013 3.83903 11.0014 3.83903C11.0015 3.83903 11.0016 3.83903 11.0018 3.83903C11.0019 3.83903 11.002 3.83903 11.0022 3.83903C11.0023 3.83903 11.0024 3.83903 11.0026 3.83903C11.0027 3.83903 11.0028 3.83903 11.0029 3.83903C11.0031 3.83903 11.0032 3.83903 11.0033 3.83903C11.0035 3.83903 11.0036 3.83903 11.0037 3.83903C11.0038 3.83903 11.004 3.83903 11.0041 3.83903C11.0042 3.83903 11.0044 3.83903 11.0045 3.83903C11.0046 3.83903 11.0047 3.83903 11.0049 3.83903C11.005 3.83903 11.0051 3.83903 11.0053 3.83903C11.0054 3.83903 11.0055 3.83903 11.0056 3.83903C11.0058 3.83903 11.0059 3.83903 11.006 3.83903C11.0062 3.83903 11.0063 3.83903 11.0064 3.83903C11.0065 3.83903 11.0067 3.83903 11.0068 3.83903C11.0069 3.83903 11.0071 3.83903 11.0072 3.83903C11.0073 3.83903 11.0074 3.83903 11.0076 3.83903C11.0077 3.83903 11.0078 3.83903 11.008 3.83903C11.0081 3.83903 11.0082 3.83903 11.0083 3.83903C11.0085 3.83903 11.0086 3.83903 11.0087 3.83903C11.0089 3.83903 11.009 3.83903 11.0091 3.83903C11.0092 3.83903 11.0094 3.83903 11.0095 3.83903C11.0096 3.83903 11.0098 3.83903 11.0099 3.83903C11.01 3.83903 11.0101 3.83903 11.0103 3.83903C11.0104 3.83903 11.0105 3.83903 11.0107 3.83903C11.0108 3.83903 11.0109 3.83903 11.011 3.83903C11.0112 3.83903 11.0113 3.83903 11.0114 3.83903C11.0116 3.83903 11.0117 3.83903 11.0118 3.83903C11.0119 3.83903 11.0121 3.83903 11.0122 3.83903C11.0123 3.83903 11.0125 3.83903 11.0126 3.83903C11.0127 3.83903 11.0128 3.83903 11.013 3.83903C11.0131 3.83903 11.0132 3.83903 11.0134 3.83903C11.0135 3.83903 11.0136 3.83903 11.0137 3.83903C11.0139 3.83903 11.014 3.83903 11.0141 3.83903C11.0143 3.83903 11.0144 3.83903 11.0145 3.83903C11.0146 3.83903 11.0148 3.83903 11.0149 3.83903C11.015 3.83903 11.0152 3.83903 11.0153 3.83903C11.0154 3.83903 11.0156 3.83903 11.0157 3.83903C11.0158 3.83903 11.0159 3.83903 11.0161 3.83903C11.0162 3.83903 11.0163 3.83903 11.0165 3.83903C11.0166 3.83903 11.0167 3.83903 11.0168 3.83903C11.017 3.83903 11.0171 3.83903 11.0172 3.83903C11.0174 3.83903 11.0175 3.83903 11.0176 3.83903C11.0177 3.83903 11.0179 3.83903 11.018 3.83903C11.0181 3.83903 11.0183 3.83903 11.0184 3.83903C11.0185 3.83903 11.0186 3.83903 11.0188 3.83903C11.0189 3.83903 11.019 3.83903 11.0192 3.83903C11.0193 3.83903 11.0194 3.83903 11.0195 3.83903C11.0197 3.83903 11.0198 3.83903 11.0199 3.83903C11.0201 3.83903 11.0202 3.83903 11.0203 3.83903C11.0204 3.83903 11.0206 3.83903 11.0207 3.83903C11.0208 3.83903 11.021 3.83903 11.0211 3.83903C11.0212 3.83903 11.0213 3.83903 11.0215 3.83903C11.0216 3.83903 11.0217 3.83903 11.0219 3.83903C11.022 3.83903 11.0221 3.83903 11.0222 3.83903C11.0224 3.83903 11.0225 3.83903 11.0226 3.83903C11.0228 3.83903 11.0229 3.83903 11.023 3.83903C11.0231 3.83903 11.0233 3.83903 11.0234 3.83903C11.0235 3.83903 11.0237 3.83903 11.0238 3.83903C11.0239 3.83903 11.024 3.83903 11.0242 3.83903C11.0243 3.83903 11.0244 3.83903 11.0246 3.83903C11.0247 3.83903 11.0248 3.83903 11.0249 3.83903C11.0251 3.83903 11.0252 3.83903 11.0253 3.83903C11.0255 3.83903 11.0256 3.83903 11.0257 3.83903C11.0258 3.83903 11.026 3.83903 11.0261 3.83903C11.0262 3.83903 11.0264 3.83903 11.0265 3.83903C11.0266 3.83903 11.0267 3.83903 11.0269 3.83903C11.027 3.83903 11.0271 3.83903 11.0273 3.83903C11.0274 3.83903 11.0275 3.83903 11.0277 3.83903C11.0278 3.83903 11.0279 3.83903 11.028 3.83903C11.0282 3.83903 11.0283 3.83903 11.0284 3.83903C11.0286 3.83903 11.0287 3.83903 11.0288 3.83903C11.0289 3.83903 11.0291 3.83903 11.0292 3.83903C11.0293 3.83903 11.0295 3.83903 11.0296 3.83903C11.0297 3.83903 11.0298 3.83903 11.03 3.83903C11.0301 3.83903 11.0302 3.83903 11.0304 3.83903C11.0305 3.83903 11.0306 3.83903 11.0307 3.83903C11.0309 3.83903 11.031 3.83903 11.0311 3.83903C11.0313 3.83903 11.0314 3.83903 11.0315 3.83903C11.0316 3.83903 11.0318 3.83903 11.0319 3.83903C11.032 3.83903 11.0322 3.83903 11.0323 3.83903C11.0324 3.83903 11.0325 3.83903 11.0327 3.83903C11.0328 3.83903 11.0329 3.83903 11.0331 3.83903C11.0332 3.83903 11.0333 3.83903 11.0334 3.83903C11.0336 3.83903 11.0337 3.83903 11.0338 3.83903C11.034 3.83903 11.0341 3.83903 11.0342 3.83903C11.0343 3.83903 11.0345 3.83903 11.0346 3.83903C11.0347 3.83903 11.0349 3.83903 11.035 3.83903C11.0351 3.83903 11.0352 3.83903 11.0354 3.83903C11.0355 3.83903 11.0356 3.83903 11.0358 3.83903C11.0359 3.83903 11.036 3.83903 11.0361 3.83903C11.0363 3.83903 11.0364 3.83903 11.0365 3.83903C11.0367 3.83903 11.0368 3.83903 11.0369 3.83903C11.0371 3.83903 11.0372 3.83903 11.0373 3.83903C11.0374 3.83903 11.0376 3.83903 11.0377 3.83903C11.0378 3.83903 11.038 3.83903 11.0381 3.83903C11.0382 3.83903 11.0383 3.83903 11.0385 3.83903C11.0386 3.83903 11.0387 3.83903 11.0389 3.83903C11.039 3.83903 11.0391 3.83903 11.0392 3.83903C11.0394 3.83903 11.0395 3.83903 11.0396 3.83903C11.0398 3.83903 11.0399 3.83903 11.04 3.83903C11.0401 3.83903 11.0403 3.83903 11.0404 3.83903C11.0405 3.83903 11.0407 3.83903 11.0408 3.83903C11.0409 3.83903 11.041 3.83903 11.0412 3.83903C11.0413 3.83903 11.0414 3.83903 11.0416 3.83903C11.0417 3.83903 11.0418 3.83903 11.0419 3.83903C11.0421 3.83903 11.0422 3.83903 11.0423 3.83903C11.0425 3.83903 11.0426 3.83903 11.0427 3.83903C11.0428 3.83903 11.043 3.83903 11.0431 3.83903C11.0432 3.83903 11.0434 3.83903 11.0435 3.83903C11.0436 3.83903 11.0437 3.83903 11.0439 3.83903C11.044 3.83903 11.0441 3.83903 11.0443 3.83903C11.0444 3.83903 11.0445 3.83903 11.0446 3.83903C11.0448 3.83903 11.0449 3.83903 11.045 3.83903C11.0452 3.83903 11.0453 3.83903 11.0454 3.83903C11.0455 3.83903 11.0457 3.83903 11.0458 3.83903C11.0459 3.83903 11.0461 3.83903 11.0462 3.83903C11.0463 3.83903 11.0465 3.83903 11.0466 3.83903C11.0467 3.83903 11.0468 3.83903 11.047 3.83903C11.0471 3.83903 11.0472 3.83903 11.0474 3.83903C11.0475 3.83903 11.0476 3.83903 11.0477 3.83903C11.0479 3.83903 11.048 3.83903 11.0481 3.83903C11.0483 3.83903 11.0484 3.83903 11.0485 3.83903C11.0486 3.83903 11.0488 3.83903 11.0489 3.83903C11.049 3.83903 11.0492 3.83903 11.0493 3.83903C11.0494 3.83903 11.0495 3.83903 11.0497 3.83903C11.0498 3.83903 11.0499 3.83903 11.0501 3.83903C11.0502 3.83903 11.0503 3.83903 11.0504 3.83903C11.0506 3.83903 11.0507 3.83903 11.0508 3.83903C11.051 3.83903 11.0511 3.83903 11.0512 3.83903C11.0513 3.83903 11.0515 3.83903 11.0516 3.83903C11.0517 3.83903 11.0519 3.83903 11.052 3.83903C11.0521 3.83903 11.0522 3.83903 11.0524 3.83903C11.0525 3.83903 11.0526 3.83903 11.0528 3.83903C11.0529 3.83903 11.053 3.83903 11.0531 3.83903C11.0533 3.83903 11.0534 3.83903 11.0535 3.83903C11.0537 3.83903 11.0538 3.83903 11.0539 3.83903C11.0541 3.83903 11.0542 3.83903 11.0543 3.83903C11.0544 3.83903 11.0546 3.83903 11.0547 3.83903C11.0548 3.83903 11.055 3.83903 11.0551 3.83903C11.0552 3.83903 11.0553 3.83903 11.0555 3.83903C11.0556 3.83903 11.0557 3.83903 11.0559 3.83903C11.056 3.83903 11.0561 3.83903 11.0562 3.83903C11.0564 3.83903 11.0565 3.83903 11.0566 3.83903C11.0568 3.83903 11.0569 3.83903 11.057 3.83903C11.0571 3.83903 11.0573 3.83903 11.0574 3.83903C11.0575 3.83903 11.0577 3.83903 11.0578 3.83903C11.0579 3.83903 11.058 3.83903 11.0582 3.83903C11.0583 3.83903 11.0584 3.83903 11.0586 3.83903C11.0587 3.83903 11.0588 3.83903 11.0589 3.83903C11.0591 3.83903 11.0592 3.83903 11.0593 3.83903C11.0595 3.83903 11.0596 3.83903 11.0597 3.83903C11.0598 3.83903 11.06 3.83903 11.0601 3.83903C11.0602 3.83903 11.0604 3.83903 11.0605 3.83903C11.0606 3.83903 11.0608 3.83903 11.0609 3.83903C11.061 3.83903 11.0611 3.83903 11.0613 3.83903C11.0614 3.83903 11.0615 3.83903 11.0617 3.83903C11.0618 3.83903 11.0619 3.83903 11.062 3.83903C11.0622 3.83903 11.0623 3.83903 11.0624 3.83903C11.0626 3.83903 11.0627 3.83903 11.0628 3.83903C11.0629 3.83903 11.0631 3.83903 11.0632 3.83903C11.0633 3.83903 11.0635 3.83903 11.0636 3.83903C11.0637 3.83903 11.0638 3.83903 11.064 3.83903C11.0641 3.83903 11.0642 3.83903 11.0644 3.83903C11.0645 3.83903 11.0646 3.83903 11.0647 3.83903C11.0649 3.83903 11.065 3.83903 11.0651 3.83903C11.0653 3.83903 11.0654 3.83903 11.0655 3.83903C11.0656 3.83903 11.0658 3.83903 11.0659 3.83903C11.066 3.83903 11.0662 3.83903 11.0663 3.83903C11.0664 3.83903 11.0666 3.83903 11.0667 3.83903C11.0668 3.83903 11.0669 3.83903 11.0671 3.83903C11.0672 3.83903 11.0673 3.83903 11.0675 3.83903C11.0676 3.83903 11.0677 3.83903 11.0678 3.83903C11.068 3.83903 11.0681 3.83903 11.0682 3.83903C11.0684 3.83903 11.0685 3.83903 11.0686 3.83903C11.0687 3.83903 11.0689 3.83903 11.069 3.83903C11.0691 3.83903 11.0693 3.83903 11.0694 3.83903C11.0695 3.83903 11.0696 3.83903 11.0698 3.83903C11.0699 3.83903 11.07 3.83903 11.0702 3.83903C11.0703 3.83903 11.0704 3.83903 11.0705 3.83903C11.0707 3.83903 11.0708 3.83903 11.0709 3.83903C11.0711 3.83903 11.0712 3.83903 11.0713 3.83903C11.0715 3.83903 11.0716 3.83903 11.0717 3.83903C11.0718 3.83903 11.072 3.83903 11.0721 3.83903C11.0722 3.83903 11.0724 3.83903 11.0725 3.83903C11.0726 3.83903 11.0727 3.83903 11.0729 3.83903C11.073 3.83903 11.0731 3.83903 11.0733 3.83903C11.0734 3.83903 11.0735 3.83903 11.0736 3.83903C11.0738 3.83903 11.0739 3.83903 11.074 3.83903C11.0742 3.83903 11.0743 3.83903 11.0744 3.83903C11.0745 3.83903 11.0747 3.83903 11.0748 3.83903C11.0749 3.83903 11.0751 3.83903 11.0752 3.83903C11.0753 3.83903 11.0754 3.83903 11.0756 3.83903C11.0757 3.83903 11.0758 3.83903 11.076 3.83903C11.0761 3.83903 11.0762 3.83903 11.0764 3.83903C11.0765 3.83903 11.0766 3.83903 11.0767 3.83903C11.0769 3.83903 11.077 3.83903 11.0771 3.83903C11.0773 3.83903 11.0774 3.83903 11.0775 3.83903C11.0776 3.83903 11.0778 3.83903 11.0779 3.83903C11.078 3.83903 11.0782 3.83903 11.0783 3.83903C11.0784 3.83903 11.0785 3.83903 11.0787 3.83903C11.0788 3.83903 11.0789 3.83903 11.0791 3.83903C11.0792 3.83903 11.0793 3.83903 11.0794 3.83903C11.0796 3.83903 11.0797 3.83903 11.0798 3.83903C11.08 3.83903 11.0801 3.83903 11.0802 3.83903C11.0803 3.83903 11.0805 3.83903 11.0806 3.83903C11.0807 3.83903 11.0809 3.83903 11.081 3.83903C11.0811 3.83903 11.0813 3.83903 11.0814 3.83903C11.0815 3.83903 11.0816 3.83903 11.0818 3.83903C11.0819 3.83903 11.082 3.83903 11.0822 3.83903C11.0823 3.83903 11.0824 3.83903 11.0825 3.83903C11.0827 3.83903 11.0828 3.83903 11.0829 3.83903C11.0831 3.83903 11.0832 3.83903 11.0833 3.83903C11.0834 3.83903 11.0836 3.83903 11.0837 3.83903C11.0838 3.83903 11.084 3.83903 11.0841 3.83903C11.0842 3.83903 11.0843 3.83903 11.0845 3.83903C11.0846 3.83903 11.0847 3.83903 11.0849 3.83903C11.085 3.83903 11.0851 3.83903 11.0852 3.83903C11.0854 3.83903 11.0855 3.83903 11.0856 3.83903C11.0858 3.83903 11.0859 3.83903 11.086 3.83903C11.0862 3.83903 11.0863 3.83903 11.0864 3.83903C11.0865 3.83903 11.0867 3.83903 11.0868 3.83903C11.0869 3.83903 11.0871 3.83903 11.0872 3.83903C11.0873 3.83903 11.0874 3.83903 11.0876 3.83903C11.0877 3.83903 11.0878 3.83903 11.088 3.83903C11.0881 3.83903 11.0882 3.83903 11.0883 3.83903C11.0885 3.83903 11.0886 3.83903 11.0887 3.83903C11.0889 3.83903 11.089 3.83903 11.0891 3.83903C11.0892 3.83903 11.0894 3.83903 11.0895 3.83903C11.0896 3.83903 11.0898 3.83903 11.0899 3.83903C11.09 3.83903 11.0902 3.83903 11.0903 3.83903C11.0904 3.83903 11.0905 3.83903 11.0907 3.83903C11.0908 3.83903 11.0909 3.83903 11.0911 3.83903C11.0912 3.83903 11.0913 3.83903 11.0914 3.83903C11.0916 3.83903 11.0917 3.83903 11.0918 3.83903C11.092 3.83903 11.0921 3.83903 11.0922 3.83903C11.0923 3.83903 11.0925 3.83903 11.0926 3.83903C11.0927 3.83903 11.0929 3.83903 11.093 3.83903C11.0931 3.83903 11.0933 3.83903 11.0934 3.83903C11.0935 3.83903 11.0936 3.83903 11.0938 3.83903C11.0939 3.83903 11.094 3.83903 11.0942 3.83903C11.0943 3.83903 11.0944 3.83903 11.0945 3.83903C11.0947 3.83903 11.0948 3.83903 11.0949 3.83903C11.0951 3.83903 11.0952 3.83903 11.0953 3.83903C11.0954 3.83903 11.0956 3.83903 11.0957 3.83903C11.0958 3.83903 11.096 3.83903 11.0961 3.83903C11.0962 3.83903 11.0963 3.83903 11.0965 3.83903C11.0966 3.83903 11.0967 3.83903 11.0969 3.83903C11.097 3.83903 11.0971 3.83903 11.0973 3.83903C11.0974 3.83903 11.0975 3.83903 11.0976 3.83903C11.0978 3.83903 11.0979 3.83903 11.098 3.83903C11.0982 3.83903 11.0983 3.83903 11.0984 3.83903C11.0985 3.83903 11.0987 3.83903 11.0988 3.83903C11.0989 3.83903 11.0991 3.83903 11.0992 3.83903C11.0993 3.83903 11.0994 3.83903 11.0996 3.83903C11.0997 3.83903 11.0998 3.83903 11.1 3.83903C11.1001 3.83903 11.1002 3.83903 11.1004 3.83903C11.1005 3.83903 11.1006 3.83903 11.1007 3.83903C11.1009 3.83903 11.101 3.83903 11.1011 3.83903C11.1013 3.83903 11.1014 3.83903 11.1015 3.83903C11.1016 3.83903 11.1018 3.83903 11.1019 3.83903C11.102 3.83903 11.1022 3.83903 11.1023 3.83903C11.1024 3.83903 11.1025 3.83903 11.1027 3.83903C11.1028 3.83903 11.1029 3.83903 11.1031 3.83903C11.1032 3.83903 11.1033 3.83903 11.1035 3.83903C11.1036 3.83903 11.1037 3.83903 11.1038 3.83903C11.104 3.83903 11.1041 3.83903 11.1042 3.83903C11.1044 3.83903 11.1045 3.83903 11.1046 3.83903C11.1047 3.83903 11.1049 3.83903 11.105 3.83903C11.1051 3.83903 11.1053 3.83903 11.1054 3.83903C11.1055 3.83903 11.1056 3.83903 11.1058 3.83903C11.1059 3.83903 11.106 3.83903 11.1062 3.83903C11.1063 3.83903 11.1064 3.83903 11.1066 3.83903C11.1067 3.83903 11.1068 3.83903 11.1069 3.83903C11.1071 3.83903 11.1072 3.83903 11.1073 3.83903C11.1075 3.83903 11.1076 3.83903 11.1077 3.83903C11.1078 3.83903 11.108 3.83903 11.1081 3.83903C11.1082 3.83903 11.1084 3.83903 11.1085 3.83903C11.1086 3.83903 11.1087 3.83903 11.1089 3.83903C11.109 3.83903 11.1091 3.83903 11.1093 3.83903C11.1094 3.83903 11.1095 3.83903 11.1097 3.83903C11.1098 3.83903 11.1099 3.83903 11.11 3.83903C11.1102 3.83903 11.1103 3.83903 11.1104 3.83903C11.1106 3.83903 11.1107 3.83903 11.1108 3.83903C11.1109 3.83903 11.1111 3.83903 11.1112 3.83903C11.1113 3.83903 11.1115 3.83903 11.1116 3.83903C11.1117 3.83903 11.1118 3.83903 11.112 3.83903C11.1121 3.83903 11.1122 3.83903 11.1124 3.83903C11.1125 3.83903 11.1126 3.83903 11.1128 3.83903C11.1129 3.83903 11.113 3.83903 11.1131 3.83903C11.1133 3.83903 11.1134 3.83903 11.1135 3.83903C11.1137 3.83903 11.1138 3.83903 11.1139 3.83903C11.114 3.83903 11.1142 3.83903 11.1143 3.83903C11.1144 3.83903 11.1146 3.83903 11.1147 3.83903C11.1148 3.83903 11.115 3.83903 11.1151 3.83903C11.1152 3.83903 11.1153 3.83903 11.1155 3.83903C11.1156 3.83903 11.1157 3.83903 11.1159 3.83903C11.116 3.83903 11.1161 3.83903 11.1162 3.83903C11.1164 3.83903 11.1165 3.83903 11.1166 3.83903C11.1168 3.83903 11.1169 3.83903 11.117 3.83903C11.1172 3.83903 11.1173 3.83903 11.1174 3.83903C11.1175 3.83903 11.1177 3.83903 11.1178 3.83903C11.1179 3.83903 11.1181 3.83903 11.1182 3.83903C11.1183 3.83903 11.1184 3.83903 11.1186 3.83903C11.1187 3.83903 11.1188 3.83903 11.119 3.83903C11.1191 3.83903 11.1192 3.83903 11.1193 3.83903C11.1195 3.83903 11.1196 3.83903 11.1197 3.83903C11.1199 3.83903 11.12 3.83903 11.1201 3.83903C11.1203 3.83903 11.1204 3.83903 11.1205 3.83903C11.1206 3.83903 11.1208 3.83903 11.1209 3.83903C11.121 3.83903 11.1212 3.83903 11.1213 3.83903C11.1214 3.83903 11.1215 3.83903 11.1217 3.83903C11.1218 3.83903 11.1219 3.83903 11.1221 3.83903C11.1222 3.83903 11.1223 3.83903 11.1225 3.83903C11.1226 3.83903 11.1227 3.83903 11.1228 3.83903C11.123 3.83903 11.1231 3.83903 11.1232 3.83903C11.1234 3.83903 11.1235 3.83903 11.1236 3.83903C11.1237 3.83903 11.1239 3.83903 11.124 3.83903C11.1241 3.83903 11.1243 3.83903 11.1244 3.83903C11.1245 3.83903 11.1247 3.83903 11.1248 3.83903C11.1249 3.83903 11.125 3.83903 11.1252 3.83903C11.1253 3.83903 11.1254 3.83903 11.1256 3.83903C11.1257 3.83903 11.1258 3.83903 11.1259 3.83903C11.1261 3.83903 11.1262 3.83903 11.1263 3.83903C11.1265 3.83903 11.1266 3.83903 11.1267 3.83903C11.1269 3.83903 11.127 3.83903 11.1271 3.83903C11.1272 3.83903 11.1274 3.83903 11.1275 3.83903C11.1276 3.83903 11.1278 3.83903 11.1279 3.83903C11.128 3.83903 11.1281 3.83903 11.1283 3.83903C11.1284 3.83903 11.1285 3.83903 11.1287 3.83903C11.1288 3.83903 11.1289 3.83903 11.1291 3.83903C11.1292 3.83903 11.1293 3.83903 11.1294 3.83903C11.1296 3.83903 11.1297 3.83903 11.1298 3.83903C11.13 3.83903 11.1301 3.83903 11.1302 3.83903C11.1303 3.83903 11.1305 3.83903 11.1306 3.83903C11.1307 3.83903 11.1309 3.83903 11.131 3.83903C11.1311 3.83903 11.1313 3.83903 11.1314 3.83903C11.1315 3.83903 11.1316 3.83903 11.1318 3.83903C11.1319 3.83903 11.132 3.83903 11.1322 3.83903C11.1323 3.83903 11.1324 3.83903 11.1325 3.83903C11.1327 3.83903 11.1328 3.83903 11.1329 3.83903C11.1331 3.83903 11.1332 3.83903 11.1333 3.83903C11.1335 3.83903 11.1336 3.83903 11.1337 3.83903C11.1338 3.83903 11.134 3.83903 11.1341 3.83903C11.1342 3.83903 11.1344 3.83903 11.1345 3.83903C11.1346 3.83903 11.1347 3.83903 11.1349 3.83903C11.135 3.83903 11.1351 3.83903 11.1353 3.83903C11.1354 3.83903 11.1355 3.83903 11.1357 3.83903C11.1358 3.83903 11.1359 3.83903 11.136 3.83903C11.1362 3.83903 11.1363 3.83903 11.1364 3.83903C11.1366 3.83903 11.1367 3.83903 11.1368 3.83903C11.1369 3.83903 11.1371 3.83903 11.1372 3.83903C11.1373 3.83903 11.1375 3.83903 11.1376 3.83903C11.1377 3.83903 11.1379 3.83903 11.138 3.83903C11.1381 3.83903 11.1382 3.83903 11.1384 3.83903C11.1385 3.83903 11.1386 3.83903 11.1388 3.83903C11.1389 3.83903 11.139 3.83903 11.1391 3.83903C11.1393 3.83903 11.1394 3.83903 11.1395 3.83903C11.1397 3.83903 11.1398 3.83903 11.1399 3.83903C11.1401 3.83903 11.1402 3.83903 11.1403 3.83903C11.1404 3.83903 11.1406 3.83903 11.1407 3.83903C11.1408 3.83903 11.141 3.83903 11.1411 3.83903C11.1412 3.83903 11.1414 3.83903 11.1415 3.83903C11.1416 3.83903 11.1417 3.83903 11.1419 3.83903C11.142 3.83903 11.1421 3.83903 11.1423 3.83903C11.1424 3.83903 11.1425 3.83903 11.1426 3.83903C11.1428 3.83903 11.1429 3.83903 11.143 3.83903C11.1432 3.83903 11.1433 3.83903 11.1434 3.83903C11.1436 3.83903 11.1437 3.83903 11.1438 3.83903C11.1439 3.83903 11.1441 3.83903 11.1442 3.83903C11.1443 3.83903 11.1445 3.83903 11.1446 3.83903C11.1447 3.83903 11.1449 3.83903 11.145 3.83903C11.1451 3.83903 11.1452 3.83903 11.1454 3.83903C11.1455 3.83903 11.1456 3.83903 11.1458 3.83903C11.1459 3.83903 11.146 3.83903 11.1461 3.83903C11.1463 3.83903 11.1464 3.83903 11.1465 3.83903C11.1467 3.83903 11.1468 3.83903 11.1469 3.83903C11.1471 3.83903 11.1472 3.83903 11.1473 3.83903C11.1474 3.83903 11.1476 3.83903 11.1477 3.83903C11.1478 3.83903 11.148 3.83903 11.1481 3.83903C11.1482 3.83903 11.1484 3.83903 11.1485 3.83903C11.1486 3.83903 11.1487 3.83903 11.1489 3.83903C11.149 3.83903 11.1491 3.83903 11.1493 3.83903C11.1494 3.83903 11.1495 3.83903 11.1496 3.83903C11.1498 3.83903 11.1499 3.83903 11.15 3.83903C11.1502 3.83903 11.1503 3.83903 11.1504 3.83903C11.1506 3.83903 11.1507 3.83903 11.1508 3.83903C11.1509 3.83903 11.1511 3.83903 11.1512 3.83903C11.1513 3.83903 11.1515 3.83903 11.1516 3.83903C11.1517 3.83903 11.1519 3.83903 11.152 3.83903C11.1521 3.83903 11.1522 3.83903 11.1524 3.83903C11.1525 3.83903 11.1526 3.83903 11.1528 3.83903C11.1529 3.83903 11.153 3.83903 11.1531 3.83903C11.1533 3.83903 11.1534 3.83903 11.1535 3.83903C11.1537 3.83903 11.1538 3.83903 11.1539 3.83903C11.1541 3.83903 11.1542 3.83903 11.1543 3.83903C11.1544 3.83903 11.1546 3.83903 11.1547 3.83903C11.1548 3.83903 11.155 3.83903 11.1551 3.83903C11.1552 3.83903 11.1554 3.83903 11.1555 3.83903C11.1556 3.83903 11.1557 3.83903 11.1559 3.83903C11.156 3.83903 11.1561 3.83903 11.1563 3.83903C11.1564 3.83903 11.1565 3.83903 11.1567 3.83903C11.1568 3.83903 11.1569 3.83903 11.157 3.83903C11.1572 3.83903 11.1573 3.83903 11.1574 3.83903C11.1576 3.83903 11.1577 3.83903 11.1578 3.83903C11.1579 3.83903 11.1581 3.83903 11.1582 3.83903C11.1583 3.83903 11.1585 3.83903 11.1586 3.83903C11.1587 3.83903 11.1589 3.83903 11.159 3.83903C11.1591 3.83903 11.1592 3.83903 11.1594 3.83903C11.1595 3.83903 11.1596 3.83903 11.1598 3.83903C11.1599 3.83903 11.16 3.83903 11.1602 3.83903C11.1603 3.83903 11.1604 3.83903 11.1605 3.83903C11.1607 3.83903 11.1608 3.83903 11.1609 3.83903C11.1611 3.83903 11.1612 3.83903 11.1613 3.83903C11.1615 3.83903 11.1616 3.83903 11.1617 3.83903C11.1618 3.83903 11.162 3.83903 11.1621 3.83903C11.1622 3.83903 11.1624 3.83903 11.1625 3.83903C11.1626 3.83903 11.1628 3.83903 11.1629 3.83903C11.163 3.83903 11.1631 3.83903 11.1633 3.83903C11.1634 3.83903 11.1635 3.83903 11.1637 3.83903C11.1638 3.83903 11.1639 3.83903 11.1641 3.83903C11.1642 3.83903 11.1643 3.83903 11.1644 3.83903C11.1646 3.83903 11.1647 3.83903 11.1648 3.83903C11.165 3.83903 11.1651 3.83903 11.1652 3.83903C11.1653 3.83903 11.1655 3.83903 11.1656 3.83903C11.1657 3.83903 11.1659 3.83903 11.166 3.83903C11.1661 3.83903 11.1663 3.83903 11.1664 3.83903C11.1665 3.83903 11.1666 3.83903 11.1668 3.83903C11.1669 3.83903 11.167 3.83903 11.1672 3.83903C11.1673 3.83903 11.1674 3.83903 11.1676 3.83903C11.1677 3.83903 11.1678 3.83903 11.1679 3.83903C11.1681 3.83903 11.1682 3.83903 11.1683 3.83903C11.1685 3.83903 11.1686 3.83903 11.1687 3.83903C11.1689 3.83903 11.169 3.83903 11.1691 3.83903C11.1692 3.83903 11.1694 3.83903 11.1695 3.83903C11.1696 3.83903 11.1698 3.83903 11.1699 3.83903C11.17 3.83903 11.1702 3.83903 11.1703 3.83903C11.1704 3.83903 11.1705 3.83903 11.1707 3.83903C11.1708 3.83903 11.1709 3.83903 11.1711 3.83903C11.1712 3.83903 11.1713 3.83903 11.1715 3.83903C11.1716 3.83903 11.1717 3.83903 11.1718 3.83903C11.172 3.83903 11.1721 3.83903 11.1722 3.83903C11.1724 3.83903 11.1725 3.83903 11.1726 3.83903C11.1728 3.83903 11.1729 3.83903 11.173 3.83903C11.1731 3.83903 11.1733 3.83903 11.1734 3.83903C11.1735 3.83903 11.1737 3.83903 11.1738 3.83903C11.1739 3.83903 11.1741 3.83903 11.1742 3.83903C11.1743 3.83903 11.1744 3.83903 11.1746 3.83903C11.1747 3.83903 11.1748 3.83903 11.175 3.83903C11.1751 3.83903 11.1752 3.83903 11.1754 3.83903C11.1755 3.83903 11.1756 3.83903 11.1757 3.83903C11.1759 3.83903 11.176 3.83903 11.1761 3.83903C11.1763 3.83903 11.1764 3.83903 11.1765 3.83903C11.1767 3.83903 11.1768 3.83903 11.1769 3.83903C11.177 3.83903 11.1772 3.83903 11.1773 3.83903C11.1774 3.83903 11.1776 3.83903 11.1777 3.83903C11.1778 3.83903 11.178 3.83903 11.1781 3.83903C11.1782 3.83903 11.1783 3.83903 11.1785 3.83903C11.1786 3.83903 11.1787 3.83903 11.1789 3.83903C11.179 3.83903 11.1791 3.83903 11.1793 3.83903C11.1794 3.83903 11.1795 3.83903 11.1796 3.83903C11.1798 3.83903 11.1799 3.83903 11.18 3.83903C11.1802 3.83903 11.1803 3.83903 11.1804 3.83903C11.1806 3.83903 11.1807 3.83903 11.1808 3.83903C11.1809 3.83903 11.1811 3.83903 11.1812 3.83903C11.1813 3.83903 11.1815 3.83903 11.1816 3.83903C11.1817 3.83903 11.1819 3.83903 11.182 3.83903C11.1821 3.83903 11.1822 3.83903 11.1824 3.83903C11.1825 3.83903 11.1826 3.83903 11.1828 3.83903C11.1829 3.83903 11.183 3.83903 11.1832 3.83903C11.1833 3.83903 11.1834 3.83903 11.1835 3.83903C11.1837 3.83903 11.1838 3.83903 11.1839 3.83903C11.1841 3.83903 11.1842 3.83903 11.1843 3.83903C11.1845 3.83903 11.1846 3.83903 11.1847 3.83903C11.1848 3.83903 11.185 3.83903 11.1851 3.83903C11.1852 3.83903 11.1854 3.83903 11.1855 3.83903C11.1856 3.83903 11.1858 3.83903 11.1859 3.83903C11.186 3.83903 11.1862 3.83903 11.1863 3.83903C11.1864 3.83903 11.1865 3.83903 11.1867 3.83903C11.1868 3.83903 11.1869 3.83903 11.1871 3.83903C11.1872 3.83903 11.1873 3.83903 11.1875 3.83903C11.1876 3.83903 11.1877 3.83903 11.1878 3.83903C11.188 3.83903 11.1881 3.83903 11.1882 3.83903C11.1884 3.83903 11.1885 3.83903 11.1886 3.83903C11.1888 3.83903 11.1889 3.83903 11.189 3.83903C11.1891 3.83903 11.1893 3.83903 11.1894 3.83903C11.1895 3.83903 11.1897 3.83903 11.1898 3.83903C11.1899 3.83903 11.1901 3.83903 11.1902 3.83903C11.1903 3.83903 11.1904 3.83903 11.1906 3.83903C11.1907 3.83903 11.1908 3.83903 11.191 3.83903C11.1911 3.83903 11.1912 3.83903 11.1914 3.83903C11.1915 3.83903 11.1916 3.83903 11.1918 3.83903C11.1919 3.83903 11.192 3.83903 11.1921 3.83903C11.1923 3.83903 11.1924 3.83903 11.1925 3.83903C11.1927 3.83903 11.1928 3.83903 11.1929 3.83903C11.1931 3.83903 11.1932 3.83903 11.1933 3.83903C11.1934 3.83903 11.1936 3.83903 11.1937 3.83903C11.1938 3.83903 11.194 3.83903 11.1941 3.83903C11.1942 3.83903 11.1944 3.83903 11.1945 3.83903C11.1946 3.83903 11.1947 3.83903 11.1949 3.83903C11.195 3.83903 11.1951 3.83903 11.1953 3.83903C11.1954 3.83903 11.1955 3.83903 11.1957 3.83903C11.1958 3.83903 11.1959 3.83903 11.1961 3.83903V3.43903C11.1959 3.43903 11.1958 3.43903 11.1957 3.43903C11.1955 3.43903 11.1954 3.43903 11.1953 3.43903C11.1951 3.43903 11.195 3.43903 11.1949 3.43903C11.1947 3.43903 11.1946 3.43903 11.1945 3.43903C11.1944 3.43903 11.1942 3.43903 11.1941 3.43903C11.194 3.43903 11.1938 3.43903 11.1937 3.43903C11.1936 3.43903 11.1934 3.43903 11.1933 3.43903C11.1932 3.43903 11.1931 3.43903 11.1929 3.43903C11.1928 3.43903 11.1927 3.43903 11.1925 3.43903C11.1924 3.43903 11.1923 3.43903 11.1921 3.43903C11.192 3.43903 11.1919 3.43903 11.1918 3.43903C11.1916 3.43903 11.1915 3.43903 11.1914 3.43903C11.1912 3.43903 11.1911 3.43903 11.191 3.43903C11.1908 3.43903 11.1907 3.43903 11.1906 3.43903C11.1904 3.43903 11.1903 3.43903 11.1902 3.43903C11.1901 3.43903 11.1899 3.43903 11.1898 3.43903C11.1897 3.43903 11.1895 3.43903 11.1894 3.43903C11.1893 3.43903 11.1891 3.43903 11.189 3.43903C11.1889 3.43903 11.1888 3.43903 11.1886 3.43903C11.1885 3.43903 11.1884 3.43903 11.1882 3.43903C11.1881 3.43903 11.188 3.43903 11.1878 3.43903C11.1877 3.43903 11.1876 3.43903 11.1875 3.43903C11.1873 3.43903 11.1872 3.43903 11.1871 3.43903C11.1869 3.43903 11.1868 3.43903 11.1867 3.43903C11.1865 3.43903 11.1864 3.43903 11.1863 3.43903C11.1862 3.43903 11.186 3.43903 11.1859 3.43903C11.1858 3.43903 11.1856 3.43903 11.1855 3.43903C11.1854 3.43903 11.1852 3.43903 11.1851 3.43903C11.185 3.43903 11.1848 3.43903 11.1847 3.43903C11.1846 3.43903 11.1845 3.43903 11.1843 3.43903C11.1842 3.43903 11.1841 3.43903 11.1839 3.43903C11.1838 3.43903 11.1837 3.43903 11.1835 3.43903C11.1834 3.43903 11.1833 3.43903 11.1832 3.43903C11.183 3.43903 11.1829 3.43903 11.1828 3.43903C11.1826 3.43903 11.1825 3.43903 11.1824 3.43903C11.1822 3.43903 11.1821 3.43903 11.182 3.43903C11.1819 3.43903 11.1817 3.43903 11.1816 3.43903C11.1815 3.43903 11.1813 3.43903 11.1812 3.43903C11.1811 3.43903 11.1809 3.43903 11.1808 3.43903C11.1807 3.43903 11.1806 3.43903 11.1804 3.43903C11.1803 3.43903 11.1802 3.43903 11.18 3.43903C11.1799 3.43903 11.1798 3.43903 11.1796 3.43903C11.1795 3.43903 11.1794 3.43903 11.1793 3.43903C11.1791 3.43903 11.179 3.43903 11.1789 3.43903C11.1787 3.43903 11.1786 3.43903 11.1785 3.43903C11.1783 3.43903 11.1782 3.43903 11.1781 3.43903C11.178 3.43903 11.1778 3.43903 11.1777 3.43903C11.1776 3.43903 11.1774 3.43903 11.1773 3.43903C11.1772 3.43903 11.177 3.43903 11.1769 3.43903C11.1768 3.43903 11.1767 3.43903 11.1765 3.43903C11.1764 3.43903 11.1763 3.43903 11.1761 3.43903C11.176 3.43903 11.1759 3.43903 11.1757 3.43903C11.1756 3.43903 11.1755 3.43903 11.1754 3.43903C11.1752 3.43903 11.1751 3.43903 11.175 3.43903C11.1748 3.43903 11.1747 3.43903 11.1746 3.43903C11.1744 3.43903 11.1743 3.43903 11.1742 3.43903C11.1741 3.43903 11.1739 3.43903 11.1738 3.43903C11.1737 3.43903 11.1735 3.43903 11.1734 3.43903C11.1733 3.43903 11.1731 3.43903 11.173 3.43903C11.1729 3.43903 11.1728 3.43903 11.1726 3.43903C11.1725 3.43903 11.1724 3.43903 11.1722 3.43903C11.1721 3.43903 11.172 3.43903 11.1718 3.43903C11.1717 3.43903 11.1716 3.43903 11.1715 3.43903C11.1713 3.43903 11.1712 3.43903 11.1711 3.43903C11.1709 3.43903 11.1708 3.43903 11.1707 3.43903C11.1705 3.43903 11.1704 3.43903 11.1703 3.43903C11.1702 3.43903 11.17 3.43903 11.1699 3.43903C11.1698 3.43903 11.1696 3.43903 11.1695 3.43903C11.1694 3.43903 11.1692 3.43903 11.1691 3.43903C11.169 3.43903 11.1689 3.43903 11.1687 3.43903C11.1686 3.43903 11.1685 3.43903 11.1683 3.43903C11.1682 3.43903 11.1681 3.43903 11.1679 3.43903C11.1678 3.43903 11.1677 3.43903 11.1676 3.43903C11.1674 3.43903 11.1673 3.43903 11.1672 3.43903C11.167 3.43903 11.1669 3.43903 11.1668 3.43903C11.1666 3.43903 11.1665 3.43903 11.1664 3.43903C11.1663 3.43903 11.1661 3.43903 11.166 3.43903C11.1659 3.43903 11.1657 3.43903 11.1656 3.43903C11.1655 3.43903 11.1653 3.43903 11.1652 3.43903C11.1651 3.43903 11.165 3.43903 11.1648 3.43903C11.1647 3.43903 11.1646 3.43903 11.1644 3.43903C11.1643 3.43903 11.1642 3.43903 11.1641 3.43903C11.1639 3.43903 11.1638 3.43903 11.1637 3.43903C11.1635 3.43903 11.1634 3.43903 11.1633 3.43903C11.1631 3.43903 11.163 3.43903 11.1629 3.43903C11.1628 3.43903 11.1626 3.43903 11.1625 3.43903C11.1624 3.43903 11.1622 3.43903 11.1621 3.43903C11.162 3.43903 11.1618 3.43903 11.1617 3.43903C11.1616 3.43903 11.1615 3.43903 11.1613 3.43903C11.1612 3.43903 11.1611 3.43903 11.1609 3.43903C11.1608 3.43903 11.1607 3.43903 11.1605 3.43903C11.1604 3.43903 11.1603 3.43903 11.1602 3.43903C11.16 3.43903 11.1599 3.43903 11.1598 3.43903C11.1596 3.43903 11.1595 3.43903 11.1594 3.43903C11.1592 3.43903 11.1591 3.43903 11.159 3.43903C11.1589 3.43903 11.1587 3.43903 11.1586 3.43903C11.1585 3.43903 11.1583 3.43903 11.1582 3.43903C11.1581 3.43903 11.1579 3.43903 11.1578 3.43903C11.1577 3.43903 11.1576 3.43903 11.1574 3.43903C11.1573 3.43903 11.1572 3.43903 11.157 3.43903C11.1569 3.43903 11.1568 3.43903 11.1567 3.43903C11.1565 3.43903 11.1564 3.43903 11.1563 3.43903C11.1561 3.43903 11.156 3.43903 11.1559 3.43903C11.1557 3.43903 11.1556 3.43903 11.1555 3.43903C11.1554 3.43903 11.1552 3.43903 11.1551 3.43903C11.155 3.43903 11.1548 3.43903 11.1547 3.43903C11.1546 3.43903 11.1544 3.43903 11.1543 3.43903C11.1542 3.43903 11.1541 3.43903 11.1539 3.43903C11.1538 3.43903 11.1537 3.43903 11.1535 3.43903C11.1534 3.43903 11.1533 3.43903 11.1531 3.43903C11.153 3.43903 11.1529 3.43903 11.1528 3.43903C11.1526 3.43903 11.1525 3.43903 11.1524 3.43903C11.1522 3.43903 11.1521 3.43903 11.152 3.43903C11.1519 3.43903 11.1517 3.43903 11.1516 3.43903C11.1515 3.43903 11.1513 3.43903 11.1512 3.43903C11.1511 3.43903 11.1509 3.43903 11.1508 3.43903C11.1507 3.43903 11.1506 3.43903 11.1504 3.43903C11.1503 3.43903 11.1502 3.43903 11.15 3.43903C11.1499 3.43903 11.1498 3.43903 11.1496 3.43903C11.1495 3.43903 11.1494 3.43903 11.1493 3.43903C11.1491 3.43903 11.149 3.43903 11.1489 3.43903C11.1487 3.43903 11.1486 3.43903 11.1485 3.43903C11.1484 3.43903 11.1482 3.43903 11.1481 3.43903C11.148 3.43903 11.1478 3.43903 11.1477 3.43903C11.1476 3.43903 11.1474 3.43903 11.1473 3.43903C11.1472 3.43903 11.1471 3.43903 11.1469 3.43903C11.1468 3.43903 11.1467 3.43903 11.1465 3.43903C11.1464 3.43903 11.1463 3.43903 11.1461 3.43903C11.146 3.43903 11.1459 3.43903 11.1458 3.43903C11.1456 3.43903 11.1455 3.43903 11.1454 3.43903C11.1452 3.43903 11.1451 3.43903 11.145 3.43903C11.1449 3.43903 11.1447 3.43903 11.1446 3.43903C11.1445 3.43903 11.1443 3.43903 11.1442 3.43903C11.1441 3.43903 11.1439 3.43903 11.1438 3.43903C11.1437 3.43903 11.1436 3.43903 11.1434 3.43903C11.1433 3.43903 11.1432 3.43903 11.143 3.43903C11.1429 3.43903 11.1428 3.43903 11.1426 3.43903C11.1425 3.43903 11.1424 3.43903 11.1423 3.43903C11.1421 3.43903 11.142 3.43903 11.1419 3.43903C11.1417 3.43903 11.1416 3.43903 11.1415 3.43903C11.1414 3.43903 11.1412 3.43903 11.1411 3.43903C11.141 3.43903 11.1408 3.43903 11.1407 3.43903C11.1406 3.43903 11.1404 3.43903 11.1403 3.43903C11.1402 3.43903 11.1401 3.43903 11.1399 3.43903C11.1398 3.43903 11.1397 3.43903 11.1395 3.43903C11.1394 3.43903 11.1393 3.43903 11.1391 3.43903C11.139 3.43903 11.1389 3.43903 11.1388 3.43903C11.1386 3.43903 11.1385 3.43903 11.1384 3.43903C11.1382 3.43903 11.1381 3.43903 11.138 3.43903C11.1379 3.43903 11.1377 3.43903 11.1376 3.43903C11.1375 3.43903 11.1373 3.43903 11.1372 3.43903C11.1371 3.43903 11.1369 3.43903 11.1368 3.43903C11.1367 3.43903 11.1366 3.43903 11.1364 3.43903C11.1363 3.43903 11.1362 3.43903 11.136 3.43903C11.1359 3.43903 11.1358 3.43903 11.1357 3.43903C11.1355 3.43903 11.1354 3.43903 11.1353 3.43903C11.1351 3.43903 11.135 3.43903 11.1349 3.43903C11.1347 3.43903 11.1346 3.43903 11.1345 3.43903C11.1344 3.43903 11.1342 3.43903 11.1341 3.43903C11.134 3.43903 11.1338 3.43903 11.1337 3.43903C11.1336 3.43903 11.1335 3.43903 11.1333 3.43903C11.1332 3.43903 11.1331 3.43903 11.1329 3.43903C11.1328 3.43903 11.1327 3.43903 11.1325 3.43903C11.1324 3.43903 11.1323 3.43903 11.1322 3.43903C11.132 3.43903 11.1319 3.43903 11.1318 3.43903C11.1316 3.43903 11.1315 3.43903 11.1314 3.43903C11.1313 3.43903 11.1311 3.43903 11.131 3.43903C11.1309 3.43903 11.1307 3.43903 11.1306 3.43903C11.1305 3.43903 11.1303 3.43903 11.1302 3.43903C11.1301 3.43903 11.13 3.43903 11.1298 3.43903C11.1297 3.43903 11.1296 3.43903 11.1294 3.43903C11.1293 3.43903 11.1292 3.43903 11.1291 3.43903C11.1289 3.43903 11.1288 3.43903 11.1287 3.43903C11.1285 3.43903 11.1284 3.43903 11.1283 3.43903C11.1281 3.43903 11.128 3.43903 11.1279 3.43903C11.1278 3.43903 11.1276 3.43903 11.1275 3.43903C11.1274 3.43903 11.1272 3.43903 11.1271 3.43903C11.127 3.43903 11.1269 3.43903 11.1267 3.43903C11.1266 3.43903 11.1265 3.43903 11.1263 3.43903C11.1262 3.43903 11.1261 3.43903 11.1259 3.43903C11.1258 3.43903 11.1257 3.43903 11.1256 3.43903C11.1254 3.43903 11.1253 3.43903 11.1252 3.43903C11.125 3.43903 11.1249 3.43903 11.1248 3.43903C11.1247 3.43903 11.1245 3.43903 11.1244 3.43903C11.1243 3.43903 11.1241 3.43903 11.124 3.43903C11.1239 3.43903 11.1237 3.43903 11.1236 3.43903C11.1235 3.43903 11.1234 3.43903 11.1232 3.43903C11.1231 3.43903 11.123 3.43903 11.1228 3.43903C11.1227 3.43903 11.1226 3.43903 11.1225 3.43903C11.1223 3.43903 11.1222 3.43903 11.1221 3.43903C11.1219 3.43903 11.1218 3.43903 11.1217 3.43903C11.1215 3.43903 11.1214 3.43903 11.1213 3.43903C11.1212 3.43903 11.121 3.43903 11.1209 3.43903C11.1208 3.43903 11.1206 3.43903 11.1205 3.43903C11.1204 3.43903 11.1203 3.43903 11.1201 3.43903C11.12 3.43903 11.1199 3.43903 11.1197 3.43903C11.1196 3.43903 11.1195 3.43903 11.1193 3.43903C11.1192 3.43903 11.1191 3.43903 11.119 3.43903C11.1188 3.43903 11.1187 3.43903 11.1186 3.43903C11.1184 3.43903 11.1183 3.43903 11.1182 3.43903C11.1181 3.43903 11.1179 3.43903 11.1178 3.43903C11.1177 3.43903 11.1175 3.43903 11.1174 3.43903C11.1173 3.43903 11.1172 3.43903 11.117 3.43903C11.1169 3.43903 11.1168 3.43903 11.1166 3.43903C11.1165 3.43903 11.1164 3.43903 11.1162 3.43903C11.1161 3.43903 11.116 3.43903 11.1159 3.43903C11.1157 3.43903 11.1156 3.43903 11.1155 3.43903C11.1153 3.43903 11.1152 3.43903 11.1151 3.43903C11.115 3.43903 11.1148 3.43903 11.1147 3.43903C11.1146 3.43903 11.1144 3.43903 11.1143 3.43903C11.1142 3.43903 11.114 3.43903 11.1139 3.43903C11.1138 3.43903 11.1137 3.43903 11.1135 3.43903C11.1134 3.43903 11.1133 3.43903 11.1131 3.43903C11.113 3.43903 11.1129 3.43903 11.1128 3.43903C11.1126 3.43903 11.1125 3.43903 11.1124 3.43903C11.1122 3.43903 11.1121 3.43903 11.112 3.43903C11.1118 3.43903 11.1117 3.43903 11.1116 3.43903C11.1115 3.43903 11.1113 3.43903 11.1112 3.43903C11.1111 3.43903 11.1109 3.43903 11.1108 3.43903C11.1107 3.43903 11.1106 3.43903 11.1104 3.43903C11.1103 3.43903 11.1102 3.43903 11.11 3.43903C11.1099 3.43903 11.1098 3.43903 11.1097 3.43903C11.1095 3.43903 11.1094 3.43903 11.1093 3.43903C11.1091 3.43903 11.109 3.43903 11.1089 3.43903C11.1087 3.43903 11.1086 3.43903 11.1085 3.43903C11.1084 3.43903 11.1082 3.43903 11.1081 3.43903C11.108 3.43903 11.1078 3.43903 11.1077 3.43903C11.1076 3.43903 11.1075 3.43903 11.1073 3.43903C11.1072 3.43903 11.1071 3.43903 11.1069 3.43903C11.1068 3.43903 11.1067 3.43903 11.1066 3.43903C11.1064 3.43903 11.1063 3.43903 11.1062 3.43903C11.106 3.43903 11.1059 3.43903 11.1058 3.43903C11.1056 3.43903 11.1055 3.43903 11.1054 3.43903C11.1053 3.43903 11.1051 3.43903 11.105 3.43903C11.1049 3.43903 11.1047 3.43903 11.1046 3.43903C11.1045 3.43903 11.1044 3.43903 11.1042 3.43903C11.1041 3.43903 11.104 3.43903 11.1038 3.43903C11.1037 3.43903 11.1036 3.43903 11.1035 3.43903C11.1033 3.43903 11.1032 3.43903 11.1031 3.43903C11.1029 3.43903 11.1028 3.43903 11.1027 3.43903C11.1025 3.43903 11.1024 3.43903 11.1023 3.43903C11.1022 3.43903 11.102 3.43903 11.1019 3.43903C11.1018 3.43903 11.1016 3.43903 11.1015 3.43903C11.1014 3.43903 11.1013 3.43903 11.1011 3.43903C11.101 3.43903 11.1009 3.43903 11.1007 3.43903C11.1006 3.43903 11.1005 3.43903 11.1004 3.43903C11.1002 3.43903 11.1001 3.43903 11.1 3.43903C11.0998 3.43903 11.0997 3.43903 11.0996 3.43903C11.0994 3.43903 11.0993 3.43903 11.0992 3.43903C11.0991 3.43903 11.0989 3.43903 11.0988 3.43903C11.0987 3.43903 11.0985 3.43903 11.0984 3.43903C11.0983 3.43903 11.0982 3.43903 11.098 3.43903C11.0979 3.43903 11.0978 3.43903 11.0976 3.43903C11.0975 3.43903 11.0974 3.43903 11.0973 3.43903C11.0971 3.43903 11.097 3.43903 11.0969 3.43903C11.0967 3.43903 11.0966 3.43903 11.0965 3.43903C11.0963 3.43903 11.0962 3.43903 11.0961 3.43903C11.096 3.43903 11.0958 3.43903 11.0957 3.43903C11.0956 3.43903 11.0954 3.43903 11.0953 3.43903C11.0952 3.43903 11.0951 3.43903 11.0949 3.43903C11.0948 3.43903 11.0947 3.43903 11.0945 3.43903C11.0944 3.43903 11.0943 3.43903 11.0942 3.43903C11.094 3.43903 11.0939 3.43903 11.0938 3.43903C11.0936 3.43903 11.0935 3.43903 11.0934 3.43903C11.0933 3.43903 11.0931 3.43903 11.093 3.43903C11.0929 3.43903 11.0927 3.43903 11.0926 3.43903C11.0925 3.43903 11.0923 3.43903 11.0922 3.43903C11.0921 3.43903 11.092 3.43903 11.0918 3.43903C11.0917 3.43903 11.0916 3.43903 11.0914 3.43903C11.0913 3.43903 11.0912 3.43903 11.0911 3.43903C11.0909 3.43903 11.0908 3.43903 11.0907 3.43903C11.0905 3.43903 11.0904 3.43903 11.0903 3.43903C11.0902 3.43903 11.09 3.43903 11.0899 3.43903C11.0898 3.43903 11.0896 3.43903 11.0895 3.43903C11.0894 3.43903 11.0892 3.43903 11.0891 3.43903C11.089 3.43903 11.0889 3.43903 11.0887 3.43903C11.0886 3.43903 11.0885 3.43903 11.0883 3.43903C11.0882 3.43903 11.0881 3.43903 11.088 3.43903C11.0878 3.43903 11.0877 3.43903 11.0876 3.43903C11.0874 3.43903 11.0873 3.43903 11.0872 3.43903C11.0871 3.43903 11.0869 3.43903 11.0868 3.43903C11.0867 3.43903 11.0865 3.43903 11.0864 3.43903C11.0863 3.43903 11.0862 3.43903 11.086 3.43903C11.0859 3.43903 11.0858 3.43903 11.0856 3.43903C11.0855 3.43903 11.0854 3.43903 11.0852 3.43903C11.0851 3.43903 11.085 3.43903 11.0849 3.43903C11.0847 3.43903 11.0846 3.43903 11.0845 3.43903C11.0843 3.43903 11.0842 3.43903 11.0841 3.43903C11.084 3.43903 11.0838 3.43903 11.0837 3.43903C11.0836 3.43903 11.0834 3.43903 11.0833 3.43903C11.0832 3.43903 11.0831 3.43903 11.0829 3.43903C11.0828 3.43903 11.0827 3.43903 11.0825 3.43903C11.0824 3.43903 11.0823 3.43903 11.0822 3.43903C11.082 3.43903 11.0819 3.43903 11.0818 3.43903C11.0816 3.43903 11.0815 3.43903 11.0814 3.43903C11.0813 3.43903 11.0811 3.43903 11.081 3.43903C11.0809 3.43903 11.0807 3.43903 11.0806 3.43903C11.0805 3.43903 11.0803 3.43903 11.0802 3.43903C11.0801 3.43903 11.08 3.43903 11.0798 3.43903C11.0797 3.43903 11.0796 3.43903 11.0794 3.43903C11.0793 3.43903 11.0792 3.43903 11.0791 3.43903C11.0789 3.43903 11.0788 3.43903 11.0787 3.43903C11.0785 3.43903 11.0784 3.43903 11.0783 3.43903C11.0782 3.43903 11.078 3.43903 11.0779 3.43903C11.0778 3.43903 11.0776 3.43903 11.0775 3.43903C11.0774 3.43903 11.0773 3.43903 11.0771 3.43903C11.077 3.43903 11.0769 3.43903 11.0767 3.43903C11.0766 3.43903 11.0765 3.43903 11.0764 3.43903C11.0762 3.43903 11.0761 3.43903 11.076 3.43903C11.0758 3.43903 11.0757 3.43903 11.0756 3.43903C11.0754 3.43903 11.0753 3.43903 11.0752 3.43903C11.0751 3.43903 11.0749 3.43903 11.0748 3.43903C11.0747 3.43903 11.0745 3.43903 11.0744 3.43903C11.0743 3.43903 11.0742 3.43903 11.074 3.43903C11.0739 3.43903 11.0738 3.43903 11.0736 3.43903C11.0735 3.43903 11.0734 3.43903 11.0733 3.43903C11.0731 3.43903 11.073 3.43903 11.0729 3.43903C11.0727 3.43903 11.0726 3.43903 11.0725 3.43903C11.0724 3.43903 11.0722 3.43903 11.0721 3.43903C11.072 3.43903 11.0718 3.43903 11.0717 3.43903C11.0716 3.43903 11.0715 3.43903 11.0713 3.43903C11.0712 3.43903 11.0711 3.43903 11.0709 3.43903C11.0708 3.43903 11.0707 3.43903 11.0705 3.43903C11.0704 3.43903 11.0703 3.43903 11.0702 3.43903C11.07 3.43903 11.0699 3.43903 11.0698 3.43903C11.0696 3.43903 11.0695 3.43903 11.0694 3.43903C11.0693 3.43903 11.0691 3.43903 11.069 3.43903C11.0689 3.43903 11.0687 3.43903 11.0686 3.43903C11.0685 3.43903 11.0684 3.43903 11.0682 3.43903C11.0681 3.43903 11.068 3.43903 11.0678 3.43903C11.0677 3.43903 11.0676 3.43903 11.0675 3.43903C11.0673 3.43903 11.0672 3.43903 11.0671 3.43903C11.0669 3.43903 11.0668 3.43903 11.0667 3.43903C11.0666 3.43903 11.0664 3.43903 11.0663 3.43903C11.0662 3.43903 11.066 3.43903 11.0659 3.43903C11.0658 3.43903 11.0656 3.43903 11.0655 3.43903C11.0654 3.43903 11.0653 3.43903 11.0651 3.43903C11.065 3.43903 11.0649 3.43903 11.0647 3.43903C11.0646 3.43903 11.0645 3.43903 11.0644 3.43903C11.0642 3.43903 11.0641 3.43903 11.064 3.43903C11.0638 3.43903 11.0637 3.43903 11.0636 3.43903C11.0635 3.43903 11.0633 3.43903 11.0632 3.43903C11.0631 3.43903 11.0629 3.43903 11.0628 3.43903C11.0627 3.43903 11.0626 3.43903 11.0624 3.43903C11.0623 3.43903 11.0622 3.43903 11.062 3.43903C11.0619 3.43903 11.0618 3.43903 11.0617 3.43903C11.0615 3.43903 11.0614 3.43903 11.0613 3.43903C11.0611 3.43903 11.061 3.43903 11.0609 3.43903C11.0608 3.43903 11.0606 3.43903 11.0605 3.43903C11.0604 3.43903 11.0602 3.43903 11.0601 3.43903C11.06 3.43903 11.0598 3.43903 11.0597 3.43903C11.0596 3.43903 11.0595 3.43903 11.0593 3.43903C11.0592 3.43903 11.0591 3.43903 11.0589 3.43903C11.0588 3.43903 11.0587 3.43903 11.0586 3.43903C11.0584 3.43903 11.0583 3.43903 11.0582 3.43903C11.058 3.43903 11.0579 3.43903 11.0578 3.43903C11.0577 3.43903 11.0575 3.43903 11.0574 3.43903C11.0573 3.43903 11.0571 3.43903 11.057 3.43903C11.0569 3.43903 11.0568 3.43903 11.0566 3.43903C11.0565 3.43903 11.0564 3.43903 11.0562 3.43903C11.0561 3.43903 11.056 3.43903 11.0559 3.43903C11.0557 3.43903 11.0556 3.43903 11.0555 3.43903C11.0553 3.43903 11.0552 3.43903 11.0551 3.43903C11.055 3.43903 11.0548 3.43903 11.0547 3.43903C11.0546 3.43903 11.0544 3.43903 11.0543 3.43903C11.0542 3.43903 11.0541 3.43903 11.0539 3.43903C11.0538 3.43903 11.0537 3.43903 11.0535 3.43903C11.0534 3.43903 11.0533 3.43903 11.0531 3.43903C11.053 3.43903 11.0529 3.43903 11.0528 3.43903C11.0526 3.43903 11.0525 3.43903 11.0524 3.43903C11.0522 3.43903 11.0521 3.43903 11.052 3.43903C11.0519 3.43903 11.0517 3.43903 11.0516 3.43903C11.0515 3.43903 11.0513 3.43903 11.0512 3.43903C11.0511 3.43903 11.051 3.43903 11.0508 3.43903C11.0507 3.43903 11.0506 3.43903 11.0504 3.43903C11.0503 3.43903 11.0502 3.43903 11.0501 3.43903C11.0499 3.43903 11.0498 3.43903 11.0497 3.43903C11.0495 3.43903 11.0494 3.43903 11.0493 3.43903C11.0492 3.43903 11.049 3.43903 11.0489 3.43903C11.0488 3.43903 11.0486 3.43903 11.0485 3.43903C11.0484 3.43903 11.0483 3.43903 11.0481 3.43903C11.048 3.43903 11.0479 3.43903 11.0477 3.43903C11.0476 3.43903 11.0475 3.43903 11.0474 3.43903C11.0472 3.43903 11.0471 3.43903 11.047 3.43903C11.0468 3.43903 11.0467 3.43903 11.0466 3.43903C11.0465 3.43903 11.0463 3.43903 11.0462 3.43903C11.0461 3.43903 11.0459 3.43903 11.0458 3.43903C11.0457 3.43903 11.0455 3.43903 11.0454 3.43903C11.0453 3.43903 11.0452 3.43903 11.045 3.43903C11.0449 3.43903 11.0448 3.43903 11.0446 3.43903C11.0445 3.43903 11.0444 3.43903 11.0443 3.43903C11.0441 3.43903 11.044 3.43903 11.0439 3.43903C11.0437 3.43903 11.0436 3.43903 11.0435 3.43903C11.0434 3.43903 11.0432 3.43903 11.0431 3.43903C11.043 3.43903 11.0428 3.43903 11.0427 3.43903C11.0426 3.43903 11.0425 3.43903 11.0423 3.43903C11.0422 3.43903 11.0421 3.43903 11.0419 3.43903C11.0418 3.43903 11.0417 3.43903 11.0416 3.43903C11.0414 3.43903 11.0413 3.43903 11.0412 3.43903C11.041 3.43903 11.0409 3.43903 11.0408 3.43903C11.0407 3.43903 11.0405 3.43903 11.0404 3.43903C11.0403 3.43903 11.0401 3.43903 11.04 3.43903C11.0399 3.43903 11.0398 3.43903 11.0396 3.43903C11.0395 3.43903 11.0394 3.43903 11.0392 3.43903C11.0391 3.43903 11.039 3.43903 11.0389 3.43903C11.0387 3.43903 11.0386 3.43903 11.0385 3.43903C11.0383 3.43903 11.0382 3.43903 11.0381 3.43903C11.038 3.43903 11.0378 3.43903 11.0377 3.43903C11.0376 3.43903 11.0374 3.43903 11.0373 3.43903C11.0372 3.43903 11.0371 3.43903 11.0369 3.43903C11.0368 3.43903 11.0367 3.43903 11.0365 3.43903C11.0364 3.43903 11.0363 3.43903 11.0361 3.43903C11.036 3.43903 11.0359 3.43903 11.0358 3.43903C11.0356 3.43903 11.0355 3.43903 11.0354 3.43903C11.0352 3.43903 11.0351 3.43903 11.035 3.43903C11.0349 3.43903 11.0347 3.43903 11.0346 3.43903C11.0345 3.43903 11.0343 3.43903 11.0342 3.43903C11.0341 3.43903 11.034 3.43903 11.0338 3.43903C11.0337 3.43903 11.0336 3.43903 11.0334 3.43903C11.0333 3.43903 11.0332 3.43903 11.0331 3.43903C11.0329 3.43903 11.0328 3.43903 11.0327 3.43903C11.0325 3.43903 11.0324 3.43903 11.0323 3.43903C11.0322 3.43903 11.032 3.43903 11.0319 3.43903C11.0318 3.43903 11.0316 3.43903 11.0315 3.43903C11.0314 3.43903 11.0313 3.43903 11.0311 3.43903C11.031 3.43903 11.0309 3.43903 11.0307 3.43903C11.0306 3.43903 11.0305 3.43903 11.0304 3.43903C11.0302 3.43903 11.0301 3.43903 11.03 3.43903C11.0298 3.43903 11.0297 3.43903 11.0296 3.43903C11.0295 3.43903 11.0293 3.43903 11.0292 3.43903C11.0291 3.43903 11.0289 3.43903 11.0288 3.43903C11.0287 3.43903 11.0286 3.43903 11.0284 3.43903C11.0283 3.43903 11.0282 3.43903 11.028 3.43903C11.0279 3.43903 11.0278 3.43903 11.0277 3.43903C11.0275 3.43903 11.0274 3.43903 11.0273 3.43903C11.0271 3.43903 11.027 3.43903 11.0269 3.43903C11.0267 3.43903 11.0266 3.43903 11.0265 3.43903C11.0264 3.43903 11.0262 3.43903 11.0261 3.43903C11.026 3.43903 11.0258 3.43903 11.0257 3.43903C11.0256 3.43903 11.0255 3.43903 11.0253 3.43903C11.0252 3.43903 11.0251 3.43903 11.0249 3.43903C11.0248 3.43903 11.0247 3.43903 11.0246 3.43903C11.0244 3.43903 11.0243 3.43903 11.0242 3.43903C11.024 3.43903 11.0239 3.43903 11.0238 3.43903C11.0237 3.43903 11.0235 3.43903 11.0234 3.43903C11.0233 3.43903 11.0231 3.43903 11.023 3.43903C11.0229 3.43903 11.0228 3.43903 11.0226 3.43903C11.0225 3.43903 11.0224 3.43903 11.0222 3.43903C11.0221 3.43903 11.022 3.43903 11.0219 3.43903C11.0217 3.43903 11.0216 3.43903 11.0215 3.43903C11.0213 3.43903 11.0212 3.43903 11.0211 3.43903C11.021 3.43903 11.0208 3.43903 11.0207 3.43903C11.0206 3.43903 11.0204 3.43903 11.0203 3.43903C11.0202 3.43903 11.0201 3.43903 11.0199 3.43903C11.0198 3.43903 11.0197 3.43903 11.0195 3.43903C11.0194 3.43903 11.0193 3.43903 11.0192 3.43903C11.019 3.43903 11.0189 3.43903 11.0188 3.43903C11.0186 3.43903 11.0185 3.43903 11.0184 3.43903C11.0183 3.43903 11.0181 3.43903 11.018 3.43903C11.0179 3.43903 11.0177 3.43903 11.0176 3.43903C11.0175 3.43903 11.0174 3.43903 11.0172 3.43903C11.0171 3.43903 11.017 3.43903 11.0168 3.43903C11.0167 3.43903 11.0166 3.43903 11.0165 3.43903C11.0163 3.43903 11.0162 3.43903 11.0161 3.43903C11.0159 3.43903 11.0158 3.43903 11.0157 3.43903C11.0156 3.43903 11.0154 3.43903 11.0153 3.43903C11.0152 3.43903 11.015 3.43903 11.0149 3.43903C11.0148 3.43903 11.0146 3.43903 11.0145 3.43903C11.0144 3.43903 11.0143 3.43903 11.0141 3.43903C11.014 3.43903 11.0139 3.43903 11.0137 3.43903C11.0136 3.43903 11.0135 3.43903 11.0134 3.43903C11.0132 3.43903 11.0131 3.43903 11.013 3.43903C11.0128 3.43903 11.0127 3.43903 11.0126 3.43903C11.0125 3.43903 11.0123 3.43903 11.0122 3.43903C11.0121 3.43903 11.0119 3.43903 11.0118 3.43903C11.0117 3.43903 11.0116 3.43903 11.0114 3.43903C11.0113 3.43903 11.0112 3.43903 11.011 3.43903C11.0109 3.43903 11.0108 3.43903 11.0107 3.43903C11.0105 3.43903 11.0104 3.43903 11.0103 3.43903C11.0101 3.43903 11.01 3.43903 11.0099 3.43903C11.0098 3.43903 11.0096 3.43903 11.0095 3.43903C11.0094 3.43903 11.0092 3.43903 11.0091 3.43903C11.009 3.43903 11.0089 3.43903 11.0087 3.43903C11.0086 3.43903 11.0085 3.43903 11.0083 3.43903C11.0082 3.43903 11.0081 3.43903 11.008 3.43903C11.0078 3.43903 11.0077 3.43903 11.0076 3.43903C11.0074 3.43903 11.0073 3.43903 11.0072 3.43903C11.0071 3.43903 11.0069 3.43903 11.0068 3.43903C11.0067 3.43903 11.0065 3.43903 11.0064 3.43903C11.0063 3.43903 11.0062 3.43903 11.006 3.43903C11.0059 3.43903 11.0058 3.43903 11.0056 3.43903C11.0055 3.43903 11.0054 3.43903 11.0053 3.43903C11.0051 3.43903 11.005 3.43903 11.0049 3.43903C11.0047 3.43903 11.0046 3.43903 11.0045 3.43903C11.0044 3.43903 11.0042 3.43903 11.0041 3.43903C11.004 3.43903 11.0038 3.43903 11.0037 3.43903C11.0036 3.43903 11.0035 3.43903 11.0033 3.43903C11.0032 3.43903 11.0031 3.43903 11.0029 3.43903C11.0028 3.43903 11.0027 3.43903 11.0026 3.43903C11.0024 3.43903 11.0023 3.43903 11.0022 3.43903C11.002 3.43903 11.0019 3.43903 11.0018 3.43903C11.0016 3.43903 11.0015 3.43903 11.0014 3.43903C11.0013 3.43903 11.0011 3.43903 11.001 3.43903C11.0009 3.43903 11.0007 3.43903 11.0006 3.43903C11.0005 3.43903 11.0004 3.43903 11.0002 3.43903C11.0001 3.43903 11 3.43903 10.9998 3.43903C10.9997 3.43903 10.9996 3.43903 10.9995 3.43903C10.9993 3.43903 10.9992 3.43903 10.9991 3.43903C10.9989 3.43903 10.9988 3.43903 10.9987 3.43903C10.9986 3.43903 10.9984 3.43903 10.9983 3.43903C10.9982 3.43903 10.998 3.43903 10.9979 3.43903C10.9978 3.43903 10.9977 3.43903 10.9975 3.43903V3.83903ZM11.1917 3.83899C15.8074 3.93829 19.6554 7.80449 19.7623 12.4561L20.1622 12.4469C20.0505 7.58384 16.0324 3.54304 11.2004 3.43908L11.1917 3.83899ZM19.7623 12.4566C19.7955 13.7421 19.5468 15.0191 19.034 16.1966L19.4007 16.3563C19.9369 15.1252 20.1969 13.7901 20.1622 12.4463L19.7623 12.4566ZM19.2173 16.4765H19.2215V16.0765H19.2173V16.4765Z" fill="#999999" mask="url(#path-1-outside-1_572_2670)"/>
</svg>
