<svg width="33" height="34" viewBox="0 0 33 34" fill="none" xmlns="http://www.w3.org/2000/svg">
<g clip-path="url(#clip0_572_2479)">
<mask id="path-1-inside-1_572_2479" fill="white">
<path d="M20.4885 4.62027H15.2847L20.8405 2.46851C20.9378 2.4319 21.0271 2.37601 21.1031 2.30406C21.1791 2.23211 21.2403 2.14553 21.2833 2.04933C21.3263 1.95313 21.3501 1.84921 21.3534 1.74357C21.3567 1.63794 21.3394 1.53269 21.3025 1.4339C21.2657 1.3351 21.2099 1.24473 21.1386 1.16801C21.0672 1.09128 20.9817 1.02971 20.8868 0.986869C20.792 0.944026 20.6897 0.920758 20.586 0.918402C20.4823 0.916045 20.3791 0.934648 20.2825 0.973141L11.7962 4.26219V3.00068C11.7962 1.34722 10.469 0.00195312 8.83977 0.00195312H2.95836C1.32726 0.00195312 0.00195312 1.34722 0.00195312 3.00068V30.9887C0.00329661 31.7869 0.315208 32.5521 0.869352 33.1165C1.4235 33.681 2.17469 33.9987 2.95836 34.0001H20.4885C22.1117 34.0001 23.4324 32.6482 23.4324 30.9887V7.63358C23.4324 5.97212 22.1117 4.62027 20.4885 4.62027ZM14.5845 9.33975V11.0379H8.86287V9.33975H14.5845ZM7.29228 11.1842C7.29472 11.5716 7.44787 11.9421 7.71814 12.2146C7.98841 12.4871 8.35373 12.6392 8.73399 12.6377H14.7133C15.0936 12.6392 15.4589 12.4871 15.7292 12.2146C15.9995 11.9421 16.1526 11.5716 16.155 11.1842V9.33975H21.8618V15.3311H1.5707V9.33975H7.29228V11.1842ZM21.8618 16.9309V20.8279H1.5707V16.9309H21.8618ZM1.5707 22.4277H21.8618V26.3242H1.5707V22.4277ZM2.95651 1.5999H8.83422C9.19991 1.59889 9.55109 1.74555 9.81084 2.00775C10.0706 2.26995 10.2177 2.62632 10.22 2.9988V5.42018C10.22 5.4263 10.22 5.43194 10.22 5.43806C10.22 5.455 10.22 5.47147 10.2224 5.48841C10.2247 5.50535 10.2224 5.51099 10.2261 5.52229C10.2297 5.53358 10.2297 5.55052 10.2325 5.56464C10.2353 5.57875 10.2381 5.5924 10.2413 5.60604C10.2445 5.61969 10.2464 5.62816 10.2496 5.63945C10.2528 5.65074 10.2593 5.67145 10.2649 5.6865C10.2649 5.69215 10.2681 5.69827 10.2704 5.70391C10.2718 5.70811 10.2735 5.7122 10.2755 5.71615L10.288 5.74673L10.306 5.78437C10.3101 5.79237 10.3138 5.80084 10.3184 5.80837C10.3285 5.82763 10.3396 5.84632 10.3517 5.86437V5.86719C10.3651 5.88772 10.3796 5.90752 10.3951 5.92648L10.4007 5.93354C10.4139 5.94953 10.4278 5.96522 10.4422 5.98059L10.4529 5.99141C10.4667 6.0049 10.481 6.01807 10.4958 6.03093L10.5065 6.04035C10.5245 6.05494 10.5434 6.06952 10.5623 6.08269L10.5697 6.0874C10.5859 6.09822 10.6025 6.10857 10.6196 6.11798L10.6436 6.13116L10.6806 6.14904L10.7079 6.16127C10.7222 6.16739 10.737 6.17257 10.754 6.17774C10.7711 6.18292 10.7711 6.18386 10.7799 6.18621C10.7993 6.19233 10.8187 6.1975 10.8386 6.20174L10.8603 6.20598C10.8778 6.20927 10.8959 6.21209 10.9139 6.21445H10.931C10.9555 6.21445 10.9799 6.21821 11.0049 6.21821H20.4843C20.85 6.22057 21.1999 6.37046 21.4573 6.63504C21.7147 6.89962 21.8587 7.25732 21.8577 7.62982V7.73616H1.5707V2.9988C1.57302 2.62599 1.72042 2.26934 1.98057 2.00709C2.24071 1.74483 2.59236 1.5984 2.95836 1.5999H2.95651ZM20.4885 32.4003H2.95836C2.59112 32.3993 2.23921 32.2502 1.97953 31.9857C1.71985 31.7212 1.57352 31.3627 1.57255 30.9887V27.9259H21.8618V30.9887C21.8628 31.3611 21.7188 31.7188 21.4614 31.9834C21.204 32.248 20.8542 32.3979 20.4885 32.4003Z"/>
</mask>
<path d="M20.4885 4.62027H15.2847L20.8405 2.46851C20.9378 2.4319 21.0271 2.37601 21.1031 2.30406C21.1791 2.23211 21.2403 2.14553 21.2833 2.04933C21.3263 1.95313 21.3501 1.84921 21.3534 1.74357C21.3567 1.63794 21.3394 1.53269 21.3025 1.4339C21.2657 1.3351 21.2099 1.24473 21.1386 1.16801C21.0672 1.09128 20.9817 1.02971 20.8868 0.986869C20.792 0.944026 20.6897 0.920758 20.586 0.918402C20.4823 0.916045 20.3791 0.934648 20.2825 0.973141L11.7962 4.26219V3.00068C11.7962 1.34722 10.469 0.00195312 8.83977 0.00195312H2.95836C1.32726 0.00195312 0.00195312 1.34722 0.00195312 3.00068V30.9887C0.00329661 31.7869 0.315208 32.5521 0.869352 33.1165C1.4235 33.681 2.17469 33.9987 2.95836 34.0001H20.4885C22.1117 34.0001 23.4324 32.6482 23.4324 30.9887V7.63358C23.4324 5.97212 22.1117 4.62027 20.4885 4.62027ZM14.5845 9.33975V11.0379H8.86287V9.33975H14.5845ZM7.29228 11.1842C7.29472 11.5716 7.44787 11.9421 7.71814 12.2146C7.98841 12.4871 8.35373 12.6392 8.73399 12.6377H14.7133C15.0936 12.6392 15.4589 12.4871 15.7292 12.2146C15.9995 11.9421 16.1526 11.5716 16.155 11.1842V9.33975H21.8618V15.3311H1.5707V9.33975H7.29228V11.1842ZM21.8618 16.9309V20.8279H1.5707V16.9309H21.8618ZM1.5707 22.4277H21.8618V26.3242H1.5707V22.4277ZM2.95651 1.5999H8.83422C9.19991 1.59889 9.55109 1.74555 9.81084 2.00775C10.0706 2.26995 10.2177 2.62632 10.22 2.9988V5.42018C10.22 5.4263 10.22 5.43194 10.22 5.43806C10.22 5.455 10.22 5.47147 10.2224 5.48841C10.2247 5.50535 10.2224 5.51099 10.2261 5.52229C10.2297 5.53358 10.2297 5.55052 10.2325 5.56464C10.2353 5.57875 10.2381 5.5924 10.2413 5.60604C10.2445 5.61969 10.2464 5.62816 10.2496 5.63945C10.2528 5.65074 10.2593 5.67145 10.2649 5.6865C10.2649 5.69215 10.2681 5.69827 10.2704 5.70391C10.2718 5.70811 10.2735 5.7122 10.2755 5.71615L10.288 5.74673L10.306 5.78437C10.3101 5.79237 10.3138 5.80084 10.3184 5.80837C10.3285 5.82763 10.3396 5.84632 10.3517 5.86437V5.86719C10.3651 5.88772 10.3796 5.90752 10.3951 5.92648L10.4007 5.93354C10.4139 5.94953 10.4278 5.96522 10.4422 5.98059L10.4529 5.99141C10.4667 6.0049 10.481 6.01807 10.4958 6.03093L10.5065 6.04035C10.5245 6.05494 10.5434 6.06952 10.5623 6.08269L10.5697 6.0874C10.5859 6.09822 10.6025 6.10857 10.6196 6.11798L10.6436 6.13116L10.6806 6.14904L10.7079 6.16127C10.7222 6.16739 10.737 6.17257 10.754 6.17774C10.7711 6.18292 10.7711 6.18386 10.7799 6.18621C10.7993 6.19233 10.8187 6.1975 10.8386 6.20174L10.8603 6.20598C10.8778 6.20927 10.8959 6.21209 10.9139 6.21445H10.931C10.9555 6.21445 10.9799 6.21821 11.0049 6.21821H20.4843C20.85 6.22057 21.1999 6.37046 21.4573 6.63504C21.7147 6.89962 21.8587 7.25732 21.8577 7.62982V7.73616H1.5707V2.9988C1.57302 2.62599 1.72042 2.26934 1.98057 2.00709C2.24071 1.74483 2.59236 1.5984 2.95836 1.5999H2.95651ZM20.4885 32.4003H2.95836C2.59112 32.3993 2.23921 32.2502 1.97953 31.9857C1.71985 31.7212 1.57352 31.3627 1.57255 30.9887V27.9259H21.8618V30.9887C21.8628 31.3611 21.7188 31.7188 21.4614 31.9834C21.204 32.248 20.8542 32.3979 20.4885 32.4003Z" fill="#07364A" stroke="white" stroke-width="0.4" mask="url(#path-1-inside-1_572_2479)"/>
<path d="M31.0403 12.059L31.0403 12.059C31.1075 12.0282 31.1707 11.9806 31.2256 11.9175C31.2805 11.8544 31.3256 11.7773 31.3576 11.6903C31.3896 11.6033 31.4076 11.5087 31.41 11.4121C31.4125 11.3156 31.3995 11.2196 31.372 11.13C31.3444 11.0404 31.3032 10.9595 31.2513 10.8918C31.1995 10.824 31.1384 10.7712 31.0724 10.7349C31.0065 10.6988 30.9367 10.6797 30.8666 10.6778C30.7966 10.6759 30.7263 10.6911 30.6596 10.7234L30.6586 10.7239L30.6586 10.7239L24.4739 13.6315L24.4738 13.6315C24.355 13.6872 24.2507 13.7952 24.1836 13.9421C24.1165 14.0891 24.0926 14.2623 24.1174 14.4307C24.1422 14.5992 24.2136 14.748 24.3151 14.8529C24.4161 14.9573 24.5395 15.0108 24.6629 15.011H24.6656C24.7296 15.0107 24.7935 14.9962 24.8547 14.9675L31.0403 12.059ZM31.0403 12.059L31.0393 12.0594L24.8547 14.9675L31.0403 12.059Z" fill="#07364A" stroke="white" stroke-width="0.2"/>
<path d="M24.4786 21.9403L30.3597 19.1743L30.3549 19.1821L30.66 19.0344C30.7268 19.0021 30.797 18.9869 30.8669 18.9888C30.9369 18.9908 31.0068 19.0098 31.0726 19.046C31.1385 19.0822 31.1996 19.135 31.2514 19.2028C31.3032 19.2705 31.3445 19.3513 31.372 19.441C31.3995 19.5306 31.4125 19.6265 31.41 19.7231C31.4076 19.8197 31.3896 19.9142 31.3577 20.0013C31.3257 20.0883 31.2805 20.1653 31.2257 20.2285C31.1708 20.2915 31.1077 20.3392 31.0405 20.3699L31.0405 20.3699L31.0395 20.3703L24.8591 23.2758L24.8591 23.2758L24.8581 23.2763C24.7914 23.3086 24.7212 23.3238 24.6512 23.3218C24.5812 23.3199 24.5114 23.3008 24.4456 23.2647C24.3796 23.2285 24.3186 23.1756 24.2668 23.1079C24.2149 23.0402 24.1737 22.9593 24.1462 22.8697C24.1186 22.7801 24.1056 22.6841 24.1081 22.5876C24.1106 22.491 24.1285 22.3964 24.1605 22.3094C24.1925 22.2224 24.2376 22.1453 24.2925 22.0822C24.3473 22.0191 24.4105 21.9715 24.4777 21.9408L24.4777 21.9408L24.4786 21.9403Z" fill="#07364A" stroke="white" stroke-width="0.2"/>
<path d="M4.11047 4.53357H7.64899C7.77835 4.53268 7.90206 4.49628 7.99353 4.43218C8.08501 4.36809 8.13696 4.28142 8.13823 4.19078V3.3547C8.13725 3.31037 8.12382 3.26662 8.0987 3.22594C8.07358 3.18526 8.03726 3.14844 7.99183 3.11759C7.9464 3.08674 7.89274 3.06247 7.83391 3.04615C7.77509 3.02984 7.71225 3.0218 7.64899 3.0225H4.11047C4.04804 3.02204 3.98611 3.03032 3.92831 3.04686C3.87052 3.0634 3.81803 3.08785 3.77391 3.11879C3.72979 3.14974 3.69493 3.18654 3.67138 3.22705C3.64784 3.26756 3.63607 3.31096 3.63679 3.3547V4.19078C3.63573 4.23509 3.64714 4.27911 3.67038 4.32032C3.69362 4.36154 3.72822 4.39913 3.77221 4.43097C3.81621 4.46281 3.86872 4.48825 3.92676 4.50586C3.9848 4.52346 4.04723 4.53288 4.11047 4.53357Z" fill="#07364A"/>
<path d="M4.26543 6.75243C4.40755 6.75243 4.54648 6.70952 4.66464 6.62912C4.78281 6.54872 4.87491 6.43445 4.9293 6.30075C4.98369 6.16705 4.99791 6.01993 4.97018 5.878C4.94246 5.73607 4.87403 5.6057 4.77353 5.50337C4.67304 5.40104 4.54501 5.33135 4.40562 5.30312C4.26623 5.27489 4.12176 5.28938 3.99046 5.34476C3.85916 5.40014 3.74694 5.49392 3.66798 5.61424C3.58903 5.73457 3.54688 5.87603 3.54688 6.02075C3.54712 6.21472 3.62291 6.40068 3.75762 6.53785C3.89232 6.67501 4.07494 6.75218 4.26543 6.75243Z" fill="#07364A"/>
<path d="M7.54668 5.28906C7.40456 5.28906 7.26564 5.33198 7.14747 5.41238C7.0293 5.49278 6.93721 5.60705 6.88283 5.74075C6.82844 5.87444 6.81421 6.02156 6.84193 6.16349C6.86966 6.30543 6.93809 6.4358 7.03858 6.53813C7.13907 6.64045 7.26711 6.71014 7.4065 6.73837C7.54588 6.76661 7.69036 6.75212 7.82166 6.69674C7.95296 6.64136 8.06519 6.54758 8.14414 6.42725C8.2231 6.30693 8.26524 6.16546 8.26524 6.02075C8.26512 5.82673 8.18937 5.6407 8.05465 5.50351C7.91992 5.36632 7.73722 5.28919 7.54668 5.28906Z" fill="#07364A"/>
<path d="M8.97449 19.2656L9.10436 19.1905C9.10418 19.1902 9.104 19.1899 9.10382 19.1896C9.10364 19.1893 9.10345 19.189 9.10326 19.1887L8.97449 19.2656ZM14.3438 19.1901C14.3437 19.1902 14.3436 19.1904 14.3435 19.1905L14.4734 19.2656L14.344 19.1897C14.3439 19.1898 14.3439 19.19 14.3438 19.1901ZM14.3441 18.5539L14.4734 18.4779L14.3435 18.553C14.3436 18.5531 14.3437 18.5533 14.3438 18.5534C14.3439 18.5536 14.344 18.5537 14.3441 18.5539ZM9.10386 18.5538C9.10394 18.5537 9.10403 18.5535 9.10411 18.5534C9.10419 18.5532 9.10428 18.5531 9.10436 18.553L8.97449 18.4779L9.10386 18.5538Z" fill="#07364A" stroke="white" stroke-width="0.3"/>
<path d="M30.6585 24.324L30.6585 24.324L30.6595 24.3235C30.7263 24.2912 30.7965 24.276 30.8666 24.2779C30.9366 24.2798 31.0065 24.2989 31.0724 24.3351C31.1384 24.3713 31.1994 24.4242 31.2513 24.4919C31.3032 24.5596 31.3444 24.6405 31.372 24.7301C31.3995 24.8197 31.4125 24.9157 31.41 25.0123C31.4076 25.1088 31.3896 25.2034 31.3576 25.2904C31.3256 25.3774 31.2805 25.4545 31.2256 25.5176C31.1707 25.5807 31.1075 25.6284 31.0403 25.6591L31.0403 25.6591L31.0393 25.6595L24.854 28.5677L24.8965 28.6581L24.854 28.5677C24.7209 28.6302 24.5743 28.6252 24.4434 28.5524C24.311 28.4787 24.2017 28.3392 24.1462 28.1585C24.0907 27.9779 24.0956 27.7769 24.1594 27.6012C24.2232 27.4254 24.3384 27.295 24.4732 27.2316L30.6585 24.324Z" fill="#07364A" stroke="white" stroke-width="0.2"/>
<path d="M14.4758 23.9743C14.4066 23.8591 14.3089 23.7646 14.1925 23.7C14.076 23.6355 13.945 23.6034 13.8125 23.6068H9.62545C9.49478 23.6026 9.36543 23.6346 9.25116 23.6993C9.13688 23.764 9.04194 23.859 8.97643 23.9743C8.90746 24.0937 8.87109 24.2298 8.87109 24.3684C8.87109 24.5069 8.90746 24.643 8.97643 24.7624M14.4758 23.9743L14.3459 24.0492C14.3461 24.0496 14.3463 24.05 14.3465 24.0504M14.4758 23.9743L14.3472 24.0515C14.347 24.0512 14.3468 24.0508 14.3465 24.0504M14.4758 23.9743C14.5447 24.0938 14.581 24.2299 14.5809 24.3684C14.5808 24.507 14.5444 24.643 14.4753 24.7624M14.3465 24.0504C14.2908 23.9581 14.2126 23.8827 14.1198 23.8313C14.0266 23.7797 13.922 23.754 13.8163 23.7568L13.8125 23.7569V23.7568H9.62545H9.62068L9.62068 23.7567C9.51764 23.7534 9.4155 23.7786 9.32506 23.8298C9.2346 23.8811 9.15909 23.9565 9.10683 24.0484L9.10633 24.0493L9.10633 24.0493C9.05059 24.1458 9.02109 24.256 9.02109 24.3684C9.02109 24.4805 9.05049 24.5905 9.10604 24.6869M14.3465 24.0504C14.4018 24.1467 14.431 24.2564 14.4309 24.3683C14.4309 24.4805 14.4014 24.5905 14.3458 24.6869M9.10604 24.6869C9.10594 24.6868 9.10585 24.6866 9.10575 24.6864L8.97643 24.7624M9.10604 24.6869C9.10614 24.6871 9.10623 24.6873 9.10633 24.6874L8.97643 24.7624M9.10604 24.6869C9.16242 24.7827 9.24233 24.8613 9.33747 24.9151C9.43276 24.9691 9.54011 24.9964 9.64875 24.9945L9.65133 24.9945V24.9945H13.8005H13.8029L13.8029 24.9945C13.9116 24.9963 14.0189 24.969 14.1142 24.915C14.2094 24.8611 14.2893 24.7826 14.3458 24.6869M8.97643 24.7624C9.04605 24.8809 9.14509 24.9786 9.26357 25.0457C9.38205 25.1127 9.5158 25.1468 9.65133 25.1445H13.8005C13.936 25.1467 14.0697 25.1126 14.1881 25.0455C14.3066 24.9785 14.4057 24.8808 14.4753 24.7624M14.3458 24.6869C14.3457 24.687 14.3456 24.6872 14.3455 24.6874L14.4753 24.7624M14.3458 24.6869C14.3459 24.6867 14.346 24.6865 14.3461 24.6863L14.4753 24.7624" fill="#07364A" stroke="white" stroke-width="0.3"/>
<path d="M8.97643 30.2591L9.10633 30.1841C9.05059 30.0876 9.02109 29.9774 9.02109 29.8651C9.02109 29.7527 9.05059 29.6425 9.10633 29.546L9.10633 29.546L9.10686 29.5451C9.15908 29.4531 9.23458 29.3777 9.32503 29.3265C9.41546 29.2753 9.5176 29.2501 9.62062 29.2534L9.62062 29.2535H9.62545H13.8097V29.2536L13.815 29.2534C13.9208 29.2496 14.0258 29.2747 14.1191 29.3263C14.2123 29.3777 14.2906 29.4537 14.3459 29.5467C14.4013 29.6431 14.4307 29.753 14.4307 29.8651C14.4307 29.9774 14.4012 30.0875 14.3455 30.184C14.2197 30.4006 14.04 30.5058 13.8406 30.5058H9.59636C9.40105 30.5058 9.23744 30.4104 9.10621 30.1839L8.97643 30.2591ZM8.97643 30.2591C9.12887 30.5222 9.33721 30.6558 9.59636 30.6558H13.8406C14.1016 30.6558 14.3271 30.5146 14.4753 30.2591L9.62545 29.1035C9.49477 29.0993 9.3654 29.1312 9.25112 29.1959C9.13684 29.2607 9.04191 29.3557 8.97643 29.471C8.90746 29.5904 8.87109 29.7265 8.87109 29.8651C8.87109 30.0036 8.90746 30.1397 8.97643 30.2591Z" fill="#07364A" stroke="white" stroke-width="0.3"/>
</g>
<defs>
<clipPath id="clip0_572_2479">
<rect width="33" height="34" fill="white"/>
</clipPath>
</defs>
</svg>
