<svg width="37" height="36" viewBox="0 0 37 36" fill="none" xmlns="http://www.w3.org/2000/svg">
<path d="M34.6408 0.728435C34.379 0.467118 34.0239 0.320312 33.6536 0.320312C33.2834 0.320312 32.9283 0.467118 32.6665 0.728435L17.2872 16.0792C16.9996 16.0329 16.7051 16.0553 16.4279 16.1446C16.1507 16.2339 15.8987 16.3876 15.6925 16.5931L13.8378 18.4444C13.7727 18.5097 13.6909 18.5562 13.6013 18.5789C12.3397 18.8965 10.488 19.2849 8.82923 19.333C6.36137 19.4039 3.55598 18.0544 2.46404 17.4708C2.26184 17.3629 2.03611 17.3064 1.80682 17.3062C1.57752 17.306 1.35172 17.3623 1.14936 17.4699C0.946996 17.5775 0.774309 17.7332 0.646554 17.9233C0.518799 18.1133 0.43991 18.3319 0.416859 18.5596C0.209938 20.5772 0.496969 22.7343 1.2472 24.7966C2.02567 26.9341 3.26159 28.8766 4.86888 30.4887C5.19122 30.8108 5.53672 31.1231 5.90121 31.424C5.96472 31.5019 6.04321 31.5663 6.13205 31.6135C7.5557 32.7346 9.13903 33.6374 10.8297 34.292C12.4623 34.926 14.0345 35.2614 15.3098 35.2614C15.6663 35.2641 16.0223 35.2331 16.3729 35.1689C16.612 35.1229 16.8349 35.0154 17.0195 34.8569C17.2041 34.6984 17.344 34.4945 17.4254 34.2655C18.8787 30.1427 18.698 24.9111 18.4611 22.1598C18.4547 22.0854 18.4648 22.0106 18.4905 21.9405C18.5162 21.8705 18.557 21.8069 18.6099 21.7543L19.7357 20.6306C19.9072 20.4602 20.0432 20.2576 20.1358 20.0344C20.2284 19.8112 20.2758 19.5719 20.2752 19.3304C20.275 19.2322 20.2671 19.1341 20.2516 19.0371L35.6283 3.68892C35.8901 3.4276 36.0372 3.07317 36.0372 2.70361C36.0372 2.33405 35.8901 1.97962 35.6283 1.7183L34.6408 0.728435ZM17.537 20.6822C17.3274 20.8909 17.1662 21.1429 17.0647 21.4205C16.9631 21.6981 16.9237 21.9946 16.9493 22.289C17.1733 24.9038 17.3479 29.8471 16.0179 33.6928C15.1523 33.8387 13.9134 33.6875 12.5553 33.2824C13.9707 31.8135 14.8482 30.1984 15.2852 28.2801C15.3092 28.1823 15.3136 28.0808 15.2979 27.9813C15.2822 27.8819 15.2469 27.7866 15.1939 27.7009C15.1409 27.6153 15.0713 27.541 14.9893 27.4825C14.9072 27.4239 14.8143 27.3823 14.716 27.36C14.6177 27.3377 14.5158 27.3352 14.4165 27.3526C14.3172 27.37 14.2223 27.407 14.1375 27.4614C14.0526 27.5157 13.9795 27.5865 13.9223 27.6694C13.8651 27.7523 13.825 27.8458 13.8044 27.9443C13.3781 29.816 12.4972 31.3035 10.9698 32.7144C9.9578 32.2914 8.9895 31.771 8.07862 31.1606C8.68708 30.8579 9.26505 30.4976 9.8046 30.0847C10.7318 29.3836 11.5701 28.545 12.165 27.7237C12.2246 27.6432 12.2677 27.5516 12.2916 27.4543C12.3155 27.357 12.3199 27.256 12.3045 27.157C12.2891 27.058 12.2542 26.9631 12.2018 26.8777C12.1494 26.7922 12.0805 26.718 11.9992 26.6593C11.9179 26.6006 11.8257 26.5586 11.728 26.5357C11.6303 26.5127 11.5291 26.5094 11.43 26.5257C11.331 26.5421 11.2363 26.5779 11.1512 26.6311C11.0662 26.6842 10.9925 26.7537 10.9345 26.8354C10.0449 28.0637 8.30187 29.5568 6.67877 30.0968C6.4211 29.8763 6.17558 29.6496 5.94221 29.417C5.40952 28.8845 4.92116 28.3096 4.482 27.698C6.10015 27.6021 7.92865 26.9514 9.35469 25.9047C9.4362 25.8462 9.50527 25.7721 9.55791 25.6868C9.61055 25.6014 9.64571 25.5065 9.66136 25.4076C9.67701 25.3086 9.67284 25.2075 9.64909 25.1101C9.62533 25.0127 9.58247 24.921 9.52298 24.8403C9.46349 24.7596 9.38856 24.6914 9.30251 24.6398C9.21646 24.5882 9.12101 24.5541 9.02167 24.5395C8.92234 24.525 8.8211 24.5302 8.72381 24.5549C8.62652 24.5797 8.53511 24.6234 8.45487 24.6837C6.98782 25.7603 4.97139 26.3542 3.51915 26.1616C3.03555 25.2695 2.65022 24.3277 2.36989 23.3527C3.22003 23.5757 4.09505 23.6903 4.97405 23.6938C5.75199 23.6938 6.49615 23.596 7.16513 23.3975C7.26071 23.3691 7.34975 23.3222 7.42717 23.2594C7.50459 23.1967 7.56887 23.1193 7.61634 23.0318C7.66381 22.9443 7.69355 22.8483 7.70385 22.7492C7.71414 22.6502 7.7048 22.5502 7.67636 22.4548C7.64791 22.3594 7.60092 22.2705 7.53806 22.1932C7.47521 22.1159 7.39772 22.0518 7.31002 22.0044C7.22232 21.957 7.12613 21.9273 7.02694 21.9171C6.92775 21.9068 6.82751 21.9161 6.73193 21.9445C5.68403 22.2556 3.91894 22.3292 2.00085 21.6557C1.86238 20.7411 1.83104 19.8134 1.90745 18.8915C3.39348 19.6696 6.07092 20.8497 8.63408 20.8497C8.71267 20.8497 8.79164 20.8497 8.86985 20.8463C10.6653 20.7943 12.6339 20.3828 13.9692 20.0466C14.3245 19.9576 14.6491 19.7743 14.9085 19.5161L16.7632 17.6648C16.8237 17.6047 16.9056 17.5709 16.991 17.5709C17.0764 17.5709 17.1583 17.6047 17.2188 17.6648L18.6585 19.1019C18.7186 19.1623 18.7523 19.2441 18.7523 19.3293C18.7523 19.4144 18.7186 19.4962 18.6585 19.5566L17.537 20.6822ZM19.4251 17.7194L18.6084 16.9042L33.6536 1.88694L34.4703 2.70209L19.4251 17.7194Z" fill="#999999"/>
<path d="M9.47257 7.16928C10.0041 7.25909 10.1609 7.32086 10.1981 7.35876C10.2353 7.39666 10.2984 7.55165 10.388 8.08296C10.4179 8.25956 10.5095 8.41988 10.6465 8.53548C10.7836 8.65109 10.9572 8.71452 11.1367 8.71452C11.3161 8.71452 11.4897 8.65109 11.6268 8.53548C11.7639 8.41988 11.8555 8.25956 11.8854 8.08296C11.9754 7.55241 12.0372 7.3959 12.0752 7.35876C12.1132 7.32162 12.2685 7.25871 12.8008 7.16928C12.9777 7.13941 13.1383 7.04797 13.2541 6.91118C13.3699 6.77438 13.4335 6.60106 13.4335 6.42196C13.4335 6.24285 13.3699 6.06953 13.2541 5.93273C13.1383 5.79594 12.9777 5.7045 12.8008 5.67463C12.2692 5.58482 12.1124 5.52305 12.0752 5.48515C12.038 5.44725 11.975 5.29226 11.8854 4.76095C11.8555 4.58435 11.7639 4.42403 11.6268 4.30843C11.4897 4.19282 11.3161 4.12939 11.1367 4.12939C10.9572 4.12939 10.7836 4.19282 10.6465 4.30843C10.5095 4.42403 10.4179 4.58435 10.388 4.76095C10.298 5.2915 10.2361 5.44801 10.1981 5.48515C10.1602 5.52229 10.0049 5.5852 9.47257 5.67463C9.29564 5.7045 9.13503 5.79594 9.01921 5.93273C8.90339 6.06953 8.83984 6.24285 8.83984 6.42196C8.83984 6.60106 8.90339 6.77438 9.01921 6.91118C9.13503 7.04797 9.29564 7.13941 9.47257 7.16928Z" fill="#999999"/>
<path d="M27.3369 25.3045C27.299 25.2666 27.2367 25.1116 27.1471 24.5803C27.1172 24.4037 27.0256 24.2434 26.8885 24.1278C26.7515 24.0122 26.5778 23.9487 26.3984 23.9487C26.2189 23.9487 26.0453 24.0122 25.9083 24.1278C25.7712 24.2434 25.6796 24.4037 25.6497 24.5803C25.5597 25.1108 25.4978 25.2673 25.4598 25.3045C25.4219 25.3416 25.2666 25.4045 24.7343 25.494C24.5574 25.5238 24.3967 25.6153 24.2809 25.7521C24.1651 25.8889 24.1016 26.0622 24.1016 26.2413C24.1016 26.4204 24.1651 26.5937 24.2809 26.7305C24.3967 26.8673 24.5574 26.9587 24.7343 26.9886C25.2658 27.0784 25.4226 27.1402 25.4598 27.1781C25.497 27.216 25.5601 27.371 25.6497 27.9023C25.6796 28.0789 25.7712 28.2392 25.9083 28.3548C26.0453 28.4704 26.2189 28.5339 26.3984 28.5339C26.5778 28.5339 26.7515 28.4704 26.8885 28.3548C27.0256 28.2392 27.1172 28.0789 27.1471 27.9023C27.2371 27.3717 27.299 27.2152 27.3369 27.1781C27.3749 27.141 27.5302 27.078 28.0625 26.9886C28.2394 26.9587 28.4 26.8673 28.5158 26.7305C28.6317 26.5937 28.6952 26.4204 28.6952 26.2413C28.6952 26.0622 28.6317 25.8889 28.5158 25.7521C28.4 25.6153 28.2394 25.5238 28.0625 25.494C27.5302 25.4045 27.3741 25.3412 27.3369 25.3045Z" fill="#999999"/>
<path d="M5.72424 13.2891C6.23856 13.2891 6.6555 12.8731 6.6555 12.3599C6.6555 11.8467 6.23856 11.4307 5.72424 11.4307C5.20991 11.4307 4.79297 11.8467 4.79297 12.3599C4.79297 12.8731 5.20991 13.2891 5.72424 13.2891Z" fill="#999999"/>
<path d="M29.0565 18.5481C29.476 18.5481 29.8161 18.2088 29.8161 17.7902C29.8161 17.3716 29.476 17.0322 29.0565 17.0322C28.637 17.0322 28.2969 17.3716 28.2969 17.7902C28.2969 18.2088 28.637 18.5481 29.0565 18.5481Z" fill="#999999"/>
</svg>
