<svg width="16" height="20" viewBox="0 0 16 20" fill="none" xmlns="http://www.w3.org/2000/svg">
<path d="M1.25 3.521L2.56066 4.78505" stroke="#555555" stroke-linecap="round" stroke-linejoin="round"/>
<path d="M8.07812 1V2.78737" stroke="#555555" stroke-linecap="round" stroke-linejoin="round"/>
<path d="M14.7466 3.87061L13.4375 5.13466" stroke="#555555" stroke-linecap="round" stroke-linejoin="round"/>
<path d="M13.5971 9.78884C13.5974 8.78687 13.3176 7.80335 12.7871 6.9418C12.2567 6.08026 11.4953 5.37255 10.583 4.89317C9.67069 4.41378 8.64128 4.18045 7.60308 4.21773C6.56488 4.255 5.5563 4.56151 4.6835 5.10499C3.81069 5.64847 3.10593 6.40882 2.6434 7.30602C2.18086 8.20321 1.97766 9.20407 2.05517 10.2033C2.13269 11.2024 2.48805 12.163 3.08387 12.9838C3.67968 13.8047 4.49391 14.4554 5.44086 14.8676L5.57146 16.9668C5.6082 17.5174 5.86088 18.0338 6.27816 18.4112C6.69544 18.7886 7.24604 18.9986 7.81808 18.9986V18.9986C8.39013 18.9986 8.94071 18.7886 9.35799 18.4112C9.77528 18.0338 10.028 17.5174 10.0647 16.9668L10.1953 14.8676C11.209 14.4266 12.0691 13.7128 12.6726 12.8119C13.276 11.911 13.597 10.8613 13.5971 9.78884V9.78884Z" stroke="#555555" stroke-linecap="round" stroke-linejoin="round"/>
<path d="M5.55078 16.6694H10.0829" stroke="#555555" stroke-linecap="round" stroke-linejoin="round"/>
</svg>
