<svg width="14" height="18" viewBox="0 0 14 18" fill="none" xmlns="http://www.w3.org/2000/svg">
<path d="M3.49188 16.6539H11.8793C11.9824 16.6557 12.0849 16.6371 12.1806 16.5992C12.2764 16.5612 12.3636 16.5047 12.4372 16.4328C12.5107 16.361 12.5691 16.2753 12.609 16.1807C12.6489 16.0861 12.6694 15.9846 12.6694 15.8821V4.86589L8.59397 1H1.77262C1.67116 1 1.57069 1.01988 1.47695 1.05849C1.38321 1.0971 1.29804 1.1537 1.2263 1.22504C1.15455 1.29639 1.09764 1.38109 1.05881 1.47431C1.01998 1.56753 1 1.66743 1 1.76833V8.90137V16.6504L3.49188 16.6539Z" stroke="#555555" stroke-linecap="round" stroke-linejoin="round"/>
<path d="M12.5536 4.93822H8.52344V1.02734" stroke="#555555" stroke-linecap="round" stroke-linejoin="round"/>
<path d="M3.64453 6.76172H10.0065" stroke="#555555" stroke-linecap="round" stroke-linejoin="round"/>
<path d="M3.64453 9.66797H10.0065" stroke="#555555" stroke-linecap="round" stroke-linejoin="round"/>
<path d="M3.64453 12.5723H10.0065" stroke="#555555" stroke-linecap="round" stroke-linejoin="round"/>
</svg>
