<svg width="41" height="28" viewBox="0 0 41 28" fill="none" xmlns="http://www.w3.org/2000/svg">
<path d="M4.12891 10.9177V3.72656C4.12891 2.62199 5.02434 1.72656 6.12891 1.72656H24.6814C25.7859 1.72656 26.6814 2.62199 26.6814 3.72656V19.7799C26.6814 20.8845 25.7859 21.7799 24.6814 21.7799H20.8344" stroke="#07364A" stroke-width="1.5" stroke-miterlimit="10"/>
<path d="M17.1619 12.5894H3.62109C2.51652 12.5894 1.62109 13.4848 1.62109 14.5894V24.7938C1.62109 25.8984 2.51653 26.7938 3.62109 26.7938H17.1619C18.2665 26.7938 19.1619 25.8984 19.1619 24.7938V14.5894C19.1619 13.4848 18.2665 12.5894 17.1619 12.5894Z" stroke="#07364A" stroke-width="1.5" stroke-miterlimit="10"/>
<path d="M13.3157 12.5894H7.46875V15.9316H13.3157V12.5894Z" stroke="#07364A" stroke-width="1.5" stroke-miterlimit="10"/>
<path d="M4.12891 23.4507H5.80002" stroke="#07364A" stroke-width="1.5" stroke-miterlimit="10"/>
<path d="M7.46875 23.4507H9.13986" stroke="#07364A" stroke-width="1.5" stroke-miterlimit="10"/>
<path d="M26.6836 6.74025H33.3157C33.5886 6.73892 33.8576 6.80447 34.0994 6.93119C34.3411 7.05791 34.5481 7.24194 34.7022 7.46718L37.5422 12.5892H38.3775C38.6124 12.5879 38.845 12.6361 39.06 12.7309C39.275 12.8256 39.4677 12.9647 39.6253 13.1389C39.783 13.3132 39.9021 13.5188 39.975 13.7422C40.0478 13.9657 40.0727 14.202 40.048 14.4357V20.1092C40.048 20.5524 39.872 20.9774 39.5587 21.2908C39.2454 21.6042 38.8205 21.7803 38.3775 21.7803H36.7069" stroke="#07364A" stroke-width="1.5" stroke-miterlimit="10" stroke-linecap="round"/>
<path d="M36.7037 22.6147C36.7037 23.2757 36.5077 23.9219 36.1406 24.4715C35.7735 25.0212 35.2517 25.4495 34.6412 25.7025C34.0307 25.9555 33.3589 26.0217 32.7108 25.8927C32.0627 25.7637 31.4673 25.4454 31.0001 24.978C30.5328 24.5106 30.2146 23.9151 30.0857 23.2667C29.9568 22.6184 30.0229 21.9464 30.2758 21.3357C30.5287 20.725 30.9569 20.203 31.5064 19.8357C32.0558 19.4685 32.7018 19.2725 33.3626 19.2725C34.2487 19.2725 35.0985 19.6246 35.7251 20.2514C36.3517 20.8782 36.7037 21.7283 36.7037 22.6147Z" stroke="#07364A" stroke-width="1.5" stroke-miterlimit="10"/>
<path d="M26.6836 21.7793H30.0247" stroke="#07364A" stroke-width="1.5" stroke-miterlimit="10" stroke-linecap="round"/>
<path d="M29.1875 13.4247H34.1992V12.5892L32.7673 10.0825" stroke="#07364A" stroke-width="1.5" stroke-miterlimit="10" stroke-linecap="round"/>
</svg>
