<svg width="45" height="34" viewBox="0 0 45 34" fill="none" xmlns="http://www.w3.org/2000/svg">
<mask id="path-1-outside-1_563_2498" maskUnits="userSpaceOnUse" x="0" y="0" width="45" height="34" fill="black">
<rect fill="white" width="45" height="34"/>
<path d="M1.53336 33.2499H43.4666C43.6081 33.2499 43.7438 33.1941 43.8438 33.0948C43.9438 32.9955 44 32.8609 44 32.7204C44 32.58 43.9438 32.4453 43.8438 32.3461C43.7438 32.2468 43.6081 32.191 43.4666 32.191H1.53336C1.3919 32.191 1.25624 32.2468 1.15622 32.3461C1.05619 32.4453 1 32.58 1 32.7204C1 32.8609 1.05619 32.9955 1.15622 33.0948C1.25624 33.1941 1.3919 33.2499 1.53336 33.2499Z"/>
<path d="M9.02265 30.7303C9.16396 30.7303 9.2995 30.6747 9.3995 30.5755C9.4995 30.4764 9.55579 30.3419 9.556 30.2017V5.55157L24.7993 2.18821V30.2017C24.7993 30.3421 24.8555 30.4768 24.9555 30.5761C25.0555 30.6753 25.1912 30.7311 25.3327 30.7311C25.4741 30.7311 25.6098 30.6753 25.7098 30.5761C25.8098 30.4768 25.866 30.3421 25.866 30.2017V2.30887L30.962 4.31561V15.9774C30.9593 16.0486 30.971 16.1197 30.9965 16.1863C31.0221 16.2529 31.0609 16.3137 31.1106 16.365C31.1604 16.4164 31.2201 16.4572 31.2861 16.4851C31.3522 16.513 31.4232 16.5274 31.495 16.5274C31.5668 16.5274 31.6378 16.513 31.7039 16.4851C31.7699 16.4572 31.8296 16.4164 31.8794 16.365C31.9291 16.3137 31.9679 16.2529 31.9935 16.1863C32.019 16.1197 32.0307 16.0486 32.028 15.9774V3.95602C32.0278 3.84997 31.9957 3.74639 31.9357 3.65866C31.8757 3.57092 31.7906 3.50307 31.6913 3.46386L25.5294 1.03719C25.43 0.998208 25.3211 0.989639 25.2167 1.01258L8.9043 4.6117C8.78597 4.63771 8.68011 4.70302 8.60422 4.79684C8.52833 4.89065 8.48694 5.00735 8.4869 5.12767V30.2017C8.487 30.2713 8.50095 30.3403 8.52796 30.4046C8.55496 30.4689 8.59448 30.5273 8.64425 30.5764C8.69402 30.6255 8.75306 30.6644 8.818 30.6908C8.88293 30.7172 8.95247 30.7306 9.02265 30.7303Z"/>
<path d="M22.9579 6.11757C22.9292 5.98012 22.8467 5.85958 22.7286 5.78248C22.6104 5.70537 22.4663 5.678 22.3278 5.70638L11.5376 7.92269C11.4084 7.94938 11.2938 8.02265 11.2159 8.12834C11.138 8.23402 11.1023 8.36462 11.1157 8.49491C11.1291 8.6252 11.1907 8.74593 11.2886 8.83378C11.3864 8.92161 11.5136 8.97033 11.6455 8.97052C11.6821 8.97031 11.7185 8.96659 11.7543 8.9594L22.5445 6.7423C22.6827 6.71384 22.8039 6.63205 22.8815 6.5149C22.959 6.39775 22.9865 6.25483 22.9579 6.11757Z"/>
<path d="M22.9594 10.1678C22.947 10.0994 22.9211 10.034 22.8832 9.97554C22.8453 9.91704 22.7962 9.86651 22.7386 9.82685C22.6811 9.7872 22.6162 9.75918 22.5478 9.74441C22.4793 9.72963 22.4086 9.7284 22.3397 9.74076L11.5495 11.6689C11.418 11.6918 11.3 11.7628 11.2188 11.868C11.1376 11.9731 11.0991 12.1047 11.111 12.2367C11.1228 12.3686 11.1842 12.4914 11.2829 12.5806C11.3816 12.6698 11.5104 12.7189 11.6439 12.7183C11.6757 12.7184 11.7076 12.7158 11.739 12.7104L22.5292 10.7822C22.6683 10.7573 22.7917 10.6786 22.8723 10.5634C22.953 10.4482 22.9843 10.3059 22.9594 10.1678Z"/>
<path d="M22.9637 14.3685C22.9438 14.2295 22.8693 14.104 22.7565 14.0195C22.6436 13.935 22.5016 13.8984 22.3615 13.9176L11.5714 15.4131C11.4383 15.4324 11.3175 15.5009 11.2331 15.6048C11.1487 15.7088 11.107 15.8405 11.1163 15.9737C11.1256 16.1069 11.1852 16.2316 11.2832 16.323C11.3813 16.4144 11.5105 16.4657 11.6449 16.4665C11.6698 16.4665 11.6946 16.4649 11.7193 16.4618L22.5095 14.9662C22.6495 14.9467 22.7761 14.8728 22.8613 14.7607C22.9464 14.6486 22.9833 14.5075 22.9637 14.3685Z"/>
<path d="M11.646 20.2151C11.665 20.2163 11.6839 20.2163 11.7028 20.2151L22.493 19.08C22.6306 19.0616 22.7556 18.9906 22.8413 18.8822C22.9271 18.7737 22.9668 18.6364 22.9521 18.4993C22.9374 18.3622 22.8695 18.2362 22.7627 18.1481C22.6559 18.06 22.5187 18.0167 22.3803 18.0274L11.5901 19.1625C11.4547 19.1773 11.3301 19.2429 11.2419 19.346C11.1537 19.449 11.1086 19.5816 11.1157 19.7167C11.1229 19.8517 11.1818 19.9789 11.2804 20.0721C11.379 20.1654 11.5098 20.2177 11.646 20.2183V20.2151Z"/>
<path d="M11.6459 23.9634H11.6851L22.4753 23.1879C22.6143 23.1748 22.7427 23.1081 22.8327 23.0022C22.9228 22.8962 22.9674 22.7593 22.9569 22.6211C22.9465 22.4828 22.8818 22.3541 22.7767 22.2627C22.6717 22.1713 22.5348 22.1244 22.3953 22.1321L11.6051 22.9077C11.4679 22.9182 11.3401 22.981 11.2484 23.083C11.1568 23.1849 11.1083 23.3181 11.1133 23.4546C11.1183 23.5912 11.1762 23.7205 11.275 23.8157C11.3738 23.9108 11.5059 23.9643 11.6435 23.965L11.6459 23.9634Z"/>
<path d="M11.6482 27.3872L22.4384 27.3682C22.5761 27.3629 22.7065 27.3048 22.8021 27.2062C22.8977 27.1075 22.9511 26.976 22.9511 26.8391C22.9511 26.7022 22.8977 26.5707 22.8021 26.472C22.7065 26.3734 22.5761 26.3153 22.4384 26.31L11.6482 26.3291C11.5104 26.3344 11.3801 26.3924 11.2845 26.4911C11.1889 26.5897 11.1355 26.7213 11.1355 26.8582C11.1355 26.995 11.1889 27.1266 11.2845 27.2252C11.3801 27.3239 11.5104 27.3819 11.6482 27.3872Z"/>
<path d="M28.215 25.0895C28.2164 25.8608 28.4932 26.6066 28.9962 27.1944C29.4993 27.7822 30.196 28.1738 30.9626 28.2997V30.2048C30.9679 30.3416 31.0264 30.471 31.1257 30.5659C31.2251 30.6608 31.3576 30.7138 31.4955 30.7138C31.6334 30.7138 31.7659 30.6608 31.8653 30.5659C31.9646 30.471 32.0231 30.3416 32.0285 30.2048V28.2997C32.7951 28.174 33.4921 27.7824 33.9953 27.1946C34.4985 26.6068 34.7754 25.8609 34.7768 25.0895C34.7768 22.9566 33.6573 17.9572 31.4983 17.9572C29.3393 17.9572 28.215 22.9566 28.215 25.0895ZM33.7101 25.0895C33.7157 25.3817 33.6625 25.6721 33.5537 25.9437C33.445 26.2153 33.2827 26.4627 33.0765 26.6713C32.8703 26.8799 32.6243 27.0456 32.3529 27.1587C32.0814 27.2719 31.7899 27.3301 31.4955 27.3301C31.2011 27.3301 30.9096 27.2719 30.6382 27.1587C30.3667 27.0456 30.1207 26.8799 29.9145 26.6713C29.7083 26.4627 29.5461 26.2153 29.4373 25.9437C29.3285 25.6721 29.2754 25.3817 29.2809 25.0895C29.2809 22.535 30.5603 19.0153 31.4959 19.0153C32.4315 19.0153 33.7101 22.539 33.7101 25.0895Z"/>
<path d="M35.1909 28.1607C35.4907 28.285 35.8054 28.3701 36.1273 28.4139V30.2016C36.1326 30.3383 36.1911 30.4677 36.2905 30.5626C36.3898 30.6575 36.5224 30.7105 36.6602 30.7105C36.7981 30.7105 36.9306 30.6575 37.03 30.5626C37.1294 30.4677 37.1878 30.3383 37.1932 30.2016V28.4131C37.7073 28.3408 38.2009 28.164 38.6431 27.8938C39.0853 27.6235 39.4665 27.2656 39.763 26.8424C40.0595 26.4192 40.2649 25.9398 40.3662 25.4343C40.4676 24.9287 40.4629 24.4078 40.3522 23.9042C40.2416 23.4005 40.0275 22.925 39.7233 22.5072C39.4191 22.0894 39.0314 21.7384 38.5844 21.4762C38.1373 21.2139 37.6406 21.0461 37.1252 20.9831C36.6098 20.9201 36.0869 20.9633 35.5891 21.1101C35.4563 21.1522 35.3453 21.2443 35.28 21.3666C35.2147 21.4889 35.2003 21.6318 35.2398 21.7645C35.2794 21.8973 35.3697 22.0094 35.4915 22.0769C35.6133 22.1443 35.7568 22.1617 35.8914 22.1254C36.3078 22.0039 36.7474 21.9835 37.1734 22.0658C37.5994 22.1481 37.9992 22.3308 38.3393 22.5985C38.6793 22.8662 38.9496 23.211 39.1275 23.604C39.3053 23.997 39.3854 24.4267 39.3612 24.8568C39.3369 25.287 39.209 25.705 38.988 26.0759C38.7671 26.4467 38.4597 26.7594 38.0917 26.9877C37.7237 27.2161 37.3058 27.3533 36.8732 27.3879C36.4407 27.4225 36.006 27.3535 35.6059 27.1867C35.541 27.1567 35.4706 27.14 35.399 27.1376C35.3274 27.1352 35.2561 27.1472 35.1893 27.1728C35.1225 27.1983 35.0615 27.237 35.01 27.2865C34.9586 27.3359 34.9177 27.3952 34.8898 27.4607C34.8619 27.5262 34.8476 27.5966 34.8478 27.6677C34.8479 27.7388 34.8624 27.8091 34.8905 27.8745C34.9186 27.9399 34.9597 27.999 35.0113 28.0483C35.0629 28.0976 35.124 28.1353 35.1909 28.1607Z"/>
</mask>
<path d="M1.53336 33.2499H43.4666C43.6081 33.2499 43.7438 33.1941 43.8438 33.0948C43.9438 32.9955 44 32.8609 44 32.7204C44 32.58 43.9438 32.4453 43.8438 32.3461C43.7438 32.2468 43.6081 32.191 43.4666 32.191H1.53336C1.3919 32.191 1.25624 32.2468 1.15622 32.3461C1.05619 32.4453 1 32.58 1 32.7204C1 32.8609 1.05619 32.9955 1.15622 33.0948C1.25624 33.1941 1.3919 33.2499 1.53336 33.2499Z" fill="#999999"/>
<path d="M9.02265 30.7303C9.16396 30.7303 9.2995 30.6747 9.3995 30.5755C9.4995 30.4764 9.55579 30.3419 9.556 30.2017V5.55157L24.7993 2.18821V30.2017C24.7993 30.3421 24.8555 30.4768 24.9555 30.5761C25.0555 30.6753 25.1912 30.7311 25.3327 30.7311C25.4741 30.7311 25.6098 30.6753 25.7098 30.5761C25.8098 30.4768 25.866 30.3421 25.866 30.2017V2.30887L30.962 4.31561V15.9774C30.9593 16.0486 30.971 16.1197 30.9965 16.1863C31.0221 16.2529 31.0609 16.3137 31.1106 16.365C31.1604 16.4164 31.2201 16.4572 31.2861 16.4851C31.3522 16.513 31.4232 16.5274 31.495 16.5274C31.5668 16.5274 31.6378 16.513 31.7039 16.4851C31.7699 16.4572 31.8296 16.4164 31.8794 16.365C31.9291 16.3137 31.9679 16.2529 31.9935 16.1863C32.019 16.1197 32.0307 16.0486 32.028 15.9774V3.95602C32.0278 3.84997 31.9957 3.74639 31.9357 3.65866C31.8757 3.57092 31.7906 3.50307 31.6913 3.46386L25.5294 1.03719C25.43 0.998208 25.3211 0.989639 25.2167 1.01258L8.9043 4.6117C8.78597 4.63771 8.68011 4.70302 8.60422 4.79684C8.52833 4.89065 8.48694 5.00735 8.4869 5.12767V30.2017C8.487 30.2713 8.50095 30.3403 8.52796 30.4046C8.55496 30.4689 8.59448 30.5273 8.64425 30.5764C8.69402 30.6255 8.75306 30.6644 8.818 30.6908C8.88293 30.7172 8.95247 30.7306 9.02265 30.7303Z" fill="#999999"/>
<path d="M22.9579 6.11757C22.9292 5.98012 22.8467 5.85958 22.7286 5.78248C22.6104 5.70537 22.4663 5.678 22.3278 5.70638L11.5376 7.92269C11.4084 7.94938 11.2938 8.02265 11.2159 8.12834C11.138 8.23402 11.1023 8.36462 11.1157 8.49491C11.1291 8.6252 11.1907 8.74593 11.2886 8.83378C11.3864 8.92161 11.5136 8.97033 11.6455 8.97052C11.6821 8.97031 11.7185 8.96659 11.7543 8.9594L22.5445 6.7423C22.6827 6.71384 22.8039 6.63205 22.8815 6.5149C22.959 6.39775 22.9865 6.25483 22.9579 6.11757Z" fill="#999999"/>
<path d="M22.9594 10.1678C22.947 10.0994 22.9211 10.034 22.8832 9.97554C22.8453 9.91704 22.7962 9.86651 22.7386 9.82685C22.6811 9.7872 22.6162 9.75918 22.5478 9.74441C22.4793 9.72963 22.4086 9.7284 22.3397 9.74076L11.5495 11.6689C11.418 11.6918 11.3 11.7628 11.2188 11.868C11.1376 11.9731 11.0991 12.1047 11.111 12.2367C11.1228 12.3686 11.1842 12.4914 11.2829 12.5806C11.3816 12.6698 11.5104 12.7189 11.6439 12.7183C11.6757 12.7184 11.7076 12.7158 11.739 12.7104L22.5292 10.7822C22.6683 10.7573 22.7917 10.6786 22.8723 10.5634C22.953 10.4482 22.9843 10.3059 22.9594 10.1678Z" fill="#999999"/>
<path d="M22.9637 14.3685C22.9438 14.2295 22.8693 14.104 22.7565 14.0195C22.6436 13.935 22.5016 13.8984 22.3615 13.9176L11.5714 15.4131C11.4383 15.4324 11.3175 15.5009 11.2331 15.6048C11.1487 15.7088 11.107 15.8405 11.1163 15.9737C11.1256 16.1069 11.1852 16.2316 11.2832 16.323C11.3813 16.4144 11.5105 16.4657 11.6449 16.4665C11.6698 16.4665 11.6946 16.4649 11.7193 16.4618L22.5095 14.9662C22.6495 14.9467 22.7761 14.8728 22.8613 14.7607C22.9464 14.6486 22.9833 14.5075 22.9637 14.3685Z" fill="#999999"/>
<path d="M11.646 20.2151C11.665 20.2163 11.6839 20.2163 11.7028 20.2151L22.493 19.08C22.6306 19.0616 22.7556 18.9906 22.8413 18.8822C22.9271 18.7737 22.9668 18.6364 22.9521 18.4993C22.9374 18.3622 22.8695 18.2362 22.7627 18.1481C22.6559 18.06 22.5187 18.0167 22.3803 18.0274L11.5901 19.1625C11.4547 19.1773 11.3301 19.2429 11.2419 19.346C11.1537 19.449 11.1086 19.5816 11.1157 19.7167C11.1229 19.8517 11.1818 19.9789 11.2804 20.0721C11.379 20.1654 11.5098 20.2177 11.646 20.2183V20.2151Z" fill="#999999"/>
<path d="M11.6459 23.9634H11.6851L22.4753 23.1879C22.6143 23.1748 22.7427 23.1081 22.8327 23.0022C22.9228 22.8962 22.9674 22.7593 22.9569 22.6211C22.9465 22.4828 22.8818 22.3541 22.7767 22.2627C22.6717 22.1713 22.5348 22.1244 22.3953 22.1321L11.6051 22.9077C11.4679 22.9182 11.3401 22.981 11.2484 23.083C11.1568 23.1849 11.1083 23.3181 11.1133 23.4546C11.1183 23.5912 11.1762 23.7205 11.275 23.8157C11.3738 23.9108 11.5059 23.9643 11.6435 23.965L11.6459 23.9634Z" fill="#999999"/>
<path d="M11.6482 27.3872L22.4384 27.3682C22.5761 27.3629 22.7065 27.3048 22.8021 27.2062C22.8977 27.1075 22.9511 26.976 22.9511 26.8391C22.9511 26.7022 22.8977 26.5707 22.8021 26.472C22.7065 26.3734 22.5761 26.3153 22.4384 26.31L11.6482 26.3291C11.5104 26.3344 11.3801 26.3924 11.2845 26.4911C11.1889 26.5897 11.1355 26.7213 11.1355 26.8582C11.1355 26.995 11.1889 27.1266 11.2845 27.2252C11.3801 27.3239 11.5104 27.3819 11.6482 27.3872Z" fill="#999999"/>
<path d="M28.215 25.0895C28.2164 25.8608 28.4932 26.6066 28.9962 27.1944C29.4993 27.7822 30.196 28.1738 30.9626 28.2997V30.2048C30.9679 30.3416 31.0264 30.471 31.1257 30.5659C31.2251 30.6608 31.3576 30.7138 31.4955 30.7138C31.6334 30.7138 31.7659 30.6608 31.8653 30.5659C31.9646 30.471 32.0231 30.3416 32.0285 30.2048V28.2997C32.7951 28.174 33.4921 27.7824 33.9953 27.1946C34.4985 26.6068 34.7754 25.8609 34.7768 25.0895C34.7768 22.9566 33.6573 17.9572 31.4983 17.9572C29.3393 17.9572 28.215 22.9566 28.215 25.0895ZM33.7101 25.0895C33.7157 25.3817 33.6625 25.6721 33.5537 25.9437C33.445 26.2153 33.2827 26.4627 33.0765 26.6713C32.8703 26.8799 32.6243 27.0456 32.3529 27.1587C32.0814 27.2719 31.7899 27.3301 31.4955 27.3301C31.2011 27.3301 30.9096 27.2719 30.6382 27.1587C30.3667 27.0456 30.1207 26.8799 29.9145 26.6713C29.7083 26.4627 29.5461 26.2153 29.4373 25.9437C29.3285 25.6721 29.2754 25.3817 29.2809 25.0895C29.2809 22.535 30.5603 19.0153 31.4959 19.0153C32.4315 19.0153 33.7101 22.539 33.7101 25.0895Z" fill="#999999"/>
<path d="M35.1909 28.1607C35.4907 28.285 35.8054 28.3701 36.1273 28.4139V30.2016C36.1326 30.3383 36.1911 30.4677 36.2905 30.5626C36.3898 30.6575 36.5224 30.7105 36.6602 30.7105C36.7981 30.7105 36.9306 30.6575 37.03 30.5626C37.1294 30.4677 37.1878 30.3383 37.1932 30.2016V28.4131C37.7073 28.3408 38.2009 28.164 38.6431 27.8938C39.0853 27.6235 39.4665 27.2656 39.763 26.8424C40.0595 26.4192 40.2649 25.9398 40.3662 25.4343C40.4676 24.9287 40.4629 24.4078 40.3522 23.9042C40.2416 23.4005 40.0275 22.925 39.7233 22.5072C39.4191 22.0894 39.0314 21.7384 38.5844 21.4762C38.1373 21.2139 37.6406 21.0461 37.1252 20.9831C36.6098 20.9201 36.0869 20.9633 35.5891 21.1101C35.4563 21.1522 35.3453 21.2443 35.28 21.3666C35.2147 21.4889 35.2003 21.6318 35.2398 21.7645C35.2794 21.8973 35.3697 22.0094 35.4915 22.0769C35.6133 22.1443 35.7568 22.1617 35.8914 22.1254C36.3078 22.0039 36.7474 21.9835 37.1734 22.0658C37.5994 22.1481 37.9992 22.3308 38.3393 22.5985C38.6793 22.8662 38.9496 23.211 39.1275 23.604C39.3053 23.997 39.3854 24.4267 39.3612 24.8568C39.3369 25.287 39.209 25.705 38.988 26.0759C38.7671 26.4467 38.4597 26.7594 38.0917 26.9877C37.7237 27.2161 37.3058 27.3533 36.8732 27.3879C36.4407 27.4225 36.006 27.3535 35.6059 27.1867C35.541 27.1567 35.4706 27.14 35.399 27.1376C35.3274 27.1352 35.2561 27.1472 35.1893 27.1728C35.1225 27.1983 35.0615 27.237 35.01 27.2865C34.9586 27.3359 34.9177 27.3952 34.8898 27.4607C34.8619 27.5262 34.8476 27.5966 34.8478 27.6677C34.8479 27.7388 34.8624 27.8091 34.8905 27.8745C34.9186 27.9399 34.9597 27.999 35.0113 28.0483C35.0629 28.0976 35.124 28.1353 35.1909 28.1607Z" fill="#999999"/>
<path d="M1.53336 33.2499H43.4666C43.6081 33.2499 43.7438 33.1941 43.8438 33.0948C43.9438 32.9955 44 32.8609 44 32.7204C44 32.58 43.9438 32.4453 43.8438 32.3461C43.7438 32.2468 43.6081 32.191 43.4666 32.191H1.53336C1.3919 32.191 1.25624 32.2468 1.15622 32.3461C1.05619 32.4453 1 32.58 1 32.7204C1 32.8609 1.05619 32.9955 1.15622 33.0948C1.25624 33.1941 1.3919 33.2499 1.53336 33.2499Z" stroke="#999999" stroke-width="0.4" mask="url(#path-1-outside-1_563_2498)"/>
<path d="M9.02265 30.7303C9.16396 30.7303 9.2995 30.6747 9.3995 30.5755C9.4995 30.4764 9.55579 30.3419 9.556 30.2017V5.55157L24.7993 2.18821V30.2017C24.7993 30.3421 24.8555 30.4768 24.9555 30.5761C25.0555 30.6753 25.1912 30.7311 25.3327 30.7311C25.4741 30.7311 25.6098 30.6753 25.7098 30.5761C25.8098 30.4768 25.866 30.3421 25.866 30.2017V2.30887L30.962 4.31561V15.9774C30.9593 16.0486 30.971 16.1197 30.9965 16.1863C31.0221 16.2529 31.0609 16.3137 31.1106 16.365C31.1604 16.4164 31.2201 16.4572 31.2861 16.4851C31.3522 16.513 31.4232 16.5274 31.495 16.5274C31.5668 16.5274 31.6378 16.513 31.7039 16.4851C31.7699 16.4572 31.8296 16.4164 31.8794 16.365C31.9291 16.3137 31.9679 16.2529 31.9935 16.1863C32.019 16.1197 32.0307 16.0486 32.028 15.9774V3.95602C32.0278 3.84997 31.9957 3.74639 31.9357 3.65866C31.8757 3.57092 31.7906 3.50307 31.6913 3.46386L25.5294 1.03719C25.43 0.998208 25.3211 0.989639 25.2167 1.01258L8.9043 4.6117C8.78597 4.63771 8.68011 4.70302 8.60422 4.79684C8.52833 4.89065 8.48694 5.00735 8.4869 5.12767V30.2017C8.487 30.2713 8.50095 30.3403 8.52796 30.4046C8.55496 30.4689 8.59448 30.5273 8.64425 30.5764C8.69402 30.6255 8.75306 30.6644 8.818 30.6908C8.88293 30.7172 8.95247 30.7306 9.02265 30.7303Z" stroke="#999999" stroke-width="0.4" mask="url(#path-1-outside-1_563_2498)"/>
<path d="M22.9579 6.11757C22.9292 5.98012 22.8467 5.85958 22.7286 5.78248C22.6104 5.70537 22.4663 5.678 22.3278 5.70638L11.5376 7.92269C11.4084 7.94938 11.2938 8.02265 11.2159 8.12834C11.138 8.23402 11.1023 8.36462 11.1157 8.49491C11.1291 8.6252 11.1907 8.74593 11.2886 8.83378C11.3864 8.92161 11.5136 8.97033 11.6455 8.97052C11.6821 8.97031 11.7185 8.96659 11.7543 8.9594L22.5445 6.7423C22.6827 6.71384 22.8039 6.63205 22.8815 6.5149C22.959 6.39775 22.9865 6.25483 22.9579 6.11757Z" stroke="#999999" stroke-width="0.4" mask="url(#path-1-outside-1_563_2498)"/>
<path d="M22.9594 10.1678C22.947 10.0994 22.9211 10.034 22.8832 9.97554C22.8453 9.91704 22.7962 9.86651 22.7386 9.82685C22.6811 9.7872 22.6162 9.75918 22.5478 9.74441C22.4793 9.72963 22.4086 9.7284 22.3397 9.74076L11.5495 11.6689C11.418 11.6918 11.3 11.7628 11.2188 11.868C11.1376 11.9731 11.0991 12.1047 11.111 12.2367C11.1228 12.3686 11.1842 12.4914 11.2829 12.5806C11.3816 12.6698 11.5104 12.7189 11.6439 12.7183C11.6757 12.7184 11.7076 12.7158 11.739 12.7104L22.5292 10.7822C22.6683 10.7573 22.7917 10.6786 22.8723 10.5634C22.953 10.4482 22.9843 10.3059 22.9594 10.1678Z" stroke="#999999" stroke-width="0.4" mask="url(#path-1-outside-1_563_2498)"/>
<path d="M22.9637 14.3685C22.9438 14.2295 22.8693 14.104 22.7565 14.0195C22.6436 13.935 22.5016 13.8984 22.3615 13.9176L11.5714 15.4131C11.4383 15.4324 11.3175 15.5009 11.2331 15.6048C11.1487 15.7088 11.107 15.8405 11.1163 15.9737C11.1256 16.1069 11.1852 16.2316 11.2832 16.323C11.3813 16.4144 11.5105 16.4657 11.6449 16.4665C11.6698 16.4665 11.6946 16.4649 11.7193 16.4618L22.5095 14.9662C22.6495 14.9467 22.7761 14.8728 22.8613 14.7607C22.9464 14.6486 22.9833 14.5075 22.9637 14.3685Z" stroke="#999999" stroke-width="0.4" mask="url(#path-1-outside-1_563_2498)"/>
<path d="M11.646 20.2151C11.665 20.2163 11.6839 20.2163 11.7028 20.2151L22.493 19.08C22.6306 19.0616 22.7556 18.9906 22.8413 18.8822C22.9271 18.7737 22.9668 18.6364 22.9521 18.4993C22.9374 18.3622 22.8695 18.2362 22.7627 18.1481C22.6559 18.06 22.5187 18.0167 22.3803 18.0274L11.5901 19.1625C11.4547 19.1773 11.3301 19.2429 11.2419 19.346C11.1537 19.449 11.1086 19.5816 11.1157 19.7167C11.1229 19.8517 11.1818 19.9789 11.2804 20.0721C11.379 20.1654 11.5098 20.2177 11.646 20.2183V20.2151Z" stroke="#999999" stroke-width="0.4" mask="url(#path-1-outside-1_563_2498)"/>
<path d="M11.6459 23.9634H11.6851L22.4753 23.1879C22.6143 23.1748 22.7427 23.1081 22.8327 23.0022C22.9228 22.8962 22.9674 22.7593 22.9569 22.6211C22.9465 22.4828 22.8818 22.3541 22.7767 22.2627C22.6717 22.1713 22.5348 22.1244 22.3953 22.1321L11.6051 22.9077C11.4679 22.9182 11.3401 22.981 11.2484 23.083C11.1568 23.1849 11.1083 23.3181 11.1133 23.4546C11.1183 23.5912 11.1762 23.7205 11.275 23.8157C11.3738 23.9108 11.5059 23.9643 11.6435 23.965L11.6459 23.9634Z" stroke="#999999" stroke-width="0.4" mask="url(#path-1-outside-1_563_2498)"/>
<path d="M11.6482 27.3872L22.4384 27.3682C22.5761 27.3629 22.7065 27.3048 22.8021 27.2062C22.8977 27.1075 22.9511 26.976 22.9511 26.8391C22.9511 26.7022 22.8977 26.5707 22.8021 26.472C22.7065 26.3734 22.5761 26.3153 22.4384 26.31L11.6482 26.3291C11.5104 26.3344 11.3801 26.3924 11.2845 26.4911C11.1889 26.5897 11.1355 26.7213 11.1355 26.8582C11.1355 26.995 11.1889 27.1266 11.2845 27.2252C11.3801 27.3239 11.5104 27.3819 11.6482 27.3872Z" stroke="#999999" stroke-width="0.4" mask="url(#path-1-outside-1_563_2498)"/>
<path d="M28.215 25.0895C28.2164 25.8608 28.4932 26.6066 28.9962 27.1944C29.4993 27.7822 30.196 28.1738 30.9626 28.2997V30.2048C30.9679 30.3416 31.0264 30.471 31.1257 30.5659C31.2251 30.6608 31.3576 30.7138 31.4955 30.7138C31.6334 30.7138 31.7659 30.6608 31.8653 30.5659C31.9646 30.471 32.0231 30.3416 32.0285 30.2048V28.2997C32.7951 28.174 33.4921 27.7824 33.9953 27.1946C34.4985 26.6068 34.7754 25.8609 34.7768 25.0895C34.7768 22.9566 33.6573 17.9572 31.4983 17.9572C29.3393 17.9572 28.215 22.9566 28.215 25.0895ZM33.7101 25.0895C33.7157 25.3817 33.6625 25.6721 33.5537 25.9437C33.445 26.2153 33.2827 26.4627 33.0765 26.6713C32.8703 26.8799 32.6243 27.0456 32.3529 27.1587C32.0814 27.2719 31.7899 27.3301 31.4955 27.3301C31.2011 27.3301 30.9096 27.2719 30.6382 27.1587C30.3667 27.0456 30.1207 26.8799 29.9145 26.6713C29.7083 26.4627 29.5461 26.2153 29.4373 25.9437C29.3285 25.6721 29.2754 25.3817 29.2809 25.0895C29.2809 22.535 30.5603 19.0153 31.4959 19.0153C32.4315 19.0153 33.7101 22.539 33.7101 25.0895Z" stroke="#999999" stroke-width="0.4" mask="url(#path-1-outside-1_563_2498)"/>
<path d="M35.1909 28.1607C35.4907 28.285 35.8054 28.3701 36.1273 28.4139V30.2016C36.1326 30.3383 36.1911 30.4677 36.2905 30.5626C36.3898 30.6575 36.5224 30.7105 36.6602 30.7105C36.7981 30.7105 36.9306 30.6575 37.03 30.5626C37.1294 30.4677 37.1878 30.3383 37.1932 30.2016V28.4131C37.7073 28.3408 38.2009 28.164 38.6431 27.8938C39.0853 27.6235 39.4665 27.2656 39.763 26.8424C40.0595 26.4192 40.2649 25.9398 40.3662 25.4343C40.4676 24.9287 40.4629 24.4078 40.3522 23.9042C40.2416 23.4005 40.0275 22.925 39.7233 22.5072C39.4191 22.0894 39.0314 21.7384 38.5844 21.4762C38.1373 21.2139 37.6406 21.0461 37.1252 20.9831C36.6098 20.9201 36.0869 20.9633 35.5891 21.1101C35.4563 21.1522 35.3453 21.2443 35.28 21.3666C35.2147 21.4889 35.2003 21.6318 35.2398 21.7645C35.2794 21.8973 35.3697 22.0094 35.4915 22.0769C35.6133 22.1443 35.7568 22.1617 35.8914 22.1254C36.3078 22.0039 36.7474 21.9835 37.1734 22.0658C37.5994 22.1481 37.9992 22.3308 38.3393 22.5985C38.6793 22.8662 38.9496 23.211 39.1275 23.604C39.3053 23.997 39.3854 24.4267 39.3612 24.8568C39.3369 25.287 39.209 25.705 38.988 26.0759C38.7671 26.4467 38.4597 26.7594 38.0917 26.9877C37.7237 27.2161 37.3058 27.3533 36.8732 27.3879C36.4407 27.4225 36.006 27.3535 35.6059 27.1867C35.541 27.1567 35.4706 27.14 35.399 27.1376C35.3274 27.1352 35.2561 27.1472 35.1893 27.1728C35.1225 27.1983 35.0615 27.237 35.01 27.2865C34.9586 27.3359 34.9177 27.3952 34.8898 27.4607C34.8619 27.5262 34.8476 27.5966 34.8478 27.6677C34.8479 27.7388 34.8624 27.8091 34.8905 27.8745C34.9186 27.9399 34.9597 27.999 35.0113 28.0483C35.0629 28.0976 35.124 28.1353 35.1909 28.1607Z" stroke="#999999" stroke-width="0.4" mask="url(#path-1-outside-1_563_2498)"/>
</svg>
