<svg width="49" height="49" viewBox="0 0 49 49" fill="none" xmlns="http://www.w3.org/2000/svg">
<path d="M9.0198 43.4906C13.0518 46.7766 18.0248 48.6944 23.2191 48.9667C28.4134 49.239 33.5596 47.8515 37.9131 45.005C42.2376 42.1765 45.5571 38.0532 47.3971 33.2246C49.2371 28.3959 49.5033 23.1091 48.1578 18.12C46.8123 13.1309 43.9238 8.69496 39.9054 5.4463C35.8869 2.19764 30.9443 0.302612 25.784 0.032135C20.6237 -0.238342 15.5101 1.12958 11.174 3.94034C6.83799 6.7511 3.50161 10.8608 1.64186 15.6819C-0.217889 20.503 -0.505787 25.7886 0.819323 30.7832C2.14443 35.7777 5.01471 40.2255 9.0198 43.4906ZM24.5003 2.24053C36.7742 2.24053 46.76 12.2263 46.76 24.5002C46.7651 27.6895 46.0823 30.8424 44.7581 33.7439C43.4339 36.6453 41.4996 39.2271 39.087 41.313C37.9302 36.1887 31.8374 32.2771 24.5003 32.2771C17.1633 32.2771 11.0697 36.1887 9.91294 41.313C7.50047 39.227 5.56627 36.6452 4.24224 33.7438C2.9182 30.8423 2.23547 27.6895 2.24063 24.5002C2.24063 12.2263 12.2264 2.24053 24.5003 2.24053Z" fill="#D9D9D9"/>
<path d="M20.7388 29.4201C22.4193 30.237 24.32 30.4849 26.1537 30.1263C27.9875 29.7677 29.6548 28.8221 30.9037 27.4323C32.1527 26.0426 32.9155 24.2842 33.0769 22.4226C33.2383 20.5611 32.7896 18.6977 31.7985 17.1137C30.8075 15.5297 29.3279 14.3112 27.5832 13.6423C25.8386 12.9733 23.9236 12.8903 22.1276 13.4057C20.3316 13.9211 18.7521 15.007 17.6276 16.4992C16.5032 17.9915 15.8949 19.8092 15.8946 21.6777C15.8909 23.2934 16.3436 24.8774 17.2006 26.2472C18.0577 27.617 19.2841 28.7168 20.7388 29.4201Z" fill="#D9D9D9"/>
</svg>
