<svg width="37" height="30" viewBox="0 0 37 30" fill="none" xmlns="http://www.w3.org/2000/svg">
<path d="M20.5414 20.4661C20.5414 15.8051 22.3276 11.483 25.9 7.5C29.4724 3.51695 32.5345 1.01695 35.0862 0L37 2.6695C34.4483 4.02543 32.2793 5.97458 30.4931 8.51695C28.792 11.0593 27.8138 13.6864 27.5586 16.3983C28.2391 15.9746 29.3023 15.7627 30.7483 15.7627C32.2793 15.7627 33.5977 16.4407 34.7034 17.7966C35.8092 19.0678 36.3621 20.7627 36.3621 22.8814C36.3621 25 35.554 26.7373 33.9379 28.0932C32.4069 29.3644 30.4931 30 28.1966 30C25.9 30 24.0287 29.1949 22.5828 27.5847C21.2218 25.9746 20.5414 23.6017 20.5414 20.4661ZM7.65517 30C5.44368 30 3.61494 28.8136 2.16897 26.4407C0.722988 24.0678 0 21.4407 0 18.5593C0 15.678 0.595402 13.1356 1.78621 10.9322C2.97701 8.64407 4.46552 6.77966 6.25172 5.33898C9.65402 2.62712 12.4184 0.847457 14.5448 0L16.4586 2.6695C13.9069 4.02543 11.7379 5.97458 9.95172 8.51695C8.25057 11.0593 7.27241 13.6864 7.01724 16.3983C7.6977 15.9746 8.76092 15.7627 10.2069 15.7627C11.7379 15.7627 13.0563 16.4407 14.1621 17.7966C15.2678 19.0678 15.8207 20.7627 15.8207 22.8814C15.8207 25 15.0126 26.7373 13.3966 28.0932C11.8655 29.3644 9.95172 30 7.65517 30Z" fill="#191919" fill-opacity="0.1"/>
</svg>
