<svg width="67" height="27" viewBox="0 0 67 27" fill="none" xmlns="http://www.w3.org/2000/svg">
<mask id="path-1-inside-1_318_3278" fill="white">
<path fill-rule="evenodd" clip-rule="evenodd" d="M12.4764 0C9.71493 0 7.47635 2.23858 7.47635 5V8.76893L0.96875 12.5117L7.47635 16.2545V21.4534C7.47635 24.2149 9.71493 26.4534 12.4764 26.4534H61.8546C64.616 26.4534 66.8546 24.2149 66.8546 21.4534V5C66.8546 2.23858 64.616 0 61.8546 0H12.4764Z"/>
</mask>
<path fill-rule="evenodd" clip-rule="evenodd" d="M12.4764 0C9.71493 0 7.47635 2.23858 7.47635 5V8.76893L0.96875 12.5117L7.47635 16.2545V21.4534C7.47635 24.2149 9.71493 26.4534 12.4764 26.4534H61.8546C64.616 26.4534 66.8546 24.2149 66.8546 21.4534V5C66.8546 2.23858 64.616 0 61.8546 0H12.4764Z" fill="white" fill-opacity="0.6"/>
<path d="M7.47635 8.76893L7.97492 9.63579L8.47635 9.34739V8.76893H7.47635ZM0.96875 12.5117L0.470188 11.6449L-1.03702 12.5117L0.470188 13.3786L0.96875 12.5117ZM7.47635 16.2545H8.47635V15.676L7.97492 15.3876L7.47635 16.2545ZM8.47635 5C8.47635 2.79086 10.2672 1 12.4764 1V-1C9.16265 -1 6.47635 1.68629 6.47635 5H8.47635ZM8.47635 8.76893V5H6.47635V8.76893H8.47635ZM1.46731 13.3786L7.97492 9.63579L6.97779 7.90208L0.470188 11.6449L1.46731 13.3786ZM7.97492 15.3876L1.46731 11.6449L0.470188 13.3786L6.97779 17.1213L7.97492 15.3876ZM8.47635 21.4534V16.2545H6.47635V21.4534H8.47635ZM12.4764 25.4534C10.2672 25.4534 8.47635 23.6626 8.47635 21.4534H6.47635C6.47635 24.7671 9.16264 27.4534 12.4764 27.4534V25.4534ZM61.8546 25.4534H12.4764V27.4534H61.8546V25.4534ZM65.8546 21.4534C65.8546 23.6626 64.0637 25.4534 61.8546 25.4534V27.4534C65.1683 27.4534 67.8546 24.7671 67.8546 21.4534H65.8546ZM65.8546 5V21.4534H67.8546V5H65.8546ZM61.8546 1C64.0637 1 65.8546 2.79086 65.8546 5H67.8546C67.8546 1.68629 65.1683 -1 61.8546 -1V1ZM12.4764 1H61.8546V-1H12.4764V1Z" fill="#FFB50F" mask="url(#path-1-inside-1_318_3278)"/>
</svg>
