<svg width="33" height="33" viewBox="0 0 33 33" fill="none" xmlns="http://www.w3.org/2000/svg">
<mask id="path-1-outside-1_572_2693" maskUnits="userSpaceOnUse" x="0" y="0" width="33" height="33" fill="black">
<rect fill="white" width="33" height="33"/>
<path d="M16.5005 1C7.95402 1 1 7.953 1 16.5005C1 25.048 7.95402 32 16.5005 32C25.047 32 32 25.047 32 16.4985C32 7.94997 25.047 1 16.5005 1ZM16.5005 30.8054C8.83377 30.8054 2.25434 24.6755 2.20372 16.5015C2.20332 16.3631 2.23018 16.226 2.28277 16.098C2.33537 15.97 2.41267 15.8536 2.51025 15.7554C2.60783 15.6573 2.72378 15.5793 2.85149 15.526C2.9792 15.4726 3.11617 15.445 3.25457 15.4446C3.39296 15.4442 3.53008 15.4711 3.65809 15.5237C3.78611 15.5763 3.90252 15.6535 4.00066 15.7511C4.09881 15.8487 4.17677 15.9647 4.2301 16.0924C4.28343 16.2201 4.31108 16.357 4.31148 16.4954V22.024C4.31208 22.32 4.37096 22.6129 4.48477 22.8861C4.59857 23.1593 4.76507 23.4074 4.97475 23.6162C5.18444 23.825 5.43321 23.9905 5.70685 24.1032C5.98049 24.2159 6.27365 24.2736 6.56959 24.273C6.86553 24.2724 7.15846 24.2136 7.43165 24.0997C7.70483 23.9859 7.95291 23.8194 8.16175 23.6098C8.37059 23.4001 8.53608 23.1513 8.64878 22.8777C8.76148 22.604 8.81918 22.3109 8.81858 22.0149C8.81858 20.6351 10.9679 20.6047 10.9628 22.0149C10.9395 26.6395 10.7421 27.1689 11.5966 28.0254C13.0027 29.4356 15.4436 28.4435 15.4436 26.438V25.3244C15.4399 25.1826 15.4646 25.0416 15.5164 24.9096C15.5682 24.7776 15.646 24.6574 15.7452 24.556C15.8443 24.4547 15.9628 24.3742 16.0936 24.3195C16.2245 24.2648 16.3649 24.237 16.5067 24.2376C16.6485 24.2382 16.7887 24.2673 16.9191 24.3231C17.0494 24.3789 17.1672 24.4604 17.2655 24.5626C17.3638 24.6648 17.4405 24.7857 17.4912 24.9181C17.5418 25.0505 17.5654 25.1918 17.5605 25.3335C17.5605 25.9312 17.7979 26.5044 18.2205 26.927C18.6431 27.3496 19.2163 27.587 19.814 27.587C20.4117 27.587 20.9849 27.3496 21.4075 26.927C21.8301 26.5044 22.0676 25.9312 22.0676 25.3335V22.0149C22.0638 21.8732 22.0886 21.7321 22.1404 21.6001C22.1922 21.4682 22.27 21.3479 22.3691 21.2466C22.4683 21.1452 22.5868 21.0648 22.7176 21.0101C22.8484 20.9554 22.9889 20.9275 23.1307 20.9281C23.2725 20.9287 23.4127 20.9578 23.543 21.0136C23.6734 21.0695 23.7912 21.1509 23.8895 21.2531C23.9877 21.3553 24.0645 21.4762 24.1152 21.6086C24.1658 21.7411 24.1894 21.8823 24.1844 22.024C24.1844 22.6217 24.4219 23.1949 24.8445 23.6175C25.2671 24.0402 25.8403 24.2776 26.438 24.2776C27.0357 24.2776 27.6089 24.0402 28.0315 23.6175C28.4541 23.1949 28.6915 22.6217 28.6915 22.024V18.7034C28.6915 17.5999 30.2101 17.2264 30.6971 18.257C29.8244 25.3193 23.7896 30.8054 16.5005 30.8054ZM30.8013 16.7192C30.4586 16.5371 30.0747 16.4467 29.6868 16.4569C29.2988 16.467 28.9201 16.5772 28.5874 16.7769C28.2546 16.9766 27.9792 17.2589 27.7878 17.5965C27.5963 17.9341 27.4955 18.3154 27.4949 18.7034V22.024C27.4949 23.411 25.377 23.4292 25.377 22.0149C25.3645 21.4256 25.1217 20.8647 24.7005 20.4524C24.2793 20.0401 23.7134 19.8091 23.124 19.8091C22.5346 19.8091 21.9686 20.0401 21.5475 20.4524C21.1263 20.8647 20.8834 21.4256 20.8709 22.0149V25.3365C20.8697 25.6174 20.757 25.8863 20.5575 26.084C20.3581 26.2817 20.0883 26.3921 19.8074 26.3909C19.5266 26.3897 19.2577 26.277 19.06 26.0775C18.8622 25.8781 18.7518 25.6083 18.753 25.3274C18.7405 24.7381 18.4977 24.1772 18.0765 23.7649C17.6553 23.3526 17.0894 23.1216 16.5 23.1216C15.9106 23.1216 15.3446 23.3526 14.9235 23.7649C14.5023 24.1772 14.2594 24.7381 14.2469 25.3274V26.441C14.2458 26.6495 14.183 26.853 14.0666 27.026C13.9501 27.199 13.7852 27.3336 13.5924 27.4131C13.3997 27.4926 13.1877 27.5134 12.9832 27.4728C12.7787 27.4323 12.5907 27.3322 12.4429 27.1851C12.3453 27.0871 12.2682 26.9707 12.2161 26.8426C12.1639 26.7145 12.1378 26.5773 12.1392 26.439C12.1625 21.8155 12.3599 21.286 11.5054 20.4285C10.1246 19.0446 7.62803 19.9598 7.62803 22.025C7.62803 22.3059 7.51647 22.5752 7.31788 22.7738C7.11929 22.9724 6.84994 23.084 6.56909 23.084C6.28824 23.084 6.01889 22.9724 5.8203 22.7738C5.6217 22.5752 5.51013 22.3059 5.51013 22.025V16.4985C5.51005 16.124 5.41634 15.7554 5.23752 15.4264C5.05871 15.0973 4.80048 14.8182 4.4863 14.6144C4.17212 14.4106 3.81197 14.2885 3.4386 14.2594C3.06524 14.2302 2.6905 14.2948 2.34848 14.4474C3.34871 7.52983 9.31465 2.19764 16.5046 2.19764C24.4213 2.19461 30.9218 8.68597 30.8003 16.7192H30.8013ZM16.5005 10.9355C15.3992 10.9355 14.3227 11.262 13.407 11.8739C12.4914 12.4857 11.7777 13.3553 11.3563 14.3727C10.9348 15.3902 10.8246 16.5097 11.0394 17.5898C11.2543 18.6699 11.7846 19.6621 12.5633 20.4408C13.342 21.2195 14.3341 21.7498 15.4142 21.9646C16.4943 22.1795 17.6139 22.0692 18.6313 21.6478C19.6487 21.2263 20.5183 20.5127 21.1302 19.597C21.742 18.6813 22.0686 17.6048 22.0686 16.5035C22.0686 15.0268 21.4819 13.6105 20.4377 12.5663C19.3935 11.5221 17.9772 10.9355 16.5005 10.9355ZM16.5005 20.8709C15.6362 20.8711 14.7912 20.615 14.0724 20.135C13.3535 19.655 12.7932 18.9726 12.4622 18.1742C12.1312 17.3757 12.0444 16.497 12.2128 15.6492C12.3811 14.8015 12.7971 14.0226 13.4081 13.4112C14.019 12.7998 14.7976 12.3833 15.6452 12.2144C16.4929 12.0454 17.3717 12.1316 18.1704 12.4621C18.969 12.7925 19.6518 13.3524 20.1323 14.0708C20.6128 14.7893 20.8695 15.6341 20.8699 16.4985C20.8691 17.6574 20.4086 18.7686 19.5894 19.5883C18.7703 20.408 17.6594 20.8693 16.5005 20.8709ZM11.7626 4.90879C11.7626 4.83035 11.778 4.75268 11.808 4.68021C11.8381 4.60774 11.8821 4.5419 11.9375 4.48643C11.993 4.43097 12.0588 4.38697 12.1313 4.35695C12.2038 4.32693 12.2814 4.31148 12.3599 4.31148H13.4634C13.6218 4.31148 13.7737 4.37441 13.8857 4.48643C13.9977 4.59845 14.0607 4.75037 14.0607 4.90879C14.0607 5.66098 13.2133 5.50609 12.3599 5.50609C12.2814 5.50609 12.2038 5.49064 12.1313 5.46062C12.0588 5.43061 11.993 5.38661 11.9375 5.33114C11.8821 5.27568 11.8381 5.20983 11.808 5.13737C11.778 5.0649 11.7626 4.98723 11.7626 4.90879ZM24.8222 14.4545C24.8222 15.3089 24.9761 16.1553 24.2249 16.1553C23.4738 16.1553 23.6276 15.3069 23.6276 14.4545C23.6296 13.6638 24.8243 13.6638 24.8243 14.4545H24.8222ZM18.6599 9.1628V8.0593C18.6599 7.26864 19.8545 7.26965 19.8545 8.0593C19.8545 8.91375 20.0084 9.7601 19.2572 9.7601C19.0991 9.75956 18.9477 9.6964 18.8362 9.58444C18.7246 9.47248 18.6619 9.32086 18.6619 9.1628H18.6599ZM23.7046 9.03321C23.6492 9.08886 23.5835 9.13302 23.511 9.16316C23.4386 9.19329 23.3609 9.20881 23.2824 9.20881C23.2039 9.20881 23.1263 9.19329 23.0538 9.16316C22.9814 9.13302 22.9156 9.08886 22.8603 9.03321C22.3288 8.50171 23.0374 8.01071 23.6408 7.41341C23.6961 7.35776 23.7619 7.3136 23.8344 7.28346C23.9068 7.25333 23.9845 7.23782 24.063 7.23782C24.1414 7.23782 24.2191 7.25333 24.2916 7.28346C24.364 7.3136 24.4298 7.35776 24.4851 7.41341C25.0197 7.93984 24.31 8.42983 23.7066 9.03321H23.7046ZM16.7911 3.54005C17.3226 3.00856 17.8125 3.71722 18.4159 4.3206C18.9737 4.8774 18.1284 5.72274 17.5716 5.16593C16.9672 4.56458 16.2596 4.0756 16.7911 3.54005ZM27.0161 11.8193L27.7966 12.5998C28.3534 13.1576 27.5091 14.002 26.9513 13.4452L26.1707 12.6646C25.6119 12.1098 26.4603 11.2655 27.0191 11.8233L27.0161 11.8193ZM11.4973 10.1327L10.7158 9.35211C10.1569 8.79429 11.0033 7.94997 11.5611 8.50779C12.1685 9.11522 12.8772 9.60217 12.3417 10.1276C12.2313 10.2403 12.0806 10.3045 11.9229 10.3062C11.7652 10.3079 11.6132 10.247 11.5004 10.1367L11.4973 10.1327ZM9.02915 15.9123C9.58799 16.4711 8.74266 17.3155 8.18484 16.7566C7.57741 16.1492 6.86875 15.6623 7.4043 15.1368C7.93984 14.6114 8.42882 15.313 9.03219 15.9164L9.02915 15.9123ZM7.92567 10.1327C7.31825 10.7401 6.83129 11.4487 6.30587 10.9142C5.78045 10.3797 6.48303 9.89171 7.08641 9.28833C7.64322 8.73355 8.48652 9.57888 7.9287 10.1367L7.92567 10.1327Z"/>
</mask>
<path d="M16.5005 1C7.95402 1 1 7.953 1 16.5005C1 25.048 7.95402 32 16.5005 32C25.047 32 32 25.047 32 16.4985C32 7.94997 25.047 1 16.5005 1ZM16.5005 30.8054C8.83377 30.8054 2.25434 24.6755 2.20372 16.5015C2.20332 16.3631 2.23018 16.226 2.28277 16.098C2.33537 15.97 2.41267 15.8536 2.51025 15.7554C2.60783 15.6573 2.72378 15.5793 2.85149 15.526C2.9792 15.4726 3.11617 15.445 3.25457 15.4446C3.39296 15.4442 3.53008 15.4711 3.65809 15.5237C3.78611 15.5763 3.90252 15.6535 4.00066 15.7511C4.09881 15.8487 4.17677 15.9647 4.2301 16.0924C4.28343 16.2201 4.31108 16.357 4.31148 16.4954V22.024C4.31208 22.32 4.37096 22.6129 4.48477 22.8861C4.59857 23.1593 4.76507 23.4074 4.97475 23.6162C5.18444 23.825 5.43321 23.9905 5.70685 24.1032C5.98049 24.2159 6.27365 24.2736 6.56959 24.273C6.86553 24.2724 7.15846 24.2136 7.43165 24.0997C7.70483 23.9859 7.95291 23.8194 8.16175 23.6098C8.37059 23.4001 8.53608 23.1513 8.64878 22.8777C8.76148 22.604 8.81918 22.3109 8.81858 22.0149C8.81858 20.6351 10.9679 20.6047 10.9628 22.0149C10.9395 26.6395 10.7421 27.1689 11.5966 28.0254C13.0027 29.4356 15.4436 28.4435 15.4436 26.438V25.3244C15.4399 25.1826 15.4646 25.0416 15.5164 24.9096C15.5682 24.7776 15.646 24.6574 15.7452 24.556C15.8443 24.4547 15.9628 24.3742 16.0936 24.3195C16.2245 24.2648 16.3649 24.237 16.5067 24.2376C16.6485 24.2382 16.7887 24.2673 16.9191 24.3231C17.0494 24.3789 17.1672 24.4604 17.2655 24.5626C17.3638 24.6648 17.4405 24.7857 17.4912 24.9181C17.5418 25.0505 17.5654 25.1918 17.5605 25.3335C17.5605 25.9312 17.7979 26.5044 18.2205 26.927C18.6431 27.3496 19.2163 27.587 19.814 27.587C20.4117 27.587 20.9849 27.3496 21.4075 26.927C21.8301 26.5044 22.0676 25.9312 22.0676 25.3335V22.0149C22.0638 21.8732 22.0886 21.7321 22.1404 21.6001C22.1922 21.4682 22.27 21.3479 22.3691 21.2466C22.4683 21.1452 22.5868 21.0648 22.7176 21.0101C22.8484 20.9554 22.9889 20.9275 23.1307 20.9281C23.2725 20.9287 23.4127 20.9578 23.543 21.0136C23.6734 21.0695 23.7912 21.1509 23.8895 21.2531C23.9877 21.3553 24.0645 21.4762 24.1152 21.6086C24.1658 21.7411 24.1894 21.8823 24.1844 22.024C24.1844 22.6217 24.4219 23.1949 24.8445 23.6175C25.2671 24.0402 25.8403 24.2776 26.438 24.2776C27.0357 24.2776 27.6089 24.0402 28.0315 23.6175C28.4541 23.1949 28.6915 22.6217 28.6915 22.024V18.7034C28.6915 17.5999 30.2101 17.2264 30.6971 18.257C29.8244 25.3193 23.7896 30.8054 16.5005 30.8054ZM30.8013 16.7192C30.4586 16.5371 30.0747 16.4467 29.6868 16.4569C29.2988 16.467 28.9201 16.5772 28.5874 16.7769C28.2546 16.9766 27.9792 17.2589 27.7878 17.5965C27.5963 17.9341 27.4955 18.3154 27.4949 18.7034V22.024C27.4949 23.411 25.377 23.4292 25.377 22.0149C25.3645 21.4256 25.1217 20.8647 24.7005 20.4524C24.2793 20.0401 23.7134 19.8091 23.124 19.8091C22.5346 19.8091 21.9686 20.0401 21.5475 20.4524C21.1263 20.8647 20.8834 21.4256 20.8709 22.0149V25.3365C20.8697 25.6174 20.757 25.8863 20.5575 26.084C20.3581 26.2817 20.0883 26.3921 19.8074 26.3909C19.5266 26.3897 19.2577 26.277 19.06 26.0775C18.8622 25.8781 18.7518 25.6083 18.753 25.3274C18.7405 24.7381 18.4977 24.1772 18.0765 23.7649C17.6553 23.3526 17.0894 23.1216 16.5 23.1216C15.9106 23.1216 15.3446 23.3526 14.9235 23.7649C14.5023 24.1772 14.2594 24.7381 14.2469 25.3274V26.441C14.2458 26.6495 14.183 26.853 14.0666 27.026C13.9501 27.199 13.7852 27.3336 13.5924 27.4131C13.3997 27.4926 13.1877 27.5134 12.9832 27.4728C12.7787 27.4323 12.5907 27.3322 12.4429 27.1851C12.3453 27.0871 12.2682 26.9707 12.2161 26.8426C12.1639 26.7145 12.1378 26.5773 12.1392 26.439C12.1625 21.8155 12.3599 21.286 11.5054 20.4285C10.1246 19.0446 7.62803 19.9598 7.62803 22.025C7.62803 22.3059 7.51647 22.5752 7.31788 22.7738C7.11929 22.9724 6.84994 23.084 6.56909 23.084C6.28824 23.084 6.01889 22.9724 5.8203 22.7738C5.6217 22.5752 5.51013 22.3059 5.51013 22.025V16.4985C5.51005 16.124 5.41634 15.7554 5.23752 15.4264C5.05871 15.0973 4.80048 14.8182 4.4863 14.6144C4.17212 14.4106 3.81197 14.2885 3.4386 14.2594C3.06524 14.2302 2.6905 14.2948 2.34848 14.4474C3.34871 7.52983 9.31465 2.19764 16.5046 2.19764C24.4213 2.19461 30.9218 8.68597 30.8003 16.7192H30.8013ZM16.5005 10.9355C15.3992 10.9355 14.3227 11.262 13.407 11.8739C12.4914 12.4857 11.7777 13.3553 11.3563 14.3727C10.9348 15.3902 10.8246 16.5097 11.0394 17.5898C11.2543 18.6699 11.7846 19.6621 12.5633 20.4408C13.342 21.2195 14.3341 21.7498 15.4142 21.9646C16.4943 22.1795 17.6139 22.0692 18.6313 21.6478C19.6487 21.2263 20.5183 20.5127 21.1302 19.597C21.742 18.6813 22.0686 17.6048 22.0686 16.5035C22.0686 15.0268 21.4819 13.6105 20.4377 12.5663C19.3935 11.5221 17.9772 10.9355 16.5005 10.9355ZM16.5005 20.8709C15.6362 20.8711 14.7912 20.615 14.0724 20.135C13.3535 19.655 12.7932 18.9726 12.4622 18.1742C12.1312 17.3757 12.0444 16.497 12.2128 15.6492C12.3811 14.8015 12.7971 14.0226 13.4081 13.4112C14.019 12.7998 14.7976 12.3833 15.6452 12.2144C16.4929 12.0454 17.3717 12.1316 18.1704 12.4621C18.969 12.7925 19.6518 13.3524 20.1323 14.0708C20.6128 14.7893 20.8695 15.6341 20.8699 16.4985C20.8691 17.6574 20.4086 18.7686 19.5894 19.5883C18.7703 20.408 17.6594 20.8693 16.5005 20.8709ZM11.7626 4.90879C11.7626 4.83035 11.778 4.75268 11.808 4.68021C11.8381 4.60774 11.8821 4.5419 11.9375 4.48643C11.993 4.43097 12.0588 4.38697 12.1313 4.35695C12.2038 4.32693 12.2814 4.31148 12.3599 4.31148H13.4634C13.6218 4.31148 13.7737 4.37441 13.8857 4.48643C13.9977 4.59845 14.0607 4.75037 14.0607 4.90879C14.0607 5.66098 13.2133 5.50609 12.3599 5.50609C12.2814 5.50609 12.2038 5.49064 12.1313 5.46062C12.0588 5.43061 11.993 5.38661 11.9375 5.33114C11.8821 5.27568 11.8381 5.20983 11.808 5.13737C11.778 5.0649 11.7626 4.98723 11.7626 4.90879ZM24.8222 14.4545C24.8222 15.3089 24.9761 16.1553 24.2249 16.1553C23.4738 16.1553 23.6276 15.3069 23.6276 14.4545C23.6296 13.6638 24.8243 13.6638 24.8243 14.4545H24.8222ZM18.6599 9.1628V8.0593C18.6599 7.26864 19.8545 7.26965 19.8545 8.0593C19.8545 8.91375 20.0084 9.7601 19.2572 9.7601C19.0991 9.75956 18.9477 9.6964 18.8362 9.58444C18.7246 9.47248 18.6619 9.32086 18.6619 9.1628H18.6599ZM23.7046 9.03321C23.6492 9.08886 23.5835 9.13302 23.511 9.16316C23.4386 9.19329 23.3609 9.20881 23.2824 9.20881C23.2039 9.20881 23.1263 9.19329 23.0538 9.16316C22.9814 9.13302 22.9156 9.08886 22.8603 9.03321C22.3288 8.50171 23.0374 8.01071 23.6408 7.41341C23.6961 7.35776 23.7619 7.3136 23.8344 7.28346C23.9068 7.25333 23.9845 7.23782 24.063 7.23782C24.1414 7.23782 24.2191 7.25333 24.2916 7.28346C24.364 7.3136 24.4298 7.35776 24.4851 7.41341C25.0197 7.93984 24.31 8.42983 23.7066 9.03321H23.7046ZM16.7911 3.54005C17.3226 3.00856 17.8125 3.71722 18.4159 4.3206C18.9737 4.8774 18.1284 5.72274 17.5716 5.16593C16.9672 4.56458 16.2596 4.0756 16.7911 3.54005ZM27.0161 11.8193L27.7966 12.5998C28.3534 13.1576 27.5091 14.002 26.9513 13.4452L26.1707 12.6646C25.6119 12.1098 26.4603 11.2655 27.0191 11.8233L27.0161 11.8193ZM11.4973 10.1327L10.7158 9.35211C10.1569 8.79429 11.0033 7.94997 11.5611 8.50779C12.1685 9.11522 12.8772 9.60217 12.3417 10.1276C12.2313 10.2403 12.0806 10.3045 11.9229 10.3062C11.7652 10.3079 11.6132 10.247 11.5004 10.1367L11.4973 10.1327ZM9.02915 15.9123C9.58799 16.4711 8.74266 17.3155 8.18484 16.7566C7.57741 16.1492 6.86875 15.6623 7.4043 15.1368C7.93984 14.6114 8.42882 15.313 9.03219 15.9164L9.02915 15.9123ZM7.92567 10.1327C7.31825 10.7401 6.83129 11.4487 6.30587 10.9142C5.78045 10.3797 6.48303 9.89171 7.08641 9.28833C7.64322 8.73355 8.48652 9.57888 7.9287 10.1367L7.92567 10.1327Z" fill="#999999"/>
<path d="M16.5005 1C7.95402 1 1 7.953 1 16.5005C1 25.048 7.95402 32 16.5005 32C25.047 32 32 25.047 32 16.4985C32 7.94997 25.047 1 16.5005 1ZM16.5005 30.8054C8.83377 30.8054 2.25434 24.6755 2.20372 16.5015C2.20332 16.3631 2.23018 16.226 2.28277 16.098C2.33537 15.97 2.41267 15.8536 2.51025 15.7554C2.60783 15.6573 2.72378 15.5793 2.85149 15.526C2.9792 15.4726 3.11617 15.445 3.25457 15.4446C3.39296 15.4442 3.53008 15.4711 3.65809 15.5237C3.78611 15.5763 3.90252 15.6535 4.00066 15.7511C4.09881 15.8487 4.17677 15.9647 4.2301 16.0924C4.28343 16.2201 4.31108 16.357 4.31148 16.4954V22.024C4.31208 22.32 4.37096 22.6129 4.48477 22.8861C4.59857 23.1593 4.76507 23.4074 4.97475 23.6162C5.18444 23.825 5.43321 23.9905 5.70685 24.1032C5.98049 24.2159 6.27365 24.2736 6.56959 24.273C6.86553 24.2724 7.15846 24.2136 7.43165 24.0997C7.70483 23.9859 7.95291 23.8194 8.16175 23.6098C8.37059 23.4001 8.53608 23.1513 8.64878 22.8777C8.76148 22.604 8.81918 22.3109 8.81858 22.0149C8.81858 20.6351 10.9679 20.6047 10.9628 22.0149C10.9395 26.6395 10.7421 27.1689 11.5966 28.0254C13.0027 29.4356 15.4436 28.4435 15.4436 26.438V25.3244C15.4399 25.1826 15.4646 25.0416 15.5164 24.9096C15.5682 24.7776 15.646 24.6574 15.7452 24.556C15.8443 24.4547 15.9628 24.3742 16.0936 24.3195C16.2245 24.2648 16.3649 24.237 16.5067 24.2376C16.6485 24.2382 16.7887 24.2673 16.9191 24.3231C17.0494 24.3789 17.1672 24.4604 17.2655 24.5626C17.3638 24.6648 17.4405 24.7857 17.4912 24.9181C17.5418 25.0505 17.5654 25.1918 17.5605 25.3335C17.5605 25.9312 17.7979 26.5044 18.2205 26.927C18.6431 27.3496 19.2163 27.587 19.814 27.587C20.4117 27.587 20.9849 27.3496 21.4075 26.927C21.8301 26.5044 22.0676 25.9312 22.0676 25.3335V22.0149C22.0638 21.8732 22.0886 21.7321 22.1404 21.6001C22.1922 21.4682 22.27 21.3479 22.3691 21.2466C22.4683 21.1452 22.5868 21.0648 22.7176 21.0101C22.8484 20.9554 22.9889 20.9275 23.1307 20.9281C23.2725 20.9287 23.4127 20.9578 23.543 21.0136C23.6734 21.0695 23.7912 21.1509 23.8895 21.2531C23.9877 21.3553 24.0645 21.4762 24.1152 21.6086C24.1658 21.7411 24.1894 21.8823 24.1844 22.024C24.1844 22.6217 24.4219 23.1949 24.8445 23.6175C25.2671 24.0402 25.8403 24.2776 26.438 24.2776C27.0357 24.2776 27.6089 24.0402 28.0315 23.6175C28.4541 23.1949 28.6915 22.6217 28.6915 22.024V18.7034C28.6915 17.5999 30.2101 17.2264 30.6971 18.257C29.8244 25.3193 23.7896 30.8054 16.5005 30.8054ZM30.8013 16.7192C30.4586 16.5371 30.0747 16.4467 29.6868 16.4569C29.2988 16.467 28.9201 16.5772 28.5874 16.7769C28.2546 16.9766 27.9792 17.2589 27.7878 17.5965C27.5963 17.9341 27.4955 18.3154 27.4949 18.7034V22.024C27.4949 23.411 25.377 23.4292 25.377 22.0149C25.3645 21.4256 25.1217 20.8647 24.7005 20.4524C24.2793 20.0401 23.7134 19.8091 23.124 19.8091C22.5346 19.8091 21.9686 20.0401 21.5475 20.4524C21.1263 20.8647 20.8834 21.4256 20.8709 22.0149V25.3365C20.8697 25.6174 20.757 25.8863 20.5575 26.084C20.3581 26.2817 20.0883 26.3921 19.8074 26.3909C19.5266 26.3897 19.2577 26.277 19.06 26.0775C18.8622 25.8781 18.7518 25.6083 18.753 25.3274C18.7405 24.7381 18.4977 24.1772 18.0765 23.7649C17.6553 23.3526 17.0894 23.1216 16.5 23.1216C15.9106 23.1216 15.3446 23.3526 14.9235 23.7649C14.5023 24.1772 14.2594 24.7381 14.2469 25.3274V26.441C14.2458 26.6495 14.183 26.853 14.0666 27.026C13.9501 27.199 13.7852 27.3336 13.5924 27.4131C13.3997 27.4926 13.1877 27.5134 12.9832 27.4728C12.7787 27.4323 12.5907 27.3322 12.4429 27.1851C12.3453 27.0871 12.2682 26.9707 12.2161 26.8426C12.1639 26.7145 12.1378 26.5773 12.1392 26.439C12.1625 21.8155 12.3599 21.286 11.5054 20.4285C10.1246 19.0446 7.62803 19.9598 7.62803 22.025C7.62803 22.3059 7.51647 22.5752 7.31788 22.7738C7.11929 22.9724 6.84994 23.084 6.56909 23.084C6.28824 23.084 6.01889 22.9724 5.8203 22.7738C5.6217 22.5752 5.51013 22.3059 5.51013 22.025V16.4985C5.51005 16.124 5.41634 15.7554 5.23752 15.4264C5.05871 15.0973 4.80048 14.8182 4.4863 14.6144C4.17212 14.4106 3.81197 14.2885 3.4386 14.2594C3.06524 14.2302 2.6905 14.2948 2.34848 14.4474C3.34871 7.52983 9.31465 2.19764 16.5046 2.19764C24.4213 2.19461 30.9218 8.68597 30.8003 16.7192H30.8013ZM16.5005 10.9355C15.3992 10.9355 14.3227 11.262 13.407 11.8739C12.4914 12.4857 11.7777 13.3553 11.3563 14.3727C10.9348 15.3902 10.8246 16.5097 11.0394 17.5898C11.2543 18.6699 11.7846 19.6621 12.5633 20.4408C13.342 21.2195 14.3341 21.7498 15.4142 21.9646C16.4943 22.1795 17.6139 22.0692 18.6313 21.6478C19.6487 21.2263 20.5183 20.5127 21.1302 19.597C21.742 18.6813 22.0686 17.6048 22.0686 16.5035C22.0686 15.0268 21.4819 13.6105 20.4377 12.5663C19.3935 11.5221 17.9772 10.9355 16.5005 10.9355ZM16.5005 20.8709C15.6362 20.8711 14.7912 20.615 14.0724 20.135C13.3535 19.655 12.7932 18.9726 12.4622 18.1742C12.1312 17.3757 12.0444 16.497 12.2128 15.6492C12.3811 14.8015 12.7971 14.0226 13.4081 13.4112C14.019 12.7998 14.7976 12.3833 15.6452 12.2144C16.4929 12.0454 17.3717 12.1316 18.1704 12.4621C18.969 12.7925 19.6518 13.3524 20.1323 14.0708C20.6128 14.7893 20.8695 15.6341 20.8699 16.4985C20.8691 17.6574 20.4086 18.7686 19.5894 19.5883C18.7703 20.408 17.6594 20.8693 16.5005 20.8709ZM11.7626 4.90879C11.7626 4.83035 11.778 4.75268 11.808 4.68021C11.8381 4.60774 11.8821 4.5419 11.9375 4.48643C11.993 4.43097 12.0588 4.38697 12.1313 4.35695C12.2038 4.32693 12.2814 4.31148 12.3599 4.31148H13.4634C13.6218 4.31148 13.7737 4.37441 13.8857 4.48643C13.9977 4.59845 14.0607 4.75037 14.0607 4.90879C14.0607 5.66098 13.2133 5.50609 12.3599 5.50609C12.2814 5.50609 12.2038 5.49064 12.1313 5.46062C12.0588 5.43061 11.993 5.38661 11.9375 5.33114C11.8821 5.27568 11.8381 5.20983 11.808 5.13737C11.778 5.0649 11.7626 4.98723 11.7626 4.90879ZM24.8222 14.4545C24.8222 15.3089 24.9761 16.1553 24.2249 16.1553C23.4738 16.1553 23.6276 15.3069 23.6276 14.4545C23.6296 13.6638 24.8243 13.6638 24.8243 14.4545H24.8222ZM18.6599 9.1628V8.0593C18.6599 7.26864 19.8545 7.26965 19.8545 8.0593C19.8545 8.91375 20.0084 9.7601 19.2572 9.7601C19.0991 9.75956 18.9477 9.6964 18.8362 9.58444C18.7246 9.47248 18.6619 9.32086 18.6619 9.1628H18.6599ZM23.7046 9.03321C23.6492 9.08886 23.5835 9.13302 23.511 9.16316C23.4386 9.19329 23.3609 9.20881 23.2824 9.20881C23.2039 9.20881 23.1263 9.19329 23.0538 9.16316C22.9814 9.13302 22.9156 9.08886 22.8603 9.03321C22.3288 8.50171 23.0374 8.01071 23.6408 7.41341C23.6961 7.35776 23.7619 7.3136 23.8344 7.28346C23.9068 7.25333 23.9845 7.23782 24.063 7.23782C24.1414 7.23782 24.2191 7.25333 24.2916 7.28346C24.364 7.3136 24.4298 7.35776 24.4851 7.41341C25.0197 7.93984 24.31 8.42983 23.7066 9.03321H23.7046ZM16.7911 3.54005C17.3226 3.00856 17.8125 3.71722 18.4159 4.3206C18.9737 4.8774 18.1284 5.72274 17.5716 5.16593C16.9672 4.56458 16.2596 4.0756 16.7911 3.54005ZM27.0161 11.8193L27.7966 12.5998C28.3534 13.1576 27.5091 14.002 26.9513 13.4452L26.1707 12.6646C25.6119 12.1098 26.4603 11.2655 27.0191 11.8233L27.0161 11.8193ZM11.4973 10.1327L10.7158 9.35211C10.1569 8.79429 11.0033 7.94997 11.5611 8.50779C12.1685 9.11522 12.8772 9.60217 12.3417 10.1276C12.2313 10.2403 12.0806 10.3045 11.9229 10.3062C11.7652 10.3079 11.6132 10.247 11.5004 10.1367L11.4973 10.1327ZM9.02915 15.9123C9.58799 16.4711 8.74266 17.3155 8.18484 16.7566C7.57741 16.1492 6.86875 15.6623 7.4043 15.1368C7.93984 14.6114 8.42882 15.313 9.03219 15.9164L9.02915 15.9123ZM7.92567 10.1327C7.31825 10.7401 6.83129 11.4487 6.30587 10.9142C5.78045 10.3797 6.48303 9.89171 7.08641 9.28833C7.64322 8.73355 8.48652 9.57888 7.9287 10.1367L7.92567 10.1327Z" stroke="#999999" stroke-width="0.2" mask="url(#path-1-outside-1_572_2693)"/>
</svg>
