<svg width="38" height="17" viewBox="0 0 38 17" fill="none" xmlns="http://www.w3.org/2000/svg">
<path d="M18.6885 16.3227L18.6885 16.3013L37.2029 16.3013C37.348 16.3013 37.4872 16.2303 37.5898 16.104C37.6924 15.9777 37.75 15.8063 37.75 15.6277L37.75 1.65377C37.75 1.47512 37.6924 1.30379 37.5898 1.17747C37.4872 1.05115 37.348 0.980175 37.2029 0.980175L18.6885 0.980174L18.6885 0.958739C18.6885 0.780092 18.6309 0.608763 18.5283 0.48244C18.4257 0.356117 18.2865 0.285155 18.1414 0.285155L11.1982 0.285155C11.0533 0.28556 10.9145 0.356703 10.8121 0.482982C10.7098 0.60926 10.6523 0.780357 10.6523 0.958739L10.6523 1.99822L7.09494 1.99822C6.33646 1.99822 5.89877 3.03615 5.64636 4.34047L0.530971 4.34047L0.530971 5.68764L5.45363 5.68764C5.27126 7.64945 5.27126 9.63047 5.45363 11.5923L0.530971 11.5923L0.530971 12.9394L5.64636 12.9394C5.89504 14.2453 6.3377 15.2832 7.09494 15.2832L10.6461 15.2832L10.6461 16.3227C10.6461 16.5011 10.7036 16.6722 10.8059 16.7985C10.9083 16.9247 11.0471 16.9959 11.192 16.9963L18.1414 16.9963C18.2865 16.9963 18.4257 16.9253 18.5283 16.799C18.6309 16.6727 18.6885 16.5013 18.6885 16.3227ZM9.33805 13.9361C9.21371 13.4171 9.08191 12.0653 9.03963 9.98791L7.94294 9.98791C7.97403 11.9275 8.07723 13.1584 8.21649 13.9361L7.13348 13.9361C6.87237 13.6758 6.41106 11.9214 6.41106 8.64072C6.41106 5.36309 6.87237 3.6087 7.13348 3.34845L8.2165 3.34845C8.07723 4.12614 7.96781 5.35698 7.94294 7.29661L9.03963 7.29661C9.08191 5.21766 9.21744 3.86589 9.33805 3.34845L10.6461 3.34845L10.6461 13.9391L9.33805 13.9361ZM11.7465 1.63233L17.5906 1.63233L17.5906 15.6491L11.7465 15.6491L11.7465 1.63233ZM24.5375 2.32735L24.5375 14.9541L18.6935 14.9541L18.6935 2.32735L24.5375 2.32735ZM36.6558 2.32735L36.6558 4.01133L30.6874 4.01133C30.6515 4.01112 30.6158 4.0197 30.5825 4.03655C30.5493 4.05341 30.5191 4.0782 30.4936 4.10952C30.4682 4.14083 30.4481 4.17805 30.4344 4.219C30.4207 4.25995 30.4137 4.30384 30.4139 4.34812L30.4139 12.9333C30.4139 12.9776 30.4209 13.0213 30.4347 13.0622C30.4484 13.1031 30.4686 13.1402 30.494 13.1715C30.5194 13.2027 30.5495 13.2276 30.5827 13.2445C30.6159 13.2614 30.6515 13.2701 30.6874 13.2701L36.6558 13.2701L36.6558 14.9541L25.6317 14.9541L25.6317 2.32735L36.6558 2.32735ZM36.6558 6.15456L31.7767 6.15456L31.7767 6.82816L36.6558 6.82816L36.6558 8.30087L31.7767 8.30087L31.7767 8.97445L36.6558 8.97445L36.6558 10.4472L31.7767 10.4472L31.7767 11.1208L36.6558 11.1208L36.6558 12.5935L30.956 12.5935L30.956 4.68492L36.6558 4.68492L36.6558 6.15456Z" fill="#999999"/>
</svg>
