<svg width="20" height="16" viewBox="0 0 20 16" fill="none" xmlns="http://www.w3.org/2000/svg">
<path d="M1 9.09206C1 6.45559 3.82893 4.31543 7.31813 4.31543C10.8073 4.31543 13.6363 6.45559 13.6363 9.09206C13.6363 11.7285 10.8073 13.8715 7.31813 13.8715C6.98135 13.8709 6.64491 13.8498 6.31064 13.8084C6.14558 14.0752 5.40561 15.0334 3.5984 14.8154C3.5984 14.8154 4.32129 14.1355 4.42659 13.3408C2.39169 12.549 1 10.9425 1 9.09206Z" stroke="#555555" stroke-linecap="round" stroke-linejoin="round"/>
<path d="M9.77344 9.20756C9.77344 9.32558 9.80816 9.44095 9.87321 9.53908C9.93825 9.63721 10.0307 9.71369 10.1389 9.75885C10.247 9.80401 10.3661 9.81583 10.4809 9.7928C10.5957 9.76978 10.7012 9.71296 10.784 9.6295C10.8668 9.54605 10.9232 9.43972 10.946 9.32397C10.9689 9.20822 10.9571 9.08823 10.9123 8.9792C10.8675 8.87016 10.7916 8.77697 10.6943 8.7114C10.5969 8.64583 10.4825 8.61084 10.3654 8.61084C10.2084 8.61084 10.0578 8.6737 9.94682 8.78561C9.83581 8.89751 9.77344 9.0493 9.77344 9.20756Z" fill="#3A3A3A"/>
<path d="M6.72656 9.20756C6.72656 9.32558 6.76128 9.44095 6.82632 9.53908C6.89137 9.63721 6.98382 9.71369 7.09199 9.75885C7.20016 9.80401 7.31919 9.81583 7.43402 9.7928C7.54885 9.76978 7.65433 9.71296 7.73712 9.6295C7.81991 9.54605 7.87628 9.43972 7.89912 9.32397C7.92197 9.20822 7.91024 9.08823 7.86543 8.9792C7.82063 8.87016 7.74476 8.77697 7.64741 8.7114C7.55006 8.64583 7.43561 8.61084 7.31853 8.61084C7.16153 8.61084 7.01096 8.6737 6.89995 8.78561C6.78893 8.89751 6.72656 9.0493 6.72656 9.20756Z" fill="#555555"/>
<path d="M3.67969 9.20757C3.67913 9.3264 3.71362 9.44271 3.77876 9.54175C3.8439 9.64079 3.93677 9.71809 4.04557 9.76383C4.15438 9.80957 4.2742 9.82168 4.38985 9.79864C4.5055 9.7756 4.61175 9.71842 4.6951 9.6344C4.77846 9.55037 4.83517 9.44327 4.85803 9.32669C4.88089 9.21012 4.86887 9.08932 4.8235 8.97964C4.77813 8.86997 4.70145 8.77635 4.6032 8.71069C4.50494 8.64502 4.38955 8.61028 4.27167 8.61085C4.11467 8.61085 3.9641 8.67371 3.85308 8.78561C3.74206 8.89752 3.67969 9.04931 3.67969 9.20757Z" fill="#555555"/>
<path d="M18.9985 5.47829C18.9985 2.83895 16.1696 0.70166 12.6775 0.70166C9.18546 0.70166 6.35938 2.83895 6.35938 5.47829C6.35938 8.11762 9.1883 10.2549 12.6775 10.2549C13.0142 10.2554 13.3507 10.2352 13.685 10.1947C13.8529 10.4586 14.59 11.4168 16.3972 11.2016C16.3972 11.2016 15.6744 10.5217 15.5691 9.72704C17.604 8.93237 18.9985 7.32869 18.9985 5.47829Z" fill="white" stroke="#555555" stroke-linecap="round" stroke-linejoin="round"/>
<path d="M10.2269 5.59379C10.2269 5.71181 10.1922 5.82718 10.1271 5.92531C10.0621 6.02344 9.96964 6.09993 9.86147 6.1451C9.7533 6.19026 9.63428 6.20207 9.51945 6.17905C9.40462 6.15602 9.29914 6.09919 9.21635 6.01573C9.13356 5.93228 9.07719 5.82597 9.05434 5.71022C9.0315 5.59447 9.04322 5.47448 9.08803 5.36545C9.13283 5.25641 9.20871 5.16322 9.30605 5.09765C9.4034 5.03208 9.51786 4.99707 9.63494 4.99707C9.79194 4.99707 9.94251 5.05995 10.0535 5.17186C10.1645 5.28376 10.2269 5.43553 10.2269 5.59379Z" fill="#555555"/>
<path d="M13.2756 5.5938C13.2761 5.71251 13.2417 5.82872 13.1767 5.9277C13.1117 6.02668 13.019 6.10397 12.9103 6.1498C12.8017 6.19562 12.682 6.20789 12.5665 6.18508C12.4509 6.16227 12.3446 6.1054 12.2612 6.02166C12.1777 5.93792 12.1208 5.83109 12.0976 5.71471C12.0744 5.59832 12.086 5.47761 12.1309 5.36789C12.1759 5.25816 12.2521 5.16435 12.35 5.09834C12.4479 5.03233 12.563 4.99708 12.6807 4.99708C12.7587 4.9967 12.836 5.01186 12.9082 5.04168C12.9803 5.07149 13.0459 5.1154 13.1012 5.17085C13.1564 5.22629 13.2003 5.2922 13.2302 5.36479C13.2602 5.43737 13.2756 5.5152 13.2756 5.5938Z" fill="#555555"/>
<path d="M16.3207 5.59379C16.3207 5.71181 16.2859 5.82718 16.2209 5.92531C16.1558 6.02344 16.0634 6.09993 15.9552 6.1451C15.8471 6.19026 15.728 6.20207 15.6132 6.17905C15.4984 6.15602 15.3929 6.09919 15.3101 6.01573C15.2273 5.93228 15.1709 5.82597 15.1481 5.71022C15.1253 5.59447 15.137 5.47448 15.1818 5.36545C15.2266 5.25641 15.3025 5.16322 15.3998 5.09765C15.4972 5.03208 15.6116 4.99707 15.7287 4.99707C15.8857 4.99707 16.0363 5.05995 16.1473 5.17186C16.2583 5.28376 16.3207 5.43553 16.3207 5.59379Z" fill="#555555"/>
</svg>
