<svg width="41" height="28" viewBox="0 0 41 28" fill="none" xmlns="http://www.w3.org/2000/svg">
<path d="M3.50781 10.9177V3.72656C3.50781 2.62199 4.40324 1.72656 5.50781 1.72656H24.0603C25.1648 1.72656 26.0603 2.62199 26.0603 3.72656V19.7799C26.0603 20.8845 25.1648 21.7799 24.0603 21.7799H20.2133" stroke="#999999" stroke-width="1.5" stroke-miterlimit="10"/>
<path d="M16.5408 12.5894H3C1.89543 12.5894 1 13.4848 1 14.5894V24.7938C1 25.8984 1.89543 26.7938 3 26.7938H16.5408C17.6454 26.7938 18.5408 25.8984 18.5408 24.7938V14.5894C18.5408 13.4848 17.6454 12.5894 16.5408 12.5894Z" stroke="#999999" stroke-width="1.5" stroke-miterlimit="10"/>
<path d="M12.6946 12.5894H6.84766V15.9316H12.6946V12.5894Z" stroke="#999999" stroke-width="1.5" stroke-miterlimit="10"/>
<path d="M3.50781 23.4507H5.17893" stroke="#999999" stroke-width="1.5" stroke-miterlimit="10"/>
<path d="M6.84766 23.4507H8.51877" stroke="#999999" stroke-width="1.5" stroke-miterlimit="10"/>
<path d="M26.0625 6.74025H32.6946C32.9675 6.73892 33.2366 6.80447 33.4783 6.93119C33.72 7.05791 33.927 7.24194 34.0812 7.46718L36.9211 12.5892H37.7564C37.9913 12.5879 38.2239 12.6361 38.4389 12.7309C38.6539 12.8256 38.8466 12.9647 39.0042 13.1389C39.1619 13.3132 39.281 13.5188 39.3539 13.7422C39.4267 13.9657 39.4516 14.202 39.4269 14.4357V20.1092C39.4269 20.5524 39.2509 20.9774 38.9376 21.2908C38.6243 21.6042 38.1994 21.7803 37.7564 21.7803H36.0858" stroke="#999999" stroke-width="1.5" stroke-miterlimit="10" stroke-linecap="round"/>
<path d="M36.0845 22.6147C36.0845 23.2757 35.8886 23.9219 35.5215 24.4715C35.1543 25.0212 34.6325 25.4495 34.022 25.7025C33.4115 25.9555 32.7397 26.0217 32.0916 25.8927C31.4435 25.7637 30.8482 25.4454 30.3809 24.978C29.9137 24.5106 29.5955 23.9151 29.4665 23.2667C29.3376 22.6184 29.4038 21.9464 29.6567 21.3357C29.9096 20.725 30.3378 20.203 30.8872 19.8357C31.4367 19.4685 32.0826 19.2725 32.7434 19.2725C33.6296 19.2725 34.4794 19.6246 35.106 20.2514C35.7325 20.8782 36.0845 21.7283 36.0845 22.6147Z" stroke="#999999" stroke-width="1.5" stroke-miterlimit="10"/>
<path d="M26.0625 21.7793H29.4036" stroke="#999999" stroke-width="1.5" stroke-miterlimit="10" stroke-linecap="round"/>
<path d="M28.5664 13.4247H33.5781V12.5892L32.1462 10.0825" stroke="#999999" stroke-width="1.5" stroke-miterlimit="10" stroke-linecap="round"/>
</svg>
