<svg width="43" height="33" viewBox="0 0 43 33" fill="none" xmlns="http://www.w3.org/2000/svg">
<path d="M0.533355 32.2499H42.4666C42.6081 32.2499 42.7438 32.1941 42.8438 32.0948C42.9438 31.9955 43 31.8609 43 31.7204C43 31.58 42.9438 31.4453 42.8438 31.3461C42.7438 31.2468 42.6081 31.191 42.4666 31.191H0.533355C0.391902 31.191 0.256239 31.2468 0.156216 31.3461C0.0561935 31.4453 0 31.58 0 31.7204C0 31.8609 0.0561935 31.9955 0.156216 32.0948C0.256239 32.1941 0.391902 32.2499 0.533355 32.2499Z" fill="#07364A"/>
<path d="M8.02265 29.7303C8.16396 29.7303 8.2995 29.6747 8.3995 29.5755C8.4995 29.4764 8.55579 29.3419 8.556 29.2017V4.55157L23.7993 1.18821V29.2017C23.7993 29.3421 23.8555 29.4768 23.9555 29.5761C24.0555 29.6753 24.1912 29.7311 24.3327 29.7311C24.4741 29.7311 24.6098 29.6753 24.7098 29.5761C24.8098 29.4768 24.866 29.3421 24.866 29.2017V1.30887L29.962 3.31561V14.9774C29.9593 15.0486 29.971 15.1197 29.9965 15.1863C30.0221 15.2529 30.0609 15.3137 30.1106 15.365C30.1604 15.4164 30.2201 15.4572 30.2861 15.4851C30.3522 15.513 30.4232 15.5274 30.495 15.5274C30.5668 15.5274 30.6378 15.513 30.7039 15.4851C30.7699 15.4572 30.8296 15.4164 30.8794 15.365C30.9291 15.3137 30.9679 15.2529 30.9935 15.1863C31.019 15.1197 31.0307 15.0486 31.028 14.9774V2.95602C31.0278 2.84997 30.9957 2.74639 30.9357 2.65866C30.8757 2.57092 30.7906 2.50307 30.6913 2.46386L24.5294 0.0371888C24.43 -0.00179155 24.3211 -0.0103613 24.2167 0.012581L7.9043 3.6117C7.78597 3.63771 7.68011 3.70302 7.60422 3.79684C7.52833 3.89065 7.48694 4.00735 7.4869 4.12767V29.2017C7.487 29.2713 7.50095 29.3403 7.52796 29.4046C7.55496 29.4689 7.59448 29.5273 7.64425 29.5764C7.69402 29.6255 7.75306 29.6644 7.818 29.6908C7.88293 29.7172 7.95247 29.7306 8.02265 29.7303Z" fill="#07364A"/>
<path d="M21.9579 5.11757C21.9292 4.98012 21.8467 4.85958 21.7286 4.78248C21.6104 4.70537 21.4663 4.678 21.3278 4.70638L10.5376 6.92269C10.4084 6.94938 10.2938 7.02265 10.2159 7.12834C10.138 7.23402 10.1023 7.36462 10.1157 7.49491C10.1291 7.6252 10.1907 7.74593 10.2886 7.83378C10.3864 7.92161 10.5136 7.97033 10.6455 7.97052C10.6821 7.97031 10.7185 7.96659 10.7543 7.9594L21.5445 5.7423C21.6827 5.71384 21.8039 5.63205 21.8815 5.5149C21.959 5.39775 21.9865 5.25483 21.9579 5.11757Z" fill="#07364A"/>
<path d="M21.9594 9.16783C21.947 9.09939 21.9211 9.03405 21.8832 8.97554C21.8453 8.91704 21.7962 8.86651 21.7386 8.82685C21.6811 8.7872 21.6162 8.75918 21.5478 8.74441C21.4793 8.72963 21.4086 8.7284 21.3397 8.74076L10.5495 10.6689C10.418 10.6918 10.3 10.7628 10.2188 10.868C10.1376 10.9731 10.0991 11.1047 10.111 11.2367C10.1228 11.3686 10.1842 11.4914 10.2829 11.5806C10.3816 11.6698 10.5104 11.7189 10.6439 11.7183C10.6757 11.7184 10.7076 11.7158 10.739 11.7104L21.5292 9.78224C21.6683 9.7573 21.7917 9.67859 21.8723 9.56339C21.953 9.44819 21.9843 9.30593 21.9594 9.16783Z" fill="#07364A"/>
<path d="M21.9637 13.3685C21.9438 13.2295 21.8693 13.104 21.7565 13.0195C21.6436 12.935 21.5016 12.8984 21.3615 12.9176L10.5714 14.4131C10.4383 14.4324 10.3175 14.5009 10.2331 14.6048C10.1487 14.7088 10.107 14.8405 10.1163 14.9737C10.1256 15.1069 10.1852 15.2316 10.2832 15.323C10.3813 15.4144 10.5105 15.4657 10.6449 15.4665C10.6698 15.4665 10.6946 15.4649 10.7193 15.4618L21.5095 13.9662C21.6495 13.9467 21.7761 13.8728 21.8613 13.7607C21.9464 13.6486 21.9833 13.5075 21.9637 13.3685Z" fill="#07364A"/>
<path d="M10.646 19.2151C10.665 19.2163 10.6839 19.2163 10.7028 19.2151L21.493 18.08C21.6306 18.0616 21.7556 17.9906 21.8413 17.8822C21.9271 17.7737 21.9668 17.6364 21.9521 17.4993C21.9374 17.3622 21.8695 17.2362 21.7627 17.1481C21.6559 17.06 21.5187 17.0167 21.3803 17.0274L10.5901 18.1625C10.4547 18.1773 10.3301 18.2429 10.2419 18.346C10.1537 18.449 10.1086 18.5816 10.1157 18.7167C10.1229 18.8517 10.1818 18.9789 10.2804 19.0721C10.379 19.1654 10.5098 19.2177 10.646 19.2183V19.2151Z" fill="#07364A"/>
<path d="M10.6459 22.9634H10.6851L21.4753 22.1879C21.6143 22.1748 21.7427 22.1081 21.8327 22.0022C21.9228 21.8962 21.9674 21.7593 21.9569 21.6211C21.9465 21.4828 21.8818 21.3541 21.7767 21.2627C21.6717 21.1713 21.5348 21.1244 21.3953 21.1321L10.6051 21.9077C10.4679 21.9182 10.3401 21.981 10.2484 22.083C10.1568 22.1849 10.1083 22.3181 10.1133 22.4546C10.1183 22.5912 10.1762 22.7205 10.275 22.8157C10.3738 22.9108 10.5059 22.9643 10.6435 22.965L10.6459 22.9634Z" fill="#07364A"/>
<path d="M10.6482 26.3872L21.4384 26.3682C21.5761 26.3629 21.7065 26.3048 21.8021 26.2062C21.8977 26.1075 21.9511 25.976 21.9511 25.8391C21.9511 25.7022 21.8977 25.5707 21.8021 25.472C21.7065 25.3734 21.5761 25.3153 21.4384 25.31L10.6482 25.3291C10.5104 25.3344 10.3801 25.3924 10.2845 25.4911C10.1889 25.5897 10.1355 25.7213 10.1355 25.8582C10.1355 25.995 10.1889 26.1266 10.2845 26.2252C10.3801 26.3239 10.5104 26.3819 10.6482 26.3872Z" fill="#07364A"/>
<path d="M27.215 24.0895C27.2164 24.8608 27.4932 25.6066 27.9962 26.1944C28.4993 26.7822 29.196 27.1738 29.9626 27.2997V29.2048C29.9679 29.3416 30.0264 29.471 30.1257 29.5659C30.2251 29.6608 30.3576 29.7138 30.4955 29.7138C30.6334 29.7138 30.7659 29.6608 30.8653 29.5659C30.9646 29.471 31.0231 29.3416 31.0285 29.2048V27.2997C31.7951 27.174 32.4921 26.7824 32.9953 26.1946C33.4985 25.6068 33.7754 24.8609 33.7768 24.0895C33.7768 21.9566 32.6573 16.9572 30.4983 16.9572C28.3393 16.9572 27.215 21.9566 27.215 24.0895ZM32.7101 24.0895C32.7157 24.3817 32.6625 24.6721 32.5537 24.9437C32.445 25.2153 32.2827 25.4627 32.0765 25.6713C31.8703 25.8799 31.6243 26.0456 31.3529 26.1587C31.0814 26.2719 30.7899 26.3301 30.4955 26.3301C30.2011 26.3301 29.9096 26.2719 29.6382 26.1587C29.3667 26.0456 29.1207 25.8799 28.9145 25.6713C28.7083 25.4627 28.5461 25.2153 28.4373 24.9437C28.3285 24.6721 28.2754 24.3817 28.2809 24.0895C28.2809 21.535 29.5603 18.0153 30.4959 18.0153C31.4315 18.0153 32.7101 21.539 32.7101 24.0895Z" fill="#07364A"/>
<path d="M34.1909 27.1607C34.4907 27.285 34.8054 27.3701 35.1273 27.4139V29.2016C35.1326 29.3383 35.1911 29.4677 35.2905 29.5626C35.3898 29.6575 35.5224 29.7105 35.6602 29.7105C35.7981 29.7105 35.9306 29.6575 36.03 29.5626C36.1294 29.4677 36.1878 29.3383 36.1932 29.2016V27.4131C36.7073 27.3408 37.2009 27.164 37.6431 26.8938C38.0853 26.6235 38.4665 26.2656 38.763 25.8424C39.0595 25.4192 39.2649 24.9398 39.3662 24.4343C39.4676 23.9287 39.4629 23.4078 39.3522 22.9042C39.2416 22.4005 39.0275 21.925 38.7233 21.5072C38.4191 21.0894 38.0314 20.7384 37.5844 20.4762C37.1373 20.2139 36.6406 20.0461 36.1252 19.9831C35.6098 19.9201 35.0869 19.9633 34.5891 20.1101C34.4563 20.1522 34.3453 20.2443 34.28 20.3666C34.2147 20.4889 34.2003 20.6318 34.2398 20.7645C34.2794 20.8973 34.3697 21.0094 34.4915 21.0769C34.6133 21.1443 34.7568 21.1617 34.8914 21.1254C35.3078 21.0039 35.7474 20.9835 36.1734 21.0658C36.5994 21.1481 36.9992 21.3308 37.3393 21.5985C37.6793 21.8662 37.9496 22.211 38.1275 22.604C38.3053 22.997 38.3854 23.4267 38.3612 23.8568C38.3369 24.287 38.209 24.705 37.988 25.0759C37.7671 25.4467 37.4597 25.7594 37.0917 25.9877C36.7237 26.2161 36.3058 26.3533 35.8732 26.3879C35.4407 26.4225 35.006 26.3535 34.6059 26.1867C34.541 26.1567 34.4706 26.14 34.399 26.1376C34.3274 26.1352 34.2561 26.1472 34.1893 26.1728C34.1225 26.1983 34.0615 26.237 34.01 26.2865C33.9586 26.3359 33.9177 26.3952 33.8898 26.4607C33.8619 26.5262 33.8476 26.5966 33.8478 26.6677C33.8479 26.7388 33.8624 26.8091 33.8905 26.8745C33.9186 26.9399 33.9597 26.999 34.0113 27.0483C34.0629 27.0976 34.124 27.1353 34.1909 27.1607Z" fill="#07364A"/>
</svg>
