<svg width="19" height="17" viewBox="0 0 19 17" fill="none" xmlns="http://www.w3.org/2000/svg">
<path d="M3 13V7.2029C3.00085 5.55751 3.68621 3.97978 4.9054 2.8166C6.1246 1.65342 7.77782 1 9.5016 1V1C11.2251 1 12.878 1.65352 14.0967 2.81679C15.3154 3.98006 16 5.55779 16 7.2029V13" stroke="#555555" stroke-linecap="round" stroke-linejoin="round"/>
<path d="M13 2.32759L12.3698 3C11.5294 2.63445 10.5661 2.42615 9.57435 2.39549C8.58258 2.36484 7.59631 2.51288 6.71211 2.82513L6 2" stroke="#555555" stroke-linecap="round" stroke-linejoin="round"/>
<path d="M1 12.4585C1 12.8673 1.15788 13.2594 1.43891 13.5485C1.71994 13.8376 2.1011 14 2.49854 14C2.89624 14 3.2777 13.8377 3.5592 13.5487C3.84069 13.2597 3.99922 12.8676 4 12.4585V8.54452C4 8.13489 3.84181 7.74203 3.56023 7.45238C3.27865 7.16272 2.89675 7 2.49854 7C2.10083 7.0008 1.71968 7.16387 1.43873 7.45344C1.15779 7.74301 0.999999 8.13541 1 8.54452V12.4585Z" fill="white" stroke="#555555" stroke-linecap="round" stroke-linejoin="round"/>
<path d="M5 13.1684C4.99905 13.3887 4.8932 13.5998 4.70553 13.7555C4.51786 13.9113 4.2636 13.9992 3.9982 14C3.73313 13.9992 3.47924 13.9112 3.29215 13.7554C3.10505 13.5995 3 13.3884 3.00001 13.1684V7.83162C2.99953 7.72255 3.025 7.61448 3.07495 7.5136C3.1249 7.41272 3.19836 7.32102 3.29109 7.24375C3.38383 7.16649 3.49403 7.10519 3.61538 7.06336C3.73672 7.02153 3.86681 7 3.9982 7C4.2639 7 4.5187 7.08762 4.70658 7.24358C4.89445 7.39954 5 7.61106 5 7.83162V13.1684Z" fill="white" stroke="#555555" stroke-linecap="round" stroke-linejoin="round"/>
<path d="M18 12.4585C18 12.8673 17.8421 13.2594 17.5611 13.5485C17.2801 13.8376 16.8989 14 16.5015 14C16.1038 14 15.7223 13.8377 15.4408 13.5487C15.1593 13.2597 15.0008 12.8676 15 12.4585V8.54452C15 8.13489 15.1582 7.74203 15.4398 7.45238C15.7213 7.16272 16.1033 7 16.5015 7C16.8992 7.0008 17.2803 7.16387 17.5613 7.45344C17.8422 7.74301 18 8.13541 18 8.54452V12.4585Z" fill="white" stroke="#555555" stroke-linecap="round" stroke-linejoin="round"/>
<path d="M14 13.1684C14 13.3889 14.1056 13.6005 14.2934 13.7564C14.4813 13.9124 14.7361 14 15.0018 14C15.2669 13.9992 15.5208 13.9112 15.7079 13.7554C15.8949 13.5995 16 13.3884 16 13.1684V7.83162C16.0005 7.72255 15.975 7.61449 15.925 7.51361C15.8751 7.41273 15.8016 7.32102 15.7089 7.24376C15.6162 7.1665 15.506 7.1052 15.3846 7.06337C15.2633 7.02154 15.1332 7 15.0018 7.00001C14.8701 6.99961 14.7396 7.02085 14.6179 7.0625C14.4961 7.10415 14.3855 7.1654 14.2924 7.2427C14.1992 7.32 14.1255 7.41184 14.0753 7.51291C14.0251 7.61399 13.9995 7.7223 14 7.83162V13.1684Z" fill="white" stroke="#555555" stroke-linecap="round" stroke-linejoin="round"/>
<path d="M10.3174 16.3105C10.2727 16.311 10.2285 16.2985 10.1871 16.2737C10.1458 16.2488 10.1082 16.2122 10.0765 16.1659C10.0449 16.1196 10.0197 16.0645 10.0026 16.0039C9.98539 15.9432 9.97656 15.8781 9.97656 15.8124C9.97656 15.6793 10.0125 15.5516 10.0764 15.4575C10.1403 15.3634 10.227 15.3105 10.3174 15.3105H11.6382C11.6829 15.3105 11.7271 15.3235 11.7683 15.3488C11.8095 15.3741 11.8469 15.4111 11.8784 15.4577C11.9098 15.5044 11.9347 15.5597 11.9515 15.6206C11.9684 15.6815 11.9769 15.7466 11.9766 15.8124C11.9766 15.9445 11.9409 16.0712 11.8775 16.1646C11.814 16.258 11.728 16.3105 11.6382 16.3105H10.3174Z" fill="#555555"/>
<path d="M16 14C15.9996 14.3231 15.8834 14.6413 15.6614 14.9274C15.4394 15.2136 15.1181 15.4592 14.7251 15.6433C14.3321 15.8273 13.879 15.9444 13.4044 15.9845C12.9299 16.0246 12.448 15.9865 12 15.8735" stroke="#555555" stroke-linecap="round" stroke-linejoin="round"/>
</svg>
