<svg width="18" height="16" viewBox="0 0 18 16" fill="none" xmlns="http://www.w3.org/2000/svg">
<path d="M17.0326 5.32762C17.0395 4.38889 16.7366 3.47375 16.1701 2.72214C15.6036 1.97053 14.8047 1.42384 13.8957 1.16566C12.9866 0.907486 12.0174 0.952051 11.1362 1.29253C10.2551 1.633 9.51051 2.25065 9.0164 3.05102C8.69439 2.53298 8.26527 2.08872 7.75741 1.74764C7.24955 1.40656 6.67454 1.17643 6.0704 1.07248C5.46627 0.968524 4.84679 0.993124 4.25295 1.14464C3.6591 1.29615 3.10443 1.57112 2.62562 1.95137C2.14681 2.33162 1.75478 2.80848 1.47547 3.3504C1.19616 3.89231 1.03593 4.48693 1.00538 5.09493C0.974829 5.70292 1.07466 6.31042 1.29826 6.87724C1.52186 7.44407 1.86414 7.9573 2.30245 8.38297L9.0164 14.7023L15.7341 8.3867C16.1453 7.9887 16.472 7.51297 16.695 6.98758C16.918 6.46219 17.0328 5.89776 17.0326 5.32762Z" stroke="#555555" stroke-linecap="round" stroke-linejoin="round"/>
</svg>
