<svg width="16" height="16" viewBox="0 0 16 16" fill="none" xmlns="http://www.w3.org/2000/svg">
<g clip-path="url(#clip0_234_8397)">
<path d="M14.7714 12.2734L15.6963 10.1741L14.046 9.44879C14.2494 8.61143 14.2755 7.74084 14.1228 6.89279L15.8115 6.23651L14.9787 4.09882L13.2977 4.75126C12.8446 4.02166 12.2447 3.39431 11.5361 2.9091L12.273 1.23196L10.1737 0.307025L9.4368 1.98416C8.60777 1.79212 7.74794 1.77382 6.91149 1.93043L6.23602 0.191895L4.09834 1.0247L4.7738 2.76326C4.05921 3.20889 3.4439 3.79675 2.96617 4.49029L1.23147 3.72272L0.306537 5.82201L2.03357 6.58959C1.84056 7.40639 1.81706 8.2541 1.96449 9.08035L0.191406 9.76734L1.02421 11.905L2.77811 11.2219C3.21606 11.9415 3.7974 12.5634 4.48596 13.0487L3.71839 14.7719L5.81769 15.6968L6.58526 13.9966C7.40961 14.1979 8.26649 14.2279 9.10291 14.0849L9.77453 15.812L11.9122 14.9791L11.2521 13.279C11.9856 12.8354 12.6194 12.2448 13.1134 11.5443L14.7714 12.2734Z" stroke="#555555" stroke-linecap="round" stroke-linejoin="round"/>
<path d="M11.1209 8.07197C11.164 6.34716 9.80062 4.91402 8.07582 4.87096C6.35101 4.8279 4.91789 6.19124 4.87484 7.91604C4.83178 9.64085 6.19509 11.074 7.9199 11.117C9.6447 11.1601 11.0778 9.79677 11.1209 8.07197Z" stroke="#555555" stroke-linecap="round" stroke-linejoin="round"/>
</g>
<defs>
<clipPath id="clip0_234_8397">
<rect width="16" height="16" fill="white"/>
</clipPath>
</defs>
</svg>
