<svg width="37" height="36" viewBox="0 0 37 36" fill="none" xmlns="http://www.w3.org/2000/svg">
<path d="M34.6408 0.728435C34.379 0.467118 34.0239 0.320312 33.6536 0.320312C33.2834 0.320312 32.9283 0.467118 32.6665 0.728435L17.2872 16.0792C16.9996 16.0329 16.7051 16.0553 16.4279 16.1446C16.1507 16.2339 15.8987 16.3876 15.6925 16.5931L13.8378 18.4444C13.7727 18.5097 13.6909 18.5562 13.6013 18.5789C12.3397 18.8965 10.488 19.2849 8.82923 19.333C6.36137 19.4039 3.55598 18.0544 2.46404 17.4708C2.26184 17.3629 2.03611 17.3064 1.80682 17.3062C1.57752 17.306 1.35172 17.3623 1.14936 17.4699C0.946996 17.5775 0.774309 17.7332 0.646554 17.9233C0.518799 18.1133 0.43991 18.3319 0.416859 18.5596C0.209938 20.5772 0.496969 22.7343 1.2472 24.7966C2.02567 26.9341 3.26159 28.8766 4.86888 30.4887C5.19122 30.8108 5.53672 31.1231 5.90121 31.424C5.96472 31.5019 6.04321 31.5663 6.13205 31.6135C7.5557 32.7346 9.13903 33.6374 10.8297 34.292C12.4623 34.926 14.0345 35.2614 15.3098 35.2614C15.6663 35.2641 16.0223 35.2331 16.3729 35.1689C16.612 35.1229 16.8349 35.0154 17.0195 34.8569C17.2041 34.6984 17.344 34.4945 17.4254 34.2655C18.8787 30.1427 18.698 24.9111 18.4611 22.1598C18.4547 22.0854 18.4648 22.0106 18.4905 21.9405C18.5162 21.8705 18.557 21.8069 18.6099 21.7543L19.7357 20.6306C19.9072 20.4602 20.0432 20.2576 20.1358 20.0344C20.2284 19.8112 20.2758 19.5719 20.2752 19.3304C20.275 19.2322 20.2671 19.1341 20.2516 19.0371L35.6283 3.68892C35.8901 3.4276 36.0372 3.07317 36.0372 2.70361C36.0372 2.33405 35.8901 1.97962 35.6283 1.7183L34.6408 0.728435ZM17.537 20.6822C17.3274 20.8909 17.1662 21.1429 17.0647 21.4205C16.9631 21.6981 16.9237 21.9946 16.9493 22.289C17.1733 24.9038 17.3479 29.8471 16.0179 33.6928C15.1523 33.8387 13.9134 33.6875 12.5553 33.2824C13.9707 31.8135 14.8482 30.1984 15.2852 28.2801C15.3092 28.1823 15.3136 28.0808 15.2979 27.9813C15.2822 27.8819 15.2469 27.7866 15.1939 27.7009C15.1409 27.6153 15.0713 27.541 14.9893 27.4825C14.9072 27.4239 14.8143 27.3823 14.716 27.36C14.6177 27.3377 14.5158 27.3352 14.4165 27.3526C14.3172 27.37 14.2223 27.407 14.1375 27.4614C14.0526 27.5157 13.9795 27.5865 13.9223 27.6694C13.8651 27.7523 13.825 27.8458 13.8044 27.9443C13.3781 29.816 12.4972 31.3035 10.9698 32.7144C9.9578 32.2914 8.9895 31.771 8.07862 31.1606C8.68708 30.8579 9.26505 30.4976 9.8046 30.0847C10.7318 29.3836 11.5701 28.545 12.165 27.7237C12.2246 27.6432 12.2677 27.5516 12.2916 27.4543C12.3155 27.357 12.3199 27.256 12.3045 27.157C12.2891 27.058 12.2542 26.9631 12.2018 26.8777C12.1494 26.7922 12.0805 26.718 11.9992 26.6593C11.9179 26.6006 11.8257 26.5586 11.728 26.5357C11.6303 26.5127 11.5291 26.5094 11.43 26.5257C11.331 26.5421 11.2363 26.5779 11.1512 26.6311C11.0662 26.6842 10.9925 26.7537 10.9345 26.8354C10.0449 28.0637 8.30187 29.5568 6.67877 30.0968C6.4211 29.8763 6.17558 29.6496 5.94221 29.417C5.40952 28.8845 4.92116 28.3096 4.482 27.698C6.10015 27.6021 7.92865 26.9514 9.35469 25.9047C9.4362 25.8462 9.50527 25.7721 9.55791 25.6868C9.61055 25.6014 9.64571 25.5065 9.66136 25.4076C9.67701 25.3086 9.67284 25.2075 9.64909 25.1101C9.62533 25.0127 9.58247 24.921 9.52298 24.8403C9.46349 24.7596 9.38856 24.6914 9.30251 24.6398C9.21646 24.5882 9.12101 24.5541 9.02167 24.5395C8.92234 24.525 8.8211 24.5302 8.72381 24.5549C8.62652 24.5797 8.53511 24.6234 8.45487 24.6837C6.98782 25.7603 4.97139 26.3542 3.51915 26.1616C3.03555 25.2695 2.65022 24.3277 2.36989 23.3527C3.22003 23.5757 4.09505 23.6903 4.97405 23.6938C5.75199 23.6938 6.49615 23.596 7.16513 23.3975C7.26071 23.3691 7.34975 23.3222 7.42717 23.2594C7.50459 23.1967 7.56887 23.1193 7.61634 23.0318C7.66381 22.9443 7.69355 22.8483 7.70385 22.7492C7.71414 22.6502 7.7048 22.5502 7.67636 22.4548C7.64791 22.3594 7.60092 22.2705 7.53806 22.1932C7.47521 22.1159 7.39772 22.0518 7.31002 22.0044C7.22232 21.957 7.12613 21.9273 7.02694 21.9171C6.92775 21.9068 6.82751 21.9161 6.73193 21.9445C5.68403 22.2556 3.91894 22.3292 2.00085 21.6557C1.86238 20.7411 1.83104 19.8134 1.90745 18.8915C3.39348 19.6696 6.07092 20.8497 8.63408 20.8497C8.71267 20.8497 8.79164 20.8497 8.86985 20.8463C10.6653 20.7943 12.6339 20.3828 13.9692 20.0466C14.3245 19.9576 14.6491 19.7743 14.9085 19.5161L16.7632 17.6648C16.8237 17.6047 16.9056 17.5709 16.991 17.5709C17.0764 17.5709 17.1583 17.6047 17.2188 17.6648L18.6585 19.1019C18.7186 19.1623 18.7523 19.2441 18.7523 19.3293C18.7523 19.4144 18.7186 19.4962 18.6585 19.5566L17.537 20.6822ZM19.4251 17.7194L18.6084 16.9042L33.6536 1.88694L34.4703 2.70209L19.4251 17.7194Z" fill="#999999"/>
</svg>
