<svg width="31" height="32" viewBox="0 0 31 32" fill="none" xmlns="http://www.w3.org/2000/svg">
<path d="M0.232031 1.57376V1.57342C0.232426 1.45675 0.276163 1.3444 0.354747 1.25817C0.433289 1.17199 0.541041 1.11805 0.657098 1.10681L0.656934 1.10683L0.666884 1.20633L0.657285 1.10679L0.805083 1.09201C0.805088 1.09201 0.805093 1.09201 0.805098 1.09201C10.5898 0.112038 20.4479 0.112038 30.2326 1.09201C30.2326 1.09201 30.2326 1.09201 30.2327 1.09201L30.3804 1.10679L30.3808 1.10683L30.3708 1.20633C30.4623 1.21515 30.5472 1.25763 30.6091 1.32553C30.671 1.39343 30.7054 1.4819 30.7057 1.57376H0.232031ZM0.232031 1.57376V12.6825H0.2315L0.232559 12.6928C0.239268 12.7578 0.254111 12.8217 0.276736 12.8831L0.276163 12.8833L0.281114 12.8932L3.20175 18.7341L0.232031 1.57376ZM23.0042 17.2476C18.0472 16.4816 13.002 16.4816 8.045 17.2477C7.33685 17.3549 4.53155 17.9354 3.92979 18.0777L1.40489 13.031C3.06437 12.7089 4.69227 12.4591 6.2477 12.2513C12.409 11.4879 18.6411 11.4879 24.8024 12.2514C26.3571 12.4475 27.9739 12.7083 29.6446 13.0312L27.1254 18.0665C26.4499 17.9108 23.6495 17.3419 23.0042 17.2476ZM23.0042 17.2476C23.0043 17.2476 23.0044 17.2476 23.0046 17.2477L22.9893 17.3465L23.0038 17.2475C23.0039 17.2475 23.004 17.2476 23.0042 17.2476ZM29.8649 4.2305V12.1225C28.1676 11.792 26.5022 11.5211 24.9101 11.321L24.91 11.321C18.6732 10.5466 12.3645 10.5466 6.12775 11.321L6.1276 11.321C4.53559 11.5211 2.86741 11.7919 1.17285 12.1225V4.2305C10.7141 3.29771 20.3236 3.29771 29.8649 4.2305ZM23.4034 26.7324V18.274C24.0923 18.3971 26.3004 18.8513 26.8974 18.9891C26.7358 21.9166 25.4889 24.6768 23.4034 26.7324ZM1.17285 1.99925C10.714 1.06499 20.3237 1.06499 29.8649 1.99925V3.27991C20.3234 2.35129 10.7143 2.35129 1.17285 3.27991V1.99925ZM7.64024 26.7351C5.55224 24.6776 4.30502 21.9136 4.14614 18.983C4.69107 18.8569 6.92579 18.3995 7.64024 18.2713V26.7351ZM15.5248 29.9996C13.0059 29.9996 10.5613 29.1489 8.58699 27.5862V18.1292C13.188 17.4601 17.8616 17.4601 22.4626 18.1292V27.5862C20.4883 29.1489 18.0437 29.9996 15.5248 29.9996Z" fill="#07364A" stroke="#07364A" stroke-width="0.2"/>
<path d="M15.5214 19.6285H15.5212C14.8417 19.6285 14.1774 19.8301 13.6126 20.2078C13.0477 20.5855 12.6076 21.1223 12.348 21.7502C12.0884 22.3781 12.0209 23.069 12.1542 23.7353C12.2874 24.4015 12.6153 25.0133 13.0965 25.4931C13.5776 25.973 14.1903 26.2992 14.8569 26.4307C15.5236 26.5621 16.2143 26.4928 16.8416 26.2316C17.4688 25.9703 18.0045 25.5288 18.3807 24.9629C18.7568 24.3971 18.9567 23.7324 18.9549 23.0529L18.9549 23.0527C18.9509 22.1442 18.5875 21.2742 17.9442 20.6327C17.3009 19.9911 16.4299 19.6301 15.5214 19.6285ZM15.521 25.5548C15.028 25.5547 14.5461 25.4085 14.1362 25.1347C13.7263 24.8608 13.4067 24.4714 13.2181 24.016C13.0294 23.5605 12.98 23.0593 13.0762 22.5757C13.1724 22.0922 13.4098 21.648 13.7585 21.2994C14.1071 20.9508 14.5513 20.7134 15.0349 20.6172C15.5184 20.521 16.0197 20.5704 16.4752 20.759C16.9307 20.9477 17.32 21.2672 17.5939 21.6771C17.8678 22.087 18.014 22.5689 18.0141 23.0618C18.0126 23.7225 17.7494 24.3557 17.2822 24.8229C16.815 25.2901 16.1817 25.5533 15.521 25.5548Z" fill="#07364A" stroke="#07364A" stroke-width="0.2"/>
<path d="M15.5166 18.1476H15.5165C14.544 18.1476 13.5933 18.4361 12.7847 18.9765C11.9762 19.517 11.3462 20.2852 10.9745 21.1838C10.6027 22.0825 10.5059 23.0712 10.6963 24.0249C10.8867 24.9785 11.3557 25.8543 12.0441 26.5413C12.7324 27.2284 13.6091 27.6958 14.5631 27.8844C15.5172 28.073 16.5058 27.9744 17.4038 27.601C18.3018 27.2276 19.0689 26.5962 19.6079 25.7867C20.1469 24.9772 20.4336 24.0261 20.4318 23.0536L20.4318 23.0534C20.4278 21.752 19.9084 20.5051 18.9872 19.5857C18.0661 18.6662 16.8182 18.1492 15.5166 18.1476ZM15.5165 27.0369C14.7308 27.0369 13.9627 26.8041 13.3093 26.3677C12.6559 25.9314 12.1464 25.3112 11.8454 24.5855C11.5443 23.8598 11.4651 23.0612 11.6177 22.2905C11.7704 21.5198 12.1481 20.8116 12.703 20.2555C13.258 19.6993 13.9654 19.3201 14.7358 19.1658C15.5062 19.0114 16.3051 19.0889 17.0315 19.3884C17.7579 19.6879 18.3792 20.1959 18.817 20.8483C19.2547 21.5007 19.4893 22.2682 19.491 23.0538C19.4918 24.1089 19.0736 25.1212 18.3282 25.8681C17.583 26.6149 16.5716 27.0354 15.5165 27.0369Z" fill="#07364A" stroke="#07364A" stroke-width="0.2"/>
<path d="M15.5187 21.2114C15.0273 21.2114 14.5561 21.4065 14.2087 21.7538C13.8612 22.1012 13.666 22.5722 13.666 23.0634C13.666 23.1616 13.7051 23.2558 13.7745 23.3253C13.844 23.3947 13.9383 23.4338 14.0366 23.4338C14.1348 23.4338 14.2291 23.3947 14.2986 23.3253C14.368 23.2558 14.4071 23.1616 14.4071 23.0634C14.4071 22.7687 14.5242 22.486 14.7327 22.2777C14.9411 22.0693 15.2239 21.9522 15.5187 21.9522C15.617 21.9522 15.7112 21.9132 15.7807 21.8437C15.8502 21.7743 15.8892 21.68 15.8892 21.5818C15.8892 21.4836 15.8502 21.3894 15.7807 21.3199C15.7112 21.2504 15.617 21.2114 15.5187 21.2114Z" fill="#07364A"/>
</svg>
