<svg width="33" height="33" viewBox="0 0 33 33" fill="none" xmlns="http://www.w3.org/2000/svg">
<mask id="path-1-outside-1_572_2796" maskUnits="userSpaceOnUse" x="0" y="0" width="33" height="33" fill="black">
<rect fill="white" width="33" height="33"/>
<path d="M31.66 1.76454L31.5087 1.74942C21.5285 0.750193 11.4733 0.750193 1.493 1.74942L1.34178 1.76454C1.24844 1.77353 1.16178 1.81688 1.09862 1.88616C1.03547 1.95544 1.00032 2.04571 1 2.13944V13.4741C1.00597 13.5319 1.01918 13.5888 1.03932 13.6434L4.03061 19.6236C4.06857 21.4594 4.50312 23.2652 5.30446 24.9173C6.1058 26.5695 7.255 28.0289 8.67331 29.1957L8.69751 29.2199C10.8974 31.0244 13.6551 32.0107 16.5009 32.0107C19.3466 32.0107 22.1044 31.0244 24.3042 29.2199L24.3284 29.1957C25.7441 28.0313 26.8917 26.5752 27.6929 24.9269C28.4941 23.2786 28.9301 21.4769 28.9711 19.6448L31.9624 13.6646C31.9826 13.61 31.9958 13.5531 32.0017 13.4953V2.13944C32.0014 2.04571 31.9663 1.95544 31.9031 1.88616C31.84 1.81688 31.7533 1.77353 31.66 1.76454ZM1.75614 4.75768C11.5623 3.79323 21.4395 3.79323 31.2456 4.75768V13.0266C29.4732 12.6789 27.7341 12.3947 26.0736 12.1861C19.7162 11.397 13.2856 11.397 6.92814 12.1861C5.26766 12.3947 3.52551 12.6789 1.75614 13.0266V4.75768ZM31.2456 2.48108V3.99277C21.4393 3.03133 11.5624 3.03133 1.75614 3.99277V2.48108C11.5622 1.51511 21.4395 1.51511 31.2456 2.48108ZM4.78675 19.8232C5.16784 19.7264 7.97464 19.152 8.5614 19.0553V28.0528C6.28704 25.8999 4.93436 22.9508 4.78675 19.8232ZM9.32359 18.9434C14.0868 18.2421 18.927 18.2421 23.6902 18.9434V28.7301C21.6504 30.3584 19.1174 31.2454 16.5069 31.2454C13.8964 31.2454 11.3635 30.3584 9.32359 28.7301V18.9434ZM24.4464 28.0528V19.0583C24.9908 19.146 27.7401 19.7113 28.221 19.8292C28.0704 22.9565 26.7157 25.9043 24.4403 28.0559L24.4464 28.0528ZM28.4025 19.0855C27.8974 18.9615 24.8093 18.3327 24.1258 18.2329C19.0765 17.4529 13.9373 17.4529 8.88805 18.2329C8.12888 18.3478 4.98334 19.0008 4.61737 19.0976L1.94366 13.7553C3.68581 13.4136 5.39469 13.1506 7.02493 12.9329C13.3222 12.1529 19.6917 12.1529 25.9889 12.9329C27.6192 13.1385 29.3159 13.4136 31.0702 13.7553L28.4025 19.0855Z"/>
<path d="M16.5008 20.6638C15.8274 20.6638 15.1692 20.8635 14.6094 21.2376C14.0497 21.6118 13.6136 22.1435 13.3563 22.7655C13.099 23.3876 13.0322 24.0719 13.1642 24.732C13.2962 25.392 13.6212 25.998 14.098 26.4734C14.5748 26.9487 15.1819 27.2719 15.8425 27.4021C16.5032 27.5323 17.1876 27.4637 17.8092 27.2048C18.4308 26.946 18.9616 26.5086 19.3344 25.9481C19.7072 25.3876 19.9052 24.7291 19.9034 24.056C19.8994 23.156 19.5394 22.2941 18.9018 21.6585C18.2643 21.023 17.4011 20.6653 16.5008 20.6638ZM16.5008 26.7105C15.9773 26.7105 15.4657 26.5554 15.0305 26.2647C14.5952 25.974 14.256 25.5608 14.0557 25.0774C13.8554 24.594 13.803 24.0621 13.9051 23.549C14.0072 23.0358 14.2593 22.5644 14.6294 22.1944C14.9995 21.8245 15.4711 21.5725 15.9845 21.4704C16.4978 21.3684 17.03 21.4207 17.5135 21.621C17.9971 21.8212 18.4104 22.1603 18.7013 22.5953C18.9921 23.0304 19.1473 23.5418 19.1473 24.0651C19.1457 24.7662 18.8663 25.4381 18.3704 25.9339C17.8744 26.4297 17.2022 26.7089 16.5008 26.7105Z"/>
<path d="M16.5013 19.152C15.5288 19.152 14.5782 19.4403 13.7697 19.9806C12.9613 20.5208 12.3313 21.2887 11.9596 22.1869C11.5879 23.0852 11.4911 24.0735 11.6815 25.0268C11.8718 25.98 12.3408 26.8554 13.0291 27.5422C13.7174 28.2289 14.594 28.6961 15.548 28.8846C16.502 29.0732 17.4905 28.9746 18.3884 28.6014C19.2863 28.2281 20.0533 27.597 20.5923 26.7879C21.1312 25.9787 21.418 25.028 21.4162 24.0559C21.4122 22.7549 20.8928 21.5086 19.9717 20.5895C19.0505 19.6704 17.8027 19.1536 16.5013 19.152ZM16.5013 28.2221C15.6791 28.2221 14.8754 27.9785 14.1917 27.5221C13.508 27.0657 12.975 26.417 12.6599 25.6579C12.3449 24.8988 12.262 24.0634 12.4217 23.2573C12.5815 22.4511 12.9767 21.7104 13.5574 21.1286C14.1381 20.5469 14.8783 20.1502 15.6844 19.9888C16.4905 19.8274 17.3264 19.9084 18.0865 20.2217C18.8465 20.5349 19.4967 21.0663 19.9547 21.7488C20.4128 22.4312 20.6582 23.2341 20.66 24.0559C20.6608 25.1595 20.2232 26.2183 19.4434 26.9995C18.6636 27.7808 17.6053 28.2205 16.5013 28.2221Z"/>
<path d="M16.5003 22.1756C15.9989 22.1756 15.5181 22.3746 15.1636 22.729C14.8091 23.0834 14.61 23.564 14.61 24.0652C14.61 24.1654 14.6498 24.2615 14.7207 24.3324C14.7916 24.4033 14.8877 24.4431 14.988 24.4431C15.0883 24.4431 15.1845 24.4033 15.2554 24.3324C15.3263 24.2615 15.3661 24.1654 15.3661 24.0652C15.3661 23.7645 15.4856 23.4761 15.6983 23.2635C15.911 23.0508 16.1995 22.9314 16.5003 22.9314C16.6006 22.9314 16.6967 22.8916 16.7676 22.8207C16.8385 22.7498 16.8784 22.6537 16.8784 22.5535C16.8784 22.4532 16.8385 22.3571 16.7676 22.2862C16.6967 22.2154 16.6006 22.1756 16.5003 22.1756Z"/>
</mask>
<path d="M31.66 1.76454L31.5087 1.74942C21.5285 0.750193 11.4733 0.750193 1.493 1.74942L1.34178 1.76454C1.24844 1.77353 1.16178 1.81688 1.09862 1.88616C1.03547 1.95544 1.00032 2.04571 1 2.13944V13.4741C1.00597 13.5319 1.01918 13.5888 1.03932 13.6434L4.03061 19.6236C4.06857 21.4594 4.50312 23.2652 5.30446 24.9173C6.1058 26.5695 7.255 28.0289 8.67331 29.1957L8.69751 29.2199C10.8974 31.0244 13.6551 32.0107 16.5009 32.0107C19.3466 32.0107 22.1044 31.0244 24.3042 29.2199L24.3284 29.1957C25.7441 28.0313 26.8917 26.5752 27.6929 24.9269C28.4941 23.2786 28.9301 21.4769 28.9711 19.6448L31.9624 13.6646C31.9826 13.61 31.9958 13.5531 32.0017 13.4953V2.13944C32.0014 2.04571 31.9663 1.95544 31.9031 1.88616C31.84 1.81688 31.7533 1.77353 31.66 1.76454ZM1.75614 4.75768C11.5623 3.79323 21.4395 3.79323 31.2456 4.75768V13.0266C29.4732 12.6789 27.7341 12.3947 26.0736 12.1861C19.7162 11.397 13.2856 11.397 6.92814 12.1861C5.26766 12.3947 3.52551 12.6789 1.75614 13.0266V4.75768ZM31.2456 2.48108V3.99277C21.4393 3.03133 11.5624 3.03133 1.75614 3.99277V2.48108C11.5622 1.51511 21.4395 1.51511 31.2456 2.48108ZM4.78675 19.8232C5.16784 19.7264 7.97464 19.152 8.5614 19.0553V28.0528C6.28704 25.8999 4.93436 22.9508 4.78675 19.8232ZM9.32359 18.9434C14.0868 18.2421 18.927 18.2421 23.6902 18.9434V28.7301C21.6504 30.3584 19.1174 31.2454 16.5069 31.2454C13.8964 31.2454 11.3635 30.3584 9.32359 28.7301V18.9434ZM24.4464 28.0528V19.0583C24.9908 19.146 27.7401 19.7113 28.221 19.8292C28.0704 22.9565 26.7157 25.9043 24.4403 28.0559L24.4464 28.0528ZM28.4025 19.0855C27.8974 18.9615 24.8093 18.3327 24.1258 18.2329C19.0765 17.4529 13.9373 17.4529 8.88805 18.2329C8.12888 18.3478 4.98334 19.0008 4.61737 19.0976L1.94366 13.7553C3.68581 13.4136 5.39469 13.1506 7.02493 12.9329C13.3222 12.1529 19.6917 12.1529 25.9889 12.9329C27.6192 13.1385 29.3159 13.4136 31.0702 13.7553L28.4025 19.0855Z" fill="#999999"/>
<path d="M16.5008 20.6638C15.8274 20.6638 15.1692 20.8635 14.6094 21.2376C14.0497 21.6118 13.6136 22.1435 13.3563 22.7655C13.099 23.3876 13.0322 24.0719 13.1642 24.732C13.2962 25.392 13.6212 25.998 14.098 26.4734C14.5748 26.9487 15.1819 27.2719 15.8425 27.4021C16.5032 27.5323 17.1876 27.4637 17.8092 27.2048C18.4308 26.946 18.9616 26.5086 19.3344 25.9481C19.7072 25.3876 19.9052 24.7291 19.9034 24.056C19.8994 23.156 19.5394 22.2941 18.9018 21.6585C18.2643 21.023 17.4011 20.6653 16.5008 20.6638ZM16.5008 26.7105C15.9773 26.7105 15.4657 26.5554 15.0305 26.2647C14.5952 25.974 14.256 25.5608 14.0557 25.0774C13.8554 24.594 13.803 24.0621 13.9051 23.549C14.0072 23.0358 14.2593 22.5644 14.6294 22.1944C14.9995 21.8245 15.4711 21.5725 15.9845 21.4704C16.4978 21.3684 17.03 21.4207 17.5135 21.621C17.9971 21.8212 18.4104 22.1603 18.7013 22.5953C18.9921 23.0304 19.1473 23.5418 19.1473 24.0651C19.1457 24.7662 18.8663 25.4381 18.3704 25.9339C17.8744 26.4297 17.2022 26.7089 16.5008 26.7105Z" fill="#999999"/>
<path d="M16.5013 19.152C15.5288 19.152 14.5782 19.4403 13.7697 19.9806C12.9613 20.5208 12.3313 21.2887 11.9596 22.1869C11.5879 23.0852 11.4911 24.0735 11.6815 25.0268C11.8718 25.98 12.3408 26.8554 13.0291 27.5422C13.7174 28.2289 14.594 28.6961 15.548 28.8846C16.502 29.0732 17.4905 28.9746 18.3884 28.6014C19.2863 28.2281 20.0533 27.597 20.5923 26.7879C21.1312 25.9787 21.418 25.028 21.4162 24.0559C21.4122 22.7549 20.8928 21.5086 19.9717 20.5895C19.0505 19.6704 17.8027 19.1536 16.5013 19.152ZM16.5013 28.2221C15.6791 28.2221 14.8754 27.9785 14.1917 27.5221C13.508 27.0657 12.975 26.417 12.6599 25.6579C12.3449 24.8988 12.262 24.0634 12.4217 23.2573C12.5815 22.4511 12.9767 21.7104 13.5574 21.1286C14.1381 20.5469 14.8783 20.1502 15.6844 19.9888C16.4905 19.8274 17.3264 19.9084 18.0865 20.2217C18.8465 20.5349 19.4967 21.0663 19.9547 21.7488C20.4128 22.4312 20.6582 23.2341 20.66 24.0559C20.6608 25.1595 20.2232 26.2183 19.4434 26.9995C18.6636 27.7808 17.6053 28.2205 16.5013 28.2221Z" fill="#999999"/>
<path d="M16.5003 22.1756C15.9989 22.1756 15.5181 22.3746 15.1636 22.729C14.8091 23.0834 14.61 23.564 14.61 24.0652C14.61 24.1654 14.6498 24.2615 14.7207 24.3324C14.7916 24.4033 14.8877 24.4431 14.988 24.4431C15.0883 24.4431 15.1845 24.4033 15.2554 24.3324C15.3263 24.2615 15.3661 24.1654 15.3661 24.0652C15.3661 23.7645 15.4856 23.4761 15.6983 23.2635C15.911 23.0508 16.1995 22.9314 16.5003 22.9314C16.6006 22.9314 16.6967 22.8916 16.7676 22.8207C16.8385 22.7498 16.8784 22.6537 16.8784 22.5535C16.8784 22.4532 16.8385 22.3571 16.7676 22.2862C16.6967 22.2154 16.6006 22.1756 16.5003 22.1756Z" fill="#999999"/>
<path d="M31.66 1.76454L31.5087 1.74942C21.5285 0.750193 11.4733 0.750193 1.493 1.74942L1.34178 1.76454C1.24844 1.77353 1.16178 1.81688 1.09862 1.88616C1.03547 1.95544 1.00032 2.04571 1 2.13944V13.4741C1.00597 13.5319 1.01918 13.5888 1.03932 13.6434L4.03061 19.6236C4.06857 21.4594 4.50312 23.2652 5.30446 24.9173C6.1058 26.5695 7.255 28.0289 8.67331 29.1957L8.69751 29.2199C10.8974 31.0244 13.6551 32.0107 16.5009 32.0107C19.3466 32.0107 22.1044 31.0244 24.3042 29.2199L24.3284 29.1957C25.7441 28.0313 26.8917 26.5752 27.6929 24.9269C28.4941 23.2786 28.9301 21.4769 28.9711 19.6448L31.9624 13.6646C31.9826 13.61 31.9958 13.5531 32.0017 13.4953V2.13944C32.0014 2.04571 31.9663 1.95544 31.9031 1.88616C31.84 1.81688 31.7533 1.77353 31.66 1.76454ZM1.75614 4.75768C11.5623 3.79323 21.4395 3.79323 31.2456 4.75768V13.0266C29.4732 12.6789 27.7341 12.3947 26.0736 12.1861C19.7162 11.397 13.2856 11.397 6.92814 12.1861C5.26766 12.3947 3.52551 12.6789 1.75614 13.0266V4.75768ZM31.2456 2.48108V3.99277C21.4393 3.03133 11.5624 3.03133 1.75614 3.99277V2.48108C11.5622 1.51511 21.4395 1.51511 31.2456 2.48108ZM4.78675 19.8232C5.16784 19.7264 7.97464 19.152 8.5614 19.0553V28.0528C6.28704 25.8999 4.93436 22.9508 4.78675 19.8232ZM9.32359 18.9434C14.0868 18.2421 18.927 18.2421 23.6902 18.9434V28.7301C21.6504 30.3584 19.1174 31.2454 16.5069 31.2454C13.8964 31.2454 11.3635 30.3584 9.32359 28.7301V18.9434ZM24.4464 28.0528V19.0583C24.9908 19.146 27.7401 19.7113 28.221 19.8292C28.0704 22.9565 26.7157 25.9043 24.4403 28.0559L24.4464 28.0528ZM28.4025 19.0855C27.8974 18.9615 24.8093 18.3327 24.1258 18.2329C19.0765 17.4529 13.9373 17.4529 8.88805 18.2329C8.12888 18.3478 4.98334 19.0008 4.61737 19.0976L1.94366 13.7553C3.68581 13.4136 5.39469 13.1506 7.02493 12.9329C13.3222 12.1529 19.6917 12.1529 25.9889 12.9329C27.6192 13.1385 29.3159 13.4136 31.0702 13.7553L28.4025 19.0855Z" stroke="#999999" stroke-width="0.4" mask="url(#path-1-outside-1_572_2796)"/>
<path d="M16.5008 20.6638C15.8274 20.6638 15.1692 20.8635 14.6094 21.2376C14.0497 21.6118 13.6136 22.1435 13.3563 22.7655C13.099 23.3876 13.0322 24.0719 13.1642 24.732C13.2962 25.392 13.6212 25.998 14.098 26.4734C14.5748 26.9487 15.1819 27.2719 15.8425 27.4021C16.5032 27.5323 17.1876 27.4637 17.8092 27.2048C18.4308 26.946 18.9616 26.5086 19.3344 25.9481C19.7072 25.3876 19.9052 24.7291 19.9034 24.056C19.8994 23.156 19.5394 22.2941 18.9018 21.6585C18.2643 21.023 17.4011 20.6653 16.5008 20.6638ZM16.5008 26.7105C15.9773 26.7105 15.4657 26.5554 15.0305 26.2647C14.5952 25.974 14.256 25.5608 14.0557 25.0774C13.8554 24.594 13.803 24.0621 13.9051 23.549C14.0072 23.0358 14.2593 22.5644 14.6294 22.1944C14.9995 21.8245 15.4711 21.5725 15.9845 21.4704C16.4978 21.3684 17.03 21.4207 17.5135 21.621C17.9971 21.8212 18.4104 22.1603 18.7013 22.5953C18.9921 23.0304 19.1473 23.5418 19.1473 24.0651C19.1457 24.7662 18.8663 25.4381 18.3704 25.9339C17.8744 26.4297 17.2022 26.7089 16.5008 26.7105Z" stroke="#999999" stroke-width="0.4" mask="url(#path-1-outside-1_572_2796)"/>
<path d="M16.5013 19.152C15.5288 19.152 14.5782 19.4403 13.7697 19.9806C12.9613 20.5208 12.3313 21.2887 11.9596 22.1869C11.5879 23.0852 11.4911 24.0735 11.6815 25.0268C11.8718 25.98 12.3408 26.8554 13.0291 27.5422C13.7174 28.2289 14.594 28.6961 15.548 28.8846C16.502 29.0732 17.4905 28.9746 18.3884 28.6014C19.2863 28.2281 20.0533 27.597 20.5923 26.7879C21.1312 25.9787 21.418 25.028 21.4162 24.0559C21.4122 22.7549 20.8928 21.5086 19.9717 20.5895C19.0505 19.6704 17.8027 19.1536 16.5013 19.152ZM16.5013 28.2221C15.6791 28.2221 14.8754 27.9785 14.1917 27.5221C13.508 27.0657 12.975 26.417 12.6599 25.6579C12.3449 24.8988 12.262 24.0634 12.4217 23.2573C12.5815 22.4511 12.9767 21.7104 13.5574 21.1286C14.1381 20.5469 14.8783 20.1502 15.6844 19.9888C16.4905 19.8274 17.3264 19.9084 18.0865 20.2217C18.8465 20.5349 19.4967 21.0663 19.9547 21.7488C20.4128 22.4312 20.6582 23.2341 20.66 24.0559C20.6608 25.1595 20.2232 26.2183 19.4434 26.9995C18.6636 27.7808 17.6053 28.2205 16.5013 28.2221Z" stroke="#999999" stroke-width="0.4" mask="url(#path-1-outside-1_572_2796)"/>
<path d="M16.5003 22.1756C15.9989 22.1756 15.5181 22.3746 15.1636 22.729C14.8091 23.0834 14.61 23.564 14.61 24.0652C14.61 24.1654 14.6498 24.2615 14.7207 24.3324C14.7916 24.4033 14.8877 24.4431 14.988 24.4431C15.0883 24.4431 15.1845 24.4033 15.2554 24.3324C15.3263 24.2615 15.3661 24.1654 15.3661 24.0652C15.3661 23.7645 15.4856 23.4761 15.6983 23.2635C15.911 23.0508 16.1995 22.9314 16.5003 22.9314C16.6006 22.9314 16.6967 22.8916 16.7676 22.8207C16.8385 22.7498 16.8784 22.6537 16.8784 22.5535C16.8784 22.4532 16.8385 22.3571 16.7676 22.2862C16.6967 22.2154 16.6006 22.1756 16.5003 22.1756Z" stroke="#999999" stroke-width="0.4" mask="url(#path-1-outside-1_572_2796)"/>
</svg>
