<svg width="33" height="29" viewBox="0 0 33 29" fill="none" xmlns="http://www.w3.org/2000/svg">
<path d="M16.3926 20.2319C16.6065 20.2319 16.816 20.2935 16.996 20.4093C17.176 20.5251 17.319 20.6904 17.408 20.8853C17.4971 21.0803 17.5283 21.2967 17.4981 21.5089C17.4678 21.7212 17.3774 21.9202 17.2375 22.0824M22.4546 18.0659V26.6429M10.302 26.5483V16.0398C10.3023 15.6849 10.443 15.3448 10.6934 15.0939C10.9438 14.843 11.2832 14.7019 11.6373 14.7017H21.1252C21.4794 14.7017 21.819 14.8426 22.0694 15.0936C22.3199 15.3445 22.4606 15.6849 22.4606 16.0398V16.5181M31.9105 5.89506C27.2635 4.32178 22.0511 3.43506 16.4861 3.43506C11.5824 3.43506 6.94527 4.12362 2.73362 5.36363M31.1451 12.3346C31.1451 12.3346 24.9849 9.36719 16.4897 9.36719C7.99453 9.36719 1.83435 12.1785 1.83435 12.1785M1.8332 12.1781C1.8332 12.1781 0.840459 10.3476 1.02223 6.2733C1.13708 3.7032 2.79298 3.17077 4.21817 2.70939C6.64009 1.92275 11.3811 1 16.4866 1C21.5921 1 26.3331 1.92275 28.755 2.70939C30.1822 3.17277 31.7512 3.71021 31.9509 6.2733C32.2426 10.0424 31.139 12.3322 31.139 12.3322V12.5154C31.139 21.0674 24.5773 28 16.4836 28C8.38987 28 1.82821 21.0674 1.82821 12.5154L1.8332 12.1781ZM19.5003 18.2363C21.2172 19.9568 21.2172 22.7463 19.5003 24.4668C17.7834 26.1873 14.9997 26.1873 13.2828 24.4668C11.5659 22.7463 11.5659 19.9568 13.2828 18.2363C14.9997 16.5159 17.7834 16.5158 19.5003 18.2363ZM19.0459 21.351C19.0459 22.8191 17.8582 24.0092 16.3932 24.0092C14.9282 24.0092 13.7406 22.8191 13.7406 21.351C13.7406 19.883 14.9282 18.6929 16.3932 18.6929C17.8582 18.6929 19.0459 19.883 19.0459 21.351Z" stroke="#07364A" stroke-width="1.3" stroke-linecap="round" stroke-linejoin="round"/>
</svg>
