<svg width="30" height="35" viewBox="0 0 30 35" fill="none" xmlns="http://www.w3.org/2000/svg">
<g clip-path="url(#clip0_572_2447)">
<path d="M27.9956 32.0998H2.00681C0.900024 32.0998 0 31.1177 0 29.9106V2.18928C0 0.979793 0.900024 0.012207 2.00681 0.012207H27.9956C29.1024 0.012207 30 0.994307 30 2.18928V29.9034C30 31.1128 29.1024 32.0998 27.9956 32.0998ZM2.00681 1.45149C1.71005 1.45149 1.4595 1.79015 1.4595 2.17718V29.9034C1.4595 30.3025 1.70275 30.6411 2.00681 30.6411H27.9956C28.2924 30.6411 28.5405 30.3025 28.5405 29.9034V2.18928C28.5405 1.79015 28.2972 1.46359 27.9956 1.46359L2.00681 1.45149Z" fill="#07364A"/>
<path d="M29.0303 20.3508H0.97389C0.780348 20.3508 0.59473 20.2743 0.457875 20.1382C0.32102 20.0022 0.244141 19.8176 0.244141 19.6251C0.244141 19.4326 0.32102 19.2481 0.457875 19.112C0.59473 18.9759 0.780348 18.8994 0.97389 18.8994H29.0303C29.2239 18.8994 29.4095 18.9759 29.5463 19.112C29.6832 19.2481 29.7601 19.4326 29.7601 19.6251C29.7601 19.8176 29.6832 20.0022 29.5463 20.1382C29.4095 20.2743 29.2239 20.3508 29.0303 20.3508Z" fill="#07364A"/>
<path d="M3.27077 34.8211C3.07722 34.8211 2.8916 34.7447 2.75475 34.6086C2.6179 34.4725 2.54102 34.2879 2.54102 34.0954V32.5836C2.54102 32.3911 2.6179 32.2065 2.75475 32.0705C2.8916 31.9344 3.07722 31.8579 3.27077 31.8579C3.46431 31.8579 3.64993 31.9344 3.78678 32.0705C3.92363 32.2065 4.00051 32.3911 4.00051 32.5836V34.0954C4.00051 34.2879 3.92363 34.4725 3.78678 34.6086C3.64993 34.7447 3.46431 34.8211 3.27077 34.8211Z" fill="#07364A"/>
<path d="M26.7278 35.0023C26.5343 35.0023 26.3486 34.9258 26.2118 34.7897C26.0749 34.6536 25.998 34.4691 25.998 34.2766V32.7648C25.998 32.5723 26.0749 32.3877 26.2118 32.2516C26.3486 32.1155 26.5343 32.0391 26.7278 32.0391C26.9213 32.0391 27.107 32.1155 27.2438 32.2516C27.3807 32.3877 27.4575 32.5723 27.4575 32.7648V34.2766C27.4575 34.4691 27.3807 34.6536 27.2438 34.7897C27.107 34.9258 26.9213 35.0023 26.7278 35.0023Z" fill="#07364A"/>
<path d="M15.0012 31.6156C14.8077 31.6156 14.6221 31.5392 14.4852 31.4031C14.3484 31.267 14.2715 31.0824 14.2715 30.89V19.7023C14.2715 19.5098 14.3484 19.3252 14.4852 19.1891C14.6221 19.053 14.8077 18.9766 15.0012 18.9766C15.1948 18.9766 15.3804 19.053 15.5172 19.1891C15.6541 19.3252 15.731 19.5098 15.731 19.7023V30.89C15.731 31.0824 15.6541 31.267 15.5172 31.4031C15.3804 31.5392 15.1948 31.6156 15.0012 31.6156Z" fill="#07364A"/>
<path d="M11.5348 24.1173C11.5348 24.3647 11.461 24.6064 11.3228 24.8121C11.1846 25.0178 10.9882 25.1781 10.7584 25.2727C10.5286 25.3674 10.2757 25.3921 10.0318 25.3439C9.78783 25.2956 9.56375 25.1765 9.38788 25.0016C9.212 24.8267 9.09222 24.6039 9.0437 24.3613C8.99517 24.1187 9.02007 23.8672 9.11526 23.6387C9.21044 23.4102 9.37164 23.2149 9.57845 23.0775C9.78526 22.9401 10.0284 22.8667 10.2771 22.8667C10.6105 22.8673 10.93 22.9993 11.1657 23.2337C11.4014 23.4681 11.5341 23.7858 11.5348 24.1173Z" fill="#07364A"/>
<path d="M20.98 24.1173C20.98 24.3647 20.9063 24.6064 20.7681 24.8121C20.6299 25.0178 20.4335 25.1781 20.2037 25.2727C19.9739 25.3674 19.721 25.3921 19.4771 25.3439C19.2331 25.2956 19.0091 25.1765 18.8332 25.0016C18.6573 24.8267 18.5375 24.6039 18.489 24.3613C18.4405 24.1187 18.4654 23.8672 18.5606 23.6387C18.6558 23.4102 18.8169 23.2149 19.0237 23.0775C19.2305 22.9401 19.4737 22.8667 19.7224 22.8667C20.056 22.8667 20.3758 22.9985 20.6117 23.233C20.8475 23.4675 20.98 23.7856 20.98 24.1173Z" fill="#07364A"/>
<path d="M28.6994 14.0588H1.61842C1.42488 14.0588 1.23926 13.9823 1.10241 13.8463C0.965552 13.7102 0.888672 13.5256 0.888672 13.3331C0.888672 13.1406 0.965552 12.9561 1.10241 12.82C1.23926 12.6839 1.42488 12.6074 1.61842 12.6074H28.6994C28.893 12.6074 29.0786 12.6839 29.2154 12.82C29.3523 12.9561 29.4292 13.1406 29.4292 13.3331C29.4292 13.5256 29.3523 13.7102 29.2154 13.8463C29.0786 13.9823 28.893 14.0588 28.6994 14.0588Z" fill="#07364A"/>
<path d="M28.6994 7.76974H1.61842C1.42488 7.76974 1.23926 7.69328 1.10241 7.55719C0.965552 7.4211 0.888672 7.23651 0.888672 7.04405C0.888672 6.85158 0.965552 6.667 1.10241 6.5309C1.23926 6.39481 1.42488 6.31836 1.61842 6.31836H28.6994C28.893 6.31836 29.0786 6.39481 29.2154 6.5309C29.3523 6.667 29.4292 6.85158 29.4292 7.04405C29.4292 7.23651 29.3523 7.4211 29.2154 7.55719C29.0786 7.69328 28.893 7.76974 28.6994 7.76974Z" fill="#07364A"/>
</g>
<defs>
<clipPath id="clip0_572_2447">
<rect width="30" height="35" fill="white"/>
</clipPath>
</defs>
</svg>
