<svg width="14" height="20" viewBox="0 0 14 20" fill="none" xmlns="http://www.w3.org/2000/svg">
<path d="M9.31867 2.82816H7.71168C7.86679 2.67954 7.97296 2.48938 8.01668 2.28186C8.06039 2.07434 8.03968 1.85886 7.95717 1.66283C7.87466 1.46681 7.73409 1.2991 7.55334 1.18106C7.3726 1.06303 7.15986 1 6.94219 1C6.72453 1 6.51178 1.06303 6.33104 1.18106C6.15029 1.2991 6.00972 1.46681 5.92721 1.66283C5.8447 1.85886 5.82399 2.07434 5.86771 2.28186C5.91142 2.48938 6.01759 2.67954 6.17271 2.82816H4.56572C4.25525 2.84279 3.96248 2.97313 3.74807 3.19214C3.53366 3.41116 3.41406 3.70207 3.41406 4.00457C3.41406 4.30708 3.53366 4.59799 3.74807 4.817C3.96248 5.03602 4.25525 5.16635 4.56572 5.18098H9.31867C9.62913 5.16635 9.92191 5.03602 10.1363 4.817C10.3507 4.59799 10.4703 4.30708 10.4703 4.00457C10.4703 3.70207 10.3507 3.41116 10.1363 3.19214C9.92191 2.97313 9.62913 2.84279 9.31867 2.82816V2.82816Z" stroke="#555555" stroke-linecap="round" stroke-linejoin="round"/>
<path d="M11.3278 4.10254H11.7785C12.1015 4.10398 12.4109 4.22932 12.6396 4.45136C12.8683 4.6734 12.9978 4.97423 13 5.2886V17.803C13.0004 17.9601 12.9689 18.1157 12.9074 18.2609C12.8459 18.4061 12.7556 18.5381 12.6416 18.6493C12.5276 18.7605 12.3922 18.8487 12.2431 18.9089C12.094 18.9691 11.9342 19.0001 11.7728 19.0001H2.23004C1.90381 19.0001 1.59095 18.874 1.36027 18.6495C1.12959 18.425 1 18.1205 1 17.803V5.2886C1.00299 4.97303 1.1339 4.67136 1.36425 4.44925C1.59461 4.22713 1.90577 4.10253 2.23004 4.10254H2.63817" stroke="#555555" stroke-linecap="round" stroke-linejoin="round"/>
<path d="M3.75078 8.96533H3.62891" stroke="#555555" stroke-linecap="round" stroke-linejoin="round"/>
<path d="M5.46875 8.96533H10.5051" stroke="#555555" stroke-linecap="round" stroke-linejoin="round"/>
<path d="M3.75078 11.9995H3.62891" stroke="#555555" stroke-linecap="round" stroke-linejoin="round"/>
<path d="M5.46875 11.9995H10.5051" stroke="#555555" stroke-linecap="round" stroke-linejoin="round"/>
<path d="M3.75078 15.0312H3.62891" stroke="#555555" stroke-linecap="round" stroke-linejoin="round"/>
<path d="M5.46875 15.0312H10.5051" stroke="#555555" stroke-linecap="round" stroke-linejoin="round"/>
</svg>
