<svg width="19" height="18" viewBox="0 0 19 18" fill="none" xmlns="http://www.w3.org/2000/svg">
<path d="M11.1179 15.8232C11.1179 16.4728 10.3927 16.9998 9.49843 16.9998C8.60415 16.9998 7.87891 16.4728 7.87891 15.8232" stroke="#555555" stroke-linejoin="round"/>
<path d="M9.5 1.70459V2.88114" stroke="#555555" stroke-linecap="round" stroke-linejoin="round"/>
<path d="M13.9552 7.19488C13.9552 6.05073 13.486 4.95344 12.6508 4.14441C11.8155 3.33537 10.6827 2.88086 9.50153 2.88086C8.32034 2.88086 7.18753 3.33537 6.3523 4.14441C5.51707 4.95344 5.04784 6.05073 5.04784 7.19488V9.94017C5.04784 11.5089 4.23808 13.0776 3.02344 14.2542V15.0386H15.9796V14.2542C14.765 13.0776 13.9552 11.5089 13.9552 9.94017V7.19488Z" stroke="#555555" stroke-linecap="round" stroke-linejoin="round"/>
<path d="M14.7617 2.8042C15.3189 3.11597 15.7256 3.62912 15.8926 4.23102C16.0596 4.83292 15.9732 5.47441 15.6525 6.01472" stroke="#555555" stroke-linecap="round" stroke-linejoin="round"/>
<path d="M15.5742 1C16.6257 1.52129 17.4205 2.42559 17.7841 3.51421C18.1477 4.60284 18.0502 5.78674 17.5131 6.80579" stroke="#555555" stroke-linecap="round" stroke-linejoin="round"/>
<path d="M4.23752 2.8042C3.68038 3.11597 3.27368 3.62912 3.10668 4.23102C2.93969 4.83292 3.02604 5.47441 3.34679 6.01472" stroke="#555555" stroke-linecap="round" stroke-linejoin="round"/>
<path d="M3.42629 1C2.3749 1.52139 1.58012 2.42566 1.2165 3.51422C0.852873 4.60278 0.950131 5.78663 1.48691 6.80579" stroke="#555555" stroke-linecap="round" stroke-linejoin="round"/>
</svg>
