<svg width="30" height="35" viewBox="0 0 30 35" fill="none" xmlns="http://www.w3.org/2000/svg">
<g clip-path="url(#clip0_572_2671)">
<path d="M27.9956 32.0998H2.00681C0.900024 32.0998 0 31.1177 0 29.9106V2.18928C0 0.979793 0.900024 0.012207 2.00681 0.012207H27.9956C29.1024 0.012207 30 0.994307 30 2.18928V29.9034C30 31.1128 29.1024 32.0998 27.9956 32.0998ZM2.00681 1.45149C1.71005 1.45149 1.4595 1.79015 1.4595 2.17718V29.9034C1.4595 30.3025 1.70275 30.6411 2.00681 30.6411H27.9956C28.2924 30.6411 28.5405 30.3025 28.5405 29.9034V2.18928C28.5405 1.79015 28.2972 1.46359 27.9956 1.46359L2.00681 1.45149Z" fill="#999999"/>
<path d="M29.0284 20.3508H0.971937C0.778395 20.3508 0.592776 20.2743 0.455922 20.1382C0.319067 20.0022 0.242188 19.8176 0.242188 19.6251C0.242188 19.4326 0.319067 19.2481 0.455922 19.112C0.592776 18.9759 0.778395 18.8994 0.971937 18.8994H29.0284C29.2219 18.8994 29.4075 18.9759 29.5444 19.112C29.6812 19.2481 29.7581 19.4326 29.7581 19.6251C29.7581 19.8176 29.6812 20.0022 29.5444 20.1382C29.4075 20.2743 29.2219 20.3508 29.0284 20.3508Z" fill="#999999"/>
<path d="M3.27272 34.8211C3.07918 34.8211 2.89356 34.7447 2.7567 34.6086C2.61985 34.4725 2.54297 34.2879 2.54297 34.0954V32.5836C2.54297 32.3911 2.61985 32.2065 2.7567 32.0705C2.89356 31.9344 3.07918 31.8579 3.27272 31.8579C3.46626 31.8579 3.65188 31.9344 3.78873 32.0705C3.92559 32.2065 4.00247 32.3911 4.00247 32.5836V34.0954C4.00247 34.2879 3.92559 34.4725 3.78873 34.6086C3.65188 34.7447 3.46626 34.8211 3.27272 34.8211Z" fill="#999999"/>
<path d="M26.7297 35.0023C26.5362 35.0023 26.3506 34.9258 26.2137 34.7897C26.0769 34.6536 26 34.4691 26 34.2766V32.7648C26 32.5723 26.0769 32.3877 26.2137 32.2516C26.3506 32.1155 26.5362 32.0391 26.7297 32.0391C26.9233 32.0391 27.1089 32.1155 27.2458 32.2516C27.3826 32.3877 27.4595 32.5723 27.4595 32.7648V34.2766C27.4595 34.4691 27.3826 34.6536 27.2458 34.7897C27.1089 34.9258 26.9233 35.0023 26.7297 35.0023Z" fill="#999999"/>
<path d="M14.9993 31.6156C14.8057 31.6156 14.6201 31.5392 14.4833 31.4031C14.3464 31.267 14.2695 31.0824 14.2695 30.89V19.7023C14.2695 19.5098 14.3464 19.3252 14.4833 19.1891C14.6201 19.053 14.8057 18.9766 14.9993 18.9766C15.1928 18.9766 15.3784 19.053 15.5153 19.1891C15.6521 19.3252 15.729 19.5098 15.729 19.7023V30.89C15.729 31.0824 15.6521 31.267 15.5153 31.4031C15.3784 31.5392 15.1928 31.6156 14.9993 31.6156Z" fill="#999999"/>
<path d="M11.5348 24.1173C11.5348 24.3647 11.461 24.6064 11.3228 24.8121C11.1846 25.0178 10.9882 25.1781 10.7584 25.2727C10.5286 25.3674 10.2757 25.3921 10.0318 25.3439C9.78783 25.2956 9.56375 25.1765 9.38788 25.0016C9.212 24.8267 9.09222 24.6039 9.0437 24.3613C8.99517 24.1187 9.02007 23.8672 9.11526 23.6387C9.21044 23.4102 9.37164 23.2149 9.57845 23.0775C9.78526 22.9401 10.0284 22.8667 10.2771 22.8667C10.6105 22.8673 10.93 22.9993 11.1657 23.2337C11.4014 23.4681 11.5341 23.7858 11.5348 24.1173Z" fill="#999999"/>
<path d="M20.98 24.1173C20.98 24.3647 20.9063 24.6064 20.7681 24.8121C20.6299 25.0178 20.4335 25.1781 20.2037 25.2727C19.9739 25.3674 19.721 25.3921 19.4771 25.3439C19.2331 25.2956 19.0091 25.1765 18.8332 25.0016C18.6573 24.8267 18.5375 24.6039 18.489 24.3613C18.4405 24.1187 18.4654 23.8672 18.5606 23.6387C18.6558 23.4102 18.8169 23.2149 19.0237 23.0775C19.2305 22.9401 19.4737 22.8667 19.7224 22.8667C20.056 22.8667 20.3758 22.9985 20.6117 23.233C20.8475 23.4675 20.98 23.7856 20.98 24.1173Z" fill="#999999"/>
<path d="M28.6975 14.0588H1.61647C1.42293 14.0588 1.23731 13.9823 1.10045 13.8463C0.963599 13.7102 0.886719 13.5256 0.886719 13.3331C0.886719 13.1406 0.963599 12.9561 1.10045 12.82C1.23731 12.6839 1.42293 12.6074 1.61647 12.6074H28.6975C28.891 12.6074 29.0766 12.6839 29.2135 12.82C29.3503 12.9561 29.4272 13.1406 29.4272 13.3331C29.4272 13.5256 29.3503 13.7102 29.2135 13.8463C29.0766 13.9823 28.891 14.0588 28.6975 14.0588Z" fill="#999999"/>
<path d="M28.6975 7.76974H1.61647C1.42293 7.76974 1.23731 7.69328 1.10045 7.55719C0.963599 7.4211 0.886719 7.23651 0.886719 7.04405C0.886719 6.85158 0.963599 6.667 1.10045 6.5309C1.23731 6.39481 1.42293 6.31836 1.61647 6.31836H28.6975C28.891 6.31836 29.0766 6.39481 29.2135 6.5309C29.3503 6.667 29.4272 6.85158 29.4272 7.04405C29.4272 7.23651 29.3503 7.4211 29.2135 7.55719C29.0766 7.69328 28.891 7.76974 28.6975 7.76974Z" fill="#999999"/>
</g>
<defs>
<clipPath id="clip0_572_2671">
<rect width="30" height="35" fill="white"/>
</clipPath>
</defs>
</svg>
