<svg width="209" height="29" viewBox="0 0 209 29" fill="none" xmlns="http://www.w3.org/2000/svg">
<g clip-path="url(#clip0_234_8599)">
<g filter="url(#filter0_d_234_8599)">
<path d="M0 25.9695L0.812162 22.189C1.41396 22.3436 2.03644 22.4102 2.65877 22.3867C3.10072 22.4293 3.54659 22.3606 3.95271 22.1874C4.35883 22.0141 4.7113 21.7423 4.97559 21.3983C5.33126 20.691 5.58439 19.94 5.7279 19.1663L9.04496 4.01151H6.7196L7.50611 0.428711H17.1666L16.3117 4.01151H14.4651L11.1224 19.1004C10.5325 21.7525 9.65194 23.5645 8.49781 24.5281C6.83315 25.7677 4.75909 26.385 2.65877 26.266C1.76213 26.2955 0.865946 26.1955 0 25.9695Z" fill="white"/>
</g>
<g filter="url(#filter1_d_234_8599)">
<path d="M33.5462 18.5733L32.7597 22.0573C31.7531 22.2766 30.7224 22.3762 29.6906 22.3538C28.8744 22.4119 28.0588 22.2341 27.3481 21.8431C27.0763 21.6373 26.8631 21.3684 26.7285 21.0616C26.594 20.7547 26.5424 20.42 26.5787 20.0888C26.5612 19.9025 26.5612 19.715 26.5787 19.5287C26.0133 20.4148 25.221 21.146 24.2779 21.6522C23.3347 22.1585 22.2724 22.4227 21.1928 22.4197C18.4799 22.4197 17.1263 21.2254 17.132 18.8369C17.1756 17.5187 17.356 16.2081 17.6705 14.9246L18.8332 9.52986H16.8926L17.6364 6.07885H24.6381L22.9283 14.0022C22.7106 14.8672 22.5732 15.7493 22.5179 16.6378C22.4869 16.8611 22.5098 17.0884 22.5848 17.3018C22.6598 17.5153 22.7848 17.7092 22.9502 17.8685C23.1156 18.0279 23.3169 18.1483 23.5385 18.2206C23.76 18.2928 23.9959 18.3149 24.2277 18.285C24.6791 18.2834 25.1233 18.1752 25.5212 17.9699C25.9191 17.7645 26.2588 17.4684 26.5103 17.1072C27.123 16.0188 27.5393 14.8379 27.7414 13.6151L28.5963 9.49691H26.6471L27.3994 6.0459H34.4353L32.1442 16.5389C32.0398 16.9584 31.9711 17.3854 31.939 17.8156C31.9156 17.9286 31.9215 18.0454 31.9561 18.1556C31.9908 18.2659 32.0532 18.3662 32.1378 18.4477C32.2223 18.5292 32.3265 18.5893 32.4409 18.6227C32.5554 18.6561 32.6766 18.6618 32.7939 18.6392C33.046 18.6351 33.2975 18.613 33.5462 18.5733Z" fill="white"/>
</g>
<g filter="url(#filter2_d_234_8599)">
<path d="M36.2059 16.5053L40.9164 16.3077C40.8903 16.5155 40.8903 16.7257 40.9164 16.9336C40.9164 18.202 41.8739 18.8362 43.7804 18.8362C45.4902 18.8362 46.3451 18.3667 46.3451 17.4196C46.3451 16.7689 45.8493 16.3241 44.8747 16.11L41.9081 15.3852C40.7035 15.1151 39.5927 14.5473 38.6851 13.7379C38.3288 13.3752 38.0526 12.9465 37.8734 12.4779C37.6941 12.0093 37.6154 11.5105 37.6421 11.0117C37.5986 10.2199 37.7744 9.43116 38.1514 8.72633C38.5285 8.02151 39.0933 7.42594 39.7879 7.00065C41.3904 6.06381 43.2405 5.59461 45.114 5.64988C49.8217 5.64988 52.1756 7.1846 52.1756 10.254C52.1878 10.6724 52.165 11.0911 52.1072 11.5059H47.5334C47.5566 11.364 47.5566 11.2195 47.5334 11.0776C47.5334 9.80924 46.6785 9.1668 44.9687 9.1668C43.447 9.1668 42.6861 9.61978 42.6861 10.5175C42.6861 11.1353 43.1477 11.5635 44.0796 11.8024L47.2599 12.626C48.4809 12.8689 49.6188 13.4043 50.5684 14.1827C50.9 14.5364 51.1555 14.9501 51.3198 15.3997C51.4842 15.8493 51.5542 16.3259 51.5259 16.8018C51.5837 18.002 51.1684 19.1789 50.3632 20.0964C48.9953 21.6063 46.6842 22.3613 43.4299 22.3613C40.8651 22.3613 38.9929 21.9001 37.8387 20.9859C37.3136 20.5971 36.8869 20.0986 36.5907 19.528C36.2946 18.9573 36.1367 18.3294 36.1289 17.6914C36.1284 17.2949 36.1541 16.8987 36.2059 16.5053Z" fill="white"/>
</g>
<g filter="url(#filter3_d_234_8599)">
<path d="M63.8185 18.5395L63.1004 21.9905C61.7744 22.3167 60.4073 22.4609 59.0395 22.4188C57.9781 22.4672 56.934 22.1455 56.0986 21.5128C55.7254 21.2041 55.4304 20.8173 55.2363 20.3819C55.0421 19.9465 54.954 19.474 54.9787 19.0007C54.9945 18.0939 55.1092 17.1912 55.3207 16.3074L56.7142 9.59484H54.5684L55.4233 6.07795H57.6033L58.5266 2.00098H63.5107L62.6558 6.07795H65.5882L64.7332 9.59484H61.8009L60.6724 14.9896C60.4737 15.8026 60.3365 16.6284 60.2621 17.4605C60.2621 18.2842 60.7921 18.7454 61.8351 18.7454C62.5027 18.76 63.1694 18.6907 63.8185 18.5395Z" fill="white"/>
</g>
<g filter="url(#filter4_d_234_8599)">
<path d="M73.5398 14.7594L78.6265 14.5288C78.5989 14.8357 78.5989 15.1443 78.6265 15.4512C78.6265 17.5103 79.9801 18.5398 82.6873 18.5398C83.7658 18.6089 84.8423 18.3803 85.7907 17.8809C86.1223 17.6947 86.3957 17.4259 86.5822 17.1027C86.7688 16.7795 86.8615 16.4139 86.8508 16.0443C86.8754 15.5389 86.6979 15.0436 86.3549 14.6605C85.8389 14.216 85.2111 13.9094 84.534 13.771L80.7467 12.6921C79.3373 12.3556 78.0418 11.6748 76.9851 10.7154C76.1383 9.79497 75.6994 8.5916 75.7626 7.36319C75.6963 6.29636 75.9154 5.23099 76.3989 4.2691C76.8824 3.3072 77.6141 2.48099 78.5239 1.86957C80.6191 0.554896 83.0872 -0.0985597 85.5855 -6.37146e-05C90.96 -6.37146e-05 93.6473 1.93821 93.6473 5.81476C93.6596 6.44227 93.6253 7.06983 93.5447 7.69263H88.4153C88.4368 7.41848 88.4368 7.14316 88.4153 6.86901C88.4269 6.37839 88.3576 5.8891 88.2101 5.41941C88.0231 4.9244 87.6427 4.51945 87.15 4.29104C86.4802 3.9483 85.7278 3.78344 84.97 3.81335C83.997 3.76317 83.0311 3.99868 82.2 4.48873C81.9409 4.6605 81.7202 4.88061 81.551 5.13603C81.3818 5.39146 81.2675 5.677 81.2149 5.97575C81.1623 6.2745 81.1724 6.58041 81.2447 6.87531C81.317 7.17022 81.45 7.44814 81.6358 7.69263C82.1034 8.10351 82.6757 8.3877 83.2943 8.51626L87.3552 9.59522C88.8171 9.90577 90.1555 10.6148 91.2108 11.6378C92.0468 12.542 92.4879 13.7223 92.4419 14.9323C92.4644 16.1548 92.1706 17.3635 91.587 18.4492C90.1336 21.0574 86.959 22.3615 82.0633 22.3615C78.997 22.3615 76.7571 21.8124 75.3437 20.7142C74.6897 20.2038 74.165 19.5566 73.8095 18.8216C73.454 18.0866 73.277 17.2833 73.2919 16.4725C73.3077 15.8943 73.3908 15.3197 73.5398 14.7594Z" fill="white"/>
</g>
<g filter="url(#filter5_d_234_8599)">
<path d="M112.822 18.54L112.07 21.958C111.215 22.1835 110.332 22.2944 109.446 22.2875C107.189 22.2875 106.069 21.5792 106.069 20.1543C106.069 19.8784 106.091 19.603 106.137 19.3306C105.666 20.2743 104.923 21.0674 103.997 21.6151C103.071 22.1628 102 22.442 100.914 22.4193C100.148 22.4692 99.3804 22.3605 98.6622 22.1005C97.944 21.8405 97.292 21.4353 96.7501 20.912C95.7328 19.7364 95.2191 18.2312 95.3139 16.7033C95.2697 14.0416 96.082 11.432 97.6392 9.23294C98.4143 8.12732 99.462 7.22427 100.689 6.60473C101.915 5.98519 103.282 5.66851 104.667 5.6831C106.559 5.6831 107.833 6.29809 108.488 7.52805L108.898 6.07845H113.575L111.455 15.7149C111.29 16.3718 111.187 17.0417 111.147 17.7163C111.128 17.8315 111.137 17.9492 111.173 18.0606C111.208 18.1721 111.269 18.2743 111.351 18.3599C111.434 18.4454 111.535 18.5119 111.647 18.5545C111.76 18.5971 111.881 18.6146 112.002 18.6059C112.277 18.6188 112.553 18.5967 112.822 18.54ZM106.778 14.3642C106.986 13.5552 107.101 12.7265 107.12 11.8933C107.12 10.246 106.394 9.42238 104.94 9.42238C104.261 9.44323 103.604 9.6536 103.047 10.0279C102.49 10.4022 102.057 10.9244 101.803 11.5309C101.018 12.9226 100.617 14.4854 100.64 16.0691C100.64 17.8893 101.401 18.7953 102.923 18.7953C104.88 18.7376 106.171 17.3045 106.778 14.3642Z" fill="white"/>
</g>
<g filter="url(#filter6_d_234_8599)">
<path d="M112.686 28.671L113.472 25.0882C113.992 25.2427 114.535 25.3177 115.079 25.3106C115.577 25.3381 116.075 25.2683 116.543 25.1055C117.012 24.9428 117.442 24.6903 117.806 24.3634C118.396 23.5988 118.89 22.7693 119.277 21.8925C118.681 18.0049 117.848 14.1546 116.781 10.3617C116.734 10.0935 116.593 9.84892 116.381 9.66898C116.169 9.48905 115.9 9.38466 115.618 9.37332C115.327 9.37025 115.038 9.41482 114.763 9.5051L115.507 6.11997C116.335 5.85922 117.2 5.72582 118.072 5.72465C118.928 5.67636 119.778 5.88343 120.508 6.31766C121.164 6.83748 121.586 7.58087 121.688 8.3932C122.32 11.1935 122.833 13.8951 123.227 16.4812C124.042 14.9658 125.384 12.6623 127.253 9.57098H125.543L126.33 6.08704H134.52L133.768 9.57098H132.237C130.596 11.9156 127.852 16.1353 124.005 22.2302C123.203 23.5933 122.303 24.9005 121.312 26.1424C120.612 27.0537 119.709 27.8023 118.67 28.3333C117.598 28.8045 116.428 29.0354 115.25 29.0086C114.382 29.0231 113.518 28.9092 112.686 28.671Z" fill="white"/>
</g>
<g filter="url(#filter7_d_234_8599)">
<path d="M156.61 18.4413L155.824 22.0323H145.274L146.061 18.4825H148.489L149.472 14.0761L145.069 4.05252H143.359L144.112 0.469727H153.661L152.917 4.05252H150.934C152.074 7.09995 152.835 9.14804 153.216 10.1968C154.037 9.09862 155.687 7.05053 158.166 4.05252H156.089L156.841 0.469727H166.083L165.305 4.05252H163.689L154.849 14.0761L153.892 18.4825L156.61 18.4413Z" fill="#07364A"/>
</g>
<g filter="url(#filter8_d_234_8599)">
<path d="M174.358 16.3736L178.487 17.4196C177.75 18.9153 176.625 20.203 175.222 21.1589C173.681 22.0633 171.894 22.5023 170.092 22.4191C167.67 22.4191 165.838 21.87 164.595 20.7718C163.951 20.1631 163.449 19.4283 163.125 18.617C162.801 17.8057 162.661 16.9368 162.714 16.0689C162.638 13.4027 163.588 10.8035 165.382 8.77154C166.262 7.76027 167.373 6.9579 168.627 6.42657C169.881 5.89525 171.245 5.64925 172.614 5.70763C176.82 5.70763 178.926 7.16546 178.932 10.0811C178.945 10.8741 178.734 11.6555 178.321 12.3417C177.908 13.0279 177.31 13.5931 176.59 13.9769C175.034 14.9048 172.754 15.3716 169.75 15.3771H168.109C168.089 15.6293 168.089 15.8826 168.109 16.1348C168.109 17.9028 168.964 18.7896 170.674 18.7951C171.465 18.7778 172.234 18.5398 172.888 18.1101C173.542 17.6803 174.053 17.0772 174.358 16.3736ZM168.622 12.5602H169.673C172.58 12.5602 174.042 11.8602 174.042 10.4517C174.042 9.52928 173.435 9.07628 172.23 9.07628C171.814 9.0711 171.401 9.14811 171.017 9.30252C170.634 9.45693 170.287 9.68545 169.998 9.97403C169.307 10.7014 168.831 11.5948 168.622 12.5602Z" fill="#07364A"/>
</g>
<g filter="url(#filter9_d_234_8599)">
<path d="M180.464 16.5053L185.174 16.3077C185.148 16.5155 185.148 16.7257 185.174 16.9336C185.174 18.202 186.132 18.8362 188.038 18.8362C189.748 18.8362 190.603 18.3667 190.603 17.4196C190.603 16.7689 190.107 16.3241 189.132 16.11L186.166 15.3852C184.961 15.1151 183.851 14.5473 182.943 13.7379C182.587 13.3752 182.31 12.9465 182.131 12.4779C181.952 12.0093 181.873 11.5105 181.9 11.0117C181.856 10.2199 182.032 9.43116 182.409 8.72633C182.786 8.02151 183.351 7.42594 184.046 7.00065C185.648 6.06381 187.498 5.59461 189.372 5.64988C194.08 5.64988 196.433 7.1846 196.433 10.254C196.446 10.6724 196.423 11.0911 196.365 11.5059H191.791C191.814 11.364 191.814 11.2195 191.791 11.0776C191.791 9.80924 190.936 9.1668 189.227 9.1668C187.705 9.1668 186.944 9.61978 186.944 10.5175C186.944 11.1353 187.406 11.5635 188.337 11.8024L191.518 12.626C192.739 12.8689 193.877 13.4043 194.826 14.1827C195.156 14.5371 195.41 14.9511 195.573 15.4007C195.736 15.8502 195.805 16.3265 195.775 16.8018C195.836 18.001 195.424 19.1781 194.621 20.0964C193.253 21.6063 190.942 22.3613 187.688 22.3613C185.123 22.3613 183.251 21.9001 182.097 20.9859C181.571 20.5971 181.145 20.0986 180.849 19.528C180.552 18.9573 180.394 18.3294 180.387 17.6914C180.386 17.2949 180.412 16.8987 180.464 16.5053Z" fill="#07364A"/>
</g>
<g filter="url(#filter10_d_234_8599)">
<path d="M205.273 19.0345C205.289 19.4679 205.213 19.8998 205.052 20.3045C204.89 20.7092 204.646 21.0784 204.333 21.3901C204.016 21.6998 203.636 21.9424 203.216 22.1027C202.797 22.2629 202.347 22.3372 201.896 22.3208C201.525 22.3379 201.155 22.2825 200.806 22.158C200.458 22.0334 200.14 21.8423 199.87 21.596C199.61 21.3422 199.407 21.0392 199.275 20.706C199.142 20.3729 199.083 20.0168 199.101 19.6605C199.081 19.2072 199.156 18.7546 199.322 18.33C199.488 17.9054 199.741 17.5175 200.067 17.1896C200.379 16.8801 200.755 16.6362 201.169 16.4732C201.584 16.3101 202.03 16.2316 202.478 16.2424C202.853 16.2255 203.228 16.2842 203.578 16.4146C203.928 16.5451 204.247 16.7445 204.512 17.0002C204.775 17.2724 204.978 17.5929 205.108 17.9425C205.239 18.2921 205.295 18.6635 205.273 19.0345ZM205.376 14.3645H200.802C202.17 6.36984 203.025 1.72456 203.367 0.428711H209.001C209.001 0.428711 208.89 0.947596 208.659 1.91948C208.428 2.89136 208.026 4.5304 207.436 6.82009C206.846 9.10978 206.154 11.6301 205.376 14.3645Z" fill="white"/>
</g>
</g>
<defs>
<filter id="filter0_d_234_8599" x="-2" y="-1.57129" width="25.166" height="33.8516" filterUnits="userSpaceOnUse" color-interpolation-filters="sRGB">
<feFlood flood-opacity="0" result="BackgroundImageFix"/>
<feColorMatrix in="SourceAlpha" type="matrix" values="0 0 0 0 0 0 0 0 0 0 0 0 0 0 0 0 0 0 127 0" result="hardAlpha"/>
<feOffset dx="2" dy="2"/>
<feGaussianBlur stdDeviation="2"/>
<feComposite in2="hardAlpha" operator="out"/>
<feColorMatrix type="matrix" values="0 0 0 0 0 0 0 0 0 0 0 0 0 0 0 0 0 0 0.12 0"/>
<feBlend mode="normal" in2="BackgroundImageFix" result="effect1_dropShadow_234_8599"/>
<feBlend mode="normal" in="SourceGraphic" in2="effect1_dropShadow_234_8599" result="shape"/>
</filter>
<filter id="filter1_d_234_8599" x="14.8926" y="4.0459" width="25.543" height="24.374" filterUnits="userSpaceOnUse" color-interpolation-filters="sRGB">
<feFlood flood-opacity="0" result="BackgroundImageFix"/>
<feColorMatrix in="SourceAlpha" type="matrix" values="0 0 0 0 0 0 0 0 0 0 0 0 0 0 0 0 0 0 127 0" result="hardAlpha"/>
<feOffset dx="2" dy="2"/>
<feGaussianBlur stdDeviation="2"/>
<feComposite in2="hardAlpha" operator="out"/>
<feColorMatrix type="matrix" values="0 0 0 0 0 0 0 0 0 0 0 0 0 0 0 0 0 0 0.12 0"/>
<feBlend mode="normal" in2="BackgroundImageFix" result="effect1_dropShadow_234_8599"/>
<feBlend mode="normal" in="SourceGraphic" in2="effect1_dropShadow_234_8599" result="shape"/>
</filter>
<filter id="filter2_d_234_8599" x="34.1289" y="3.64551" width="24.0508" height="24.7158" filterUnits="userSpaceOnUse" color-interpolation-filters="sRGB">
<feFlood flood-opacity="0" result="BackgroundImageFix"/>
<feColorMatrix in="SourceAlpha" type="matrix" values="0 0 0 0 0 0 0 0 0 0 0 0 0 0 0 0 0 0 127 0" result="hardAlpha"/>
<feOffset dx="2" dy="2"/>
<feGaussianBlur stdDeviation="2"/>
<feComposite in2="hardAlpha" operator="out"/>
<feColorMatrix type="matrix" values="0 0 0 0 0 0 0 0 0 0 0 0 0 0 0 0 0 0 0.12 0"/>
<feBlend mode="normal" in2="BackgroundImageFix" result="effect1_dropShadow_234_8599"/>
<feBlend mode="normal" in="SourceGraphic" in2="effect1_dropShadow_234_8599" result="shape"/>
</filter>
<filter id="filter3_d_234_8599" x="52.5684" y="0.000976562" width="19.0195" height="28.4248" filterUnits="userSpaceOnUse" color-interpolation-filters="sRGB">
<feFlood flood-opacity="0" result="BackgroundImageFix"/>
<feColorMatrix in="SourceAlpha" type="matrix" values="0 0 0 0 0 0 0 0 0 0 0 0 0 0 0 0 0 0 127 0" result="hardAlpha"/>
<feOffset dx="2" dy="2"/>
<feGaussianBlur stdDeviation="2"/>
<feComposite in2="hardAlpha" operator="out"/>
<feColorMatrix type="matrix" values="0 0 0 0 0 0 0 0 0 0 0 0 0 0 0 0 0 0 0.12 0"/>
<feBlend mode="normal" in2="BackgroundImageFix" result="effect1_dropShadow_234_8599"/>
<feBlend mode="normal" in="SourceGraphic" in2="effect1_dropShadow_234_8599" result="shape"/>
</filter>
<filter id="filter4_d_234_8599" x="71.291" y="-2.00977" width="28.3594" height="30.3711" filterUnits="userSpaceOnUse" color-interpolation-filters="sRGB">
<feFlood flood-opacity="0" result="BackgroundImageFix"/>
<feColorMatrix in="SourceAlpha" type="matrix" values="0 0 0 0 0 0 0 0 0 0 0 0 0 0 0 0 0 0 127 0" result="hardAlpha"/>
<feOffset dx="2" dy="2"/>
<feGaussianBlur stdDeviation="2"/>
<feComposite in2="hardAlpha" operator="out"/>
<feColorMatrix type="matrix" values="0 0 0 0 0 0 0 0 0 0 0 0 0 0 0 0 0 0 0.12 0"/>
<feBlend mode="normal" in2="BackgroundImageFix" result="effect1_dropShadow_234_8599"/>
<feBlend mode="normal" in="SourceGraphic" in2="effect1_dropShadow_234_8599" result="shape"/>
</filter>
<filter id="filter5_d_234_8599" x="93.3027" y="3.68262" width="26.2715" height="24.748" filterUnits="userSpaceOnUse" color-interpolation-filters="sRGB">
<feFlood flood-opacity="0" result="BackgroundImageFix"/>
<feColorMatrix in="SourceAlpha" type="matrix" values="0 0 0 0 0 0 0 0 0 0 0 0 0 0 0 0 0 0 127 0" result="hardAlpha"/>
<feOffset dx="2" dy="2"/>
<feGaussianBlur stdDeviation="2"/>
<feComposite in2="hardAlpha" operator="out"/>
<feColorMatrix type="matrix" values="0 0 0 0 0 0 0 0 0 0 0 0 0 0 0 0 0 0 0.12 0"/>
<feBlend mode="normal" in2="BackgroundImageFix" result="effect1_dropShadow_234_8599"/>
<feBlend mode="normal" in="SourceGraphic" in2="effect1_dropShadow_234_8599" result="shape"/>
</filter>
<filter id="filter6_d_234_8599" x="110.686" y="3.71777" width="29.834" height="31.293" filterUnits="userSpaceOnUse" color-interpolation-filters="sRGB">
<feFlood flood-opacity="0" result="BackgroundImageFix"/>
<feColorMatrix in="SourceAlpha" type="matrix" values="0 0 0 0 0 0 0 0 0 0 0 0 0 0 0 0 0 0 127 0" result="hardAlpha"/>
<feOffset dx="2" dy="2"/>
<feGaussianBlur stdDeviation="2"/>
<feComposite in2="hardAlpha" operator="out"/>
<feColorMatrix type="matrix" values="0 0 0 0 0 0 0 0 0 0 0 0 0 0 0 0 0 0 0.12 0"/>
<feBlend mode="normal" in2="BackgroundImageFix" result="effect1_dropShadow_234_8599"/>
<feBlend mode="normal" in="SourceGraphic" in2="effect1_dropShadow_234_8599" result="shape"/>
</filter>
<filter id="filter7_d_234_8599" x="141.359" y="-1.53027" width="30.7227" height="29.5625" filterUnits="userSpaceOnUse" color-interpolation-filters="sRGB">
<feFlood flood-opacity="0" result="BackgroundImageFix"/>
<feColorMatrix in="SourceAlpha" type="matrix" values="0 0 0 0 0 0 0 0 0 0 0 0 0 0 0 0 0 0 127 0" result="hardAlpha"/>
<feOffset dx="2" dy="2"/>
<feGaussianBlur stdDeviation="2"/>
<feComposite in2="hardAlpha" operator="out"/>
<feColorMatrix type="matrix" values="0 0 0 0 0 0 0 0 0 0 0 0 0 0 0 0 0 0 0.12 0"/>
<feBlend mode="normal" in2="BackgroundImageFix" result="effect1_dropShadow_234_8599"/>
<feBlend mode="normal" in="SourceGraphic" in2="effect1_dropShadow_234_8599" result="shape"/>
</filter>
<filter id="filter8_d_234_8599" x="160.703" y="3.69922" width="24.2285" height="24.7295" filterUnits="userSpaceOnUse" color-interpolation-filters="sRGB">
<feFlood flood-opacity="0" result="BackgroundImageFix"/>
<feColorMatrix in="SourceAlpha" type="matrix" values="0 0 0 0 0 0 0 0 0 0 0 0 0 0 0 0 0 0 127 0" result="hardAlpha"/>
<feOffset dx="2" dy="2"/>
<feGaussianBlur stdDeviation="2"/>
<feComposite in2="hardAlpha" operator="out"/>
<feColorMatrix type="matrix" values="0 0 0 0 0 0 0 0 0 0 0 0 0 0 0 0 0 0 0.12 0"/>
<feBlend mode="normal" in2="BackgroundImageFix" result="effect1_dropShadow_234_8599"/>
<feBlend mode="normal" in="SourceGraphic" in2="effect1_dropShadow_234_8599" result="shape"/>
</filter>
<filter id="filter9_d_234_8599" x="178.387" y="3.64551" width="24.0508" height="24.7158" filterUnits="userSpaceOnUse" color-interpolation-filters="sRGB">
<feFlood flood-opacity="0" result="BackgroundImageFix"/>
<feColorMatrix in="SourceAlpha" type="matrix" values="0 0 0 0 0 0 0 0 0 0 0 0 0 0 0 0 0 0 127 0" result="hardAlpha"/>
<feOffset dx="2" dy="2"/>
<feGaussianBlur stdDeviation="2"/>
<feComposite in2="hardAlpha" operator="out"/>
<feColorMatrix type="matrix" values="0 0 0 0 0 0 0 0 0 0 0 0 0 0 0 0 0 0 0.12 0"/>
<feBlend mode="normal" in2="BackgroundImageFix" result="effect1_dropShadow_234_8599"/>
<feBlend mode="normal" in="SourceGraphic" in2="effect1_dropShadow_234_8599" result="shape"/>
</filter>
<filter id="filter10_d_234_8599" x="197.098" y="-1.57129" width="17.9023" height="29.8955" filterUnits="userSpaceOnUse" color-interpolation-filters="sRGB">
<feFlood flood-opacity="0" result="BackgroundImageFix"/>
<feColorMatrix in="SourceAlpha" type="matrix" values="0 0 0 0 0 0 0 0 0 0 0 0 0 0 0 0 0 0 127 0" result="hardAlpha"/>
<feOffset dx="2" dy="2"/>
<feGaussianBlur stdDeviation="2"/>
<feComposite in2="hardAlpha" operator="out"/>
<feColorMatrix type="matrix" values="0 0 0 0 0 0 0 0 0 0 0 0 0 0 0 0 0 0 0.12 0"/>
<feBlend mode="normal" in2="BackgroundImageFix" result="effect1_dropShadow_234_8599"/>
<feBlend mode="normal" in="SourceGraphic" in2="effect1_dropShadow_234_8599" result="shape"/>
</filter>
<clipPath id="clip0_234_8599">
<rect width="209" height="29" fill="white"/>
</clipPath>
</defs>
</svg>
