<svg width="247" height="35" viewBox="0 0 247 35" fill="none" xmlns="http://www.w3.org/2000/svg">
<g clip-path="url(#clip0_788_6120)">
<path d="M13.8541 19.3553C12.8616 24.0938 11.1877 27.537 4.40816 27.537C2.67542 27.537 0.967907 27.3197 -0.0078125 27.094L1.16978 21.6451C1.78381 21.7705 2.54083 21.8541 3.31468 21.8541C5.60257 21.8541 6.09043 20.8679 6.52783 18.8705L10.4475 0.493042H17.8916L13.8541 19.3469V19.3553Z" fill="white"/>
<path d="M36.9431 21.3443C36.4047 23.8348 36.043 25.7402 35.8075 27.1777H28.7167C28.7252 26.6929 28.885 25.4477 29.0111 24.8293C27.4382 26.7514 25.5793 27.6206 22.8288 27.6206C18.7324 27.6206 16.9156 24.8042 17.8913 20.2161L20.7343 6.86963H27.9345L25.2176 19.5642C24.8475 21.3109 25.1335 22.2553 26.7232 22.2553C28.313 22.2553 29.7682 20.9181 30.4579 17.617L32.771 6.86963H40.0048L36.9431 21.3443Z" fill="white"/>
<path d="M47.1215 20.7926C47.2392 22.1966 48.1897 22.9237 49.8552 22.9237C51.4197 22.9237 52.1683 22.3053 52.1683 21.2272C52.1683 20.2661 51.2935 19.773 49.0393 19.1295C43.7485 17.667 42.2597 15.9371 42.2597 13.2795C42.2597 9.53546 45.2373 6.43494 51.3272 6.43494C57.417 6.43494 60.3442 9.2931 60.2096 12.8031H53.5646C53.5562 11.6833 52.9085 10.881 51.1842 10.881C50.1916 10.881 49.1738 11.1735 49.1738 12.2516C49.1738 13.1123 50.158 13.4717 52.7992 14.2322C57.703 15.6613 59.3011 17.6587 59.3011 20.4583C59.3011 25.5061 54.5908 27.6288 49.401 27.6288C43.5046 27.6288 40.241 25.13 40.3503 20.801H47.1299L47.1215 20.7926Z" fill="white"/>
<path d="M62.9354 6.86953H65.7617L66.9477 1.60449H74.0384L72.9197 6.86953H76.36L75.2917 11.7501H71.8515L69.9589 20.6088C69.6982 21.8122 69.8664 22.4808 71.3889 22.4808C71.902 22.4808 72.3982 22.4557 72.9281 22.3889L71.9608 27.0271C70.615 27.4283 68.8318 27.4533 67.5869 27.4533C62.6242 27.4533 61.8756 24.8543 62.6831 21.0183L64.6513 11.7501H61.8672L62.9354 6.86953Z" fill="white"/>
<path d="M91.7351 18.8287C91.9202 20.9849 93.266 22.4725 96.0586 22.4725C98.2792 22.4725 99.625 21.7036 99.625 19.7898C99.625 18.0766 98.3969 17.2158 95.2258 16.1879C89.4893 14.3326 87.2098 12.1263 87.2098 8.56608C87.2098 3.71055 90.793 0.00830078 98.0184 0.00830078C104.571 0.00830078 108.625 3.02525 108.709 8.20673H101.391C101.341 6.98657 100.811 5.24827 97.8922 5.24827C96.1258 5.24827 94.8305 5.99206 94.8305 7.61336C94.8305 8.8753 95.8146 9.66924 98.9605 10.6805C104.958 12.611 107.456 14.9844 107.456 18.8956C107.456 23.9768 103.721 27.679 95.6212 27.679C88.2192 27.679 84.5518 24.2275 84.4004 18.8371H91.7267L91.7351 18.8287Z" fill="white"/>
<path d="M129.14 21.62C128.643 23.9433 128.164 26.2833 128.088 27.1775H121.157C121.183 26.5925 121.283 25.7485 121.376 25.0715C120.215 26.4337 118.735 27.6205 115.37 27.6205C111.61 27.6205 109.676 25.1467 109.676 22.3053C109.676 16.9817 113.924 15.0094 119.416 14.4829C120.947 14.3409 122.52 14.3158 123.63 14.2907L123.815 13.3547C124.076 12.051 123.95 10.8058 121.965 10.8058C119.98 10.8058 119.753 11.9089 119.349 12.8031H112.309C113.099 9.48532 115.488 6.43494 122.402 6.43494C128.719 6.43494 131.89 8.98389 130.772 14.1319L129.131 21.62H129.14ZM122.772 18.2687C121.721 18.2687 120.754 18.3607 119.98 18.5028C117.784 18.9123 117.027 19.773 117.027 20.9932C117.027 21.9376 117.633 22.6563 118.903 22.6563C121.603 22.6563 122.251 20.5252 122.655 18.7702L122.772 18.2687Z" fill="white"/>
<path d="M141.094 6.86963C141.455 13.5053 141.514 18.9709 141.455 21.4279H141.59C142.633 18.7285 144.677 13.781 147.789 6.86963H155.107L145.072 26.3586C141.228 33.9136 139.134 35.0084 133.532 35.0084C132.767 35.0084 131.227 34.8914 130.395 34.7493L131.547 29.409C131.867 29.4759 132.506 29.5344 133.111 29.5344C134.911 29.5344 135.795 28.8909 136.325 27.9716L133.877 6.86963H141.102H141.094Z" fill="white"/>
<path d="M168.69 27.1776L170.717 17.6755C170.793 17.3245 170.81 17.0654 170.667 16.6642L165.199 0.493042H172.963C173.821 4.14514 175.125 9.05083 175.655 12.1012C177.413 9.0174 180.92 3.95293 183.2 0.493042H191.224L178.607 17.1322C178.413 17.383 178.228 17.7089 178.153 18.1351L176.243 27.1776H168.69Z" fill="#07364A"/>
<path d="M193.117 18.5112C193.041 18.8622 192.983 19.1714 192.974 19.5307C192.907 21.3108 193.479 22.7901 195.321 22.7901C196.911 22.7901 197.718 21.8791 198.231 20.6924H205.507C204.304 24.2359 201.116 27.6205 194.799 27.6205C188.482 27.6205 185.766 23.7929 185.766 19.0711C185.766 13.8813 188.735 6.42664 197.508 6.42664C203.976 6.42664 206.584 9.92831 206.584 14.6167C206.584 16.121 206.34 17.4164 206.02 18.5112H193.109H193.117ZM199.644 14.5498C199.737 14.1487 199.745 13.8311 199.745 13.5721C199.745 12.2265 199.207 11.0816 197.466 11.0816C195.615 11.0816 194.513 12.3519 193.941 14.5498H199.644Z" fill="#07364A"/>
<path d="M214.634 20.7926C214.752 22.1966 215.702 22.9237 217.367 22.9237C218.932 22.9237 219.681 22.3053 219.681 21.2272C219.681 20.2661 218.806 19.773 216.552 19.1295C211.261 17.667 209.772 15.9371 209.772 13.2795C209.772 9.53546 212.75 6.43494 218.839 6.43494C224.929 6.43494 227.848 9.2931 227.722 12.8031H221.077C221.068 11.6833 220.421 10.881 218.696 10.881C217.704 10.881 216.686 11.1735 216.686 12.2516C216.686 13.1123 217.67 13.4717 220.303 14.2322C225.207 15.6613 226.805 17.6587 226.805 20.4583C226.805 25.5061 222.095 27.6288 216.905 27.6288C211.008 27.6288 207.745 25.13 207.854 20.801H214.634V20.7926Z" fill="#07364A"/>
<path d="M236.535 17.6337L238.133 5.6912L239.319 0.225586H246.999L245.805 5.72463L242.331 17.6337H236.535Z" fill="white"/>
<path d="M241.507 23.7929C241.507 24.9462 241.145 25.899 240.43 26.6678C239.715 27.4283 238.782 27.8128 237.638 27.8128C236.679 27.8128 235.905 27.5203 235.316 26.9269C234.727 26.3419 234.441 25.548 234.441 24.5534C234.441 23.35 234.812 22.3555 235.552 21.5783C236.292 20.8011 237.209 20.4166 238.302 20.4166C239.261 20.4166 240.035 20.7258 240.624 21.3443C241.213 21.9627 241.499 22.7734 241.499 23.7929H241.507Z" fill="white"/>
</g>
<defs>
<clipPath id="clip0_788_6120">
<rect width="247" height="35" fill="white"/>
</clipPath>
</defs>
</svg>
