<svg width="155" height="22" viewBox="0 0 155 22" fill="none" xmlns="http://www.w3.org/2000/svg">
<g clip-path="url(#clip0_234_8957)">
<path d="M0.617188 19.265L1.21444 16.4606C1.65699 16.5752 2.11474 16.6246 2.57239 16.6072C2.89739 16.6388 3.22527 16.5879 3.52393 16.4593C3.82258 16.3308 4.08178 16.1291 4.27613 15.874C4.53769 15.3493 4.72383 14.7921 4.82937 14.2182L7.26866 2.97573H5.55864L6.13703 0.317871H13.2412L12.6125 2.97573H11.2545L8.79636 14.1693C8.36257 16.1367 7.71503 17.4809 6.8663 18.1958C5.64215 19.1154 4.11692 19.5733 2.57239 19.485C1.91302 19.5069 1.25399 19.4327 0.617188 19.265Z" fill="#07364A"/>
<path d="M25.2858 13.7782L24.7074 16.3627C23.9672 16.5254 23.2092 16.5993 22.4505 16.5827C21.8503 16.6258 21.2505 16.4939 20.7279 16.2039C20.528 16.0512 20.3712 15.8517 20.2722 15.6241C20.1733 15.3965 20.1354 15.1482 20.162 14.9025C20.1492 14.7642 20.1492 14.6252 20.162 14.487C19.7462 15.1443 19.1636 15.6867 18.47 16.0623C17.7765 16.4378 16.9953 16.6339 16.2013 16.6316C14.2063 16.6316 13.2109 15.7456 13.2151 13.9737C13.2472 12.9959 13.3799 12.0236 13.6112 11.0715L14.4662 7.06941H13.0391L13.586 4.50931H18.7349L17.4776 10.3871C17.3175 11.0289 17.2165 11.6832 17.1758 12.3424C17.153 12.5081 17.1699 12.6766 17.225 12.835C17.2801 12.9933 17.3721 13.1372 17.4937 13.2554C17.6153 13.3736 17.7634 13.4629 17.9263 13.5165C18.0892 13.5701 18.2627 13.5865 18.4332 13.5644C18.7651 13.5632 19.0917 13.4829 19.3844 13.3306C19.677 13.1782 19.9268 12.9585 20.1118 12.6906C20.5623 11.8831 20.8685 11.0071 21.0171 10.1L21.6457 7.04496H20.2123L20.7656 4.48486H25.9397L24.2548 12.269C24.178 12.5802 24.1275 12.8969 24.1039 13.2161C24.0867 13.2999 24.091 13.3865 24.1165 13.4684C24.142 13.5502 24.1879 13.6246 24.2501 13.685C24.3123 13.7455 24.3888 13.7901 24.473 13.8148C24.5572 13.8396 24.6463 13.8438 24.7326 13.8271C24.918 13.824 25.1029 13.8077 25.2858 13.7782Z" fill="#07364A"/>
<path d="M27.2421 12.2443L30.7062 12.0976C30.687 12.2518 30.687 12.4077 30.7062 12.562C30.7062 13.5029 31.4103 13.9734 32.8123 13.9734C34.0696 13.9734 34.6983 13.6251 34.6983 12.9225C34.6983 12.4398 34.3337 12.1098 33.617 11.951L31.4355 11.4133C30.5496 11.2129 29.7328 10.7917 29.0653 10.1913C28.8033 9.92217 28.6002 9.60417 28.4684 9.25654C28.3365 8.90891 28.2787 8.53887 28.2983 8.16886C28.2663 7.58146 28.3956 6.99634 28.6729 6.47347C28.9502 5.9506 29.3655 5.50879 29.8763 5.19329C31.0548 4.4983 32.4152 4.15023 33.793 4.19124C37.255 4.19124 38.9859 5.32975 38.9859 7.60675C38.995 7.91714 38.9781 8.22772 38.9357 8.53547H35.5722C35.5893 8.43021 35.5893 8.32301 35.5722 8.21775C35.5722 7.27681 34.9435 6.80023 33.6862 6.80023C32.5671 6.80023 32.0076 7.13627 32.0076 7.80226C32.0076 8.26051 32.347 8.57823 33.0323 8.75542L35.371 9.36642C36.269 9.54659 37.1057 9.94376 37.804 10.5212C38.0479 10.7836 38.2358 11.0905 38.3567 11.4241C38.4775 11.7576 38.529 12.1112 38.5082 12.4642C38.5507 13.3545 38.2453 14.2276 37.6531 14.9082C36.6472 16.0284 34.9477 16.5885 32.5545 16.5885C30.6685 16.5885 29.2916 16.2463 28.4429 15.5681C28.0568 15.2797 27.743 14.9099 27.5252 14.4866C27.3074 14.0632 27.1912 13.5974 27.1856 13.1241C27.1851 12.8299 27.2041 12.5361 27.2421 12.2443Z" fill="#07364A"/>
<path d="M47.5484 13.7538L47.0204 16.3139C46.0453 16.5559 45.0399 16.6629 44.0341 16.6316C43.2535 16.6675 42.4858 16.4289 41.8714 15.9595C41.5969 15.7305 41.38 15.4436 41.2373 15.1206C41.0945 14.7976 41.0297 14.4471 41.0479 14.096C41.0595 13.4232 41.1438 12.7536 41.2993 12.098L42.3241 7.1183H40.7461L41.3748 4.50933H42.9779L43.6569 1.48486H47.3221L46.6934 4.50933H48.8498L48.2211 7.1183H46.0648L45.2349 11.1204C45.0887 11.7235 44.9879 12.3361 44.9331 12.9534C44.9331 13.5644 45.3229 13.9065 46.0899 13.9065C46.5808 13.9174 47.0711 13.866 47.5484 13.7538Z" fill="#07364A"/>
<path d="M54.6966 10.949L58.4373 10.778C58.417 11.0056 58.417 11.2346 58.4373 11.4623C58.4373 12.9898 59.4327 13.7535 61.4235 13.7535C62.2166 13.8047 63.0082 13.6352 63.7057 13.2647C63.9495 13.1266 64.1506 12.9271 64.2878 12.6874C64.4249 12.4476 64.4931 12.1764 64.4852 11.9022C64.5033 11.5273 64.3728 11.1599 64.1206 10.8757C63.7411 10.546 63.2795 10.3185 62.7815 10.2158L59.9964 9.41542C58.96 9.16582 58.0073 8.66077 57.2302 7.94901C56.6075 7.26623 56.2848 6.37352 56.3312 5.46223C56.2824 4.67081 56.4436 3.88048 56.7991 3.16691C57.1547 2.45334 57.6928 1.84042 58.3619 1.38684C59.9026 0.411565 61.7176 -0.0731952 63.5548 -0.000126947C67.5071 -0.000126947 69.4833 1.43776 69.4833 4.31355C69.4923 4.77906 69.4671 5.24461 69.4078 5.70663H65.6357C65.6516 5.50325 65.6516 5.299 65.6357 5.09563C65.6443 4.73167 65.5934 4.36869 65.4848 4.02026C65.3474 3.65304 65.0676 3.35263 64.7053 3.18319C64.2127 2.92893 63.6594 2.80663 63.1021 2.82881C62.3866 2.79159 61.6763 2.9663 61.0652 3.32984C60.8746 3.45727 60.7123 3.62055 60.5879 3.81004C60.4635 3.99953 60.3794 4.21135 60.3407 4.43297C60.302 4.6546 60.3095 4.88153 60.3627 5.10031C60.4158 5.31908 60.5136 5.52525 60.6503 5.70663C60.9941 6.01144 61.415 6.22225 61.8699 6.31763L64.8561 7.11804C65.9312 7.34842 66.9155 7.87443 67.6915 8.63333C68.3063 9.30406 68.6306 10.1797 68.5968 11.0773C68.6134 11.9842 68.3973 12.8809 67.9681 13.6863C66.8994 15.6212 64.5649 16.5886 60.9646 16.5886C58.7097 16.5886 57.0626 16.1812 56.0231 15.3666C55.5422 14.9879 55.1564 14.5078 54.8949 13.9625C54.6335 13.4173 54.5033 12.8213 54.5143 12.2199C54.5259 11.791 54.5871 11.3647 54.6966 10.949Z" fill="#07364A"/>
<path d="M83.5848 13.7534L83.0316 16.2891C82.4028 16.4564 81.7534 16.5386 81.1015 16.5335C79.4418 16.5335 78.6182 16.008 78.6182 14.951C78.6181 14.7464 78.6349 14.542 78.6685 14.34C78.3222 15.0401 77.7758 15.6284 77.0946 16.0347C76.4134 16.441 75.6263 16.6481 74.8272 16.6313C74.2643 16.6683 73.6998 16.5877 73.1717 16.3948C72.6435 16.2019 72.1641 15.9013 71.7656 15.5131C71.0174 14.641 70.6397 13.5244 70.7093 12.3909C70.6769 10.4163 71.2742 8.48044 72.4194 6.84911C72.9894 6.02891 73.7598 5.359 74.6618 4.89939C75.5637 4.43979 76.5688 4.20487 77.5872 4.21569C78.9786 4.21569 79.9154 4.67192 80.3974 5.58435L80.6992 4.50898H84.1381L82.5789 11.6577C82.4579 12.145 82.3821 12.6419 82.3526 13.1424C82.3391 13.2279 82.3456 13.3152 82.3717 13.3979C82.3977 13.4805 82.4427 13.5564 82.5031 13.6198C82.5635 13.6833 82.6379 13.7326 82.7207 13.7642C82.8035 13.7958 82.8926 13.8088 82.9813 13.8023C83.1838 13.8119 83.3867 13.7955 83.5848 13.7534ZM79.14 10.6557C79.2931 10.0555 79.3774 9.44079 79.3915 8.82265C79.3915 7.60065 78.8571 6.98964 77.7883 6.98964C77.2892 7.00511 76.8054 7.16117 76.3958 7.43885C75.9862 7.71654 75.6684 8.10388 75.4811 8.55381C74.9039 9.58626 74.6095 10.7456 74.6261 11.9204C74.6261 13.2707 75.1856 13.9428 76.3047 13.9428C77.7443 13.9001 78.6936 12.8369 79.14 10.6557Z" fill="#07364A"/>
<path d="M83.4844 21.2688L84.0628 18.611C84.4455 18.7256 84.8443 18.7813 85.2447 18.7759C85.6105 18.7963 85.9767 18.7446 86.3213 18.6238C86.666 18.5031 86.9819 18.3158 87.2502 18.0733C87.6841 17.5061 88.0471 16.8907 88.3315 16.2403C87.8934 13.3563 87.2804 10.5 86.4958 7.68623C86.4614 7.48727 86.3576 7.30586 86.202 7.17238C86.0463 7.0389 85.8482 6.96146 85.6408 6.95304C85.427 6.95077 85.2144 6.98383 85.0121 7.05081L85.559 4.53958C86.168 4.34614 86.8045 4.24718 87.4451 4.24631C88.0747 4.21049 88.7003 4.3641 89.2368 4.68623C89.7191 5.07185 90.0299 5.62333 90.1044 6.22595C90.5696 8.30336 90.9469 10.3074 91.2361 12.226C91.8354 11.1017 92.8224 9.39297 94.1972 7.09968H92.9398L93.5182 4.51515H99.541L98.9877 7.09968H97.8624C96.6553 8.839 94.6372 11.9694 91.8081 16.4908C91.2186 17.502 90.5569 18.4718 89.8278 19.393C89.3133 20.069 88.6495 20.6244 87.8852 21.0183C87.0967 21.3679 86.2369 21.5392 85.3704 21.5193C84.7323 21.53 84.0962 21.4455 83.4844 21.2688Z" fill="#07364A"/>
<path d="M115.786 13.6802L115.207 16.3442H107.449L108.028 13.7108H109.813L110.536 10.4419L107.298 3.00601H106.041L106.594 0.348145H113.617L113.07 3.00601H111.611C112.449 5.26671 113.009 6.78607 113.29 7.56408C113.893 6.74941 115.107 5.23005 116.93 3.00601H115.402L115.955 0.348145H122.751L122.179 3.00601H120.991L114.491 10.4419L113.786 13.7108L115.786 13.6802Z" fill="#FFB607"/>
<path d="M128.837 12.1468L131.873 12.9227C131.331 14.0323 130.504 14.9875 129.472 15.6967C128.339 16.3676 127.025 16.6932 125.699 16.6315C123.918 16.6315 122.571 16.2242 121.657 15.4095C121.183 14.9579 120.814 14.4128 120.576 13.811C120.337 13.2091 120.234 12.5645 120.274 11.9207C120.218 9.94276 120.917 8.01458 122.235 6.5072C122.883 5.757 123.7 5.16176 124.622 4.76761C125.544 4.37345 126.547 4.19096 127.554 4.23427C130.647 4.23427 132.196 5.31574 132.2 7.47869C132.209 8.06693 132.054 8.64661 131.751 9.15568C131.447 9.66475 131.007 10.0841 130.477 10.3687C129.333 11.0571 127.657 11.4034 125.448 11.4074H124.241C124.227 11.5946 124.227 11.7824 124.241 11.9696C124.241 13.2812 124.87 13.939 126.127 13.9431C126.709 13.9302 127.275 13.7537 127.755 13.4349C128.236 13.1161 128.612 12.6687 128.837 12.1468ZM124.618 9.31781H125.391C127.529 9.31781 128.604 8.79846 128.604 7.75365C128.604 7.06932 128.158 6.73327 127.271 6.73327C126.965 6.72943 126.662 6.78655 126.38 6.9011C126.098 7.01565 125.842 7.18518 125.63 7.39925C125.122 7.93886 124.772 8.60158 124.618 9.31781Z" fill="#FFB607"/>
<path d="M133.326 12.2443L136.79 12.0976C136.771 12.2518 136.771 12.4077 136.79 12.562C136.79 13.5029 137.494 13.9734 138.896 13.9734C140.154 13.9734 140.782 13.6251 140.782 12.9225C140.782 12.4398 140.418 12.1098 139.701 11.951L137.519 11.4133C136.634 11.2129 135.817 10.7917 135.149 10.1913C134.887 9.92217 134.684 9.60417 134.552 9.25654C134.421 8.90891 134.363 8.53887 134.382 8.16886C134.35 7.58146 134.48 6.99634 134.757 6.47347C135.034 5.9506 135.449 5.50879 135.96 5.19329C137.139 4.4983 138.499 4.15023 139.877 4.19124C143.339 4.19124 145.07 5.32975 145.07 7.60675C145.079 7.91714 145.062 8.22772 145.02 8.53547H141.656C141.673 8.43021 141.673 8.32301 141.656 8.21775C141.656 7.27681 141.028 6.80023 139.77 6.80023C138.651 6.80023 138.092 7.13627 138.092 7.80226C138.092 8.26051 138.431 8.57823 139.116 8.75542L141.455 9.36642C142.353 9.54659 143.19 9.94376 143.888 10.5212C144.131 10.7841 144.317 11.0912 144.437 11.4248C144.557 11.7583 144.608 12.1116 144.586 12.4642C144.631 13.3538 144.328 14.227 143.737 14.9082C142.731 16.0284 141.032 16.5885 138.639 16.5885C136.752 16.5885 135.376 16.2463 134.527 15.5681C134.141 15.2797 133.827 14.9099 133.609 14.4866C133.391 14.0632 133.275 13.5974 133.27 13.1241C133.269 12.8299 133.288 12.5361 133.326 12.2443Z" fill="#FFB607"/>
<path d="M151.571 14.1204C151.582 14.4419 151.527 14.7623 151.408 15.0625C151.289 15.3628 151.109 15.6367 150.879 15.8679C150.646 16.0976 150.367 16.2776 150.058 16.3965C149.75 16.5154 149.419 16.5705 149.087 16.5583C148.815 16.571 148.542 16.5299 148.286 16.4375C148.03 16.3451 147.796 16.2033 147.597 16.0206C147.406 15.8324 147.257 15.6076 147.16 15.3604C147.062 15.1132 147.019 14.8491 147.032 14.5848C147.017 14.2485 147.072 13.9128 147.194 13.5978C147.316 13.2828 147.503 12.9951 147.742 12.7518C147.972 12.5222 148.248 12.3412 148.553 12.2203C148.858 12.0994 149.186 12.0411 149.515 12.0491C149.791 12.0366 150.066 12.0801 150.324 12.1769C150.582 12.2737 150.816 12.4216 151.011 12.6112C151.204 12.8132 151.353 13.051 151.449 13.3103C151.546 13.5697 151.587 13.8452 151.571 14.1204ZM151.646 10.656H148.283C149.289 4.72524 149.917 1.27918 150.169 0.317871H154.312C154.312 0.317871 154.23 0.702801 154.06 1.42378C153.891 2.14477 153.595 3.36067 153.161 5.05925C152.727 6.75784 152.218 8.62751 151.646 10.656Z" fill="#07364A"/>
</g>
<defs>
<clipPath id="clip0_234_8957">
<rect width="153.694" height="21.5134" fill="white" transform="translate(0.617188)"/>
</clipPath>
</defs>
</svg>
