<svg width="22" height="22" viewBox="0 0 22 22" fill="none" xmlns="http://www.w3.org/2000/svg">
<path fill-rule="evenodd" clip-rule="evenodd" d="M11 13.7317C10.2088 13.7317 9.43542 13.497 8.77758 13.0575C8.11975 12.6179 7.60703 11.9932 7.30426 11.2622C7.00149 10.5313 6.92227 9.72698 7.07662 8.95101C7.23097 8.17504 7.61196 7.46226 8.1714 6.90282C8.73085 6.34337 9.44362 5.96239 10.2196 5.80804C10.9956 5.65369 11.7999 5.7329 12.5308 6.03567C13.2618 6.33844 13.8865 6.85116 14.3261 7.509C14.7656 8.16684 15.0002 8.94024 15.0002 9.73142C15.0002 10.2567 14.8968 10.7769 14.6957 11.2622C14.4947 11.7476 14.2001 12.1886 13.8286 12.56C13.4571 12.9315 13.0162 13.2261 12.5308 13.4272C12.0455 13.6282 11.5253 13.7317 11 13.7317ZM11 22C17.0754 22 22 17.0754 22 11C22 4.92455 17.0754 0 11 0C4.92455 0 0 4.92455 0 11C0 17.0754 4.92455 22 11 22ZM4.62345 18.6669C5.13958 17.3992 6.02189 16.314 7.15769 15.5501C8.29349 14.7862 9.63121 14.3782 11 14.3782C12.3688 14.3782 13.7065 14.7862 14.8423 15.5501C15.9781 16.314 16.8604 17.3992 17.3765 18.6669C18.503 17.7322 19.4094 16.5604 20.031 15.2351C20.6527 13.9099 20.9743 12.4638 20.9729 11C20.9729 5.49236 16.5084 1.02709 11 1.02709C5.49159 1.02709 1.02709 5.49236 1.02709 11C1.0257 12.4638 1.34729 13.9099 1.96894 15.2351C2.59058 16.5604 3.49696 17.7322 4.62345 18.6669Z" fill="#767676"/>
</svg>
