<svg width="84" height="27" viewBox="0 0 84 27" fill="none" xmlns="http://www.w3.org/2000/svg">
<g clip-path="url(#clip0_482_2671)">
<path d="M19.7762 9.21875C19.7712 10.7479 19.5056 12.2647 18.991 13.7028C18.5229 15.1096 17.7034 16.3705 16.6116 17.3633C15.1079 18.6578 13.1785 19.3355 11.2044 19.2627C9.5188 19.356 7.86278 18.7874 6.58237 17.6758C5.44025 16.622 4.86919 15.1093 4.86919 13.1378C4.86497 11.7036 5.10855 10.2797 5.58897 8.93025C6.05832 7.60501 6.83077 6.41051 7.84345 5.44402C8.59793 4.71334 9.49026 4.1436 10.4673 3.76875C11.4443 3.3939 12.4859 3.22161 13.5302 3.26215C15.4813 3.26215 17.0141 3.76905 18.1284 4.78286C19.2229 5.80468 19.7762 7.2833 19.7762 9.21875ZM15.8977 9.31493C15.8977 7.111 15.0094 6.00704 13.2328 6.00303C12.6515 5.99348 12.0766 6.12757 11.5583 6.39365C11.0399 6.65973 10.5937 7.04972 10.2585 7.52974C9.71825 8.30101 9.33045 9.17046 9.11643 10.0903C8.86745 11.0543 8.73561 12.0454 8.72383 13.0416C8.65719 13.9653 8.92106 14.8825 9.46739 15.6262C9.72256 15.9161 10.0389 16.1444 10.3931 16.2942C10.7473 16.444 11.1302 16.5115 11.5137 16.4917C12.0118 16.5007 12.5057 16.3975 12.9595 16.1896C13.4133 15.9817 13.8155 15.6742 14.137 15.2896C14.7721 14.4988 15.2088 13.5647 15.41 12.5667C15.7049 11.5073 15.8688 10.4151 15.8977 9.31493Z" fill="#07364A"/>
<path d="M32.9452 11.8697C32.9452 14.1257 32.3801 15.9169 31.2499 17.2433C30.1316 18.5897 28.4719 19.2629 26.2531 19.2629C24.8998 19.347 23.5663 18.9015 22.5294 18.0187C22.0823 17.5936 21.7312 17.0761 21.5002 16.5014C21.2692 15.9267 21.1637 15.3084 21.191 14.6887C21.108 12.7634 21.7283 10.8745 22.9339 9.38125C24.1236 8.01081 25.7773 7.31958 27.9247 7.31958C29.2615 7.23935 30.5795 7.66827 31.6187 8.52173C32.0676 8.94861 32.4189 9.46936 32.648 10.0476C32.8771 10.6259 32.9785 11.2477 32.9452 11.8697ZM29.3761 12.1522C29.3761 10.6695 28.7813 9.92622 27.5916 9.92221C27.1624 9.92461 26.7426 10.0494 26.3806 10.2823C26.0186 10.5152 25.729 10.8467 25.5453 11.2386C25.0333 12.1952 24.7789 13.2709 24.8076 14.3581C24.7391 14.9981 24.9087 15.6409 25.2835 16.1613C25.464 16.3417 25.6804 16.4811 25.9184 16.5702C26.1563 16.6594 26.4104 16.6962 26.6636 16.6783C27.1008 16.6673 27.5257 16.5295 27.8875 16.2811C28.2493 16.0328 28.5328 15.6845 28.7039 15.2778C29.1916 14.3211 29.4195 13.2509 29.3642 12.1762L29.3761 12.1522Z" fill="#07364A"/>
<path d="M39.0247 21.1921L38.4952 23.6806H32.0352L32.5467 21.1921H33.8256L35.8898 11.2684C35.9332 11.0446 35.957 10.8173 35.9612 10.5892C35.9721 10.5124 35.9652 10.4341 35.941 10.3605C35.9168 10.2869 35.8759 10.2201 35.8216 10.1652C35.7673 10.1104 35.7011 10.0691 35.6283 10.0446C35.5555 10.0201 35.478 10.0131 35.402 10.0242C35.2304 10.0239 35.0591 10.04 34.8904 10.0723L35.4258 7.60789C36.1104 7.43663 36.8145 7.35781 37.5197 7.37349C38.074 7.33549 38.6269 7.46523 39.1079 7.74615C39.2914 7.89793 39.4352 8.09301 39.5265 8.31418C39.6178 8.53536 39.6538 8.77583 39.6314 9.0144C39.6396 9.10035 39.6396 9.18692 39.6314 9.27287C39.9913 8.65898 40.5097 8.15561 41.1311 7.81677C41.7525 7.47793 42.4535 7.31638 43.1589 7.34944C45.5621 7.34944 46.7617 8.70185 46.7577 11.4067C46.7834 13.3104 46.2334 15.1767 45.1813 16.7562C44.6274 17.5487 43.8848 18.1875 43.0221 18.6135C42.0731 19.0766 41.0301 19.3092 39.9764 19.2927C38.9592 19.2927 38.2513 19.0463 37.8647 18.5654L37.3055 21.1921H39.0247ZM39.0247 12.8853C38.8741 13.524 38.7884 14.1765 38.7689 14.8328C38.724 15.3261 38.8618 15.8186 39.1555 16.2152C39.313 16.3669 39.5003 16.4833 39.7053 16.5569C39.9103 16.6304 40.1284 16.6594 40.3452 16.642C40.6478 16.6311 40.9437 16.5488 41.2092 16.4017C41.4747 16.2545 41.7023 16.0465 41.874 15.7945C42.733 14.6686 43.1692 13.2716 43.1053 11.8515C43.1053 10.5892 42.6294 9.95207 41.6658 9.95207C40.3412 9.93203 39.4529 10.8998 39.0009 12.8553L39.0247 12.8853Z" fill="#07364A"/>
<path d="M47.8534 15.0372L51.0537 14.8989C51.0393 15.0468 51.0393 15.1958 51.0537 15.3437C51.0537 16.2513 51.7081 16.7021 53.0048 16.7021C54.1945 16.7021 54.7894 16.3655 54.7894 15.6923C54.7894 15.2235 54.4563 14.9109 53.79 14.7547L51.7675 14.2377C50.9515 14.0537 50.1971 13.658 49.5785 13.0897C49.3358 12.8306 49.1479 12.5244 49.0262 12.1896C48.9045 11.8547 48.8516 11.4984 48.8706 11.1422C48.8416 10.577 48.9618 10.0142 49.219 9.51148C49.4761 9.00873 49.8609 8.5841 50.3339 8.28111C51.4212 7.61183 52.6782 7.27762 53.9506 7.31941C57.1549 7.31941 58.759 8.41335 58.763 10.6013C58.7684 10.9006 58.7525 11.1999 58.7154 11.4968H55.6043C55.6173 11.3951 55.6173 11.2921 55.6043 11.1903C55.6043 10.2827 55.0095 9.83188 53.8198 9.83188C52.7788 9.83188 52.2613 10.1505 52.2613 10.7936C52.2613 11.2324 52.5825 11.5329 53.213 11.7072L55.3723 12.3083C56.2042 12.4856 56.9791 12.8699 57.6268 13.4263C57.8527 13.6773 58.0265 13.9715 58.1379 14.2916C58.2492 14.6116 58.2959 14.951 58.2752 15.2896C58.3155 16.1449 58.0351 16.9842 57.49 17.6398C56.5581 18.7137 54.9857 19.2527 52.7728 19.2567C51.024 19.2567 49.755 18.9281 48.9658 18.2709C48.6066 17.9916 48.3154 17.633 48.1144 17.2225C47.9134 16.8121 47.8078 16.3607 47.8058 15.9027C47.8001 15.6134 47.816 15.3241 47.8534 15.0372Z" fill="#07364A"/>
<path d="M65.9124 16.8405C65.9217 17.1557 65.8686 17.4696 65.7562 17.7638C65.6438 18.0579 65.4745 18.3264 65.258 18.5536C65.0388 18.7815 64.7746 18.9604 64.4825 19.0784C64.1905 19.1965 63.8771 19.2511 63.5627 19.2388C63.3037 19.2514 63.0447 19.2111 62.8015 19.1202C62.5582 19.0293 62.3356 18.8897 62.147 18.7099C61.9659 18.5247 61.8248 18.3035 61.7326 18.0604C61.6405 17.8172 61.5993 17.5574 61.6116 17.2973C61.5975 16.966 61.6503 16.6352 61.7669 16.3252C61.8835 16.0151 62.0614 15.7323 62.2897 15.4941C62.5062 15.2687 62.7664 15.0909 63.054 14.972C63.3417 14.853 63.6506 14.7955 63.9613 14.8029C64.2218 14.7905 64.4821 14.8327 64.7257 14.9268C64.9694 15.021 65.1911 15.165 65.377 15.3499C65.5612 15.549 65.7035 15.7837 65.7955 16.0399C65.8876 16.2961 65.9273 16.5684 65.9124 16.8405Z" fill="#FFB607"/>
<path d="M65.9832 13.4323H62.8008C63.7525 7.59793 64.3474 4.20789 64.5853 3.26221H68.5173C68.5173 3.26221 68.44 3.64088 68.2793 4.35015C68.1187 5.05941 67.8332 6.25553 67.4228 7.92651C67.0123 9.59749 66.5186 11.4308 65.9832 13.4323Z" fill="#07364A"/>
<path d="M73.8115 18.1146H70.6766C70.7361 17.6699 70.7718 17.3874 70.7718 17.2732C70.8789 16.3956 71.4856 15.6022 72.5564 14.8689C73.2746 14.4437 73.9279 13.9152 74.4956 13.3001C74.8595 12.9026 75.0705 12.3866 75.0904 11.8455C75.0904 10.9499 74.6027 10.5051 73.6211 10.5051C73.3597 10.4961 73.0995 10.5452 72.859 10.6491C72.6184 10.753 72.4034 10.909 72.2292 11.1062C71.8483 11.5831 71.6387 12.1763 71.6343 12.7891H68.1426C68.2159 11.378 68.8178 10.0478 69.826 9.06851C70.8373 8.09477 72.2867 7.60791 74.1744 7.60791C77.4619 7.60791 79.1077 8.77399 79.1116 11.1062C79.1537 12.0731 78.8401 13.0216 78.2312 13.7689C77.4521 14.6249 76.5472 15.3547 75.5485 15.9328C75.0717 16.196 74.6399 16.5349 74.2696 16.9366C74.0347 17.2913 73.8784 17.6932 73.8115 18.1146Z" fill="#07364A"/>
<path d="M73.9184 21.2525C73.9312 21.5716 73.8811 21.89 73.7708 22.1893C73.6605 22.4886 73.4922 22.7627 73.2759 22.9956C73.0586 23.2243 72.7955 23.4037 72.5042 23.5218C72.213 23.64 71.9002 23.6942 71.5866 23.6808C71.3248 23.6931 71.0633 23.6527 70.8172 23.5619C70.571 23.4711 70.3453 23.3317 70.153 23.1518C69.9717 22.9655 69.8306 22.7433 69.7384 22.4992C69.6463 22.255 69.6052 21.9943 69.6176 21.7333C69.6029 21.4009 69.6566 21.0689 69.7754 20.7585C69.8941 20.4481 70.0754 20.166 70.3077 19.9301C70.5264 19.7041 70.7886 19.5257 71.0781 19.4058C71.3676 19.2859 71.6783 19.2271 71.9911 19.2329C72.2503 19.2211 72.5091 19.2642 72.7508 19.3594C72.9926 19.4547 73.212 19.5999 73.3949 19.7858C73.7549 20.1853 73.9432 20.7128 73.9184 21.2525Z" fill="#FFB607"/>
</g>
<defs>
<clipPath id="clip0_482_2671">
<rect width="74.2136" height="20.3883" fill="white" transform="translate(4.89258 3.26221)"/>
</clipPath>
</defs>
</svg>
