<svg width="87" height="28" viewBox="0 0 87 28" fill="none" xmlns="http://www.w3.org/2000/svg">
<path d="M65.168 13.4688L66.078 6.54684L66.7581 3.37891H71.1262L70.4461 6.57106L68.468 13.4688H65.168Z" fill="#07364A"/>
<path d="M20.2102 9.91821C20.2102 14.5442 17.6957 19.4026 11.45 19.4026C6.98136 19.4026 5.07031 16.5156 5.07031 13.0861C5.07031 8.4505 7.87222 3.37891 13.6964 3.37891C18.2034 3.37891 20.2102 6.3337 20.2102 9.91821ZM9.46236 13.1636C9.46236 15.014 10.1952 16.2686 11.9194 16.2686C14.8507 16.2686 15.8948 12.1852 15.8948 9.65179C15.8948 7.9322 15.3152 6.50808 13.4904 6.50808C10.7412 6.50808 9.46236 10.5043 9.46236 13.1636Z" fill="#07364A"/>
<path d="M33.9394 12.2289C33.9394 15.3096 32.1912 19.3737 26.9657 19.3737C23.2107 19.3737 21.793 17.1019 21.793 14.4038C21.793 11.1148 23.8621 7.104 28.6325 7.104C31.9469 7.104 33.9394 8.96892 33.9394 12.2289ZM25.9982 14.7574C25.9982 15.9587 26.4389 16.5836 27.301 16.5836C29.0444 16.5836 29.7533 13.1105 29.7533 11.5992C29.7533 10.4754 29.3222 9.92317 28.4361 9.92317C26.7406 9.92317 25.9982 13.2364 25.9982 14.7574Z" fill="#07364A"/>
<path d="M53.3697 15.421C53.4368 16.2348 53.978 16.6514 54.9216 16.6514C55.8124 16.6514 56.2339 16.2929 56.2339 15.6681C56.2339 15.111 55.7358 14.8252 54.4522 14.4522C51.4443 13.6046 50.5918 12.6019 50.5918 11.0663C50.5918 8.89626 52.2873 7.104 55.7502 7.104C59.213 7.104 60.8798 8.75578 60.8032 10.7902H57.0242C57.0194 10.146 56.6506 9.67613 55.6735 9.67613C55.1084 9.67613 54.5336 9.84567 54.5336 10.4705C54.5336 10.9695 55.094 11.1777 56.5931 11.6185C59.3807 12.4469 60.2907 13.5997 60.2907 15.2224C60.2907 18.1482 57.6133 19.3737 54.6581 19.3737C51.3054 19.3737 49.4471 17.9253 49.5093 15.421H53.3649H53.3697Z" fill="#07364A"/>
<path d="M34.9132 20.9383H33.7877L33.2656 23.4232H39.7124L40.2345 20.9383H38.9988L39.5591 18.2693C39.9758 18.8796 40.8954 19.3737 42.1647 19.3737C46.322 19.3737 48.5061 15.4162 48.5061 11.6379C48.5061 8.65406 47.0453 7.104 44.8947 7.104C43.1034 7.104 42.112 7.97106 41.5325 8.66859V8.62499C41.5516 8.5378 41.5468 8.38764 41.5325 8.27623C41.5133 8.1406 41.475 8.0195 41.4367 7.89356C41.4031 7.78699 41.3361 7.69012 41.269 7.60293C41.1301 7.41401 40.9529 7.25901 40.7565 7.13306L40.7278 7.11369C40.3686 6.89087 39.9615 6.76493 39.5448 6.71649C39.3149 6.68742 39.085 6.67773 38.8551 6.67773C37.8636 6.67773 37.0398 6.76977 36.3836 6.95384L35.7514 9.86988C35.9334 9.83113 36.1346 9.8166 36.3549 9.8166C36.7956 9.8166 37.0159 10.0394 37.0159 10.4851C37.0159 10.9016 36.9344 11.3134 36.8434 11.7154L34.9085 20.9383H34.9132ZM41.6378 16.4383C40.201 16.4383 40.086 15.1498 40.4261 13.4883C40.8715 11.3521 41.657 10.0927 42.9071 10.0927C43.75 10.0927 44.2913 10.5723 44.2913 11.9092C44.2913 13.4738 43.4243 16.4383 41.6378 16.4383Z" fill="#07364A"/>
<path d="M68.0037 17.038C68.0037 17.7065 67.7978 18.2587 67.3907 18.7043C66.9835 19.1451 66.4519 19.3679 65.8005 19.3679C65.2545 19.3679 64.8139 19.1984 64.4786 18.8545C64.1433 18.5154 63.9805 18.0552 63.9805 17.4788C63.9805 16.7813 64.1912 16.2048 64.6127 15.7544C65.0342 15.3039 65.5562 15.0811 66.1789 15.0811C66.7249 15.0811 67.1655 15.2603 67.5008 15.6187C67.8361 15.9772 67.9989 16.447 67.9989 17.038H68.0037Z" fill="#FFB607"/>
<path d="M76.5076 21.3207C76.5076 21.9892 76.3017 22.5414 75.8946 22.987C75.4874 23.4278 74.9558 23.6506 74.3044 23.6506C73.7584 23.6506 73.3178 23.4811 72.9825 23.1372C72.6472 22.7981 72.4844 22.3379 72.4844 21.7615C72.4844 21.064 72.6951 20.4876 73.1166 20.0371C73.5381 19.5866 74.0601 19.3638 74.6828 19.3638C75.2288 19.3638 75.6695 19.543 76.0047 19.9014C76.34 20.2599 76.5028 20.7298 76.5028 21.3207H76.5076Z" fill="#FFB607"/>
<path d="M76.7232 7.7085C75.3773 7.7085 74.3284 7.96522 73.5094 8.41571C73.3944 8.47868 73.2939 8.55134 73.1933 8.61915C73.1023 8.68213 73.0209 8.74994 72.9346 8.81776C71.7037 9.82529 71.3062 11.2882 71.1864 12.3054C71.105 12.9884 71.1481 13.4728 71.1481 13.4728H74.4625C74.4625 13.4728 74.4338 12.8818 74.5631 12.2812C74.8648 11.1089 75.5114 10.4986 76.4167 10.4986C77.1974 10.4986 77.4321 11.0266 77.4081 11.6175C77.3842 12.4507 76.5125 13.0756 75.727 13.6617C73.8686 15.0325 73.155 15.9674 72.8772 17.4206C72.8436 17.6337 72.767 18.0939 72.8053 18.2295H76.8717C76.8717 18.2004 76.91 17.9534 76.9148 17.905C77.0776 17.1348 77.4704 16.568 78.5864 15.7979C80.4926 14.4997 81.5463 13.3081 81.5463 11.4286C81.5463 9.54919 80.301 7.71334 76.7184 7.71334L76.7232 7.7085Z" fill="#07364A"/>
<path d="M73.1922 8.61914C73.1012 8.68211 73.015 8.74993 72.9336 8.81774C73.0198 8.74993 73.1012 8.68211 73.1922 8.61914Z" fill="#07364A"/>
</svg>
