<svg width="83" height="24" viewBox="0 0 83 24" fill="none" xmlns="http://www.w3.org/2000/svg">
<g clip-path="url(#clip0_360_3784)">
<path d="M16.9789 7.24521C16.9734 8.9448 16.6782 10.6307 16.1062 12.2291C15.586 13.7927 14.675 15.1941 13.4615 16.2976C11.7902 17.7364 9.64573 18.4897 7.45157 18.4087C5.57812 18.5124 3.73751 17.8805 2.31436 16.645C1.04493 15.4737 0.410216 13.7923 0.410216 11.6011C0.40552 10.0071 0.676257 8.42447 1.21022 6.92455C1.73189 5.45158 2.59046 4.12393 3.71602 3.0497C4.5546 2.23757 5.5464 1.60432 6.63231 1.18769C7.71822 0.771047 8.87601 0.579557 10.0367 0.62461C12.2053 0.62461 13.9089 1.18802 15.1475 2.31484C16.364 3.45056 16.9789 5.09401 16.9789 7.24521ZM12.6681 7.3521C12.6681 4.9025 11.6808 3.67548 9.70612 3.67103C9.05999 3.66041 8.42108 3.80945 7.84495 4.10519C7.26881 4.40093 6.77289 4.83439 6.40032 5.36792C5.79981 6.22516 5.36877 7.19153 5.1309 8.21392C4.85417 9.28538 4.70763 10.3869 4.69453 11.4942C4.62047 12.5209 4.91375 13.5403 5.52098 14.3669C5.8046 14.6891 6.15622 14.9428 6.54988 15.1093C6.94353 15.2758 7.36917 15.3509 7.79537 15.3289C8.34907 15.3389 8.89802 15.2242 9.40236 14.9931C9.9067 14.762 10.3538 14.4203 10.7111 13.9928C11.417 13.1138 11.9024 12.0756 12.126 10.9664C12.4538 9.7889 12.6359 8.57487 12.6681 7.3521Z" fill="white"/>
<path d="M31.6176 10.1919C31.6176 12.6994 30.9895 14.6903 29.7333 16.1645C28.4903 17.661 26.6457 18.4092 24.1796 18.4092C22.6754 18.5028 21.1932 18.0075 20.0407 17.0263C19.5438 16.5539 19.1536 15.9787 18.8969 15.3399C18.6401 14.7012 18.5229 14.0139 18.5531 13.3252C18.4609 11.1853 19.1504 9.08582 20.4903 7.4261C21.8126 5.90289 23.6506 5.13461 26.0374 5.13461C27.5233 5.04544 28.9882 5.52217 30.1432 6.47076C30.6422 6.94523 31.0326 7.52403 31.2873 8.16675C31.5419 8.80948 31.6547 9.50061 31.6176 10.1919ZM27.6507 10.5059C27.6507 8.85799 26.9895 8.03182 25.6672 8.02736C25.1902 8.03002 24.7236 8.16875 24.3213 8.4276C23.9189 8.68644 23.597 9.05488 23.3928 9.49045C22.8237 10.5537 22.541 11.7494 22.5729 12.9578C22.4967 13.669 22.6853 14.3835 23.1019 14.962C23.3024 15.1625 23.543 15.3174 23.8075 15.4165C24.072 15.5155 24.3544 15.5565 24.6358 15.5365C25.1218 15.5244 25.594 15.3712 25.9962 15.0951C26.3983 14.8191 26.7133 14.432 26.9036 13.9799C27.4456 12.9166 27.6989 11.7271 27.6374 10.5326L27.6507 10.5059Z" fill="white"/>
<path d="M38.3741 20.5535L37.7857 23.3194H30.6055L31.1741 20.5535H32.5955L34.8898 9.52362C34.938 9.2748 34.9645 9.02219 34.9691 8.76869C34.9813 8.68336 34.9736 8.59634 34.9467 8.51453C34.9198 8.43273 34.8743 8.3584 34.814 8.29744C34.7537 8.23648 34.6801 8.19058 34.5991 8.16337C34.5182 8.13616 34.4321 8.12841 34.3476 8.14072C34.1568 8.14036 33.9665 8.15824 33.779 8.19416L34.3741 5.45505C35.135 5.26469 35.9176 5.17709 36.7014 5.19451C37.3175 5.15228 37.932 5.29648 38.4666 5.60871C38.6706 5.77742 38.8304 5.99424 38.9319 6.24007C39.0333 6.4859 39.0734 6.75318 39.0485 7.01834C39.0576 7.11387 39.0576 7.21009 39.0485 7.30563C39.4484 6.62329 40.0247 6.06382 40.7154 5.6872C41.406 5.31059 42.1852 5.13103 42.9691 5.16778C45.6402 5.16778 46.9736 6.67095 46.9692 9.67728C46.9977 11.7932 46.3864 13.8676 45.2171 15.6231C44.6014 16.504 43.776 17.214 42.8171 17.6875C41.7623 18.2022 40.6031 18.4607 39.4319 18.4424C38.3014 18.4424 37.5146 18.1685 37.0848 17.634L36.4633 20.5535H38.3741ZM38.3741 11.3207C38.2067 12.0306 38.1115 12.7559 38.0898 13.4853C38.0399 14.0336 38.1931 14.5811 38.5196 15.0219C38.6946 15.1905 38.9028 15.3198 39.1306 15.4016C39.3585 15.4833 39.6008 15.5156 39.8419 15.4962C40.1782 15.4841 40.5071 15.3927 40.8021 15.2291C41.0972 15.0655 41.3503 14.8344 41.541 14.5542C42.4958 13.3029 42.9807 11.7501 42.9096 10.1716C42.9096 8.76869 42.3807 8.06053 41.3096 8.06053C39.8374 8.03826 38.8501 9.11387 38.3476 11.2873L38.3741 11.3207Z" fill="white"/>
<path d="M48.187 13.7128L51.744 13.5591C51.728 13.7235 51.728 13.8891 51.744 14.0535C51.744 15.0623 52.4713 15.5634 53.9126 15.5634C55.2349 15.5634 55.8961 15.1893 55.8961 14.441C55.8961 13.9199 55.5258 13.5725 54.7853 13.3988L52.5374 12.8243C51.6304 12.6197 50.7919 12.1799 50.1043 11.5482C49.8346 11.2603 49.6258 10.9199 49.4905 10.5478C49.3552 10.1756 49.2964 9.77955 49.3175 9.38368C49.2853 8.75551 49.4189 8.12997 49.7047 7.57117C49.9905 7.01237 50.4182 6.5404 50.944 6.20364C52.1525 5.45976 53.5495 5.08829 54.9639 5.13474C58.5253 5.13474 60.3082 6.35063 60.3126 8.78242C60.3186 9.11508 60.301 9.44774 60.2597 9.77784H56.8019C56.8163 9.66474 56.8163 9.55023 56.8019 9.43712C56.8019 8.42833 56.1407 7.92728 54.8184 7.92728C53.6614 7.92728 53.0862 8.28137 53.0862 8.99621C53.0862 9.4839 53.4432 9.81793 54.144 10.0117L56.544 10.6797C57.4686 10.8769 58.3299 11.304 59.0498 11.9224C59.3009 12.2013 59.4941 12.5284 59.6178 12.8841C59.7416 13.2398 59.7935 13.617 59.7705 13.9934C59.8153 14.9441 59.5036 15.8769 58.8978 16.6056C57.8619 17.7992 56.1143 18.3982 53.6548 18.4027C51.7109 18.4027 50.3005 18.0375 49.4233 17.3071C49.0242 16.9966 48.7005 16.598 48.4771 16.1418C48.2536 15.6856 48.1363 15.1838 48.1341 14.6748C48.1277 14.3533 48.1454 14.0317 48.187 13.7128Z" fill="white"/>
<path d="M68.2592 15.7163C68.2696 16.0667 68.2105 16.4155 68.0857 16.7425C67.9608 17.0694 67.7725 17.3679 67.532 17.6203C67.2883 17.8737 66.9946 18.0725 66.67 18.2037C66.3454 18.3349 65.997 18.3957 65.6477 18.382C65.3597 18.396 65.0719 18.3511 64.8015 18.2501C64.5312 18.1491 64.2837 17.994 64.0741 17.794C63.8728 17.5882 63.716 17.3424 63.6136 17.0721C63.5111 16.8019 63.4653 16.5131 63.4791 16.2241C63.4633 15.8558 63.522 15.4881 63.6516 15.1435C63.7812 14.7989 63.979 14.4846 64.2328 14.2198C64.4733 13.9693 64.7625 13.7717 65.0822 13.6395C65.402 13.5073 65.7453 13.4433 66.0906 13.4516C66.3802 13.4378 66.6695 13.4847 66.9403 13.5893C67.2111 13.6939 67.4576 13.854 67.6642 14.0595C67.8689 14.2808 68.0271 14.5417 68.1294 14.8265C68.2316 15.1112 68.2758 15.4139 68.2592 15.7163Z" fill="#FFB607"/>
<path d="M68.338 11.9288H64.8008C65.8586 5.44403 66.5198 1.6761 66.7843 0.625H71.1545C71.1545 0.625 71.0686 1.04589 70.8901 1.83421C70.7115 2.62254 70.3942 3.952 69.938 5.80924C69.4818 7.66649 68.933 9.70412 68.338 11.9288Z" fill="white"/>
<path d="M77.0391 17.133H73.5548C73.6209 16.6386 73.6606 16.3247 73.6606 16.1977C73.7796 15.2223 74.454 14.3405 75.6441 13.5254C76.4424 13.0529 77.1685 12.4655 77.7995 11.7817C78.2039 11.34 78.4385 10.7664 78.4606 10.165C78.4606 9.16958 77.9185 8.6752 76.8276 8.6752C76.537 8.66518 76.2478 8.71982 75.9804 8.83527C75.7131 8.95072 75.4741 9.12415 75.2804 9.34328C74.8571 9.87337 74.6241 10.5327 74.6193 11.2139H70.7383C70.8198 9.64539 71.4888 8.16697 72.6094 7.07849C73.7333 5.99621 75.3444 5.45508 77.4424 5.45508C81.0965 5.45508 82.9257 6.75115 82.9301 9.34328C82.9768 10.418 82.6282 11.4723 81.9515 12.3028C81.0855 13.2543 80.0798 14.0654 78.9697 14.7079C78.4398 15.0005 77.9599 15.3772 77.5482 15.8236C77.2872 16.2179 77.1135 16.6646 77.0391 17.133Z" fill="white"/>
<path d="M77.1578 20.6209C77.1721 20.9755 77.1163 21.3295 76.9937 21.6622C76.8711 21.9948 76.6842 22.2994 76.4438 22.5583C76.2021 22.8125 75.9098 23.0119 75.586 23.1432C75.2623 23.2745 74.9146 23.3348 74.5661 23.3199C74.2752 23.3336 73.9845 23.2887 73.7109 23.1877C73.4373 23.0868 73.1864 22.9319 72.9727 22.732C72.7712 22.5249 72.6143 22.2779 72.5119 22.0066C72.4095 21.7352 72.3638 21.4454 72.3777 21.1553C72.3613 20.7858 72.421 20.4169 72.553 20.0719C72.685 19.7269 72.8865 19.4133 73.1446 19.1511C73.3878 18.8999 73.6792 18.7016 74.0009 18.5684C74.3227 18.4351 74.668 18.3697 75.0157 18.3761C75.3038 18.3631 75.5914 18.411 75.8601 18.5168C76.1288 18.6227 76.3727 18.7841 76.576 18.9908C76.9761 19.4347 77.1854 20.021 77.1578 20.6209Z" fill="#FFB607"/>
</g>
<defs>
<clipPath id="clip0_360_3784">
<rect width="82.4863" height="22.6611" fill="white" transform="translate(0.4375 0.625)"/>
</clipPath>
</defs>
</svg>
