<svg width="106" height="35" viewBox="0 0 106 35" fill="none" xmlns="http://www.w3.org/2000/svg">
<g filter="url(#filter0_d_504_2619)">
<path d="M21.5693 9.8272C21.5628 11.8346 21.2141 13.8259 20.5385 15.7136C19.9242 17.5604 18.8482 19.2157 17.415 20.519C15.441 22.2184 12.9081 23.1081 10.3166 23.0124C8.10388 23.1349 5.92993 22.3885 4.24905 20.9293C2.74973 19.5458 2.00007 17.56 2.00007 14.9719C1.99452 13.0892 2.31429 11.22 2.94496 9.44846C3.5611 7.70875 4.57515 6.14065 5.90455 4.87189C6.895 3.91268 8.06642 3.16475 9.34898 2.67266C10.6315 2.18057 11.999 1.9544 13.3699 2.00761C15.9312 2.00761 17.9434 2.67305 19.4062 4.00394C20.8431 5.34534 21.5693 7.28642 21.5693 9.8272ZM16.4779 9.95345C16.4779 7.06022 15.3117 5.61099 12.9795 5.60573C12.2163 5.59319 11.4617 5.76923 10.7812 6.11852C10.1008 6.46782 9.51502 6.97979 9.07498 7.60993C8.36571 8.62242 7.85662 9.7638 7.57566 10.9713C7.24882 12.2368 7.07574 13.5379 7.06027 14.8456C6.9728 16.0583 7.31919 17.2623 8.03639 18.2386C8.37137 18.6192 8.78667 18.9188 9.25162 19.1155C9.71657 19.3122 10.2193 19.4008 10.7227 19.3749C11.3766 19.3867 12.025 19.2512 12.6207 18.9783C13.2164 18.7053 13.7444 18.3017 14.1664 17.7967C15.0002 16.7586 15.5735 15.5324 15.8375 14.2223C16.2248 12.8315 16.4399 11.3977 16.4779 9.95345Z" fill="white"/>
<path d="M38.8601 13.307C38.8601 16.2686 38.1182 18.62 36.6345 20.3612C35.1664 22.1287 32.9878 23.0125 30.075 23.0125C28.2984 23.1229 26.5478 22.538 25.1866 21.3791C24.5997 20.8211 24.1388 20.1417 23.8356 19.3873C23.5324 18.6329 23.3939 17.8212 23.4296 17.0077C23.3207 14.4802 24.135 12.0006 25.7176 10.0403C27.2794 8.24121 29.4503 7.33379 32.2693 7.33379C34.0242 7.22847 35.7545 7.79154 37.1187 8.91192C37.708 9.47231 38.1691 10.1559 38.4699 10.9151C38.7707 11.6742 38.9038 12.4905 38.8601 13.307ZM34.1747 13.6778C34.1747 11.7315 33.3938 10.7557 31.832 10.7504C31.2687 10.7536 30.7176 10.9174 30.2424 11.2231C29.7671 11.5289 29.387 11.964 29.1457 12.4785C28.4736 13.7343 28.1397 15.1465 28.1774 16.5737C28.0874 17.4138 28.3101 18.2576 28.8021 18.9409C29.039 19.1777 29.3231 19.3607 29.6355 19.4777C29.9479 19.5947 30.2815 19.643 30.6138 19.6195C31.1878 19.6051 31.7456 19.4242 32.2206 19.0982C32.6956 18.7721 33.0676 18.3149 33.2923 17.781C33.9326 16.5251 34.2317 15.1202 34.1591 13.7094L34.1747 13.6778Z" fill="white"/>
<path d="M46.8396 25.5458L46.1446 28.8125H37.6641L38.3356 25.5458H40.0145L42.7243 12.5184C42.7812 12.2245 42.8125 11.9261 42.818 11.6267C42.8323 11.526 42.8233 11.4232 42.7915 11.3266C42.7597 11.2299 42.706 11.1421 42.6348 11.0701C42.5635 10.9981 42.4766 10.9439 42.381 10.9118C42.2854 10.8797 42.1836 10.8705 42.0839 10.885C41.8586 10.8846 41.6337 10.9057 41.4124 10.9482L42.1152 7.713C43.0139 7.48817 43.9382 7.3847 44.8639 7.40528C45.5916 7.3554 46.3174 7.52571 46.9489 7.89449C47.1898 8.09375 47.3785 8.34983 47.4984 8.64018C47.6182 8.93053 47.6655 9.24622 47.6361 9.5594C47.6469 9.67224 47.6469 9.78588 47.6361 9.89872C48.1085 9.09282 48.7891 8.43202 49.6048 7.9872C50.4206 7.54238 51.3408 7.33031 52.2668 7.37371C55.4216 7.37371 56.9964 9.1491 56.9912 12.6999C57.0249 15.199 56.3029 17.649 54.9218 19.7225C54.1946 20.7629 53.2198 21.6015 52.0872 22.1607C50.8414 22.7686 49.4723 23.074 48.089 23.0524C46.7537 23.0524 45.8244 22.7289 45.3168 22.0976L44.5828 25.5458H46.8396ZM46.8396 14.641C46.6419 15.4794 46.5294 16.336 46.5038 17.1975C46.4449 17.8451 46.6258 18.4917 47.0114 19.0124C47.2181 19.2115 47.464 19.3643 47.7331 19.4608C48.0022 19.5574 48.2885 19.5955 48.5732 19.5726C48.9704 19.5584 49.3588 19.4503 49.7073 19.2571C50.0558 19.0639 50.3547 18.7909 50.5801 18.46C51.7077 16.982 52.2804 15.1481 52.1965 13.2838C52.1965 11.6267 51.5718 10.7903 50.3067 10.7903C48.5679 10.764 47.4018 12.0344 46.8083 14.6015L46.8396 14.641Z" fill="white"/>
<path d="M58.4272 17.4662L62.6285 17.2847C62.6096 17.4789 62.6096 17.6745 62.6285 17.8686C62.6285 19.0601 63.4875 19.6519 65.1898 19.6519C66.7516 19.6519 67.5325 19.21 67.5325 18.3263C67.5325 17.7108 67.0952 17.3005 66.2206 17.0954L63.5655 16.4167C62.4943 16.1751 61.5039 15.6557 60.6918 14.9096C60.3733 14.5696 60.1266 14.1675 59.9668 13.728C59.8071 13.2885 59.7376 12.8206 59.7626 12.3531C59.7245 11.6112 59.8823 10.8723 60.2199 10.2123C60.5574 9.55233 61.0626 8.99489 61.6836 8.59714C63.1109 7.71854 64.761 7.2798 66.4314 7.33466C70.6379 7.33466 72.7437 8.77075 72.7489 11.6429C72.756 12.0358 72.7351 12.4287 72.6864 12.8186H68.6023C68.6193 12.685 68.6193 12.5498 68.6023 12.4162C68.6023 11.2247 67.8214 10.6329 66.2596 10.6329C64.8931 10.6329 64.2137 11.0511 64.2137 11.8954C64.2137 12.4715 64.6354 12.866 65.4631 13.0948L68.2978 13.8839C69.3898 14.1167 70.407 14.6211 71.2574 15.3515C71.5539 15.681 71.7821 16.0673 71.9283 16.4874C72.0745 16.9076 72.1358 17.3531 72.1085 17.7976C72.1614 18.9205 71.7934 20.0222 71.0777 20.8828C69.8543 22.2926 67.7902 23.0002 64.8853 23.0054C62.5894 23.0054 60.9235 22.5741 59.8875 21.7114C59.4161 21.3447 59.0338 20.8739 58.7699 20.3351C58.506 19.7963 58.3674 19.2037 58.3648 18.6025C58.3573 18.2227 58.3782 17.8428 58.4272 17.4662Z" fill="white"/>
<path d="M82.1371 19.833C82.1493 20.2467 82.0796 20.6588 81.9321 21.0449C81.7846 21.4311 81.5622 21.7836 81.2781 22.0818C80.9903 22.3811 80.6435 22.6158 80.26 22.7708C79.8766 22.9258 79.4652 22.9975 79.0526 22.9813C78.7125 22.9979 78.3726 22.9449 78.0532 22.8256C77.7339 22.7063 77.4416 22.5231 77.194 22.2869C76.9563 22.0438 76.7711 21.7535 76.6501 21.4343C76.5291 21.1151 76.475 20.774 76.4912 20.4326C76.4726 19.9977 76.542 19.5634 76.695 19.1564C76.8481 18.7494 77.0817 18.3782 77.3814 18.0655C77.6655 17.7695 78.0071 17.5362 78.3848 17.38C78.7624 17.2239 79.1679 17.1483 79.5758 17.158C79.9178 17.1418 80.2595 17.1972 80.5793 17.3208C80.8991 17.4443 81.1902 17.6334 81.4343 17.8761C81.676 18.1375 81.8629 18.4456 81.9837 18.7819C82.1045 19.1182 82.1567 19.4758 82.1371 19.833Z" fill="white"/>
<path d="M82.2305 15.3587H78.0527C79.3022 7.69957 80.0831 3.24927 80.3954 2.00781H85.5571C85.5571 2.00781 85.4556 2.50492 85.2448 3.43601C85.0339 4.36711 84.6591 5.93733 84.1203 8.13092C83.5815 10.3245 82.9333 12.7312 82.2305 15.3587Z" fill="white"/>
<path d="M92.5064 21.5057H88.3911C88.4692 20.9218 88.516 20.5509 88.516 20.401C88.6566 19.249 89.4531 18.2074 90.8587 17.2448C91.8016 16.6867 92.6592 15.9929 93.4044 15.1853C93.8821 14.6635 94.1592 13.9861 94.1853 13.2758C94.1853 12.1001 93.545 11.5162 92.2565 11.5162C91.9133 11.5043 91.5717 11.5689 91.2559 11.7052C90.9402 11.8416 90.6579 12.0464 90.4292 12.3052C89.9292 12.9313 89.654 13.7101 89.6483 14.5146H85.0645C85.1608 12.6621 85.9508 10.9159 87.2744 9.63031C88.6019 8.35203 90.5047 7.71289 92.9827 7.71289C97.2985 7.71289 99.459 9.24368 99.4642 12.3052C99.5193 13.5747 99.1077 14.8198 98.3084 15.8008C97.2856 16.9245 96.0977 17.8826 94.7866 18.6414C94.1608 18.987 93.5939 19.4319 93.1077 19.9591C92.7994 20.4249 92.5942 20.9524 92.5064 21.5057Z" fill="white"/>
<path d="M92.647 25.6244C92.6639 26.0433 92.598 26.4614 92.4532 26.8543C92.3084 27.2472 92.0876 27.607 91.8037 27.9127C91.5183 28.213 91.173 28.4485 90.7906 28.6036C90.4082 28.7587 89.9976 28.8298 89.5859 28.8123C89.2424 28.8285 88.899 28.7754 88.5759 28.6562C88.2528 28.537 87.9564 28.354 87.704 28.1179C87.466 27.8733 87.2807 27.5816 87.1598 27.2611C87.0388 26.9406 86.9848 26.5983 87.0012 26.2557C86.9818 25.8193 87.0523 25.3835 87.2082 24.976C87.3642 24.5686 87.6021 24.1982 87.907 23.8885C88.1942 23.5919 88.5384 23.3576 88.9184 23.2002C89.2985 23.0428 89.7063 22.9656 90.1169 22.9732C90.4572 22.9578 90.797 23.0144 91.1143 23.1394C91.4317 23.2644 91.7197 23.4551 91.9599 23.6991C92.4325 24.2235 92.6796 24.916 92.647 25.6244Z" fill="white"/>
</g>
<defs>
<filter id="filter0_d_504_2619" x="0" y="0" width="105.469" height="34.8154" filterUnits="userSpaceOnUse" color-interpolation-filters="sRGB">
<feFlood flood-opacity="0" result="BackgroundImageFix"/>
<feColorMatrix in="SourceAlpha" type="matrix" values="0 0 0 0 0 0 0 0 0 0 0 0 0 0 0 0 0 0 127 0" result="hardAlpha"/>
<feOffset dx="2" dy="2"/>
<feGaussianBlur stdDeviation="2"/>
<feComposite in2="hardAlpha" operator="out"/>
<feColorMatrix type="matrix" values="0 0 0 0 0 0 0 0 0 0 0 0 0 0 0 0 0 0 0.12 0"/>
<feBlend mode="normal" in2="BackgroundImageFix" result="effect1_dropShadow_504_2619"/>
<feBlend mode="normal" in="SourceGraphic" in2="effect1_dropShadow_504_2619" result="shape"/>
</filter>
</defs>
</svg>
