<svg width="83" height="23" viewBox="0 0 83 23" fill="none" xmlns="http://www.w3.org/2000/svg">
<g clip-path="url(#clip0_234_8311)">
<path d="M16.9789 6.6207C16.9734 8.32029 16.6782 10.0062 16.1062 11.6045C15.586 13.1682 14.675 14.5696 13.4615 15.6731C11.7902 17.1119 9.64573 17.8652 7.45157 17.7842C5.57812 17.8879 3.73751 17.256 2.31436 16.0205C1.04493 14.8492 0.410216 13.1678 0.410216 10.9766C0.40552 9.38255 0.676257 7.79995 1.21022 6.30003C1.73189 4.82707 2.59046 3.49941 3.71602 2.42519C4.5546 1.61306 5.5464 0.979813 6.63231 0.563174C7.71821 0.146535 8.87601 -0.0449551 10.0367 9.79579e-05C12.2053 9.79579e-05 13.9089 0.563507 15.1475 1.69033C16.364 2.82605 16.9789 4.4695 16.9789 6.6207ZM12.6681 6.72759C12.6681 4.27799 11.6808 3.05097 9.70612 3.04652C9.05999 3.0359 8.42108 3.18494 7.84495 3.48068C7.26881 3.77642 6.77289 4.20988 6.40032 4.74341C5.79981 5.60065 5.36877 6.56702 5.1309 7.58941C4.85416 8.66087 4.70763 9.7624 4.69453 10.8697C4.62047 11.8964 4.91375 12.9158 5.52098 13.7424C5.8046 14.0646 6.15622 14.3183 6.54987 14.4848C6.94353 14.6513 7.36917 14.7264 7.79537 14.7044C8.34907 14.7144 8.89802 14.5997 9.40236 14.3686C9.9067 14.1375 10.3538 13.7958 10.7111 13.3683C11.417 12.4893 11.9024 11.4511 12.126 10.3419C12.4538 9.16439 12.6359 7.95036 12.6681 6.72759Z" fill="white"/>
<path d="M31.6196 9.56692C31.6196 12.0744 30.9915 14.0653 29.7353 15.5395C28.4923 17.036 26.6477 17.7842 24.1815 17.7842C22.6773 17.8778 21.1952 17.3825 20.0427 16.4013C19.5457 15.9289 19.1555 15.3537 18.8988 14.7149C18.6421 14.0762 18.5248 13.3889 18.5551 12.7002C18.4629 10.5603 19.1523 8.46082 20.4922 6.8011C21.8146 5.27789 23.6526 4.50961 26.0394 4.50961C27.5252 4.42044 28.9901 4.89717 30.1452 5.84576C30.6441 6.32023 31.0346 6.89903 31.2892 7.54175C31.5439 8.18448 31.6566 8.87561 31.6196 9.56692ZM27.6526 9.88091C27.6526 8.23299 26.9915 7.40681 25.6691 7.40236C25.1921 7.40502 24.7256 7.54375 24.3232 7.8026C23.9208 8.06144 23.599 8.42988 23.3948 8.86545C22.8257 9.92872 22.5429 11.1244 22.5749 12.3328C22.4987 13.044 22.6872 13.7585 23.1038 14.337C23.3044 14.5375 23.5449 14.6924 23.8094 14.7915C24.0739 14.8905 24.3563 14.9315 24.6377 14.9115C25.1237 14.8994 25.596 14.7462 25.9981 14.4701C26.4003 14.1941 26.7153 13.807 26.9055 13.3549C27.4476 12.2916 27.7008 11.1021 27.6394 9.90764L27.6526 9.88091Z" fill="white"/>
<path d="M38.3741 19.9285L37.7857 22.6944H30.6055L31.1741 19.9285H32.5955L34.8898 8.89862C34.938 8.6498 34.9645 8.39719 34.9691 8.14369C34.9813 8.05836 34.9736 7.97134 34.9467 7.88953C34.9198 7.80773 34.8743 7.7334 34.814 7.67244C34.7537 7.61148 34.6801 7.56558 34.5991 7.53837C34.5182 7.51116 34.4321 7.50341 34.3476 7.51572C34.1568 7.51536 33.9665 7.53324 33.779 7.56916L34.3741 4.83005C35.135 4.63969 35.9176 4.55209 36.7014 4.56951C37.3175 4.52728 37.932 4.67148 38.4666 4.98371C38.6706 5.15242 38.8304 5.36924 38.9319 5.61507C39.0333 5.8609 39.0734 6.12818 39.0485 6.39334C39.0576 6.48887 39.0576 6.58509 39.0485 6.68063C39.4484 5.99829 40.0247 5.43882 40.7154 5.0622C41.406 4.68559 42.1852 4.50603 42.9691 4.54278C45.6402 4.54278 46.9736 6.04595 46.9692 9.05228C46.9977 11.1682 46.3864 13.2426 45.2171 14.9981C44.6014 15.879 43.776 16.589 42.8171 17.0625C41.7623 17.5772 40.6031 17.8357 39.4319 17.8174C38.3014 17.8174 37.5146 17.5435 37.0848 17.009L36.4633 19.9285H38.3741ZM38.3741 10.6957C38.2067 11.4056 38.1115 12.1309 38.0898 12.8603C38.0399 13.4086 38.1931 13.9561 38.5196 14.3969C38.6946 14.5655 38.9028 14.6948 39.1306 14.7766C39.3585 14.8583 39.6008 14.8906 39.8419 14.8712C40.1782 14.8591 40.5071 14.7677 40.8021 14.6041C41.0972 14.4405 41.3503 14.2094 41.541 13.9292C42.4958 12.6779 42.9807 11.1251 42.9096 9.54665C42.9096 8.14369 42.3807 7.43553 41.3096 7.43553C39.8374 7.41326 38.8501 8.48887 38.3476 10.6623L38.3741 10.6957Z" fill="white"/>
<path d="M48.187 13.0878L51.744 12.9341C51.728 13.0985 51.728 13.2641 51.744 13.4285C51.744 14.4373 52.4713 14.9384 53.9126 14.9384C55.2349 14.9384 55.8961 14.5643 55.8961 13.816C55.8961 13.2949 55.5258 12.9475 54.7853 12.7738L52.5374 12.1993C51.6304 11.9947 50.7919 11.5549 50.1043 10.9232C49.8346 10.6353 49.6258 10.2949 49.4905 9.92278C49.3552 9.55063 49.2964 9.15455 49.3175 8.75868C49.2853 8.13051 49.4189 7.50497 49.7047 6.94617C49.9905 6.38737 50.4182 5.9154 50.944 5.57864C52.1525 4.83476 53.5495 4.46329 54.9639 4.50974C58.5253 4.50974 60.3082 5.72563 60.3126 8.15742C60.3186 8.49008 60.301 8.82274 60.2597 9.15284H56.8019C56.8163 9.03974 56.8163 8.92523 56.8019 8.81212C56.8019 7.80333 56.1407 7.30228 54.8184 7.30228C53.6614 7.30228 53.0862 7.65637 53.0862 8.37121C53.0862 8.8589 53.4432 9.19293 54.144 9.38667L56.544 10.0547C57.4686 10.2519 58.3299 10.679 59.0498 11.2974C59.3009 11.5763 59.4941 11.9034 59.6178 12.2591C59.7416 12.6148 59.7935 12.992 59.7705 13.3684C59.8153 14.3191 59.5036 15.2519 58.8978 15.9806C57.8619 17.1742 56.1143 17.7732 53.6548 17.7777C51.7109 17.7777 50.3005 17.4125 49.4233 16.6821C49.0242 16.3716 48.7005 15.973 48.4771 15.5168C48.2536 15.0606 48.1363 14.5588 48.1341 14.0498C48.1277 13.7283 48.1454 13.4067 48.187 13.0878Z" fill="white"/>
<path d="M68.2592 15.0918C68.2696 15.4421 68.2105 15.791 68.0857 16.118C67.9608 16.4449 67.7725 16.7434 67.532 16.9958C67.2883 17.2492 66.9946 17.448 66.67 17.5792C66.3454 17.7104 65.997 17.7711 65.6477 17.7574C65.3597 17.7715 65.0719 17.7266 64.8015 17.6256C64.5312 17.5246 64.2837 17.3695 64.0741 17.1695C63.8728 16.9637 63.716 16.7179 63.6136 16.4476C63.5111 16.1774 63.4653 15.8886 63.4791 15.5996C63.4633 15.2313 63.522 14.8636 63.6516 14.519C63.7812 14.1744 63.979 13.8601 64.2328 13.5953C64.4733 13.3448 64.7625 13.1472 65.0822 13.015C65.402 12.8828 65.7453 12.8188 66.0906 12.8271C66.3802 12.8133 66.6695 12.8602 66.9403 12.9648C67.2111 13.0694 67.4576 13.2295 67.6642 13.435C67.8689 13.6563 68.0271 13.9172 68.1294 14.2019C68.2316 14.4867 68.2758 14.7894 68.2592 15.0918Z" fill="white"/>
<path d="M68.338 11.3038H64.8008C65.8586 4.81903 66.5198 1.0511 66.7843 0H71.1545C71.1545 0 71.0686 0.420885 70.8901 1.20921C70.7115 1.99754 70.3942 3.327 69.938 5.18424C69.4818 7.04149 68.933 9.07912 68.338 11.3038Z" fill="white"/>
<path d="M77.0391 16.508H73.5548C73.6209 16.0136 73.6606 15.6997 73.6606 15.5727C73.7796 14.5973 74.454 13.7155 75.6441 12.9004C76.4424 12.4279 77.1685 11.8405 77.7995 11.1567C78.2039 10.715 78.4385 10.1414 78.4606 9.54001C78.4606 8.54458 77.9185 8.0502 76.8276 8.0502C76.537 8.04018 76.2478 8.09482 75.9804 8.21027C75.7131 8.32572 75.4741 8.49915 75.2804 8.71827C74.8571 9.24837 74.6241 9.90775 74.6193 10.5889H70.7383C70.8198 9.02039 71.4888 7.54197 72.6094 6.45349C73.7333 5.37121 75.3444 4.83008 77.4424 4.83008C81.0965 4.83008 82.9257 6.12615 82.9301 8.71827C82.9768 9.79305 82.6282 10.8473 81.9515 11.6778C81.0855 12.6293 80.0798 13.4404 78.9697 14.0829C78.4398 14.3755 77.9599 14.7522 77.5482 15.1986C77.2872 15.5929 77.1135 16.0396 77.0391 16.508Z" fill="white"/>
<path d="M77.1578 19.9954C77.1721 20.35 77.1163 20.704 76.9937 21.0367C76.8711 21.3693 76.6842 21.674 76.4438 21.9328C76.2021 22.187 75.9098 22.3864 75.586 22.5177C75.2623 22.649 74.9146 22.7093 74.5661 22.6944C74.2752 22.7081 73.9845 22.6632 73.7109 22.5622C73.4373 22.4613 73.1864 22.3064 72.9727 22.1065C72.7712 21.8994 72.6143 21.6524 72.5119 21.3811C72.4095 21.1097 72.3638 20.8199 72.3777 20.5298C72.3613 20.1603 72.421 19.7914 72.553 19.4464C72.685 19.1014 72.8865 18.7879 73.1446 18.5256C73.3878 18.2744 73.6792 18.0761 74.0009 17.9429C74.3227 17.8096 74.668 17.7442 75.0157 17.7506C75.3038 17.7376 75.5914 17.7855 75.8601 17.8913C76.1288 17.9972 76.3727 18.1586 76.576 18.3653C76.9761 18.8092 77.1854 19.3956 77.1578 19.9954Z" fill="white"/>
</g>
<defs>
<clipPath id="clip0_234_8311">
<rect width="82.4863" height="22.6611" fill="white" transform="translate(0.4375)"/>
</clipPath>
</defs>
</svg>
