<svg width="100" height="32" viewBox="0 0 100 32" fill="none" xmlns="http://www.w3.org/2000/svg">
<path d="M74.8125 15.4629L75.8572 7.51628L76.638 3.87939H81.6528L80.872 7.54408L78.601 15.4629H74.8125Z" fill="white"/>
<path d="M23.2014 11.3867C23.2014 16.6975 20.3146 22.2751 13.1444 22.2751C8.01425 22.2751 5.82031 18.9608 5.82031 15.0236C5.82031 9.70175 9.03699 3.87939 15.7233 3.87939C20.8975 3.87939 23.2014 7.2716 23.2014 11.3867ZM10.8625 15.1126C10.8625 17.2369 11.7038 18.6772 13.6833 18.6772C17.0485 18.6772 18.2472 13.9893 18.2472 11.0809C18.2472 9.10672 17.5818 7.47179 15.4869 7.47179C12.3307 7.47179 10.8625 12.0596 10.8625 15.1126Z" fill="white"/>
<path d="M38.964 14.0393C38.964 17.5761 36.957 22.2417 30.958 22.2417C26.6471 22.2417 25.0195 19.6336 25.0195 16.5362C25.0195 12.7603 27.3949 8.15576 32.8715 8.15576C36.6766 8.15576 38.964 10.2967 38.964 14.0393ZM29.8473 16.9421C29.8473 18.3212 30.3532 19.0386 31.3429 19.0386C33.3444 19.0386 34.1582 15.0514 34.1582 13.3164C34.1582 12.0262 33.6633 11.3923 32.6461 11.3923C30.6996 11.3923 29.8473 15.196 29.8473 16.9421Z" fill="white"/>
<path d="M61.2695 17.704C61.3465 18.6382 61.9679 19.1165 63.0511 19.1165C64.0738 19.1165 64.5577 18.705 64.5577 17.9876C64.5577 17.3481 63.9859 17.02 62.5122 16.5918C59.0591 15.6186 58.0804 14.4675 58.0804 12.7046C58.0804 10.2133 60.0269 8.15576 64.0024 8.15576C67.9778 8.15576 69.8914 10.0521 69.8034 12.3877H65.465C65.4595 11.6481 65.0361 11.1086 63.9144 11.1086C63.2655 11.1086 62.6057 11.3033 62.6057 12.0206C62.6057 12.5934 63.249 12.8326 64.9701 13.3386C68.1703 14.2895 69.215 15.613 69.215 17.476C69.215 20.8348 66.1413 22.2417 62.7487 22.2417C58.8997 22.2417 56.7662 20.579 56.8377 17.704H61.2641H61.2695Z" fill="white"/>
<path d="M40.079 24.038H38.7868L38.1875 26.8908H45.5886L46.188 24.038H44.7693L45.4127 20.9739C45.891 21.6746 46.9468 22.2418 48.4039 22.2418C53.1767 22.2418 55.6841 17.6985 55.6841 13.361C55.6841 9.93539 54.007 8.15587 51.5381 8.15587C49.4816 8.15587 48.3434 9.15129 47.6781 9.95207V9.90202C47.7001 9.80192 47.6946 9.62953 47.6781 9.50163C47.6561 9.34592 47.6121 9.2069 47.5681 9.06231C47.5296 8.93997 47.4526 8.82875 47.3757 8.72865C47.2162 8.51177 47.0128 8.33382 46.7873 8.18924L46.7543 8.16699C46.3419 7.91119 45.8745 7.7666 45.3962 7.71099C45.1322 7.67763 44.8683 7.6665 44.6044 7.6665C43.4662 7.6665 42.5204 7.77216 41.7671 7.98348L41.0413 11.3312C41.2502 11.2867 41.4812 11.27 41.7341 11.27C42.24 11.27 42.4929 11.5258 42.4929 12.0374C42.4929 12.5157 42.3994 12.9884 42.295 13.4499L40.0735 24.038H40.079ZM47.7991 18.8719C46.1495 18.8719 46.0175 17.3927 46.4079 15.4853C46.9193 13.0329 47.8211 11.587 49.2562 11.587C50.2239 11.587 50.8453 12.1375 50.8453 13.6724C50.8453 15.4686 49.85 18.8719 47.7991 18.8719Z" fill="white"/>
<path d="M78.068 19.5606C78.068 20.328 77.8316 20.962 77.3642 21.4736C76.8968 21.9796 76.2865 22.2354 75.5387 22.2354C74.9118 22.2354 74.406 22.0408 74.0211 21.646C73.6362 21.2567 73.4492 20.7284 73.4492 20.0667C73.4492 19.2659 73.6912 18.6041 74.175 18.0869C74.6589 17.5698 75.2583 17.314 75.9731 17.314C76.5999 17.314 77.1058 17.5197 77.4907 17.9312C77.8756 18.3427 78.0625 18.8822 78.0625 19.5606H78.068Z" fill="white"/>
<path d="M87.8337 24.4771C87.8337 25.2445 87.5972 25.8785 87.1298 26.3901C86.6625 26.8961 86.0521 27.1519 85.3043 27.1519C84.6775 27.1519 84.1716 26.9573 83.7867 26.5625C83.4018 26.1732 83.2148 25.6449 83.2148 24.9832C83.2148 24.1824 83.4568 23.5206 83.9407 23.0034C84.4245 22.4863 85.0239 22.2305 85.7387 22.2305C86.3655 22.2305 86.8714 22.4362 87.2563 22.8477C87.6412 23.2593 87.8282 23.7987 87.8282 24.4771H87.8337Z" fill="white"/>
<path d="M88.0814 8.8501C86.5363 8.8501 85.3321 9.14483 84.3919 9.662C84.2599 9.73429 84.1444 9.81771 84.029 9.89556C83.9245 9.96786 83.831 10.0457 83.732 10.1236C82.3189 11.2802 81.8625 12.9597 81.725 14.1275C81.6316 14.9116 81.6811 15.4677 81.6811 15.4677H85.4861C85.4861 15.4677 85.4531 14.7892 85.6016 14.0997C85.948 12.7539 86.6903 12.0532 87.7295 12.0532C88.6258 12.0532 88.8952 12.6594 88.8677 13.3378C88.8402 14.2943 87.8395 15.0117 86.9377 15.6845C84.8043 17.2583 83.985 18.3316 83.6661 19.9999C83.6276 20.2446 83.5396 20.7729 83.5836 20.9286H88.2519C88.2519 20.8952 88.2959 20.6116 88.3014 20.556C88.4883 19.6718 88.9392 19.0211 90.2204 18.1369C92.4088 16.6466 93.6185 15.2786 93.6185 13.1209C93.6185 10.9633 92.1889 8.85566 88.0759 8.85566L88.0814 8.8501Z" fill="white"/>
<path d="M84.0274 9.89551C83.9229 9.9678 83.8239 10.0457 83.7305 10.1235C83.8294 10.0457 83.9229 9.9678 84.0274 9.89551Z" fill="white"/>
</svg>
