<svg width="206" height="55" viewBox="0 0 206 55" fill="none" xmlns="http://www.w3.org/2000/svg">
<g clip-path="url(#clip0_234_8590)">
<path d="M34.184 17.9445C34.1697 22.3661 33.4017 26.7521 31.9136 30.9101C30.5604 34.978 28.1905 38.6238 25.0335 41.4946C20.6856 45.2377 15.1067 47.1973 9.39849 46.9867C4.52467 47.2565 -0.263737 45.6125 -3.96609 42.3984C-7.26853 39.351 -8.91977 34.9771 -8.91977 29.2764C-8.93198 25.1295 -8.22765 21.0124 -6.83852 17.1103C-5.48139 13.2784 -3.24781 9.82443 -0.319643 7.02981C1.86196 4.91702 4.44215 3.26962 7.26717 2.18573C10.0922 1.10183 13.1042 0.603663 16.1238 0.72087C21.7655 0.72087 26.1974 2.18659 29.4196 5.11804C32.5844 8.07266 34.184 12.3481 34.184 17.9445ZM22.9695 18.2226C22.9695 11.8499 20.4009 8.65779 15.2638 8.6462C13.5829 8.61858 11.9207 9.00631 10.4219 9.77568C8.92304 10.5451 7.63289 11.6727 6.66365 13.0607C5.10139 15.2909 3.98005 17.8049 3.36121 20.4647C2.64128 23.2521 2.26006 26.1177 2.22599 28.9983C2.03331 31.6693 2.79629 34.3214 4.37602 36.4717C5.11386 37.31 6.02861 37.9701 7.05272 38.4032C8.07682 38.8364 9.18413 39.0316 10.2929 38.9745C11.7334 39.0006 13.1615 38.7022 14.4735 38.1009C15.7856 37.4996 16.9486 36.6106 17.8782 35.4985C19.7147 33.2119 20.9775 30.5109 21.5591 27.6253C22.412 24.562 22.8857 21.4037 22.9695 18.2226Z" fill="white" fill-opacity="0.17"/>
<path d="M72.2649 25.6091C72.2649 32.1324 70.6308 37.3117 67.3628 41.1469C64.1291 45.04 59.3303 46.9866 52.9146 46.9866C49.0013 47.2299 45.1455 45.9416 42.1472 43.3889C40.8544 42.16 39.8393 40.6635 39.1714 39.0017C38.5035 37.34 38.1985 35.5521 38.2771 33.7603C38.0374 28.1933 39.831 22.7315 43.3168 18.4137C46.7568 14.451 51.5385 12.4523 57.7478 12.4523C61.6132 12.2204 65.4243 13.4606 68.4292 15.9284C69.7272 17.1627 70.7429 18.6685 71.4054 20.3405C72.0679 22.0126 72.3612 23.8106 72.2649 25.6091V25.6091ZM61.9447 26.4259C61.9447 22.1388 60.2247 19.9895 56.7846 19.9779C55.5437 19.9848 54.33 20.3457 53.2832 21.0191C52.2364 21.6925 51.3991 22.651 50.8677 23.7842C49.3872 26.5503 48.6517 29.6608 48.7349 32.8044C48.5366 34.6548 49.0271 36.5136 50.1109 38.0185C50.6326 38.54 51.2584 38.9431 51.9465 39.2008C52.6347 39.4586 53.3693 39.5651 54.1014 39.5131C55.3657 39.4816 56.5943 39.083 57.6405 38.3649C58.6867 37.6468 59.5061 36.6396 60.0011 35.4636C61.4113 32.6975 62.0701 29.6029 61.9103 26.4955L61.9447 26.4259Z" fill="white" fill-opacity="0.17"/>
<path d="M89.8431 52.566L88.3123 59.7614H69.6328L71.112 52.566H74.8101L80.7785 23.8714C80.9039 23.2241 80.973 22.5669 80.9849 21.9074C81.0166 21.6854 80.9967 21.459 80.9266 21.2462C80.8566 21.0334 80.7384 20.84 80.5814 20.6814C80.4245 20.5229 80.2331 20.4034 80.0225 20.3327C79.8118 20.2619 79.5878 20.2417 79.3681 20.2737C78.8718 20.2728 78.3765 20.3193 77.8889 20.4127L79.4369 13.2869C81.4166 12.7917 83.4525 12.5638 85.4914 12.6091C87.0942 12.4992 88.693 12.8744 90.0839 13.6866C90.6145 14.1255 91.0302 14.6896 91.2942 15.3291C91.5581 15.9687 91.6623 16.664 91.5975 17.3538C91.6212 17.6024 91.6212 17.8527 91.5975 18.1012C92.6381 16.3261 94.1371 14.8706 95.9339 13.8909C97.7308 12.9111 99.7577 12.444 101.797 12.5396C108.746 12.5396 112.215 16.4501 112.203 24.2711C112.278 29.7758 110.687 35.1723 107.645 39.7394C106.043 42.0311 103.896 43.878 101.402 45.1099C98.6577 46.4489 95.6419 47.1214 92.5951 47.0739C89.6539 47.0739 87.607 46.3613 86.489 44.9709L84.8722 52.566H89.8431ZM89.8431 28.5466C89.4077 30.3934 89.1598 32.2802 89.1034 34.1778C88.9737 35.6042 89.3721 37.0285 90.2215 38.1752C90.6768 38.6138 91.2185 38.9504 91.8112 39.1631C92.404 39.3757 93.0345 39.4596 93.6616 39.4092C94.5366 39.3778 95.3921 39.1398 96.1597 38.7143C96.9273 38.2887 97.5857 37.6875 98.082 36.9586C100.566 33.7032 101.827 29.6636 101.642 25.5572C101.642 21.9074 100.266 20.0651 97.48 20.0651C93.65 20.0072 91.0815 22.8054 89.7743 28.4598L89.8431 28.5466Z" fill="white" fill-opacity="0.17"/>
<path d="M115.369 34.7685L124.623 34.3688C124.582 34.7965 124.582 35.2272 124.623 35.6549C124.623 38.2793 126.515 39.5828 130.265 39.5828C133.705 39.5828 135.425 38.6095 135.425 36.663C135.425 35.3073 134.462 34.4036 132.535 33.9517L126.687 32.457C124.328 31.9248 122.146 30.7807 120.357 29.1374C119.656 28.3883 119.112 27.5028 118.761 26.5346C118.409 25.5665 118.256 24.5361 118.311 23.5062C118.227 21.872 118.574 20.2446 119.318 18.7909C120.061 17.3372 121.174 16.1093 122.542 15.2333C125.686 13.298 129.32 12.3316 133 12.4525C142.265 12.4525 146.903 15.6156 146.915 21.942C146.93 22.8074 146.884 23.6729 146.777 24.5316L137.781 24.5316C137.819 24.2374 137.819 23.9395 137.781 23.6452C137.781 21.0208 136.061 19.7174 132.621 19.7174C129.611 19.7174 128.115 20.6385 128.115 22.4982C128.115 23.7669 129.044 24.6359 130.867 25.1399L137.11 26.878C139.516 27.3908 141.756 28.5019 143.629 30.1106C144.283 30.8364 144.785 31.6872 145.107 32.6126C145.429 33.5381 145.564 34.5194 145.504 35.4985C145.621 37.9717 144.81 40.3984 143.234 42.2941C140.539 45.3994 135.992 46.9578 129.594 46.9694C124.537 46.9694 120.868 46.0193 118.586 44.1191C117.547 43.3113 116.705 42.2744 116.124 41.0876C115.543 39.9008 115.238 38.5955 115.232 37.2713C115.215 36.4347 115.261 35.5981 115.369 34.7685V34.7685Z" fill="white" fill-opacity="0.17"/>
<path d="M167.589 39.982C167.616 40.8933 167.462 41.8009 167.137 42.6515C166.812 43.5021 166.323 44.2785 165.697 44.9353C165.063 45.5945 164.299 46.1115 163.454 46.4529C162.61 46.7942 161.704 46.9522 160.795 46.9166C160.046 46.9531 159.297 46.8365 158.593 46.5737C157.89 46.3109 157.246 45.9073 156.701 45.3872C156.177 44.8517 155.769 44.2122 155.503 43.5091C155.236 42.8061 155.117 42.0548 155.153 41.3028C155.112 40.3447 155.265 39.3882 155.602 38.4918C155.939 37.5953 156.453 36.7776 157.114 36.0888C157.74 35.437 158.492 34.923 159.324 34.579C160.155 34.2351 161.049 34.0686 161.947 34.0901C162.7 34.0543 163.453 34.1763 164.157 34.4485C164.862 34.7207 165.503 35.1371 166.041 35.6717C166.573 36.2474 166.985 36.9261 167.251 37.6669C167.517 38.4076 167.632 39.1952 167.589 39.982Z" fill="white" fill-opacity="0.17"/>
<path d="M167.796 30.1278H158.594C161.346 13.2575 163.066 3.45518 163.754 0.720703L175.123 0.720703C175.123 0.720703 174.9 1.81565 174.435 3.8665C173.971 5.91735 173.145 9.37597 171.958 14.2076C170.772 19.0393 169.344 24.3403 167.796 30.1278Z" fill="white" fill-opacity="0.17"/>
<path d="M190.431 43.6666H181.366C181.538 42.3805 181.642 41.5636 181.642 41.2334C181.951 38.6959 183.706 36.4017 186.802 34.2813C188.879 33.052 190.767 31.5239 192.409 29.7451C193.461 28.5958 194.071 27.1038 194.129 25.5391C194.129 22.9495 192.719 21.6634 189.88 21.6634C189.125 21.6373 188.372 21.7794 187.677 22.0798C186.981 22.3801 186.359 22.8313 185.856 23.4014C184.754 24.7804 184.148 26.4958 184.136 28.2678H174.039C174.251 24.1873 175.991 20.3412 178.907 17.5095C181.831 14.6939 186.022 13.2861 191.48 13.2861C200.986 13.2861 205.745 16.6579 205.756 23.4014C205.878 26.1974 204.971 28.94 203.211 31.1008C200.958 33.5759 198.341 35.6862 195.453 37.3576C194.075 38.1188 192.826 39.0988 191.755 40.2601C191.076 41.286 190.624 42.448 190.431 43.6666V43.6666Z" fill="white" fill-opacity="0.17"/>
<path d="M190.74 52.7397C190.777 53.6624 190.632 54.5833 190.313 55.4487C189.994 56.3141 189.507 57.1066 188.882 57.78C188.253 58.4414 187.493 58.9601 186.65 59.3017C185.808 59.6433 184.904 59.8 183.997 59.7613C183.24 59.797 182.484 59.6801 181.772 59.4175C181.061 59.1549 180.408 58.7519 179.852 58.2319C179.328 57.6931 178.92 57.0506 178.653 56.3447C178.387 55.6388 178.268 54.8848 178.304 54.1301C178.261 53.1688 178.416 52.2091 178.76 51.3115C179.103 50.414 179.627 49.5983 180.299 48.9161C180.932 48.2627 181.69 47.7468 182.527 47.4001C183.364 47.0534 184.262 46.8832 185.167 46.9C185.916 46.866 186.664 46.9907 187.364 47.266C188.063 47.5414 188.697 47.9614 189.226 48.499C190.267 49.6539 190.811 51.1793 190.74 52.7397Z" fill="white" fill-opacity="0.17"/>
</g>
<defs>
<clipPath id="clip0_234_8590">
<rect width="214.59" height="58.9534" fill="white" transform="translate(-8.85156 0.720703)"/>
</clipPath>
</defs>
</svg>
