<svg width="152" height="129" viewBox="0 0 152 129" fill="none" xmlns="http://www.w3.org/2000/svg">
<path d="M109.676 54.2479C106.746 64.227 104.918 68.5351 105.282 81.3011C105.282 81.3011 103.89 87.6488 104.037 89.983C104.183 92.3171 103.233 110.555 102.867 113.619C102.867 113.619 107.696 112.816 108.209 113.181C108.721 113.546 112.452 93.7093 112.232 90.5671C112.012 87.4249 119.185 71.9645 119.556 68.6081C119.927 65.2517 121.973 53.0698 121.973 53.0698L109.676 54.2479Z" fill="#6F889B"/>
<path d="M132.582 115.685C132.582 115.685 131.625 116.722 131.625 117.89C131.625 119.058 132.137 121.025 130.892 122.084C129.647 123.142 127.892 124.274 127.855 126.971C127.855 126.971 129.467 128.188 131.368 128.322C133.27 128.456 136.051 127.811 136.6 126.606C137.149 125.401 137.088 122.451 136.893 122.013C136.698 121.575 136.6 118.362 136.6 117.269C136.6 116.176 135.074 114.572 132.582 115.685Z" fill="black"/>
<path d="M134.846 111.798L136.601 113.621L135.759 117.671H132.869L132.285 113.621L134.846 111.798Z" fill="#FCC8B3"/>
<path d="M131.112 118.504C131.148 117.703 132.54 116.973 133.49 117.01C134.439 117.046 136.307 117.192 136.307 119.161C136.307 121.13 136.063 123.501 136.063 123.501L131.124 122.664C131.124 122.664 131.197 120.838 131.124 120.074C131.078 119.552 131.074 119.027 131.112 118.504Z" fill="black"/>
<path d="M117.43 61.5353C117.483 61.7374 117.54 61.9394 117.598 62.1438C120.266 71.6484 126.604 82.8031 127.893 84.5872C127.893 84.5872 127.309 93.4151 128.625 99.9064C129.941 106.398 132.287 113.622 132.287 113.622C132.287 113.622 133.823 114.352 136.603 113.622C136.603 113.622 138.945 93.2009 137.482 83.6039C136.02 74.0068 133.603 61.5353 133.603 61.5353C133.603 61.5353 133.994 56.4776 133.823 54.2506C133.652 52.0235 121.97 53.0725 121.97 53.0725L117.43 61.5353Z" fill="#6F889B"/>
<path d="M115.297 66.1577L119.64 68.1365L127.857 64.7217" stroke="black" stroke-width="0.52" stroke-miterlimit="10"/>
<path d="M117.43 59.7554C117.43 59.7554 117.955 66.6386 118.179 67.3006" stroke="black" stroke-width="0.52" stroke-miterlimit="10"/>
<path d="M128.227 58.2354C128.227 58.2354 129.108 62.1053 132.506 63.5267" stroke="black" stroke-width="0.52" stroke-miterlimit="10"/>
<path d="M127.895 84.5859C127.895 84.5859 130.87 86.5331 132.506 88.8526" stroke="black" stroke-width="0.52" stroke-miterlimit="10"/>
<path d="M109.41 29.1023C109.41 29.1023 110.074 27.306 111.175 26.4079C113.101 24.838 119.869 22.129 124.041 21.3404C128.213 20.5519 135.554 20.4253 135.554 20.4253C135.554 20.4253 137.436 28.966 136.774 31.9549C136.113 34.9437 134.624 41.2038 132.136 44.1976C132.136 44.1976 134.743 52.8308 134.663 55.4448C134.663 55.4448 121.944 57.5185 118.138 57.8788C114.332 58.239 109.789 54.2278 109.789 54.2278C109.789 54.2278 112.071 48.8975 111.932 46.926C111.793 44.9545 109.034 32.8944 109.41 29.1023Z" fill="#395D6C"/>
<path d="M122.516 41.0538C122.516 41.0538 121.75 47.7837 122.516 51.0111L130.914 50.6825L130.695 40.46L122.516 41.0538Z" fill="#395D6C" stroke="black" stroke-width="0.8" stroke-miterlimit="10"/>
<path d="M118.181 41.189L118.786 49.9438L113.381 50.1629L112.695 43.1872L118.181 41.189Z" fill="#395D6C" stroke="black" stroke-width="0.8" stroke-miterlimit="10"/>
<path d="M122.039 30.6016C120.794 35.2723 119.039 45.7772 120.428 52.3415" stroke="black" stroke-width="0.8" stroke-miterlimit="10"/>
<path d="M118.179 40.5312L117.905 43.8755L112.254 44.1432L112.417 41.3004L118.179 40.5312Z" fill="#395D6C" stroke="black" stroke-width="0.88" stroke-miterlimit="10"/>
<path d="M122.176 39.9526C122.176 39.9526 129.568 38.7916 131.475 39.2029L131.162 42.6299L121.822 43.4137C121.822 43.4137 121.46 40.841 122.176 39.9526Z" fill="#395D6C" stroke="black" stroke-width="0.7" stroke-miterlimit="10"/>
<path d="M119.187 30.8774L118.992 37.1083L118.179 38.6101L116.602 36.7335L117.356 32.883L119.187 30.8774Z" fill="black" stroke="#395D6C" stroke-width="0.7" stroke-miterlimit="10"/>
<path d="M111.797 34.2503L112.256 39.0841L118.181 38.6094L118.017 33.0649L111.797 34.2503Z" fill="#395D6C" stroke="black" stroke-width="0.8" stroke-miterlimit="10"/>
<path d="M111.927 31.8632L111.598 34.543L118.511 33.8323L119.19 30.8774L111.927 31.8632Z" fill="#395D6C" stroke="black" stroke-width="0.8" stroke-miterlimit="10"/>
<path d="M124.265 32.4623L123.73 38.1942L131.879 37.6929L131.709 31.3159L124.265 32.4623Z" fill="#395D6C" stroke="black" stroke-width="0.8" stroke-miterlimit="10"/>
<path d="M123.914 30.4966L131.879 29.5352C131.879 29.5352 131.496 31.8085 131.879 32.5192L123.73 33.4928L123.914 30.4966Z" fill="#395D6C" stroke="black" stroke-width="0.8" stroke-miterlimit="10"/>
<path d="M122.041 30.6017C119.661 27.9244 119.449 23.424 119.188 22.6817C120.445 22.285 122.94 21.5402 123.987 21.3382C125.208 21.0948 128.716 20.7662 130.205 20.6323C127.307 24.1518 122.041 30.6017 122.041 30.6017Z" fill="#FFE5AD"/>
<path d="M106.532 51.4272C106.532 51.4272 106.952 51.8191 107.055 52.8438C107.157 53.8685 107.519 55.4092 108.444 55.4092C109.369 55.4092 112.147 50.2249 112.252 49.8111C112.357 49.3973 110.299 49.9133 109.731 49.8111C109.162 49.7089 108.239 47.606 108.239 47.606C108.239 47.606 106.01 50.0107 106.532 51.4272Z" fill="#FCC8B3"/>
<path d="M109.55 29.1431C105.38 32.5725 101.494 40.9598 100.695 44.0972C100.695 44.0972 101.135 47.2345 102.966 49.4226C104.797 51.6107 106.549 51.7568 106.549 51.7568C106.549 51.7568 107.575 49.2766 108.964 48.9115C108.964 48.9115 109.33 47.4511 108.087 45.1924C108.087 45.1924 110.795 44.5353 111.307 42.7853C111.305 42.7853 108.888 31.6963 109.55 29.1431Z" fill="#FFE5AD"/>
<path d="M103.035 43.0514C104.131 42.7228 106.399 42.6863 108.084 45.2029" stroke="#959CA3" stroke-width="0.8" stroke-miterlimit="10"/>
<path d="M110.737 50.7456L110.312 49.9107L113.713 48.1851L115.381 49.3728C115.229 49.5833 115.007 49.7319 114.754 49.791C114.501 49.85 114.235 49.8156 114.006 49.6941L113.423 49.3826L110.737 50.7456Z" fill="#FCC8B3"/>
<path d="M113.489 52.1093L112.493 51.1041L110.503 51.3232L110.312 50.4056L112.873 49.875L114.861 52.1629C114.668 52.3289 114.419 52.4158 114.164 52.4058C113.909 52.3959 113.668 52.2899 113.489 52.1093Z" fill="#FCC8B3"/>
<path d="M112.147 53.7718L111.317 52.2628H109.82V51.3257H111.873L113.421 54.1418C113.313 54.201 113.194 54.2385 113.072 54.252C112.949 54.2655 112.825 54.2547 112.707 54.2203C112.589 54.186 112.478 54.1287 112.382 54.0517C112.286 53.9747 112.206 53.8796 112.147 53.7718Z" fill="#FCC8B3"/>
<path d="M110.936 54.687L110.224 53.8205L109.311 54.0639L109.066 53.1609L110.568 52.752L112.26 54.8111C112.165 54.8899 112.055 54.9491 111.937 54.9855C111.819 55.0219 111.695 55.0347 111.572 55.0232C111.449 55.0117 111.33 54.976 111.221 54.9183C111.112 54.8606 111.015 54.782 110.936 54.687Z" fill="#FCC8B3"/>
<path d="M125.071 9.81348L129.221 13.2624C129.399 13.4092 129.529 13.6064 129.592 13.8279C129.656 14.0495 129.651 14.2851 129.578 14.5037C129.287 15.3555 128.601 16.6406 126.992 16.9984C124.551 17.5461 122.508 13.7199 122.508 13.7199L125.071 9.81348Z" fill="#2A4551"/>
<path d="M120.207 19.4415C120.207 19.4415 120.236 22.9975 120.207 24.1196C120.207 24.1196 121.428 26.3685 123.063 26.0083C124.816 25.6213 127.433 23.9638 128.878 21.5761L126.3 14.0625L120.207 19.4415Z" fill="#FCC8B3"/>
<path d="M123.056 21.8608C122.148 22.1949 121.166 22.2683 120.219 22.0725C120.219 20.7777 120.219 19.4414 120.219 19.4414L124.005 16.0972C124.955 16.3406 125.699 16.8906 125.985 17.6987C126.522 19.237 125.214 21.1014 123.056 21.8608Z" fill="#FCA886"/>
<path d="M126.117 14.4216C126.852 14.4051 127.433 13.7555 127.415 12.9707C127.397 12.1859 126.787 11.563 126.053 11.5795C125.318 11.596 124.737 12.2456 124.755 13.0304C124.772 13.8152 125.382 14.4381 126.117 14.4216Z" fill="#FCC8B3"/>
<path d="M125.651 11.0651C124.894 8.48495 122.182 7.0056 119.595 7.76088C117.008 8.51615 115.524 11.22 116.282 13.8002L117.206 16.9442C117.963 19.5244 120.675 21.0037 123.262 20.2484C125.849 19.4932 127.333 16.7893 126.575 14.2092L125.651 11.0651Z" fill="#FCC8B3"/>
<path d="M122.937 14.7866C123.114 14.7866 123.257 14.6439 123.257 14.4678C123.257 14.2917 123.114 14.1489 122.937 14.1489C122.76 14.1489 122.617 14.2917 122.617 14.4678C122.617 14.6439 122.76 14.7866 122.937 14.7866Z" fill="black"/>
<path d="M118.457 16.0922C118.633 16.0922 118.776 15.9495 118.776 15.7734C118.776 15.5973 118.633 15.4546 118.457 15.4546C118.28 15.4546 118.137 15.5973 118.137 15.7734C118.137 15.9495 118.28 16.0922 118.457 16.0922Z" fill="black"/>
<path d="M120.082 15.1416C120.275 15.3582 120.724 16.2953 120.485 16.7115" stroke="black" stroke-width="0.49" stroke-miterlimit="10"/>
<path d="M120.984 12.2424C121.277 11.9113 122.356 11.3954 123.072 11.9649" stroke="black" stroke-width="2.02" stroke-miterlimit="10"/>
<path d="M117.188 14.2526C117.502 13.7439 118.242 13.3666 118.896 13.6782" stroke="black" stroke-width="2.02" stroke-miterlimit="10"/>
<path d="M120.035 18.1354C120.035 18.1354 121.681 18.9775 122.608 17.3857" stroke="black" stroke-width="0.49" stroke-miterlimit="10"/>
<path d="M122.734 10.1238C123.064 10.3672 123.201 11.1266 123.201 11.1266C123.201 11.1266 124.421 12.4823 124.47 12.9715L125.176 12.8717C125.176 12.8717 125.556 11.8373 126.069 11.5428L124.626 9.72217L122.734 10.1238Z" fill="black"/>
<path d="M115.982 13.2038C117.227 12.1791 123.513 9.30952 126.057 11.5487C126.057 11.5487 125.715 3.70902 119.011 5.8728C117.207 6.45451 114.26 8.06577 115.982 13.2038Z" fill="#395D6C"/>
<path d="M120.993 9.8715L117.414 10.7574C117.243 10.0711 117.902 9.31901 118.893 9.07319C119.884 8.82737 120.822 9.18515 120.993 9.8715Z" fill="black"/>
<path d="M135.917 46.0493C135.917 46.0493 133.444 49.2426 132.658 49.2986C131.872 49.3546 128.508 46.945 128.508 46.945C128.508 46.945 125.676 49.284 125.207 51.7569C125.207 51.7569 129.577 53.8403 131.825 53.5604C134.074 53.2805 137.784 50.5326 137.784 50.5326C137.784 50.5326 137.316 47.001 135.917 46.0493Z" fill="#FCC8B3"/>
<path d="M127.999 48.1197L126.412 46.7251L125.23 46.7592C125.106 46.7644 124.982 46.7449 124.865 46.7017C124.749 46.6586 124.642 46.5928 124.551 46.5081C124.46 46.4233 124.387 46.3214 124.336 46.2082C124.285 46.0951 124.257 45.9729 124.254 45.8489L126.742 45.7783L128.695 47.1583L127.999 48.1197Z" fill="#FCC8B3"/>
<path d="M126.832 49.8171L124.994 48.3737L123.153 48.0452C123.031 48.0232 122.922 47.9538 122.851 47.8521C122.779 47.7504 122.751 47.6247 122.773 47.5024C122.795 47.38 122.865 47.2715 122.968 47.2004C123.07 47.1293 123.196 47.1014 123.319 47.1227L125.309 47.478L127.806 48.4346L126.832 49.8171Z" fill="#FCC8B3"/>
<path d="M126.152 51.0843L124.502 50.2738L123.071 50.0937C122.948 50.0779 122.836 50.014 122.759 49.9159C122.683 49.8178 122.648 49.6936 122.664 49.5704C122.68 49.4475 122.744 49.336 122.843 49.2599C122.941 49.1839 123.065 49.1494 123.189 49.1639L124.778 49.3635L126.731 49.9306L126.152 51.0843Z" fill="#FCC8B3"/>
<path d="M125.843 51.9789L124.017 51.8183L122.699 51.2755C122.586 51.2258 122.497 51.1339 122.451 51.0197C122.406 50.9055 122.407 50.778 122.454 50.6646C122.504 50.5521 122.596 50.4636 122.711 50.4181C122.826 50.3726 122.953 50.3737 123.067 50.4212L124.251 50.908L125.936 51.0589L125.843 51.9789Z" fill="#FCC8B3"/>
<path d="M135.503 20.3887C140.994 23.38 149.921 33.7388 150.947 38.3998C150.947 38.3998 151.896 43.5792 145.971 47.3007C140.046 51.0222 136.751 52.3341 136.751 52.3341C136.751 52.3341 135.945 47.6658 134.922 46.3515C134.922 46.3515 140.264 41.0991 144.067 39.349C144.067 39.349 137.703 38.4728 134.922 34.7538C134.922 34.7611 133.157 23.1609 135.503 20.3887Z" fill="#FFE5AD"/>
<path d="M144.062 39.3568C145.891 38.9735 147.769 38.8815 149.626 39.0842" stroke="#959CA3" stroke-width="0.8" stroke-miterlimit="10"/>
<path d="M16.8594 70.1747L28.9339 63.3913L32.6666 50.6958L22.9333 51.7911L16.8594 70.1747Z" fill="#395D6C"/>
<path d="M2.37109 112.742V118.943H6.28444L7.66132 113.18L5.66192 111.646L2.37109 112.742Z" fill="#FCC8B3"/>
<path d="M2.37901 117.374C2.37901 117.374 -0.0622564 123.356 0.00121661 125.07C0.0646896 126.783 2.76716 128.426 5.02289 128.234C7.27862 128.041 8.48707 125.717 8.34304 125.096C8.19901 124.476 8.13065 123.31 7.66925 122.361C7.20785 121.411 6.18249 117.692 6.18249 117.692L2.37901 117.374Z" fill="black"/>
<path d="M2.37891 117.373L3.3896 115.842C3.49727 115.679 3.64995 115.55 3.82927 115.471C4.0086 115.393 4.20691 115.368 4.40028 115.399L5.74787 115.613C5.98596 115.65 6.20287 115.771 6.35986 115.954C6.51684 116.136 6.60366 116.368 6.60476 116.608C6.60476 117.638 6.62673 119.254 6.69264 119.476C6.79273 119.809 5.02279 119.476 5.02279 119.476L2.37891 117.373Z" fill="black"/>
<path d="M13.2025 52.5671C9.836 57.9218 7.2019 71.7052 8.19061 83.0863C7.93238 85.3974 7.30174 87.6518 6.32303 89.7626C4.67762 93.3721 1.16462 101.798 2.37305 112.741C2.37305 112.741 5.92999 113.618 7.66329 113.18C7.66329 113.18 10.0557 105.301 10.9346 102.894C11.8135 100.487 14.2254 92.3888 14.0057 90.4173C13.786 88.4458 21.1415 68.8599 21.4711 65.9051C21.8007 62.9503 24.3152 51.6812 24.3152 51.6812L13.2025 52.5671Z" fill="#395D6C"/>
<path d="M25.4179 114.302C25.5913 112.722 24.8711 110.651 24.8711 110.651L28.1277 108.609L29.7194 109.85C29.7194 109.85 29.2165 112.601 29.4753 113.501L25.4179 114.302Z" fill="#FCC8B3"/>
<path d="M19.8222 65.1413C19.7123 65.4698 24.4997 86.1511 23.7526 88.1201C23.0056 90.0892 21.5262 97.2036 21.8265 100.268C22.1268 103.332 24.9806 109.459 24.8707 110.663C24.8707 110.663 28.3837 110.882 29.702 110.225C29.702 110.225 30.6785 89.4344 31.677 85.2748C32.6755 81.1152 32.9928 79.9202 33.5421 77.1771C34.0914 74.4341 34.8604 56.6054 32.6633 50.6958L19.8222 65.1413Z" fill="#395D6C"/>
<path d="M25.5714 112.905C25.5714 112.905 23.9944 119.172 24.3117 120.859C24.6291 122.546 27.5269 123.78 29.7362 123.293C31.9456 122.806 32.8073 120.312 32.5754 119.72C32.3435 119.129 32.1116 117.98 31.5184 117.106C30.9251 116.232 29.3847 112.696 29.3847 112.696L25.5714 112.905Z" fill="black"/>
<path d="M33.8326 17.3223C35.7368 18.3397 39.5428 20.1651 40.1287 25.9262C40.1287 25.9262 45.2553 33.1502 44.6645 38.9138C44.6645 38.9138 36.0298 41.467 31.7868 38.4026C27.5439 35.3383 33.8326 17.3223 33.8326 17.3223Z" fill="#FFE5AD"/>
<path d="M34.3611 18.1952C33.7069 15.788 26.1804 14.4129 22.8725 14.1841C22.8725 14.1841 17.6823 16.9636 13.8129 19.7821C15.5609 20.9139 17.6824 23.3333 17.9143 26.4657C17.9143 26.4657 22.416 32.3753 21.7568 36.7515C21.3081 39.4696 20.175 42.0296 18.4636 44.1921C18.4636 44.1921 13.6347 45.4967 13.0586 43.9268C14.0351 46.8694 14.4745 50.1333 13.2173 52.5819C13.2173 52.5819 24.2665 55.9018 33.4115 52.56C33.4115 52.56 34.7322 44.9101 33.7825 41.4831C32.8329 38.0561 36.4557 25.9716 34.3611 18.1952Z" fill="#395D6C"/>
<path d="M30.0536 15.4765C29.7704 19.2978 27.9981 25.9911 27.9981 25.9911C24.5803 24.2874 20.6596 18.3121 19.3438 16.1848C21.3456 14.9946 22.8616 14.1841 22.8616 14.1841C25.2961 14.3753 27.7054 14.8082 30.0536 15.4765Z" fill="#FFE5AD"/>
<path d="M28.1055 28.4072C28.1055 28.4072 31.8455 47.4431 30.3026 50.9601" stroke="black" stroke-width="0.92" stroke-miterlimit="10"/>
<path d="M20.1484 45.3739C20.1484 45.3739 24.6599 45.0964 26.6544 44.6924V46.3426L20.1484 46.8902V45.3739Z" stroke="black" stroke-width="0.92" stroke-miterlimit="10"/>
<path d="M20.704 37.2366C20.704 37.2366 24.9298 34.8027 26.9048 34.1114C28.8798 33.4202 32.6662 29.5234 32.6662 29.5234L34.8633 33.3788C34.8633 33.3788 28.1669 43.9664 18.4531 44.1855L20.704 37.2366Z" fill="#FCA886"/>
<path d="M32.6641 29.5218L35.2615 26.7666C35.2615 26.7666 37.6052 28.7357 38.1154 29.6873C38.6256 30.639 34.8612 33.3796 34.8612 33.3796L33.2133 32.6786L32.6641 29.5218Z" fill="#FCA886"/>
<path d="M35.5781 27.7565L35.1484 26.8437L36.4448 25.97L38.8103 25.2593V25.2861C38.8711 25.4884 38.849 25.7066 38.7488 25.8927C38.6486 26.0788 38.4785 26.2178 38.2757 26.2791L36.7963 26.7245L35.5781 27.7565Z" fill="#FCA886"/>
<path d="M36.2524 28.6703L35.5859 27.9401L37.0653 26.8058L39.6751 26.3848L39.7019 26.5527C39.7158 26.6381 39.7127 26.7253 39.6928 26.8095C39.6728 26.8936 39.6364 26.9731 39.5856 27.0431C39.5348 27.1132 39.4706 27.1727 39.3967 27.218C39.3228 27.2633 39.2407 27.2936 39.1551 27.3072L37.4462 27.5823L36.2524 28.6703Z" fill="#FCA886"/>
<path d="M37.1108 29.5919L36.4688 28.6475L38.0068 27.5205H40.0818V27.6276C40.0818 27.8213 40.0046 28.007 39.8673 28.1439C39.73 28.2809 39.5437 28.3578 39.3495 28.3578H38.268L37.1108 29.5919Z" fill="#FCA886"/>
<path d="M37.583 30.2718L37.1094 29.5927L38.2226 28.8187L40.0413 28.6167C40.0619 28.8367 39.9953 29.0559 39.8556 29.2275C39.716 29.399 39.5144 29.5092 39.2943 29.5343L38.518 29.622L37.583 30.2718Z" fill="#FCA886"/>
<path d="M24.4333 31.2704C23.1541 30.7422 19.8242 31.2704 19.8242 31.2704L21.1523 36.9779L25.1657 35.761L26.0446 33.327L24.4333 31.2704Z" fill="#FCC8B3"/>
<path d="M32.2516 38.7052L25.1719 35.7577C25.1719 35.7577 23.9512 32.8589 24.4395 31.272C24.4395 31.272 30.8014 32.5303 32.2516 32.2456C33.7017 31.9608 39.4606 31.3255 41.7725 32.6812C44.0844 34.0369 44.702 38.6931 44.702 38.6931L32.2516 38.7052Z" fill="#FCC8B3"/>
<path d="M18.4493 44.1835C20.1608 42.021 21.2939 39.4609 21.7426 36.7429C22.4017 32.3618 17.9001 26.4571 17.9001 26.4571C17.6681 23.3246 15.5467 20.9052 13.7987 19.7734C12.0557 21.0391 10.5811 22.312 9.96594 23.3416C7.99095 26.6566 9.45572 36.2878 11.2842 39.7878C11.9791 41.1134 12.5669 42.4921 13.042 43.9109C13.6205 45.4856 18.4493 44.1835 18.4493 44.1835Z" fill="#FFE5AD"/>
<path d="M21.0815 12.5143L20.918 17.5404C20.918 17.5404 23.0761 21.0769 25.7102 21.1913C28.3443 21.3057 29.4063 17.8349 29.4063 17.8349L28.5445 11.9351L21.0815 12.5143Z" fill="#FCC8B3"/>
<path d="M29.0128 15.1162C28.1088 15.4837 27.1399 15.6659 26.1638 15.6517C23.7225 15.6517 21.7695 14.6465 21.7695 13.4101C21.7848 13.0402 21.9442 12.691 22.2138 12.4365L28.5611 11.9497L29.0128 15.1162Z" fill="#FCA886"/>
<path d="M29.4565 7.82561C29.3101 7.28041 30.1059 1.15175 27.4181 0.35829C24.7302 -0.435174 22.1767 0.221989 21.4638 1.04223C21.4638 1.04223 19.3497 1.17853 18.8834 2.08152C18.4171 2.98451 18.693 7.00537 19.4888 8.10065L29.4565 7.82561Z" fill="black"/>
<path d="M28.8699 6.99443C28.672 4.55319 26.5266 2.7341 24.0781 2.93138C21.6295 3.12865 19.8049 5.26759 20.0028 7.70882L20.2622 10.9088C20.46 13.35 22.6054 15.1691 25.054 14.9718C27.5025 14.7745 29.3271 12.6356 29.1292 10.1944L28.8699 6.99443Z" fill="#FCC8B3"/>
<path d="M21.3536 3.62109C21.3536 3.62109 21.3267 6.02825 20.9679 6.41038C20.609 6.7925 20.0353 8.11413 20.0353 8.11413H19.4885C19.4885 8.11413 19.4323 4.48757 21.3536 3.62109Z" fill="black"/>
<path d="M26.8984 3.12109C26.8984 3.12109 27.1181 5.06824 27.4208 5.44793C27.7236 5.82763 28.3973 7.00565 28.4633 7.41698C28.4633 7.41698 29.369 7.41698 29.3128 7.28068C29.2567 7.14438 28.4633 3.72471 28.4633 3.72471L26.8984 3.12109Z" fill="black"/>
<path d="M29.0385 9.82576C29.6142 9.82576 30.0809 9.22533 30.0809 8.48466C30.0809 7.74399 29.6142 7.14355 29.0385 7.14355C28.4628 7.14355 27.9961 7.74399 27.9961 8.48466C27.9961 9.22533 28.4628 9.82576 29.0385 9.82576Z" fill="#FCC8B3"/>
<path d="M19.9252 10.6759C20.5009 10.6759 20.9677 10.0755 20.9677 9.33477C20.9677 8.59409 20.5009 7.99365 19.9252 7.99365C19.3495 7.99365 18.8828 8.59409 18.8828 9.33477C18.8828 10.0755 19.3495 10.6759 19.9252 10.6759Z" fill="#FCC8B3"/>
<path d="M27.0366 9.21291C27.2078 9.21291 27.3466 9.07453 27.3466 8.90382C27.3466 8.73311 27.2078 8.59473 27.0366 8.59473C26.8654 8.59473 26.7266 8.73311 26.7266 8.90382C26.7266 9.07453 26.8654 9.21291 27.0366 9.21291Z" fill="black"/>
<path d="M22.521 9.60207C22.6922 9.60207 22.831 9.46369 22.831 9.29298C22.831 9.12227 22.6922 8.98389 22.521 8.98389C22.3497 8.98389 22.2109 9.12227 22.2109 9.29298C22.2109 9.46369 22.3497 9.60207 22.521 9.60207Z" fill="black"/>
<path d="M24.1914 8.99854C24.3354 9.24193 24.582 10.2155 24.2744 10.5708" stroke="black" stroke-width="0.48" stroke-miterlimit="10"/>
<path d="M23.5664 11.8411C23.5664 11.8411 24.9726 12.9583 26.1615 11.6196" stroke="black" stroke-width="0.48" stroke-miterlimit="10"/>
<path d="M27.3864 7.0337L26.2159 7.128C25.9888 7.1463 25.8196 7.3447 25.8379 7.57113L25.8381 7.57356C25.8565 7.8 26.0555 7.96873 26.2826 7.95043L27.453 7.85613C27.6801 7.83783 27.8494 7.63943 27.831 7.413L27.8308 7.41057C27.8125 7.18413 27.6135 7.0154 27.3864 7.0337Z" fill="black"/>
<path d="M22.8512 7.31446L21.6807 7.40876C21.4536 7.42706 21.2844 7.62546 21.3028 7.85189L21.303 7.85432C21.3213 8.08076 21.5203 8.24949 21.7474 8.23119L22.9179 8.13689C23.145 8.1186 23.3142 7.9202 23.2958 7.69376L23.2956 7.69133C23.2773 7.46489 23.0783 7.29617 22.8512 7.31446Z" fill="black"/>
<path d="M45.835 86.8057L45.7227 87.0053C45.7837 87.0393 45.835 86.8057 45.835 86.8057Z" stroke="black" stroke-width="0.92" stroke-miterlimit="10"/>
<path d="M63.543 107.609C63.8276 110.623 63.9255 113.651 63.8359 116.678C63.8359 116.678 67.8957 118.978 68.2302 118.759C68.5646 118.539 69.109 114.489 69.109 114.489C69.109 114.489 67.0242 112.299 67.1341 110.223C67.1634 109.651 67.2854 108.658 67.4563 107.399C66.1619 107.597 64.8511 107.667 63.543 107.609Z" fill="#FCC8B3"/>
<path d="M63.8676 115.31C63.8676 115.31 63.0327 118.871 63.5454 120.309C64.0581 121.748 66.1478 120.991 67.1731 122.242C68.1985 123.493 71.3233 125.501 74.1283 125.649C75.2773 125.71 76.4279 125.562 77.5241 125.214C77.6857 125.163 77.8319 125.073 77.9493 124.951C78.0667 124.83 78.1515 124.68 78.1957 124.517C78.24 124.354 78.2424 124.183 78.2027 124.019C78.1629 123.855 78.0824 123.703 77.9684 123.578C76.8845 122.385 74.9827 120.322 72.8759 118.148C69.6071 114.775 68.9211 112.917 67.8201 113.487C66.7191 114.057 67.3635 115.721 67.2122 116.252C67.0608 116.783 66.907 117.729 66.0721 117.277C65.2372 116.824 65.3495 115.235 63.8676 115.31Z" fill="#98C5ED"/>
<path d="M71.2638 53.7264L63.8472 50.959L54.6241 54.7073C52.2097 57.589 46.3922 65.7963 45.8356 77.5035C45.4572 85.5502 45.5914 86.9302 45.7233 86.9959L45.8356 86.7963C45.8356 86.7963 45.7819 87.0397 45.7233 86.9959C44.8688 88.5585 39.3418 98.8784 39.1318 104.632C39.1139 105.104 39.0895 105.57 39.0586 106.029C40.7032 106.6 42.4103 106.973 44.1437 107.139C44.1926 107.03 44.2414 106.923 44.2902 106.82C45.6085 104.085 48.1328 98.9417 48.6845 95.8676C49.2363 92.7936 52.1975 90.1771 52.6369 86.8961C53.0764 83.6152 60.9372 68.2935 60.9372 68.2935C60.9372 68.2935 60.9739 84.489 62.7291 88.208C62.7291 88.208 61.3034 97.182 62.7291 102.763C63.1141 104.35 63.3834 105.963 63.5348 107.589C64.8405 107.647 66.1488 107.577 67.4408 107.38C67.8924 104.055 68.6956 98.8614 69.0935 94.6653C69.6428 88.8652 69.0935 86.7209 69.0935 86.7209C69.0935 86.7209 72.897 75.4055 73.19 67.3078C73.4829 59.21 71.2638 53.7264 71.2638 53.7264Z" fill="#6F889B"/>
<path d="M37.3867 116.133L39.0321 117.883L42.2302 115.744C42.2302 115.744 42.9113 109.961 44.1539 107.149C42.4205 106.983 40.7133 106.61 39.0688 106.04C38.8386 109.451 38.2752 112.831 37.3867 116.133Z" fill="#FCC8B3"/>
<path d="M36.9475 114.491C36.9475 114.491 35.6292 117.993 33.6542 119.471C31.6792 120.948 28.386 122.973 28.4421 124.451C28.4983 125.928 33.2148 127.403 34.9725 126.692C36.7302 125.982 37.88 123.355 39.4156 122.798C40.9512 122.241 42.4355 120.281 42.5453 119.405C42.6552 118.529 42.3525 114.17 42.1327 114.223C41.913 114.277 41.2686 116.302 40.4458 116.465C39.6231 116.628 38.8883 117.655 39.069 117.163C39.2496 116.672 39.6353 113.78 36.9475 114.491Z" fill="#98C5ED"/>
<path d="M74.457 8.62004C75.0869 7.64647 78.0506 6.59745 79.5324 7.0891C79.5324 7.0891 80.2453 10.0974 79.9718 11.3558C79.8072 12.2122 79.7702 13.0881 79.862 13.9552L77.118 14.7219C77.118 14.7219 76.9813 13.6266 76.5419 13.2981C76.1025 12.9695 74.6206 10.3725 74.457 8.62004Z" fill="#FCC8B3"/>
<path d="M75.7449 12.1164H74.1215L71.4531 10.6147C71.5811 10.3871 71.7868 10.2128 72.0327 10.1235C72.2786 10.0342 72.5486 10.0357 72.7934 10.1279L74.1532 10.6415L75.4642 10.4224L75.7449 12.1164Z" fill="#FCC8B3"/>
<path d="M74.6743 8.92382L72.382 5.28994C72.3488 5.2381 72.3262 5.18021 72.3156 5.11962C72.3049 5.05903 72.3065 4.99693 72.3201 4.93694C72.3337 4.87694 72.3592 4.82024 72.3949 4.77012C72.4307 4.71999 72.4761 4.67745 72.5284 4.64494C72.5804 4.61181 72.6385 4.58931 72.6993 4.57872C72.7601 4.56813 72.8223 4.56967 72.8825 4.58325C72.9427 4.59684 72.9996 4.62219 73.0498 4.65785C73.1001 4.69351 73.1428 4.73876 73.1754 4.79098L75.7289 8.26179L74.6743 8.92382Z" fill="#FCC8B3"/>
<path d="M75.7902 8.4264L74.472 3.2981C74.4566 3.23865 74.453 3.17675 74.4616 3.11594C74.4702 3.05514 74.4907 2.99661 74.522 2.94372C74.5533 2.89083 74.5947 2.8446 74.644 2.80768C74.6932 2.77076 74.7492 2.74388 74.8089 2.72856C74.9296 2.69827 75.0574 2.71685 75.1645 2.78024C75.2715 2.84363 75.349 2.94668 75.3801 3.06688L76.9962 8.11729L75.7902 8.4264Z" fill="#FCC8B3"/>
<path d="M78.08 7.66989H76.9961L77.1426 3.19631C77.1422 3.13474 77.1541 3.07371 77.1776 3.01673C77.201 2.95975 77.2354 2.90795 77.279 2.8643C77.3226 2.82064 77.3743 2.786 77.4314 2.76236C77.4884 2.73873 77.5495 2.72656 77.6113 2.72656C77.6731 2.72656 77.7342 2.73873 77.7912 2.76236C77.8483 2.786 77.9001 2.82064 77.9436 2.8643C77.9872 2.90795 78.0216 2.95975 78.0451 3.01673C78.0685 3.07371 78.0803 3.13474 78.08 3.19631V7.66989Z" fill="#FCC8B3"/>
<path d="M79.4701 7.53032L78.3789 7.39159L78.9526 4.17395C78.9604 4.11274 78.9803 4.05366 79.011 4.0001C79.0418 3.94653 79.0828 3.89954 79.1318 3.86179C79.1808 3.82404 79.2367 3.79629 79.2964 3.7801C79.3562 3.76392 79.4185 3.75964 79.4799 3.76749C79.603 3.78387 79.7146 3.84803 79.7905 3.94603C79.8664 4.04402 79.9004 4.16792 79.8851 4.29078L79.4701 7.53032Z" fill="#FCC8B3"/>
<path d="M66.4141 31.7083C66.4141 31.7083 73.3302 28.0963 77.993 27.7142C77.993 27.7142 76.5673 24.2604 76.8407 20.5705C77.0093 18.4133 77.0093 16.2462 76.8407 14.0889L79.8606 13.1592C79.8606 13.1592 85.3485 24.55 84.6357 27.9332C84.3329 29.3571 76.4721 36.6832 68.0204 38.1558L66.4141 31.7083Z" fill="#FFC33D"/>
<path d="M48.6914 31.326C52.2044 29.8657 64.2301 30.5593 66.852 31.4915C66.852 31.4915 68.7416 36.8705 68.888 38.769C69.0345 40.6675 67.2793 43.6831 68.888 45.9297C70.4968 48.1762 73.2042 53.6501 73.2042 54.7089C73.2042 54.7089 65.0821 53.0319 62.448 53.9982C59.8139 54.9644 54.6554 55.9112 53.5032 55.6192C53.5032 55.6192 54.8385 51.1894 54.2892 49.8288C53.74 48.4683 48.6914 38.769 48.6914 38.769V31.326Z" fill="#395D6C"/>
<path d="M65.6346 31.1873C63.7475 33.4046 62.7612 37.3817 62.7612 37.3817C62.4854 36.5152 60.8082 35.0061 58.9163 33.5336C57.637 32.5406 56.2553 31.5646 55.1225 30.8149C54.9614 30.7078 54.8052 30.6032 54.6562 30.5082C58.5843 30.3963 63.1934 30.7273 65.6346 31.1873Z" fill="#FFC33D"/>
<path d="M53.7422 38.768C53.7422 38.768 57.199 37.7214 59.9967 38.162" stroke="#FFBA82" stroke-width="0.92" stroke-miterlimit="10"/>
<path d="M54.0703 40.0267C54.0703 40.0267 58.2937 38.9874 60.3248 39.3696L60.9474 43.0789L59.424 45.6613L56.2089 44.403L54.0703 40.0267Z" stroke="black" stroke-width="0.92" stroke-miterlimit="10"/>
<path d="M62.7617 37.3809C62.7617 37.3809 64.1118 40.1361 63.7822 42.8158C63.4526 45.4956 64.1118 48.7985 64.9345 50.0738" stroke="black" stroke-width="0.92" stroke-miterlimit="10"/>
<path d="M48.6905 31.3237C46.2761 32.1269 34.7167 42.4127 33.3984 47.6652C33.3984 47.6652 34.2773 50.8025 36.0325 51.3867C37.7878 51.9708 50.8876 52.5647 50.8876 52.5647C50.8876 52.5647 51.2514 49.7097 52.7162 48.9795C52.7162 48.9795 46.6423 46.6721 41.5938 45.9273C41.5938 45.9273 47.4528 41.612 49.3497 40.0056C51.2465 38.3992 51.3979 31.6109 48.6905 31.3237Z" fill="#FFC33D"/>
<path d="M52.7171 48.9811C52.7171 48.9811 56.6232 50.1105 57.1432 50.3295C57.6632 50.5486 58.6812 52.9192 59.1572 53.2502C59.1572 53.2502 58.6079 53.9439 57.9121 53.6518C57.2341 53.3277 56.5748 52.9661 55.9372 52.5687L55.4245 53.4328L53.513 56.1101C53.513 56.1101 53.1565 54.1946 52.2045 53.4328C51.4732 52.8829 50.689 52.4067 49.8633 52.0114C49.8633 52.0114 50.7055 48.7986 52.7171 48.9811Z" fill="#FCC8B3"/>
<path d="M63.546 25.6616C63.546 25.6616 63.3629 30.1961 64.0586 31.581C64.0586 31.581 63.7291 33.6425 60.9485 33.3772C58.1679 33.1119 55.8633 30.4857 55.8633 30.4857L58.0604 24.5518L63.546 25.6616Z" fill="#FCC8B3"/>
<path d="M63.567 28.7383C62.8199 29.0644 61.7677 29.0693 60.7229 28.6774C59.0408 28.0495 58.0155 26.6427 58.433 25.5303C58.5576 25.2092 58.785 24.938 59.0799 24.7588L63.545 25.6618C63.545 25.6618 63.484 27.1879 63.567 28.7383Z" fill="#FCA886"/>
<path d="M63.9414 22.9926C65.5526 22.3014 68.6628 23.3212 69.2829 25.7649C69.903 28.2086 69.6857 30.9078 69.466 32.8428C69.3917 33.3758 69.4858 33.9185 69.7352 34.3957C69.9846 34.8729 70.3768 35.2608 70.8575 35.5055C70.8575 35.5055 67.5276 34.9944 66.8319 31.8546C66.1361 28.7148 66.9783 26.5291 65.6625 25.283C64.3466 24.0368 63.9414 22.9926 63.9414 22.9926Z" fill="black"/>
<path d="M64.5295 14.3585C65.7422 14.8113 66.7248 15.7258 67.2612 16.9009C67.7975 18.076 67.8437 19.4154 67.3896 20.6244L66.2723 23.599L57.1275 20.1847L58.2456 17.2078C58.7002 15.9994 59.6175 15.0204 60.7959 14.4861C61.9742 13.9518 63.3172 13.9059 64.5295 14.3585Z" fill="#395D6C"/>
<path d="M62.9467 16.3637L64.5484 16.907C65.4028 17.1968 66.1068 17.8132 66.5054 18.6205C66.9041 19.4279 66.9647 20.36 66.674 21.2119L65.4945 24.6682C65.3147 25.1951 65.0326 25.6814 64.6643 26.0995C64.296 26.5177 63.8487 26.8594 63.3479 27.1051C62.8471 27.3509 62.3027 27.4959 61.7458 27.532C61.1888 27.568 60.6301 27.4942 60.1017 27.315C59.5733 27.1358 59.0855 26.8545 58.6661 26.4873C58.2468 26.1201 57.904 25.6741 57.6575 25.1749C57.411 24.6756 57.2655 24.1329 57.2294 23.5775C57.1933 23.0222 57.2672 22.4653 57.447 21.9385L58.6265 18.4821C58.7705 18.0601 58.9965 17.6705 59.2916 17.3356C59.5867 17.0007 59.9451 16.7271 60.3463 16.5304C60.7476 16.3336 61.1837 16.2176 61.6299 16.189C62.0761 16.1604 62.5236 16.2198 62.9467 16.3637Z" fill="#FCC8B3"/>
<path d="M57.4594 21.9852C58.1295 21.9852 58.6727 21.4437 58.6727 20.7756C58.6727 20.1075 58.1295 19.5659 57.4594 19.5659C56.7893 19.5659 56.2461 20.1075 56.2461 20.7756C56.2461 21.4437 56.7893 21.9852 57.4594 21.9852Z" fill="#FCC8B3"/>
<path d="M58.6211 18.4977C58.6211 18.4977 59.3364 14.8054 62.8201 15.5161C66.3037 16.2269 67.5952 17.787 67.3755 19.2084C67.1558 20.6299 66.665 21.2262 66.665 21.2262C66.4015 20.6714 66.0189 20.1811 65.5443 19.7899C65.0697 19.3988 64.5147 19.1164 63.9186 18.9626C61.8606 18.415 58.6211 18.4977 58.6211 18.4977Z" fill="#395D6C"/>
<path d="M57.4602 19.5159C58.2146 18.5423 60.9024 16.5611 63.8929 17.7659C64.7435 18.1003 65.4798 18.6712 66.0143 19.4108C66.5488 20.1504 66.859 21.0274 66.9079 21.9377L66.7077 22.4683C66.7077 22.4683 65.243 20.3021 63.456 19.7082C61.669 19.1143 59.0617 19.6571 57.8411 19.9735C57.7811 19.9884 57.7182 19.986 57.6596 19.9666C57.601 19.9471 57.5492 19.9114 57.5102 19.8636C57.4713 19.8159 57.4468 19.758 57.4397 19.6968C57.4325 19.6357 57.4431 19.5737 57.47 19.5183L57.4602 19.5159Z" fill="#2A4551"/>
<path d="M65.8305 24.9389C66.5006 24.9389 67.0438 24.3973 67.0438 23.7292C67.0438 23.0611 66.5006 22.5195 65.8305 22.5195C65.1604 22.5195 64.6172 23.0611 64.6172 23.7292C64.6172 24.3973 65.1604 24.9389 65.8305 24.9389Z" fill="#FCC8B3"/>
<path d="M62.6139 22.7437C62.4015 22.9092 61.8425 23.6831 61.989 24.0993" stroke="black" stroke-width="0.45" stroke-miterlimit="10"/>
<path d="M60.3598 22.1252C60.4859 21.9444 60.4913 21.7308 60.3719 21.648C60.2524 21.5653 60.0535 21.6447 59.9274 21.8255C59.8014 22.0063 59.796 22.2199 59.9154 22.3027C60.0348 22.3854 60.2338 22.306 60.3598 22.1252Z" fill="black"/>
<path d="M64.2473 23.5063C64.3726 23.3247 64.377 23.1107 64.257 23.0284C64.1371 22.9462 63.9382 23.0267 63.8129 23.2083C63.6875 23.3899 63.6832 23.6038 63.8031 23.6861C63.9231 23.7684 64.122 23.6879 64.2473 23.5063Z" fill="black"/>
<path d="M60.9203 21.181C60.7861 20.8816 60.0098 20.6577 59.7266 20.8427L60.9203 21.181Z" fill="black"/>
<path d="M63.8281 22.2954C64.1064 22.125 64.873 22.3831 64.9999 22.697L63.8281 22.2954Z" fill="black"/>
<path d="M59.957 24.3525C59.957 24.3525 60.5673 25.774 62.9158 25.3261" stroke="black" stroke-width="0.45" stroke-miterlimit="10"/>
<path d="M91.3461 96.5066C87.7721 93.7441 81.0049 88.1144 76.1565 88.9614C71.3082 89.8084 71.5181 94.4329 71.9478 96.1342C72.3775 97.8355 74.0253 101.545 74.0253 101.545L91.3461 96.5066Z" fill="#6F889B"/>
<path d="M82.5626 120.018C81.3176 120.603 80.7317 120.347 80.4754 119.288C80.3265 118.67 79.533 117.862 78.6884 117.292H78.6615C77.6069 117.592 74.1916 121.798 74.1916 121.798C74.1916 121.798 71.6551 122.65 69.9096 122.849C68.1641 123.049 67.0753 124.31 67.2681 125.154C67.461 125.999 67.8394 127.858 71.743 128.107C75.6465 128.355 79.7991 127.206 81.5447 127.457C83.2902 127.707 85.4897 127.807 86.3954 127.213C87.3012 126.619 86.3954 124.76 86.3954 124.76C86.3954 124.76 86.852 121.019 86.8202 119.86C85.6484 118.746 83.6026 119.529 82.5626 120.018Z" fill="black"/>
<path d="M85.6915 115.701C85.6915 114.798 80.2157 114.499 80.2157 114.499C80.2157 114.499 79.7275 116.955 78.6875 117.293C79.5322 117.863 80.3256 118.671 80.4745 119.289C80.7187 120.348 81.3168 120.603 82.5618 120.019C83.6018 119.532 85.6476 118.737 86.8194 119.863C86.8201 119.776 86.812 119.689 86.795 119.603C86.6461 118.956 85.6915 116.602 85.6915 115.701Z" fill="#4D566D"/>
<path d="M80.0568 80.1699C79.8126 82.6671 82.1245 90.1077 85.0516 91.8236L85.8548 81.9005L80.0568 80.1699Z" fill="#6F889B"/>
<path d="M78.1289 90.0107L85.1793 88.285L81.6541 80.5889L78.1289 80.9175V90.0107Z" fill="#FCC8B3"/>
<path d="M71.7422 72.7975C71.9033 73.9658 72.2304 74.8031 72.1157 76.721C72.001 78.639 72.062 86.2913 73.9271 88.4429C75.7922 90.5945 78.6681 90.3438 79.5225 89.3799C80.3769 88.4161 81.5121 84.091 80.499 81.9783C79.4859 79.8657 76.9616 74.7641 76.3269 72.2134L71.7422 72.7975Z" fill="#FCC8B3"/>
<path d="M68.7847 68.6789C68.7847 68.6789 69.4683 71.8431 70.7378 72.437C72.0072 73.0308 72.6053 73.5493 73.511 73.301C74.4167 73.0527 74.6682 73.3351 75.3762 73.1379C76.0841 72.9408 77.3512 70.9474 77.2144 69.6087C77.0777 68.27 77.2413 64.4974 74.1677 64.6897C71.0942 64.882 68.2647 65.6852 68.7847 68.6789Z" fill="#FCC8B3"/>
<path d="M76.8418 71.1408C77.2007 70.8974 78.4116 69.4493 78.5507 68.9114C78.6899 68.3735 79.3124 67.5776 79.5272 67.3804C79.742 67.1833 79.93 66.7306 79.2978 66.5991C78.6655 66.4677 78.2407 66.8425 77.9648 67.2027C77.6889 67.563 77.1421 67.5045 76.5733 67.8672C76.0045 68.2299 75.1769 70.3644 75.4845 70.7636C75.7921 71.1627 76.8418 71.1408 76.8418 71.1408Z" fill="#FCC8B3"/>
<path d="M79.7188 80.7759C79.7188 80.7759 81.4667 84.3514 80.0385 86.688" stroke="black" stroke-width="0.48" stroke-miterlimit="10"/>
<path d="M76.5578 67.8755C75.137 68.1189 73.7918 69.0487 73.9456 70.0052" stroke="black" stroke-width="0.48" stroke-miterlimit="10"/>
<path d="M87.6275 75.1372C87.6275 75.1372 85.8722 78.9658 84.5002 79.1848C83.1282 79.4039 80.0547 80.1584 80.0547 80.1584C80.0547 80.1584 84.5539 89.0204 85.0495 91.8121L91.0306 87.7621L88.9116 75.125L87.6275 75.1372Z" fill="#FFB50F"/>
<path d="M88.9405 76.7742C88.4522 78.8576 89.4287 84.0565 89.5484 85.2589C89.668 86.4613 90.0366 92.9185 90.8105 95.6007C91.5844 98.2829 94.7165 99.1567 94.7165 99.1567C94.7165 99.1567 102.399 99.0472 104.76 101.564C107.121 104.081 109.423 107.912 110.302 107.912C110.302 107.912 112.01 105.94 112.826 105.339C113.641 104.738 113.815 101.783 113.705 99.7579C113.595 97.7329 114.637 95.9293 114.254 93.1863C114.254 93.1863 112.662 78.1396 102.016 73.7634L99.2402 71.3295C99.0953 71.2024 98.9243 71.1083 98.7393 71.0536C98.5542 70.999 98.3594 70.9851 98.1685 71.0131L95.7052 71.3781L88.9405 76.7742Z" fill="#395D6C"/>
<path d="M91.5039 78.7742L91.8554 86.6821C91.8554 86.6821 95.5955 78.8521 96.5524 77.4185L91.5039 78.7742Z" fill="#FFB50F"/>
<path d="M99.4844 75.7383C101.148 77.0847 102.213 79.0303 102.448 81.1538" stroke="black" stroke-width="0.45" stroke-miterlimit="10"/>
<path d="M109.359 99.2754C111.171 100.424 113.488 103.841 113.488 103.841" stroke="black" stroke-width="0.68" stroke-miterlimit="10"/>
<path d="M99.3917 118.79C99.4283 118.902 101.079 122.441 100.554 123.101C100.029 123.76 98.9401 125.442 97.778 125.554C96.616 125.666 96.3523 126.445 96.5037 127.635C96.6551 128.825 98.154 128.971 99.465 128.935C100.776 128.898 105.129 128.448 108.28 124.067C111.432 119.686 113.568 118.196 113.651 116.522C113.734 114.847 112.587 113.474 111.076 113.623C109.564 113.771 107.414 112.248 107.414 112.248L101.928 112.396L99.3917 118.79Z" fill="black"/>
<path d="M70.8516 103.494C68.6544 105.597 70.7246 109.659 72.4921 112.052C74.2596 114.444 97.0464 118.911 97.0464 118.911C97.0182 118.989 97.0092 119.072 97.0202 119.155C97.0313 119.237 97.0621 119.315 97.11 119.383C97.1579 119.451 97.2216 119.506 97.2955 119.544C97.3694 119.582 97.4515 119.602 97.5347 119.602C98.477 119.585 100.069 119.504 100.811 119.161C101.902 118.66 103.479 113.687 103.479 113.687C103.479 113.687 105.94 113.814 107.583 113.12C109.226 112.427 110.927 109.282 110.674 106.325C110.42 103.367 109.223 97.0757 104.111 97.0757C98.9994 97.0757 72.6191 101.795 70.8516 103.494Z" fill="#6F889B"/>
<path d="M99.8269 113.437C98.5037 112.743 81.2073 111.421 80.4603 111.171C79.7133 110.92 78.3682 109.158 78.1289 108.673" stroke="black" stroke-width="0.68" stroke-miterlimit="10"/>
<path d="M99.8242 101.547C100.359 102.985 102.556 105.392 103.762 105.884" stroke="black" stroke-width="0.68" stroke-miterlimit="10"/>
<path d="M99.8239 113.438C99.8239 113.438 97.6023 118.369 96.7406 118.987C95.8788 119.605 99.6701 120.844 99.7922 120.807C99.9142 120.771 103.818 115.669 103.818 115.669L103.486 113.688L99.8239 113.438Z" fill="#959CA3"/>
<path d="M84.408 68.4605C82.9823 69.1906 81.4785 65.2403 82.6235 64.0282C83.7684 62.8161 86.2854 63.1544 87.0177 62.6336C87.7501 62.1127 90.748 60.4722 93.492 61.7306C96.236 62.9889 95.6379 69.0933 95.6379 69.0933L95.1716 70.9187L84.408 68.4605Z" fill="black"/>
<path d="M89.5469 76.5399C89.5469 76.5399 92.657 79.8964 92.9866 80.921C92.9866 80.921 97.8887 77.3456 98.4013 73.4805C98.4013 73.4805 95.401 71.2899 94.632 70.3796C94.2162 69.895 93.8275 69.388 93.4675 68.8608L89.5469 76.5399Z" fill="#FCC8B3"/>
<path d="M92.9915 76.1774C92.4838 76.9871 91.7579 77.6382 90.8969 78.0564C90.1645 77.2191 89.5469 76.5425 89.5469 76.5425L91.9735 71.7841C92.1833 71.7215 92.404 71.7033 92.6213 71.7305C92.8386 71.7578 93.0479 71.8299 93.2356 71.9424C94.2219 72.5922 94.1121 74.4882 92.9915 76.1774Z" fill="#FCA886"/>
<path d="M84.0863 67.9556C84.6209 70.5063 86.0637 76.4549 88.9395 76.7737C91.8153 77.0925 93.7341 73.427 93.7341 72.636C93.7341 71.845 93.4681 68.8634 93.4681 68.8634C93.4681 68.8634 91.0707 65.2563 89.9526 64.7793C88.8345 64.3022 83.9178 65.9914 84.0863 67.9556Z" fill="#FCC8B3"/>
<path d="M87.9844 64.6826C87.9844 64.6826 89.4931 66.9291 90.5086 67.2844C91.5242 67.6398 92.5666 68.8567 92.5666 68.8567L94.295 67.2284L92.9792 63.2344L87.9844 64.6826Z" fill="black"/>
<path d="M94.4832 70.4914C95.13 70.1191 95.3205 69.2406 94.9086 68.5293C94.4967 67.8181 93.6384 67.5433 92.9916 67.9157C92.3447 68.288 92.1542 69.1665 92.5661 69.8777C92.978 70.589 93.8363 70.8638 94.4832 70.4914Z" fill="#FCC8B3"/>
<path d="M89.7007 70.1758C89.8719 70.1758 90.0107 70.0374 90.0107 69.8667C90.0107 69.696 89.8719 69.5576 89.7007 69.5576C89.5294 69.5576 89.3906 69.696 89.3906 69.8667C89.3906 70.0374 89.5294 70.1758 89.7007 70.1758Z" fill="black"/>
<path d="M85.9897 71.7994C86.161 71.7994 86.2998 71.661 86.2998 71.4903C86.2998 71.3196 86.161 71.1812 85.9897 71.1812C85.8185 71.1812 85.6797 71.3196 85.6797 71.4903C85.6797 71.661 85.8185 71.7994 85.9897 71.7994Z" fill="black"/>
<path d="M86.9414 70.4346C87.1367 70.6414 87.6006 71.5347 87.3808 71.946" stroke="black" stroke-width="0.48" stroke-miterlimit="10"/>
<path d="M88.0703 68.6215C88.3144 68.2613 89.2617 67.6065 90.0233 68.0471" stroke="black" stroke-width="1.96" stroke-miterlimit="10"/>
<path d="M84.5547 70.3511C84.8452 69.8497 85.5507 69.4603 86.1855 69.7402" stroke="black" stroke-width="1.96" stroke-miterlimit="10"/>
<path d="M87.582 73.8505C87.582 73.8505 89.33 74.2667 89.8378 72.5508" stroke="black" stroke-width="0.48" stroke-miterlimit="10"/>
<path d="M92.0168 92.7012L90.1346 96.4227C90.1346 96.4227 84.5368 96.3497 76.9273 98.2822C76.9273 98.2822 71.476 100.327 69.5352 101.675L70.1211 104.009C70.1211 104.009 74.1101 105.616 76.5978 102.306C76.5978 102.306 81.7244 103.946 85.5426 103.837C88.5649 103.751 93.5231 103.277 95.4639 103.082C95.716 103.057 95.9584 102.972 96.1707 102.835C96.3831 102.697 96.5593 102.51 96.6845 102.291L100.818 95.084C100.818 95.084 97.102 91.9126 92.0168 92.7012Z" fill="#FCC8B3"/>
<path d="M90.1367 96.418C93.1175 96.637 94.7092 99.7013 94.7092 99.7013" stroke="black" stroke-width="0.48" stroke-miterlimit="10"/>
<path d="M69.5355 101.672L68.2026 103.05C68.1653 103.088 68.1375 103.134 68.1214 103.185C68.1053 103.236 68.1013 103.29 68.1098 103.342L68.6298 106.728H68.9667C69.2257 106.728 69.4741 106.625 69.6572 106.443C69.8403 106.26 69.9432 106.012 69.9432 105.754V104.707L71.9573 103.899L69.5355 101.672Z" fill="#FCC8B3"/>
<path d="M97.8365 80.2241L90.7031 92.8076C90.7031 92.8076 98.8789 94.8327 100.956 97.9505L105.016 88.5141C105.016 88.5141 106.234 81.9011 97.8365 80.2241Z" fill="#FFB50F"/>
</svg>
