<svg width="240" height="261" viewBox="0 0 240 261" fill="none" xmlns="http://www.w3.org/2000/svg">
<g filter="url(#filter0_d_504_2461)">
<rect x="10" y="10" width="216" height="237" rx="10" fill="#FBFBFB"/>
</g>
<g clip-path="url(#clip0_504_2461)">
<path d="M41.6149 130.648C41.5912 130.651 41.567 130.651 41.5433 130.648C41.5166 130.639 41.492 130.625 41.4708 130.606C41.4496 130.587 41.4324 130.565 41.42 130.54C41.4077 130.515 41.4005 130.487 41.3988 130.459C41.3971 130.432 41.4011 130.404 41.4103 130.377L47.4276 113.289C47.4369 113.262 47.4513 113.238 47.47 113.217C47.4888 113.196 47.5115 113.179 47.5369 113.167C47.5623 113.155 47.5899 113.148 47.6181 113.146C47.6463 113.144 47.6746 113.148 47.7013 113.157C47.728 113.166 47.7526 113.181 47.7737 113.199C47.7948 113.218 47.8121 113.24 47.8244 113.265C47.8368 113.29 47.844 113.318 47.8457 113.346C47.8474 113.374 47.8435 113.401 47.8342 113.428L41.8169 130.516C41.8008 130.556 41.7728 130.59 41.7367 130.613C41.7006 130.637 41.6581 130.649 41.6149 130.648Z" fill="#717482"/>
<path d="M52.9721 134L51.6372 114.106C51.6353 114.078 51.639 114.05 51.6481 114.023C51.6572 113.997 51.6715 113.972 51.6901 113.951C51.7088 113.93 51.7314 113.913 51.7568 113.901C51.7821 113.889 51.8097 113.881 51.8379 113.879C51.8661 113.878 51.8944 113.881 51.9212 113.89C51.948 113.899 51.9727 113.913 51.9939 113.932C52.0152 113.95 52.0326 113.973 52.0451 113.998C52.0576 114.023 52.065 114.05 52.0668 114.078L53.1511 130.233L53.9183 114.296C53.921 114.239 53.9462 114.186 53.9884 114.148C54.0306 114.11 54.0863 114.09 54.1433 114.093C54.2003 114.096 54.2539 114.121 54.2922 114.163C54.3306 114.204 54.3506 114.259 54.3479 114.316L53.4017 133.997L52.9721 134Z" fill="#717482"/>
<path d="M64.7825 129.616C64.7401 129.616 64.6987 129.604 64.6636 129.58C64.6286 129.557 64.6014 129.524 64.5855 129.485L58.3253 114.701C58.3033 114.649 58.303 114.591 58.3246 114.538C58.3462 114.486 58.3878 114.445 58.4404 114.423C58.493 114.401 58.5521 114.401 58.6049 114.422C58.6576 114.443 58.6996 114.485 58.7217 114.537L64.9819 129.32C64.9929 129.346 64.9985 129.374 64.9987 129.402C64.9988 129.43 64.9934 129.457 64.9827 129.483C64.972 129.509 64.9563 129.533 64.9364 129.552C64.9165 129.572 64.8929 129.588 64.8668 129.599C64.8404 129.611 64.8116 129.617 64.7825 129.616Z" fill="#717482"/>
<path d="M52.0463 118.028H52.0003L46.4024 116.808C46.3741 116.803 46.3471 116.792 46.323 116.777C46.299 116.761 46.2784 116.741 46.2624 116.717C46.2465 116.693 46.2355 116.666 46.2302 116.638C46.2249 116.61 46.2254 116.581 46.2316 116.554C46.2377 116.526 46.2495 116.499 46.2662 116.476C46.2829 116.453 46.3041 116.433 46.3286 116.418C46.3532 116.403 46.3805 116.393 46.409 116.389C46.4375 116.385 46.4665 116.386 46.4945 116.393L52.0924 117.61C52.1424 117.623 52.1861 117.654 52.2154 117.696C52.2447 117.739 52.2577 117.79 52.2521 117.841C52.2466 117.892 52.2228 117.939 52.1851 117.974C52.1473 118.009 52.0981 118.03 52.0463 118.033V118.028Z" fill="#717482"/>
<path d="M54.0196 117.835C53.9711 117.834 53.9241 117.818 53.8861 117.788C53.8481 117.759 53.8213 117.717 53.8099 117.67C53.7976 117.616 53.8073 117.559 53.8369 117.512C53.8666 117.465 53.9138 117.431 53.9685 117.417L59.2313 116.153C59.287 116.139 59.3457 116.148 59.3946 116.178C59.4435 116.207 59.4786 116.254 59.4922 116.309C59.5057 116.364 59.4967 116.423 59.4669 116.471C59.4372 116.519 59.3892 116.554 59.3336 116.567L54.0707 117.832C54.0539 117.836 54.0367 117.837 54.0196 117.835Z" fill="#717482"/>
<path d="M46.6242 116.456C46.5748 116.457 46.5268 116.44 46.4885 116.409C46.4502 116.378 46.4241 116.335 46.4145 116.287C46.4031 116.231 46.4142 116.174 46.4453 116.127C46.4764 116.079 46.525 116.046 46.5808 116.034L51.8539 114.951C51.8821 114.943 51.9117 114.941 51.9407 114.945C51.9697 114.949 51.9976 114.959 52.0227 114.974C52.0477 114.989 52.0694 115.009 52.0864 115.033C52.1034 115.056 52.1153 115.083 52.1214 115.111C52.1275 115.14 52.1277 115.169 52.122 115.198C52.1162 115.226 52.1046 115.253 52.088 115.277C52.0713 115.301 52.0499 115.321 52.025 115.336C52.0001 115.352 51.9724 115.362 51.9434 115.366L46.6703 116.451L46.6242 116.456Z" fill="#717482"/>
<path d="M59.1699 116.517H59.1213L54.0553 115.323C53.9997 115.31 53.9518 115.275 53.922 115.227C53.8923 115.178 53.8832 115.12 53.8968 115.065C53.9103 115.01 53.9454 114.963 53.9944 114.933C54.0433 114.904 54.102 114.895 54.1576 114.908L59.221 116.102C59.2731 116.114 59.3191 116.144 59.3499 116.187C59.3808 116.23 59.3943 116.283 59.388 116.335C59.3816 116.388 59.3557 116.436 59.3154 116.471C59.2751 116.505 59.2232 116.524 59.1699 116.522V116.517Z" fill="#717482"/>
<path d="M40.9074 97.9437C40.6639 98.0671 40.4556 98.2489 40.3014 98.4726C40.1473 98.6962 40.0523 98.9544 40.0251 99.2238C39.9783 99.7625 40.0267 100.305 40.1683 100.828C40.7977 103.795 41.5821 106.729 42.5185 109.616C42.7972 110.479 43.1194 111.387 43.7971 111.981C44.3424 112.406 44.9739 112.71 45.6486 112.872C47.4387 113.421 49.2953 113.803 51.1416 114.182C52.7834 114.521 54.4431 114.863 56.1207 114.83C58.7214 114.779 61.2122 113.841 63.5803 112.781C63.8752 112.667 64.1433 112.495 64.3679 112.275C64.4786 112.164 64.5533 112.024 64.5825 111.871C64.6117 111.718 64.5939 111.56 64.5316 111.417C64.3968 111.216 64.1936 111.068 63.9587 111.002C62.3911 110.398 60.6343 110.681 58.9669 110.395C57.8896 110.199 56.8706 109.766 55.9853 109.128C55.1 108.49 54.3711 107.664 53.8524 106.709C53.3204 105.715 53.0366 104.615 52.6939 103.545C52.207 102.019 51.5955 100.535 50.8654 99.1074C50.6158 98.5348 50.2442 98.0223 49.776 97.6047C48.7992 96.8458 47.4106 96.9495 46.1728 97.0988L43.053 97.4782C42.3207 97.5428 41.5997 97.6992 40.9074 97.9437Z" fill="#646673"/>
</g>
<g clip-path="url(#clip1_504_2461)">
<path d="M74.1692 50.4146C73.1956 50.206 69.6441 50.0518 65.4086 50.0518C61.1731 50.0518 57.6105 50.206 56.6457 50.4146C56.4742 50.4509 56.3828 50.4895 56.3828 50.528C56.3828 50.7911 60.4222 51.0066 65.4086 51.0066C70.3949 51.0066 74.4344 50.7911 74.4344 50.528C74.4344 50.4895 74.3408 50.4509 74.1692 50.4146Z" fill="#4A4861"/>
<path d="M72.7214 43.4495C70.7496 42.3405 68.9337 44.9034 69.034 46.5431C69.1343 48.1829 66.2891 53.2928 66.2891 53.2928L67.4031 53.8803L68.5171 54.47C68.5171 54.47 70.9679 49.1537 72.356 48.2986C73.7441 47.4436 74.7489 44.452 72.7214 43.4495Z" fill="#DBB297"/>
<path d="M72.3838 43.2677C70.412 42.1587 68.5961 44.7238 68.6964 46.3636C68.7967 48.0034 65.9492 53.1133 65.9492 53.1133L67.0632 53.7007L68.1773 54.2904C68.1773 54.2904 70.6281 48.9741 72.0162 48.1191C73.4042 47.264 74.4091 44.2679 72.3838 43.2677Z" fill="#EEDEC9"/>
<path d="M72.142 45.8189C72.0326 46.0316 71.8506 46.1962 71.6302 46.2819C71.4098 46.3675 71.1663 46.3682 70.9455 46.2838C70.9083 46.2718 70.8725 46.2558 70.8386 46.2362C70.6181 46.1119 70.4539 45.905 70.3811 45.6594C70.3083 45.4137 70.3325 45.1489 70.4487 44.9212C70.5649 44.6935 70.7638 44.521 71.0031 44.4404C71.2424 44.3599 71.5031 44.3776 71.7298 44.4898C71.7643 44.5091 71.7978 44.5303 71.83 44.5533C72.0249 44.6891 72.1641 44.8928 72.2216 45.1259C72.2791 45.359 72.2507 45.6055 72.142 45.8189Z" fill="#DBB297"/>
<path d="M72.1419 45.8195C72.049 45.9579 71.9187 46.0661 71.7669 46.131C71.615 46.1959 71.448 46.2148 71.2858 46.1854C71.1236 46.1561 70.9732 46.0797 70.8527 45.9654C70.7321 45.8511 70.6465 45.7039 70.6062 45.5413C70.5658 45.3788 70.5724 45.2078 70.6252 45.049C70.6779 44.8901 70.7746 44.7502 70.9036 44.6459C71.0326 44.5416 71.1884 44.4775 71.3524 44.4612C71.5163 44.4448 71.6814 44.4771 71.8278 44.5539C72.023 44.6894 72.1627 44.8929 72.2206 45.1261C72.2785 45.3592 72.2505 45.6059 72.1419 45.8195Z" fill="#CCBAAE"/>
<path d="M74.4344 71.8499C74.4344 71.3963 70.3927 71.0176 65.4086 71.0176C60.4245 71.0176 56.3828 71.3895 56.3828 71.8499C56.3828 72.3104 60.4222 72.6846 65.4086 72.6846C70.3949 72.6846 74.4344 72.3126 74.4344 71.8499Z" fill="#DFE1F2"/>
<path d="M65.4086 51.0059C60.4222 51.0059 56.3828 50.7904 56.3828 50.5273V71.8469H74.4299V50.5273C74.4343 50.7904 70.3927 51.0059 65.4086 51.0059Z" fill="#DFE1F2"/>
<path d="M74.168 50.4141C74.3395 50.4504 74.4331 50.4889 74.4331 50.5275V50.4141H74.168Z" fill="#DADDF0"/>
<path d="M71.0527 57.4089C71.0527 57.3146 71.0802 57.2224 71.1317 57.1441C71.1833 57.0657 71.2565 57.0046 71.3421 56.9687C71.4277 56.9327 71.5219 56.9234 71.6127 56.9419C71.7035 56.9605 71.7869 57.0061 71.8523 57.0729C71.9176 57.1398 71.962 57.2248 71.9798 57.3174C71.9976 57.4099 71.988 57.5058 71.9523 57.5927C71.9165 57.6797 71.8562 57.754 71.7789 57.806C71.7017 57.8581 71.611 57.8856 71.5184 57.8852C71.4571 57.8852 71.3963 57.8729 71.3397 57.8489C71.283 57.8249 71.2316 57.7898 71.1883 57.7456C71.1451 57.7013 71.1108 57.6488 71.0876 57.591C71.0643 57.5332 71.0524 57.4713 71.0527 57.4089Z" fill="#877A74"/>
<path d="M57.4531 61.753L57.4455 61.9615C57.4324 62.3182 57.706 62.6182 58.0564 62.6314L62.6809 62.8065C63.0313 62.8198 63.326 62.5413 63.339 62.1846L63.3466 61.9761C63.3597 61.6193 63.0861 61.3194 62.7357 61.3061L58.1112 61.131C57.7608 61.1178 57.4661 61.3962 57.4531 61.753Z" fill="white"/>
<path d="M57.6095 62.0082L55.25 59.4612L56.4286 58.8965" stroke="#877A74" stroke-width="1.35" stroke-miterlimit="10"/>
<path d="M71.5187 57.4111L69.0256 60.854L62.7715 62.1128" stroke="#877A74" stroke-width="1.35" stroke-miterlimit="10"/>
<path d="M74.6483 55.787C68.5448 56.2588 62.415 56.2588 56.3116 55.787C56.2296 55.7806 56.1534 55.7415 56.0995 55.6782C56.0457 55.615 56.0186 55.5326 56.0241 55.4491C56.0315 55.366 56.0707 55.2892 56.1332 55.2353C56.1958 55.1814 56.2766 55.1547 56.3583 55.161C62.4279 55.6278 68.5234 55.6255 74.5926 55.1542C74.6741 55.1479 74.7547 55.1747 74.8168 55.2287C74.879 55.2826 74.9177 55.3594 74.9246 55.4423C74.9327 55.5252 74.9081 55.6081 74.8564 55.6727C74.8046 55.7373 74.7298 55.7784 74.6483 55.787Z" fill="#877A74"/>
<path d="M74.6483 58.733C68.5448 59.2047 62.415 59.2047 56.3116 58.733C56.2296 58.7266 56.1534 58.6875 56.0995 58.6242C56.0457 58.5609 56.0186 58.4786 56.0241 58.395C56.0315 58.312 56.0707 58.2352 56.1332 58.1813C56.1958 58.1274 56.2766 58.1007 56.3583 58.107C62.4278 58.5745 68.5234 58.573 74.5926 58.1025C74.6741 58.0962 74.7547 58.1229 74.8169 58.1769C74.879 58.2308 74.9177 58.3076 74.9246 58.3905C74.932 58.4731 74.9072 58.5554 74.8555 58.6195C74.8038 58.6836 74.7293 58.7244 74.6483 58.733Z" fill="#877A74"/>
<path d="M78.0003 63.6962C78.0003 63.7076 78.0003 63.7166 77.9713 63.728H77.9424C77.5191 63.8709 75.1395 63.982 72.2654 63.982C69.0926 63.982 66.5215 63.8482 66.5215 63.6826V75.3857C66.5215 75.7259 69.0949 76.0003 72.2654 76.0003C75.4358 76.0003 78.007 75.7259 78.007 75.3857V63.694L78.0003 63.6962Z" fill="#CED1E3"/>
<path d="M72.2575 63.9952C75.4298 63.9952 78.0014 63.8612 78.0014 63.6959C78.0014 63.5305 75.4298 63.3965 72.2575 63.3965C69.0853 63.3965 66.5137 63.5305 66.5137 63.6959C66.5137 63.8612 69.0853 63.9952 72.2575 63.9952Z" fill="#4A4861"/>
<path d="M77.9992 63.6937V66.1137C77.9374 66.1921 77.8618 66.2583 77.7764 66.3087C77.7126 66.3484 77.6389 66.3684 77.5642 66.3664C77.4895 66.3643 77.4169 66.3404 77.3553 66.2974C77.2127 66.1794 77.1971 65.9345 77.0322 65.8551C76.9611 65.8318 76.8842 65.8348 76.8149 65.8634C76.7457 65.892 76.6885 65.9445 76.6535 66.0116C76.5904 66.1495 76.557 66.2995 76.5554 66.4516C76.4847 67.3099 76.258 68.1474 75.887 68.9215C75.76 69.1914 75.5439 69.4931 75.2498 69.459C74.9557 69.425 74.8287 69.1324 74.7797 68.8648C74.6906 68.3704 74.802 67.8646 74.8532 67.3656C74.9044 66.8667 74.8822 66.3223 74.5792 65.9232C74.2761 65.524 73.6055 65.4083 73.3025 65.8052C73.189 65.9984 73.107 66.209 73.0596 66.4289C73.0366 66.5391 72.9849 66.6409 72.9101 66.7239C72.8353 66.8069 72.7399 66.8679 72.6341 66.9007C72.3155 66.9551 72.086 66.59 72.0147 66.2679C71.9434 65.9458 71.9144 65.5716 71.6537 65.3766C71.3931 65.1815 70.9408 65.304 70.7068 65.5761C70.4989 65.869 70.3573 66.2052 70.2924 66.5605C70.2254 66.916 70.0555 67.243 69.8045 67.4994C69.688 67.5988 69.5496 67.668 69.4012 67.7013C69.2528 67.7346 69.0987 67.7309 68.9519 67.6906C68.8052 67.6504 68.6702 67.5746 68.5583 67.4699C68.4465 67.3651 68.3611 67.2344 68.3095 67.0889C68.2318 66.7865 68.2234 66.4699 68.285 66.1636C68.3474 65.8578 68.3282 65.5406 68.2293 65.245C68.1744 65.0991 68.0686 64.9791 67.932 64.9079C67.7954 64.8367 67.6379 64.8195 67.4896 64.8594C67.1888 64.9887 66.8033 65.5898 66.5137 65.3131V63.6914C66.5137 63.857 69.0848 63.9908 72.2575 63.9908C75.4303 63.9908 77.9992 63.8592 77.9992 63.6937Z" fill="#818BBB"/>
</g>
<g clip-path="url(#clip2_504_2461)">
<path d="M115.606 43.9929V43.0118C115.591 42.4941 115.659 41.9773 115.808 41.483C115.969 41.0529 116.275 40.698 116.668 40.484L117.581 39.9051C117.808 39.7623 118.023 39.6008 118.226 39.4224C118.432 39.2427 118.601 39.0205 118.721 38.7698C118.809 38.5429 118.852 38.2994 118.845 38.0546C118.854 37.8858 118.825 37.7172 118.761 37.562C118.696 37.4069 118.598 37.2694 118.473 37.1606C118.221 36.9443 117.901 36.83 117.574 36.8387C117.234 36.8333 116.899 36.9253 116.606 37.1047C116.329 37.2727 116.126 37.5473 116.043 37.8691C115.947 38.2352 115.727 38.553 115.423 38.7631C115.093 38.9732 114.706 39.0636 114.322 39.0201C114.147 39.009 113.974 38.9682 113.812 38.8994C113.65 38.8334 113.503 38.732 113.382 38.6021C113.257 38.4647 113.16 38.3029 113.096 38.1261C113.02 37.9187 112.988 37.697 113.001 37.4757C113.01 36.9892 113.143 36.5139 113.388 36.0989C113.645 35.6669 113.982 35.2923 114.38 34.9971C114.819 34.6733 115.306 34.4257 115.821 34.264C116.388 34.0847 116.977 33.9958 117.57 34.0003C118.17 33.9944 118.767 34.078 119.344 34.2484C119.855 34.3981 120.331 34.6527 120.745 34.9971C121.143 35.3374 121.459 35.7699 121.668 36.2599C121.899 36.8246 122.013 37.434 122.001 38.0479C122.01 38.5274 121.947 39.0056 121.814 39.4648C121.686 39.8754 121.48 40.2553 121.209 40.5823C120.944 40.889 120.651 41.1696 120.336 41.4205C119.99 41.6998 119.624 41.968 119.243 42.2251C119.06 42.3344 118.915 42.5 118.826 42.6989C118.76 42.8818 118.728 43.0759 118.731 43.271V43.9952L115.606 43.9929ZM115.513 46.3732C115.501 46.1548 115.533 45.9361 115.607 45.7313C115.681 45.5265 115.796 45.3401 115.944 45.1842C116.293 44.8996 116.724 44.745 117.168 44.745C117.611 44.745 118.042 44.8996 118.391 45.1842C118.671 45.5098 118.826 45.9311 118.826 46.3676C118.826 46.8042 118.671 47.2254 118.391 47.5511C118.042 47.8356 117.611 47.9903 117.168 47.9903C116.724 47.9903 116.293 47.8356 115.944 47.5511C115.798 47.396 115.684 47.2113 115.61 47.0087C115.536 46.806 115.503 46.5897 115.513 46.3732Z" fill="#FFB50F"/>
</g>
<path d="M88.0796 178.118H86.6863V191.269H88.0796V184.354H90.1825V183.199H88.0796V178.118ZM78.4093 188.011H79.466C81.9004 188.016 83.6459 187.949 85.697 187.592L85.5312 186.405C83.6511 186.747 81.9988 186.84 79.7975 186.851V180.511H84.5471V179.382H78.4093V188.011ZM97.5317 179.273V178.558H96.0814V179.273C96.0814 181.039 93.9578 182.655 91.3836 183.002L91.943 184.137C94.0769 183.795 95.9571 182.686 96.8118 181.133C97.6664 182.676 99.5466 183.795 101.691 184.137L102.245 183.002C99.6605 182.655 97.5317 181.019 97.5317 179.273ZM90.819 186.576H96.0866V191.243H97.454V186.576H102.784V185.426H90.819V186.576ZM108.056 179.05C105.989 179.05 104.472 180.335 104.482 182.179C104.472 184.028 105.989 185.307 108.056 185.307C110.133 185.307 111.62 184.028 111.63 182.179C111.62 180.335 110.133 179.05 108.056 179.05ZM103.85 187.286L104.021 188.446C106.367 188.446 109.558 188.431 112.531 187.866L112.422 186.851C109.553 187.265 106.243 187.291 103.85 187.286ZM105.855 182.179C105.844 181.024 106.782 180.257 108.056 180.257C109.33 180.257 110.268 181.024 110.273 182.179C110.268 183.339 109.33 184.1 108.056 184.1C106.782 184.1 105.844 183.339 105.855 182.179ZM113.246 191.269H114.634V178.118H113.246V191.269ZM124.035 178.714C122.03 178.703 120.59 179.978 120.6 181.77C120.59 183.577 122.03 184.841 124.035 184.841C125.785 184.841 127.132 183.826 127.401 182.319H129.96V185.162H131.348V178.118H129.96V181.184H127.396C127.106 179.708 125.765 178.703 124.035 178.714ZM121.921 181.77C121.921 180.635 122.797 179.874 124.035 179.884C125.252 179.874 126.122 180.635 126.122 181.77C126.122 182.888 125.252 183.671 124.035 183.671C122.797 183.671 121.921 182.888 121.921 181.77ZM122.791 191.077H131.348V185.799H129.96V187.327H124.169V185.799H122.791V191.077ZM124.169 189.943V188.42H129.96V189.943H124.169ZM137.299 182.143V181.614H139.63V180.48H137.299V178.589H135.988V180.48H133.621V181.614H135.988V182.143C135.978 184.266 135.041 186.509 133.217 187.576L134.036 188.622C135.305 187.866 136.185 186.493 136.657 184.903C137.133 186.39 138.014 187.643 139.283 188.322L140.065 187.291C138.252 186.317 137.299 184.214 137.299 182.143ZM138.765 184.385H140.655V190.58H141.966V178.398H140.655V183.23H138.765V184.385ZM143.307 191.243H144.628V178.118H143.307V191.243ZM150.278 178.947C148.212 178.957 146.73 180.231 146.741 182.075C146.73 183.712 147.89 184.893 149.589 185.142V187.27C148.367 187.301 147.191 187.307 146.171 187.312L146.383 188.456C148.667 188.482 151.718 188.462 154.489 187.975L154.391 186.934C153.303 187.079 152.138 187.167 150.977 187.219V185.142C152.63 184.883 153.795 183.702 153.806 182.075C153.795 180.231 152.293 178.957 150.278 178.947ZM148.098 182.075C148.087 180.905 149.014 180.143 150.278 180.133C151.516 180.143 152.433 180.905 152.443 182.075C152.433 183.241 151.516 184.018 150.278 184.007C149.014 184.018 148.087 183.241 148.098 182.075ZM155.183 191.243H156.571V184.624H158.591V183.448H156.571V178.118H155.183V191.243ZM55.5643 201.382H52.6275V199.999H51.2446V201.382H48.1783V202.501H55.5643V201.382ZM48.9138 205.432C48.9034 206.852 50.1362 207.789 51.9231 207.789C53.6945 207.789 54.948 206.852 54.9583 205.432C54.948 204.008 53.6945 203.055 51.9231 203.055C50.1362 203.055 48.9034 204.008 48.9138 205.432ZM50.2139 205.432C50.2035 204.624 50.882 204.112 51.9231 204.112C52.9487 204.112 53.6531 204.624 53.6634 205.432C53.6531 206.235 52.9487 206.758 51.9231 206.758C50.882 206.758 50.2035 206.235 50.2139 205.432ZM50.4573 213.077H59.102V208.431H57.7242V209.669H51.8402V208.431H50.4573V213.077ZM51.8402 211.979V210.731H57.7242V211.979H51.8402ZM55.5902 206.8H57.7139V207.898H59.102V200.118H57.7139V203.096H55.6058V204.231H57.7139V205.665H55.5902V206.8ZM64.7523 200.714C62.7478 200.703 61.3079 201.978 61.3183 203.77C61.3079 205.577 62.7478 206.841 64.7523 206.841C66.503 206.841 67.8497 205.826 68.119 204.319H70.6777V207.162H72.0658V200.118H70.6777V203.184H68.1138C67.8238 201.708 66.4823 200.703 64.7523 200.714ZM62.639 203.77C62.639 202.635 63.5144 201.874 64.7523 201.884C65.9695 201.874 66.8397 202.635 66.8397 203.77C66.8397 204.888 65.9695 205.671 64.7523 205.671C63.5144 205.671 62.639 204.888 62.639 203.77ZM63.5092 213.077H72.0658V207.799H70.6777V209.327H64.887V207.799H63.5092V213.077ZM64.887 211.943V210.42H70.6777V211.943H64.887ZM84.3149 200.118H82.9372V213.243H84.3149V206.593H86.4178V205.437H84.3149V200.118ZM74.018 203.309H81.7925V202.174H78.6433V200.289H77.2552V202.174H74.018V203.309ZM74.6913 207.333C74.6861 209.131 76.0639 210.379 77.9596 210.384C79.8346 210.379 81.2124 209.131 81.2176 207.333C81.2124 205.541 79.8346 204.277 77.9596 204.277C76.0639 204.277 74.6861 205.541 74.6913 207.333ZM76.0225 207.333C76.0121 206.204 76.8357 205.427 77.9596 205.427C79.068 205.427 79.8812 206.204 79.8916 207.333C79.8812 208.468 79.068 209.229 77.9596 209.224C76.8357 209.229 76.0121 208.468 76.0225 207.333ZM97.6776 203.961H90.0119V200.595H88.6341V205.075H97.6776V203.961ZM87.0336 207.841H99.045V206.727H87.0336V207.841ZM88.5357 212.932H97.7605V211.798H89.9186V209.089H88.5357V212.932ZM114.62 200.128H113.231V203.744H110.538V204.899H113.231V208.954H114.62V200.128ZM103.872 207.09L104.478 208.193C108.326 206.976 110.455 204.578 110.466 201.149H104.54V202.273H108.974C108.715 204.464 106.954 206.157 103.872 207.09ZM105.255 212.093L105.809 213.202C107.814 212.824 109.492 211.824 110.295 210.379C111.087 211.819 112.75 212.813 114.739 213.176L115.314 212.067C112.843 211.648 110.984 210.187 110.989 208.416V207.862H109.606V208.416C109.601 210.203 107.731 211.694 105.255 212.093ZM127.516 200.118H126.118V213.269H127.516V200.118ZM117.095 205.707C117.095 208.535 118.509 210.322 120.487 210.322C122.445 210.322 123.875 208.535 123.875 205.707C123.875 202.894 122.445 201.107 120.487 201.102C118.509 201.107 117.095 202.894 117.095 205.707ZM118.436 205.707C118.436 203.64 119.275 202.356 120.487 202.345C121.699 202.356 122.528 203.64 122.528 205.707C122.528 207.789 121.699 209.074 120.487 209.074C119.275 209.074 118.436 207.789 118.436 205.707ZM136.829 201.102C134.865 201.107 133.488 202.894 133.498 205.707C133.488 208.535 134.865 210.322 136.829 210.322C138.657 210.322 139.983 208.732 140.128 206.173H142.837V213.269H144.215V200.118H142.837V205.039H140.118C139.91 202.615 138.605 201.107 136.829 201.102ZM134.824 205.707C134.824 203.64 135.637 202.356 136.829 202.345C138.009 202.356 138.828 203.64 138.828 205.707C138.828 207.789 138.009 209.074 136.829 209.074C135.637 209.074 134.824 207.789 134.824 205.707ZM157.163 200.118H155.785V203.045H153.289V204.194H155.785V206.618H153.216V207.779H155.785V213.269H157.163V200.118ZM146.679 202.407H151.134V204.966H146.721V210.244H147.71C149.782 210.244 151.46 210.182 153.516 209.861L153.397 208.711C151.522 208.996 149.953 209.074 148.099 209.084V206.069H152.496V201.278H146.679V202.407ZM170.173 200.128H168.754V209.053H165.859V210.115H168.754V213.248H170.173V200.128ZM159.136 206.955L159.322 208.11C160.337 208.11 161.482 208.105 162.684 208.058V212.844H164.077V207.991C165.341 207.908 166.631 207.779 167.884 207.566L167.801 206.536C164.932 206.934 161.622 206.95 159.136 206.955ZM160.11 203.35C160.11 204.935 161.482 205.961 163.456 205.971C165.398 205.961 166.786 204.935 166.786 203.35C166.786 201.807 165.398 200.734 163.456 200.734C161.482 200.734 160.11 201.807 160.11 203.35ZM161.42 203.35C161.415 202.433 162.243 201.812 163.456 201.807C164.626 201.812 165.46 202.433 165.47 203.35C165.46 204.298 164.626 204.899 163.456 204.899C162.249 204.899 161.415 204.298 161.42 203.35ZM184.173 210.456H181.293V206.997C182.35 206.401 182.987 205.474 182.987 204.314C182.987 202.247 180.957 200.89 178.134 200.879C175.321 200.89 173.296 202.247 173.296 204.314C173.296 205.489 173.954 206.432 175.036 207.022V210.456H172.162V211.606H184.173V210.456ZM174.648 204.314C174.648 202.894 176.078 201.993 178.134 202.003C180.18 201.993 181.63 202.894 181.63 204.314C181.63 205.717 180.18 206.634 178.134 206.634C176.078 206.634 174.648 205.717 174.648 204.314ZM176.404 210.456V207.535C176.932 207.654 177.512 207.722 178.134 207.722C178.761 207.722 179.351 207.654 179.89 207.53V210.456H176.404ZM186.571 212.098C187.135 212.098 187.612 211.632 187.612 211.062C187.612 210.493 187.135 210.027 186.571 210.027C186.001 210.027 185.524 210.493 185.535 211.062C185.524 211.632 186.001 212.098 186.571 212.098Z" fill="#191919"/>
<path d="M146.681 110.288C146.681 110.288 153.933 119.923 153.495 123.966C153.056 128.008 143.305 121.895 143.305 121.895L146.681 110.288Z" fill="#FCA886"/>
<path d="M139.603 151.999H99.293L99.6948 138.229H137.315L139.603 151.999Z" fill="#3B3A3A"/>
<path d="M151.808 114.088L141.996 94.0629V93.998L141.927 93.9392L141.915 93.9149C140.966 93.0877 131.945 85.5049 119.56 85.1095C106.462 84.6898 96.228 94.7198 96.228 94.7198C90.6908 99.7561 85.3555 117.067 85.3555 117.067L98.2616 120.217L99.6994 138.232H137.313L139.409 118.472L143.224 122.904L151.808 114.088Z" fill="#717482"/>
<g style="mix-blend-mode:multiply" opacity="0.34">
<path d="M98.9242 128.624L98.2538 120.216L89.9398 118.189C89.334 117.295 88.9887 116.723 89.0897 116.725C89.5461 116.725 106.129 97.168 106.129 97.168L109.425 98.5284C110.116 107.133 102.139 123.379 98.9242 128.624Z" fill="#717482"/>
</g>
<path d="M125.865 85.9994C125.566 85.9325 125.259 85.8676 124.959 85.7966L123.545 75.6592L111.699 79.0349L111.879 86.048C111.332 86.1899 110.792 86.344 110.263 86.5123C109.878 87.1924 109.677 87.9621 109.68 88.7446C109.68 92.0717 113.517 94.7723 118.24 94.7723C122.963 94.7723 126.798 92.0636 126.798 88.7446C126.79 87.7525 126.463 86.7898 125.865 85.9994Z" fill="#FCC8B3"/>
<path d="M124.603 79.8111C124.524 80.2148 124.421 80.6135 124.296 81.0053C122.733 85.8895 117.699 91.1042 114.401 94.1252C111.602 93.1358 109.68 91.084 109.68 88.7361C109.683 87.9627 109.886 87.2034 110.269 86.5323C110.796 86.364 111.334 86.2099 111.885 86.0659L111.707 79.0549L118.452 77.1328L124.106 79.5901L124.603 79.8111Z" fill="#FCA886"/>
<path d="M102.018 93.5742C102.018 93.5742 87.0033 109.062 84.8526 113.014C82.7019 116.965 85.1273 121.813 86.5631 122.217C88.8733 122.865 94.9638 121.499 96.4885 118.713C98.0131 115.927 106.123 97.169 106.123 97.169L102.018 93.5742Z" fill="#FCC8B3"/>
<path d="M114.501 60.144L119.457 59.9624C120.376 59.9287 121.293 60.0771 122.155 60.3992C123.018 60.7213 123.808 61.2108 124.482 61.8396C125.156 62.4685 125.7 63.2244 126.083 64.0643C126.465 64.9042 126.68 65.8115 126.713 66.7345L127.068 76.4965L108.112 77.191L107.757 67.4291C107.69 65.5653 108.362 63.7508 109.627 62.3847C110.891 61.0185 112.644 60.2125 114.501 60.144Z" fill="#703F39"/>
<path d="M119.36 62.0387L118.988 61.9515C117.551 61.6124 116.049 61.6826 114.65 62.1543C113.438 62.5637 112.343 63.2614 111.458 64.1878C110.573 65.1142 109.924 66.2418 109.567 67.4744L109.365 68.405C108.912 70.4376 108.904 72.5449 109.343 74.5808L110.098 78.0964C110.499 79.9522 111.391 81.6649 112.681 83.0536L115.454 86.3118C115.639 86.5113 115.864 86.6688 116.114 86.7737C116.365 86.8786 116.635 86.9285 116.906 86.9201L119.127 86.8369C119.399 86.8254 119.665 86.7551 119.906 86.6309C120.148 86.5066 120.361 86.3314 120.529 86.1172L122.964 82.6704C124.152 81.1914 124.919 79.4177 125.186 77.5368L125.686 73.9624C125.974 71.9075 125.815 69.8144 125.22 67.8272L124.974 67.004C124.517 65.7763 123.766 64.6807 122.787 63.8145C121.807 62.9483 120.63 62.3383 119.36 62.0387Z" fill="#FCC8B3"/>
<path d="M113.31 75.53C113.332 76.1565 113.653 76.6532 114.027 76.639C114.4 76.6248 114.681 76.1078 114.659 75.4813C114.637 74.8548 114.315 74.3601 113.944 74.3723C113.572 74.3845 113.288 74.9055 113.31 75.53Z" fill="black"/>
<path d="M121.092 75.2449C121.114 75.8694 121.435 76.3661 121.806 76.3519C122.178 76.3377 122.463 75.8207 122.441 75.1942C122.418 74.5677 122.097 74.073 121.724 74.0872C121.35 74.1014 121.065 74.6184 121.092 75.2449Z" fill="black"/>
<path d="M117.781 82.9581C117.781 82.9581 118.894 82.6255 119.28 82.6701" stroke="black" stroke-width="0.5" stroke-miterlimit="10" stroke-linecap="round"/>
<path d="M111.124 75.5664C111.183 77.1884 111.528 78.9523 110.316 78.9969C109.105 79.0415 106.831 77.3384 106.772 75.7246C106.714 74.1107 107.641 72.7665 108.84 72.7218C110.04 72.6772 111.065 73.9444 111.124 75.5664Z" fill="#FCC8B3"/>
<path d="M109.426 74.4265C108.416 74.1183 107.921 75.0814 107.968 75.6896C108.014 76.2979 108.356 76.8555 109.246 77.1413" stroke="#FCA886" stroke-width="0.7" stroke-miterlimit="10" stroke-linecap="round"/>
<path d="M124.026 75.0878C124.085 76.7098 123.879 78.496 125.074 78.4514C126.27 78.4068 128.41 76.5436 128.352 74.9297C128.293 73.3158 127.277 72.0425 126.082 72.0912C124.886 72.1399 123.968 73.4739 124.026 75.0878Z" fill="#FCC8B3"/>
<path d="M125.629 73.8325C126.614 73.4513 127.17 74.3759 127.166 74.9841C127.162 75.5924 126.867 76.1763 126.005 76.527" stroke="#FCA886" stroke-width="0.7" stroke-miterlimit="10" stroke-linecap="round"/>
<path d="M112.093 73.5987C111.91 73.5882 111.738 73.5058 111.615 73.3692C111.492 73.2326 111.427 73.0529 111.435 72.8688C111.419 72.7006 111.462 72.5321 111.557 72.3925C111.652 72.2529 111.792 72.151 111.954 72.1044H111.994C112.336 72.0091 113.378 71.7172 114.296 71.9017C114.475 71.956 114.628 72.0749 114.725 72.2355C114.822 72.3961 114.856 72.587 114.821 72.7715C114.765 73.177 114.44 73.4547 114.094 73.3797C113.654 73.2885 113.05 73.3493 112.299 73.5602C112.232 73.5812 112.163 73.5941 112.093 73.5987Z" fill="#703F39"/>
<path d="M122.871 73.1636C123.053 73.1402 123.219 73.0459 123.332 72.901C123.445 72.7561 123.497 72.5722 123.477 72.3891C123.481 72.2201 123.426 72.0551 123.321 71.9228C123.216 71.7905 123.068 71.6994 122.903 71.6653H122.863C122.514 71.5943 121.449 71.3794 120.551 71.6369C120.376 71.7045 120.233 71.8345 120.148 72.0018C120.064 72.1691 120.044 72.3619 120.092 72.5432C120.177 72.9487 120.522 73.196 120.86 73.0987C121.294 72.975 121.9 72.9912 122.665 73.1473C122.733 73.1606 122.802 73.166 122.871 73.1636Z" fill="#703F39"/>
<path d="M120.041 61.3457C120.041 61.3457 119.619 65.0236 121.995 66.7672C124.372 68.5108 125.037 73.8634 125.037 73.8634L126.297 71.5987L126.224 69.5915C126.161 67.8324 125.584 66.1307 124.566 64.6976C123.548 63.2646 122.133 62.1632 120.497 61.5302L120.041 61.3457Z" fill="#703F39"/>
<path d="M114.014 61.5762C114.014 61.5762 114.702 65.2257 112.459 67.1274C110.215 69.0292 109.941 74.4163 109.941 74.4163L108.527 72.2509L108.343 67.6586C108.307 66.6619 108.564 65.6765 109.08 64.8245C109.597 63.9726 110.351 63.2915 111.249 62.8657L114.014 61.5762Z" fill="#703F39"/>
<path d="M112.454 65.5595C112.454 65.5595 116.925 67.1247 120.831 64.4849L120.023 61.7883L114.532 61.3018L112.184 63.2522L112.454 65.5595Z" fill="#703F39"/>
<path d="M108.855 64.2848C108.855 64.2848 109.948 61.2435 114.322 59.3276C117.087 58.1212 115.768 57 115.768 57C115.768 57 117.636 57.6731 117.503 58.4192C117.369 59.1654 117.547 58.8247 117.547 58.8247C117.704 58.4397 117.975 58.1125 118.323 57.8872C118.671 57.662 119.08 57.5497 119.494 57.5657C119.494 57.5657 118.557 58.0705 119.577 58.7984C120.596 59.5262 124.5 61.3733 125.308 63.2447C126.115 65.116 108.855 64.2848 108.855 64.2848Z" fill="#703F39"/>
<path d="M115.411 81.8262C115.29 81.8928 115.246 82.0448 115.312 82.1658C115.379 82.2867 115.531 82.3308 115.652 82.2642L115.411 81.8262ZM121.095 81.8579C121.231 81.8852 121.363 81.7977 121.39 81.6623C121.417 81.527 121.33 81.3951 121.194 81.3678L121.095 81.8579ZM115.531 82.0452C115.652 82.2642 115.652 82.2642 115.652 82.2643C115.652 82.2643 115.652 82.2643 115.652 82.2644C115.651 82.2644 115.651 82.2644 115.651 82.2644C115.651 82.2645 115.651 82.2644 115.652 82.2643C115.652 82.264 115.653 82.2635 115.654 82.2628C115.657 82.2612 115.662 82.2587 115.669 82.2552C115.683 82.2482 115.704 82.2374 115.734 82.2237C115.792 82.1961 115.882 82.1565 116.001 82.1107C116.24 82.0189 116.597 81.902 117.064 81.8064C117.995 81.6153 119.365 81.5084 121.095 81.8579L121.194 81.3678C119.392 81.0039 117.955 81.1132 116.963 81.3166C116.468 81.4182 116.084 81.5432 115.822 81.644C115.691 81.6944 115.59 81.7387 115.521 81.771C115.487 81.7872 115.46 81.8004 115.442 81.8098C115.433 81.8145 115.425 81.8183 115.42 81.8211C115.418 81.8225 115.415 81.8236 115.414 81.8244C115.413 81.8249 115.412 81.8252 115.412 81.8255C115.412 81.8257 115.411 81.8258 115.411 81.8259C115.411 81.826 115.411 81.826 115.411 81.8261C115.411 81.8261 115.411 81.8262 115.531 82.0452Z" fill="black"/>
<path d="M101.497 98.6489C101.497 98.6489 100.003 92.0839 101.398 90.7072C102.794 89.3305 107.967 89.3549 109.678 90.0848C111.388 90.8147 111.247 96.4592 107.255 100.382L101.497 98.6489Z" fill="#FCC8B3"/>
<path d="M135.876 129.7H119.937C118.755 129.7 117.891 128.505 118.188 127.283L123.81 104.109C123.897 103.706 124.116 103.344 124.433 103.082C124.75 102.819 125.146 102.672 125.557 102.663H141.496C142.677 102.663 143.541 103.855 143.245 105.08L137.625 128.254C137.537 128.657 137.317 129.019 137 129.281C136.683 129.544 136.287 129.691 135.876 129.7Z" fill="#DADDF0"/>
<path d="M137.524 129.7H121.585C120.404 129.7 119.539 128.505 119.836 127.283L125.458 104.109C125.546 103.706 125.766 103.344 126.083 103.081C126.4 102.819 126.796 102.672 127.207 102.663H143.144C144.326 102.663 145.19 103.855 144.893 105.08L139.271 128.254C139.184 128.657 138.964 129.018 138.647 129.281C138.33 129.543 137.935 129.69 137.524 129.7Z" fill="#FFF4E9"/>
<path d="M127.166 126.659C127.166 126.659 142.532 132.761 147.463 131.235C152.395 129.708 154.111 124.52 153.956 123.013C153.8 121.507 147.09 117.723 143.596 118.792C140.102 119.86 128.325 122.488 128.325 122.488L127.166 126.659Z" fill="#FCC8B3"/>
<path d="M132.555 124.971L128.27 119.252C128.051 118.96 127.733 118.76 127.375 118.692L126.317 118.489L123.436 127.252C123.436 127.252 128.137 129.342 132.836 128.361L132.555 124.971Z" fill="#FCC8B3"/>
<path d="M120.305 120.513C120.103 120.513 119.906 120.448 119.743 120.327C119.58 120.206 119.46 120.036 119.401 119.842C119.363 119.723 119.35 119.597 119.361 119.473C119.373 119.348 119.408 119.227 119.466 119.117C119.524 119.006 119.603 118.908 119.699 118.828C119.795 118.748 119.906 118.688 120.025 118.652L122.7 117.818L127.028 118.629C127.275 118.676 127.494 118.819 127.637 119.027C127.779 119.235 127.833 119.492 127.787 119.74C127.765 119.863 127.718 119.981 127.65 120.085C127.583 120.19 127.495 120.281 127.392 120.351C127.29 120.422 127.174 120.472 127.052 120.498C126.931 120.524 126.805 120.526 126.683 120.503L122.813 119.783L120.592 120.476C120.499 120.503 120.402 120.515 120.305 120.513Z" fill="#FCC8B3"/>
<path d="M119.656 123.603C119.465 123.604 119.278 123.546 119.12 123.437C118.962 123.329 118.841 123.174 118.772 122.995C118.727 122.878 118.706 122.754 118.709 122.629C118.713 122.504 118.74 122.381 118.791 122.267C118.842 122.153 118.914 122.05 119.004 121.964C119.095 121.878 119.201 121.811 119.317 121.766L122.512 120.55H126.49C126.741 120.55 126.983 120.65 127.16 120.828C127.338 121.006 127.439 121.248 127.439 121.501C127.439 121.753 127.339 121.996 127.161 122.175C126.983 122.353 126.742 122.454 126.49 122.454H122.855L119.988 123.555C119.881 123.59 119.769 123.607 119.656 123.603Z" fill="#FCC8B3"/>
<path d="M119.899 126.413C119.708 126.412 119.522 126.354 119.364 126.245C119.207 126.137 119.086 125.983 119.017 125.804C118.971 125.688 118.948 125.564 118.949 125.439C118.951 125.314 118.977 125.19 119.027 125.075C119.076 124.96 119.147 124.856 119.237 124.769C119.326 124.682 119.432 124.614 119.548 124.568L122.837 123.258H126.485C126.736 123.258 126.978 123.358 127.156 123.537C127.334 123.716 127.434 123.958 127.434 124.211C127.433 124.463 127.333 124.705 127.155 124.883C126.977 125.062 126.736 125.162 126.485 125.162H123.201L120.249 126.338C120.138 126.385 120.019 126.41 119.899 126.413Z" fill="#FCC8B3"/>
<path d="M120.305 128.863C120.114 128.863 119.928 128.805 119.77 128.696C119.613 128.587 119.492 128.434 119.423 128.255C119.377 128.138 119.355 128.014 119.358 127.889C119.36 127.764 119.387 127.641 119.437 127.527C119.487 127.412 119.559 127.309 119.648 127.222C119.738 127.135 119.844 127.067 119.96 127.022L122.585 125.996H126.862C126.987 125.996 127.11 126.021 127.225 126.069C127.34 126.117 127.445 126.187 127.533 126.275C127.621 126.364 127.69 126.469 127.738 126.585C127.785 126.7 127.81 126.824 127.809 126.949C127.809 127.201 127.71 127.443 127.532 127.621C127.354 127.8 127.113 127.9 126.862 127.9H122.935L120.661 128.798C120.547 128.843 120.427 128.865 120.305 128.863Z" fill="#FCC8B3"/>
<path d="M106.477 99.4004L105.34 98.5257L115.144 85.6895C115.248 85.5525 115.403 85.4629 115.573 85.4403C115.744 85.4177 115.916 85.464 116.052 85.569L116.16 85.6517C116.296 85.7567 116.385 85.9119 116.408 86.083C116.43 86.2541 116.384 86.4272 116.28 86.5642L106.477 99.4004Z" fill="#FFF4E9"/>
<path d="M106.48 99.4032L104.34 100.985L105.346 98.5273L106.48 99.4032Z" fill="#FFF4E9"/>
<path d="M105.754 95.857C105.563 95.8564 105.377 95.798 105.22 95.6894C105.063 95.5809 104.942 95.4273 104.873 95.2487L103.882 92.7367L102.03 92.098C101.911 92.0576 101.802 91.994 101.708 91.9109C101.614 91.8277 101.537 91.7266 101.482 91.6134C101.427 91.5003 101.395 91.3773 101.388 91.2517C101.381 91.126 101.399 91.0002 101.44 90.8815C101.481 90.7625 101.544 90.6527 101.627 90.5585C101.71 90.4643 101.811 90.3875 101.924 90.3326C102.036 90.2777 102.159 90.2459 102.284 90.2388C102.409 90.2317 102.534 90.2497 102.652 90.2915L105.33 91.214L106.642 94.5411C106.735 94.7762 106.73 95.0382 106.63 95.27C106.53 95.5018 106.343 95.6844 106.109 95.7779C105.997 95.8266 105.876 95.8535 105.754 95.857Z" fill="#FCA886"/>
<path d="M107.838 94.9888C107.647 94.9885 107.461 94.9302 107.304 94.8216C107.147 94.7131 107.026 94.5593 106.957 94.3806L105.966 91.8685L104.114 91.2298C103.995 91.1895 103.886 91.1259 103.792 91.0427C103.698 90.9595 103.621 90.8584 103.566 90.7452C103.511 90.6321 103.479 90.5091 103.472 90.3835C103.465 90.2579 103.483 90.132 103.524 90.0133C103.565 89.8943 103.628 89.7845 103.711 89.6903C103.794 89.5961 103.895 89.5193 104.008 89.4645C104.12 89.4096 104.243 89.3777 104.368 89.3706C104.493 89.3636 104.618 89.3815 104.736 89.4233L107.414 90.3459L108.726 93.673C108.819 93.9079 108.815 94.1703 108.715 94.4022C108.615 94.6341 108.427 94.8167 108.193 94.9097C108.081 94.9587 107.96 94.9855 107.838 94.9888Z" fill="#FCA886"/>
<path d="M109.757 93.138C109.558 93.1382 109.365 93.076 109.204 92.9599C109.042 92.8439 108.922 92.6799 108.858 92.4912L108.23 90.6239L106.695 90.8773C106.565 90.8992 106.431 90.8932 106.303 90.8599C106.174 90.8265 106.055 90.7666 105.951 90.6838C105.847 90.6011 105.762 90.4974 105.7 90.3795C105.639 90.2617 105.603 90.1322 105.595 89.9994C105.584 89.757 105.663 89.519 105.816 89.3317C105.97 89.1444 106.188 89.0211 106.427 88.9857L108.773 88.5964C108.98 88.5628 109.192 88.6038 109.371 88.7122C109.55 88.8206 109.686 88.9894 109.753 89.1884L110.639 91.8242C110.723 92.0577 110.716 92.3145 110.619 92.5429C110.522 92.7713 110.342 92.9542 110.116 93.0549C110.003 93.1059 109.881 93.1341 109.757 93.138Z" fill="#FCA886"/>
<path d="M107.263 100.383L110.611 98.2883C110.877 98.1227 111.093 97.8873 111.235 97.6075C111.378 97.3277 111.441 97.0142 111.419 96.7008L111.144 92.9844L110.276 93.4223C110.094 93.5135 109.943 93.6563 109.842 93.833C109.741 94.0096 109.694 94.2123 109.706 94.4158L109.785 95.6323C109.785 95.6323 107.041 98.2356 107.263 100.383Z" fill="#FCA886"/>
<path d="M118.868 75.1367C118.437 75.5685 118.437 76.4322 118.868 77.2958" stroke="black" stroke-width="0.5" stroke-miterlimit="10" stroke-linecap="round"/>
<path d="M180.495 46H161.598V72.9674H180.495V46Z" fill="#CEC1BB"/>
<path d="M179.016 71.4907V47.4766H163.077V71.4907H179.016Z" fill="#FFF4E9"/>
<path d="M171.769 47.4766H170.73V71.4906H171.769V47.4766Z" fill="#CEC1BB"/>
<path d="M172.583 47.4766H171.768V71.4906H172.583V47.4766Z" fill="#EEDEC9"/>
<path d="M163.894 47.4766H163.078V71.4906H163.894V47.4766Z" fill="#EEDEC9"/>
<path d="M179.016 54.4102H162.836V55.5481H179.016V54.4102Z" fill="#CEC1BB"/>
<path d="M179.016 63.3379H162.836V64.4758H179.016V63.3379Z" fill="#CEC1BB"/>
<path d="M182 72.9678H160V74.9986H182V72.9678Z" fill="#AD9990"/>
<path d="M161.598 46L163.078 47.4767H179.016L180.495 46H161.598Z" fill="#BAAEA9"/>
<path d="M184.156 118.289C184.156 117.52 184.383 116.769 184.807 116.13C185.231 115.49 185.834 114.992 186.54 114.697C187.246 114.403 188.023 114.325 188.772 114.474C189.522 114.623 190.211 114.993 190.752 115.535C191.293 116.078 191.662 116.77 191.813 117.523C191.963 118.277 191.888 119.058 191.597 119.769C191.306 120.48 190.813 121.088 190.178 121.516C189.544 121.945 188.798 122.175 188.033 122.177C187.525 122.178 187.021 122.079 186.551 121.884C186.08 121.689 185.653 121.403 185.293 121.042C184.932 120.681 184.647 120.252 184.452 119.779C184.257 119.307 184.156 118.8 184.156 118.289Z" fill="#FFB50F"/>
<path d="M199.108 113.555C198.652 111.718 187.998 105.152 187.998 105.152C187.998 105.152 177.366 111.718 176.911 113.555C176.455 115.391 176 118.288 176 118.288H200C200 118.288 199.563 115.387 199.108 113.555Z" fill="#646673"/>
<path d="M187.795 101H188.028C188.165 100.999 188.301 101.026 188.428 101.079C188.555 101.132 188.67 101.21 188.766 101.308C188.863 101.406 188.939 101.523 188.99 101.651C189.042 101.779 189.067 101.916 189.065 102.054V105.808H186.758V102.054C186.756 101.916 186.781 101.779 186.833 101.651C186.884 101.523 186.96 101.406 187.057 101.308C187.153 101.21 187.268 101.132 187.395 101.079C187.522 101.026 187.658 100.999 187.795 101Z" fill="#999DB0"/>
<defs>
<filter id="filter0_d_504_2461" x="0" y="0" width="240" height="261" filterUnits="userSpaceOnUse" color-interpolation-filters="sRGB">
<feFlood flood-opacity="0" result="BackgroundImageFix"/>
<feColorMatrix in="SourceAlpha" type="matrix" values="0 0 0 0 0 0 0 0 0 0 0 0 0 0 0 0 0 0 127 0" result="hardAlpha"/>
<feOffset dx="2" dy="2"/>
<feGaussianBlur stdDeviation="6"/>
<feComposite in2="hardAlpha" operator="out"/>
<feColorMatrix type="matrix" values="0 0 0 0 0 0 0 0 0 0 0 0 0 0 0 0 0 0 0.15 0"/>
<feBlend mode="normal" in2="BackgroundImageFix" result="effect1_dropShadow_504_2461"/>
<feBlend mode="normal" in="SourceGraphic" in2="effect1_dropShadow_504_2461" result="shape"/>
</filter>
<clipPath id="clip0_504_2461">
<rect width="25" height="37" fill="white" transform="translate(40 97)"/>
</clipPath>
<clipPath id="clip1_504_2461">
<rect width="23" height="33" fill="white" transform="translate(55 43)"/>
</clipPath>
<clipPath id="clip2_504_2461">
<rect width="9" height="14" fill="white" transform="translate(113 34)"/>
</clipPath>
</defs>
</svg>
