<svg width="240" height="261" viewBox="0 0 240 261" fill="none" xmlns="http://www.w3.org/2000/svg">
<g filter="url(#filter0_d_504_2421)">
<rect x="10" y="10" width="216" height="237" rx="10" fill="#FBFBFB"/>
</g>
<path d="M73.7159 182.029H72.3485V183.463H67.0395V184.587H79.0509V183.463H73.7159V182.029ZM67.6507 181.765L68.1065 182.811C70.4217 182.609 72.3434 181.765 73.0426 180.454C73.7367 181.765 75.6583 182.609 77.9735 182.811L78.4293 181.765C76.0571 181.599 74.2132 180.713 73.9853 179.579H77.9476V178.496H68.1531V179.579H72.0896C71.8513 180.708 69.9867 181.599 67.6507 181.765ZM68.1635 187.27H77.9166V186.203H73.7263V185.054H72.3434V186.203H68.1635V187.27ZM69.044 189.565C69.044 190.71 70.4684 191.305 73.0219 191.305C75.565 191.305 77.0257 190.71 77.0257 189.565C77.0257 188.431 75.565 187.835 73.0219 187.83C70.4684 187.835 69.044 188.431 69.044 189.565ZM70.4684 189.565C70.458 189.037 71.38 188.788 73.0219 188.783C74.6897 188.788 75.5858 189.037 75.5961 189.565C75.5858 190.088 74.6897 190.368 73.0219 190.357C71.38 190.368 70.458 190.088 70.4684 189.565ZM91.9889 184.971H80.0241V186.084H91.9889V184.971ZM81.3034 181.184C81.3034 182.842 83.1422 183.842 85.9961 183.842C88.8397 183.842 90.6784 182.842 90.6784 181.184C90.6784 179.537 88.8397 178.548 85.9961 178.558C83.1422 178.548 81.3034 179.537 81.3034 181.184ZM81.5313 190.974H90.6422V189.834H82.9298V187.151H81.5313V190.974ZM82.7485 181.184C82.7382 180.242 83.9864 179.672 85.9961 179.672C88.0058 179.672 89.2541 180.242 89.2541 181.184C89.2541 182.153 88.0058 182.707 85.9961 182.707C83.9864 182.707 82.7382 182.153 82.7485 181.184ZM107.936 178.118H106.6V183.256H104.984V178.372H103.663V190.596H104.984V184.406H106.6V191.243H107.936V178.118ZM97.0903 187.783H102.187V179.594H97.0903V187.783ZM98.4007 186.68V180.698H100.882V186.68H98.4007ZM121.579 183.551H109.614V184.66H114.882V185.81H111.038V186.872H118.694V187.876H111.064V191.119H120.439V190.041H112.426V188.886H120.061V185.81H116.275V184.66H121.579V183.551ZM111.142 182.583H120.035V178.538H111.142V182.583ZM112.504 181.49V179.636H118.647V181.49H112.504ZM128.55 178.336C125.592 178.336 123.857 179.133 123.857 180.589C123.857 182.065 125.592 182.863 128.55 182.873C131.507 182.863 133.232 182.065 133.232 180.589C133.232 179.133 131.507 178.336 128.55 178.336ZM122.578 184.784H134.543V183.671H122.578V184.784ZM124.002 186.835H131.658V187.866H124.028V191.119H133.403V190.041H125.39V188.866H133.025V185.794H124.002V186.835ZM125.313 180.589C125.302 179.822 126.462 179.366 128.55 179.372C130.653 179.366 131.808 179.822 131.808 180.589C131.808 181.407 130.653 181.827 128.55 181.827C126.462 181.827 125.302 181.407 125.313 180.589ZM142.762 179.102C140.799 179.107 139.421 180.894 139.432 183.707C139.421 186.535 140.799 188.322 142.762 188.322C144.591 188.322 145.916 186.732 146.062 184.173H148.77V191.269H150.148V178.118H148.77V183.039H146.051C145.844 180.615 144.539 179.107 142.762 179.102ZM140.758 183.707C140.758 181.64 141.571 180.356 142.762 180.345C143.943 180.356 144.761 181.64 144.761 183.707C144.761 185.789 143.943 187.074 142.762 187.074C141.571 187.074 140.758 185.789 140.758 183.707ZM163.04 178.118H161.641V191.269H163.04V178.118ZM153.002 188.052H154.089C156.803 188.047 158.518 187.97 160.476 187.612L160.336 186.452C158.487 186.789 156.886 186.861 154.4 186.866V180.49H159.29V179.34H153.002V188.052ZM169.866 181.459V179.211H168.457V181.459C168.446 183.888 167.089 186.421 165.059 187.395L165.94 188.513C167.447 187.731 168.591 186.136 169.172 184.246C169.746 186.043 170.876 187.524 172.373 188.275L173.212 187.156C171.207 186.255 169.86 183.862 169.866 181.459ZM171.772 183.608H174.698V191.269H176.076V178.118H174.698V182.479H171.772V183.608ZM56.7622 202.832V202.682H59.611V201.563H56.7829V200.061H55.3793V201.563H52.5253V202.682H55.3793V202.832C55.3793 204.464 54.1362 205.94 52.1265 206.515L52.7998 207.613C54.3537 207.131 55.5087 206.121 56.0889 204.826C56.6741 206.002 57.7981 206.924 59.3209 207.354L59.9528 206.292C57.9483 205.728 56.7622 204.319 56.7622 202.832ZM53.4317 212.124L53.9445 213.181C55.9283 212.87 57.5599 211.974 58.3161 210.726C59.0723 211.979 60.709 212.896 62.7032 213.207L63.2159 212.129C61.025 211.808 59.3364 210.7 59.0826 209.472H62.6824V208.354H53.9601V209.472H57.5547C57.3009 210.726 55.6279 211.803 53.4317 212.124ZM61.082 207.701H62.4753V204.417H64.3761V203.262H62.4753V200.118H61.082V207.701ZM68.6384 201.102C66.6753 201.107 65.2768 202.894 65.2872 205.707C65.2768 208.535 66.6753 210.322 68.6384 210.322C70.6014 210.322 71.9999 208.535 72.0103 205.707C71.9999 202.894 70.6014 201.107 68.6384 201.102ZM66.6132 205.707C66.6132 203.64 67.4419 202.356 68.6384 202.345C69.8607 202.356 70.6687 203.64 70.6739 205.707C70.6687 207.789 69.8607 209.074 68.6384 209.074C67.4419 209.074 66.6132 207.789 66.6132 205.707ZM73.9578 213.243H75.3511V206.437H77.454V205.261H75.3511V200.118H73.9578V213.243ZM81.6022 201.102C79.6392 201.107 78.2407 202.894 78.2511 205.707C78.2407 208.535 79.6392 210.322 81.6022 210.322C83.5653 210.322 84.9638 208.535 84.9741 205.707C84.9638 202.894 83.5653 201.107 81.6022 201.102ZM79.577 205.707C79.577 203.64 80.4057 202.356 81.6022 202.345C82.8246 202.356 83.6326 203.64 83.6378 205.707C83.6326 207.789 82.8246 209.074 81.6022 209.074C80.4057 209.074 79.577 207.789 79.577 205.707ZM86.9216 213.243H88.3149V208.385H90.3505V207.235H88.3149V204.51H90.3505V203.335H88.3149V200.118H86.9216V213.243ZM105.029 200.077H103.636V207.292H105.029V204.288H106.94V203.153H105.029V200.077ZM94.732 202.325H102.543V201.237H99.3366V199.999H97.9537V201.237H94.732V202.325ZM95.4468 204.977C95.4416 206.318 96.7106 207.126 98.6426 207.126C100.564 207.126 101.818 206.318 101.823 204.977C101.818 203.656 100.564 202.827 98.6426 202.827C96.7106 202.827 95.4416 203.656 95.4468 204.977ZM96.5397 208.944H103.646V209.975H96.5707V213.119H105.474V212.062H97.9381V210.964H105.029V207.919H96.5397V208.944ZM96.7883 204.977C96.7779 204.272 97.5082 203.832 98.6426 203.832C99.7665 203.832 100.497 204.272 100.507 204.977C100.497 205.691 99.7665 206.106 98.6426 206.111C97.5082 206.106 96.7779 205.691 96.7883 204.977ZM112.508 203.992V202.589H115.501V201.439H108.105V202.589H111.099V203.992C111.088 206.246 109.623 208.716 107.644 209.638L108.457 210.736C109.98 209.996 111.213 208.4 111.824 206.536C112.435 208.276 113.658 209.726 115.206 210.41L115.968 209.312C113.948 208.452 112.508 206.183 112.508 203.992ZM117.154 213.243H118.552V200.118H117.154V213.243ZM136.318 210.456H130.967V207.421H134.878V201.17H125.674V207.421H129.589V210.456H124.306V211.606H136.318V210.456ZM127.036 206.318V202.294H133.516V206.318H127.036ZM149.282 210.488H137.27V211.637H149.282V210.488ZM138.705 202.216H146.438V204.06H138.731V208.224H148.116V207.116H140.114V205.184H147.811V201.081H138.705V202.216ZM156.046 201.066H150.918V202.2H154.606C154.357 204.288 152.922 205.893 150.322 206.934L151.027 207.97C152.834 207.204 154.155 206.173 154.989 204.883H157.439V207.478H158.754V200.403H157.439V203.759H155.564C155.885 202.946 156.046 202.045 156.046 201.066ZM150.949 212.155L151.648 213.181C152.886 212.715 153.751 211.834 154.222 210.788C154.621 211.871 155.408 212.808 156.667 213.285C157.889 212.782 158.666 211.808 159.076 210.752C159.531 211.834 160.417 212.725 161.712 213.181L162.39 212.155C160.692 211.606 159.775 210.254 159.785 208.897V208.105H158.428V208.897C158.418 209.882 157.838 211.151 156.636 211.938C155.45 211.218 154.89 210.037 154.901 208.897V208.105H153.57V208.897C153.57 210.166 152.627 211.56 150.949 212.155ZM160.101 207.68H161.417V200.128H160.101V207.68ZM166.756 201.102C164.793 201.107 163.415 202.894 163.426 205.707C163.415 208.535 164.793 210.322 166.756 210.322C168.585 210.322 169.911 208.732 170.056 206.173H172.765V213.269H174.142V200.118H172.765V205.039H170.045C169.838 202.615 168.533 201.107 166.756 201.102ZM164.752 205.707C164.752 203.64 165.565 202.356 166.756 202.345C167.937 202.356 168.756 203.64 168.756 205.707C168.756 207.789 167.937 209.074 166.756 209.074C165.565 209.074 164.752 207.789 164.752 205.707ZM188.173 210.456H185.293V206.997C186.35 206.401 186.987 205.474 186.987 204.314C186.987 202.247 184.957 200.89 182.134 200.879C179.321 200.89 177.296 202.247 177.296 204.314C177.296 205.489 177.954 206.432 179.036 207.022V210.456H176.162V211.606H188.173V210.456ZM178.648 204.314C178.648 202.894 180.078 201.993 182.134 202.003C184.18 201.993 185.63 202.894 185.63 204.314C185.63 205.717 184.18 206.634 182.134 206.634C180.078 206.634 178.648 205.717 178.648 204.314ZM180.404 210.456V207.535C180.932 207.654 181.512 207.722 182.134 207.722C182.761 207.722 183.351 207.654 183.89 207.53V210.456H180.404ZM190.571 212.098C191.135 212.098 191.612 211.632 191.612 211.062C191.612 210.493 191.135 210.027 190.571 210.027C190.001 210.027 189.524 210.493 189.535 211.062C189.524 211.632 190.001 212.098 190.571 212.098Z" fill="#191919"/>
<g clip-path="url(#clip0_504_2421)">
<path d="M107.385 52.1184L107.948 50.9802C108.227 50.3707 108.604 49.8112 109.065 49.3252C109.502 48.9205 110.068 48.6879 110.657 48.6703L112.069 48.533C112.42 48.5004 112.768 48.4395 113.11 48.3511C113.458 48.2636 113.785 48.1045 114.071 47.8838C114.306 47.6728 114.496 47.4151 114.629 47.1272C114.736 46.9366 114.799 46.724 114.811 46.5062C114.824 46.2884 114.786 46.0713 114.701 45.8721C114.526 45.4732 114.214 45.1536 113.821 44.972C113.422 44.7664 112.972 44.677 112.522 44.7135C112.098 44.746 111.7 44.9459 111.416 45.27C111.093 45.639 110.65 45.8785 110.17 45.9442C109.659 45.9949 109.148 45.8728 108.718 45.5972C108.517 45.4817 108.336 45.3335 108.183 45.1585C108.029 44.9869 107.914 44.7833 107.844 44.5616C107.775 44.3291 107.753 44.0844 107.779 43.8417C107.808 43.5569 107.897 43.2808 108.04 43.0318C108.33 42.4725 108.761 41.9995 109.289 41.6615C109.841 41.3107 110.455 41.0736 111.095 40.9642C111.801 40.8458 112.52 40.8437 113.223 40.9581C113.997 41.0821 114.746 41.3244 115.445 41.6767C116.159 42.0213 116.819 42.4684 117.404 43.0041C117.923 43.4768 118.34 44.0511 118.633 44.693C118.909 45.3212 119.035 46.008 119.001 46.6986C118.952 47.4895 118.737 48.2631 118.37 48.9681C118.106 49.5299 117.756 50.0476 117.335 50.5023C116.948 50.9037 116.487 51.224 115.978 51.4446C115.487 51.6447 114.98 51.7989 114.463 51.9052C113.892 52.0264 113.305 52.1233 112.707 52.1985C112.428 52.2182 112.16 52.3248 111.941 52.5036C111.758 52.6774 111.609 52.8837 111.5 53.112L111.085 53.952L107.385 52.1184ZM105.909 54.8255C106.02 54.5649 106.183 54.3299 106.389 54.1357C106.594 53.9416 106.837 53.7925 107.101 53.6982C107.678 53.5726 108.277 53.6457 108.803 53.9057C109.328 54.1657 109.75 54.5976 110 55.1323C110.144 55.6739 110.086 56.2532 109.835 56.7597C109.585 57.2661 109.16 57.6642 108.642 57.878C108.065 58.0035 107.466 57.9305 106.94 57.6705C106.415 57.4105 105.993 56.9786 105.743 56.4439C105.659 56.1786 105.631 55.898 105.659 55.6196C105.688 55.3411 105.773 55.0708 105.909 54.8255Z" fill="#FFB50F"/>
</g>
<path d="M155.858 142H177.715V97.665L155.858 89.416V142Z" fill="#98B0D8" fill-opacity="0.5"/>
<path d="M121.858 85.3711H152.215V142H121.858V85.3711Z" fill="#98B0D8" fill-opacity="0.5"/>
<path d="M165.571 104.787H185V142.001H165.571V104.787Z" fill="#A2B7DE"/>
<path d="M99.999 78.0234H117.781V141.482H99.999V78.0234Z" fill="#98B0D8" fill-opacity="0.5"/>
<path d="M104.203 70V82.2636" stroke="#CEDCF3" stroke-opacity="0.4" stroke-width="1.42" stroke-miterlimit="10"/>
<path d="M130.357 95.0781H158.285V141.999H130.357V95.0781Z" fill="#A2B7DE"/>
<path d="M104.248 142H125.727V98.0068L104.248 104.931V142Z" fill="#A2B7DE"/>
<g clip-path="url(#clip1_504_2421)">
<path d="M65.942 85.0615L53.6867 90.0893C52.1697 90.711 50.8951 91.8131 50.0558 93.2288C49.2165 94.6445 48.8581 96.2968 49.0348 97.9358L57.2218 143H97.5587L98.1953 89.9825L82.433 85.1543L65.942 85.0615Z" fill="#FFB50F"/>
<path d="M96.5391 121.163C96.5391 121.163 72.5536 132.478 64.2131 132.497C57.7546 132.514 55.2779 123.895 55.2779 123.895L96.5391 121.163Z" fill="#CD9518"/>
<path d="M97.5657 89.6738L97.7193 89.7104C99.5062 90.1295 101.123 91.09 102.35 92.4624C103.578 93.8347 104.358 95.553 104.585 97.3855L105.965 108.517L96.5382 95.5475L97.5657 89.6738Z" fill="#FFB50F"/>
<path d="M70.7192 69.2061C70.7192 69.2061 69.0996 82.3304 65.936 85.0761C65.936 85.0761 71.7327 94.7297 78.3951 94.5414C85.0574 94.3531 88.168 87.0631 88.168 87.0631L82.4327 85.1689L83.0889 79.4892L70.7192 69.2061Z" fill="#FCC8B3"/>
<path d="M74.1341 77.2877C74.3938 80.8681 79.1322 89.5465 82.899 93.1803C86.4731 91.0276 88.168 87.0453 88.168 87.0453L82.4327 85.1567L83.0917 79.4742L78.0237 75.2586L76.7588 74.9102L74.1341 77.2877Z" fill="#FCA886"/>
<path d="M98.9741 113.817C98.189 113.38 97.2989 113.17 96.4025 113.21C90.0864 113.491 63.8168 114.635 60.9855 115.804C57.7772 117.13 54.6471 121.315 55.2893 123.895C55.9315 126.475 60.7956 129.482 65.3414 128.751C69.8872 128.021 96.5253 121.163 96.5253 121.163C96.5253 121.163 98.7256 124.193 100.552 123.842C102.378 123.49 108.23 118.971 108.23 118.971L98.9741 113.817Z" fill="#FCC8B3"/>
<path d="M69.4404 51.4694C69.9123 51.3767 70.0239 50.0305 70.0379 49.8226C69.2477 49.5078 68.1699 49.1706 68.1699 49.1706C69.337 48.2685 71.0626 48.7631 71.0626 48.7631C71.1269 47.1499 73.545 45 73.545 45C73.2266 45.3513 72.3918 47.4984 72.4616 49.0582C73.3579 49.1678 74.7875 48.7771 76.7309 47.2033C80.4502 44.2075 85.6662 47.1499 85.9454 49.8451C86.1436 51.6662 87.7799 52.6385 89.5753 52.7397C91.3707 52.8409 94.8415 53.6728 95.0286 57.6663C95.3357 64.1666 90.6252 63.4781 90.6252 63.4781L67.1982 65.5493C67.1982 65.5493 64.0904 60.6621 64.0904 57.0059C64.0904 53.3496 68.9322 51.5706 69.4404 51.4694Z" fill="#395D6C"/>
<path d="M90.625 61.8005C89.913 68.5454 87.9277 80.3067 84.8171 81.8609C82.3041 83.1115 73.8659 78.9774 72.1403 77.19C70.4146 75.4027 71.2216 65.8334 71.2216 65.8334L75.2871 53.3076L90.625 61.8005Z" fill="#FCC8B3"/>
<path d="M80.4915 68.4626C80.0824 68.4325 79.7906 67.8597 79.8397 67.1833C79.8888 66.5068 80.2603 65.9828 80.6694 66.0129C81.0785 66.043 81.3703 66.6158 81.3212 67.2922C81.2721 67.9687 80.9006 68.4927 80.4915 68.4626Z" fill="black"/>
<path d="M88.0852 69.237C87.6761 69.2069 87.3843 68.6341 87.4334 67.9577C87.4825 67.2812 87.854 66.7572 88.2631 66.7873C88.6722 66.8174 88.9641 67.3902 88.915 68.0667C88.8658 68.7431 88.4944 69.2671 88.0852 69.237Z" fill="black"/>
<path d="M83.8631 63.1967L79.133 62.9775C79.0325 62.9706 78.9331 63.0026 78.8551 63.0669C78.7771 63.1312 78.7264 63.2229 78.7133 63.3235C78.7001 63.4241 78.7255 63.526 78.7843 63.6084C78.843 63.6908 78.9308 63.7476 79.0297 63.7672L83.6537 64.7901C83.7584 64.8186 83.8677 64.8254 83.9751 64.8101C84.0825 64.7947 84.1857 64.7577 84.2784 64.701C84.3711 64.6444 84.4514 64.5694 84.5145 64.4807C84.5776 64.3919 84.6221 64.2911 84.6454 64.1845C84.6687 64.0779 84.6702 63.9676 84.6499 63.8604C84.6296 63.7532 84.5878 63.6512 84.5272 63.5607C84.4666 63.4702 84.3884 63.393 84.2973 63.3338C84.2061 63.2746 84.1041 63.2347 83.9971 63.2163C83.9532 63.2055 83.9083 63.1989 83.8631 63.1967Z" fill="#395D6C"/>
<path d="M87.5731 65.3271L90.4352 65.2596C90.53 65.2547 90.62 65.2161 90.6893 65.1507C90.7586 65.0854 90.8026 64.9975 90.8137 64.9025C90.8247 64.8076 90.802 64.7118 90.7496 64.6321C90.6972 64.5524 90.6185 64.494 90.5273 64.4671L87.7602 63.7308C87.6577 63.7037 87.5509 63.6971 87.4459 63.7115C87.3409 63.726 87.2398 63.7611 87.1483 63.8148C87.0567 63.8686 86.9766 63.9399 86.9125 64.0249C86.8484 64.1098 86.8015 64.2066 86.7746 64.3097C86.7476 64.4129 86.7411 64.5204 86.7554 64.6261C86.7698 64.7317 86.8046 64.8336 86.858 64.9257C86.9114 65.0178 86.9824 65.0984 87.0667 65.163C87.1511 65.2275 87.2473 65.2747 87.3497 65.3018C87.4226 65.3213 87.4978 65.3298 87.5731 65.3271Z" fill="#395D6C"/>
<path d="M86.5352 75.3885C85.812 74.3403 82.6846 74.048 80.7468 74.981" stroke="black" stroke-width="0.5" stroke-miterlimit="10" stroke-linecap="round"/>
<path d="M92.4089 113.392C92.5345 115.5 92.7914 118.971 93.2661 122.003C95.2793 121.489 96.5358 121.16 96.5358 121.16C96.5358 121.16 98.7389 124.187 100.565 123.839C101.827 123.597 105.033 121.357 106.867 120L105.817 117.619L98.9735 113.811C98.1876 113.376 97.2979 113.167 96.4018 113.207L92.4089 113.392Z" fill="#FCA886"/>
<path d="M90.4462 63.3714C87.7796 63.4417 84.0044 61.6037 83.1249 60.2126C82.2453 58.8215 79.6011 55.716 77.4008 56.0336C75.2005 56.3512 74.8207 58.0598 74.7565 60.4009C74.6922 62.7419 74.1282 67.0923 71.7995 67.23C69.4707 67.3677 67.8373 57.9334 67.8373 57.9334L74.695 49.7637L91.5547 57.9952L92.3086 62.0478L90.4462 63.3714Z" fill="#395D6C"/>
<path d="M65.9422 66.5812C65.9422 68.4585 67.4779 69.2791 69.0388 69.9789C72.342 71.4628 72.1382 68.4585 72.1382 66.5812C72.1382 64.7039 70.742 63.1807 69.0388 63.1807C67.3355 63.1807 65.9422 64.7095 65.9422 66.5812Z" fill="#FCC8B3"/>
<path d="M70.4062 65.4116C70.2481 65.1968 70.0429 65.0217 69.8066 64.8998C69.5702 64.778 69.3092 64.7127 69.0436 64.709C68.7981 64.7198 68.5571 64.7793 68.3346 64.8842C68.112 64.989 67.9122 65.1371 67.7466 65.3199C67.5811 65.5027 67.453 65.7167 67.3699 65.9494C67.2868 66.1822 67.2502 66.4292 67.2622 66.6762C67.2622 67.4856 67.7592 67.9521 68.3791 68.3062" stroke="#FCA886" stroke-width="0.6" stroke-miterlimit="10" stroke-linecap="round"/>
<path d="M93.8116 82.0233C94.5468 82.538 95.1265 83.247 95.487 84.0721C98.0558 89.8896 108.759 114.061 108.974 117.136C109.225 120.618 106.896 125.303 104.319 125.873C101.742 126.444 96.8943 123.403 95.5093 118.971C94.1243 114.539 89.6456 86.5508 89.6456 86.5508C89.6456 86.5508 84.667 86.86 84.1644 85.0613C83.6618 83.2627 85.0718 75.9727 85.0718 75.9727L93.8116 82.0233Z" fill="#FCC8B3"/>
<path d="M85.0506 84.7327L84.6374 85.3538L83.6406 86.8517C83.6406 86.8517 86 88.0124 86 88.4283C86 88.8442 85.2852 89.6733 85.2852 89.6733L79.7007 86.9332L80.0832 85.6882L79.2763 83.9008C79.2212 83.7762 79.2011 83.6387 79.2184 83.5034C79.2356 83.3681 79.2894 83.2402 79.374 83.1336L80.0832 82.2427L79.8291 81.439C79.7894 81.3165 79.7827 81.1857 79.8097 81.0598C79.8367 80.9339 79.8964 80.8174 79.9827 80.7223C80.9712 79.6178 84.2632 76.0065 85.1037 75.9728C86.0754 75.9307 85.0506 84.7327 85.0506 84.7327Z" fill="#FCC8B3"/>
<path d="M66.4901 104.335L67.8359 114.854" stroke="#CD9518" stroke-width="1.42" stroke-miterlimit="10"/>
</g>
<path d="M86.3745 64C85.8752 64.5 85.875 65.5 86.3746 66.5" stroke="black" stroke-width="0.5" stroke-miterlimit="10" stroke-linecap="round"/>
<defs>
<filter id="filter0_d_504_2421" x="0" y="0" width="240" height="261" filterUnits="userSpaceOnUse" color-interpolation-filters="sRGB">
<feFlood flood-opacity="0" result="BackgroundImageFix"/>
<feColorMatrix in="SourceAlpha" type="matrix" values="0 0 0 0 0 0 0 0 0 0 0 0 0 0 0 0 0 0 127 0" result="hardAlpha"/>
<feOffset dx="2" dy="2"/>
<feGaussianBlur stdDeviation="6"/>
<feComposite in2="hardAlpha" operator="out"/>
<feColorMatrix type="matrix" values="0 0 0 0 0 0 0 0 0 0 0 0 0 0 0 0 0 0 0.15 0"/>
<feBlend mode="normal" in2="BackgroundImageFix" result="effect1_dropShadow_504_2421"/>
<feBlend mode="normal" in="SourceGraphic" in2="effect1_dropShadow_504_2421" result="shape"/>
</filter>
<clipPath id="clip0_504_2421">
<rect width="11.8911" height="18.1197" fill="white" transform="translate(110.035 39) rotate(26.3213)"/>
</clipPath>
<clipPath id="clip1_504_2421">
<rect width="60" height="98" fill="white" transform="matrix(-1 0 0 1 109 45)"/>
</clipPath>
</defs>
</svg>
