<svg width="240" height="261" viewBox="0 0 240 261" fill="none" xmlns="http://www.w3.org/2000/svg">
<g filter="url(#filter0_d_503_2324)">
<rect x="10" y="10" width="216" height="237" rx="10" fill="#FBFBFB"/>
</g>
<path d="M62.5503 178.916C59.7585 178.921 57.7126 180.304 57.7126 182.402C57.7126 184.365 59.427 185.67 61.8614 185.872V188.456H56.5783V189.606H68.5897V188.456H63.2392V185.877C65.6839 185.67 67.4036 184.365 67.4036 182.402C67.4036 180.304 65.3576 178.921 62.5503 178.916ZM59.0645 182.402C59.0645 180.977 60.5303 180.04 62.5503 180.045C64.5859 180.04 66.0465 180.977 66.0465 182.402C66.0465 183.873 64.5859 184.784 62.5503 184.795C60.5303 184.784 59.0645 183.873 59.0645 182.402ZM80.4503 178.118H79.0518V191.243H80.4503V178.118ZM69.5162 186.903L69.6665 188.068C72.0853 188.058 75.2086 188.011 78.047 187.56L77.9745 186.525C77.327 186.602 76.6485 186.664 75.9648 186.711V180.604H77.3374V179.465H69.8633V180.604H71.241V186.892C70.635 186.903 70.0549 186.903 69.5162 186.903ZM72.5877 186.866V180.604H74.6026V186.794C73.9241 186.83 73.2455 186.851 72.5877 186.866ZM89.1721 179.983V178.993H87.7063V179.983C87.6959 182.117 85.4325 184.126 82.9359 184.593L83.5575 185.753C85.6604 185.292 87.582 183.914 88.447 182.08C89.3016 183.924 91.2284 185.297 93.3313 185.753L93.9632 184.593C91.4459 184.142 89.1721 182.117 89.1721 179.983ZM82.506 189.518H94.5174V188.363H82.506V189.518ZM110.004 178.118H108.605V191.269H110.004V178.118ZM99.5826 183.707C99.5826 186.535 100.997 188.322 102.975 188.322C104.933 188.322 106.363 186.535 106.363 183.707C106.363 180.894 104.933 179.107 102.975 179.102C100.997 179.107 99.5826 180.894 99.5826 183.707ZM100.924 183.707C100.924 181.64 101.763 180.356 102.975 180.345C104.187 180.356 105.016 181.64 105.016 183.707C105.016 185.789 104.187 187.074 102.975 187.074C101.763 187.074 100.924 185.789 100.924 183.707ZM123.035 178.128H121.647V181.682H119.13V182.816H121.647V187.742H123.035V178.128ZM112.101 185.002L112.821 186.136C114.385 185.577 115.53 184.416 116.11 182.971C116.68 184.266 117.762 185.323 119.244 185.836L119.953 184.727C117.975 184.064 116.789 182.422 116.789 180.786V180.268H119.617V179.133H112.531V180.268H115.38V180.786C115.38 182.593 114.121 184.323 112.101 185.002ZM114.515 190.974H123.382V189.834H115.903V186.887H114.515V190.974ZM135.932 178.118H134.533V191.269H135.932V178.118ZM125.51 183.707C125.51 186.535 126.924 188.322 128.903 188.322C130.861 188.322 132.29 186.535 132.29 183.707C132.29 180.894 130.861 179.107 128.903 179.102C126.924 179.107 125.51 180.894 125.51 183.707ZM126.852 183.707C126.852 181.64 127.691 180.356 128.903 180.345C130.115 180.356 130.944 181.64 130.944 183.707C130.944 185.789 130.115 187.074 128.903 187.074C127.691 187.074 126.852 185.789 126.852 183.707ZM145.244 179.102C143.281 179.107 141.903 180.894 141.914 183.707C141.903 186.535 143.281 188.322 145.244 188.322C147.072 188.322 148.398 186.732 148.543 184.173H151.252V191.269H152.63V178.118H151.252V183.039H148.533C148.326 180.615 147.021 179.107 145.244 179.102ZM143.24 183.707C143.24 181.64 144.053 180.356 145.244 180.345C146.425 180.356 147.243 181.64 147.243 183.707C147.243 185.789 146.425 187.074 145.244 187.074C144.053 187.074 143.24 185.789 143.24 183.707ZM165.936 185.887H161.885V184.696H160.508V185.887H156.426V186.96H165.936V185.887ZM154.96 184.199H155.551C156.462 184.209 157.39 184.194 158.591 183.94L158.472 182.837C157.685 183.008 156.975 183.075 156.323 183.101V179.833H158.312V178.734H154.96V184.199ZM157.39 189.363C157.379 190.585 158.793 191.233 161.165 191.243C163.543 191.233 164.947 190.585 164.947 189.363C164.947 188.172 163.543 187.503 161.165 187.493C158.793 187.503 157.379 188.172 157.39 189.363ZM158.855 189.363C158.855 188.793 159.705 188.488 161.165 188.477C162.621 188.488 163.455 188.793 163.465 189.363C163.455 189.953 162.621 190.264 161.165 190.259C159.705 190.264 158.855 189.953 158.855 189.363ZM159.006 184.199H159.674C161.212 184.209 162.129 184.178 163.242 183.935L163.118 182.826C162.227 183.028 161.461 183.09 160.378 183.106V179.833H162.673V178.734H159.006V184.199ZM162.139 181.868H164.346V185.11H165.713V178.118H164.346V180.791H162.139V181.868ZM178.895 178.118H177.574V191.243H178.895V178.118ZM167.562 187.452L168.364 188.441C170.208 187.364 171.457 186.027 172.239 184.51H174.808V190.606H176.123V178.455H174.808V183.396H172.72C173.119 182.257 173.301 181.034 173.306 179.75H168.183V180.894H171.918C171.685 183.588 170.348 185.799 167.562 187.452ZM43.0148 205.676H37.5918V202.459H42.9579V201.34H36.2193V206.81H38.8608V209.291C37.6022 209.322 36.3746 209.327 35.2662 209.327L35.4371 210.482C37.9389 210.482 41.0518 210.441 43.9472 210.011L43.8384 208.985C42.6885 209.115 41.4661 209.193 40.2541 209.244V206.81H43.0148V205.676ZM44.6619 213.269H46.0501V200.118H44.6619V213.269ZM51.7211 201.102C49.7581 201.107 48.3803 202.894 48.3907 205.707C48.3803 208.535 49.7581 210.322 51.7211 210.322C53.5495 210.322 54.8755 208.732 55.0205 206.173H57.7294V213.269H59.1072V200.118H57.7294V205.039H55.0101C54.8029 202.615 53.4977 201.107 51.7211 201.102ZM49.7166 205.707C49.7166 203.64 50.5298 202.356 51.7211 202.345C52.902 202.356 53.7204 203.64 53.7204 205.707C53.7204 207.789 52.902 209.074 51.7211 209.074C50.5298 209.074 49.7166 207.789 49.7166 205.707ZM71.3511 200.118H69.9578V213.228H71.3511V206.515H73.3866V205.349H71.3511V200.118ZM61.1318 209.731L61.9087 210.809C66.2337 208.68 67.9067 205.292 67.917 201.506H61.7896V202.656H66.503C66.2078 205.717 64.426 208.089 61.1318 209.731ZM84.7086 201.382H75.3491V202.511H83.3205V202.666C83.3101 204.246 83.3101 206.106 82.8077 208.644L84.2062 208.799C84.7034 206.106 84.7034 204.293 84.7086 202.666V201.382ZM74.0905 211.472H86.0553V210.322H80.0159V205.691H78.6381V210.322H74.0905V211.472ZM95.2641 208.789V208.162H93.9226V208.789C93.9122 210.063 93.0006 211.425 91.3173 212.036L92.0114 213.051C93.2493 212.601 94.1194 211.731 94.5908 210.695C94.9948 211.772 95.7924 212.699 97.0562 213.171C98.2579 212.673 99.0452 211.705 99.4596 210.653C99.9154 211.731 100.796 212.606 102.091 213.051L102.78 212.036C101.07 211.472 100.169 210.156 100.18 208.789V208.162H98.8121V208.789C98.8121 209.794 98.2165 211.047 97.0148 211.824C95.8287 211.109 95.2641 209.918 95.2641 208.789ZM90.9806 203.956C90.9806 205.774 92.462 207.038 94.4768 207.038C96.4865 207.038 97.9627 205.774 97.9627 203.956C97.9627 202.123 96.4865 200.859 94.4768 200.859C92.462 200.859 90.9806 202.123 90.9806 203.956ZM92.3428 203.956C92.3325 202.806 93.2285 202.029 94.4768 202.04C95.7096 202.029 96.6004 202.806 96.6004 203.956C96.6004 205.101 95.7096 205.878 94.4768 205.883C93.2285 205.878 92.3325 205.101 92.3428 203.956ZM100.211 207.597H101.604V200.128H100.211V207.597ZM114.304 203.961H106.638V200.595H105.26V205.075H114.304V203.961ZM103.66 207.841H115.671V206.727H103.66V207.841ZM105.162 212.932H114.386V211.798H106.545V209.089H105.162V212.932ZM121.472 203.992V202.589H124.465V201.439H117.069V202.589H120.063V203.992C120.052 206.246 118.587 208.716 116.608 209.638L117.421 210.736C118.944 209.996 120.177 208.4 120.788 206.536C121.399 208.276 122.621 209.726 124.17 210.41L124.931 209.312C122.911 208.452 121.472 206.183 121.472 203.992ZM126.118 213.243H127.516V200.118H126.118V213.243ZM145.282 210.456H139.931V207.421H143.842V201.17H134.638V207.421H138.553V210.456H133.27V211.606H145.282V210.456ZM136 206.318V202.294H142.479V206.318H136ZM158.245 210.488H146.234V211.637H158.245V210.488ZM147.669 202.216H155.402V204.06H147.695V208.224H157.08V207.116H149.078V205.184H156.774V201.081H147.669V202.216ZM165.009 201.066H159.882V202.2H163.569C163.321 204.288 161.886 205.893 159.286 206.934L159.99 207.97C161.798 207.204 163.119 206.173 163.953 204.883H166.403V207.478H167.718V200.403H166.403V203.759H164.528C164.849 202.946 165.009 202.045 165.009 201.066ZM159.913 212.155L160.612 213.181C161.85 212.715 162.715 211.834 163.186 210.788C163.585 211.871 164.372 212.808 165.631 213.285C166.853 212.782 167.63 211.808 168.039 210.752C168.495 211.834 169.381 212.725 170.676 213.181L171.354 212.155C169.655 211.606 168.739 210.254 168.749 208.897V208.105H167.392V208.897C167.382 209.882 166.801 211.151 165.6 211.938C164.414 211.218 163.854 210.037 163.865 208.897V208.105H162.534V208.897C162.534 210.166 161.591 211.56 159.913 212.155ZM169.065 207.68H170.381V200.128H169.065V207.68ZM175.72 201.102C173.757 201.107 172.379 202.894 172.39 205.707C172.379 208.535 173.757 210.322 175.72 210.322C177.549 210.322 178.874 208.732 179.02 206.173H181.728V213.269H183.106V200.118H181.728V205.039H179.009C178.802 202.615 177.497 201.107 175.72 201.102ZM173.716 205.707C173.716 203.64 174.529 202.356 175.72 202.345C176.901 202.356 177.719 203.64 177.719 205.707C177.719 207.789 176.901 209.074 175.72 209.074C174.529 209.074 173.716 207.789 173.716 205.707ZM197.137 210.456H194.257V206.997C195.314 206.401 195.951 205.474 195.951 204.314C195.951 202.247 193.921 200.89 191.098 200.879C188.285 200.89 186.26 202.247 186.26 204.314C186.26 205.489 186.918 206.432 188 207.022V210.456H185.126V211.606H197.137V210.456ZM187.612 204.314C187.612 202.894 189.041 201.993 191.098 202.003C193.144 201.993 194.594 202.894 194.594 204.314C194.594 205.717 193.144 206.634 191.098 206.634C189.041 206.634 187.612 205.717 187.612 204.314ZM189.368 210.456V207.535C189.896 207.654 190.476 207.722 191.098 207.722C191.724 207.722 192.315 207.654 192.854 207.53V210.456H189.368ZM199.535 212.098C200.099 212.098 200.576 211.632 200.576 211.062C200.576 210.493 200.099 210.027 199.535 210.027C198.965 210.027 198.488 210.493 198.499 211.062C198.488 211.632 198.965 212.098 199.535 212.098Z" fill="#191919"/>
<g clip-path="url(#clip0_503_2324)">
<path d="M114.606 41.9929V41.0118C114.591 40.4941 114.659 39.9773 114.808 39.483C114.969 39.0529 115.275 38.698 115.668 38.484L116.581 37.9051C116.808 37.7623 117.023 37.6008 117.226 37.4224C117.432 37.2427 117.601 37.0205 117.721 36.7698C117.809 36.5429 117.852 36.2994 117.845 36.0546C117.854 35.8858 117.825 35.7172 117.761 35.562C117.696 35.4069 117.598 35.2694 117.473 35.1606C117.221 34.9443 116.901 34.83 116.574 34.8387C116.234 34.8333 115.899 34.9253 115.606 35.1047C115.329 35.2727 115.126 35.5473 115.043 35.8691C114.947 36.2352 114.727 36.553 114.423 36.7631C114.093 36.9732 113.706 37.0636 113.322 37.0201C113.147 37.009 112.974 36.9682 112.812 36.8994C112.65 36.8334 112.503 36.732 112.382 36.6021C112.257 36.4647 112.16 36.3029 112.096 36.1261C112.02 35.9187 111.988 35.697 112.001 35.4757C112.01 34.9892 112.143 34.5139 112.388 34.0989C112.645 33.6669 112.982 33.2923 113.38 32.9971C113.819 32.6733 114.306 32.4257 114.821 32.264C115.388 32.0847 115.977 31.9958 116.57 32.0003C117.17 31.9944 117.767 32.078 118.344 32.2484C118.855 32.3981 119.331 32.6527 119.745 32.9971C120.143 33.3374 120.459 33.7699 120.668 34.2599C120.899 34.8246 121.013 35.434 121.001 36.0479C121.01 36.5274 120.947 37.0056 120.814 37.4648C120.686 37.8754 120.48 38.2553 120.209 38.5823C119.944 38.889 119.651 39.1696 119.336 39.4205C118.99 39.6998 118.624 39.968 118.243 40.2251C118.06 40.3344 117.915 40.5 117.826 40.6989C117.76 40.8818 117.728 41.0759 117.731 41.271V41.9952L114.606 41.9929ZM114.513 44.3732C114.501 44.1548 114.533 43.9361 114.607 43.7313C114.681 43.5265 114.796 43.3401 114.944 43.1842C115.293 42.8996 115.724 42.745 116.168 42.745C116.611 42.745 117.042 42.8996 117.391 43.1842C117.671 43.5098 117.826 43.9311 117.826 44.3676C117.826 44.8042 117.671 45.2254 117.391 45.5511C117.042 45.8356 116.611 45.9903 116.168 45.9903C115.724 45.9903 115.293 45.8356 114.944 45.5511C114.798 45.396 114.684 45.2113 114.61 45.0087C114.536 44.806 114.503 44.5897 114.513 44.3732Z" fill="#FFB50F"/>
</g>
<path d="M138.089 73.9971C141.205 79.3755 138.45 86.9502 141.109 89.3581C143.767 91.7661 151.192 94.9069 149.359 102.087L137.028 92.8371L134.826 82.5757L138.089 73.9971Z" fill="#612C1E"/>
<path d="M112.288 83.9473C112.288 83.9473 116.58 91.4781 109.715 93.726C102.851 95.9739 94.2296 100.338 96.862 108.083C99.4945 115.828 144.963 119.465 144.963 119.465C144.963 119.465 148.976 112.176 146.261 105.585C143.545 98.9935 138.979 94.1467 136.951 89.2844C134.924 84.4221 112.288 83.9473 112.288 83.9473Z" fill="#612C1E"/>
<path d="M136.975 79.4502C136.975 79.4502 136.025 88.6095 139.325 91.4485C142.417 94.1093 151.942 98.3134 149.268 105.369C147.191 110.828 152.399 115.337 154.001 113.858C154.001 113.858 149.691 117.884 145.631 112.807C141.57 107.731 134.236 84.4802 134.236 84.4802L136.975 79.4502Z" fill="#612C1E"/>
<path d="M138.357 94.5254C138.785 95.5168 139.424 96.4039 140.231 97.125C141.038 97.8461 141.993 98.3839 143.03 98.7012C146.042 99.5967 145.045 102.056 145.04 106.931C145.035 111.807 146.597 113.642 147.636 113.995" stroke="#3D1811" stroke-miterlimit="10"/>
<path d="M136.732 96.7861C137.511 100.048 138.747 99.6896 139.515 101.432C140.284 103.174 139.515 107.109 139.515 107.109" stroke="#3D1811" stroke-miterlimit="10"/>
<path d="M112.205 82.9082C112.205 82.9082 112.942 92.736 107.249 94.6793C101.555 96.6227 113.96 98.228 113.96 98.228L118.892 89.6777L112.205 82.9082Z" fill="#612C1E"/>
<path d="M103.028 105.238L122.255 100.268L139.158 106.255L136.336 152.71L101.605 152.857L103.028 105.238Z" fill="#5C96AE"/>
<path d="M105.316 105.337L103.346 105.907C101.647 106.398 100.091 107.283 98.8038 108.489C97.517 109.695 96.5368 111.188 95.9441 112.845L88 137.582H100.363L106.375 120.969L105.316 105.337Z" fill="#5C96AE"/>
<path d="M135.934 105.238L137.907 105.809C139.605 106.299 141.162 107.184 142.448 108.39C143.735 109.597 144.715 111.089 145.308 112.746L146.248 132.876L132.787 138.162L134.864 120.87L135.934 105.238Z" fill="#5C96AE"/>
<path d="M96.3867 105.47C96.7813 110.704 101.46 114.173 106.54 114.206C110.403 114.23 105.263 119.038 100.875 118.937C100.875 118.937 108.368 122.909 111.548 117.773C114.728 112.637 114.341 105.29 114.341 105.29L114.661 101.971L96.3867 105.47Z" fill="#612C1E"/>
<path d="M115.474 92.8379L114.348 105.587C114.895 107.112 115.904 108.432 117.236 109.365C118.567 110.298 120.156 110.799 121.786 110.799C123.415 110.799 125.004 110.298 126.335 109.365C127.667 108.432 128.676 107.112 129.223 105.587C128.652 102.163 128.082 98.7402 127.513 95.3181L115.474 92.8379Z" fill="#FCC8B3"/>
<path d="M115.234 95.55C116.709 104.232 129.124 104.996 129.124 104.996L127.511 95.3203L115.234 95.55Z" fill="#FCA886"/>
<path d="M136.353 91.8205L112.209 83.9748L114.231 75.4968C115.735 69.1919 122.464 65.38 129.26 66.9801H129.276C136.072 68.5802 140.364 74.9807 138.861 81.2934L136.353 91.8205Z" fill="#612C1E"/>
<path d="M113.282 84.6869C114.79 84.6869 116.013 83.4713 116.013 81.9719C116.013 80.4724 114.79 79.2568 113.282 79.2568C111.774 79.2568 110.551 80.4724 110.551 81.9719C110.551 83.4713 111.774 84.6869 113.282 84.6869Z" fill="#FCC8B3"/>
<path d="M124.34 71.9004L129.623 73.3786C130.572 73.6441 131.458 74.0927 132.233 74.6989C133.007 75.3051 133.654 76.057 134.136 76.9116C134.618 77.7662 134.926 78.7069 135.042 79.6799C135.159 80.6528 135.081 81.639 134.814 82.5822L132.732 89.9357C131.906 92.8513 129.95 95.3214 127.292 96.8027C124.635 98.284 121.494 98.6552 118.561 97.8346C116.261 97.1909 114.312 95.6651 113.143 93.5928C111.974 91.5205 111.681 89.0715 112.329 86.7845L115.082 77.061C115.621 75.1562 116.899 73.5424 118.636 72.5746C120.372 71.6068 122.424 71.3643 124.34 71.9004Z" fill="#FCC8B3"/>
<path d="M128.654 87.1722C129.223 87.1722 129.684 86.7135 129.684 86.1476C129.684 85.5818 129.223 85.123 128.654 85.123C128.084 85.123 127.623 85.5818 127.623 86.1476C127.623 86.7135 128.084 87.1722 128.654 87.1722Z" fill="black"/>
<path d="M118.99 83.9339C119.559 83.9339 120.02 83.4752 120.02 82.9094C120.02 82.3435 119.559 81.8848 118.99 81.8848C118.42 81.8848 117.959 82.3435 117.959 82.9094C117.959 83.4752 118.42 83.9339 118.99 83.9339Z" fill="black"/>
<path d="M129.91 90.1085C130.085 89.4914 129.389 88.7571 128.357 88.4685C127.325 88.1799 126.346 88.4461 126.172 89.0633C125.997 89.6804 126.692 90.4146 127.725 90.7033C128.757 90.9919 129.735 90.7256 129.91 90.1085Z" fill="#F48773"/>
<path d="M119.329 87.1697C119.505 86.5509 118.808 85.8144 117.772 85.5248C116.737 85.2352 115.756 85.502 115.581 86.1208C115.406 86.7396 116.103 87.476 117.138 87.7656C118.173 88.0553 119.154 87.7884 119.329 87.1697Z" fill="#F48773"/>
<path d="M123.92 71.6926C130.776 78.253 134.216 86.6381 134.216 86.6381C134.216 86.6381 138.11 80.7306 135.348 76.0206C131.376 69.2537 123.92 71.6926 123.92 71.6926Z" fill="#612C1E"/>
<path d="M114.23 80.0927C116.128 76.5338 118.966 72.4096 123.379 71.6896L122.894 70.6572L115.391 72.8225L114.23 80.0927Z" fill="#612C1E"/>
<path d="M122.497 137.483L94.397 132.91C91.0506 132.466 88.0288 135.261 88.0002 138.825C87.9742 142.077 90.4795 144.655 93.5715 144.56L120.774 144.16L122.497 137.483Z" fill="#FCC8B3"/>
<path d="M121.77 80.5923C121.77 80.5923 119.153 80.6336 118.164 79.9238" stroke="#612C1E" stroke-width="1.5" stroke-miterlimit="10" stroke-linecap="round"/>
<path d="M128.178 81.9709C128.178 81.9709 130.465 81.7283 131.387 82.9878" stroke="#612C1E" stroke-width="1.5" stroke-miterlimit="10" stroke-linecap="round"/>
<path d="M129.703 105.775L131.261 136.389C131.552 139.744 134.952 142.066 138.455 141.313C141.656 140.631 143.647 137.64 142.868 134.662L135.051 104.231L129.703 105.775Z" fill="#FCC8B3"/>
<path d="M135.05 104.231L135.457 96.282C135.47 96.0459 135.416 95.811 135.302 95.6039C135.187 95.3968 135.016 95.2258 134.808 95.1103C134.12 94.7309 132.916 94.3541 131.202 94.8522C129.126 95.4587 127.308 96.9453 126.467 97.6911C126.317 97.8292 126.202 98.0004 126.131 98.191C126.06 98.3816 126.036 98.5862 126.06 98.788C126.246 100.336 126.87 104.177 128.549 105.348C130.668 106.83 135.05 104.231 135.05 104.231Z" fill="#FCC8B3"/>
<path d="M119.668 90.9158C120.349 90.5556 121.129 90.4256 121.891 90.5452C122.653 90.6649 123.356 91.0277 123.892 91.579" stroke="black" stroke-width="0.5" stroke-miterlimit="10" stroke-linecap="round"/>
<path d="M122.499 137.482C122.499 137.482 125.095 133.175 127.262 132.863C129.43 132.55 132.343 134.522 132.343 134.522C132.343 134.522 131.676 135.782 130.723 135.825L129.77 135.869C129.77 135.869 133.755 137.898 133.54 138.708C133.457 138.962 133.322 139.197 133.143 139.396C132.965 139.596 132.746 139.756 132.501 139.867C132.501 139.867 133.602 140.213 133.54 140.858C133.477 141.503 132.317 142.063 132.317 142.063C132.317 142.063 133.355 142.579 133.205 143.183C133.054 143.787 132.317 144.001 132.317 144.001C132.317 144.001 132.665 143.692 132.665 144.556C132.665 145.421 131.842 145.896 131.842 145.896C131.842 145.896 125.705 147.795 120.762 144.154L122.499 137.482Z" fill="#FCC8B3"/>
<path d="M134.231 92.0756C135.739 92.0756 136.962 90.86 136.962 89.3605C136.962 87.8611 135.739 86.6455 134.231 86.6455C132.723 86.6455 131.5 87.8611 131.5 89.3605C131.5 90.86 132.723 92.0756 134.231 92.0756Z" fill="#FCC8B3"/>
<path d="M112.209 80.2578C112.209 80.2578 113.619 81.2901 113.754 82.4696" stroke="#FCA886" stroke-miterlimit="10" stroke-linecap="round"/>
<path d="M133.279 89.0385C133.279 89.0385 134.956 87.6345 135.945 88.4604" stroke="#FCA886" stroke-miterlimit="10" stroke-linecap="round"/>
<path d="M121.801 83.5146C122.27 83.9841 122.27 84.923 121.801 85.8618" stroke="black" stroke-width="0.5" stroke-miterlimit="10" stroke-linecap="round"/>
<path d="M93 54L164 54" stroke="#EBEBEB" stroke-width="6" stroke-linecap="round"/>
<path d="M93 54L117.483 54" stroke="#FFB50F" stroke-width="6" stroke-linecap="round"/>
<defs>
<filter id="filter0_d_503_2324" x="0" y="0" width="240" height="261" filterUnits="userSpaceOnUse" color-interpolation-filters="sRGB">
<feFlood flood-opacity="0" result="BackgroundImageFix"/>
<feColorMatrix in="SourceAlpha" type="matrix" values="0 0 0 0 0 0 0 0 0 0 0 0 0 0 0 0 0 0 127 0" result="hardAlpha"/>
<feOffset dx="2" dy="2"/>
<feGaussianBlur stdDeviation="6"/>
<feComposite in2="hardAlpha" operator="out"/>
<feColorMatrix type="matrix" values="0 0 0 0 0 0 0 0 0 0 0 0 0 0 0 0 0 0 0.15 0"/>
<feBlend mode="normal" in2="BackgroundImageFix" result="effect1_dropShadow_503_2324"/>
<feBlend mode="normal" in="SourceGraphic" in2="effect1_dropShadow_503_2324" result="shape"/>
</filter>
<clipPath id="clip0_503_2324">
<rect width="9" height="14" fill="white" transform="translate(112 32)"/>
</clipPath>
</defs>
</svg>
