<svg width="240" height="135" viewBox="0 0 240 135" fill="none" xmlns="http://www.w3.org/2000/svg">
<g clip-path="url(#clip0_477_3782)">
<path d="M0 14.1559H27.863C28.1698 14.1558 28.4727 14.0881 28.7502 13.9576C29.0276 13.8271 29.2727 13.6371 29.4678 13.401C29.6629 13.165 29.8033 12.8889 29.8788 12.5924C29.9543 12.296 29.9631 11.9866 29.9045 11.6863L27.5012 1.75293" fill="#A5C4D9"/>
<path d="M32.8729 116.821H155.854L139.801 34.666H16.8203L32.8729 116.821Z" fill="#2C7EA0"/>
<path d="M152.312 111.491L34.6985 111.962L20.0645 37.0666L41.3858 36.9814L63.9382 36.8913L137.678 36.5957L148.234 90.6241L149.85 98.8911L152.312 111.491Z" fill="white"/>
<path d="M147.905 88.9484C132.887 79.4959 63.9158 44.5127 63.9225 42.6476C63.9292 40.7307 63.9348 38.8144 63.9393 36.8986C63.9482 34.5777 63.9555 32.2572 63.9611 29.9374C63.9744 25.3734 63.9884 20.806 64.0029 16.2354L40.0957 16.2804C39.7637 16.2811 39.4358 16.3547 39.1355 16.4959C38.8351 16.6371 38.5697 16.8425 38.3579 17.0975C38.1461 17.3524 37.9931 17.6508 37.91 17.9713C37.8268 18.2918 37.8155 18.6267 37.8767 18.9521L41.3937 36.9855L46.4263 62.8517L47.3876 67.7875L53.1036 97.2087H149.518L147.905 88.9484Z" fill="#A5C4D9"/>
<path d="M94.6913 106.163H46.413C45.9228 106.163 45.448 105.993 45.0696 105.682C44.6911 105.371 44.4325 104.939 44.3379 104.46L38.4763 74.1806C38.4151 73.8552 38.4265 73.5203 38.5096 73.1998C38.5928 72.8793 38.7457 72.581 38.9575 72.326C39.1693 72.071 39.4348 71.8656 39.7351 71.7244C40.0354 71.5832 40.3633 71.5097 40.6953 71.509L64.6025 71.4639C64.5891 76.0279 64.5752 80.5952 64.5606 85.1659C64.5472 89.4021 95.9909 93.2375 95.9775 97.4737C95.9775 98.175 96.1048 99.8113 96.7797 103.69C96.8331 103.994 96.819 104.305 96.7386 104.603C96.6582 104.9 96.5134 105.177 96.3143 105.413C96.1152 105.648 95.8667 105.838 95.5863 105.967C95.3059 106.097 95.0004 106.164 94.6913 106.163Z" fill="#A5C4D9"/>
<path d="M74.5026 67.7725L47.3715 67.7825L46.4102 62.8467H72.2634L72.2903 63.0504C72.7611 64.7354 73.5086 66.3311 74.5026 67.7725Z" fill="#808BA8"/>
<path d="M200.858 120.545H33.4962L31.8867 111.058H199.247L200.858 120.545Z" fill="#1A556D"/>
<path d="M93.3437 120.545H33.4962L31.8867 111.058H91.7326L93.3437 120.545Z" fill="#2C7EA0"/>
<path d="M187.121 91.7111H57.1678L53.1501 71.1514L53.1216 70.9994L41.1152 9.55566H171.068L173.781 23.4414L177.858 44.305L178.357 46.8564L178.389 47.0234L187.121 91.7111Z" fill="#F2FBFF"/>
<path d="M146.402 55.5949L153.173 91.7101H171.183C171.277 91.5325 171.359 91.3484 171.426 91.1591C172.061 89.4109 172.215 87.4172 172.33 85.5754C172.461 83.4849 172.441 81.386 172.448 79.2921C172.461 75.0554 172.474 70.8187 172.486 66.5819C172.5 62.0179 172.514 57.4506 172.528 52.8799L148.621 52.925C148.289 52.9257 147.961 52.9993 147.661 53.1404C147.361 53.2815 147.095 53.4867 146.884 53.7415C146.672 53.9963 146.519 54.2944 146.436 54.6147C146.352 54.935 146.341 55.2696 146.402 55.5949Z" fill="#A5C4D9"/>
<path d="M162.784 98.5354H234.375C235.09 98.5352 235.795 98.3774 236.442 98.0732C237.088 97.769 237.66 97.3259 238.114 96.7758C238.569 96.2257 238.896 95.5822 239.071 94.8913C239.247 94.2004 239.268 93.4793 239.131 92.7797L230.193 47.0283H148.732L158.031 94.6165C158.243 95.7182 158.834 96.7119 159.701 97.427C160.569 98.142 161.658 98.5339 162.784 98.5354Z" fill="#F2FBFF"/>
<path d="M170.076 57.5586H166.902L167.294 59.5657H170.468L170.076 57.5586Z" fill="#B38D8D"/>
<path d="M171.234 63.0449H168.059L168.452 65.052H171.626L171.234 63.0449Z" fill="#B38D8D"/>
<path d="M172.43 68.6016H169.256L169.648 70.6086H172.823L172.43 68.6016Z" fill="#B38D8D"/>
<path d="M173.547 74.1074H170.373L170.765 76.1145H173.94L173.547 74.1074Z" fill="#B38D8D"/>
<path d="M174.777 80.2021H171.602L171.993 82.2092H175.169L174.777 80.2021Z" fill="#B38D8D"/>
<path d="M75.6942 21.4014H72.7031L73.0716 23.2932H76.0644L75.6942 21.4014Z" fill="#401D1D"/>
<path d="M77.1002 28.626H74.1074L74.4759 30.5178H77.4686L77.1002 28.626Z" fill="#401D1D"/>
<path d="M78.4811 35.7666H75.4883L75.8567 37.6584H78.8495L78.4811 35.7666Z" fill="#401D1D"/>
<path d="M79.8717 42.6572H76.8789L77.249 44.5491H80.2418L79.8717 42.6572Z" fill="#401D1D"/>
<path d="M81.2936 49.9463H78.3008L78.6709 51.8381H81.6637L81.2936 49.9463Z" fill="#401D1D"/>
<path d="M82.6081 56.8369H79.6152L79.9854 58.7287H82.9782L82.6081 56.8369Z" fill="#401D1D"/>
<path d="M84.0377 63.9766H81.0449L81.415 65.8684H84.4078L84.0377 63.9766Z" fill="#401D1D"/>
<path d="M79.4472 91.7111H79.278L63.877 9.55566H64.0461L79.4472 91.7111Z" fill="#CCB6B6"/>
<path d="M60.1307 17.2354L47.6621 17.2738L48.0306 19.1656L60.4991 19.1289L60.1307 17.2354Z" fill="#B38D8D"/>
<path d="M59.7862 31.7939L50.6387 31.8524L51.0071 33.7442L60.1547 33.6858L59.7862 31.7939Z" fill="#B38D8D"/>
<path d="M60.994 21.8369L48.5254 21.8753L48.8938 23.7672L61.3641 23.7304L60.994 21.8369Z" fill="#B38D8D"/>
<path d="M54.3742 26.805L49.3867 26.7783L49.7568 28.6702L54.7443 28.6969L54.3742 26.805Z" fill="#B38D8D"/>
<path d="M62.7198 37.3939L57.7324 37.3672L58.1025 39.259L63.09 39.2857L62.7198 37.3939Z" fill="#B38D8D"/>
<path d="M63.7238 42.5707L58.7363 42.5439L59.1064 44.4358L64.0939 44.4625L63.7238 42.5707Z" fill="#B38D8D"/>
<path d="M64.9542 48.3031L59.9668 48.2764L60.3352 50.1682L65.3227 50.1949L64.9542 48.3031Z" fill="#B38D8D"/>
<path d="M66.1105 53.7162L61.123 53.6895L61.4932 55.5813L66.4806 55.608L66.1105 53.7162Z" fill="#B38D8D"/>
<path d="M67.3254 59.4349L62.3379 59.4082L62.708 61.3L67.6955 61.3268L67.3254 59.4349Z" fill="#B38D8D"/>
<path d="M90.6674 21.3879L78.5605 21.291L78.929 23.1829L91.0375 23.2797L90.6674 21.3879Z" fill="#CCB6B6"/>
<path d="M113.206 42.2679L108.219 42.2412L108.589 44.133L113.576 44.1598L113.206 42.2679Z" fill="#CCB6B6"/>
<path d="M101.573 35.4291L96.5859 35.4023L96.9544 37.2942L101.943 37.3209L101.573 35.4291Z" fill="#CCB6B6"/>
<path d="M132.855 21.473L127.867 21.4463L128.237 23.3381L133.225 23.3648L132.855 21.473Z" fill="#CCB6B6"/>
<path d="M104.259 21.4197L93.3867 21.3896L93.7568 23.2832L104.629 23.3115L104.259 21.4197Z" fill="#CCB6B6"/>
<path d="M100.876 49.4684L94.0762 49.4316L94.4463 51.3235L101.246 51.3602L100.876 49.4684Z" fill="#CCB6B6"/>
<path d="M96.9929 63.6197L90.1934 63.583L90.5635 65.4748L97.363 65.5116L96.9929 63.6197Z" fill="#CCB6B6"/>
<path d="M116.251 49.5118L104.258 49.4316L104.626 51.3235L116.621 51.4036L116.251 49.5118Z" fill="#CCB6B6"/>
<path d="M132.753 42.1777L116.377 42.2061L116.747 44.098L133.123 44.0712L132.753 42.1777Z" fill="#CCB6B6"/>
<path d="M107.906 56.3291L87.1758 56.3558L87.5459 58.2477L108.276 58.2209L107.906 56.3291Z" fill="#CCB6B6"/>
<path d="M105.316 42.2361L94.4434 42.2061L94.8135 44.0979L105.686 44.1279L105.316 42.2361Z" fill="#CCB6B6"/>
<path d="M105.716 28.366L94.8438 28.3359L95.2122 30.2278L106.086 30.2578L105.716 28.366Z" fill="#CCB6B6"/>
<path d="M196.13 57.5854L177.064 57.5537L177.451 59.5307L196.517 59.5608L196.13 57.5854Z" fill="#D4C3C3"/>
<path d="M190.677 68.437L178.777 68.4053L179.163 70.3823L191.063 70.414L190.677 68.437Z" fill="#D4C3C3"/>
<path d="M183.543 62.8218L177.727 62.79L178.113 64.767L183.928 64.7988L183.543 62.8218Z" fill="#D4C3C3"/>
<path d="M205.098 57.4697L199.236 57.4864L199.623 59.4634L205.485 59.4451L205.098 57.4697Z" fill="#D4C3C3"/>
<path d="M202.317 73.9607L179.736 73.9307L180.123 75.9077L202.704 75.9377L202.317 73.9607Z" fill="#D4C3C3"/>
<path d="M211.286 73.8447L205.426 73.8614L205.811 75.8384L211.673 75.8217L211.286 73.8447Z" fill="#D4C3C3"/>
<path d="M200.411 68.3662L194.551 68.3829L194.936 70.3599L200.798 70.3432L200.411 68.3662Z" fill="#D4C3C3"/>
<path d="M193.356 79.9868L181.457 79.9551L181.842 81.9321L193.743 81.9621L193.356 79.9868Z" fill="#D4C3C3"/>
<path d="M209.98 79.8711L197.23 79.9312L197.616 81.9082L210.367 81.8481L209.98 79.8711Z" fill="#D4C3C3"/>
<path d="M192.645 62.6611L186.785 62.6778L187.17 64.6548L193.032 64.6381L192.645 62.6611Z" fill="#D4C3C3"/>
<path d="M125.35 21.4229L107.492 21.4546L107.861 23.3464L125.719 23.3147L125.35 21.4229Z" fill="#CCB6B6"/>
<path d="M148.913 47.1577L157.454 91.6885H157.287L148.732 47.0859C148.729 47.0685 148.731 47.0504 148.739 47.0346C148.748 47.0189 148.761 47.0063 148.777 46.9991C148.795 46.9942 148.813 46.9942 148.831 46.9991L178.358 46.8672L178.39 47.0342L148.913 47.1577Z" fill="#F7EFEB"/>
<path d="M97.9465 102.014H51.7901C50.8834 102.014 50.0048 101.7 49.305 101.125C48.6053 100.55 48.128 99.7504 47.9549 98.863L42.2607 69.7024L41.8906 67.8105V67.7988H96.0105L96.3454 69.532L101.787 97.3719C101.897 97.9365 101.881 98.5184 101.738 99.076C101.596 99.6335 101.332 100.153 100.965 100.596C100.598 101.04 100.137 101.397 99.6153 101.642C99.0933 101.888 98.5235 102.014 97.9465 102.014Z" fill="white"/>
<path d="M100.855 91.7553H100.688L95.9983 67.7659L52.4914 67.7842L52.4629 67.6323L96.0067 67.6139C96.0254 67.6092 96.045 67.6092 96.0636 67.6139C96.0826 67.6195 96.0999 67.6296 96.1142 67.6432C96.1285 67.6569 96.1393 67.6737 96.1457 67.6924L100.855 91.7553Z" fill="#F7EFEB"/>
<path d="M167.109 16.3565H168.952C169.588 16.3565 169.995 15.9441 169.873 15.3213L169.595 13.8185C169.551 13.588 169.428 13.38 169.246 13.2308C169.065 13.0816 168.837 13.0007 168.602 13.002L166.872 13.0136C166.235 13.0136 165.888 13.3777 166.011 14.0005L166.314 15.6268C166.411 16.1027 166.625 16.3565 167.109 16.3565Z" fill="#CCB6B6"/>
<path d="M169.364 15.7537L168.237 14.6266L169.085 13.6014H168.457L167.896 14.2827L167.207 13.5947L166.539 13.6081L167.586 14.6567L166.676 15.7604H167.303L167.929 15.0007L168.694 15.7671L169.364 15.7537Z" fill="#E8DFDF"/>
<path d="M161.806 16.5056H163.377C163.527 16.507 163.675 16.4748 163.811 16.4116C163.947 16.3484 164.067 16.2556 164.162 16.1402C164.257 16.0248 164.325 15.8896 164.361 15.7445C164.397 15.5994 164.4 15.4481 164.37 15.3017L164.112 13.9659C164.067 13.736 163.943 13.529 163.761 13.3801C163.58 13.2312 163.352 13.1496 163.117 13.1494H161.546C161.397 13.1497 161.249 13.1828 161.114 13.2465C160.979 13.3102 160.86 13.4029 160.765 13.5179C160.67 13.6329 160.601 13.7674 160.565 13.9118C160.528 14.0563 160.523 14.207 160.552 14.3533L160.811 15.6891C160.855 15.9199 160.978 16.128 161.16 16.2773C161.342 16.4265 161.571 16.5073 161.806 16.5056Z" fill="#CCB6B6"/>
<path d="M163.704 15.9196L163.963 15.9095L163.59 13.6904H163.087L161.078 13.7221H160.957L161.334 15.9529L161.836 15.9429L163.474 15.9162H163.55H163.717L163.704 15.9196ZM161.746 15.4637L161.536 14.2164L163.174 14.1897L163.385 15.437L161.746 15.4637Z" fill="#E8DFDF"/>
<path d="M92.707 74.1655H94.5493C95.1857 74.1655 95.5927 73.7531 95.4704 73.1286L95.1924 71.6258C95.1492 71.3948 95.0259 71.1862 94.844 71.0366C94.6621 70.8871 94.4333 70.806 94.1976 70.8076L92.4692 70.821C91.8311 70.821 91.4861 71.1833 91.6084 71.8062L91.9115 73.4325C92.0087 73.9101 92.2214 74.1655 92.707 74.1655Z" fill="#CCB6B6"/>
<path d="M94.9598 73.5613L93.8327 72.4342L94.6784 71.409H94.0521L93.491 72.0919L92.8027 71.4023L92.1328 71.4174L93.1812 72.466L92.2718 73.568H92.8982L93.5245 72.8083L94.2899 73.5763L94.9598 73.5613Z" fill="#F7EFEB"/>
<path d="M87.4 74.3126H88.9709C89.1208 74.3141 89.2691 74.2822 89.405 74.2192C89.5409 74.1562 89.6609 74.0636 89.7563 73.9484C89.8517 73.8331 89.92 73.698 89.9562 73.553C89.9924 73.408 89.9957 73.2568 89.9657 73.1104L89.7078 71.7746C89.6624 71.5447 89.5385 71.3376 89.357 71.1887C89.1756 71.0398 88.948 70.9583 88.713 70.9581H87.1421C86.9922 70.9565 86.8439 70.9885 86.708 71.0515C86.5721 71.1145 86.4521 71.207 86.3567 71.3223C86.2613 71.4376 86.193 71.5726 86.1568 71.7176C86.1205 71.8626 86.1173 72.0139 86.1473 72.1603L86.4069 73.4961C86.4504 73.7265 86.5736 73.9345 86.7551 74.0837C86.9365 74.2329 87.1648 74.3139 87.4 74.3126Z" fill="#CCB6B6"/>
<path d="M89.3007 73.7269H89.5603L89.1869 71.5078H88.6844L86.6747 71.5412H86.5508L86.9276 73.772L87.43 73.762L89.0696 73.7353H89.1433H89.3108L89.3007 73.7269ZM87.3429 73.2711L87.1319 72.0238L88.7715 71.997L88.9825 73.2443L87.3429 73.2711Z" fill="#F7EFEB"/>
<path d="M226.223 54.5342H228.065C228.703 54.5342 229.108 54.1218 228.988 53.499L228.71 51.9962C228.664 51.7663 228.54 51.5592 228.359 51.4103C228.177 51.2614 227.95 51.1799 227.715 51.1797L225.985 51.1914C225.348 51.1914 225.002 51.5537 225.124 52.1782L225.427 53.8045C225.526 54.2804 225.739 54.5342 226.223 54.5342Z" fill="#CCB6B6"/>
<path d="M228.476 53.9315L227.35 52.8044L228.196 51.7791H227.57L227.007 52.4604L226.319 51.7725L225.65 51.7858L226.699 52.8344L225.788 53.9381H226.414L227.04 53.1784L227.807 53.9448L228.476 53.9315Z" fill="#F7EFEB"/>
<path d="M220.914 54.6818H222.485C222.634 54.6818 222.782 54.6488 222.917 54.5853C223.052 54.5218 223.171 54.4293 223.266 54.3144C223.361 54.1995 223.43 54.0651 223.467 53.9208C223.503 53.7764 223.508 53.6257 223.479 53.4795L223.22 52.1437C223.176 51.9129 223.053 51.7048 222.871 51.5556C222.689 51.4063 222.461 51.3255 222.225 51.3272H220.654C220.504 51.3259 220.356 51.358 220.221 51.4211C220.085 51.4843 219.965 51.5769 219.87 51.6921C219.775 51.8073 219.706 51.9423 219.67 52.0872C219.634 52.2321 219.631 52.3832 219.661 52.5294L219.919 53.8652C219.964 54.0951 220.088 54.3022 220.27 54.4511C220.451 54.6 220.679 54.6815 220.914 54.6818Z" fill="#CCB6B6"/>
<path d="M222.818 54.0973L223.077 54.0873L222.702 51.8682H222.2L220.19 51.9016H220.076L220.451 54.1307H220.954L222.593 54.104H222.667H222.835L222.818 54.0973ZM220.86 53.6414L220.649 52.3925L222.289 52.3657L222.498 53.6147L220.86 53.6414Z" fill="#F7EFEB"/>
<path d="M96.4621 69.5325H96.3432L59.2925 69.6493L42.2568 69.7028L41.8867 67.8109L45.5678 67.7993L61.1046 67.7508L96.0937 67.6406L96.4621 69.5325Z" fill="#2C7EA0"/>
<path d="M171.438 11.4114H171.32L97.1209 11.4364L41.5088 11.4565L41.1387 9.56461L44.8198 9.55293L99.4321 9.5379L171.07 9.51953L171.438 11.4114Z" fill="#2C7EA0"/>
<path d="M230.564 48.9223L203.897 48.9156L167.238 48.9056L149.147 48.9006L148.777 47.0088L152.458 46.9971L168.178 47.0038L206.557 47.0221L230.244 47.0338L230.564 48.9223Z" fill="#1A556D"/>
<path d="M55.1382 78.4014H51.9629L52.3565 80.4084H55.5301L55.1382 78.4014Z" fill="#B38D8D"/>
<path d="M56.2691 83.6396H53.0938L53.4873 85.6467H56.661L56.2691 83.6396Z" fill="#B38D8D"/>
<path d="M57.41 88.6963H54.2363L54.6282 90.7033H57.8019L57.41 88.6963Z" fill="#B38D8D"/>
<path d="M81.1924 78.4282L62.127 78.3965L62.5138 80.3735L81.5793 80.4052L81.1924 78.4282Z" fill="#D4C3C3"/>
<path d="M82.1863 88.5291L63.7539 88.499L64.1408 90.4744L82.5732 90.5061L82.1863 88.5291Z" fill="#D4C3C3"/>
<path d="M76.0584 83.4148L62.873 83.3848L63.2599 85.3601L76.4436 85.3918L76.0584 83.4148Z" fill="#D4C3C3"/>
<path d="M90.1605 78.3135L84.2988 78.3302L84.6857 80.3072L90.5474 80.2905L90.1605 78.3135Z" fill="#D4C3C3"/>
<path d="M91.9205 88.459L86.0605 88.4757L86.4457 90.4527L92.3074 90.436L91.9205 88.459Z" fill="#D4C3C3"/>
<path d="M85.1608 83.2539L79.3008 83.2706L79.686 85.2476L85.5476 85.2309L85.1608 83.2539Z" fill="#D4C3C3"/>
<path d="M134.366 69.5072C133.334 68.1163 132.114 66.8523 130.893 65.6283C129.75 64.4846 128.226 63.3708 127.655 61.8029C127.18 60.4955 127.784 58.7974 126.798 57.6753C126.193 56.9873 125.168 56.645 124.366 56.2526C123.379 55.7662 122.388 55.2886 121.393 54.82C121.379 54.8125 121.363 54.8094 121.346 54.8109C121.33 54.8124 121.315 54.8186 121.302 54.8286C121.289 54.8386 121.279 54.8521 121.274 54.8674C121.268 54.8828 121.267 54.8993 121.271 54.9152C121.774 58.5118 122.132 62.6946 119.459 65.5849C119.448 65.5969 119.44 65.6119 119.437 65.6281C119.434 65.6443 119.436 65.6611 119.442 65.6763C119.449 65.6915 119.459 65.7045 119.473 65.7138C119.487 65.7231 119.503 65.7282 119.519 65.7285L126.888 66.4649C123.738 68.3551 119.841 67.764 116.687 66.171C115.145 65.3912 113.641 64.4144 112.425 63.1788C111.829 62.5741 111.318 61.8903 110.909 61.1467C110.531 60.4621 110.204 59.7408 109.705 59.133C108.918 58.1729 107.225 57.4933 106.267 58.617C106.198 58.6972 106.315 58.8157 106.386 58.7339C106.399 58.7172 106.414 58.7039 106.429 58.6872C106.932 61.3788 107.545 63.9987 109.332 66.161C110.96 68.1296 113.13 69.6675 114.388 71.9317C115.115 73.2408 115.43 74.7168 115.708 76.1729C115.961 77.6267 116.313 79.0616 116.763 80.4675C117.66 83.0794 119.031 85.5046 120.807 87.6224C121.928 88.9733 123.164 90.2773 124.189 91.71H126.769C127.131 91.695 127.491 91.71 127.853 91.71C128.255 91.7217 128.657 91.74 129.059 91.745C129.536 91.7593 130.013 91.7476 130.489 91.71C131.494 91.6148 132.525 91.3009 132.631 90.3241C132.74 89.3122 132.72 88.2719 132.762 87.2584C132.805 86.2131 132.848 85.1673 132.891 84.1209L133.147 77.8493C133.189 76.8358 133.113 75.7037 133.495 74.7436C133.854 73.8386 135.105 72.982 135.969 73.8268C135.981 73.8381 135.996 73.8457 136.012 73.8487C136.028 73.8517 136.044 73.85 136.06 73.8439C136.075 73.8377 136.088 73.8273 136.097 73.8139C136.107 73.8005 136.112 73.7847 136.113 73.7684C136.027 72.1821 135.297 70.7645 134.366 69.5072Z" fill="#DDCECE"/>
<path d="M131.297 130.413C131.296 130.4 131.292 130.388 131.285 130.377C131.279 130.365 131.269 130.356 131.258 130.348C131.247 130.341 131.235 130.337 131.222 130.335C131.209 130.333 131.196 130.334 131.183 130.338C130.757 130.507 130.303 130.597 129.843 130.602C129.843 130.589 129.843 130.576 129.843 130.564C129.843 130.454 129.676 130.467 129.676 130.575C129.622 132.167 127.567 132.957 126.372 133.414C125.851 133.613 125.166 133.748 124.725 134.109C124.374 134.392 124.35 134.504 124.374 134.92C124.375 134.943 124.386 134.964 124.403 134.979C124.421 134.994 124.443 135.002 124.466 135C126.502 134.865 131.483 134.227 131.542 134.165C131.697 133.998 131.642 133.608 131.644 133.402C131.661 132.394 131.481 131.399 131.297 130.413Z" fill="#401D1D"/>
<path d="M149.423 129.245C149.421 129.232 149.416 129.219 149.409 129.208C149.402 129.197 149.392 129.188 149.381 129.181C149.37 129.175 149.357 129.17 149.344 129.169C149.331 129.168 149.318 129.17 149.305 129.175C148.888 129.361 148.44 129.471 147.984 129.497C147.984 129.483 147.984 129.472 147.984 129.458C147.984 129.348 147.816 129.368 147.816 129.478C147.831 131.07 145.807 131.95 144.634 132.459C144.124 132.679 143.445 132.853 143.022 133.225C142.687 133.524 142.663 133.636 142.705 134.052C142.708 134.074 142.72 134.095 142.737 134.109C142.755 134.123 142.778 134.129 142.801 134.127C144.83 133.902 149.778 133.045 149.834 132.982C149.982 132.815 149.91 132.419 149.903 132.214C149.873 131.208 149.647 130.222 149.423 129.245Z" fill="#401D1D"/>
<path d="M149.919 129.911C149.92 129.924 149.919 129.937 149.915 129.949C149.911 129.962 149.905 129.973 149.896 129.983C149.888 129.993 149.877 130.001 149.866 130.007C149.854 130.012 149.841 130.016 149.828 130.016C149.212 130.055 148.065 130.183 147.449 130.228C147.426 130.227 147.405 130.22 147.387 130.207C147.368 130.194 147.354 130.176 147.346 130.155C147.043 129.524 146.697 127.685 146.4 127.051C145.585 125.309 143.97 124.932 143.295 123.14C142.458 120.933 141.242 116.77 139.927 111.65C138.74 107.019 139.311 99.2742 139.081 97.9685C138.514 99.6115 137.052 103.758 136.586 108.154C135.888 114.741 135.422 125.548 133 127.164C132.352 127.597 131.855 130.277 131.641 131.036C131.636 131.057 131.625 131.076 131.609 131.09C131.593 131.104 131.573 131.112 131.552 131.113C131.118 131.157 130.682 131.175 130.245 131.168H130.078C129.818 131.16 129.559 131.143 129.298 131.117C129.239 131.117 129.17 131.061 129.189 130.993C129.622 129.47 129.103 127.897 128.797 126.351C128.49 124.805 128.286 109.082 128.422 107.565C129.043 100.603 129.761 94.1347 131.26 82.6701C132.253 82.6518 133.225 82.5967 134.186 82.5232L134.354 82.5115C136.531 82.3445 138.678 82.0757 140.93 81.9304C141.656 81.8774 142.384 81.8903 143.108 81.9688C144.491 83.859 146.246 87.7162 146.546 89.4494C147.561 95.3369 146.221 103.178 147.176 111.156C147.914 117.334 149.987 123.75 149.919 129.911Z" fill="#FFB50F"/>
<path d="M144.199 93.6231C142.575 94.8318 141.062 96.1812 139.677 97.6556C139.605 97.7341 139.722 97.851 139.796 97.7725C141.173 96.307 142.677 94.966 144.291 93.7651C144.378 93.7049 144.286 93.5597 144.199 93.6231Z" fill="#D89330"/>
<path d="M134.356 82.5029C134.357 82.5062 134.357 82.5097 134.356 82.513C133.721 86.2399 133.145 89.9768 132.666 93.7271C131.785 100.39 131.291 107.098 131.187 113.818C131.12 119.603 131.308 125.458 130.248 131.165H130.08C130.644 128.142 130.86 125.065 130.943 121.991C131.03 118.732 130.976 115.469 131.048 112.208C131.12 108.868 131.309 105.529 131.592 102.206C132.152 95.6089 133.078 89.0451 134.188 82.5196C134.188 82.5046 134.188 82.4913 134.188 82.4762C134.21 82.3677 134.362 82.4044 134.356 82.5029Z" fill="#D89330"/>
<path d="M113.791 63.8851C113.355 63.6013 111.989 62.4308 111.917 61.9265C111.967 61.317 112.099 60.7193 111.896 60.1048C111.588 59.1731 111.227 58.2564 110.883 57.333C110.818 57.166 110.769 56.9055 110.548 56.9205C110.327 56.9356 110.292 57.1927 110.295 57.3747C110.305 57.8489 110.434 58.3198 110.463 58.794C110.48 59.0161 110.486 59.2399 110.49 59.4619C110.454 59.295 110.423 59.148 110.393 59.0094C110.326 59.3667 110.032 59.5654 109.639 59.8643C108.954 60.3853 108.467 61.1684 107.678 61.5341C107.986 62.2521 108.606 62.7246 108.858 62.9233C109.299 63.269 110.282 63.6847 110.771 63.9552C111.329 64.2658 112.595 65.4781 113.137 65.8137C113.148 65.8194 113.159 65.8227 113.171 65.8233C113.183 65.8239 113.195 65.8217 113.206 65.8171C113.216 65.8124 113.226 65.8053 113.234 65.7963C113.241 65.7873 113.247 65.7767 113.25 65.7653C113.39 65.3395 113.658 64.4946 113.807 64.0721C113.821 64.0625 113.831 64.049 113.836 64.0334C113.842 64.0179 113.842 64.0011 113.837 63.9853V63.9669C113.84 63.9585 113.841 63.9496 113.84 63.9407C113.839 63.9319 113.837 63.9233 113.832 63.9156C113.828 63.9079 113.822 63.9012 113.815 63.896C113.808 63.8907 113.799 63.887 113.791 63.8851Z" fill="#F28F68"/>
<path d="M110.514 59.1677C110.523 59.1535 110.528 59.137 110.528 59.1201C110.528 59.1032 110.523 59.0867 110.514 59.0725C109.95 58.1797 109.487 57.2278 109.132 56.2339C109.062 56.0352 108.764 54.7612 108.328 55.1185C108.137 55.2738 108.225 55.6846 108.258 55.8849C108.357 56.3543 108.514 56.8097 108.725 57.2408C109.089 58.1533 109.535 59.0313 110.057 59.864C110.066 59.8777 110.078 59.889 110.093 59.8969C110.108 59.9047 110.124 59.9088 110.141 59.9088C110.157 59.9088 110.173 59.9047 110.188 59.8969C110.203 59.889 110.215 59.8777 110.224 59.864L110.593 59.6452C110.685 60.0393 110.519 59.1877 110.514 59.1677Z" fill="#F28F68"/>
<path d="M110.022 60.1064C109.461 59.2081 108.536 57.4966 108.179 56.4981C108.109 56.2994 107.811 55.027 107.376 55.3827C107.185 55.5397 107.272 55.9504 107.303 56.1508C107.404 56.6199 107.561 57.0751 107.771 57.5066C108.289 58.6746 108.887 59.806 109.559 60.8929C109.569 60.9067 109.581 60.918 109.596 60.9258C109.61 60.9336 109.627 60.9377 109.643 60.9377C109.66 60.9377 109.676 60.9336 109.691 60.9258C109.705 60.918 109.718 60.9067 109.727 60.8929L110.008 60.2717C110.016 60.2502 110.016 60.2265 110.008 60.205C110.02 60.1918 110.028 60.1753 110.03 60.1577C110.032 60.1402 110.03 60.1223 110.022 60.1064Z" fill="#F28F68"/>
<path d="M109.552 61.0918C108.948 60.2235 107.939 58.5588 107.543 57.5853C107.464 57.3916 107.102 56.1343 106.685 56.5116C106.502 56.6786 106.61 57.0827 106.652 57.2814C106.774 57.7467 106.954 58.1953 107.186 58.6172C107.761 59.7584 108.414 60.8592 109.14 61.9116C109.15 61.9248 109.164 61.9353 109.179 61.9421C109.194 61.949 109.211 61.952 109.227 61.9508C109.244 61.9496 109.26 61.9444 109.274 61.9355C109.288 61.9266 109.3 61.9144 109.308 61.8999L109.559 61.2671C109.567 61.245 109.567 61.2207 109.559 61.1987C109.57 61.1827 109.575 61.1634 109.574 61.1441C109.573 61.1247 109.565 61.1063 109.552 61.0918Z" fill="#F28F68"/>
<path d="M106.36 57.9745C106.179 58.1415 106.285 58.5456 106.328 58.7443C106.451 59.2096 106.63 59.6581 106.862 60.0801C107.073 60.5125 107.405 61.1203 107.758 61.7214C107.932 61.5204 108.14 61.3509 108.371 61.2205C107.938 60.524 107.553 59.7987 107.219 59.0498C107.135 58.8545 106.775 57.5972 106.36 57.9745Z" fill="#F28F68"/>
<path d="M128.86 58.8277C128.473 58.4821 127.431 57.2114 127.353 56.7072C127.257 56.0393 127.199 55.8071 127.135 55.5032C126.946 54.6166 126.603 54.0756 126.343 53.2207C126.326 53.4044 126.286 53.775 126.261 53.9587C126.261 53.7917 126.242 53.6381 126.234 53.4962C126.113 53.8302 126.286 53.184 125.851 53.4211C125.094 53.8318 123.695 54.5164 122.859 54.7669C123.055 55.5216 123.903 56.9059 124.122 57.1396C124.506 57.547 125.413 58.1064 125.856 58.4487C126.358 58.8394 127.428 60.2287 127.914 60.6428C127.923 60.6498 127.934 60.6546 127.946 60.6568C127.957 60.6589 127.969 60.6585 127.98 60.6554C127.992 60.6524 128.002 60.6468 128.011 60.6391C128.02 60.6314 128.027 60.6218 128.031 60.6111C128.235 60.212 128.629 59.4172 128.84 59.0214C128.855 59.014 128.867 59.0021 128.875 58.9874C128.883 58.9728 128.886 58.9561 128.884 58.9396C128.883 58.9346 128.883 58.9296 128.884 58.9246C128.889 58.9168 128.893 58.9081 128.894 58.8988C128.896 58.8896 128.896 58.8801 128.894 58.8709C128.891 58.8618 128.887 58.8532 128.881 58.8458C128.876 58.8383 128.868 58.8322 128.86 58.8277Z" fill="#F28F68"/>
<path d="M125.86 54.2168C125.844 54.2129 125.829 54.2046 125.817 54.1928C125.805 54.181 125.797 54.1662 125.793 54.15C125.537 53.1244 125.17 52.1299 124.696 51.1845C124.6 50.9958 123.887 49.8988 124.446 49.8337C124.691 49.8053 124.929 50.1526 125.051 50.3146C125.32 50.7121 125.54 51.1404 125.706 51.5903C126.112 52.4852 126.438 53.4145 126.679 54.3671C126.694 54.4339 126.63 54.514 126.557 54.4873L126.143 54.6025C126.372 54.9381 125.872 54.2301 125.86 54.2168Z" fill="#F28F68"/>
<path d="M124.987 54.5131C124.674 53.5112 123.982 51.6845 123.458 50.7661C123.352 50.5825 122.583 49.5238 123.139 49.4303C123.382 49.3886 123.642 49.7226 123.766 49.8795C124.057 50.2619 124.299 50.6786 124.488 51.1201C125.034 52.2753 125.5 53.4664 125.883 54.6851C125.901 54.7519 125.841 54.8337 125.767 54.812L125.112 54.6183C125.089 54.6116 125.07 54.5968 125.057 54.5765C125.04 54.5741 125.025 54.5667 125.012 54.5554C125 54.5442 124.991 54.5294 124.987 54.5131Z" fill="#F28F68"/>
<path d="M123.908 54.6392C123.598 53.6373 122.913 51.8006 122.389 50.8872C122.285 50.7035 121.52 49.6433 122.076 49.5514C122.318 49.5097 122.578 49.8453 122.702 50.0022C122.99 50.3861 123.231 50.8032 123.419 51.2445C123.961 52.4017 124.423 53.5944 124.802 54.8145C124.807 54.8309 124.808 54.8484 124.804 54.8652C124.8 54.882 124.792 54.8975 124.78 54.9102C124.769 54.9228 124.754 54.9322 124.737 54.9374C124.721 54.9426 124.703 54.9434 124.687 54.9397L124.033 54.7444C124.011 54.7384 123.991 54.7241 123.978 54.7043C123.961 54.7013 123.946 54.6936 123.933 54.682C123.921 54.6705 123.912 54.6556 123.908 54.6392Z" fill="#F28F68"/>
<path d="M121.335 50.7776C121.577 50.7325 121.838 51.0632 121.968 51.2168C122.263 51.5968 122.511 52.0105 122.707 52.4491C122.923 52.8782 123.482 54.2223 123.749 54.8669C123.484 54.8833 123.225 54.9461 122.982 55.0522C122.655 54.229 121.992 52.6528 121.67 52.1084C121.563 51.9264 120.781 50.8778 121.335 50.7776Z" fill="#F28F68"/>
<path d="M138.182 65.643C137.474 64.4358 136.442 63.4189 135.467 62.4254C134.521 61.4619 133.484 60.5453 132.248 59.9658C130.908 59.3397 129.133 59.0091 128.371 57.6282C128.318 57.5137 128.234 57.4165 128.128 57.3477C127.39 57.9955 126.712 58.63 125.939 59.2345C126.522 60.0243 127.023 60.9777 127.067 61.9595C127.105 62.8629 127.179 63.6827 127.688 64.4542C128.165 65.1788 128.842 65.7499 129.483 66.326L131.376 68.0224C131.208 68.0692 130.657 68.2178 130.371 68.2863C130.379 68.2641 130.379 68.2399 130.371 68.2178C130.364 68.2065 130.358 68.1948 130.352 68.1827C130.34 68.1645 130.323 68.1507 130.302 68.1432C130.282 68.1357 130.26 68.1349 130.239 68.141C130.145 68.1644 130.128 68.1861 130.096 68.2762C130.091 68.2976 130.093 68.3202 130.101 68.3404C130.11 68.3606 130.125 68.3774 130.145 68.3881C130.326 68.5133 130.537 68.4265 130.741 68.3881C131.017 68.3313 131.289 68.2595 131.558 68.1811L131.938 68.515C131.954 68.531 131.975 68.5412 131.997 68.5441C132.02 68.5469 132.042 68.5421 132.062 68.5306C132.081 68.519 132.096 68.5013 132.104 68.4803C132.112 68.4593 132.113 68.4363 132.106 68.4148C132.069 68.2913 132.031 68.166 131.992 68.0408C132.635 67.8321 133.263 67.5783 133.886 67.3161C135.275 66.7284 136.653 66.1022 138.138 65.795C138.153 65.7893 138.165 65.7804 138.175 65.7691C138.186 65.7577 138.193 65.7442 138.197 65.7296C138.202 65.7149 138.202 65.6995 138.2 65.6845C138.197 65.6695 138.191 65.6553 138.182 65.643Z" fill="white"/>
<path d="M134.535 46.2455C134.244 45.9115 133.902 45.5776 133.686 45.1869C133.578 44.9509 133.423 44.7391 133.23 44.564C133.48 44.0233 133.873 43.5612 134.368 43.2282C135.076 42.7617 135.917 42.5394 136.764 42.5954C137.602 42.6288 138.32 42.9494 139.067 43.2733C139.772 43.5626 140.453 43.9053 141.105 44.2985C142.232 45.0082 143.246 46.0551 143.55 47.4561C143.708 48.1824 143.693 49.0457 143.182 49.6735C142.944 49.9251 142.761 50.2237 142.646 50.5501C142.542 50.8974 142.515 51.2598 142.398 51.6037C142.149 52.3384 141.403 52.6607 140.812 53.0798C140.563 53.2568 140.244 53.6475 139.844 54.4574C139.638 54.8748 139.31 54.1585 138.866 54.2787C138.813 53.5357 138.652 52.8044 138.387 52.108C137.891 50.8589 137.119 49.7374 136.128 48.8269C135.53 48.2964 134.963 47.7328 134.43 47.1388C134.369 47.0687 134.311 46.9969 134.252 46.9267C134.543 46.87 134.783 46.536 134.535 46.2455Z" fill="#CF5B28"/>
<path d="M132.364 51.3784C132.371 51.3833 132.379 51.3867 132.387 51.3882C132.396 51.3896 132.404 51.3893 132.412 51.387C132.42 51.3848 132.428 51.3807 132.435 51.3752C132.441 51.3696 132.446 51.3627 132.449 51.355C132.848 50.1344 133.133 48.8795 133.298 47.6064C133.299 47.5969 133.298 47.5874 133.294 47.5787C133.29 47.5701 133.283 47.5626 133.276 47.5571C133.268 47.5515 133.259 47.5481 133.249 47.547C133.24 47.546 133.23 47.5475 133.221 47.5513C133.221 47.5095 133.171 47.4761 133.136 47.5129C132.753 47.8902 131.394 49.2845 131.073 49.7721C130.545 50.5769 131.818 51.0528 132.364 51.3784Z" fill="#F28F68"/>
<path d="M141.061 49.7484C140.991 49.2692 140.706 48.8785 140.391 48.5328C140.038 48.1453 139.658 47.7822 139.256 47.4458C137.651 46.11 135.373 44.9278 133.317 44.5438C133.293 44.5438 133.275 44.5288 133.26 44.5438C133.248 44.5502 133.237 44.5593 133.229 44.5702C133.221 44.5812 133.216 44.5939 133.213 44.6072C133.191 44.679 133.081 45.1332 132.928 45.8011C132.856 46.11 132.774 46.469 132.689 46.8514C132.386 48.2022 132.019 49.9121 131.773 51.2312C131.773 51.2529 131.773 51.2729 131.761 51.293C131.76 51.3035 131.76 51.3141 131.761 51.3247C131.701 51.6436 131.65 51.9375 131.609 52.1946C131.609 52.2264 131.6 52.2564 131.595 52.2848C131.577 52.41 131.56 52.5252 131.547 52.6304C131.347 54.215 131.558 54.7026 132.217 55.2052C132.975 55.7796 134.841 55.636 135.685 55.2653C137.372 54.5256 138.852 54.0965 139.319 53.8727C139.81 53.6452 140.22 53.2727 140.492 52.8058C140.727 52.3831 140.886 51.9225 140.961 51.4449C141.081 50.8879 141.115 50.3157 141.061 49.7484Z" fill="#F28F68"/>
<path d="M132.55 48.9386C132.473 49.3994 132.6 49.8035 132.833 49.8419C133.066 49.8803 133.319 49.5397 133.396 49.0788C133.473 48.618 133.345 48.2122 133.113 48.1738C132.88 48.1354 132.627 48.4777 132.55 48.9386Z" fill="#401D1D"/>
<path d="M135.285 53.4972C136.586 52.8293 138.273 52.2766 139.64 51.7373C139.728 54.9499 140.201 58.1625 139.974 61.3718C138.635 61.5388 136.95 61.6924 135.62 61.9395C135.762 59.1277 135.407 56.3124 135.285 53.4972Z" fill="#F28F68"/>
<path d="M133.342 44.3974L133.375 44.3657C133.404 44.3423 133.395 44.3423 133.415 44.3123C133.559 44.2576 133.714 44.2337 133.868 44.2422C134.209 44.2466 134.55 44.2209 134.887 44.1653C135.433 44.0769 135.959 43.9984 136.5 44.1653C137.043 44.3506 137.552 44.6224 138.007 44.9702C138.473 45.2924 138.944 45.5946 139.428 45.8852C139.912 46.1515 140.362 46.4762 140.767 46.852C141.145 47.2399 141.428 47.7097 141.593 48.2245C141.941 49.2531 142.096 50.4069 141.622 51.4154C141.119 52.4857 140.191 53.3139 139.846 54.4627C139.843 54.4692 139.839 54.475 139.834 54.4797C139.828 54.4843 139.822 54.4877 139.815 54.4896C139.808 54.4915 139.801 54.4919 139.794 54.4907C139.787 54.4895 139.78 54.4868 139.774 54.4828C139.073 54.0653 138.9 53.2254 138.803 52.4791C138.768 51.9885 138.661 51.5058 138.485 51.0464C138.306 50.6489 138.042 50.2954 137.711 50.0112C137.132 49.5102 136.204 49.365 135.886 48.6069C135.726 48.2312 135.726 47.8121 135.671 47.413C135.619 47.021 135.499 46.641 135.318 46.2893C134.873 45.4706 134.132 44.8511 133.246 44.5561C133.263 44.5127 133.325 44.4342 133.342 44.3974Z" fill="#CF5B28"/>
<path d="M132.912 51.8225C132.6 51.7407 132.188 51.6706 131.877 51.5888L131.709 51.542C131.707 51.5622 131.703 51.5823 131.698 51.6021C131.698 51.6127 131.698 51.6233 131.698 51.6338C131.639 51.9528 131.589 52.2466 131.547 52.5038C131.748 52.4805 131.948 52.4436 132.145 52.3936C132.431 52.3201 132.796 52.235 132.967 51.9711C132.975 51.9581 132.98 51.9434 132.981 51.9283C132.982 51.9132 132.98 51.8979 132.975 51.8836C132.97 51.8694 132.961 51.8565 132.95 51.8459C132.939 51.8354 132.926 51.8274 132.912 51.8225Z" fill="#C95838"/>
<path d="M132.791 46.4844C132.727 46.7599 132.655 47.0772 132.578 47.4195C132.828 47.4299 133.077 47.4628 133.322 47.518C133.521 47.5862 133.726 47.6348 133.935 47.6632C134.151 47.6632 134.4 47.5614 134.437 47.3293C134.551 46.7148 133.392 46.5261 132.791 46.4844Z" fill="#CF5B28"/>
<path d="M140.296 50.3761C140.276 50.0148 140.151 49.6669 139.938 49.3743C139.576 48.8734 138.998 48.3724 138.413 48.1721C138.089 48.0687 137.749 48.0191 137.409 48.0251C137.323 47.6895 137.19 47.3679 137.013 47.07C136.678 46.519 135.908 45.5672 135.18 45.599C135.161 45.5888 135.139 45.5849 135.118 45.5879C135.097 45.5908 135.077 45.6005 135.062 45.6154C135.046 45.6303 135.036 45.6497 135.033 45.6708C135.029 45.6919 135.032 45.7135 135.042 45.7325C135.345 46.3286 135.369 46.9732 135.332 47.6294C135.305 48.0903 135.164 48.6646 135.349 49.1055C135.504 49.4761 135.878 49.6932 136.206 49.8919C136.553 50.0804 136.857 50.3386 137.099 50.65C137.343 51.4849 137.005 52.3197 136.817 53.1346C136.692 53.6773 136.568 54.2249 136.93 54.6741C137.054 54.8294 137.062 55.0598 137.184 55.2001C137.332 55.3671 137.663 55.2902 137.854 55.2969C138.279 55.3136 138.702 55.3804 139.125 55.4188C139.293 55.4338 139.685 55.5441 139.84 55.4088C139.996 55.2736 139.958 54.7927 139.993 54.6257C140.071 54.2636 140.226 53.9221 140.447 53.6238C140.837 53.0811 141.383 52.622 141.664 52.0042C142.157 50.9973 141.212 50.5181 140.296 50.3761Z" fill="#CF5B28"/>
<path d="M136.976 49.5749C136.523 49.2209 135.803 49.4847 135.601 49.9773C135.348 50.4782 135.087 51.3682 135.515 51.8141C135.991 52.315 136.714 51.612 136.998 51.238C137.344 50.7855 137.512 49.989 136.976 49.5749Z" fill="#F28F68"/>
<path d="M146.616 66.4059C146.616 66.6163 146.616 66.825 146.616 67.0321C146.59 68.2343 145.946 74.7998 145.684 76.8836C145.478 78.5534 145.271 80.2232 145.12 81.8929C145.102 82.0916 139.987 82.5976 137.453 82.6543C136.197 82.6827 134.881 82.7061 133.561 82.7963C133.047 82.7963 132.531 82.8063 132.018 82.8163C131.672 82.8241 131.326 82.838 130.978 82.858C130.556 81.1883 129.922 79.5619 129.716 77.8488C129.548 76.4428 129.662 75.0219 129.453 73.6193C129.389 73.1901 129.118 71.5371 129 71.1146C121.265 72.1849 123.243 72.0614 121.841 72.0213C119.55 71.9579 117.342 70.794 116.291 70.3215C115.209 69.8356 114.534 69.0758 113.804 68.1742C113.385 67.6566 112.976 66.3375 112.377 66.0336C111.812 65.7439 111.263 65.4263 110.73 65.0818C111.246 64.1801 111.735 63.2668 112.238 62.3534H112.265C112.675 62.3668 112.715 62.704 113.189 62.9562C113.643 63.2373 114.178 63.3617 114.71 63.3102C116.297 63.0296 117.247 63.2885 118.826 63.5757C120.856 63.9464 122.198 64.1818 123.745 63.771C125.292 63.3603 126.399 61.8374 127.8 61.1211C129.255 60.403 130.784 59.8432 132.36 59.4514C133.03 59.2694 133.72 59.1074 134.407 58.9504L134.979 58.8219C136.848 58.4044 140.339 58.548 141.477 58.4879C141.546 58.4879 141.606 58.4879 141.658 58.4746C142.908 58.3527 143.825 58.6232 144.505 59.0757C145.416 59.6868 145.884 60.6386 146.122 61.4234C146.183 61.6304 146.23 61.8258 146.266 62.0028C146.527 63.4554 146.645 64.9303 146.616 66.4059Z" fill="white"/>
<path d="M143.055 47.0091C143.05 46.8851 143.032 46.762 143.002 46.6418C142.972 46.5978 142.949 46.5493 142.935 46.4982C142.906 46.4425 142.89 46.3806 142.89 46.3178V46.2444C142.89 46.2327 142.89 46.2227 142.89 46.211C142.834 46.1562 142.771 46.1085 142.704 46.069C143.328 45.4262 143.039 44.264 142.553 43.551C141.843 42.5008 140.632 41.9497 139.388 41.8813C139.039 41.8643 138.69 41.8816 138.344 41.9331C137.9 41.9965 137.442 42.1568 137.021 41.9331C136.718 41.7661 136.596 41.4572 136.361 41.2234C136.184 41.0491 135.971 40.9152 135.737 40.831C135.496 40.742 135.238 40.7092 134.983 40.7352C134.728 40.7613 134.482 40.8455 134.265 40.9813C133.781 41.2885 133.625 41.7093 133.471 42.2269C133.283 42.8614 132.421 42.97 132.513 43.7698C132.551 44.0157 132.68 44.2387 132.874 44.3952C133.068 44.5517 133.314 44.6305 133.563 44.6164C133.597 44.6248 133.633 44.6248 133.667 44.6164H133.675C133.682 44.6342 133.694 44.6494 133.71 44.6597C133.726 44.6699 133.745 44.6746 133.764 44.6731C134.909 44.6447 136.129 45.1206 137.125 45.6499C138.122 46.1792 138.875 46.9006 139.703 47.6436C140.317 48.1946 141.359 48.233 142.138 48.0744C142.473 48.006 142.871 47.8757 143.024 47.5401C143.069 47.4379 143.101 47.3301 143.117 47.2195C143.076 47.1569 143.055 47.0838 143.055 47.0091Z" fill="#CF5B28"/>
<path d="M124.885 55.9137C124.487 55.4445 124.01 55.5013 123.529 55.7751C123.186 55.4495 122.752 55.1657 122.449 54.8033C122.238 54.5479 122.037 54.1354 121.734 53.9685C121.649 53.9129 121.545 53.8923 121.445 53.911C121.346 53.9297 121.257 53.9862 121.198 54.0686C121.054 54.2824 121.188 54.5395 121.293 54.7365C121.551 55.2024 121.839 55.6516 122.112 56.1091C122.333 56.4798 122.534 56.944 122.871 57.2195C123.182 57.4458 123.541 57.5978 123.921 57.6636C124.467 57.7989 125.344 58.056 126.078 58.6488C126.138 58.6972 125.704 58.021 125.693 57.9408C125.594 57.2696 125.331 56.4347 124.885 55.9137Z" fill="#F28F68"/>
<path d="M153.577 64.0367C153.474 63.8659 153.336 63.719 153.171 63.6056C153.006 63.4922 152.82 63.4149 152.623 63.3788C152.12 63.2619 151.618 63.2953 151.116 63.2953H148.992L140.658 63.3104C140.049 63.3104 139.387 63.2686 138.739 63.2886C138.6 63.2886 138.459 63.3003 138.322 63.312C137.874 63.338 137.432 63.4297 137.011 63.5842C136.803 63.6673 136.619 63.8013 136.476 63.9737C136.333 64.1461 136.236 64.3515 136.193 64.571C136.15 64.571 135.524 70.1564 135.249 72.9198C135.111 74.3024 134.972 75.6855 134.834 77.0692C134.71 78.3198 134.51 79.5838 134.485 80.8462C134.469 81.7395 134.685 82.7079 135.554 83.1838C136.142 83.5011 136.971 83.5796 137.751 83.5913H137.952C138.347 83.5913 138.724 83.5779 139.042 83.5745C140.4 83.5612 147.404 83.4076 148.64 83.451C149.908 83.4927 150.295 83.4293 151.142 82.9133C151.99 82.3974 152.033 81.8681 152.214 80.8846C152.633 78.6104 153.169 73.1937 153.489 69.2614C153.489 69.2046 153.497 69.1478 153.502 69.0944C153.629 67.5181 153.72 66.1957 153.752 65.4393C153.767 64.9768 153.812 64.4642 153.577 64.0367Z" fill="#2C7EA0"/>
<path d="M140.86 66.3542C140.313 66.6104 139.749 66.8291 139.172 67.0087C138.676 65.4831 138.035 64.0086 137.256 62.6056C136.805 61.808 136.289 61.049 135.713 60.3364C135.328 59.8622 134.909 59.3346 134.402 58.9639C133.715 59.1208 133.032 59.2828 132.355 59.4648C133 59.8655 133.528 60.5485 133.968 61.1195C134.539 61.8479 135.048 62.6226 135.489 63.4355C136.184 64.7251 136.763 66.0733 137.221 67.4646C137.08 67.4863 136.941 67.508 136.799 67.5247C136.693 67.5381 136.691 67.705 136.799 67.6917C136.958 67.6716 137.117 67.6483 137.274 67.6232C137.371 67.9104 137.463 68.1993 137.554 68.4882C137.56 68.5103 137.574 68.5292 137.594 68.5406C137.614 68.552 137.638 68.5551 137.66 68.5491C137.682 68.5431 137.701 68.5286 137.713 68.5087C137.724 68.4888 137.727 68.4652 137.721 68.4431C137.634 68.1609 137.542 67.877 137.448 67.5965C137.996 67.5016 138.538 67.3745 139.071 67.2158C139.157 67.4718 139.24 67.729 139.319 67.9872C139.325 68.0094 139.34 68.0282 139.36 68.0397C139.38 68.0511 139.403 68.0541 139.425 68.0482C139.448 68.0422 139.467 68.0277 139.478 68.0078C139.489 67.9879 139.493 67.9643 139.487 67.9421C139.406 67.6833 139.319 67.4245 139.237 67.1657C139.825 66.9824 140.401 66.7592 140.959 66.4978C141.037 66.4527 140.952 66.3091 140.86 66.3542Z" fill="#2C7EA0"/>
<path d="M149.737 65.2272C149.19 65.4835 148.626 65.7022 148.049 65.8818C147.553 64.3562 146.912 62.8816 146.133 61.4786C146.126 61.466 146.119 61.4538 146.111 61.4419C145.666 60.6584 145.157 59.9123 144.59 59.2111L144.495 59.0942C143.825 58.6417 142.904 58.3712 141.648 58.4931C141.596 58.4931 141.535 58.5031 141.467 58.5065C142.003 58.9122 142.447 59.4966 142.838 59.9942C143.409 60.7226 143.918 61.4973 144.359 62.3102C145.054 63.5998 145.634 64.9481 146.091 66.3393C145.95 66.361 145.811 66.3827 145.669 66.3994C145.563 66.4128 145.562 66.5797 145.669 66.5664C145.828 66.5463 145.987 66.523 146.144 66.4979C146.241 66.7851 146.334 67.074 146.424 67.3629C146.427 67.3738 146.432 67.3841 146.439 67.3931C146.446 67.4021 146.455 67.4096 146.465 67.4153C146.474 67.421 146.485 67.4246 146.497 67.4261C146.508 67.4275 146.519 67.4268 146.53 67.4238C146.541 67.4208 146.552 67.4158 146.561 67.4088C146.57 67.4019 146.577 67.3933 146.583 67.3834C146.589 67.3736 146.592 67.3627 146.594 67.3514C146.595 67.3402 146.595 67.3287 146.592 67.3178C146.505 67.0356 146.412 66.7517 146.319 66.4712C146.419 66.4545 146.52 66.4345 146.62 66.4144C147.066 66.3276 147.506 66.2207 147.941 66.0905C148.027 66.3465 148.11 66.6037 148.189 66.8619C148.195 66.8841 148.21 66.9029 148.23 66.9144C148.25 66.9258 148.273 66.9289 148.296 66.9229C148.318 66.9169 148.337 66.9024 148.348 66.8825C148.36 66.8626 148.363 66.839 148.357 66.8168C148.276 66.558 148.189 66.2992 148.107 66.0404C148.696 65.8571 149.271 65.6339 149.829 65.3725C149.914 65.3258 149.829 65.1822 149.737 65.2272Z" fill="#2C7EA0"/>
<path d="M136.362 81.5398C136.494 80.9871 136.638 80.4394 136.774 79.8884C136.217 80.0918 135.615 80.1403 135.033 80.0288C134.451 79.9174 133.91 79.65 133.468 79.2555C132.75 78.6144 132.232 77.7528 131.75 76.9329C131.197 75.9848 130.712 74.9982 130.301 73.9808C130.261 73.8823 128.943 71.0554 128.985 71.1539C128.945 71.0554 129.43 75.6773 129.471 75.7774C129.924 76.9025 130.465 77.9901 131.09 79.0301C131.631 79.9268 132.23 80.8669 133.111 81.468C133.581 81.7799 134.122 81.9671 134.684 82.0118C135.246 82.0566 135.811 81.9573 136.324 81.7234C136.339 81.6617 136.347 81.6016 136.362 81.5398Z" fill="#2C7EA0"/>
<path d="M153.498 69.0884C153.498 69.1452 153.487 69.202 153.484 69.2554C152.73 69.271 151.977 69.2816 151.223 69.2871C149.483 69.3005 147.743 69.2871 146.003 69.2721C145.148 69.2632 144.292 69.2526 143.436 69.2404C142.821 69.2404 142.186 69.2253 141.593 69.0283C140.366 68.6175 140.203 67.5138 140.205 66.3701C140.205 65.6537 140.171 64.9574 139.751 64.3463C139.406 63.8466 138.897 63.4819 138.312 63.3144C138.45 63.3027 138.59 63.2944 138.729 63.291C139.155 63.4814 139.525 63.776 139.805 64.1474C140.085 64.5188 140.267 64.9549 140.332 65.415C140.424 66.0979 140.307 66.7942 140.429 67.4738C140.577 68.2803 141.141 68.7645 141.918 68.9482C142.625 69.1151 143.374 69.0734 144.095 69.0834C144.978 69.0934 145.862 69.1051 146.745 69.1118C148.999 69.1352 151.243 69.1385 153.498 69.0884Z" fill="#7D443B"/>
<path d="M140.746 68.2764C140.367 71.6477 140.017 75.024 139.61 78.3919C139.443 79.8279 139.195 81.2872 138.542 82.5946C138.367 82.9413 138.169 83.276 137.949 83.5965H137.748C138.158 83.0142 138.491 82.3825 138.741 81.7163C139.244 80.3605 139.388 78.9112 139.547 77.4868C139.891 74.4178 140.234 71.3482 140.578 68.2781C140.59 68.1612 140.758 68.1696 140.746 68.2764Z" fill="#7D443B"/>
<path d="M131.494 59.7271C130.229 60.182 128.998 60.7249 127.809 61.3518C127.714 61.4018 127.799 61.5471 127.895 61.497C129.071 60.8749 130.291 60.3375 131.544 59.889C131.639 59.8473 131.596 59.687 131.494 59.7271Z" fill="#E8DFDF"/>
<path d="M134.161 67.8743C132.952 68.8281 131.625 69.6222 130.212 70.237C130.113 70.2804 130.198 70.424 130.297 70.3806C131.723 69.7591 133.061 68.9559 134.28 67.9911C134.362 67.926 134.243 67.8075 134.161 67.8743Z" fill="#E8DFDF"/>
<path d="M142.265 49.8109C142.079 50.2684 141.521 50.0029 141.178 49.9578C140.955 49.9333 140.73 49.9389 140.508 49.9745C139.86 50.0664 139.143 50.3168 138.617 49.7792C138.045 49.1948 137.998 48.228 137.217 47.8272C137.12 47.7788 137.036 47.9224 137.132 47.9708C138.081 48.4584 137.969 49.9745 139.103 50.25C139.751 50.417 140.399 50.0614 141.051 50.1098C141.528 50.1465 142.18 50.4621 142.426 49.856C142.466 49.7558 142.305 49.709 142.265 49.8109Z" fill="#9E3E18"/>
<path d="M139.722 45.4389C139.172 45.4847 138.62 45.3982 138.111 45.1868C137.707 45.0198 137.365 44.7276 136.938 44.6024C136.916 44.5966 136.893 44.5999 136.873 44.6115C136.853 44.6231 136.839 44.642 136.833 44.6642C136.827 44.6863 136.83 44.7098 136.842 44.7296C136.854 44.7493 136.873 44.7636 136.895 44.7694C137.377 44.9113 137.771 45.2586 138.248 45.4272C138.72 45.5881 139.221 45.6506 139.718 45.6109C139.829 45.5992 139.831 45.4306 139.722 45.4389Z" fill="#9E3E18"/>
<path d="M112.801 64.3145C112.262 64.3145 112.262 65.1493 112.801 65.1493C113.34 65.1493 113.34 64.3145 112.801 64.3145Z" fill="#E8DFDF"/>
<path d="M154.955 31.5987C154.933 31.5864 154.91 31.5769 154.885 31.5704C154.885 31.5704 152.83 30.7956 151.768 30.4867C151.753 30.4839 151.738 30.4855 151.724 30.4915C151.71 30.4974 151.698 30.5074 151.69 30.5201C151.68 30.5274 151.673 30.5378 151.67 30.5497C151.667 30.5615 151.668 30.5741 151.673 30.5852C152.126 31.6483 152.534 32.7286 152.895 33.8262C152.899 33.8355 152.904 33.8439 152.912 33.8503C152.919 33.8567 152.928 33.861 152.938 33.8627C152.948 33.8644 152.958 33.8635 152.967 33.86C152.977 33.8565 152.985 33.8506 152.991 33.8429C153.234 33.5902 153.475 33.3358 153.713 33.0798C154.366 33.662 154.989 34.2648 155.582 34.8882C155.59 34.8971 155.601 34.9025 155.614 34.9032C155.625 34.9083 155.637 34.9094 155.649 34.9064C155.661 34.9033 155.672 34.8963 155.679 34.8865C155.757 34.7983 155.841 34.7158 155.93 34.6394C156.024 34.5443 156.112 34.444 156.195 34.3388C156.23 34.3221 156.257 34.2837 156.228 34.2536C155.625 33.6191 154.992 33.0069 154.327 32.4169C154.544 32.1776 154.759 31.9377 154.974 31.6973C154.981 31.6903 154.986 31.6818 154.989 31.6723C154.992 31.6629 154.993 31.6528 154.991 31.6431C154.989 31.6333 154.985 31.6241 154.979 31.6164C154.973 31.6087 154.965 31.6026 154.955 31.5987Z" fill="white"/>
<path d="M173.782 23.4404H166.246C165.59 23.4417 164.955 23.6697 164.449 24.0857C163.943 24.5016 163.597 25.0797 163.471 25.7213L159.922 40.9462C159.842 41.3544 159.853 41.7753 159.956 42.1785C160.058 42.5818 160.249 42.9574 160.514 43.2785C160.779 43.5995 161.113 43.858 161.49 44.0353C161.867 44.2126 162.28 44.3044 162.697 44.3041H177.862L173.782 23.4404Z" fill="#CCB6B6"/>
<path d="M44.8192 9.55115L41.1348 9.56283L41.5049 11.4547L97.117 11.4347C97.9008 10.8185 98.6746 10.189 99.4282 9.53613L44.8192 9.55115Z" fill="#2C7EA0"/>
<path d="M45.5673 67.7974L41.8828 67.8091L42.2529 69.7026L59.2886 69.6475C59.9049 69.0242 60.5089 68.3913 61.1007 67.749L45.5673 67.7974Z" fill="#1A556D"/>
<path d="M168.178 47.002C167.853 47.6131 167.521 48.2493 167.238 48.9038L203.897 48.9138C204.802 48.3077 205.691 47.6782 206.557 47.0203L168.178 47.002Z" fill="#2C7EA0"/>
<path d="M209.836 21.1841C209.572 20.8629 209.24 20.6041 208.864 20.4265C208.487 20.2489 208.076 20.1569 207.659 20.1572H169.759C169.103 20.1582 168.468 20.3861 167.962 20.8021C167.456 21.2181 167.11 21.7963 166.984 22.4381L163.717 35.9481C163.637 36.3558 163.648 36.7761 163.75 37.1789C163.852 37.5816 164.042 37.9569 164.307 38.2778C164.571 38.5988 164.904 38.8573 165.28 39.0351C165.657 39.2129 166.068 39.3054 166.485 39.306H170.798L169.247 43.6474L179.391 39.306H204.382C205.037 39.3051 205.672 39.0774 206.178 38.6618C206.684 38.2461 207.03 37.6683 207.157 37.0268L210.424 23.5151C210.505 23.1074 210.494 22.6869 210.392 22.2839C210.291 21.8809 210.101 21.5053 209.836 21.1841Z" fill="#FFB50F"/>
<path d="M1.00391 12.403H19.3777L26.8371 15.5922L25.6966 12.403H28.8669C29.1737 12.4029 29.4766 12.3352 29.7541 12.2047C30.0315 12.0742 30.2766 11.8841 30.4717 11.6481C30.6668 11.4121 30.8072 11.136 30.8827 10.8395C30.9582 10.5431 30.967 10.2336 30.9084 9.93339L28.5051 0" fill="#D3E7F0"/>
<path d="M1.89356 5.77563L6.881 5.80234L6.51087 3.91051L1.52344 3.88379" fill="#A5C4D9"/>
<path d="M26.2472 3.91051L21.2598 3.88379L21.6282 5.77563L26.6157 5.80234L26.2472 3.91051Z" fill="#A5C4D9"/>
<path d="M19.6284 3.97077L8.75586 3.94238L9.12431 5.83422L19.9985 5.86261L19.6284 3.97077Z" fill="#A5C4D9"/>
<path d="M189.306 26.0345L194.293 26.0078L193.923 27.8996L188.936 27.9264L189.306 26.0345Z" fill="#CF5B28"/>
<path d="M196.548 26.0345L205.387 26.0078L205.017 27.8996L196.178 27.9264L196.548 26.0345Z" fill="#CF5B28"/>
<path d="M169.571 26.0345L174.559 26.0078L174.189 27.8996L169.201 27.9264L169.571 26.0345Z" fill="#CF5B28"/>
<path d="M176.19 26.0945L187.063 26.0645L186.693 27.9563L175.82 27.9863L176.19 26.0945Z" fill="#CF5B28"/>
<path d="M188.509 30.4183L193.496 30.3916L193.126 32.2834L188.139 32.3102L188.509 30.4183Z" fill="#CF5B28"/>
<path d="M195.753 30.4183L204.592 30.3916L204.222 32.2834L195.383 32.3102L195.753 30.4183Z" fill="#CF5B28"/>
<path d="M168.776 30.4183L173.764 30.3916L173.394 32.2834L168.406 32.3102L168.776 30.4183Z" fill="#CF5B28"/>
<path d="M175.394 30.4783L186.266 30.4482L185.896 32.3401L175.023 32.3701L175.394 30.4783Z" fill="#CF5B28"/>
<path d="M87.5514 67.6064L79.062 22.3242H78.8945L87.3856 67.6248L87.5514 67.6064Z" fill="#CCB6B6"/>
<path d="M91.4689 57.2593L84.8686 22.0508H84.7012L91.3097 57.2961L91.4689 57.2593Z" fill="#CCB6B6"/>
<path d="M95.14 50.3248L89.8394 22.0508H89.6719L94.9725 50.3766L95.14 50.3248Z" fill="#CCB6B6"/>
</g>
<defs>
<clipPath id="clip0_477_3782">
<rect width="239.223" height="135" fill="white"/>
</clipPath>
</defs>
</svg>
