<svg width="201" height="158" viewBox="0 0 201 158" fill="none" xmlns="http://www.w3.org/2000/svg">
<g clip-path="url(#clip0_477_3482)">
<path d="M12.4883 154.046C12.4883 151.86 34.2517 150.093 61.0973 150.093C87.943 150.093 109.707 151.863 109.707 154.046C109.707 156.23 87.945 158 61.0973 158C34.2497 158 12.4883 156.23 12.4883 154.046Z" fill="#E9EFFF"/>
<path d="M86.0919 30.5116C86.0507 30.5116 86.01 30.5031 85.9722 30.4867C81.1484 28.3927 66.262 18.7925 58.934 12.272C58.8748 12.2193 58.839 12.1453 58.8345 12.0663C58.83 11.9873 58.8572 11.9097 58.9101 11.8507C58.963 11.7916 59.0373 11.7559 59.1167 11.7515C59.196 11.747 59.2738 11.7741 59.3331 11.8268C62.6344 14.7655 67.9242 18.6981 73.8454 22.6167C79.0693 26.0732 83.922 28.9493 86.2166 29.9431C86.2797 29.9705 86.3314 30.0187 86.3629 30.0795C86.3945 30.1404 86.4041 30.2102 86.39 30.2773C86.376 30.3444 86.3392 30.4046 86.2858 30.4478C86.2324 30.491 86.1657 30.5146 86.0969 30.5145L86.0919 30.5116Z" fill="#E9EDF7"/>
<path d="M58.5299 12.4537C58.3099 12.5156 58.0765 12.5111 57.8591 12.4407C57.6417 12.3704 57.4502 12.2375 57.3086 12.0587C57.1671 11.88 57.082 11.6634 57.0641 11.4364C57.0462 11.2095 57.0962 10.9823 57.2079 10.7837C57.3196 10.5851 57.488 10.4239 57.6916 10.3206C57.8953 10.2173 58.1252 10.1765 58.3521 10.2033C58.5791 10.2302 58.7929 10.3235 58.9666 10.4714C59.1404 10.6194 59.2661 10.8153 59.328 11.0345C59.4109 11.3281 59.3734 11.6425 59.2238 11.9086C59.0741 12.1747 58.8245 12.3708 58.5299 12.4537V12.4537Z" stroke="#E9EDF7" stroke-width="6" stroke-linecap="round" stroke-linejoin="round"/>
<path d="M62.8243 21.8932C62.6115 21.9538 62.3853 21.9502 62.1745 21.8827C61.9637 21.8152 61.7778 21.6868 61.6403 21.514C61.5028 21.3411 61.4198 21.1314 61.4021 20.9116C61.3843 20.6918 61.4324 20.4716 61.5403 20.279C61.6483 20.0864 61.8111 19.9301 62.0084 19.8298C62.2056 19.7295 62.4282 19.6898 62.6481 19.7157C62.868 19.7416 63.0752 19.8319 63.2435 19.9752C63.4119 20.1185 63.5337 20.3084 63.5936 20.5207C63.6733 20.8043 63.6371 21.1078 63.493 21.3649C63.3489 21.6221 63.1085 21.812 62.8243 21.8932V21.8932Z" stroke="#E9EDF7" stroke-width="6" stroke-linecap="round" stroke-linejoin="round"/>
<path d="M73.9851 19.064C73.7432 19.1318 73.4866 19.1266 73.2478 19.0491C73.0089 18.9716 72.7984 18.8252 72.6431 18.6285C72.4877 18.4319 72.3944 18.1937 72.3749 17.9442C72.3554 17.6947 72.4107 17.445 72.5337 17.2268C72.6567 17.0085 72.842 16.8316 73.066 16.7182C73.29 16.6049 73.5427 16.5603 73.7921 16.59C74.0416 16.6198 74.2766 16.7226 74.4674 16.8854C74.6582 17.0482 74.7962 17.2637 74.8641 17.5047C74.9092 17.6646 74.9222 17.8318 74.9025 17.9967C74.8827 18.1616 74.8305 18.321 74.7489 18.4658C74.6673 18.6106 74.5578 18.738 74.4268 18.8406C74.2957 18.9433 74.1456 19.0192 73.9851 19.064V19.064Z" stroke="#E9EDF7" stroke-width="6" stroke-linecap="round" stroke-linejoin="round"/>
<path d="M73.7673 28.7121C73.4875 28.7904 73.1906 28.7843 72.9142 28.6945C72.6379 28.6047 72.3945 28.4353 72.2148 28.2077C72.0351 27.9801 71.9272 27.7045 71.9048 27.4158C71.8823 27.1271 71.9463 26.8383 72.0887 26.5859C72.231 26.3334 72.4453 26.1287 72.7045 25.9976C72.9637 25.8665 73.256 25.8148 73.5446 25.8492C73.8333 25.8837 74.1051 26.0026 74.3259 26.1909C74.5467 26.3792 74.7064 26.6286 74.785 26.9074C74.8902 27.2811 74.8421 27.6812 74.6513 28.0196C74.4605 28.3581 74.1425 28.6072 73.7673 28.7121V28.7121Z" stroke="#E9EDF7" stroke-width="6" stroke-linecap="round" stroke-linejoin="round"/>
<path d="M62.2314 11.0688C62.0486 11.12 61.8546 11.116 61.6741 11.0574C61.4935 10.9988 61.3345 10.8882 61.2171 10.7395C61.0997 10.5908 61.0292 10.4108 61.0146 10.2222C60.9999 10.0336 61.0418 9.84492 61.1348 9.68002C61.2278 9.51512 61.3679 9.38142 61.5372 9.29583C61.7066 9.21025 61.8976 9.17663 62.0861 9.19923C62.2747 9.22183 62.4522 9.29963 62.5964 9.42279C62.7405 9.54594 62.8447 9.70892 62.8958 9.8911C62.9643 10.135 62.9327 10.3961 62.8082 10.6169C62.6836 10.8377 62.4761 11.0002 62.2314 11.0688V11.0688Z" stroke="#E9EDF7" stroke-width="6" stroke-linecap="round" stroke-linejoin="round"/>
<path d="M63.3441 15.8111C63.2968 15.8111 63.2502 15.7999 63.208 15.7785C63.1659 15.7571 63.1295 15.726 63.1017 15.6878C62.6029 15.0081 62.2287 13.2669 61.9135 11.6887C61.8716 11.474 61.8346 11.2912 61.8057 11.16C61.7888 11.0826 61.8034 11.0017 61.8463 10.9351C61.8893 10.8685 61.957 10.8216 62.0347 10.8047C62.1123 10.7878 62.1935 10.8024 62.2604 10.8452C62.3273 10.8879 62.3744 10.9554 62.3913 11.0328C62.4203 11.1689 62.4572 11.3538 62.5011 11.5724C62.7006 12.5901 63.1266 14.7069 63.5856 15.338C63.6314 15.4012 63.6506 15.4797 63.6391 15.5568C63.6275 15.6339 63.5861 15.7034 63.5237 15.7504C63.472 15.7895 63.409 15.8108 63.3441 15.8111Z" fill="#E9EDF7"/>
<path d="M63.5947 20.818C63.5223 20.8181 63.4523 20.7921 63.3977 20.7448C63.3431 20.6974 63.3076 20.6319 63.2977 20.5605C63.2878 20.489 63.3043 20.4165 63.3441 20.3562C63.3838 20.2959 63.4442 20.252 63.5139 20.2327C64.363 19.9951 67.2632 19.374 69.3793 19.6185C69.4587 19.6276 69.5312 19.6677 69.5809 19.7301C69.6305 19.7924 69.6533 19.8718 69.6442 19.9509C69.6351 20.03 69.5948 20.1022 69.5322 20.1517C69.4696 20.2012 69.3898 20.2239 69.3105 20.2148C67.2552 19.9773 64.343 20.6242 63.6756 20.8111C63.649 20.8168 63.6219 20.8191 63.5947 20.818Z" fill="#E9EDF7"/>
<path d="M75.1145 24.0982C75.0667 24.0983 75.0196 24.087 74.977 24.0652C74.9345 24.0434 74.8978 24.0118 74.8701 23.973C74.1907 23.0209 73.5921 19.799 73.6879 19.0248C73.6975 18.9457 73.7383 18.8737 73.8013 18.8246C73.8642 18.7755 73.9442 18.7533 74.0236 18.7629C74.1029 18.7726 74.1752 18.8132 74.2245 18.8759C74.2738 18.9386 74.2961 19.0183 74.2865 19.0974C74.2027 19.7692 74.7733 22.8033 75.3619 23.6272C75.3938 23.6717 75.4127 23.7242 75.4167 23.7787C75.4206 23.8333 75.4094 23.8879 75.3842 23.9365C75.3591 23.9852 75.321 24.026 75.2741 24.0545C75.2273 24.083 75.1734 24.0982 75.1185 24.0982H75.1145Z" fill="#E9EDF7"/>
<path d="M74.8346 27.6968C74.7552 27.7003 74.6776 27.6723 74.619 27.6189C74.5603 27.5655 74.5254 27.4911 74.5218 27.412C74.5182 27.333 74.5463 27.2557 74.5999 27.1973C74.6535 27.1389 74.7282 27.104 74.8076 27.1005C75.4781 27.0389 79.6513 26.7308 80.4944 26.849C80.5341 26.8535 80.5726 26.8658 80.6075 26.8853C80.6424 26.9047 80.673 26.931 80.6975 26.9625C80.7221 26.9939 80.74 27.03 80.7503 27.0685C80.7607 27.107 80.7631 27.1471 80.7576 27.1866C80.7521 27.2261 80.7386 27.264 80.7181 27.2982C80.6976 27.3325 80.6704 27.3622 80.6382 27.3858C80.6059 27.4093 80.5692 27.4262 80.5303 27.4354C80.4914 27.4446 80.451 27.446 80.4116 27.4394C79.7132 27.34 75.935 27.5964 74.8615 27.6948L74.8346 27.6968Z" fill="#E9EDF7"/>
<path d="M185.71 129.986C185.633 129.986 185.558 129.956 185.503 129.902C182.229 126.766 181.895 124.387 182.19 122.945C182.312 122.35 182.571 121.79 182.948 121.312C183.325 120.834 183.81 120.451 184.362 120.193C184.203 118.925 184.672 117.603 185.643 116.615C187.084 115.148 189.422 114.557 192.06 114.995C192.1 115 192.139 115.013 192.174 115.033C192.209 115.053 192.24 115.08 192.264 115.113C192.288 115.145 192.305 115.182 192.315 115.221C192.324 115.26 192.325 115.301 192.319 115.341C192.312 115.38 192.297 115.418 192.275 115.452C192.253 115.486 192.225 115.515 192.191 115.538C192.158 115.56 192.12 115.576 192.081 115.584C192.041 115.591 192 115.591 191.961 115.582C189.518 115.178 187.371 115.706 186.074 117.032C185.164 117.959 184.77 119.158 184.992 120.323C185.005 120.392 184.993 120.463 184.959 120.524C184.925 120.585 184.87 120.632 184.804 120.657C184.292 120.858 183.838 121.184 183.484 121.605C183.131 122.026 182.889 122.529 182.78 123.067C182.515 124.359 182.844 126.528 185.921 129.477C185.964 129.518 185.993 129.571 186.006 129.629C186.018 129.687 186.013 129.748 185.991 129.803C185.968 129.858 185.93 129.905 185.88 129.939C185.831 129.972 185.773 129.99 185.713 129.99L185.71 129.986Z" fill="#DAE0F5"/>
<path d="M188.619 129.437C188.576 129.436 188.533 129.427 188.493 129.409C185.881 128.199 184.144 126.266 183.727 124.105C183.458 122.713 183.808 121.359 184.688 120.382C184.858 119.247 185.686 118.087 186.878 117.335C188.715 116.173 191.202 116.03 193.881 116.93C193.92 116.941 193.956 116.96 193.988 116.985C194.019 117.011 194.045 117.042 194.064 117.078C194.083 117.114 194.095 117.153 194.098 117.193C194.101 117.234 194.096 117.274 194.083 117.312C194.07 117.351 194.05 117.386 194.023 117.416C193.996 117.446 193.963 117.471 193.926 117.488C193.889 117.505 193.849 117.514 193.809 117.515C193.768 117.517 193.728 117.51 193.69 117.495C191.185 116.653 188.879 116.775 187.198 117.838C186.123 118.519 185.385 119.557 185.271 120.549C185.263 120.612 185.235 120.672 185.191 120.719C184.384 121.572 184.073 122.734 184.316 123.991C184.696 125.963 186.311 127.741 188.746 128.868C188.808 128.897 188.858 128.946 188.888 129.006C188.918 129.067 188.926 129.137 188.912 129.203C188.897 129.269 188.86 129.329 188.807 129.371C188.753 129.414 188.687 129.437 188.619 129.437Z" fill="#DAE0F5"/>
<path d="M192.109 127.555C190.756 127.555 186.803 126.187 185.311 123.911C184.619 122.853 184.543 121.757 185.086 120.651C185.162 119.967 185.653 119.346 186.508 118.853C188.393 117.76 192.078 117.408 195.194 118.891C195.264 118.926 195.317 118.987 195.342 119.061C195.367 119.134 195.362 119.215 195.328 119.285C195.294 119.355 195.235 119.409 195.161 119.436C195.088 119.463 195.007 119.46 194.936 119.428C192.006 118.037 188.561 118.357 186.808 119.369C186.116 119.766 185.71 120.263 185.676 120.76C185.674 120.799 185.663 120.837 185.646 120.872C185.179 121.792 185.234 122.705 185.813 123.588C187.21 125.726 191.171 127.015 192.169 126.96C192.249 126.955 192.327 126.983 192.386 127.036C192.445 127.089 192.48 127.163 192.485 127.242C192.489 127.321 192.461 127.398 192.408 127.457C192.355 127.516 192.281 127.552 192.201 127.556C192.173 127.555 192.142 127.555 192.109 127.555Z" fill="#DAE0F5"/>
<path d="M191.147 125.368C191.128 125.369 191.109 125.369 191.09 125.368C189.669 125.092 186.251 122.82 185.121 120.888C185.099 120.851 185.086 120.811 185.082 120.77C185.077 120.728 185.082 120.686 185.095 120.646C185.108 120.606 185.129 120.569 185.157 120.538C185.185 120.507 185.22 120.482 185.258 120.465C186.275 120.018 187.76 119.607 189.335 119.341C190.783 119.096 192.036 119.018 192.603 119.142C192.681 119.159 192.749 119.205 192.792 119.272C192.835 119.338 192.85 119.419 192.834 119.496C192.817 119.574 192.77 119.641 192.704 119.684C192.637 119.727 192.556 119.742 192.478 119.726C191.523 119.527 188.011 120.018 185.824 120.881C187.009 122.57 190.014 124.558 191.203 124.787C191.276 124.802 191.34 124.843 191.384 124.902C191.429 124.961 191.449 125.035 191.442 125.108C191.435 125.181 191.401 125.249 191.346 125.299C191.292 125.349 191.221 125.377 191.147 125.378V125.368Z" fill="#DAE0F5"/>
<path d="M193.833 121.55C193.805 121.549 193.776 121.545 193.748 121.538C190.129 120.484 187.624 120.772 185.414 121.027C185.375 121.031 185.335 121.028 185.297 121.017C185.259 121.006 185.223 120.988 185.192 120.964C185.161 120.939 185.135 120.909 185.116 120.874C185.097 120.84 185.085 120.802 185.08 120.763C185.076 120.724 185.079 120.684 185.09 120.646C185.101 120.608 185.119 120.573 185.143 120.542C185.168 120.511 185.198 120.485 185.233 120.466C185.268 120.447 185.306 120.435 185.345 120.43C187.612 120.17 190.181 119.874 193.917 120.961C193.986 120.981 194.046 121.026 194.085 121.086C194.124 121.146 194.14 121.219 194.13 121.29C194.119 121.361 194.084 121.426 194.029 121.473C193.975 121.52 193.905 121.546 193.833 121.546V121.55Z" fill="#DAE0F5"/>
<path d="M194.263 123.679C192.021 123.679 187.367 122.195 185.757 120.896C185.727 120.871 185.701 120.841 185.683 120.806C185.664 120.772 185.652 120.734 185.648 120.695C185.644 120.656 185.648 120.617 185.659 120.579C185.67 120.542 185.689 120.507 185.713 120.477C185.738 120.446 185.769 120.421 185.803 120.402C185.838 120.384 185.876 120.372 185.915 120.368C185.954 120.364 185.993 120.367 186.031 120.379C186.069 120.39 186.104 120.408 186.134 120.433C187.717 121.71 192.906 123.306 194.676 123.059C194.715 123.053 194.755 123.054 194.794 123.063C194.833 123.073 194.87 123.089 194.902 123.113C194.934 123.137 194.962 123.166 194.982 123.201C195.003 123.235 195.016 123.273 195.022 123.312C195.027 123.352 195.025 123.392 195.014 123.43C195.004 123.469 194.986 123.505 194.962 123.536C194.937 123.568 194.906 123.594 194.871 123.614C194.837 123.633 194.798 123.645 194.758 123.65C194.594 123.671 194.428 123.68 194.263 123.679Z" fill="#DAE0F5"/>
<path d="M184.694 120.672C184.675 120.673 184.656 120.673 184.637 120.672C182.832 120.326 172.092 115.603 167.995 112.871C167.929 112.827 167.883 112.759 167.867 112.681C167.852 112.604 167.868 112.523 167.912 112.457C167.956 112.391 168.025 112.345 168.103 112.33C168.181 112.314 168.262 112.331 168.328 112.375C172.382 115.077 182.976 119.745 184.751 120.085C184.83 120.092 184.903 120.131 184.954 120.192C185.005 120.253 185.029 120.332 185.022 120.411C185.014 120.49 184.975 120.563 184.914 120.614C184.852 120.664 184.773 120.688 184.694 120.681V120.672Z" fill="#DAE0F5"/>
<path d="M95.1493 38.3836C85.816 36.6633 82.8778 28.3162 86.4116 17.7529C94.5238 20.9818 101.173 29.9669 95.1493 38.3836Z" fill="#2C7EA0"/>
<path d="M96.6829 39.9365C88.2764 50.5703 75.6946 48.7268 64.6094 37.2243C74.1233 29.1327 89.9864 26.7237 96.6829 39.9365Z" fill="#95BFD0"/>
<path d="M57.3218 124.807C60.8476 123.164 68.1057 116.228 64.3215 108.494C62.6085 104.994 61.953 104.171 60.4475 103.714C59.4658 103.415 58.498 103.657 58.0591 102.857C57.2609 101.395 62.7112 98.5347 60.3088 92.9624C57.9064 87.3901 53.5585 88.0738 52.926 86.5612C52.2934 85.0486 54.2499 83.4347 52.2476 81.3159C50.2452 79.197 46.7413 82.3166 43.7972 79.9374C40.7343 77.4638 34.7652 74.4585 32.4575 77.2919C30.1499 80.1253 32.6082 81.9221 32.5483 84.4414C32.4885 86.9607 27.7924 92.4367 32.3169 96.0909C36.8134 99.7233 39.0013 100.428 36.7964 107.163C34.5916 113.898 39.1101 119.553 42.5451 120.381C45.9801 121.209 44.4407 122.509 42.3915 122.699C40.3422 122.89 42.3176 125.395 44.7929 126.142C47.2681 126.889 52.896 126.868 57.3218 124.807Z" fill="#FFB50F"/>
<path d="M57.6257 127.04C57.5505 127.041 57.4779 127.013 57.4224 126.962C57.367 126.911 57.3327 126.842 57.3264 126.767C56.6041 118.094 54.1787 109.462 50.1191 101.112C46.6033 93.8788 42.0728 87.3415 37.0246 82.2065C36.9955 82.1789 36.9723 82.1457 36.9563 82.109C36.9403 82.0723 36.932 82.0328 36.9316 81.9928C36.9313 81.9528 36.9391 81.9131 36.9545 81.8762C36.9699 81.8392 36.9926 81.8057 37.0213 81.7777C37.05 81.7497 37.084 81.7277 37.1214 81.7131C37.1588 81.6984 37.1987 81.6914 37.2389 81.6925C37.279 81.6935 37.3185 81.7026 37.3551 81.7192C37.3916 81.7358 37.4244 81.7596 37.4516 81.7891C42.5477 86.9698 47.1141 93.5618 50.6589 100.851C54.7494 109.268 57.1957 117.971 57.924 126.717C57.9273 126.757 57.9228 126.796 57.9109 126.833C57.8989 126.87 57.8797 126.905 57.8543 126.935C57.8289 126.965 57.7979 126.989 57.7629 127.007C57.728 127.025 57.6898 127.036 57.6507 127.039L57.6257 127.04Z" fill="#1B4F65"/>
<path d="M44.1946 90.7255C44.1451 90.7256 44.0964 90.7135 44.0527 90.6903C44.0091 90.667 43.9719 90.6334 43.9445 90.5923C43.9171 90.5513 43.9004 90.5041 43.8958 90.455C43.8912 90.4059 43.8989 90.3565 43.9182 90.3111C44.2874 89.4425 46.2628 86.1062 48.1534 84.707C48.2172 84.6631 48.2956 84.6457 48.372 84.6583C48.4485 84.6709 48.5171 84.7125 48.5634 84.7744C48.6096 84.8364 48.63 84.9137 48.6201 84.9903C48.6103 85.0669 48.571 85.1367 48.5106 85.185C46.7387 86.4968 44.8112 89.7386 44.47 90.5426C44.4472 90.5967 44.4089 90.6429 44.3599 90.6754C44.311 90.7079 44.2535 90.7254 44.1946 90.7255Z" fill="#1B4F65"/>
<path d="M36.7496 88.696C36.6765 88.6963 36.6058 88.6699 36.5509 88.6218C36.496 88.5737 36.4606 88.5072 36.4515 88.4349C36.4425 88.3627 36.4602 88.2896 36.5016 88.2295C36.5429 88.1693 36.6048 88.1264 36.6758 88.1087C37.6824 87.8533 41.1065 87.5422 42.5441 87.7996C42.5842 87.805 42.6227 87.8184 42.6573 87.8391C42.692 87.8597 42.7221 87.8871 42.7459 87.9196C42.7697 87.9521 42.7866 87.9891 42.7956 88.0283C42.8047 88.0675 42.8056 88.1082 42.7985 88.1478C42.7914 88.1874 42.7762 88.2251 42.7541 88.2587C42.7319 88.2924 42.7031 88.3212 42.6695 88.3434C42.6358 88.3657 42.598 88.3809 42.5583 88.3882C42.5186 88.3955 42.4778 88.3948 42.4384 88.386C41.0945 88.1455 37.7652 88.4476 36.8234 88.6841C36.7994 88.691 36.7746 88.695 36.7496 88.696Z" fill="#1B4F65"/>
<path d="M50.3538 101.211C50.3219 101.211 50.2902 101.205 50.26 101.195C50.1848 101.17 50.1226 101.117 50.0869 101.046C50.0511 100.976 50.0449 100.894 50.0695 100.819C50.3808 99.8751 51.3286 97.001 54.9142 94.3952C54.9785 94.3507 55.0577 94.333 55.1348 94.3459C55.212 94.3589 55.281 94.4015 55.3271 94.4645C55.3732 94.5275 55.3926 94.606 55.3812 94.6832C55.3699 94.7603 55.3287 94.83 55.2664 94.8772C51.8364 97.3697 50.9345 100.106 50.6382 101.005C50.6186 101.065 50.5806 101.117 50.5295 101.154C50.4784 101.191 50.4169 101.211 50.3538 101.211Z" fill="#1B4F65"/>
<path d="M48.1519 97.0138C48.1112 97.0136 48.0708 97.0055 48.0332 96.9899C47.5414 96.7772 46.3092 96.6272 44.6531 96.5765C43.3249 96.5331 41.9954 96.5613 40.6703 96.661C40.631 96.6646 40.5914 96.6605 40.5537 96.6489C40.516 96.6373 40.4809 96.6184 40.4505 96.5933C40.4201 96.5682 40.395 96.5374 40.3766 96.5026C40.3581 96.4679 40.3468 96.4298 40.3431 96.3907C40.3394 96.3515 40.3435 96.312 40.3552 96.2744C40.3668 96.2369 40.3858 96.202 40.411 96.1717C40.4362 96.1414 40.4671 96.1164 40.5021 96.098C40.537 96.0797 40.5752 96.0683 40.6145 96.0647C42.532 95.8868 46.9996 95.8938 48.2707 96.4394C48.3336 96.4667 48.3853 96.5148 48.4168 96.5756C48.4484 96.6363 48.4581 96.7061 48.4441 96.7731C48.4302 96.8401 48.3936 96.9003 48.3404 96.9436C48.2872 96.9868 48.2206 97.0106 48.1519 97.0108V97.0138Z" fill="#1B4F65"/>
<path d="M53.9852 109.972C53.9513 109.972 53.9175 109.967 53.8854 109.956C52.4218 109.459 50.5741 109.666 49.0896 109.834C48.7902 109.868 48.5109 109.899 48.2465 109.924C48.1671 109.932 48.0881 109.907 48.0267 109.857C47.9653 109.806 47.9267 109.733 47.9193 109.654C47.9119 109.575 47.9363 109.496 47.9872 109.435C48.0381 109.374 48.1113 109.335 48.1906 109.328C48.449 109.304 48.7274 109.272 49.0217 109.24C50.5661 109.065 52.4886 108.842 54.0799 109.39C54.1474 109.412 54.2044 109.458 54.2408 109.519C54.2772 109.58 54.2906 109.652 54.2786 109.722C54.2666 109.792 54.2299 109.855 54.1752 109.901C54.1205 109.946 54.0514 109.971 53.9802 109.97L53.9852 109.972Z" fill="#1B4F65"/>
<path d="M55.5416 115.071C55.5232 115.072 55.5048 115.07 55.4867 115.066C55.4481 115.059 55.4112 115.045 55.3782 115.023C55.3453 115.002 55.3169 114.974 55.2946 114.942C55.2724 114.91 55.2568 114.873 55.2487 114.835C55.2405 114.797 55.2401 114.757 55.2473 114.719C55.5835 112.914 57.4192 109.931 59.3378 108.071C59.3952 108.019 59.4707 107.991 59.5484 107.993C59.6261 107.996 59.6998 108.028 59.754 108.083C59.8081 108.139 59.8385 108.213 59.8387 108.291C59.8388 108.368 59.8087 108.443 59.7548 108.498C57.9091 110.287 56.1502 113.125 55.8329 114.828C55.8202 114.896 55.7842 114.957 55.7311 115.002C55.6779 115.046 55.6109 115.071 55.5416 115.071Z" fill="#1B4F65"/>
<path d="M171.816 118.238C170.156 117.94 162.762 103.927 165.36 102.337C167.383 101.103 168.742 103.213 169.176 104.018C169.858 105.286 171.298 108.442 172.161 107.795C173.72 106.617 169.053 99.0988 168.029 97.1966C167.006 95.2945 165.535 91.3261 166.706 89.2461C167.878 87.166 168.59 86.4515 170.198 89.8781C171.806 93.3048 174.12 100.445 175.24 97.9181C176.361 95.3909 173.268 90.2657 172.579 86.6771C171.889 83.0884 171.798 76.0313 174.314 77.1364C176.563 78.1243 177.063 88.8943 178.732 88.0038C180.066 87.2912 178.812 84.4261 178.333 79.6478C177.854 74.8695 177.459 70.3457 180.287 69.802C182.556 69.3667 182.211 72.4933 182.501 75.0693C182.79 77.6452 183.328 81.217 184.411 80.2163C185.495 79.2155 182.86 66.756 186.369 65.2364C188.69 64.2327 188.404 67.068 188.91 70.0465C189.416 73.025 189.816 74.0347 190.371 73.7375C190.927 73.4404 190.9 69.3131 190.825 67.0452C190.75 64.7773 191.424 61.5037 193.538 61.3605C195.652 61.2174 195.399 64.8628 194.991 66.1875C194.583 67.5123 194.758 68.9464 195.155 69.0696C195.552 69.1928 197.212 64.9115 199.288 66.109C201.363 67.3066 199.376 71.2391 197.265 72.3701C195.154 73.501 192.339 75.0961 192.752 75.8633C193.165 76.6306 195.611 75.3257 197.541 74.2961C199.47 73.2665 200.471 73.2963 200.746 73.8081C201.665 75.5145 199.931 78.2922 198.523 79.0435C197.116 79.7949 188.67 82.988 189.281 84.1219C189.891 85.2559 192.93 83.7244 194.488 82.8936C196.045 82.0628 199.676 80.1228 200.699 82.024C201.723 83.9252 197.382 87.5616 194.314 88.9618C191.246 90.3621 186.116 92.2573 186.589 93.1359C187.062 94.0144 191.434 93.1846 193.323 92.1749C195.213 91.1651 198.074 88.4142 199.334 90.7537C200.595 93.0931 197.964 95.1106 194.253 97.0923C192.703 97.9201 188.844 99.9316 186.064 99.7448C182.898 99.5321 181.286 99.9435 181.201 100.674C181.029 102.13 183.841 101.946 185.816 101.362C187.79 100.777 193.821 98.5939 194.196 101.78C194.572 104.966 189.275 105.491 187.165 105.912C185.055 106.334 177.487 107.173 177.662 108.822C177.836 110.472 181.701 108.971 182.95 108.633C184.198 108.296 187.009 108.419 186.653 109.574C186.297 110.728 174.78 118.773 171.816 118.238Z" fill="#1B4F65"/>
<path d="M7.96703 108.695C5.04083 109.709 3.17816 107.465 2.18945 106.044C3.10732 105.801 6.88155 105.037 7.96703 108.695Z" fill="#FCBA06"/>
<path d="M29.9786 125.018C29.933 125.018 29.888 125.008 29.847 124.988C29.806 124.968 29.7702 124.939 29.7422 124.903C27.6012 122.164 24.4944 119.193 20.9935 116.537C16.8247 113.377 12.2664 110.762 7.43004 108.756C7.36099 108.723 7.30721 108.665 7.27973 108.594C7.25225 108.523 7.25317 108.444 7.28229 108.373C7.31141 108.303 7.36652 108.246 7.43631 108.215C7.50609 108.183 7.58525 108.18 7.65751 108.205C12.5422 110.23 17.1458 112.871 21.3557 116.063C24.8974 118.746 28.0401 121.758 30.2151 124.536C30.2392 124.567 30.257 124.603 30.2674 124.64C30.2777 124.678 30.2806 124.718 30.2757 124.757C30.2707 124.795 30.2582 124.833 30.2387 124.867C30.2193 124.901 30.1933 124.931 30.1622 124.955C30.1101 124.996 30.0453 125.019 29.9786 125.018Z" fill="#FCBA06"/>
<path d="M28.2051 120.611C26.551 114.602 30.5826 112.407 33.5926 110.611C33.9587 112.489 35.7516 118.929 28.2051 120.611Z" fill="#FCBA06"/>
<path d="M23.9884 116.366C21.4942 112.023 24.193 109.515 26.1724 107.521C26.8338 108.906 29.5186 113.557 23.9884 116.366Z" fill="#FCBA06"/>
<path d="M18.5689 112.746C15.6098 109.617 17.3557 106.982 18.6068 104.917C19.4389 105.94 22.6225 109.288 18.5689 112.746Z" fill="#FCBA06"/>
<path d="M13.061 109.676C10.7513 108.318 11.335 106.443 11.7231 104.996C12.3985 105.465 14.8807 106.914 13.061 109.676Z" fill="#FCBA06"/>
<path d="M25.5311 122.475C20.5038 120.205 18.0286 123.4 16.0332 125.766C17.6295 126.342 23.017 128.792 25.5311 122.475Z" fill="#FCBA06"/>
<path d="M20.8594 117.945C16.8816 115.338 14.3385 117.729 12.3242 119.476C13.6022 120.182 17.8614 122.991 20.8594 117.945Z" fill="#FCBA06"/>
<path d="M14.5538 113.442C11.4481 112.479 10.2319 114.528 9.24219 116.055C10.2139 116.277 13.5402 117.318 14.5538 113.442Z" fill="#FCBA06"/>
<path d="M10.0909 110.704C8.41475 109.821 7.49688 110.866 6.76758 111.635C7.30034 111.867 9.09517 112.818 10.0909 110.704Z" fill="#FCBA06"/>
<path d="M61.1848 140.82C65.5366 137.973 76.2597 116.987 67.8293 112.919C59.8389 109.064 57.3048 125.48 56.8289 127.612C55.1637 119.557 52.9838 111.738 47.6502 113.159C42.3166 114.581 47.6502 125.954 47.6502 125.954C42.7935 119.792 30.6896 110.313 25.1824 113.158C19.6752 116.004 36.3724 126.212 36.3724 126.212C28.784 121.924 6.10673 116.15 28.7541 127.049C18.3852 123.708 -1.83681 122.068 20.642 129.037C7.1124 127.866 0.245351 129.701 0.00790223 131.597C-0.229546 133.492 3.73824 136.174 21.2226 136.614C12.5867 138.036 8.25275 140.048 10.4806 140.819L61.1848 140.82Z" fill="#C3DAE4"/>
<path d="M32.2112 130.691C32.2112 130.553 32.1702 130.419 32.0935 130.304C32.0168 130.19 31.9077 130.101 31.7801 130.048C31.6525 129.995 31.5121 129.982 31.3766 130.008C31.2411 130.035 31.1167 130.102 31.019 130.199C30.9213 130.296 30.8548 130.42 30.8279 130.555C30.8009 130.69 30.8148 130.83 30.8676 130.957C30.9205 131.084 31.01 131.193 31.1248 131.269C31.2397 131.346 31.3747 131.387 31.5128 131.387C31.6981 131.387 31.8757 131.313 32.0067 131.183C32.1376 131.052 32.2112 130.875 32.2112 130.691Z" fill="white"/>
<path d="M56.3231 134.81C56.3235 134.597 56.2604 134.388 56.1418 134.211C56.0231 134.033 55.8543 133.895 55.6567 133.813C55.459 133.731 55.2415 133.71 55.0315 133.751C54.8216 133.792 54.6287 133.895 54.4773 134.046C54.3259 134.196 54.2227 134.388 54.181 134.597C54.1392 134.807 54.1606 135.023 54.2426 135.22C54.3245 135.417 54.4633 135.586 54.6413 135.704C54.8193 135.822 55.0286 135.885 55.2426 135.885C55.529 135.885 55.8037 135.772 56.0063 135.57C56.2089 135.369 56.3229 135.095 56.3231 134.81Z" fill="white"/>
<path d="M42.25 126.831C42.25 126.65 42.1959 126.472 42.0945 126.321C41.9931 126.169 41.8489 126.052 41.6803 125.982C41.5117 125.913 41.3261 125.894 41.1471 125.93C40.9681 125.965 40.8037 126.053 40.6746 126.181C40.5455 126.31 40.4576 126.474 40.422 126.652C40.3864 126.83 40.4047 127.015 40.4745 127.183C40.5444 127.351 40.6627 127.495 40.8144 127.596C40.9662 127.697 41.1446 127.751 41.3272 127.751C41.5719 127.751 41.8066 127.654 41.9797 127.481C42.1528 127.309 42.25 127.075 42.25 126.831Z" fill="white"/>
<path d="M152.223 8.42773C156.873 9.63622 161.121 14.0865 158.409 19.0914C153.197 18.7932 151.016 14.4354 152.223 8.42773Z" fill="#C3DAE4"/>
<path d="M164.448 2.72168C168.212 8.72433 168.239 17.8048 160.225 20.4424C154.931 14.8452 157.033 7.95909 164.448 2.72168Z" fill="#C3DAE4"/>
<path d="M164.116 4.95124C163.359 7.51827 162.625 11.0274 161.979 14.1232C161.444 16.6872 160.938 19.1092 160.513 20.5283C160.495 20.5899 160.457 20.6438 160.405 20.6822C160.353 20.7205 160.29 20.7411 160.226 20.741C160.197 20.7409 160.168 20.7369 160.14 20.7291C160.064 20.7061 160.001 20.6541 159.963 20.5844C159.926 20.5147 159.918 20.433 159.941 20.3574C160.359 18.9661 160.861 16.5531 161.394 13.997C162.043 10.8903 162.778 7.36821 163.542 4.77832" fill="white"/>
<path d="M135.615 0C140.344 8.20893 140.743 18.6321 140.621 20.3444C140.618 20.3787 140.601 20.4105 140.575 20.433C140.549 20.4555 140.515 20.4669 140.481 20.4647C140.464 20.4635 140.447 20.4591 140.432 20.4515C140.417 20.4439 140.403 20.4334 140.392 20.4206C140.38 20.4078 140.372 20.3928 140.366 20.3767C140.361 20.3606 140.359 20.3435 140.36 20.3265C140.477 18.6271 140.086 8.28148 135.389 0.129198" fill="#C3DAE4"/>
<path d="M140.215 15.9655C142.038 17.6282 145.434 16.2637 146.914 12.4613C143.95 10.8583 139.915 13.3429 140.063 14.614C140.12 15.1109 140.215 15.9655 140.215 15.9655Z" fill="#C3DAE4"/>
<path d="M138.707 8.11893C138.852 8.55025 139.097 9.29263 139.097 9.29263C141.032 10.4315 143.795 8.58603 144.395 4.9248" fill="#C3DAE4"/>
<path d="M139.821 13.1409C138.533 14.9735 135.251 14.4328 133.186 11.345C135.497 9.34151 139.571 10.7537 139.689 11.9115C139.737 12.3637 139.821 13.1409 139.821 13.1409Z" fill="#C3DAE4"/>
<path d="M87.8262 39.2045L109.364 17.75H170.547C171.77 17.7524 172.943 18.2373 173.808 19.0987C174.673 19.9602 175.16 21.1279 175.163 22.3464V142.079C175.163 142.713 175.038 143.342 174.794 143.928C174.55 144.515 174.192 145.048 173.742 145.497C173.291 145.945 172.756 146.302 172.168 146.544C171.579 146.787 170.948 146.912 170.31 146.912H92.6789C92.0416 146.912 91.4106 146.787 90.8218 146.544C90.2331 146.302 89.6981 145.945 89.2475 145.497C88.7969 145.048 88.4394 144.515 88.1956 143.928C87.9517 143.342 87.8262 142.713 87.8262 142.079V39.2045Z" fill="#F2FBFF"/>
<path d="M109.364 34.6141C109.36 35.8308 108.872 36.9965 108.008 37.8565C107.144 38.7165 105.973 39.2011 104.752 39.2045H87.8262L109.364 17.75V34.6141Z" fill="#C3DAE4"/>
<path d="M109.365 46.4404H94.4727V61.3338H109.365V46.4404Z" fill="#C3DAE4"/>
<path d="M109.365 64.9443H94.4727V69.0061H109.365V64.9443Z" fill="#C3DAE4"/>
<path d="M109.365 72.165H94.4727V74.1964H109.365V72.165Z" fill="#C3DAE4"/>
<path d="M101.919 76.2676H94.4727V78.299H101.919V76.2676Z" fill="#C3DAE4"/>
<path d="M132.36 36.0851C133.422 36.0851 134.282 35.2276 134.282 34.17C134.282 33.1123 133.422 32.2549 132.36 32.2549C131.298 32.2549 130.438 33.1123 130.438 34.17C130.438 35.2276 131.298 36.0851 132.36 36.0851Z" fill="#C3DAE4"/>
<path d="M140.005 36.0851C141.066 36.0851 141.927 35.2276 141.927 34.17C141.927 33.1123 141.066 32.2549 140.005 32.2549C138.943 32.2549 138.082 33.1123 138.082 34.17C138.082 35.2276 138.943 36.0851 140.005 36.0851Z" fill="#C3DAE4"/>
<path d="M147.651 36.0851C148.713 36.0851 149.574 35.2276 149.574 34.17C149.574 33.1123 148.713 32.2549 147.651 32.2549C146.589 32.2549 145.729 33.1123 145.729 34.17C145.729 35.2276 146.589 36.0851 147.651 36.0851Z" fill="#C3DAE4"/>
<path d="M164.812 41.1084H124.375V42.462H164.812V41.1084Z" fill="#C3DAE4"/>
<path d="M164.811 45.0859H115.199V46.4395H164.811V45.0859Z" fill="#C3DAE4"/>
<path d="M164.811 53.04H115.199V54.3936H164.811V53.04Z" fill="#C3DAE4"/>
<path d="M164.811 60.9951H115.199V62.3487H164.811V60.9951Z" fill="#C3DAE4"/>
<path d="M164.811 68.9492H115.199V70.3028H164.811V68.9492Z" fill="#C3DAE4"/>
<path d="M164.811 76.9043H115.199V78.2579H164.811V76.9043Z" fill="#C3DAE4"/>
<path d="M164.811 84.8584H115.199V86.212H164.811V84.8584Z" fill="#C3DAE4"/>
<path d="M164.812 88.8359H94.4727V90.1895H164.812V88.8359Z" fill="#C3DAE4"/>
<path d="M164.812 100.768H94.4727V102.121H164.812V100.768Z" fill="#C3DAE4"/>
<path d="M164.812 108.722H94.4727V110.075H164.812V108.722Z" fill="#C3DAE4"/>
<path d="M164.812 112.699H94.4727V114.053H164.812V112.699Z" fill="#C3DAE4"/>
<path d="M164.812 120.653H94.4727V122.007H164.812V120.653Z" fill="#C3DAE4"/>
<path d="M164.812 128.608H94.4727V129.962H164.812V128.608Z" fill="#C3DAE4"/>
<path d="M164.812 132.586H94.4727V133.94H164.812V132.586Z" fill="#C3DAE4"/>
<path d="M145.728 64.9727H115.199V66.3263H145.728V64.9727Z" fill="#C3DAE4"/>
<path d="M164.81 64.9727H148.67V66.3263H164.81V64.9727Z" fill="#C3DAE4"/>
<path d="M128.451 72.9268H115.199V74.2803H128.451V72.9268Z" fill="#C3DAE4"/>
<path d="M164.811 72.9268H133.209V74.2803H164.811V72.9268Z" fill="#C3DAE4"/>
<path d="M143.915 92.8125H94.4727V94.1661H143.915V92.8125Z" fill="#C3DAE4"/>
<path d="M164.811 92.8125H150.029V94.1661H164.811V92.8125Z" fill="#C3DAE4"/>
<path d="M109.707 104.745H94.4727V106.099H109.707V104.745Z" fill="#C3DAE4"/>
<path d="M164.811 104.745H115.199V106.099H164.811V104.745Z" fill="#C3DAE4"/>
<path d="M130.465 116.677H94.4727V118.03H130.465V116.677Z" fill="#C3DAE4"/>
<path d="M164.811 116.677H137.287V118.03H164.811V116.677Z" fill="#C3DAE4"/>
<path d="M164.811 124.631H103.646V125.984H164.811V124.631Z" fill="#C3DAE4"/>
<path d="M164.811 80.8809H143.318V82.2344H164.811V80.8809Z" fill="#C3DAE4"/>
<path d="M140.006 80.8809H137.967V82.2344H140.006V80.8809Z" fill="#C3DAE4"/>
<path d="M134.653 80.8809H115.199V82.2344H134.653V80.8809Z" fill="#C3DAE4"/>
<path d="M152.408 57.0176H115.199V58.3712H152.408V57.0176Z" fill="#C3DAE4"/>
<path d="M157.76 57.0176H155.721V58.3712H157.76V57.0176Z" fill="#C3DAE4"/>
<path d="M164.811 57.0176H161.072V58.3712H164.811V57.0176Z" fill="#C3DAE4"/>
<path d="M135.672 49.0635H133.633V50.4171H135.672V49.0635Z" fill="#C3DAE4"/>
<path d="M164.811 49.0635H138.986V50.4171H164.811V49.0635Z" fill="#C3DAE4"/>
<path d="M130.32 49.0635H115.199V50.4171H130.32V49.0635Z" fill="#C3DAE4"/>
<path d="M113.162 96.79H94.4727V98.1436H113.162V96.79Z" fill="#C3DAE4"/>
<path d="M118.512 96.79H116.473V98.1436H118.512V96.79Z" fill="#C3DAE4"/>
<path d="M164.811 96.79H121.826V98.1436H164.811V96.79Z" fill="#C3DAE4"/>
<path d="M87.7953 89.4903L88.1934 88.334L86.8391 87.8713L86.441 89.0276L87.7953 89.4903Z" fill="#1F196F"/>
<path d="M85.4587 98.3074L88.4178 89.7079L87.1208 89.2656L83.7188 99.1571C83.889 99.2152 84.0691 99.2393 84.2487 99.228C84.4283 99.2167 84.6039 99.1703 84.7655 99.0914C84.927 99.0124 85.0714 98.9026 85.1904 98.7681C85.3093 98.6336 85.4005 98.477 85.4587 98.3074Z" fill="#362E93"/>
<path d="M85.8233 88.8223L82.8652 97.4218C82.8068 97.5915 82.7824 97.771 82.7937 97.9501C82.8049 98.1292 82.8515 98.3043 82.9307 98.4655C83.0099 98.6266 83.1203 98.7707 83.2554 98.8893C83.3905 99.008 83.5478 99.0989 83.7182 99.157L87.1203 89.2655L85.8233 88.8223Z" fill="#1F196F"/>
<path d="M97.7199 76.7378C96.9883 75.2491 95.8298 74.0099 94.3912 73.1769C92.9525 72.344 91.2982 71.9548 89.6374 72.0584C87.9766 72.162 86.384 72.7539 85.0609 73.7592C83.7379 74.7645 82.7437 76.138 82.2043 77.7061C81.6649 79.2741 81.6044 80.9663 82.0304 82.5687C82.4565 84.171 83.35 85.6115 84.5979 86.708C85.8458 87.8045 87.3921 88.5077 89.0413 88.7288C90.6904 88.9499 92.3684 88.6789 93.8629 87.95C95.8668 86.9725 97.3989 85.2421 98.1222 83.1395C98.8455 81.0369 98.7008 78.7342 97.7199 76.7378ZM87.7212 87.6549C86.2852 87.1738 85.0246 86.2793 84.099 85.0846C83.1733 83.8899 82.624 82.4486 82.5207 80.943C82.4173 79.4373 82.7645 77.9349 83.5183 76.6258C84.2721 75.3167 85.3987 74.2597 86.7556 73.5884C88.1125 72.9171 89.6388 72.6616 91.1414 72.8544C92.6441 73.0472 94.0556 73.6794 95.1975 74.6713C96.3393 75.6632 97.1603 76.97 97.5566 78.4267C97.9528 79.8833 97.9066 81.4243 97.4236 82.8547C96.7758 84.7728 95.3897 86.3559 93.5702 87.2561C91.7507 88.1563 89.6468 88.2997 87.7212 87.6549Z" fill="#362E93"/>
<g style="mix-blend-mode:multiply">
<path d="M96.6602 76.3809C97.3382 78.1525 97.3298 80.1121 96.6366 81.8779C95.9434 83.6437 94.6152 85.0891 92.9106 85.9327C91.2059 86.7762 89.2471 86.9574 87.4157 86.4409C85.5844 85.9244 84.0116 84.7473 83.0039 83.1388C83.3845 84.1333 83.9697 85.0374 84.722 85.7932C85.4742 86.549 86.3769 87.1396 87.3719 87.5272C88.367 87.9148 89.4324 88.0908 90.4998 88.0438C91.5672 87.9968 92.6129 87.7279 93.5697 87.2544C94.5266 86.7809 95.3734 86.1133 96.0558 85.2943C96.7382 84.4754 97.2411 83.5234 97.5322 82.4993C97.8232 81.4753 97.896 80.402 97.7458 79.3482C97.5956 78.2945 97.2259 77.2837 96.6602 76.3809Z" fill="#E9EDF7"/>
</g>
<path d="M79.9003 153.319C79.5012 153.319 79.0024 153.763 78.9345 154.234H78.2012C77.7584 153.382 77.638 152.4 77.862 151.467C78.1005 150.486 78.3539 150.721 78.6093 150.976C79.1929 151.448 81.5704 151.604 81.758 150.808C82.3715 150.899 88.6909 152.711 88.6909 153.292C88.6909 154.237 87.9486 154.234 87.4428 154.234C81.4646 154.234 82.2558 153.868 79.9003 153.319Z" fill="#362E93"/>
<path d="M81.5323 148.401C81.3328 147.507 79.2726 146.878 78.8635 148.401C78.6101 149.344 78.4225 150.518 78.2988 150.808C78.8216 151.555 84.3248 152.956 85.2217 151.793C84.5972 151.458 81.1831 150.288 81.5323 148.401Z" fill="#F7D3C9"/>
<path d="M35.4043 146.443C35.5729 146.079 35.3783 145.44 34.9763 145.185L35.2836 144.523C36.2457 144.48 37.1913 144.783 37.9474 145.377C38.7455 146.005 38.4203 146.136 38.0811 146.259C37.4056 146.588 36.2653 148.673 36.9118 149.176C36.5716 149.692 32.2666 154.642 31.7368 154.401C30.8768 154.004 31.1911 153.335 31.4036 152.878C33.9137 147.472 33.9147 148.342 35.4043 146.443Z" fill="#362E93"/>
<path d="M38.5001 149.011C39.403 149.203 40.9574 147.252 39.4688 146.714C39.1276 146.59 38.5769 146.283 38.3644 146.05C37.4665 146.209 33.8748 150.596 34.5612 151.894C35.1279 151.471 37.0105 148.612 38.5001 149.011Z" fill="#F7D3C9"/>
<path d="M56.9761 118.663C56.1909 116.941 55.9655 111.507 56.2289 110.596C56.9183 109.602 60.06 107.714 61.9536 105.095C64.8917 101.041 66.5638 95.6777 66.5638 95.6777C62.8724 96.4062 57.4351 100.051 52.0975 108.615C50.9681 110.428 52.4826 116.657 55.4118 122.634C55.7819 121.591 56.3635 120.217 56.9761 118.663Z" fill="#F7D3C9"/>
<path d="M90.1616 118.267C90.1616 129.174 85.0046 139.262 81.9287 148.401H78.6074C79.5702 141.565 79.7378 132.307 79.7368 120.825C83.1858 118.268 86.1708 117.464 90.1616 118.267Z" fill="#1B4F65"/>
<path d="M90.1623 118.267C90.1623 114.304 67.474 114.952 55.1855 125.013C56.3828 128.871 57.7675 131.611 61.5777 134.019C65.1075 132.855 90.1623 128.946 90.1623 118.267Z" fill="#1B4F65"/>
<path d="M39.5366 146.553L38.4082 149.228C40.6759 149.792 57.4639 152.24 72.4082 154.222L69.04 143.22C56.6448 144.463 47.3315 145.477 39.5366 146.553Z" fill="#2C7EA0"/>
<path d="M55.4072 122.634C53.2672 127.929 59.7661 136.746 64.125 146.221C64.4801 146.995 68.6704 152.862 72.4057 154.222C78.0187 152.305 71.4579 128.558 70.4962 126.131C68.6983 127.412 55.4072 122.634 55.4072 122.634Z" fill="#2C7EA0"/>
<path d="M77.9618 88.331C77.6745 89.939 77.3123 94.8445 75.8807 96.207C74.7064 97.326 73.0991 97.0736 70.8923 95.4606C68.6854 93.8477 69.9943 89.3437 70.0821 87.9523C70.2178 85.7461 78.5714 84.946 77.9618 88.331Z" fill="#F8D8D0"/>
<path d="M73.1378 96.0722C73.027 96.901 72.9991 98.5945 72.9991 98.5945C72.5132 98.9463 70.0589 98.992 68.0605 96.8543C68.6921 95.463 69.6339 92.084 69.6339 92.084L73.1378 96.0722Z" fill="#F8D8D0"/>
<path d="M71.2902 126.743C70.9709 111.208 77.0857 113.613 76.6367 110.075C75.9942 105.007 75.9164 103.948 75.4395 101.37C74.9467 98.6872 66.7357 94.0292 60.5661 98.235C58.6106 99.5687 60.1341 106.11 58.453 112.95C56.9175 119.203 56.1394 120.857 55 122.507C63.1241 128.076 71.2902 126.743 71.2902 126.743Z" fill="#FCBA06"/>
<path d="M77.6981 89.6603C79.465 89.6196 81.7886 85.055 77.2991 84.9894C72.8095 84.9238 68.4396 85.202 68.6721 88.269C68.9046 91.3359 66.5031 91.0079 65.28 93.6048C64.2304 95.8339 65.291 97.4558 62.5862 98.3552C60.557 99.03 61.3551 101.369 60.4412 102.088C58.3132 103.758 57.4362 106.639 60.6927 108.97C65.3498 112.303 71.3898 113.804 70.3113 109.844C69.4423 106.652 69.7795 106.732 71.3718 105.622C72.9641 104.512 69.9472 101.417 71.8567 100.423C72.9312 99.8659 71.8338 96.7532 72.6389 95.3549C73.2674 94.2687 74.8029 95.0866 75.4324 93.09C76.1936 90.6919 75.7477 89.705 77.6981 89.6603Z" fill="#1B4F65"/>
<path d="M84.3033 96.3222C83.6488 95.714 83.2826 94.7043 83.8882 93.3924C84.4938 92.0806 84.2224 90.7777 84.9857 91.2676C85.7489 91.7576 87.5287 91.6055 87.8171 91.4664C88.7469 91.7834 87.2115 94.5234 86.7256 95.1028C86.2397 95.6822 84.3033 96.3222 84.3033 96.3222Z" fill="#F7D3C9"/>
<path d="M74.8474 100.206C79.9994 103.54 87.2566 105.405 87.7764 103.892C87.1259 102.566 84.3034 96.322 84.3034 96.322C85.8748 95.2695 86.7228 95.1016 86.7228 95.1016C90.6298 100.937 95.674 107.12 93.7675 108.816C91.403 110.918 81.3074 109.347 76.4846 108.287C73.6362 107.66 71.9052 106.344 72.004 103.109C72.0629 101.139 73.0526 99.045 74.8474 100.206Z" fill="#F7D3C9"/>
</g>
<defs>
<clipPath id="clip0_477_3482">
<rect width="201" height="158" fill="white"/>
</clipPath>
</defs>
</svg>
