<svg width="181" height="161" viewBox="0 0 181 161" fill="none" xmlns="http://www.w3.org/2000/svg">
<g clip-path="url(#clip0_477_3244)">
<path d="M47.5508 130.302C47.3476 142.158 37.6726 147.51 23.9395 145.338C26.2513 134.679 35.9502 124.621 47.5508 130.302Z" fill="#C3DAE4"/>
<path d="M50.2933 125.137C39.1304 140.357 21.6361 138.339 5.78516 122.777C18.5886 111.062 40.439 106.994 50.2933 125.137Z" fill="#2C7EA0"/>
<path d="M50.2937 125.414H50.2634C46.7037 125.02 40.673 124.869 34.2892 124.71C26.5343 124.517 17.744 124.298 11.1937 123.602C11.1575 123.598 11.1224 123.587 11.0904 123.569C11.0584 123.552 11.0301 123.528 11.0071 123.5C10.9842 123.472 10.9671 123.439 10.9567 123.404C10.9464 123.369 10.943 123.332 10.9468 123.295C10.9506 123.259 10.9615 123.224 10.9789 123.192C10.9963 123.159 11.0198 123.131 11.0481 123.108C11.0764 123.085 11.109 123.068 11.1439 123.057C11.1788 123.047 11.2154 123.044 11.2517 123.047C17.7808 123.744 26.5582 123.962 34.3021 124.156C40.6987 124.316 46.7404 124.466 50.3241 124.864C50.3972 124.868 50.4658 124.901 50.5147 124.956C50.5636 125.01 50.5888 125.083 50.5848 125.156C50.5808 125.23 50.5478 125.298 50.4933 125.348C50.4387 125.397 50.3669 125.422 50.2937 125.418V125.414Z" fill="white"/>
<path d="M145.36 136.163C143.873 143.904 149.436 148.721 158.667 149.2C158.619 141.945 153.683 134.067 145.36 136.163Z" fill="#C3DAE4"/>
<path d="M75.4958 37.6136C71.5296 29.2565 76.4356 22.1309 86.7865 18.8457C88.8666 27.1067 85.5717 37.5258 75.4958 37.6136Z" fill="#95BFD0"/>
<path d="M75.7427 25.9048C75.7242 25.9047 75.7057 25.9028 75.6876 25.8992C75.6521 25.8919 75.6183 25.8777 75.5883 25.8573C75.5583 25.837 75.5325 25.8108 75.5125 25.7805C75.4925 25.7501 75.4787 25.7161 75.4718 25.6803C75.4649 25.6446 75.4651 25.6078 75.4724 25.5722C76.2927 21.5313 81.2272 8.54759 85.0361 1.86081C85.0542 1.82921 85.0784 1.8015 85.1071 1.77926C85.1359 1.75703 85.1688 1.74071 85.2038 1.73123C85.2389 1.72175 85.2754 1.7193 85.3114 1.72401C85.3474 1.72873 85.3821 1.74053 85.4136 1.75873C85.4451 1.77692 85.4726 1.80117 85.4948 1.83007C85.5169 1.85898 85.5332 1.89199 85.5426 1.9272C85.552 1.96242 85.5545 1.99916 85.5498 2.03532C85.5451 2.07148 85.5333 2.10636 85.5152 2.13796C81.7329 8.78502 76.8315 21.6763 76.0177 25.6849C76.0045 25.7479 75.9698 25.8044 75.9196 25.8445C75.8694 25.8846 75.8069 25.9059 75.7427 25.9048Z" fill="#DAE0F5"/>
<path d="M84.8612 1.60278C84.7783 1.44424 84.7441 1.26457 84.7628 1.08648C84.7816 0.908397 84.8525 0.739899 84.9666 0.602299C85.0806 0.464699 85.2328 0.364179 85.4037 0.313452C85.5747 0.262724 85.7568 0.264066 85.927 0.317311C86.0972 0.370557 86.2478 0.473313 86.3599 0.612581C86.4719 0.75185 86.5404 0.921376 86.5565 1.09972C86.5727 1.27806 86.5358 1.45721 86.4506 1.61451C86.3654 1.7718 86.2357 1.90018 86.0778 1.9834C85.9731 2.03876 85.8585 2.07283 85.7406 2.08366C85.6228 2.09449 85.504 2.08187 85.391 2.04652C85.2779 2.01117 85.173 1.95378 85.0821 1.87764C84.9912 1.80149 84.9161 1.70809 84.8612 1.60278V1.60278Z" stroke="#DAE0F5" stroke-width="6" stroke-linecap="round" stroke-linejoin="round"/>
<path d="M78.332 6.4367C78.2519 6.28312 78.219 6.10916 78.2374 5.93679C78.2557 5.76442 78.3245 5.60139 78.4351 5.46829C78.5457 5.3352 78.693 5.23802 78.8585 5.18904C79.0241 5.14006 79.2003 5.14148 79.3651 5.19311C79.5298 5.24475 79.6756 5.34428 79.784 5.47913C79.8924 5.61398 79.9586 5.7781 79.9743 5.95074C79.9899 6.12338 79.9542 6.2968 79.8717 6.44907C79.7892 6.60134 79.6637 6.72563 79.5109 6.80624C79.3058 6.91419 79.0664 6.93591 78.8453 6.86661C78.6242 6.79732 78.4396 6.64269 78.332 6.4367V6.4367Z" stroke="#DAE0F5" stroke-width="6" stroke-linecap="round" stroke-linejoin="round"/>
<path d="M82.3108 14.5269C82.2197 14.3526 82.1821 14.1552 82.2028 13.9595C82.2234 13.7637 82.3014 13.5786 82.4268 13.4274C82.5522 13.2762 82.7194 13.1658 82.9073 13.11C83.0951 13.0543 83.2953 13.0558 83.4823 13.1144C83.6693 13.1729 83.8349 13.2859 83.958 13.4389C84.0811 13.592 84.1563 13.7783 84.174 13.9743C84.1918 14.1703 84.1512 14.3671 84.0576 14.54C83.9639 14.7128 83.8214 14.8539 83.6479 14.9454C83.4153 15.068 83.1438 15.0927 82.8931 15.0143C82.6423 14.9358 82.4329 14.7605 82.3108 14.5269V14.5269Z" stroke="#DAE0F5" stroke-width="6" stroke-linecap="round" stroke-linejoin="round"/>
<path d="M74.8912 15.9393C74.7858 15.7377 74.7423 15.5093 74.7661 15.2828C74.79 15.0564 74.8802 14.8422 75.0252 14.6672C75.1703 14.4923 75.3638 14.3645 75.5811 14.3C75.7985 14.2356 76.03 14.2373 76.2464 14.305C76.4628 14.3727 76.6543 14.5034 76.7968 14.6805C76.9392 14.8576 77.0262 15.0732 77.0467 15.2999C77.0672 15.5267 77.0203 15.7544 76.9119 15.9544C76.8036 16.1544 76.6386 16.3176 76.4379 16.4234C76.1689 16.5652 75.8548 16.5938 75.5648 16.5031C75.2747 16.4123 75.0324 16.2095 74.8912 15.9393V15.9393Z" stroke="#DAE0F5" stroke-width="6" stroke-linecap="round" stroke-linejoin="round"/>
<path d="M86.5227 4.21257C86.4542 4.08106 86.426 3.93211 86.4417 3.78452C86.4574 3.63693 86.5163 3.49733 86.611 3.38333C86.7056 3.26934 86.8317 3.18607 86.9734 3.14403C87.1151 3.102 87.266 3.10308 87.4071 3.14715C87.5482 3.19121 87.6731 3.27629 87.7661 3.39163C87.8591 3.50697 87.916 3.64741 87.9296 3.7952C87.9432 3.943 87.9129 4.09154 87.8425 4.22205C87.7722 4.35257 87.6649 4.45922 87.5343 4.52853C87.4472 4.57458 87.352 4.60293 87.254 4.61197C87.156 4.62101 87.0572 4.61056 86.9633 4.58122C86.8693 4.55187 86.7821 4.50421 86.7065 4.44096C86.6309 4.3777 86.5684 4.30009 86.5227 4.21257V4.21257Z" stroke="#DAE0F5" stroke-width="6" stroke-linecap="round" stroke-linejoin="round"/>
<path d="M83.3027 6.06927C83.2495 6.06917 83.1974 6.0536 83.1528 6.02446C83.1082 5.99531 83.0729 5.95383 83.0513 5.90501C83.0296 5.85619 83.0224 5.80212 83.0307 5.74931C83.0389 5.69649 83.0621 5.6472 83.0976 5.60735C83.5436 5.11033 84.82 4.53385 85.9814 4.0322L86.3686 3.86314C86.4349 3.83536 86.5094 3.83468 86.5762 3.86122C86.643 3.88776 86.6969 3.93945 86.7263 4.00527C86.7558 4.0711 86.7585 4.14588 86.734 4.21371C86.7094 4.28154 86.6595 4.33707 86.5948 4.36848C86.4955 4.41375 86.3594 4.47195 86.1994 4.54124C85.4563 4.86273 83.9096 5.53067 83.5077 5.97874C83.4817 6.0074 83.4501 6.03026 83.4148 6.04586C83.3794 6.06145 83.3412 6.06943 83.3027 6.06927Z" fill="#DAE0F5"/>
<path d="M80.9074 11.3873C80.8385 11.3876 80.772 11.362 80.7209 11.3155C80.6699 11.269 80.638 11.205 80.6316 11.136C80.4808 9.5304 79.5152 7.41295 79.265 6.93348C79.233 6.86863 79.2276 6.79378 79.2498 6.72493C79.272 6.65607 79.3201 6.59867 79.3839 6.56501C79.4477 6.53134 79.522 6.52408 79.5911 6.54477C79.6601 6.56546 79.7184 6.61246 79.7534 6.67573C80.0743 7.28916 81.0233 9.41585 81.1806 11.0843C81.1875 11.1574 81.1652 11.2303 81.1187 11.287C81.0721 11.3436 81.0051 11.3794 80.9323 11.3864L80.9074 11.3873Z" fill="#DAE0F5"/>
<path d="M78.867 16.4451C78.7989 16.444 78.7335 16.4181 78.6831 16.3721C78.6564 16.3475 78.6348 16.3178 78.6195 16.2848C78.6042 16.2518 78.5955 16.2161 78.594 16.1797C78.5925 16.1434 78.5981 16.107 78.6105 16.0728C78.623 16.0386 78.642 16.0072 78.6665 15.9804C79.3102 15.2811 81.6625 14.3055 82.2897 14.2501C82.3259 14.2469 82.3624 14.251 82.3971 14.262C82.4317 14.273 82.4639 14.2907 82.4918 14.3143C82.5196 14.3378 82.5425 14.3665 82.5593 14.399C82.5761 14.4314 82.5863 14.4668 82.5895 14.5032C82.5926 14.5396 82.5886 14.5763 82.5776 14.6111C82.5667 14.6459 82.549 14.6782 82.5256 14.7062C82.5022 14.7342 82.4735 14.7572 82.4413 14.7741C82.409 14.7909 82.3737 14.8012 82.3375 14.8044C81.828 14.8487 79.5889 15.792 79.073 16.3564C79.0467 16.3849 79.0148 16.4075 78.9793 16.4227C78.9439 16.438 78.9056 16.4456 78.867 16.4451Z" fill="#DAE0F5"/>
<path d="M77.1765 21.0825C77.1066 21.0827 77.0392 21.0561 76.9879 21.0083C76.9367 20.9604 76.9055 20.8948 76.9006 20.8247C76.8611 20.2797 76.0546 17.4296 75.8054 16.624C75.7837 16.5538 75.7906 16.4778 75.8247 16.4128C75.8587 16.3477 75.9171 16.2989 75.987 16.2771C76.0569 16.2553 76.1325 16.2623 76.1973 16.2965C76.262 16.3307 76.3106 16.3894 76.3323 16.4596C76.4344 16.7903 77.4 20.0746 77.4505 20.785C77.4532 20.8214 77.4486 20.8579 77.4372 20.8925C77.4258 20.927 77.4077 20.959 77.3839 20.9866C77.3602 21.0141 77.3313 21.0367 77.2988 21.053C77.2664 21.0693 77.2311 21.079 77.1949 21.0816L77.1765 21.0825Z" fill="#DAE0F5"/>
<path d="M143.766 130.353C146.708 141.145 156.794 143.77 168.846 138.564C164.252 129.357 153.052 122.44 143.766 130.353Z" fill="#F2FBFF"/>
<path d="M74.7766 37.3407C80.3861 26.0449 73.857 16.218 59.8167 11.498C56.7802 22.7098 61.0297 36.985 74.7766 37.3407Z" fill="#2C7EA0"/>
<path d="M74.775 37.6176C74.7293 37.6178 74.6843 37.6066 74.644 37.585C74.6037 37.5634 74.5694 37.5321 74.5441 37.4939C73.2117 35.4725 71.2805 31.9111 69.2363 28.1409C66.7626 23.5789 63.9597 18.4091 61.5605 14.7285C61.5375 14.6983 61.521 14.6636 61.5119 14.6267C61.5029 14.5898 61.5015 14.5514 61.5078 14.5139C61.5142 14.4764 61.5281 14.4406 61.5488 14.4088C61.5695 14.377 61.5965 14.3497 61.6281 14.3288C61.6598 14.3079 61.6953 14.2938 61.7326 14.2873C61.7699 14.2808 61.8081 14.2821 61.8449 14.291C61.8817 14.3 61.9163 14.3165 61.9464 14.3395C61.9766 14.3625 62.0017 14.3914 62.0203 14.4246C64.4314 18.1246 67.2408 23.3045 69.7181 27.8748C71.7578 31.6358 73.6834 35.187 74.9993 37.1881C75.0267 37.2298 75.0423 37.2782 75.0445 37.3282C75.0467 37.3781 75.0355 37.4277 75.0119 37.4717C74.9884 37.5158 74.9534 37.5526 74.9107 37.5783C74.868 37.6039 74.8192 37.6176 74.7694 37.6176H74.775Z" fill="#95BFD0"/>
<path d="M143.594 128.028C141.983 125.313 140.231 117.312 146.141 113.76C148.816 112.154 149.613 111.891 150.812 112.262C151.593 112.503 152.127 113.105 152.77 112.76C153.944 112.128 151.593 107.713 155.637 105.01C159.681 102.307 162.258 104.74 163.343 103.994C164.428 103.247 163.843 101.267 166.102 100.733C168.36 100.198 169.309 103.907 172.305 103.622C175.423 103.327 180.699 103.984 180.978 106.957C181.258 109.93 178.84 110.039 177.771 111.781C176.701 113.522 177.403 119.374 172.795 119.811C168.219 120.246 166.459 119.734 164.953 125.315C163.448 130.896 157.964 132.697 155.326 131.708C152.688 130.72 153.132 132.297 154.407 133.355C155.681 134.414 153.27 135.223 151.301 134.61C149.332 133.996 145.616 131.435 143.594 128.028Z" fill="#C3DAE4"/>
<path d="M142.541 129.484C142.48 129.484 142.421 129.464 142.373 129.426C142.344 129.404 142.32 129.376 142.302 129.344C142.284 129.313 142.272 129.278 142.268 129.242C142.263 129.206 142.266 129.169 142.275 129.134C142.285 129.099 142.301 129.066 142.323 129.037C151.953 116.547 165.87 109.839 175.684 107.726C175.72 107.718 175.756 107.718 175.792 107.724C175.827 107.731 175.861 107.744 175.892 107.764C175.922 107.784 175.949 107.81 175.969 107.84C175.99 107.869 176.004 107.903 176.012 107.939C176.02 107.974 176.02 108.011 176.014 108.047C176.007 108.083 175.994 108.117 175.974 108.148C175.954 108.178 175.929 108.205 175.899 108.225C175.869 108.246 175.835 108.261 175.8 108.268C166.082 110.361 152.298 117.004 142.76 129.377C142.734 129.411 142.701 129.438 142.663 129.456C142.625 129.475 142.583 129.484 142.541 129.484Z" fill="white"/>
<path d="M167.426 110.86C167.409 110.86 167.392 110.859 167.376 110.855C167.304 110.842 167.24 110.8 167.199 110.74C167.157 110.68 167.141 110.605 167.155 110.533C167.282 109.832 167.43 106.762 166.84 105.072C166.816 105.002 166.82 104.926 166.851 104.86C166.883 104.794 166.939 104.742 167.008 104.718C167.077 104.693 167.153 104.698 167.219 104.729C167.285 104.761 167.336 104.818 167.36 104.887C167.997 106.702 167.835 109.876 167.697 110.632C167.686 110.696 167.652 110.753 167.603 110.795C167.553 110.837 167.49 110.86 167.426 110.86Z" fill="white"/>
<path d="M173.247 112.85C173.208 112.85 173.169 112.842 173.133 112.826C173.098 112.81 173.066 112.787 173.04 112.758C172.526 112.171 170.465 110.464 169.469 110.02C169.436 110.005 169.406 109.984 169.381 109.958C169.356 109.932 169.336 109.901 169.323 109.867C169.297 109.798 169.299 109.722 169.328 109.654C169.358 109.587 169.413 109.534 169.481 109.508C169.55 109.481 169.626 109.483 169.692 109.513C170.765 109.992 172.9 111.76 173.454 112.392C173.489 112.432 173.512 112.481 173.521 112.534C173.529 112.587 173.521 112.641 173.5 112.69C173.478 112.739 173.442 112.781 173.397 112.81C173.352 112.839 173.3 112.854 173.247 112.854V112.85Z" fill="white"/>
<path d="M158.734 115.202C158.692 115.202 158.65 115.192 158.612 115.173C158.574 115.154 158.541 115.127 158.515 115.093C158.489 115.059 158.472 115.02 158.463 114.978C158.455 114.937 158.457 114.894 158.468 114.853C158.812 113.559 159.15 111.507 158.1 108.604C158.079 108.536 158.086 108.463 158.118 108.399C158.15 108.335 158.205 108.287 158.272 108.263C158.339 108.239 158.412 108.242 158.477 108.271C158.541 108.301 158.593 108.354 158.619 108.42C159.848 111.821 159.21 114.214 158.999 115C158.983 115.058 158.948 115.109 158.9 115.146C158.852 115.182 158.794 115.202 158.734 115.202Z" fill="white"/>
<path d="M167.162 116.508C167.098 116.508 167.036 116.485 166.987 116.444C165.805 115.462 162.948 113.521 161.985 113.341C161.913 113.327 161.85 113.286 161.808 113.225C161.767 113.164 161.751 113.09 161.764 113.017C161.778 112.945 161.819 112.881 161.88 112.84C161.94 112.798 162.014 112.782 162.086 112.796C163.26 113.017 166.3 115.153 167.338 116.017C167.382 116.053 167.413 116.102 167.428 116.157C167.443 116.212 167.441 116.271 167.422 116.324C167.402 116.378 167.367 116.424 167.321 116.457C167.275 116.49 167.219 116.508 167.162 116.508Z" fill="white"/>
<path d="M156.304 122.098C156.24 122.098 156.178 122.075 156.128 122.034C155.964 121.897 155.789 121.746 155.605 121.587C154.7 120.804 153.574 119.832 152.396 119.51C152.325 119.491 152.265 119.445 152.228 119.381C152.192 119.317 152.182 119.241 152.201 119.17C152.22 119.099 152.266 119.039 152.33 119.002C152.393 118.965 152.469 118.955 152.539 118.974C153.84 119.327 155.022 120.347 155.966 121.167C156.15 121.324 156.318 121.472 156.481 121.607C156.524 121.644 156.556 121.693 156.571 121.748C156.586 121.803 156.583 121.861 156.564 121.915C156.545 121.969 156.509 122.015 156.463 122.048C156.416 122.08 156.361 122.098 156.304 122.098Z" fill="white"/>
<path d="M149.196 122.285C149.159 122.285 149.123 122.278 149.09 122.264C149.022 122.236 148.969 122.182 148.941 122.114C148.913 122.046 148.913 121.97 148.941 121.902C149.469 120.626 149.554 117.849 149.125 115.837C149.11 115.765 149.123 115.69 149.163 115.628C149.203 115.567 149.266 115.523 149.337 115.508C149.409 115.493 149.484 115.507 149.545 115.547C149.606 115.587 149.649 115.65 149.665 115.721C150.117 117.861 150.02 120.73 149.447 122.114C149.426 122.164 149.391 122.207 149.347 122.238C149.302 122.268 149.25 122.285 149.196 122.285Z" fill="white"/>
<path d="M48.0855 119.05C52.209 116.414 54.9447 108.712 52.8674 104.361C50.79 100.011 46.2997 100.808 45.8279 98.1373C45.3562 95.4664 48.6658 90.7299 46.5351 87.7126C42.7482 82.3543 35.2021 90.0924 32.0056 86.4294C28.8091 82.7664 33.293 78.7227 30.8405 74.8306C28.3879 70.9384 22.5301 77.688 17.9469 74.4703C13.3637 71.2525 2.40398 66.2028 0.263178 72.9108C-1.42887 78.2146 5.56093 77.5125 6.35546 79.7796C7.26218 82.3663 4.13373 83.9138 5.75405 86.5449C8.04291 90.2615 13.4832 88.3501 14.858 91.712C16.2328 95.0738 12.2666 97.7493 16.1794 100.496C21.0229 103.897 25.9887 95.9607 29.622 102.857C33.2553 109.754 23.2713 110.468 24.9165 115.043C26.7115 120.037 35.2848 115.83 35.6757 119.424C36.2164 124.313 41.6916 123.141 48.0855 119.05Z" fill="#FFB50F"/>
<path d="M49.12 118.535C49.0668 118.535 49.0147 118.52 48.97 118.491C48.9253 118.462 48.8899 118.42 48.868 118.372C48.6887 117.972 48.5922 117.371 48.4827 116.676C48.2409 115.158 47.9402 113.269 46.6435 112.356C45.9079 111.837 45.0959 111.433 44.2397 111.011C42.8217 110.307 41.3559 109.579 40.2009 108.27C37.8587 105.615 37.4624 102.84 37.1129 100.391C36.8564 98.5994 36.6357 97.0529 35.7032 95.887C34.9225 94.9114 34.0709 94.9133 32.9858 94.9151C31.8823 94.9151 30.616 94.9198 29.152 93.8915C27.7285 92.8919 27.4444 91.9884 27.1703 91.1144C26.8825 90.1961 26.5845 89.2473 24.853 88.0316C23.3816 87.0015 22.3701 87.0153 21.2978 87.0246C20.1741 87.0366 19.0154 87.0495 17.3261 85.9779C14.1673 83.9759 13.2036 81.4427 12.4992 79.5932C12.1038 78.5539 11.792 77.7326 11.2311 77.3759C9.89399 76.5371 8.89256 77.1977 8.88337 77.205C8.82239 77.2463 8.74759 77.2616 8.67542 77.2475C8.60325 77.2333 8.53961 77.191 8.49852 77.1297C8.45742 77.0685 8.44223 76.9933 8.45628 76.9208C8.47034 76.8483 8.51249 76.7844 8.57346 76.7431C8.6268 76.7071 9.8848 75.8756 11.5235 76.9039C12.2408 77.3538 12.5829 78.2518 13.0151 79.3881C13.691 81.1646 14.617 83.598 17.6204 85.5021C19.1717 86.486 20.2017 86.4758 21.2914 86.4629C22.4059 86.4499 23.5563 86.4379 25.1684 87.5715C27.0545 88.8954 27.3956 89.9827 27.6963 90.9426C27.9658 91.7999 28.1975 92.5399 29.4675 93.4314C30.7898 94.3553 31.9062 94.3553 32.9849 94.3553C34.1132 94.3553 35.1864 94.3553 36.1326 95.5341C37.1607 96.8183 37.4026 98.5126 37.6592 100.307C37.9976 102.678 38.382 105.366 40.6138 107.897C41.6971 109.125 43.1142 109.829 44.4844 110.509C45.3212 110.924 46.1865 111.354 46.959 111.894C48.4515 112.942 48.7862 115.046 49.0308 116.582C49.1356 117.237 49.2258 117.803 49.3747 118.137C49.3936 118.179 49.4017 118.225 49.3982 118.271C49.3947 118.317 49.3798 118.362 49.3549 118.401C49.3299 118.44 49.2957 118.472 49.2553 118.494C49.2149 118.516 49.1697 118.528 49.1237 118.528L49.12 118.535Z" fill="#AE7C0C"/>
<path d="M111.836 156.403C111.836 153.969 122.516 151.997 135.69 151.997C148.864 151.997 159.544 153.969 159.544 156.403C159.544 158.836 148.864 160.809 135.69 160.809C122.516 160.809 111.836 158.837 111.836 156.403Z" fill="#E9EDF7"/>
<path d="M26.791 149.903C26.791 147.469 48.1549 145.497 74.5076 145.497C100.86 145.497 122.227 147.469 122.227 149.903C122.227 152.336 100.864 154.309 74.5103 154.309C48.1567 154.309 26.791 152.336 26.791 149.903Z" fill="#E9EDF7"/>
<path d="M112.312 35.7201C112.087 35.7127 44.9474 35.7201 44.9474 35.7201C61.0852 36.291 48.7444 115.513 41.1504 149.907H108.515C116.11 115.513 128.451 36.291 112.312 35.7201Z" fill="#F2FBFF"/>
<path d="M39.0948 101.086C38.6643 101.242 38.213 101.333 37.7559 101.356H49.6185C53.9406 68.8434 55.3099 36.0867 44.9535 35.7199C28.8092 35.1499 60.2453 93.9304 39.0948 101.086Z" fill="#C3DAE4"/>
<path d="M39.0947 101.085C48.709 97.8332 47.463 83.9164 44.7502 69.7539H37.57C41.1564 84.0042 30.7072 103.921 39.0947 101.085Z" fill="#F2FBFF"/>
<path d="M77.0166 48.2785C77.8434 48.2785 78.5137 47.6052 78.5137 46.7745C78.5137 45.9439 77.8434 45.2705 77.0166 45.2705C76.1898 45.2705 75.5195 45.9439 75.5195 46.7745C75.5195 47.6052 76.1898 48.2785 77.0166 48.2785Z" fill="#C3DAE4"/>
<path d="M83.4756 48.2785C84.3024 48.2785 84.9727 47.6052 84.9727 46.7745C84.9727 45.9439 84.3024 45.2705 83.4756 45.2705C82.6488 45.2705 81.9785 45.9439 81.9785 46.7745C81.9785 47.6052 82.6488 48.2785 83.4756 48.2785Z" fill="#C3DAE4"/>
<path d="M89.9326 48.2785C90.7594 48.2785 91.4297 47.6052 91.4297 46.7745C91.4297 45.9439 90.7594 45.2705 89.9326 45.2705C89.1058 45.2705 88.4355 45.9439 88.4355 46.7745C88.4355 47.6052 89.1058 48.2785 89.9326 48.2785Z" fill="#C3DAE4"/>
<path d="M94.8926 46.7745C94.8926 46.4771 94.9804 46.1863 95.1449 45.9389C95.3094 45.6916 95.5432 45.4988 95.8168 45.385C96.0903 45.2712 96.3913 45.2414 96.6817 45.2994C96.9721 45.3574 97.2389 45.5007 97.4482 45.711C97.6576 45.9214 97.8002 46.1894 97.858 46.4811C97.9157 46.7729 97.8861 47.0753 97.7728 47.3501C97.6595 47.6249 97.4676 47.8598 97.2214 48.0251C96.9752 48.1903 96.6858 48.2786 96.3897 48.2786C95.9926 48.2786 95.6118 48.1201 95.3311 47.838C95.0503 47.556 94.8926 47.1734 94.8926 46.7745Z" fill="#C3DAE4"/>
<path d="M56.0492 80.7402C56.0106 81.1966 55.9708 81.6545 55.9297 82.114H114.828C114.87 81.6545 114.909 81.1966 114.948 80.7402H56.0492Z" fill="#C3DAE4"/>
<path d="M55.6244 85.3691C55.5802 85.8255 55.5349 86.2834 55.4883 86.7428H114.387C114.434 86.284 114.479 85.8261 114.524 85.3691H55.6244Z" fill="#C3DAE4"/>
<path d="M114.042 89.998H55.1459C55.0962 90.4544 55.0456 90.912 54.9941 91.3709H113.893C113.944 90.9126 113.994 90.455 114.042 89.998Z" fill="#C3DAE4"/>
<path d="M56.4108 76.1133C56.3789 76.569 56.3455 77.0267 56.3105 77.4861H115.21C115.244 77.0267 115.277 76.569 115.31 76.1133H56.4108Z" fill="#C3DAE4"/>
<path d="M57.0009 62.2285C56.9972 62.6824 56.9917 63.1403 56.9844 63.6023H115.879C115.887 63.1403 115.893 62.6824 115.897 62.2285H57.0009Z" fill="#C3DAE4"/>
<path d="M56.7012 71.4893C56.6767 71.945 56.6506 72.4029 56.623 72.863H115.523C115.549 72.4011 115.576 71.9447 115.6 71.4893H56.7012Z" fill="#C3DAE4"/>
<path d="M56.9688 57.6006C56.9798 58.0533 56.9884 58.5112 56.9945 58.9743H115.893C115.887 58.5118 115.878 58.0539 115.868 57.6006H56.9688Z" fill="#C3DAE4"/>
<path d="M56.7617 52.9727C56.793 53.4226 56.8197 53.8817 56.8445 54.3455H115.744C115.718 53.8836 115.692 53.4216 115.661 52.9727H56.7617Z" fill="#C3DAE4"/>
<path d="M56.9032 66.8564C56.8885 67.3116 56.8719 67.7695 56.8535 68.2302H115.752C115.771 67.7689 115.788 67.311 115.803 66.8564H56.9032Z" fill="#C3DAE4"/>
<path d="M52.5048 110.305C52.4368 110.763 52.3681 111.221 52.2988 111.678H69.5135C69.5828 111.221 69.6515 110.764 69.7195 110.305H52.5048Z" fill="#C3DAE4"/>
<path d="M53.0249 106.734C52.9593 107.193 52.8937 107.651 52.8281 108.108H70.0428C70.109 107.651 70.1746 107.193 70.2396 106.734H53.0249Z" fill="#C3DAE4"/>
<path d="M62.8504 115.248C62.9221 114.791 62.9932 114.334 63.0637 113.875H51.9643C51.8932 114.333 51.8217 114.791 51.75 115.248H62.8504Z" fill="#C3DAE4"/>
<path d="M94.0283 110.305C93.9602 110.763 93.8915 111.221 93.8223 111.678H111.65C111.72 111.221 111.788 110.764 111.856 110.305H94.0283Z" fill="#C3DAE4"/>
<path d="M96.4878 106.734C96.4228 107.193 96.3572 107.651 96.291 108.108H112.177C112.243 107.651 112.309 107.193 112.375 106.734H96.4878Z" fill="#C3DAE4"/>
<path d="M111.098 115.248C111.169 114.791 111.241 114.334 111.312 113.875H93.4857C93.4152 114.333 93.3438 114.791 93.2715 115.248H111.098Z" fill="#C3DAE4"/>
<path d="M105.453 144.033C105.731 142.688 106.012 141.299 106.295 139.867H47.3952C47.112 141.299 46.8318 142.687 46.5547 144.033H105.453Z" fill="#C3DAE4"/>
<path d="M64.3599 134.438C63.4468 134.438 62.9686 133.675 62.6421 132.919C62.2145 133.625 61.5028 134.438 60.493 134.438C59.7316 134.438 59.1955 133.765 58.8828 133.034C58.389 133.773 57.657 134.438 56.9517 134.438C55.9264 134.438 55.3765 133.654 54.9764 132.834C54.3226 133.899 53.5971 134.438 52.8264 134.438C51.4149 134.438 50.6194 132.444 50.4778 132.045C50.4568 131.993 50.4465 131.938 50.4473 131.882C50.4482 131.826 50.4602 131.771 50.4828 131.72C50.5053 131.669 50.5379 131.623 50.5786 131.585C50.6192 131.546 50.6671 131.517 50.7194 131.498C50.7716 131.479 50.8272 131.47 50.8828 131.473C50.9383 131.476 50.9927 131.49 51.0427 131.515C51.0927 131.539 51.1373 131.574 51.1737 131.616C51.2102 131.658 51.2378 131.707 51.2549 131.76C51.5868 132.678 52.2333 133.608 52.8264 133.608C53.4058 133.608 54.0504 132.938 54.6408 131.723C54.6751 131.651 54.7292 131.591 54.7965 131.549C54.8639 131.508 54.9417 131.487 55.0207 131.488C55.0997 131.49 55.1766 131.514 55.2423 131.558C55.3079 131.602 55.3596 131.665 55.3912 131.737L55.4509 131.874C55.9107 132.921 56.2565 133.608 56.9517 133.608C57.4437 133.608 58.3182 132.633 58.595 131.776C58.6238 131.687 58.6821 131.609 58.7602 131.557C58.8383 131.505 58.9317 131.482 59.0251 131.49C59.1185 131.498 59.2063 131.538 59.2742 131.603C59.342 131.668 59.386 131.754 59.3987 131.847C59.5137 132.679 60.0047 133.608 60.4921 133.608C61.2821 133.608 61.9635 132.607 62.3019 131.75C62.3323 131.673 62.3852 131.607 62.4537 131.56C62.5222 131.513 62.603 131.488 62.6858 131.488C62.7686 131.488 62.8495 131.513 62.9179 131.56C62.9864 131.607 63.0393 131.673 63.0697 131.75C63.1084 131.843 63.1461 131.946 63.1856 132.05C63.5222 132.933 63.822 133.608 64.359 133.608C65.5177 133.608 68.167 131.305 68.9569 124.185C68.9614 124.129 68.9769 124.075 69.0026 124.026C69.0282 123.977 69.0634 123.933 69.1062 123.898C69.149 123.862 69.1984 123.836 69.2515 123.82C69.3046 123.804 69.3603 123.799 69.4154 123.805C69.4705 123.811 69.5238 123.829 69.5721 123.856C69.6204 123.883 69.6628 123.92 69.6967 123.964C69.7306 124.008 69.7553 124.058 69.7695 124.112C69.7837 124.166 69.7869 124.222 69.7791 124.277C68.9533 131.732 66.086 134.438 64.3599 134.438Z" fill="#1B4F65"/>
<path d="M101.526 135.116C101.271 135.113 101.022 135.05 100.796 134.931C100.028 134.541 99.5769 133.939 99.4565 133.142C99.2781 131.958 99.9089 130.457 100.814 128.998C99.9089 128.491 98.9911 128.322 98.0771 128.495C96.4862 128.795 95.1942 130.087 94.5707 131.101C94.5181 131.187 94.4364 131.25 94.3408 131.28C94.2452 131.31 94.1421 131.303 94.0506 131.263C93.9592 131.222 93.8855 131.149 93.8433 131.058C93.8012 130.967 93.7933 130.863 93.8212 130.767C94.3279 129.018 94.8015 126.041 94.0309 125.009C93.9445 124.891 93.8298 124.796 93.6975 124.733C93.5651 124.671 93.4192 124.642 93.2732 124.651C92.6736 124.651 92.2616 125.335 92.0299 125.908C91.0615 128.255 91.2942 132.569 92.451 133.731C92.4894 133.77 92.5199 133.816 92.5406 133.866C92.5614 133.917 92.5721 133.971 92.572 134.025C92.572 134.08 92.5612 134.134 92.5404 134.184C92.5196 134.235 92.489 134.281 92.4506 134.319C92.4121 134.358 92.3665 134.388 92.3162 134.409C92.266 134.43 92.2122 134.441 92.1578 134.441C92.1035 134.441 92.0497 134.43 91.9995 134.409C91.9493 134.388 91.9037 134.357 91.8653 134.319C90.3645 132.81 90.2523 128.045 91.2648 125.589C91.868 124.127 92.6901 123.819 93.2732 123.819C93.5477 123.811 93.8202 123.87 94.0674 123.99C94.3146 124.11 94.5292 124.289 94.693 124.51C95.494 125.582 95.3045 127.71 95.0231 129.246C95.7901 128.515 96.7823 127.893 97.9244 127.676C99.0666 127.458 100.176 127.676 101.269 128.298C102.924 125.868 105.125 123.716 105.277 123.567C105.317 123.529 105.363 123.499 105.413 123.479C105.464 123.459 105.518 123.449 105.572 123.45C105.626 123.451 105.68 123.463 105.73 123.485C105.78 123.506 105.825 123.538 105.863 123.577C105.901 123.616 105.93 123.662 105.95 123.713C105.97 123.764 105.98 123.818 105.979 123.873C105.978 123.928 105.967 123.981 105.945 124.032C105.923 124.082 105.892 124.127 105.853 124.165C104.934 125.055 103.247 126.881 101.962 128.755C101.981 128.768 101.999 128.783 102.018 128.796C103.655 130.04 103.64 132.986 102.83 134.29C102.493 134.833 102.032 135.116 101.526 135.116ZM101.506 129.45C100.679 130.774 100.132 132.067 100.275 133.015C100.353 133.537 100.643 133.921 101.17 134.187C101.414 134.311 101.778 134.41 102.128 133.849C102.772 132.819 102.748 130.392 101.519 129.459L101.506 129.45Z" fill="#C3DAE4"/>
<path d="M117.305 23.7022C117.305 22.4704 117.668 21.2663 118.349 20.2421C119.03 19.2178 119.998 18.4194 121.131 17.948C122.263 17.4765 123.51 17.353 124.712 17.5932C125.915 17.8334 127.02 18.4264 127.887 19.2973C128.754 20.1683 129.344 21.2779 129.583 22.486C129.823 23.694 129.7 24.9463 129.231 26.0843C128.762 27.2223 127.967 28.1949 126.948 28.8793C125.928 29.5636 124.73 29.9289 123.504 29.9289C121.86 29.9289 120.283 29.2729 119.121 28.1052C117.958 26.9375 117.305 25.3537 117.305 23.7022Z" fill="#2C7EA0"/>
<path d="M123.504 26.0207C123.431 26.0207 123.359 26.0064 123.292 25.9785C123.225 25.9506 123.164 25.9097 123.113 25.8581L120.765 23.4986C120.714 23.4471 120.673 23.3859 120.646 23.3186C120.618 23.2513 120.604 23.1792 120.604 23.1064C120.604 23.0336 120.618 22.9614 120.646 22.8941C120.673 22.8269 120.714 22.7657 120.765 22.7142C120.816 22.6627 120.877 22.6219 120.944 22.594C121.011 22.5661 121.083 22.5518 121.156 22.5518C121.228 22.5518 121.3 22.5661 121.367 22.594C121.434 22.6219 121.495 22.6627 121.546 22.7142L123.504 24.682L128.816 19.345C128.92 19.2423 129.06 19.185 129.205 19.1856C129.351 19.1861 129.49 19.2443 129.593 19.3477C129.696 19.451 129.754 19.591 129.755 19.7373C129.756 19.8835 129.699 20.0241 129.597 20.1284L123.895 25.8562C123.844 25.9082 123.783 25.9496 123.716 25.9778C123.649 26.006 123.577 26.0206 123.504 26.0207Z" fill="white"/>
<path d="M134.273 68.5441C135.643 70.631 125.955 83.5759 121.053 82.7592C115.6 81.8502 106.604 77.6291 106.604 77.6291C106.9 76.5667 107.262 74.986 107.262 74.986C109.176 75.4655 117.305 78.6019 119.05 78.1936C124.463 76.927 131.038 63.6153 134.273 68.5441Z" fill="#ED9F00"/>
<path d="M82.0549 112.63C81.378 113.286 79.8644 115.189 79.1122 117.867C76.8077 118.82 66.957 122.83 66.957 122.83L79.8543 110.34L82.0549 112.63Z" fill="#C3DAE4"/>
<path d="M77.6593 108.05C76.9816 108.706 75.033 110.155 72.3413 110.809C71.3096 113.088 66.959 122.83 66.959 122.83L79.8562 110.34L77.6593 108.05Z" fill="white"/>
<path d="M76.1265 115.253C75.9899 115.385 75.8162 115.472 75.6289 115.502C75.4416 115.532 75.2497 115.503 75.0791 115.42L67.7656 122.502L66.9609 122.83L67.3168 122.034L74.6294 114.952C74.5617 114.795 74.538 114.623 74.5609 114.454C74.5837 114.285 74.6521 114.125 74.7588 113.993C74.8655 113.86 75.0063 113.759 75.166 113.701C75.3257 113.643 75.4982 113.63 75.6647 113.664C75.8312 113.697 75.9854 113.776 76.1105 113.891C76.2357 114.006 76.327 114.154 76.3746 114.318C76.4222 114.482 76.4242 114.655 76.3805 114.82C76.3367 114.985 76.2489 115.135 76.1265 115.253Z" fill="#2C7EA0"/>
<path d="M118.592 72.7686C121.176 75.4597 123.542 77.3785 123.877 77.0533L123.752 77.1734C117.39 83.3346 85.695 111.323 82.9556 113.573C82.7312 113.791 81.1486 112.508 79.4198 110.709C77.6909 108.91 76.4771 107.272 76.6978 107.054C79.0345 104.387 108.037 73.5926 114.401 67.4306L114.525 67.3096C114.188 67.6311 116.009 70.0765 118.592 72.7686Z" fill="#2C7EA0"/>
<path d="M123.876 77.0535C123.575 77.3455 121.633 75.8239 119.37 73.5596C116.166 76.8854 85.9506 105.863 80.1406 111.432C81.5687 112.837 82.7651 113.759 82.9573 113.571C85.6968 111.323 117.392 83.3347 123.754 77.1718L123.876 77.0535Z" fill="#1B4F65"/>
<path d="M79.4199 110.704C80.8673 112.213 82.2099 113.354 82.7405 113.559C82.5419 113.729 82.3828 113.863 82.2752 113.95C82.0637 114.155 80.5777 112.95 78.9555 111.259C77.3334 109.569 76.1894 108.032 76.4 107.828C76.4846 107.736 76.6106 107.592 76.7678 107.419C77.0759 108.041 78.0948 109.323 79.4199 110.704Z" fill="#362E94"/>
<path d="M123.82 77.7354C123.462 78.0818 120.938 76.0355 118.183 73.1642C115.428 70.2929 113.485 67.684 113.843 67.3375C119.378 61.9451 146.513 33.6551 152.518 39.9132C158.523 46.1714 129.387 72.3762 123.82 77.7354Z" fill="#2C7EA0"/>
<path d="M153.308 41.8101C152.909 39.749 151.416 40.7579 150.8 43.2957C150.177 45.8566 133.017 63.4622 120.285 75.244C122.119 76.9504 123.552 77.9897 123.815 77.7384C128.939 72.8115 153.952 50.2873 153.308 41.8101Z" fill="#1B4F65"/>
<path d="M146.942 43.9666C146.657 43.597 144.673 44.5929 141.76 46.5903C138.847 48.5876 135.004 51.5661 130.946 55.0739C126.887 58.5817 123.375 61.9455 120.971 64.5368C118.567 67.1282 117.292 68.9611 117.616 69.2965C117.94 69.6318 119.78 68.4438 122.582 66.3337C125.384 64.2237 129.122 61.1602 133.164 57.669C137.207 54.1778 140.778 50.9249 143.28 48.4638C145.782 46.0027 147.231 44.3435 146.942 43.9666Z" fill="white"/>
<path d="M106.675 74.4711C107.306 74.3981 108.146 74.3602 108.304 74.7011C108.463 75.042 107.217 75.1926 107.217 75.1926C108.081 75.6369 110.012 77.1326 108.304 77.9438C107.047 78.5443 104.413 77.9281 104.2 77.4819C103.785 76.6014 104.608 74.7094 106.675 74.4711Z" fill="#F8D8D0"/>
<path d="M137.511 123.579C138.559 128.583 145.845 151.125 146.144 154.223C146.972 154.047 148.638 154.009 148.638 154.009C148.289 152.34 147.043 131.137 143.304 123.653C144.653 116.824 136.463 118.574 137.511 123.579Z" fill="#F7D3C9"/>
<path d="M147.424 157.544C147.806 157.53 148.298 157.938 148.376 158.387L149.073 158.36C149.463 157.527 149.541 156.581 149.293 155.695C149.03 154.764 148.799 154.998 148.565 155.251C148.028 155.726 145.773 155.964 145.567 155.205C144.986 155.317 139.044 157.287 139.066 157.845C139.1 158.75 139.802 158.719 140.288 158.701C145.973 158.48 145.206 158.159 147.424 157.544Z" fill="#1B4F65"/>
<path d="M146.145 154.223C146.307 153.356 148.437 152.409 148.658 154.125C148.702 154.47 148.727 154.805 148.855 155.079C148.471 155.705 143.206 157.36 142.311 156.28C142.892 155.935 146.18 155.136 146.145 154.223Z" fill="#F7D3C9"/>
<path d="M123.311 123.515C124.36 128.519 130.71 147.271 131.01 150.369C131.838 150.194 133.504 150.155 133.504 150.155C133.155 148.486 131.909 127.283 128.17 119.799C125.077 117.946 122.263 118.513 123.311 123.515Z" fill="#F7D3C9"/>
<path d="M132.29 153.691C132.672 153.676 133.164 154.083 133.242 154.532L133.94 154.506C134.329 153.672 134.406 152.726 134.158 151.84C133.895 150.909 133.665 151.144 133.431 151.397C132.894 151.872 130.639 152.109 130.432 151.351C129.852 151.462 123.911 153.433 123.932 153.991C123.967 154.895 124.673 154.865 125.154 154.846C130.837 154.627 130.07 154.305 132.29 153.691Z" fill="#1B4F65"/>
<path d="M131.01 150.369C131.172 149.501 133.302 148.554 133.522 150.271C133.567 150.616 133.593 150.952 133.72 151.224C133.336 151.85 128.071 153.506 127.176 152.425C127.757 152.081 131.045 151.281 131.01 150.369Z" fill="#F7D3C9"/>
<path d="M135.841 65.0859C137.965 67.1581 140.071 67.8445 141.993 75.4607C143.734 82.3646 145.354 89.4412 145.354 89.4412L132.683 91.032C132.139 88.2901 132.972 87.3681 130.24 83.6108C128.709 81.5045 126.305 78.2461 127.389 75.2196C129.078 70.4987 130.263 67.669 131.178 66.4828C134.246 66.0938 135.841 65.0859 135.841 65.0859Z" fill="#FCBA06"/>
<path d="M112.555 71.7022C111.872 71.1479 112.432 70.6287 112.041 69.6392C111.673 68.6988 111.038 68.8337 111.038 69.1681C110.703 68.684 108.112 72.0052 108.774 72.4015C109.474 72.8173 110.705 73.8501 110.705 73.8501C111.022 73.5286 112.555 71.7022 112.555 71.7022Z" fill="#F8D8D0"/>
<path d="M138.022 69.4391C140.007 71.7487 131.361 85.3606 123.86 85.7495C119.915 85.9537 110.385 74.0518 110.385 74.0518C111.188 73.2665 112.672 71.5704 112.672 71.5704C114.117 72.9783 122.394 81.1026 124.075 80.2499C128.188 78.1574 134.102 64.8762 138.022 69.4391Z" fill="#FFD03E"/>
<path d="M136.378 65.5762C137.057 66.1397 133.273 67.5486 131.797 68.0465C130.627 68.441 130.325 67.8184 130.67 67.2095C131.481 65.7924 130.933 65.1484 130.729 64.5304C129.286 65.2556 128.485 64.6293 127.878 62.437C127.632 62.5267 127.364 62.5335 127.114 62.4564C127.017 62.1598 127.362 61.2942 127.14 60.617C126.917 59.9398 126.674 59.3412 126.523 58.1707C126.372 57.0001 127.095 54.7912 129.735 54.1602C132.827 53.4212 134.241 55.2993 135.01 57.9369C135.862 60.8646 132.084 62.0083 136.378 65.5762Z" fill="#F7D3C9"/>
<path d="M126.026 57.2619C126.07 58.6088 127.405 60.1572 129.911 60.0205C132.916 59.857 132.89 61.6834 132.578 62.9241C132.049 65.0489 133.515 68.2824 135.855 69.0825C138.997 70.156 142.709 68.7055 144.249 66.3109C146.451 62.8872 142.729 63.0156 139.752 63.7112C138.406 64.0253 137.129 61.5864 136.938 59.7387C136.774 58.1552 136.351 56.3907 135.632 55.198C134.131 52.7092 131.77 51.7281 129.338 52.5355C126.907 53.3429 125.949 54.8913 126.026 57.2619Z" fill="#20196F"/>
<path d="M132.684 91.0323C133.365 96.6104 121.993 116.503 122.293 120.922C122.593 125.342 122.59 127.332 122.59 127.332C131.104 129.023 140.607 130.613 147.734 128.526C147.338 126.635 146.027 125.846 146.249 123.505C146.472 121.164 151.776 99.7838 145.358 89.4414C141.446 89.9163 132.684 91.0323 132.684 91.0323Z" fill="#2C7EA0"/>
<path d="M143.705 116.094C139.119 124.448 137.927 126.932 139.513 129.518C142.447 129.535 145.235 129.256 147.731 128.526C147.335 126.635 146.023 125.846 146.246 123.505C146.468 121.164 151.773 99.7838 145.355 89.4414C147.239 94.5133 148.291 107.74 143.705 116.094Z" fill="#1B4F65"/>
<path d="M147.634 15.1527L145.2 21.5087C145.139 21.6658 145.12 21.8363 145.146 22.003C145.172 22.1697 145.24 22.3266 145.346 22.4579C145.451 22.5892 145.589 22.6902 145.746 22.7506C145.903 22.811 146.073 22.8288 146.238 22.8021L152.933 21.7434C153.098 21.7173 153.254 21.648 153.384 21.5423C153.514 21.4367 153.615 21.2984 153.675 21.1415C153.735 20.9846 153.753 20.8145 153.727 20.6484C153.701 20.4822 153.632 20.3259 153.527 20.195L149.263 14.894C149.158 14.7637 149.02 14.6635 148.864 14.6035C148.708 14.5434 148.539 14.5256 148.374 14.5518C148.209 14.578 148.054 14.6473 147.924 14.7528C147.794 14.8582 147.694 14.9961 147.634 15.1527Z" fill="white"/>
</g>
<defs>
<clipPath id="clip0_477_3244">
<rect width="181" height="160.809" fill="white"/>
</clipPath>
</defs>
</svg>
