<svg width="20" height="20" viewBox="0 0 20 20" fill="none" xmlns="http://www.w3.org/2000/svg">
<path d="M9.15076 1.36587C9.54204 0.736559 10.458 0.73656 10.8492 1.36587L13.4707 5.58213C13.6084 5.80355 13.8271 5.96245 14.0802 6.02495L18.9002 7.21522C19.6196 7.39288 19.9026 8.26397 19.425 8.83056L16.2252 12.6266C16.0572 12.826 15.9736 13.0831 15.9924 13.3431L16.3498 18.295C16.4032 19.0341 15.6622 19.5725 14.9757 19.2933L10.3767 17.4232C10.1352 17.325 9.86483 17.325 9.62331 17.4232L5.02425 19.2933C4.3378 19.5725 3.59681 19.0341 3.65016 18.295L4.0076 13.3431C4.02637 13.0831 3.94283 12.826 3.77479 12.6266L0.574974 8.83056C0.0973716 8.26397 0.380406 7.39288 1.09983 7.21522L5.91981 6.02495C6.17293 5.96245 6.39163 5.80355 6.5293 5.58213L9.15076 1.36587Z" fill="#D9D9D9"/>
</svg>
